<?xml version="1.0" standalone="no"?>
 <!DOCTYPE svg PUBLIC "-//W3C//DTD SVG 1.1//EN" 
 "http://www.w3.org/Graphics/SVG/1.1/DTD/svg11.dtd"> 
<svg
  xmlns:svg="http://www.w3.org/2000/svg"
  xmlns="http://www.w3.org/2000/svg"
  xmlns:xlink="http://www.w3.org/1999/xlink"
  version="1.1"
  width="419.9890mm" height="297.0022mm" viewBox="0.0000 0.0000 419.9890 297.0022">
<title>SVG Image created as 8-Bit-PC-F_Paste.svg date 2025/11/18 21:27:07 </title>
  <desc>Image generated by PCBNEW </desc>
<g style="fill:#000000; fill-opacity:1.0000;stroke:#000000; stroke-opacity:1.0000;
stroke-linecap:round; stroke-linejoin:round;"
 transform="translate(0 0) scale(1 1)">
<path style="fill:#000000; fill-opacity:1.0000; stroke:none;fill-rule:evenodd;"
d="M 293.6171,118.3573
293.6285,118.2999
293.6610,118.2512
293.7097,118.2187
293.7671,118.2073
295.4171,118.2073
295.4745,118.2187
295.5232,118.2512
295.5557,118.2999
295.5671,118.3573
295.5671,118.6573
295.5557,118.7147
295.5232,118.7634
295.4745,118.7959
295.4171,118.8073
293.7671,118.8073
293.7097,118.7959
293.6610,118.7634
293.6285,118.7147
293.6171,118.6573
Z" /> 
<path style="fill:#000000; fill-opacity:1.0000; stroke:none;fill-rule:evenodd;"
d="M 293.6171,119.6273
293.6285,119.5699
293.6610,119.5212
293.7097,119.4887
293.7671,119.4773
295.4171,119.4773
295.4745,119.4887
295.5232,119.5212
295.5557,119.5699
295.5671,119.6273
295.5671,119.9273
295.5557,119.9847
295.5232,120.0334
295.4745,120.0659
295.4171,120.0773
293.7671,120.0773
293.7097,120.0659
293.6610,120.0334
293.6285,119.9847
293.6171,119.9273
Z" /> 
<path style="fill:#000000; fill-opacity:1.0000; stroke:none;fill-rule:evenodd;"
d="M 293.6171,120.8973
293.6285,120.8399
293.6610,120.7912
293.7097,120.7587
293.7671,120.7473
295.4171,120.7473
295.4745,120.7587
295.5232,120.7912
295.5557,120.8399
295.5671,120.8973
295.5671,121.1973
295.5557,121.2547
295.5232,121.3034
295.4745,121.3359
295.4171,121.3473
293.7671,121.3473
293.7097,121.3359
293.6610,121.3034
293.6285,121.2547
293.6171,121.1973
Z" /> 
<path style="fill:#000000; fill-opacity:1.0000; stroke:none;fill-rule:evenodd;"
d="M 293.6171,122.1673
293.6285,122.1099
293.6610,122.0612
293.7097,122.0287
293.7671,122.0173
295.4171,122.0173
295.4745,122.0287
295.5232,122.0612
295.5557,122.1099
295.5671,122.1673
295.5671,122.4673
295.5557,122.5247
295.5232,122.5734
295.4745,122.6059
295.4171,122.6173
293.7671,122.6173
293.7097,122.6059
293.6610,122.5734
293.6285,122.5247
293.6171,122.4673
Z" /> 
<path style="fill:#000000; fill-opacity:1.0000; stroke:none;fill-rule:evenodd;"
d="M 298.5671,122.1673
298.5785,122.1099
298.6110,122.0612
298.6597,122.0287
298.7171,122.0173
300.3671,122.0173
300.4245,122.0287
300.4732,122.0612
300.5057,122.1099
300.5171,122.1673
300.5171,122.4673
300.5057,122.5247
300.4732,122.5734
300.4245,122.6059
300.3671,122.6173
298.7171,122.6173
298.6597,122.6059
298.6110,122.5734
298.5785,122.5247
298.5671,122.4673
Z" /> 
<path style="fill:#000000; fill-opacity:1.0000; stroke:none;fill-rule:evenodd;"
d="M 298.5671,120.8973
298.5785,120.8399
298.6110,120.7912
298.6597,120.7587
298.7171,120.7473
300.3671,120.7473
300.4245,120.7587
300.4732,120.7912
300.5057,120.8399
300.5171,120.8973
300.5171,121.1973
300.5057,121.2547
300.4732,121.3034
300.4245,121.3359
300.3671,121.3473
298.7171,121.3473
298.6597,121.3359
298.6110,121.3034
298.5785,121.2547
298.5671,121.1973
Z" /> 
<path style="fill:#000000; fill-opacity:1.0000; stroke:none;fill-rule:evenodd;"
d="M 298.5671,119.6273
298.5785,119.5699
298.6110,119.5212
298.6597,119.4887
298.7171,119.4773
300.3671,119.4773
300.4245,119.4887
300.4732,119.5212
300.5057,119.5699
300.5171,119.6273
300.5171,119.9273
300.5057,119.9847
300.4732,120.0334
300.4245,120.0659
300.3671,120.0773
298.7171,120.0773
298.6597,120.0659
298.6110,120.0334
298.5785,119.9847
298.5671,119.9273
Z" /> 
<path style="fill:#000000; fill-opacity:1.0000; stroke:none;fill-rule:evenodd;"
d="M 298.5671,118.3573
298.5785,118.2999
298.6110,118.2512
298.6597,118.2187
298.7171,118.2073
300.3671,118.2073
300.4245,118.2187
300.4732,118.2512
300.5057,118.2999
300.5171,118.3573
300.5171,118.6573
300.5057,118.7147
300.4732,118.7634
300.4245,118.7959
300.3671,118.8073
298.7171,118.8073
298.6597,118.7959
298.6110,118.7634
298.5785,118.7147
298.5671,118.6573
Z" /> 
<path style="fill:#000000; fill-opacity:1.0000; stroke:none;fill-rule:evenodd;"
d="M 284.6221,141.2123
284.6795,141.2237
284.7282,141.2562
284.7607,141.3049
284.7721,141.3623
284.7721,143.0123
284.7607,143.0697
284.7282,143.1184
284.6795,143.1509
284.6221,143.1623
284.3221,143.1623
284.2647,143.1509
284.2160,143.1184
284.1835,143.0697
284.1721,143.0123
284.1721,141.3623
284.1835,141.3049
284.2160,141.2562
284.2647,141.2237
284.3221,141.2123
Z" /> 
<path style="fill:#000000; fill-opacity:1.0000; stroke:none;fill-rule:evenodd;"
d="M 283.3521,141.2123
283.4095,141.2237
283.4582,141.2562
283.4907,141.3049
283.5021,141.3623
283.5021,143.0123
283.4907,143.0697
283.4582,143.1184
283.4095,143.1509
283.3521,143.1623
283.0521,143.1623
282.9947,143.1509
282.9460,143.1184
282.9135,143.0697
282.9021,143.0123
282.9021,141.3623
282.9135,141.3049
282.9460,141.2562
282.9947,141.2237
283.0521,141.2123
Z" /> 
<path style="fill:#000000; fill-opacity:1.0000; stroke:none;fill-rule:evenodd;"
d="M 282.0821,141.2123
282.1395,141.2237
282.1882,141.2562
282.2207,141.3049
282.2321,141.3623
282.2321,143.0123
282.2207,143.0697
282.1882,143.1184
282.1395,143.1509
282.0821,143.1623
281.7821,143.1623
281.7247,143.1509
281.6760,143.1184
281.6435,143.0697
281.6321,143.0123
281.6321,141.3623
281.6435,141.3049
281.6760,141.2562
281.7247,141.2237
281.7821,141.2123
Z" /> 
<path style="fill:#000000; fill-opacity:1.0000; stroke:none;fill-rule:evenodd;"
d="M 280.8121,141.2123
280.8695,141.2237
280.9182,141.2562
280.9507,141.3049
280.9621,141.3623
280.9621,143.0123
280.9507,143.0697
280.9182,143.1184
280.8695,143.1509
280.8121,143.1623
280.5121,143.1623
280.4547,143.1509
280.4060,143.1184
280.3735,143.0697
280.3621,143.0123
280.3621,141.3623
280.3735,141.3049
280.4060,141.2562
280.4547,141.2237
280.5121,141.2123
Z" /> 
<path style="fill:#000000; fill-opacity:1.0000; stroke:none;fill-rule:evenodd;"
d="M 280.8121,146.1623
280.8695,146.1737
280.9182,146.2062
280.9507,146.2549
280.9621,146.3123
280.9621,147.9623
280.9507,148.0197
280.9182,148.0684
280.8695,148.1009
280.8121,148.1123
280.5121,148.1123
280.4547,148.1009
280.4060,148.0684
280.3735,148.0197
280.3621,147.9623
280.3621,146.3123
280.3735,146.2549
280.4060,146.2062
280.4547,146.1737
280.5121,146.1623
Z" /> 
<path style="fill:#000000; fill-opacity:1.0000; stroke:none;fill-rule:evenodd;"
d="M 282.0821,146.1623
282.1395,146.1737
282.1882,146.2062
282.2207,146.2549
282.2321,146.3123
282.2321,147.9623
282.2207,148.0197
282.1882,148.0684
282.1395,148.1009
282.0821,148.1123
281.7821,148.1123
281.7247,148.1009
281.6760,148.0684
281.6435,148.0197
281.6321,147.9623
281.6321,146.3123
281.6435,146.2549
281.6760,146.2062
281.7247,146.1737
281.7821,146.1623
Z" /> 
<path style="fill:#000000; fill-opacity:1.0000; stroke:none;fill-rule:evenodd;"
d="M 283.3521,146.1623
283.4095,146.1737
283.4582,146.2062
283.4907,146.2549
283.5021,146.3123
283.5021,147.9623
283.4907,148.0197
283.4582,148.0684
283.4095,148.1009
283.3521,148.1123
283.0521,148.1123
282.9947,148.1009
282.9460,148.0684
282.9135,148.0197
282.9021,147.9623
282.9021,146.3123
282.9135,146.2549
282.9460,146.2062
282.9947,146.1737
283.0521,146.1623
Z" /> 
<path style="fill:#000000; fill-opacity:1.0000; stroke:none;fill-rule:evenodd;"
d="M 284.6221,146.1623
284.6795,146.1737
284.7282,146.2062
284.7607,146.2549
284.7721,146.3123
284.7721,147.9623
284.7607,148.0197
284.7282,148.0684
284.6795,148.1009
284.6221,148.1123
284.3221,148.1123
284.2647,148.1009
284.2160,148.0684
284.1835,148.0197
284.1721,147.9623
284.1721,146.3123
284.1835,146.2549
284.2160,146.2062
284.2647,146.1737
284.3221,146.1623
Z" /> 
<path style="fill:#000000; fill-opacity:1.0000; stroke:none;fill-rule:evenodd;"
d="M 108.1414,155.1291
108.1604,155.0334
108.2146,154.9523
108.2957,154.8981
108.3914,154.8791
109.1414,154.8791
109.2371,154.8981
109.3182,154.9523
109.3724,155.0334
109.3914,155.1291
109.3914,157.1291
109.3724,157.2248
109.3182,157.3059
109.2371,157.3601
109.1414,157.3791
108.3914,157.3791
108.2957,157.3601
108.2146,157.3059
108.1604,157.2248
108.1414,157.1291
Z" /> 
<path style="fill:#000000; fill-opacity:1.0000; stroke:none;fill-rule:evenodd;"
d="M 110.6414,155.1291
110.6604,155.0334
110.7146,154.9523
110.7957,154.8981
110.8914,154.8791
111.6414,154.8791
111.7371,154.8981
111.8182,154.9523
111.8724,155.0334
111.8914,155.1291
111.8914,157.1291
111.8724,157.2248
111.8182,157.3059
111.7371,157.3601
111.6414,157.3791
110.8914,157.3791
110.7957,157.3601
110.7146,157.3059
110.6604,157.2248
110.6414,157.1291
Z" /> 
<path style="fill:#000000; fill-opacity:1.0000; stroke:none;fill-rule:evenodd;"
d="M 113.1414,155.1291
113.1604,155.0334
113.2146,154.9523
113.2957,154.8981
113.3914,154.8791
114.1414,154.8791
114.2371,154.8981
114.3182,154.9523
114.3724,155.0334
114.3914,155.1291
114.3914,157.1291
114.3724,157.2248
114.3182,157.3059
114.2371,157.3601
114.1414,157.3791
113.3914,157.3791
113.2957,157.3601
113.2146,157.3059
113.1604,157.2248
113.1414,157.1291
Z" /> 
<path style="fill:#000000; fill-opacity:1.0000; stroke:none;fill-rule:evenodd;"
d="M 167.3394,96.4444
167.3394,95.8856
168.7011,95.8856
168.7011,96.4444
Z" /> 
<path style="fill:#000000; fill-opacity:1.0000; stroke:none;fill-rule:evenodd;"
d="M 167.3394,97.7144
167.3394,97.1556
168.7011,97.1556
168.7011,97.7144
Z" /> 
<path style="fill:#000000; fill-opacity:1.0000; stroke:none;fill-rule:evenodd;"
d="M 167.3394,98.9844
167.3394,98.4256
168.7011,98.4256
168.7011,98.9844
Z" /> 
<path style="fill:#000000; fill-opacity:1.0000; stroke:none;fill-rule:evenodd;"
d="M 167.3394,100.2544
167.3394,99.6956
168.7011,99.6956
168.7011,100.2544
Z" /> 
<path style="fill:#000000; fill-opacity:1.0000; stroke:none;fill-rule:evenodd;"
d="M 167.3394,101.5244
167.3394,100.9656
168.7011,100.9656
168.7011,101.5244
Z" /> 
<path style="fill:#000000; fill-opacity:1.0000; stroke:none;fill-rule:evenodd;"
d="M 167.3394,102.7944
167.3394,102.2356
168.7011,102.2356
168.7011,102.7944
Z" /> 
<path style="fill:#000000; fill-opacity:1.0000; stroke:none;fill-rule:evenodd;"
d="M 167.3394,104.0644
167.3394,103.5056
168.7011,103.5056
168.7011,104.0644
Z" /> 
<path style="fill:#000000; fill-opacity:1.0000; stroke:none;fill-rule:evenodd;"
d="M 167.3394,105.3344
167.3394,104.7756
168.7011,104.7756
168.7011,105.3344
Z" /> 
<path style="fill:#000000; fill-opacity:1.0000; stroke:none;fill-rule:evenodd;"
d="M 172.6889,105.3344
172.6889,104.7756
174.0506,104.7756
174.0506,105.3344
Z" /> 
<path style="fill:#000000; fill-opacity:1.0000; stroke:none;fill-rule:evenodd;"
d="M 172.6889,104.0644
172.6889,103.5056
174.0506,103.5056
174.0506,104.0644
Z" /> 
<path style="fill:#000000; fill-opacity:1.0000; stroke:none;fill-rule:evenodd;"
d="M 172.6889,102.7944
172.6889,102.2356
174.0506,102.2356
174.0506,102.7944
Z" /> 
<path style="fill:#000000; fill-opacity:1.0000; stroke:none;fill-rule:evenodd;"
d="M 172.6889,101.5244
172.6889,100.9656
174.0506,100.9656
174.0506,101.5244
Z" /> 
<path style="fill:#000000; fill-opacity:1.0000; stroke:none;fill-rule:evenodd;"
d="M 172.6889,100.2544
172.6889,99.6956
174.0506,99.6956
174.0506,100.2544
Z" /> 
<path style="fill:#000000; fill-opacity:1.0000; stroke:none;fill-rule:evenodd;"
d="M 172.6889,98.9844
172.6889,98.4256
174.0506,98.4256
174.0506,98.9844
Z" /> 
<path style="fill:#000000; fill-opacity:1.0000; stroke:none;fill-rule:evenodd;"
d="M 172.6889,97.7144
172.6889,97.1556
174.0506,97.1556
174.0506,97.7144
Z" /> 
<path style="fill:#000000; fill-opacity:1.0000; stroke:none;fill-rule:evenodd;"
d="M 172.6889,96.4444
172.6889,95.8856
174.0506,95.8856
174.0506,96.4444
Z" /> 
<path style="fill:#000000; fill-opacity:1.0000; stroke:none;fill-rule:evenodd;"
d="M 179.3394,96.9444
179.3394,96.3856
180.7011,96.3856
180.7011,96.9444
Z" /> 
<path style="fill:#000000; fill-opacity:1.0000; stroke:none;fill-rule:evenodd;"
d="M 179.3394,98.2144
179.3394,97.6556
180.7011,97.6556
180.7011,98.2144
Z" /> 
<path style="fill:#000000; fill-opacity:1.0000; stroke:none;fill-rule:evenodd;"
d="M 179.3394,99.4844
179.3394,98.9256
180.7011,98.9256
180.7011,99.4844
Z" /> 
<path style="fill:#000000; fill-opacity:1.0000; stroke:none;fill-rule:evenodd;"
d="M 179.3394,100.7544
179.3394,100.1956
180.7011,100.1956
180.7011,100.7544
Z" /> 
<path style="fill:#000000; fill-opacity:1.0000; stroke:none;fill-rule:evenodd;"
d="M 179.3394,102.0244
179.3394,101.4656
180.7011,101.4656
180.7011,102.0244
Z" /> 
<path style="fill:#000000; fill-opacity:1.0000; stroke:none;fill-rule:evenodd;"
d="M 179.3394,103.2944
179.3394,102.7356
180.7011,102.7356
180.7011,103.2944
Z" /> 
<path style="fill:#000000; fill-opacity:1.0000; stroke:none;fill-rule:evenodd;"
d="M 179.3394,104.5644
179.3394,104.0056
180.7011,104.0056
180.7011,104.5644
Z" /> 
<path style="fill:#000000; fill-opacity:1.0000; stroke:none;fill-rule:evenodd;"
d="M 179.3394,105.8344
179.3394,105.2756
180.7011,105.2756
180.7011,105.8344
Z" /> 
<path style="fill:#000000; fill-opacity:1.0000; stroke:none;fill-rule:evenodd;"
d="M 184.6889,105.8344
184.6889,105.2756
186.0506,105.2756
186.0506,105.8344
Z" /> 
<path style="fill:#000000; fill-opacity:1.0000; stroke:none;fill-rule:evenodd;"
d="M 184.6889,104.5644
184.6889,104.0056
186.0506,104.0056
186.0506,104.5644
Z" /> 
<path style="fill:#000000; fill-opacity:1.0000; stroke:none;fill-rule:evenodd;"
d="M 184.6889,103.2944
184.6889,102.7356
186.0506,102.7356
186.0506,103.2944
Z" /> 
<path style="fill:#000000; fill-opacity:1.0000; stroke:none;fill-rule:evenodd;"
d="M 184.6889,102.0244
184.6889,101.4656
186.0506,101.4656
186.0506,102.0244
Z" /> 
<path style="fill:#000000; fill-opacity:1.0000; stroke:none;fill-rule:evenodd;"
d="M 184.6889,100.7544
184.6889,100.1956
186.0506,100.1956
186.0506,100.7544
Z" /> 
<path style="fill:#000000; fill-opacity:1.0000; stroke:none;fill-rule:evenodd;"
d="M 184.6889,99.4844
184.6889,98.9256
186.0506,98.9256
186.0506,99.4844
Z" /> 
<path style="fill:#000000; fill-opacity:1.0000; stroke:none;fill-rule:evenodd;"
d="M 184.6889,98.2144
184.6889,97.6556
186.0506,97.6556
186.0506,98.2144
Z" /> 
<path style="fill:#000000; fill-opacity:1.0000; stroke:none;fill-rule:evenodd;"
d="M 184.6889,96.9444
184.6889,96.3856
186.0506,96.3856
186.0506,96.9444
Z" /> 
<path style="fill:#000000; fill-opacity:1.0000; stroke:none;fill-rule:evenodd;"
d="M 264.1250,27.2500
264.1060,27.3457
264.0518,27.4268
263.9707,27.4810
263.8750,27.5000
263.1250,27.5000
263.0293,27.4810
262.9482,27.4268
262.8940,27.3457
262.8750,27.2500
262.8750,25.2500
262.8940,25.1543
262.9482,25.0732
263.0293,25.0190
263.1250,25.0000
263.8750,25.0000
263.9707,25.0190
264.0518,25.0732
264.1060,25.1543
264.1250,25.2500
Z" /> 
<path style="fill:#000000; fill-opacity:1.0000; stroke:none;fill-rule:evenodd;"
d="M 261.6250,27.2500
261.6060,27.3457
261.5518,27.4268
261.4707,27.4810
261.3750,27.5000
260.6250,27.5000
260.5293,27.4810
260.4482,27.4268
260.3940,27.3457
260.3750,27.2500
260.3750,25.2500
260.3940,25.1543
260.4482,25.0732
260.5293,25.0190
260.6250,25.0000
261.3750,25.0000
261.4707,25.0190
261.5518,25.0732
261.6060,25.1543
261.6250,25.2500
Z" /> 
<path style="fill:#000000; fill-opacity:1.0000; stroke:none;fill-rule:evenodd;"
d="M 259.1250,27.2500
259.1060,27.3457
259.0518,27.4268
258.9707,27.4810
258.8750,27.5000
258.1250,27.5000
258.0293,27.4810
257.9482,27.4268
257.8940,27.3457
257.8750,27.2500
257.8750,25.2500
257.8940,25.1543
257.9482,25.0732
258.0293,25.0190
258.1250,25.0000
258.8750,25.0000
258.9707,25.0190
259.0518,25.0732
259.1060,25.1543
259.1250,25.2500
Z" /> 
<path style="fill:#000000; fill-opacity:1.0000; stroke:none;fill-rule:evenodd;"
d="M 25.1250,109.8200
25.1920,109.8333
25.2487,109.8713
25.2867,109.9280
25.3000,109.9950
25.3000,110.3450
25.2867,110.4120
25.2487,110.4687
25.1920,110.5067
25.1250,110.5200
23.8750,110.5200
23.8080,110.5067
23.7513,110.4687
23.7133,110.4120
23.7000,110.3450
23.7000,109.9950
23.7133,109.9280
23.7513,109.8713
23.8080,109.8333
23.8750,109.8200
Z" /> 
<path style="fill:#000000; fill-opacity:1.0000; stroke:none;fill-rule:evenodd;"
d="M 25.1000,111.7900
25.1765,111.8052
25.2414,111.8486
25.2848,111.9135
25.3000,111.9900
25.3000,112.3900
25.2848,112.4665
25.2414,112.5314
25.1765,112.5748
25.1000,112.5900
23.9000,112.5900
23.8235,112.5748
23.7586,112.5314
23.7152,112.4665
23.7000,112.3900
23.7000,111.9900
23.7152,111.9135
23.7586,111.8486
23.8235,111.8052
23.9000,111.7900
Z" /> 
<path style="fill:#000000; fill-opacity:1.0000; stroke:none;fill-rule:evenodd;"
d="M 25.0750,112.9700
25.1611,112.9871
25.2341,113.0359
25.2829,113.1089
25.3000,113.1950
25.3000,113.6450
25.2829,113.7311
25.2341,113.8041
25.1611,113.8529
25.0750,113.8700
23.9250,113.8700
23.8389,113.8529
23.7659,113.8041
23.7171,113.7311
23.7000,113.6450
23.7000,113.1950
23.7171,113.1089
23.7659,113.0359
23.8389,112.9871
23.9250,112.9700
Z" /> 
<path style="fill:#000000; fill-opacity:1.0000; stroke:none;fill-rule:evenodd;"
d="M 25.1250,110.8200
25.1920,110.8333
25.2487,110.8713
25.2867,110.9280
25.3000,110.9950
25.3000,111.3450
25.2867,111.4120
25.2487,111.4687
25.1920,111.5067
25.1250,111.5200
23.8750,111.5200
23.8080,111.5067
23.7513,111.4687
23.7133,111.4120
23.7000,111.3450
23.7000,110.9950
23.7133,110.9280
23.7513,110.8713
23.8080,110.8333
23.8750,110.8200
Z" /> 
<path style="fill:#000000; fill-opacity:1.0000; stroke:none;fill-rule:evenodd;"
d="M 25.1000,108.7500
25.1765,108.7652
25.2414,108.8086
25.2848,108.8735
25.3000,108.9500
25.3000,109.3500
25.2848,109.4265
25.2414,109.4914
25.1765,109.5348
25.1000,109.5500
23.9000,109.5500
23.8235,109.5348
23.7586,109.4914
23.7152,109.4265
23.7000,109.3500
23.7000,108.9500
23.7152,108.8735
23.7586,108.8086
23.8235,108.7652
23.9000,108.7500
Z" /> 
<path style="fill:#000000; fill-opacity:1.0000; stroke:none;fill-rule:evenodd;"
d="M 25.0750,107.4700
25.1611,107.4871
25.2341,107.5359
25.2829,107.6089
25.3000,107.6950
25.3000,108.1450
25.2829,108.2311
25.2341,108.3041
25.1611,108.3529
25.0750,108.3700
23.9250,108.3700
23.8389,108.3529
23.7659,108.3041
23.7171,108.2311
23.7000,108.1450
23.7000,107.6950
23.7171,107.6089
23.7659,107.5359
23.8389,107.4871
23.9250,107.4700
Z" /> 
<path style="fill:#000000; fill-opacity:1.0000; stroke:none;fill-rule:evenodd;"
d="M 119.8339,150.9591
119.8453,150.9017
119.8778,150.8530
119.9265,150.8205
119.9839,150.8091
121.6339,150.8091
121.6913,150.8205
121.7400,150.8530
121.7725,150.9017
121.7839,150.9591
121.7839,151.2591
121.7725,151.3165
121.7400,151.3652
121.6913,151.3977
121.6339,151.4091
119.9839,151.4091
119.9265,151.3977
119.8778,151.3652
119.8453,151.3165
119.8339,151.2591
Z" /> 
<path style="fill:#000000; fill-opacity:1.0000; stroke:none;fill-rule:evenodd;"
d="M 119.8339,152.2291
119.8453,152.1717
119.8778,152.1230
119.9265,152.0905
119.9839,152.0791
121.6339,152.0791
121.6913,152.0905
121.7400,152.1230
121.7725,152.1717
121.7839,152.2291
121.7839,152.5291
121.7725,152.5865
121.7400,152.6352
121.6913,152.6677
121.6339,152.6791
119.9839,152.6791
119.9265,152.6677
119.8778,152.6352
119.8453,152.5865
119.8339,152.5291
Z" /> 
<path style="fill:#000000; fill-opacity:1.0000; stroke:none;fill-rule:evenodd;"
d="M 119.8339,153.4991
119.8453,153.4417
119.8778,153.3930
119.9265,153.3605
119.9839,153.3491
121.6339,153.3491
121.6913,153.3605
121.7400,153.3930
121.7725,153.4417
121.7839,153.4991
121.7839,153.7991
121.7725,153.8565
121.7400,153.9052
121.6913,153.9377
121.6339,153.9491
119.9839,153.9491
119.9265,153.9377
119.8778,153.9052
119.8453,153.8565
119.8339,153.7991
Z" /> 
<path style="fill:#000000; fill-opacity:1.0000; stroke:none;fill-rule:evenodd;"
d="M 119.8339,154.7691
119.8453,154.7117
119.8778,154.6630
119.9265,154.6305
119.9839,154.6191
121.6339,154.6191
121.6913,154.6305
121.7400,154.6630
121.7725,154.7117
121.7839,154.7691
121.7839,155.0691
121.7725,155.1265
121.7400,155.1752
121.6913,155.2077
121.6339,155.2191
119.9839,155.2191
119.9265,155.2077
119.8778,155.1752
119.8453,155.1265
119.8339,155.0691
Z" /> 
<path style="fill:#000000; fill-opacity:1.0000; stroke:none;fill-rule:evenodd;"
d="M 124.7839,154.7691
124.7953,154.7117
124.8278,154.6630
124.8765,154.6305
124.9339,154.6191
126.5839,154.6191
126.6413,154.6305
126.6900,154.6630
126.7225,154.7117
126.7339,154.7691
126.7339,155.0691
126.7225,155.1265
126.6900,155.1752
126.6413,155.2077
126.5839,155.2191
124.9339,155.2191
124.8765,155.2077
124.8278,155.1752
124.7953,155.1265
124.7839,155.0691
Z" /> 
<path style="fill:#000000; fill-opacity:1.0000; stroke:none;fill-rule:evenodd;"
d="M 124.7839,153.4991
124.7953,153.4417
124.8278,153.3930
124.8765,153.3605
124.9339,153.3491
126.5839,153.3491
126.6413,153.3605
126.6900,153.3930
126.7225,153.4417
126.7339,153.4991
126.7339,153.7991
126.7225,153.8565
126.6900,153.9052
126.6413,153.9377
126.5839,153.9491
124.9339,153.9491
124.8765,153.9377
124.8278,153.9052
124.7953,153.8565
124.7839,153.7991
Z" /> 
<path style="fill:#000000; fill-opacity:1.0000; stroke:none;fill-rule:evenodd;"
d="M 124.7839,152.2291
124.7953,152.1717
124.8278,152.1230
124.8765,152.0905
124.9339,152.0791
126.5839,152.0791
126.6413,152.0905
126.6900,152.1230
126.7225,152.1717
126.7339,152.2291
126.7339,152.5291
126.7225,152.5865
126.6900,152.6352
126.6413,152.6677
126.5839,152.6791
124.9339,152.6791
124.8765,152.6677
124.8278,152.6352
124.7953,152.5865
124.7839,152.5291
Z" /> 
<path style="fill:#000000; fill-opacity:1.0000; stroke:none;fill-rule:evenodd;"
d="M 124.7839,150.9591
124.7953,150.9017
124.8278,150.8530
124.8765,150.8205
124.9339,150.8091
126.5839,150.8091
126.6413,150.8205
126.6900,150.8530
126.7225,150.9017
126.7339,150.9591
126.7339,151.2591
126.7225,151.3165
126.6900,151.3652
126.6413,151.3977
126.5839,151.4091
124.9339,151.4091
124.8765,151.3977
124.8278,151.3652
124.7953,151.3165
124.7839,151.2591
Z" /> 
<path style="fill:#000000; fill-opacity:1.0000; stroke:none;fill-rule:evenodd;"
d="M 293.5171,146.7173
293.5057,146.7747
293.4732,146.8234
293.4245,146.8559
293.3671,146.8673
291.7171,146.8673
291.6597,146.8559
291.6110,146.8234
291.5785,146.7747
291.5671,146.7173
291.5671,146.4173
291.5785,146.3599
291.6110,146.3112
291.6597,146.2787
291.7171,146.2673
293.3671,146.2673
293.4245,146.2787
293.4732,146.3112
293.5057,146.3599
293.5171,146.4173
Z" /> 
<path style="fill:#000000; fill-opacity:1.0000; stroke:none;fill-rule:evenodd;"
d="M 293.5171,145.4473
293.5057,145.5047
293.4732,145.5534
293.4245,145.5859
293.3671,145.5973
291.7171,145.5973
291.6597,145.5859
291.6110,145.5534
291.5785,145.5047
291.5671,145.4473
291.5671,145.1473
291.5785,145.0899
291.6110,145.0412
291.6597,145.0087
291.7171,144.9973
293.3671,144.9973
293.4245,145.0087
293.4732,145.0412
293.5057,145.0899
293.5171,145.1473
Z" /> 
<path style="fill:#000000; fill-opacity:1.0000; stroke:none;fill-rule:evenodd;"
d="M 293.5171,144.1773
293.5057,144.2347
293.4732,144.2834
293.4245,144.3159
293.3671,144.3273
291.7171,144.3273
291.6597,144.3159
291.6110,144.2834
291.5785,144.2347
291.5671,144.1773
291.5671,143.8773
291.5785,143.8199
291.6110,143.7712
291.6597,143.7387
291.7171,143.7273
293.3671,143.7273
293.4245,143.7387
293.4732,143.7712
293.5057,143.8199
293.5171,143.8773
Z" /> 
<path style="fill:#000000; fill-opacity:1.0000; stroke:none;fill-rule:evenodd;"
d="M 293.5171,142.9073
293.5057,142.9647
293.4732,143.0134
293.4245,143.0459
293.3671,143.0573
291.7171,143.0573
291.6597,143.0459
291.6110,143.0134
291.5785,142.9647
291.5671,142.9073
291.5671,142.6073
291.5785,142.5499
291.6110,142.5012
291.6597,142.4687
291.7171,142.4573
293.3671,142.4573
293.4245,142.4687
293.4732,142.5012
293.5057,142.5499
293.5171,142.6073
Z" /> 
<path style="fill:#000000; fill-opacity:1.0000; stroke:none;fill-rule:evenodd;"
d="M 288.5671,142.9073
288.5557,142.9647
288.5232,143.0134
288.4745,143.0459
288.4171,143.0573
286.7671,143.0573
286.7097,143.0459
286.6610,143.0134
286.6285,142.9647
286.6171,142.9073
286.6171,142.6073
286.6285,142.5499
286.6610,142.5012
286.7097,142.4687
286.7671,142.4573
288.4171,142.4573
288.4745,142.4687
288.5232,142.5012
288.5557,142.5499
288.5671,142.6073
Z" /> 
<path style="fill:#000000; fill-opacity:1.0000; stroke:none;fill-rule:evenodd;"
d="M 288.5671,144.1773
288.5557,144.2347
288.5232,144.2834
288.4745,144.3159
288.4171,144.3273
286.7671,144.3273
286.7097,144.3159
286.6610,144.2834
286.6285,144.2347
286.6171,144.1773
286.6171,143.8773
286.6285,143.8199
286.6610,143.7712
286.7097,143.7387
286.7671,143.7273
288.4171,143.7273
288.4745,143.7387
288.5232,143.7712
288.5557,143.8199
288.5671,143.8773
Z" /> 
<path style="fill:#000000; fill-opacity:1.0000; stroke:none;fill-rule:evenodd;"
d="M 288.5671,145.4473
288.5557,145.5047
288.5232,145.5534
288.4745,145.5859
288.4171,145.5973
286.7671,145.5973
286.7097,145.5859
286.6610,145.5534
286.6285,145.5047
286.6171,145.4473
286.6171,145.1473
286.6285,145.0899
286.6610,145.0412
286.7097,145.0087
286.7671,144.9973
288.4171,144.9973
288.4745,145.0087
288.5232,145.0412
288.5557,145.0899
288.5671,145.1473
Z" /> 
<path style="fill:#000000; fill-opacity:1.0000; stroke:none;fill-rule:evenodd;"
d="M 288.5671,146.7173
288.5557,146.7747
288.5232,146.8234
288.4745,146.8559
288.4171,146.8673
286.7671,146.8673
286.7097,146.8559
286.6610,146.8234
286.6285,146.7747
286.6171,146.7173
286.6171,146.4173
286.6285,146.3599
286.6610,146.3112
286.7097,146.2787
286.7671,146.2673
288.4171,146.2673
288.4745,146.2787
288.5232,146.3112
288.5557,146.3599
288.5671,146.4173
Z" /> 
<path style="fill:#000000; fill-opacity:1.0000; stroke:none;fill-rule:evenodd;"
d="M 299.0475,156.1250
298.9518,156.1060
298.8707,156.0518
298.8165,155.9707
298.7975,155.8750
298.7975,155.1250
298.8165,155.0293
298.8707,154.9482
298.9518,154.8940
299.0475,154.8750
301.0475,154.8750
301.1432,154.8940
301.2243,154.9482
301.2785,155.0293
301.2975,155.1250
301.2975,155.8750
301.2785,155.9707
301.2243,156.0518
301.1432,156.1060
301.0475,156.1250
Z" /> 
<path style="fill:#000000; fill-opacity:1.0000; stroke:none;fill-rule:evenodd;"
d="M 299.0475,153.6250
298.9518,153.6060
298.8707,153.5518
298.8165,153.4707
298.7975,153.3750
298.7975,152.6250
298.8165,152.5293
298.8707,152.4482
298.9518,152.3940
299.0475,152.3750
301.0475,152.3750
301.1432,152.3940
301.2243,152.4482
301.2785,152.5293
301.2975,152.6250
301.2975,153.3750
301.2785,153.4707
301.2243,153.5518
301.1432,153.6060
301.0475,153.6250
Z" /> 
<path style="fill:#000000; fill-opacity:1.0000; stroke:none;fill-rule:evenodd;"
d="M 299.0475,151.1250
298.9518,151.1060
298.8707,151.0518
298.8165,150.9707
298.7975,150.8750
298.7975,150.1250
298.8165,150.0293
298.8707,149.9482
298.9518,149.8940
299.0475,149.8750
301.0475,149.8750
301.1432,149.8940
301.2243,149.9482
301.2785,150.0293
301.2975,150.1250
301.2975,150.8750
301.2785,150.9707
301.2243,151.0518
301.1432,151.1060
301.0475,151.1250
Z" /> 
</g> 
</svg>
