<?xml version="1.0" standalone="no"?>
 <!DOCTYPE svg PUBLIC "-//W3C//DTD SVG 1.1//EN" 
 "http://www.w3.org/Graphics/SVG/1.1/DTD/svg11.dtd"> 
<svg
  xmlns:svg="http://www.w3.org/2000/svg"
  xmlns="http://www.w3.org/2000/svg"
  xmlns:xlink="http://www.w3.org/1999/xlink"
  version="1.1"
  width="419.9890mm" height="297.0022mm" viewBox="0.0000 0.0000 419.9890 297.0022">
<title>SVG Image created as 8-Bit-PC-B_Silkscreen.svg date 2025/11/18 21:27:08 </title>
  <desc>Image generated by PCBNEW </desc>
<g style="fill:#000000; fill-opacity:1.0000;stroke:#000000; stroke-opacity:1.0000;
stroke-linecap:round; stroke-linejoin:round;"
 transform="translate(0 0) scale(1 1)">
</g>
<g style="fill:none; 
stroke:#000000; stroke-width:0.1500; stroke-opacity:1; 
stroke-linecap:round; stroke-linejoin:round;">
<text x="176.5000" y="100.2500"
transform="scale(-1 1) translate(-353.000000 0)"
textLength="3.1548" font-size="1.3333" lengthAdjust="spacingAndGlyphs"
text-anchor="middle" opacity="0" stroke-opacity="0">C48</text>
<g class="stroked-text"><desc>C48</desc>
<path d="M177.1429 100.1096
L177.1905 100.1572
" />
<path d="M177.1905 100.1572
L177.3333 100.2048
" />
<path d="M177.3333 100.2048
L177.4286 100.2048
" />
<path d="M177.4286 100.2048
L177.5714 100.1572
" />
<path d="M177.5714 100.1572
L177.6667 100.0620
" />
<path d="M177.6667 100.0620
L177.7143 99.9667
" />
<path d="M177.7143 99.9667
L177.7619 99.7762
" />
<path d="M177.7619 99.7762
L177.7619 99.6334
" />
<path d="M177.7619 99.6334
L177.7143 99.4429
" />
<path d="M177.7143 99.4429
L177.6667 99.3477
" />
<path d="M177.6667 99.3477
L177.5714 99.2524
" />
<path d="M177.5714 99.2524
L177.4286 99.2048
" />
<path d="M177.4286 99.2048
L177.3333 99.2048
" />
<path d="M177.3333 99.2048
L177.1905 99.2524
" />
<path d="M177.1905 99.2524
L177.1429 99.3001
" />
<path d="M176.2857 99.5382
L176.2857 100.2048
" />
<path d="M176.5238 99.1572
L176.7619 99.8715
" />
<path d="M176.7619 99.8715
L176.1429 99.8715
" />
<path d="M175.6190 99.6334
L175.7143 99.5858
" />
<path d="M175.7143 99.5858
L175.7619 99.5382
" />
<path d="M175.7619 99.5382
L175.8095 99.4429
" />
<path d="M175.8095 99.4429
L175.8095 99.3953
" />
<path d="M175.8095 99.3953
L175.7619 99.3001
" />
<path d="M175.7619 99.3001
L175.7143 99.2524
" />
<path d="M175.7143 99.2524
L175.6190 99.2048
" />
<path d="M175.6190 99.2048
L175.4286 99.2048
" />
<path d="M175.4286 99.2048
L175.3333 99.2524
" />
<path d="M175.3333 99.2524
L175.2857 99.3001
" />
<path d="M175.2857 99.3001
L175.2381 99.3953
" />
<path d="M175.2381 99.3953
L175.2381 99.4429
" />
<path d="M175.2381 99.4429
L175.2857 99.5382
" />
<path d="M175.2857 99.5382
L175.3333 99.5858
" />
<path d="M175.3333 99.5858
L175.4286 99.6334
" />
<path d="M175.4286 99.6334
L175.6190 99.6334
" />
<path d="M175.6190 99.6334
L175.7143 99.6810
" />
<path d="M175.7143 99.6810
L175.7619 99.7286
" />
<path d="M175.7619 99.7286
L175.8095 99.8239
" />
<path d="M175.8095 99.8239
L175.8095 100.0143
" />
<path d="M175.8095 100.0143
L175.7619 100.1096
" />
<path d="M175.7619 100.1096
L175.7143 100.1572
" />
<path d="M175.7143 100.1572
L175.6190 100.2048
" />
<path d="M175.6190 100.2048
L175.4286 100.2048
" />
<path d="M175.4286 100.2048
L175.3333 100.1572
" />
<path d="M175.3333 100.1572
L175.2857 100.1096
" />
<path d="M175.2857 100.1096
L175.2381 100.0143
" />
<path d="M175.2381 100.0143
L175.2381 99.8239
" />
<path d="M175.2381 99.8239
L175.2857 99.7286
" />
<path d="M175.2857 99.7286
L175.3333 99.6810
" />
<path d="M175.3333 99.6810
L175.4286 99.6334
" />
</g><text x="300.5000" y="113.2500"
transform="scale(-1 1) translate(-601.000000 0)"
textLength="3.1548" font-size="1.3333" lengthAdjust="spacingAndGlyphs"
text-anchor="middle" opacity="0" stroke-opacity="0">C28</text>
<g class="stroked-text"><desc>C28</desc>
<path d="M301.1429 113.1096
L301.1905 113.1572
" />
<path d="M301.1905 113.1572
L301.3333 113.2048
" />
<path d="M301.3333 113.2048
L301.4286 113.2048
" />
<path d="M301.4286 113.2048
L301.5714 113.1572
" />
<path d="M301.5714 113.1572
L301.6667 113.0620
" />
<path d="M301.6667 113.0620
L301.7143 112.9667
" />
<path d="M301.7143 112.9667
L301.7619 112.7762
" />
<path d="M301.7619 112.7762
L301.7619 112.6334
" />
<path d="M301.7619 112.6334
L301.7143 112.4429
" />
<path d="M301.7143 112.4429
L301.6667 112.3477
" />
<path d="M301.6667 112.3477
L301.5714 112.2524
" />
<path d="M301.5714 112.2524
L301.4286 112.2048
" />
<path d="M301.4286 112.2048
L301.3333 112.2048
" />
<path d="M301.3333 112.2048
L301.1905 112.2524
" />
<path d="M301.1905 112.2524
L301.1429 112.3001
" />
<path d="M300.7619 112.3001
L300.7143 112.2524
" />
<path d="M300.7143 112.2524
L300.6190 112.2048
" />
<path d="M300.6190 112.2048
L300.3810 112.2048
" />
<path d="M300.3810 112.2048
L300.2857 112.2524
" />
<path d="M300.2857 112.2524
L300.2381 112.3001
" />
<path d="M300.2381 112.3001
L300.1905 112.3953
" />
<path d="M300.1905 112.3953
L300.1905 112.4905
" />
<path d="M300.1905 112.4905
L300.2381 112.6334
" />
<path d="M300.2381 112.6334
L300.8095 113.2048
" />
<path d="M300.8095 113.2048
L300.1905 113.2048
" />
<path d="M299.6190 112.6334
L299.7143 112.5858
" />
<path d="M299.7143 112.5858
L299.7619 112.5382
" />
<path d="M299.7619 112.5382
L299.8095 112.4429
" />
<path d="M299.8095 112.4429
L299.8095 112.3953
" />
<path d="M299.8095 112.3953
L299.7619 112.3001
" />
<path d="M299.7619 112.3001
L299.7143 112.2524
" />
<path d="M299.7143 112.2524
L299.6190 112.2048
" />
<path d="M299.6190 112.2048
L299.4286 112.2048
" />
<path d="M299.4286 112.2048
L299.3333 112.2524
" />
<path d="M299.3333 112.2524
L299.2857 112.3001
" />
<path d="M299.2857 112.3001
L299.2381 112.3953
" />
<path d="M299.2381 112.3953
L299.2381 112.4429
" />
<path d="M299.2381 112.4429
L299.2857 112.5382
" />
<path d="M299.2857 112.5382
L299.3333 112.5858
" />
<path d="M299.3333 112.5858
L299.4286 112.6334
" />
<path d="M299.4286 112.6334
L299.6190 112.6334
" />
<path d="M299.6190 112.6334
L299.7143 112.6810
" />
<path d="M299.7143 112.6810
L299.7619 112.7286
" />
<path d="M299.7619 112.7286
L299.8095 112.8239
" />
<path d="M299.8095 112.8239
L299.8095 113.0143
" />
<path d="M299.8095 113.0143
L299.7619 113.1096
" />
<path d="M299.7619 113.1096
L299.7143 113.1572
" />
<path d="M299.7143 113.1572
L299.6190 113.2048
" />
<path d="M299.6190 113.2048
L299.4286 113.2048
" />
<path d="M299.4286 113.2048
L299.3333 113.1572
" />
<path d="M299.3333 113.1572
L299.2857 113.1096
" />
<path d="M299.2857 113.1096
L299.2381 113.0143
" />
<path d="M299.2381 113.0143
L299.2381 112.8239
" />
<path d="M299.2381 112.8239
L299.2857 112.7286
" />
<path d="M299.2857 112.7286
L299.3333 112.6810
" />
<path d="M299.3333 112.6810
L299.4286 112.6334
" />
</g><g transform="rotate(-90.000000 313.7500 98.0000)">
<text x="313.7500" y="98.5000"
transform="scale(-1 1) translate(-627.500000 0)"
textLength="3.1548" font-size="1.3333" lengthAdjust="spacingAndGlyphs"
text-anchor="middle" opacity="0" stroke-opacity="0">C43</text>
</g>
<g class="stroked-text"><desc>C43</desc>
<path d="M314.1096 97.3571
L314.1572 97.3095
" />
<path d="M314.1572 97.3095
L314.2048 97.1667
" />
<path d="M314.2048 97.1667
L314.2048 97.0714
" />
<path d="M314.2048 97.0714
L314.1572 96.9286
" />
<path d="M314.1572 96.9286
L314.0620 96.8333
" />
<path d="M314.0620 96.8333
L313.9667 96.7857
" />
<path d="M313.9667 96.7857
L313.7762 96.7381
" />
<path d="M313.7762 96.7381
L313.6334 96.7381
" />
<path d="M313.6334 96.7381
L313.4429 96.7857
" />
<path d="M313.4429 96.7857
L313.3477 96.8333
" />
<path d="M313.3477 96.8333
L313.2524 96.9286
" />
<path d="M313.2524 96.9286
L313.2048 97.0714
" />
<path d="M313.2048 97.0714
L313.2048 97.1667
" />
<path d="M313.2048 97.1667
L313.2524 97.3095
" />
<path d="M313.2524 97.3095
L313.3001 97.3571
" />
<path d="M313.5382 98.2143
L314.2048 98.2143
" />
<path d="M313.1572 97.9762
L313.8715 97.7381
" />
<path d="M313.8715 97.7381
L313.8715 98.3571
" />
<path d="M313.2048 98.6429
L313.2048 99.2619
" />
<path d="M313.2048 99.2619
L313.5858 98.9286
" />
<path d="M313.5858 98.9286
L313.5858 99.0714
" />
<path d="M313.5858 99.0714
L313.6334 99.1667
" />
<path d="M313.6334 99.1667
L313.6810 99.2143
" />
<path d="M313.6810 99.2143
L313.7762 99.2619
" />
<path d="M313.7762 99.2619
L314.0143 99.2619
" />
<path d="M314.0143 99.2619
L314.1096 99.2143
" />
<path d="M314.1096 99.2143
L314.1572 99.1667
" />
<path d="M314.1572 99.1667
L314.2048 99.0714
" />
<path d="M314.2048 99.0714
L314.2048 98.7857
" />
<path d="M314.2048 98.7857
L314.1572 98.6905
" />
<path d="M314.1572 98.6905
L314.1096 98.6429
" />
</g><g transform="rotate(-90.000000 178.7500 59.0000)">
<text x="178.7500" y="59.5000"
transform="scale(-1 1) translate(-357.500000 0)"
textLength="3.1548" font-size="1.3333" lengthAdjust="spacingAndGlyphs"
text-anchor="middle" opacity="0" stroke-opacity="0">C71</text>
</g>
<g class="stroked-text"><desc>C71</desc>
<path d="M179.1096 58.3571
L179.1572 58.3095
" />
<path d="M179.1572 58.3095
L179.2048 58.1667
" />
<path d="M179.2048 58.1667
L179.2048 58.0714
" />
<path d="M179.2048 58.0714
L179.1572 57.9286
" />
<path d="M179.1572 57.9286
L179.0620 57.8333
" />
<path d="M179.0620 57.8333
L178.9667 57.7857
" />
<path d="M178.9667 57.7857
L178.7762 57.7381
" />
<path d="M178.7762 57.7381
L178.6334 57.7381
" />
<path d="M178.6334 57.7381
L178.4429 57.7857
" />
<path d="M178.4429 57.7857
L178.3477 57.8333
" />
<path d="M178.3477 57.8333
L178.2524 57.9286
" />
<path d="M178.2524 57.9286
L178.2048 58.0714
" />
<path d="M178.2048 58.0714
L178.2048 58.1667
" />
<path d="M178.2048 58.1667
L178.2524 58.3095
" />
<path d="M178.2524 58.3095
L178.3001 58.3571
" />
<path d="M178.2048 58.6905
L178.2048 59.3571
" />
<path d="M178.2048 59.3571
L179.2048 58.9286
" />
<path d="M179.2048 60.2619
L179.2048 59.6905
" />
<path d="M179.2048 59.9762
L178.2048 59.9762
" />
<path d="M178.2048 59.9762
L178.3477 59.8810
" />
<path d="M178.3477 59.8810
L178.4429 59.7857
" />
<path d="M178.4429 59.7857
L178.4905 59.6905
" />
</g><text x="270.0000" y="51.2500"
transform="scale(-1 1) translate(-540.000000 0)"
textLength="3.1548" font-size="1.3333" lengthAdjust="spacingAndGlyphs"
text-anchor="middle" opacity="0" stroke-opacity="0">C54</text>
<g class="stroked-text"><desc>C54</desc>
<path d="M270.6429 51.1096
L270.6905 51.1572
" />
<path d="M270.6905 51.1572
L270.8333 51.2048
" />
<path d="M270.8333 51.2048
L270.9286 51.2048
" />
<path d="M270.9286 51.2048
L271.0714 51.1572
" />
<path d="M271.0714 51.1572
L271.1667 51.0620
" />
<path d="M271.1667 51.0620
L271.2143 50.9667
" />
<path d="M271.2143 50.9667
L271.2619 50.7762
" />
<path d="M271.2619 50.7762
L271.2619 50.6334
" />
<path d="M271.2619 50.6334
L271.2143 50.4429
" />
<path d="M271.2143 50.4429
L271.1667 50.3477
" />
<path d="M271.1667 50.3477
L271.0714 50.2524
" />
<path d="M271.0714 50.2524
L270.9286 50.2048
" />
<path d="M270.9286 50.2048
L270.8333 50.2048
" />
<path d="M270.8333 50.2048
L270.6905 50.2524
" />
<path d="M270.6905 50.2524
L270.6429 50.3001
" />
<path d="M269.7381 50.2048
L270.2143 50.2048
" />
<path d="M270.2143 50.2048
L270.2619 50.6810
" />
<path d="M270.2619 50.6810
L270.2143 50.6334
" />
<path d="M270.2143 50.6334
L270.1190 50.5858
" />
<path d="M270.1190 50.5858
L269.8810 50.5858
" />
<path d="M269.8810 50.5858
L269.7857 50.6334
" />
<path d="M269.7857 50.6334
L269.7381 50.6810
" />
<path d="M269.7381 50.6810
L269.6905 50.7762
" />
<path d="M269.6905 50.7762
L269.6905 51.0143
" />
<path d="M269.6905 51.0143
L269.7381 51.1096
" />
<path d="M269.7381 51.1096
L269.7857 51.1572
" />
<path d="M269.7857 51.1572
L269.8810 51.2048
" />
<path d="M269.8810 51.2048
L270.1190 51.2048
" />
<path d="M270.1190 51.2048
L270.2143 51.1572
" />
<path d="M270.2143 51.1572
L270.2619 51.1096
" />
<path d="M268.8333 50.5382
L268.8333 51.2048
" />
<path d="M269.0714 50.1572
L269.3095 50.8715
" />
<path d="M269.3095 50.8715
L268.6905 50.8715
" />
</g><g transform="rotate(-90.000000 335.2500 97.5000)">
<text x="335.2500" y="98.0000"
transform="scale(-1 1) translate(-670.500000 0)"
textLength="3.1548" font-size="1.3333" lengthAdjust="spacingAndGlyphs"
text-anchor="middle" opacity="0" stroke-opacity="0">C41</text>
</g>
<g class="stroked-text"><desc>C41</desc>
<path d="M335.6096 96.8571
L335.6572 96.8095
" />
<path d="M335.6572 96.8095
L335.7048 96.6667
" />
<path d="M335.7048 96.6667
L335.7048 96.5714
" />
<path d="M335.7048 96.5714
L335.6572 96.4286
" />
<path d="M335.6572 96.4286
L335.5620 96.3333
" />
<path d="M335.5620 96.3333
L335.4667 96.2857
" />
<path d="M335.4667 96.2857
L335.2762 96.2381
" />
<path d="M335.2762 96.2381
L335.1334 96.2381
" />
<path d="M335.1334 96.2381
L334.9429 96.2857
" />
<path d="M334.9429 96.2857
L334.8477 96.3333
" />
<path d="M334.8477 96.3333
L334.7524 96.4286
" />
<path d="M334.7524 96.4286
L334.7048 96.5714
" />
<path d="M334.7048 96.5714
L334.7048 96.6667
" />
<path d="M334.7048 96.6667
L334.7524 96.8095
" />
<path d="M334.7524 96.8095
L334.8001 96.8571
" />
<path d="M335.0382 97.7143
L335.7048 97.7143
" />
<path d="M334.6572 97.4762
L335.3715 97.2381
" />
<path d="M335.3715 97.2381
L335.3715 97.8571
" />
<path d="M335.7048 98.7619
L335.7048 98.1905
" />
<path d="M335.7048 98.4762
L334.7048 98.4762
" />
<path d="M334.7048 98.4762
L334.8477 98.3810
" />
<path d="M334.8477 98.3810
L334.9429 98.2857
" />
<path d="M334.9429 98.2857
L334.9905 98.1905
" />
</g><text x="209.0000" y="57.7500"
transform="scale(-1 1) translate(-418.000000 0)"
textLength="3.1548" font-size="1.3333" lengthAdjust="spacingAndGlyphs"
text-anchor="middle" opacity="0" stroke-opacity="0">C72</text>
<g class="stroked-text"><desc>C72</desc>
<path d="M209.6429 57.6096
L209.6905 57.6572
" />
<path d="M209.6905 57.6572
L209.8333 57.7048
" />
<path d="M209.8333 57.7048
L209.9286 57.7048
" />
<path d="M209.9286 57.7048
L210.0714 57.6572
" />
<path d="M210.0714 57.6572
L210.1667 57.5620
" />
<path d="M210.1667 57.5620
L210.2143 57.4667
" />
<path d="M210.2143 57.4667
L210.2619 57.2762
" />
<path d="M210.2619 57.2762
L210.2619 57.1334
" />
<path d="M210.2619 57.1334
L210.2143 56.9429
" />
<path d="M210.2143 56.9429
L210.1667 56.8477
" />
<path d="M210.1667 56.8477
L210.0714 56.7524
" />
<path d="M210.0714 56.7524
L209.9286 56.7048
" />
<path d="M209.9286 56.7048
L209.8333 56.7048
" />
<path d="M209.8333 56.7048
L209.6905 56.7524
" />
<path d="M209.6905 56.7524
L209.6429 56.8001
" />
<path d="M209.3095 56.7048
L208.6429 56.7048
" />
<path d="M208.6429 56.7048
L209.0714 57.7048
" />
<path d="M208.3095 56.8001
L208.2619 56.7524
" />
<path d="M208.2619 56.7524
L208.1667 56.7048
" />
<path d="M208.1667 56.7048
L207.9286 56.7048
" />
<path d="M207.9286 56.7048
L207.8333 56.7524
" />
<path d="M207.8333 56.7524
L207.7857 56.8001
" />
<path d="M207.7857 56.8001
L207.7381 56.8953
" />
<path d="M207.7381 56.8953
L207.7381 56.9905
" />
<path d="M207.7381 56.9905
L207.7857 57.1334
" />
<path d="M207.7857 57.1334
L208.3571 57.7048
" />
<path d="M208.3571 57.7048
L207.7381 57.7048
" />
</g><text x="170.0000" y="53.2500"
transform="scale(-1 1) translate(-340.000000 0)"
textLength="3.1548" font-size="1.3333" lengthAdjust="spacingAndGlyphs"
text-anchor="middle" opacity="0" stroke-opacity="0">C73</text>
<g class="stroked-text"><desc>C73</desc>
<path d="M170.6429 53.1096
L170.6905 53.1572
" />
<path d="M170.6905 53.1572
L170.8333 53.2048
" />
<path d="M170.8333 53.2048
L170.9286 53.2048
" />
<path d="M170.9286 53.2048
L171.0714 53.1572
" />
<path d="M171.0714 53.1572
L171.1667 53.0620
" />
<path d="M171.1667 53.0620
L171.2143 52.9667
" />
<path d="M171.2143 52.9667
L171.2619 52.7762
" />
<path d="M171.2619 52.7762
L171.2619 52.6334
" />
<path d="M171.2619 52.6334
L171.2143 52.4429
" />
<path d="M171.2143 52.4429
L171.1667 52.3477
" />
<path d="M171.1667 52.3477
L171.0714 52.2524
" />
<path d="M171.0714 52.2524
L170.9286 52.2048
" />
<path d="M170.9286 52.2048
L170.8333 52.2048
" />
<path d="M170.8333 52.2048
L170.6905 52.2524
" />
<path d="M170.6905 52.2524
L170.6429 52.3001
" />
<path d="M170.3095 52.2048
L169.6429 52.2048
" />
<path d="M169.6429 52.2048
L170.0714 53.2048
" />
<path d="M169.3571 52.2048
L168.7381 52.2048
" />
<path d="M168.7381 52.2048
L169.0714 52.5858
" />
<path d="M169.0714 52.5858
L168.9286 52.5858
" />
<path d="M168.9286 52.5858
L168.8333 52.6334
" />
<path d="M168.8333 52.6334
L168.7857 52.6810
" />
<path d="M168.7857 52.6810
L168.7381 52.7762
" />
<path d="M168.7381 52.7762
L168.7381 53.0143
" />
<path d="M168.7381 53.0143
L168.7857 53.1096
" />
<path d="M168.7857 53.1096
L168.8333 53.1572
" />
<path d="M168.8333 53.1572
L168.9286 53.2048
" />
<path d="M168.9286 53.2048
L169.2143 53.2048
" />
<path d="M169.2143 53.2048
L169.3095 53.1572
" />
<path d="M169.3095 53.1572
L169.3571 53.1096
" />
</g><text x="134.0000" y="132.2500"
transform="scale(-1 1) translate(-268.000000 0)"
textLength="3.1548" font-size="1.3333" lengthAdjust="spacingAndGlyphs"
text-anchor="middle" opacity="0" stroke-opacity="0">C60</text>
<g class="stroked-text"><desc>C60</desc>
<path d="M134.6429 132.1096
L134.6905 132.1572
" />
<path d="M134.6905 132.1572
L134.8333 132.2048
" />
<path d="M134.8333 132.2048
L134.9286 132.2048
" />
<path d="M134.9286 132.2048
L135.0714 132.1572
" />
<path d="M135.0714 132.1572
L135.1667 132.0620
" />
<path d="M135.1667 132.0620
L135.2143 131.9667
" />
<path d="M135.2143 131.9667
L135.2619 131.7762
" />
<path d="M135.2619 131.7762
L135.2619 131.6334
" />
<path d="M135.2619 131.6334
L135.2143 131.4429
" />
<path d="M135.2143 131.4429
L135.1667 131.3477
" />
<path d="M135.1667 131.3477
L135.0714 131.2524
" />
<path d="M135.0714 131.2524
L134.9286 131.2048
" />
<path d="M134.9286 131.2048
L134.8333 131.2048
" />
<path d="M134.8333 131.2048
L134.6905 131.2524
" />
<path d="M134.6905 131.2524
L134.6429 131.3001
" />
<path d="M133.7857 131.2048
L133.9762 131.2048
" />
<path d="M133.9762 131.2048
L134.0714 131.2524
" />
<path d="M134.0714 131.2524
L134.1190 131.3001
" />
<path d="M134.1190 131.3001
L134.2143 131.4429
" />
<path d="M134.2143 131.4429
L134.2619 131.6334
" />
<path d="M134.2619 131.6334
L134.2619 132.0143
" />
<path d="M134.2619 132.0143
L134.2143 132.1096
" />
<path d="M134.2143 132.1096
L134.1667 132.1572
" />
<path d="M134.1667 132.1572
L134.0714 132.2048
" />
<path d="M134.0714 132.2048
L133.8810 132.2048
" />
<path d="M133.8810 132.2048
L133.7857 132.1572
" />
<path d="M133.7857 132.1572
L133.7381 132.1096
" />
<path d="M133.7381 132.1096
L133.6905 132.0143
" />
<path d="M133.6905 132.0143
L133.6905 131.7762
" />
<path d="M133.6905 131.7762
L133.7381 131.6810
" />
<path d="M133.7381 131.6810
L133.7857 131.6334
" />
<path d="M133.7857 131.6334
L133.8810 131.5858
" />
<path d="M133.8810 131.5858
L134.0714 131.5858
" />
<path d="M134.0714 131.5858
L134.1667 131.6334
" />
<path d="M134.1667 131.6334
L134.2143 131.6810
" />
<path d="M134.2143 131.6810
L134.2619 131.7762
" />
<path d="M133.0714 131.2048
L132.9762 131.2048
" />
<path d="M132.9762 131.2048
L132.8810 131.2524
" />
<path d="M132.8810 131.2524
L132.8333 131.3001
" />
<path d="M132.8333 131.3001
L132.7857 131.3953
" />
<path d="M132.7857 131.3953
L132.7381 131.5858
" />
<path d="M132.7381 131.5858
L132.7381 131.8239
" />
<path d="M132.7381 131.8239
L132.7857 132.0143
" />
<path d="M132.7857 132.0143
L132.8333 132.1096
" />
<path d="M132.8333 132.1096
L132.8810 132.1572
" />
<path d="M132.8810 132.1572
L132.9762 132.2048
" />
<path d="M132.9762 132.2048
L133.0714 132.2048
" />
<path d="M133.0714 132.2048
L133.1667 132.1572
" />
<path d="M133.1667 132.1572
L133.2143 132.1096
" />
<path d="M133.2143 132.1096
L133.2619 132.0143
" />
<path d="M133.2619 132.0143
L133.3095 131.8239
" />
<path d="M133.3095 131.8239
L133.3095 131.5858
" />
<path d="M133.3095 131.5858
L133.2619 131.3953
" />
<path d="M133.2619 131.3953
L133.2143 131.3001
" />
<path d="M133.2143 131.3001
L133.1667 131.2524
" />
<path d="M133.1667 131.2524
L133.0714 131.2048
" />
</g><text x="159.5000" y="93.2500"
transform="scale(-1 1) translate(-319.000000 0)"
textLength="3.1548" font-size="1.3333" lengthAdjust="spacingAndGlyphs"
text-anchor="middle" opacity="0" stroke-opacity="0">C62</text>
<g class="stroked-text"><desc>C62</desc>
<path d="M160.1429 93.1096
L160.1905 93.1572
" />
<path d="M160.1905 93.1572
L160.3333 93.2048
" />
<path d="M160.3333 93.2048
L160.4286 93.2048
" />
<path d="M160.4286 93.2048
L160.5714 93.1572
" />
<path d="M160.5714 93.1572
L160.6667 93.0620
" />
<path d="M160.6667 93.0620
L160.7143 92.9667
" />
<path d="M160.7143 92.9667
L160.7619 92.7762
" />
<path d="M160.7619 92.7762
L160.7619 92.6334
" />
<path d="M160.7619 92.6334
L160.7143 92.4429
" />
<path d="M160.7143 92.4429
L160.6667 92.3477
" />
<path d="M160.6667 92.3477
L160.5714 92.2524
" />
<path d="M160.5714 92.2524
L160.4286 92.2048
" />
<path d="M160.4286 92.2048
L160.3333 92.2048
" />
<path d="M160.3333 92.2048
L160.1905 92.2524
" />
<path d="M160.1905 92.2524
L160.1429 92.3001
" />
<path d="M159.2857 92.2048
L159.4762 92.2048
" />
<path d="M159.4762 92.2048
L159.5714 92.2524
" />
<path d="M159.5714 92.2524
L159.6190 92.3001
" />
<path d="M159.6190 92.3001
L159.7143 92.4429
" />
<path d="M159.7143 92.4429
L159.7619 92.6334
" />
<path d="M159.7619 92.6334
L159.7619 93.0143
" />
<path d="M159.7619 93.0143
L159.7143 93.1096
" />
<path d="M159.7143 93.1096
L159.6667 93.1572
" />
<path d="M159.6667 93.1572
L159.5714 93.2048
" />
<path d="M159.5714 93.2048
L159.3810 93.2048
" />
<path d="M159.3810 93.2048
L159.2857 93.1572
" />
<path d="M159.2857 93.1572
L159.2381 93.1096
" />
<path d="M159.2381 93.1096
L159.1905 93.0143
" />
<path d="M159.1905 93.0143
L159.1905 92.7762
" />
<path d="M159.1905 92.7762
L159.2381 92.6810
" />
<path d="M159.2381 92.6810
L159.2857 92.6334
" />
<path d="M159.2857 92.6334
L159.3810 92.5858
" />
<path d="M159.3810 92.5858
L159.5714 92.5858
" />
<path d="M159.5714 92.5858
L159.6667 92.6334
" />
<path d="M159.6667 92.6334
L159.7143 92.6810
" />
<path d="M159.7143 92.6810
L159.7619 92.7762
" />
<path d="M158.8095 92.3001
L158.7619 92.2524
" />
<path d="M158.7619 92.2524
L158.6667 92.2048
" />
<path d="M158.6667 92.2048
L158.4286 92.2048
" />
<path d="M158.4286 92.2048
L158.3333 92.2524
" />
<path d="M158.3333 92.2524
L158.2857 92.3001
" />
<path d="M158.2857 92.3001
L158.2381 92.3953
" />
<path d="M158.2381 92.3953
L158.2381 92.4905
" />
<path d="M158.2381 92.4905
L158.2857 92.6334
" />
<path d="M158.2857 92.6334
L158.8571 93.2048
" />
<path d="M158.8571 93.2048
L158.2381 93.2048
" />
</g><text x="288.0000" y="121.2500"
transform="scale(-1 1) translate(-576.000000 0)"
textLength="3.1548" font-size="1.3333" lengthAdjust="spacingAndGlyphs"
text-anchor="middle" opacity="0" stroke-opacity="0">C32</text>
<g class="stroked-text"><desc>C32</desc>
<path d="M288.6429 121.1096
L288.6905 121.1572
" />
<path d="M288.6905 121.1572
L288.8333 121.2048
" />
<path d="M288.8333 121.2048
L288.9286 121.2048
" />
<path d="M288.9286 121.2048
L289.0714 121.1572
" />
<path d="M289.0714 121.1572
L289.1667 121.0620
" />
<path d="M289.1667 121.0620
L289.2143 120.9667
" />
<path d="M289.2143 120.9667
L289.2619 120.7762
" />
<path d="M289.2619 120.7762
L289.2619 120.6334
" />
<path d="M289.2619 120.6334
L289.2143 120.4429
" />
<path d="M289.2143 120.4429
L289.1667 120.3477
" />
<path d="M289.1667 120.3477
L289.0714 120.2524
" />
<path d="M289.0714 120.2524
L288.9286 120.2048
" />
<path d="M288.9286 120.2048
L288.8333 120.2048
" />
<path d="M288.8333 120.2048
L288.6905 120.2524
" />
<path d="M288.6905 120.2524
L288.6429 120.3001
" />
<path d="M288.3095 120.2048
L287.6905 120.2048
" />
<path d="M287.6905 120.2048
L288.0238 120.5858
" />
<path d="M288.0238 120.5858
L287.8810 120.5858
" />
<path d="M287.8810 120.5858
L287.7857 120.6334
" />
<path d="M287.7857 120.6334
L287.7381 120.6810
" />
<path d="M287.7381 120.6810
L287.6905 120.7762
" />
<path d="M287.6905 120.7762
L287.6905 121.0143
" />
<path d="M287.6905 121.0143
L287.7381 121.1096
" />
<path d="M287.7381 121.1096
L287.7857 121.1572
" />
<path d="M287.7857 121.1572
L287.8810 121.2048
" />
<path d="M287.8810 121.2048
L288.1667 121.2048
" />
<path d="M288.1667 121.2048
L288.2619 121.1572
" />
<path d="M288.2619 121.1572
L288.3095 121.1096
" />
<path d="M287.3095 120.3001
L287.2619 120.2524
" />
<path d="M287.2619 120.2524
L287.1667 120.2048
" />
<path d="M287.1667 120.2048
L286.9286 120.2048
" />
<path d="M286.9286 120.2048
L286.8333 120.2524
" />
<path d="M286.8333 120.2524
L286.7857 120.3001
" />
<path d="M286.7857 120.3001
L286.7381 120.3953
" />
<path d="M286.7381 120.3953
L286.7381 120.4905
" />
<path d="M286.7381 120.4905
L286.7857 120.6334
" />
<path d="M286.7857 120.6334
L287.3571 121.2048
" />
<path d="M287.3571 121.2048
L286.7381 121.2048
" />
</g><text x="155.5000" y="131.2500"
transform="scale(-1 1) translate(-311.000000 0)"
textLength="3.1548" font-size="1.3333" lengthAdjust="spacingAndGlyphs"
text-anchor="middle" opacity="0" stroke-opacity="0">C59</text>
<g class="stroked-text"><desc>C59</desc>
<path d="M156.1429 131.1096
L156.1905 131.1572
" />
<path d="M156.1905 131.1572
L156.3333 131.2048
" />
<path d="M156.3333 131.2048
L156.4286 131.2048
" />
<path d="M156.4286 131.2048
L156.5714 131.1572
" />
<path d="M156.5714 131.1572
L156.6667 131.0620
" />
<path d="M156.6667 131.0620
L156.7143 130.9667
" />
<path d="M156.7143 130.9667
L156.7619 130.7762
" />
<path d="M156.7619 130.7762
L156.7619 130.6334
" />
<path d="M156.7619 130.6334
L156.7143 130.4429
" />
<path d="M156.7143 130.4429
L156.6667 130.3477
" />
<path d="M156.6667 130.3477
L156.5714 130.2524
" />
<path d="M156.5714 130.2524
L156.4286 130.2048
" />
<path d="M156.4286 130.2048
L156.3333 130.2048
" />
<path d="M156.3333 130.2048
L156.1905 130.2524
" />
<path d="M156.1905 130.2524
L156.1429 130.3001
" />
<path d="M155.2381 130.2048
L155.7143 130.2048
" />
<path d="M155.7143 130.2048
L155.7619 130.6810
" />
<path d="M155.7619 130.6810
L155.7143 130.6334
" />
<path d="M155.7143 130.6334
L155.6190 130.5858
" />
<path d="M155.6190 130.5858
L155.3810 130.5858
" />
<path d="M155.3810 130.5858
L155.2857 130.6334
" />
<path d="M155.2857 130.6334
L155.2381 130.6810
" />
<path d="M155.2381 130.6810
L155.1905 130.7762
" />
<path d="M155.1905 130.7762
L155.1905 131.0143
" />
<path d="M155.1905 131.0143
L155.2381 131.1096
" />
<path d="M155.2381 131.1096
L155.2857 131.1572
" />
<path d="M155.2857 131.1572
L155.3810 131.2048
" />
<path d="M155.3810 131.2048
L155.6190 131.2048
" />
<path d="M155.6190 131.2048
L155.7143 131.1572
" />
<path d="M155.7143 131.1572
L155.7619 131.1096
" />
<path d="M154.7143 131.2048
L154.5238 131.2048
" />
<path d="M154.5238 131.2048
L154.4286 131.1572
" />
<path d="M154.4286 131.1572
L154.3810 131.1096
" />
<path d="M154.3810 131.1096
L154.2857 130.9667
" />
<path d="M154.2857 130.9667
L154.2381 130.7762
" />
<path d="M154.2381 130.7762
L154.2381 130.3953
" />
<path d="M154.2381 130.3953
L154.2857 130.3001
" />
<path d="M154.2857 130.3001
L154.3333 130.2524
" />
<path d="M154.3333 130.2524
L154.4286 130.2048
" />
<path d="M154.4286 130.2048
L154.6190 130.2048
" />
<path d="M154.6190 130.2048
L154.7143 130.2524
" />
<path d="M154.7143 130.2524
L154.7619 130.3001
" />
<path d="M154.7619 130.3001
L154.8095 130.3953
" />
<path d="M154.8095 130.3953
L154.8095 130.6334
" />
<path d="M154.8095 130.6334
L154.7619 130.7286
" />
<path d="M154.7619 130.7286
L154.7143 130.7762
" />
<path d="M154.7143 130.7762
L154.6190 130.8239
" />
<path d="M154.6190 130.8239
L154.4286 130.8239
" />
<path d="M154.4286 130.8239
L154.3333 130.7762
" />
<path d="M154.3333 130.7762
L154.2857 130.7286
" />
<path d="M154.2857 130.7286
L154.2381 130.6334
" />
</g><text x="198.5000" y="145.2500"
transform="scale(-1 1) translate(-397.000000 0)"
textLength="3.1548" font-size="1.3333" lengthAdjust="spacingAndGlyphs"
text-anchor="middle" opacity="0" stroke-opacity="0">C51</text>
<g class="stroked-text"><desc>C51</desc>
<path d="M199.1429 145.1096
L199.1905 145.1572
" />
<path d="M199.1905 145.1572
L199.3333 145.2048
" />
<path d="M199.3333 145.2048
L199.4286 145.2048
" />
<path d="M199.4286 145.2048
L199.5714 145.1572
" />
<path d="M199.5714 145.1572
L199.6667 145.0620
" />
<path d="M199.6667 145.0620
L199.7143 144.9667
" />
<path d="M199.7143 144.9667
L199.7619 144.7762
" />
<path d="M199.7619 144.7762
L199.7619 144.6334
" />
<path d="M199.7619 144.6334
L199.7143 144.4429
" />
<path d="M199.7143 144.4429
L199.6667 144.3477
" />
<path d="M199.6667 144.3477
L199.5714 144.2524
" />
<path d="M199.5714 144.2524
L199.4286 144.2048
" />
<path d="M199.4286 144.2048
L199.3333 144.2048
" />
<path d="M199.3333 144.2048
L199.1905 144.2524
" />
<path d="M199.1905 144.2524
L199.1429 144.3001
" />
<path d="M198.2381 144.2048
L198.7143 144.2048
" />
<path d="M198.7143 144.2048
L198.7619 144.6810
" />
<path d="M198.7619 144.6810
L198.7143 144.6334
" />
<path d="M198.7143 144.6334
L198.6190 144.5858
" />
<path d="M198.6190 144.5858
L198.3810 144.5858
" />
<path d="M198.3810 144.5858
L198.2857 144.6334
" />
<path d="M198.2857 144.6334
L198.2381 144.6810
" />
<path d="M198.2381 144.6810
L198.1905 144.7762
" />
<path d="M198.1905 144.7762
L198.1905 145.0143
" />
<path d="M198.1905 145.0143
L198.2381 145.1096
" />
<path d="M198.2381 145.1096
L198.2857 145.1572
" />
<path d="M198.2857 145.1572
L198.3810 145.2048
" />
<path d="M198.3810 145.2048
L198.6190 145.2048
" />
<path d="M198.6190 145.2048
L198.7143 145.1572
" />
<path d="M198.7143 145.1572
L198.7619 145.1096
" />
<path d="M197.2381 145.2048
L197.8095 145.2048
" />
<path d="M197.5238 145.2048
L197.5238 144.2048
" />
<path d="M197.5238 144.2048
L197.6190 144.3477
" />
<path d="M197.6190 144.3477
L197.7143 144.4429
" />
<path d="M197.7143 144.4429
L197.8095 144.4905
" />
</g><text x="252.5000" y="125.7500"
transform="scale(-1 1) translate(-505.000000 0)"
textLength="3.1548" font-size="1.3333" lengthAdjust="spacingAndGlyphs"
text-anchor="middle" opacity="0" stroke-opacity="0">C53</text>
<g class="stroked-text"><desc>C53</desc>
<path d="M253.1429 125.6096
L253.1905 125.6572
" />
<path d="M253.1905 125.6572
L253.3333 125.7048
" />
<path d="M253.3333 125.7048
L253.4286 125.7048
" />
<path d="M253.4286 125.7048
L253.5714 125.6572
" />
<path d="M253.5714 125.6572
L253.6667 125.5620
" />
<path d="M253.6667 125.5620
L253.7143 125.4667
" />
<path d="M253.7143 125.4667
L253.7619 125.2762
" />
<path d="M253.7619 125.2762
L253.7619 125.1334
" />
<path d="M253.7619 125.1334
L253.7143 124.9429
" />
<path d="M253.7143 124.9429
L253.6667 124.8477
" />
<path d="M253.6667 124.8477
L253.5714 124.7524
" />
<path d="M253.5714 124.7524
L253.4286 124.7048
" />
<path d="M253.4286 124.7048
L253.3333 124.7048
" />
<path d="M253.3333 124.7048
L253.1905 124.7524
" />
<path d="M253.1905 124.7524
L253.1429 124.8001
" />
<path d="M252.2381 124.7048
L252.7143 124.7048
" />
<path d="M252.7143 124.7048
L252.7619 125.1810
" />
<path d="M252.7619 125.1810
L252.7143 125.1334
" />
<path d="M252.7143 125.1334
L252.6190 125.0858
" />
<path d="M252.6190 125.0858
L252.3810 125.0858
" />
<path d="M252.3810 125.0858
L252.2857 125.1334
" />
<path d="M252.2857 125.1334
L252.2381 125.1810
" />
<path d="M252.2381 125.1810
L252.1905 125.2762
" />
<path d="M252.1905 125.2762
L252.1905 125.5143
" />
<path d="M252.1905 125.5143
L252.2381 125.6096
" />
<path d="M252.2381 125.6096
L252.2857 125.6572
" />
<path d="M252.2857 125.6572
L252.3810 125.7048
" />
<path d="M252.3810 125.7048
L252.6190 125.7048
" />
<path d="M252.6190 125.7048
L252.7143 125.6572
" />
<path d="M252.7143 125.6572
L252.7619 125.6096
" />
<path d="M251.8571 124.7048
L251.2381 124.7048
" />
<path d="M251.2381 124.7048
L251.5714 125.0858
" />
<path d="M251.5714 125.0858
L251.4286 125.0858
" />
<path d="M251.4286 125.0858
L251.3333 125.1334
" />
<path d="M251.3333 125.1334
L251.2857 125.1810
" />
<path d="M251.2857 125.1810
L251.2381 125.2762
" />
<path d="M251.2381 125.2762
L251.2381 125.5143
" />
<path d="M251.2381 125.5143
L251.2857 125.6096
" />
<path d="M251.2857 125.6096
L251.3333 125.6572
" />
<path d="M251.3333 125.6572
L251.4286 125.7048
" />
<path d="M251.4286 125.7048
L251.7143 125.7048
" />
<path d="M251.7143 125.7048
L251.8095 125.6572
" />
<path d="M251.8095 125.6572
L251.8571 125.6096
" />
</g><g transform="rotate(-90.000000 328.2500 87.5000)">
<text x="328.2500" y="88.0000"
transform="scale(-1 1) translate(-656.500000 0)"
textLength="3.1548" font-size="1.3333" lengthAdjust="spacingAndGlyphs"
text-anchor="middle" opacity="0" stroke-opacity="0">C46</text>
</g>
<g class="stroked-text"><desc>C46</desc>
<path d="M328.6096 86.8571
L328.6572 86.8095
" />
<path d="M328.6572 86.8095
L328.7048 86.6667
" />
<path d="M328.7048 86.6667
L328.7048 86.5714
" />
<path d="M328.7048 86.5714
L328.6572 86.4286
" />
<path d="M328.6572 86.4286
L328.5620 86.3333
" />
<path d="M328.5620 86.3333
L328.4667 86.2857
" />
<path d="M328.4667 86.2857
L328.2762 86.2381
" />
<path d="M328.2762 86.2381
L328.1334 86.2381
" />
<path d="M328.1334 86.2381
L327.9429 86.2857
" />
<path d="M327.9429 86.2857
L327.8477 86.3333
" />
<path d="M327.8477 86.3333
L327.7524 86.4286
" />
<path d="M327.7524 86.4286
L327.7048 86.5714
" />
<path d="M327.7048 86.5714
L327.7048 86.6667
" />
<path d="M327.7048 86.6667
L327.7524 86.8095
" />
<path d="M327.7524 86.8095
L327.8001 86.8571
" />
<path d="M328.0382 87.7143
L328.7048 87.7143
" />
<path d="M327.6572 87.4762
L328.3715 87.2381
" />
<path d="M328.3715 87.2381
L328.3715 87.8571
" />
<path d="M327.7048 88.6667
L327.7048 88.4762
" />
<path d="M327.7048 88.4762
L327.7524 88.3810
" />
<path d="M327.7524 88.3810
L327.8001 88.3333
" />
<path d="M327.8001 88.3333
L327.9429 88.2381
" />
<path d="M327.9429 88.2381
L328.1334 88.1905
" />
<path d="M328.1334 88.1905
L328.5143 88.1905
" />
<path d="M328.5143 88.1905
L328.6096 88.2381
" />
<path d="M328.6096 88.2381
L328.6572 88.2857
" />
<path d="M328.6572 88.2857
L328.7048 88.3810
" />
<path d="M328.7048 88.3810
L328.7048 88.5714
" />
<path d="M328.7048 88.5714
L328.6572 88.6667
" />
<path d="M328.6572 88.6667
L328.6096 88.7143
" />
<path d="M328.6096 88.7143
L328.5143 88.7619
" />
<path d="M328.5143 88.7619
L328.2762 88.7619
" />
<path d="M328.2762 88.7619
L328.1810 88.7143
" />
<path d="M328.1810 88.7143
L328.1334 88.6667
" />
<path d="M328.1334 88.6667
L328.0858 88.5714
" />
<path d="M328.0858 88.5714
L328.0858 88.3810
" />
<path d="M328.0858 88.3810
L328.1334 88.2857
" />
<path d="M328.1334 88.2857
L328.1810 88.2381
" />
<path d="M328.1810 88.2381
L328.2762 88.1905
" />
</g><text x="145.0000" y="131.7500"
transform="scale(-1 1) translate(-290.000000 0)"
textLength="3.1548" font-size="1.3333" lengthAdjust="spacingAndGlyphs"
text-anchor="middle" opacity="0" stroke-opacity="0">C61</text>
<g class="stroked-text"><desc>C61</desc>
<path d="M145.6429 131.6096
L145.6905 131.6572
" />
<path d="M145.6905 131.6572
L145.8333 131.7048
" />
<path d="M145.8333 131.7048
L145.9286 131.7048
" />
<path d="M145.9286 131.7048
L146.0714 131.6572
" />
<path d="M146.0714 131.6572
L146.1667 131.5620
" />
<path d="M146.1667 131.5620
L146.2143 131.4667
" />
<path d="M146.2143 131.4667
L146.2619 131.2762
" />
<path d="M146.2619 131.2762
L146.2619 131.1334
" />
<path d="M146.2619 131.1334
L146.2143 130.9429
" />
<path d="M146.2143 130.9429
L146.1667 130.8477
" />
<path d="M146.1667 130.8477
L146.0714 130.7524
" />
<path d="M146.0714 130.7524
L145.9286 130.7048
" />
<path d="M145.9286 130.7048
L145.8333 130.7048
" />
<path d="M145.8333 130.7048
L145.6905 130.7524
" />
<path d="M145.6905 130.7524
L145.6429 130.8001
" />
<path d="M144.7857 130.7048
L144.9762 130.7048
" />
<path d="M144.9762 130.7048
L145.0714 130.7524
" />
<path d="M145.0714 130.7524
L145.1190 130.8001
" />
<path d="M145.1190 130.8001
L145.2143 130.9429
" />
<path d="M145.2143 130.9429
L145.2619 131.1334
" />
<path d="M145.2619 131.1334
L145.2619 131.5143
" />
<path d="M145.2619 131.5143
L145.2143 131.6096
" />
<path d="M145.2143 131.6096
L145.1667 131.6572
" />
<path d="M145.1667 131.6572
L145.0714 131.7048
" />
<path d="M145.0714 131.7048
L144.8810 131.7048
" />
<path d="M144.8810 131.7048
L144.7857 131.6572
" />
<path d="M144.7857 131.6572
L144.7381 131.6096
" />
<path d="M144.7381 131.6096
L144.6905 131.5143
" />
<path d="M144.6905 131.5143
L144.6905 131.2762
" />
<path d="M144.6905 131.2762
L144.7381 131.1810
" />
<path d="M144.7381 131.1810
L144.7857 131.1334
" />
<path d="M144.7857 131.1334
L144.8810 131.0858
" />
<path d="M144.8810 131.0858
L145.0714 131.0858
" />
<path d="M145.0714 131.0858
L145.1667 131.1334
" />
<path d="M145.1667 131.1334
L145.2143 131.1810
" />
<path d="M145.2143 131.1810
L145.2619 131.2762
" />
<path d="M143.7381 131.7048
L144.3095 131.7048
" />
<path d="M144.0238 131.7048
L144.0238 130.7048
" />
<path d="M144.0238 130.7048
L144.1190 130.8477
" />
<path d="M144.1190 130.8477
L144.2143 130.9429
" />
<path d="M144.2143 130.9429
L144.3095 130.9905
" />
</g></g>
<g style="fill:none; 
stroke:#000000; stroke-width:0.1200; stroke-opacity:1; 
stroke-linecap:round; stroke-linejoin:round;">
<circle cx="176.5000" cy="96.0000" r="2.6200" /> 
<circle cx="300.5000" cy="116.5000" r="2.6200" /> 
<circle cx="310.0000" cy="98.0000" r="2.6200" /> 
<circle cx="175.0000" cy="59.0000" r="2.6200" /> 
<circle cx="270.0000" cy="47.0000" r="2.6200" /> 
<circle cx="331.5000" cy="97.5000" r="2.6200" /> 
<circle cx="209.0000" cy="53.5000" r="2.6200" /> 
<circle cx="170.0000" cy="49.0000" r="2.6200" /> 
<circle cx="134.0000" cy="135.5000" r="2.6200" /> 
<circle cx="159.5000" cy="96.5000" r="2.6200" /> 
<circle cx="288.0000" cy="124.5000" r="2.6200" /> 
<circle cx="155.5000" cy="134.5000" r="2.6200" /> 
<circle cx="198.5000" cy="141.0000" r="2.6200" /> 
<circle cx="252.5000" cy="121.5000" r="2.6200" /> 
<circle cx="324.5000" cy="87.5000" r="2.6200" /> 
<circle cx="145.0000" cy="135.0000" r="2.6200" /> 
</g> 
</svg>
