%TF.GenerationSoftware,KiCad,Pcbnew,9.0.4-1.fc42app3*%
%TF.CreationDate,2025-11-07T21:17:38-06:00*%
%TF.ProjectId,8-Bit-PC,382d4269-742d-4504-932e-6b696361645f,1*%
%TF.SameCoordinates,Original*%
%TF.FileFunction,Copper,L4,Inr*%
%TF.FilePolarity,Positive*%
%FSLAX46Y46*%
G04 Gerber Fmt 4.6, Leading zero omitted, Abs format (unit mm)*
G04 Created by KiCad (PCBNEW 9.0.4-1.fc42app3) date 2025-11-07 21:17:38*
%MOMM*%
%LPD*%
G01*
G04 APERTURE LIST*
G04 Aperture macros list*
%AMRoundRect*
0 Rectangle with rounded corners*
0 $1 Rounding radius*
0 $2 $3 $4 $5 $6 $7 $8 $9 X,Y pos of 4 corners*
0 Add a 4 corners polygon primitive as box body*
4,1,4,$2,$3,$4,$5,$6,$7,$8,$9,$2,$3,0*
0 Add four circle primitives for the rounded corners*
1,1,$1+$1,$2,$3*
1,1,$1+$1,$4,$5*
1,1,$1+$1,$6,$7*
1,1,$1+$1,$8,$9*
0 Add four rect primitives between the rounded corners*
20,1,$1+$1,$2,$3,$4,$5,0*
20,1,$1+$1,$4,$5,$6,$7,0*
20,1,$1+$1,$6,$7,$8,$9,0*
20,1,$1+$1,$8,$9,$2,$3,0*%
G04 Aperture macros list end*
%TA.AperFunction,ComponentPad*%
%ADD10RoundRect,0.250000X-0.550000X-0.550000X0.550000X-0.550000X0.550000X0.550000X-0.550000X0.550000X0*%
%TD*%
%TA.AperFunction,ComponentPad*%
%ADD11C,1.600000*%
%TD*%
%TA.AperFunction,ComponentPad*%
%ADD12C,1.200000*%
%TD*%
%TA.AperFunction,ComponentPad*%
%ADD13C,1.295400*%
%TD*%
%TA.AperFunction,ComponentPad*%
%ADD14R,1.295400X1.295400*%
%TD*%
%TA.AperFunction,ComponentPad*%
%ADD15C,1.800000*%
%TD*%
%TA.AperFunction,ComponentPad*%
%ADD16R,1.800000X1.800000*%
%TD*%
%TA.AperFunction,ComponentPad*%
%ADD17C,1.378000*%
%TD*%
%TA.AperFunction,ComponentPad*%
%ADD18R,1.378000X1.378000*%
%TD*%
%TA.AperFunction,ComponentPad*%
%ADD19C,2.000000*%
%TD*%
%TA.AperFunction,ComponentPad*%
%ADD20R,1.600000X1.600000*%
%TD*%
%TA.AperFunction,ComponentPad*%
%ADD21RoundRect,0.250000X0.550000X0.550000X-0.550000X0.550000X-0.550000X-0.550000X0.550000X-0.550000X0*%
%TD*%
%TA.AperFunction,ComponentPad*%
%ADD22C,1.676400*%
%TD*%
%TA.AperFunction,ComponentPad*%
%ADD23R,1.676400X1.676400*%
%TD*%
%TA.AperFunction,ComponentPad*%
%ADD24O,1.500000X2.500000*%
%TD*%
%TA.AperFunction,ComponentPad*%
%ADD25R,1.500000X2.500000*%
%TD*%
%TA.AperFunction,ComponentPad*%
%ADD26O,2.200000X3.500000*%
%TD*%
%TA.AperFunction,HeatsinkPad*%
%ADD27O,1.700000X1.000000*%
%TD*%
%TA.AperFunction,ComponentPad*%
%ADD28O,3.240000X2.720000*%
%TD*%
%TA.AperFunction,ComponentPad*%
%ADD29RoundRect,0.250000X0.550000X-0.550000X0.550000X0.550000X-0.550000X0.550000X-0.550000X-0.550000X0*%
%TD*%
%TA.AperFunction,ComponentPad*%
%ADD30RoundRect,0.250000X-0.550000X0.550000X-0.550000X-0.550000X0.550000X-0.550000X0.550000X0.550000X0*%
%TD*%
%TA.AperFunction,ComponentPad*%
%ADD31O,2.500000X1.500000*%
%TD*%
%TA.AperFunction,ComponentPad*%
%ADD32R,2.500000X1.500000*%
%TD*%
%TA.AperFunction,ComponentPad*%
%ADD33O,3.500000X2.200000*%
%TD*%
%TA.AperFunction,ViaPad*%
%ADD34C,0.600000*%
%TD*%
%TA.AperFunction,Conductor*%
%ADD35C,0.200000*%
%TD*%
G04 APERTURE END LIST*
D10*
%TO.N,/MAR/A0*%
%TO.C,U21*%
X170695000Y-100610000D03*
D11*
%TO.N,GND*%
X170695000Y-103150000D03*
%TO.N,Net-(U21-\u002AWE)*%
X170695000Y-105690000D03*
%TO.N,Net-(U21-D0)*%
X170695000Y-108230000D03*
%TO.N,Net-(U21-\u002AO0)*%
X170695000Y-110770000D03*
%TO.N,Net-(U21-D1)*%
X170695000Y-113310000D03*
%TO.N,Net-(U21-\u002AO1)*%
X170695000Y-115850000D03*
%TO.N,GND*%
X170695000Y-118390000D03*
%TO.N,Net-(U21-\u002AO2)*%
X178315000Y-118390000D03*
%TO.N,Net-(U21-D2)*%
X178315000Y-115850000D03*
%TO.N,Net-(U21-\u002AO3)*%
X178315000Y-113310000D03*
%TO.N,Net-(U21-D3)*%
X178315000Y-110770000D03*
%TO.N,/MAR/A3*%
X178315000Y-108230000D03*
%TO.N,/MAR/A2*%
X178315000Y-105690000D03*
%TO.N,/MAR/A1*%
X178315000Y-103150000D03*
%TO.N,VCC*%
X178315000Y-100610000D03*
%TD*%
D10*
%TO.N,/MAR/A0*%
%TO.C,U23*%
X182695000Y-101110000D03*
D11*
%TO.N,GND*%
X182695000Y-103650000D03*
%TO.N,Net-(U21-\u002AWE)*%
X182695000Y-106190000D03*
%TO.N,Net-(U23-D0)*%
X182695000Y-108730000D03*
%TO.N,Net-(U23-\u002AO0)*%
X182695000Y-111270000D03*
%TO.N,Net-(U23-D1)*%
X182695000Y-113810000D03*
%TO.N,Net-(U23-\u002AO1)*%
X182695000Y-116350000D03*
%TO.N,GND*%
X182695000Y-118890000D03*
%TO.N,Net-(U23-\u002AO2)*%
X190315000Y-118890000D03*
%TO.N,Net-(U23-D2)*%
X190315000Y-116350000D03*
%TO.N,Net-(U23-\u002AO3)*%
X190315000Y-113810000D03*
%TO.N,Net-(U23-D3)*%
X190315000Y-111270000D03*
%TO.N,/MAR/A3*%
X190315000Y-108730000D03*
%TO.N,/MAR/A2*%
X190315000Y-106190000D03*
%TO.N,/MAR/A1*%
X190315000Y-103650000D03*
%TO.N,VCC*%
X190315000Y-101110000D03*
%TD*%
%TO.N,GND*%
%TO.C,R14*%
X266917100Y-117412300D03*
%TO.N,Net-(D16-K)*%
X266917100Y-109792300D03*
%TD*%
%TO.N,VCC*%
%TO.C,U5*%
X260750000Y-125790000D03*
%TO.N,CLK*%
X260750000Y-128330000D03*
%TO.N,~{CLK}*%
X260750000Y-130870000D03*
%TO.N,Net-(U24-Zc)*%
X260750000Y-133410000D03*
%TO.N,Net-(U23-D1)*%
X260750000Y-135950000D03*
%TO.N,HLT*%
X260750000Y-138490000D03*
%TO.N,Net-(U4-Pad10)*%
X260750000Y-141030000D03*
%TO.N,GND*%
X253130000Y-141030000D03*
%TO.N,Net-(U21-D2)*%
X253130000Y-138490000D03*
%TO.N,Net-(U52-Zc)*%
X253130000Y-135950000D03*
%TO.N,Net-(U21-D1)*%
X253130000Y-133410000D03*
%TO.N,Net-(U52-Zb)*%
X253130000Y-130870000D03*
%TO.N,Net-(U4-Pad4)*%
X253130000Y-128330000D03*
D10*
%TO.N,Net-(U3-Q)*%
X253130000Y-125790000D03*
%TD*%
D12*
%TO.N,GND*%
%TO.C,C8*%
X333040000Y-88300000D03*
%TO.N,VCC*%
X333040000Y-86300000D03*
%TD*%
D11*
%TO.N,Net-(U2-DIS)*%
%TO.C,C3*%
X278067100Y-149662300D03*
%TO.N,GND*%
X275567100Y-149662300D03*
%TD*%
%TO.N,GND*%
%TO.C,R94*%
X319460000Y-65050000D03*
%TO.N,Net-(D025-K)*%
X319460000Y-72670000D03*
%TD*%
%TO.N,VCC*%
%TO.C,U52*%
X213597100Y-125657300D03*
%TO.N,GND*%
X213597100Y-128197300D03*
%TO.N,Net-(U52-I0c)*%
X213597100Y-130737300D03*
%TO.N,BUS_5*%
X213597100Y-133277300D03*
%TO.N,Net-(U52-Zc)*%
X213597100Y-135817300D03*
%TO.N,Net-(U52-I0d)*%
X213597100Y-138357300D03*
%TO.N,BUS_4*%
X213597100Y-140897300D03*
%TO.N,Net-(U52-Zd)*%
X213597100Y-143437300D03*
%TO.N,GND*%
X205977100Y-143437300D03*
%TO.N,Net-(U52-Zb)*%
X205977100Y-140897300D03*
%TO.N,BUS_6*%
X205977100Y-138357300D03*
%TO.N,Net-(U52-I0b)*%
X205977100Y-135817300D03*
%TO.N,Net-(U52-Za)*%
X205977100Y-133277300D03*
%TO.N,BUS_7*%
X205977100Y-130737300D03*
%TO.N,Net-(U52-I0a)*%
X205977100Y-128197300D03*
D10*
%TO.N,/MAR/PROG*%
X205977100Y-125657300D03*
%TD*%
D11*
%TO.N,GND*%
%TO.C,R83*%
X157500000Y-27300000D03*
%TO.N,Net-(D112-K)*%
X157500000Y-34920000D03*
%TD*%
%TO.N,GND*%
%TO.C,R87*%
X177500000Y-27300000D03*
%TO.N,Net-(D116-K)*%
X177500000Y-34920000D03*
%TD*%
D13*
%TO.N,VCC*%
%TO.C,U8*%
X310870000Y-101550000D03*
%TO.N,CLR*%
X308330000Y-101550000D03*
%TO.N,BUS_7*%
X305790000Y-101550000D03*
%TO.N,BUS_6*%
X303250000Y-101550000D03*
%TO.N,BUS_5*%
X300710000Y-101550000D03*
%TO.N,BUS_4*%
X298170000Y-101550000D03*
%TO.N,~{BI}*%
X295630000Y-101550000D03*
X293090000Y-101550000D03*
%TO.N,GND*%
X293090000Y-93930000D03*
%TO.N,CLK*%
X295630000Y-93930000D03*
%TO.N,/ALU/B_4*%
X298170000Y-93930000D03*
%TO.N,/ALU/B_5*%
X300710000Y-93930000D03*
%TO.N,/ALU/B_6*%
X303250000Y-93930000D03*
%TO.N,/ALU/B_7*%
X305790000Y-93930000D03*
%TO.N,GND*%
X308330000Y-93930000D03*
D14*
X310870000Y-93930000D03*
%TD*%
D11*
%TO.N,VCC*%
%TO.C,U20*%
X235147100Y-125667300D03*
%TO.N,Net-(U24-Zd)*%
X235147100Y-128207300D03*
%TO.N,Net-(U23-D0)*%
X235147100Y-130747300D03*
%TO.N,N/C*%
X235147100Y-133287300D03*
X235147100Y-135827300D03*
%TO.N,Net-(U52-Zd)*%
X235147100Y-138367300D03*
%TO.N,Net-(U21-D3)*%
X235147100Y-140907300D03*
%TO.N,GND*%
X227527100Y-140907300D03*
%TO.N,Net-(U23-D2)*%
X227527100Y-138367300D03*
%TO.N,Net-(U24-Za)*%
X227527100Y-135827300D03*
%TO.N,Net-(U23-D3)*%
X227527100Y-133287300D03*
%TO.N,Net-(U24-Zb)*%
X227527100Y-130747300D03*
%TO.N,Net-(U21-\u002AWE)*%
X227527100Y-128207300D03*
D10*
%TO.N,Net-(U51-Zc)*%
X227527100Y-125667300D03*
%TD*%
D13*
%TO.N,VCC*%
%TO.C,U41*%
X76412100Y-51252300D03*
%TO.N,unconnected-(U41-TC-Pad15)*%
X76412100Y-48712300D03*
%TO.N,Net-(D59-A)*%
X76412100Y-46172300D03*
%TO.N,Net-(D60-A)*%
X76412100Y-43632300D03*
%TO.N,Net-(D61-A)*%
X76412100Y-41092300D03*
%TO.N,unconnected-(U41-Q3-Pad11)*%
X76412100Y-38552300D03*
%TO.N,VCC*%
X76412100Y-36012300D03*
X76412100Y-33472300D03*
%TO.N,GND*%
X84032100Y-33472300D03*
%TO.N,VCC*%
X84032100Y-36012300D03*
%TO.N,unconnected-(U41-D3-Pad6)*%
X84032100Y-38552300D03*
%TO.N,unconnected-(U41-D2-Pad5)*%
X84032100Y-41092300D03*
%TO.N,unconnected-(U41-D1-Pad4)*%
X84032100Y-43632300D03*
%TO.N,unconnected-(U41-D0-Pad3)*%
X84032100Y-46172300D03*
%TO.N,~{CLK}*%
X84032100Y-48712300D03*
D14*
%TO.N,Net-(U41-~{MR})*%
X84032100Y-51252300D03*
%TD*%
D12*
%TO.N,GND*%
%TO.C,C11*%
X251000000Y-42420000D03*
%TO.N,VCC*%
X249000000Y-42420000D03*
%TD*%
D15*
%TO.N,Net-(D31-A)*%
%TO.C,D31*%
X207620000Y-161420000D03*
D16*
%TO.N,Net-(D31-K)*%
X205080000Y-161420000D03*
%TD*%
D15*
%TO.N,Net-(D116-A)*%
%TO.C,D116*%
X180000000Y-39920000D03*
D16*
%TO.N,Net-(D116-K)*%
X177460000Y-39920000D03*
%TD*%
D11*
%TO.N,GND*%
%TO.C,R32*%
X195197100Y-99912300D03*
%TO.N,Net-(C14-Pad2)*%
X202817100Y-99912300D03*
%TD*%
%TO.N,VCC*%
%TO.C,U6*%
X320240000Y-141580000D03*
%TO.N,unconnected-(U6-Pad13)*%
X320240000Y-144120000D03*
%TO.N,unconnected-(U6-Pad12)*%
X320240000Y-146660000D03*
%TO.N,unconnected-(U6-Pad11)*%
X320240000Y-149200000D03*
%TO.N,unconnected-(U6-Pad10)*%
X320240000Y-151740000D03*
%TO.N,unconnected-(U6-Pad9)*%
X320240000Y-154280000D03*
%TO.N,unconnected-(U6-Pad8)*%
X320240000Y-156820000D03*
%TO.N,GND*%
X312620000Y-156820000D03*
%TO.N,unconnected-(U6-Pad6)*%
X312620000Y-154280000D03*
%TO.N,unconnected-(U6-Pad5)*%
X312620000Y-151740000D03*
%TO.N,unconnected-(U6-Pad4)*%
X312620000Y-149200000D03*
%TO.N,Net-(U4-Pad9)*%
X312620000Y-146660000D03*
%TO.N,Net-(U4-Pad6)*%
X312620000Y-144120000D03*
D10*
%TO.N,Net-(U4-Pad3)*%
X312620000Y-141580000D03*
%TD*%
D15*
%TO.N,Net-(D57-A)*%
%TO.C,D57*%
X111442100Y-103552300D03*
D16*
%TO.N,Net-(D57-K)*%
X108902100Y-103552300D03*
%TD*%
D15*
%TO.N,Net-(D53-A)*%
%TO.C,D53*%
X120327100Y-122412300D03*
D16*
%TO.N,Net-(D53-K)*%
X117787100Y-122412300D03*
%TD*%
D11*
%TO.N,GND*%
%TO.C,R15*%
X271717100Y-117222300D03*
%TO.N,Net-(D17-K)*%
X271717100Y-109602300D03*
%TD*%
%TO.N,GND*%
%TO.C,R13*%
X262167100Y-117162300D03*
%TO.N,Net-(D15-K)*%
X262167100Y-109542300D03*
%TD*%
D15*
%TO.N,IR_7*%
%TO.C,D112*%
X160040000Y-39920000D03*
D16*
%TO.N,Net-(D112-K)*%
X157500000Y-39920000D03*
%TD*%
D11*
%TO.N,Net-(D18-K)*%
%TO.C,R16*%
X276917100Y-109732300D03*
%TO.N,GND*%
X276917100Y-117352300D03*
%TD*%
D15*
%TO.N,CF*%
%TO.C,D14*%
X262000000Y-53920000D03*
D16*
%TO.N,Net-(D14-K)*%
X259460000Y-53920000D03*
%TD*%
D11*
%TO.N,Net-(U2-TR)*%
%TO.C,R3*%
X283127100Y-139162300D03*
%TO.N,VCC*%
X275507100Y-139162300D03*
%TD*%
%TO.N,GND*%
%TO.C,R65*%
X46047700Y-106657100D03*
%TO.N,Net-(D62-K)*%
X53667700Y-106657100D03*
%TD*%
%TO.N,GND*%
%TO.C,R20*%
X222197100Y-54892300D03*
%TO.N,Net-(D20-K)*%
X222197100Y-47272300D03*
%TD*%
D15*
%TO.N,BUS_7*%
%TO.C,D69*%
X58500000Y-69110000D03*
D16*
%TO.N,Net-(D69-K)*%
X58500000Y-71650000D03*
%TD*%
D15*
%TO.N,Net-(D13-A)*%
%TO.C,D13*%
X259782100Y-103852300D03*
D16*
%TO.N,Net-(D13-K)*%
X257242100Y-103852300D03*
%TD*%
D11*
%TO.N,GND*%
%TO.C,R97*%
X304460000Y-65050000D03*
%TO.N,Net-(D028-K)*%
X304460000Y-72670000D03*
%TD*%
D17*
%TO.N,VCC*%
%TO.C,U43*%
X105000050Y-32020000D03*
X105000050Y-34560000D03*
%TO.N,N/C*%
X105000050Y-37100000D03*
%TO.N,CF*%
X105000050Y-39640000D03*
%TO.N,ZF*%
X105000050Y-42180000D03*
%TO.N,GND*%
X105000050Y-44720000D03*
X105000050Y-47260000D03*
X105000050Y-49800000D03*
X105000050Y-52340000D03*
%TO.N,HLT*%
X105000050Y-54880000D03*
%TO.N,Net-(D39-A)*%
X105000050Y-57420000D03*
%TO.N,RI*%
X105000050Y-59960000D03*
%TO.N,Net-(D41-A)*%
X105000050Y-62500000D03*
%TO.N,Net-(D42-A)*%
X105000050Y-65040000D03*
%TO.N,GND*%
X89442550Y-65040000D03*
%TO.N,Net-(D43-A)*%
X89442550Y-62500000D03*
%TO.N,Net-(D44-A)*%
X89442550Y-59960000D03*
%TO.N,Net-(D45-A)*%
X89442550Y-57420000D03*
%TO.N,Net-(D59-A)*%
X89442550Y-54880000D03*
%TO.N,Net-(D60-A)*%
X89442550Y-52340000D03*
%TO.N,Net-(D61-A)*%
X89442550Y-49800000D03*
%TO.N,IR_4*%
X89442550Y-47260000D03*
%TO.N,IR_5*%
X89442550Y-44720000D03*
%TO.N,IR_6*%
X89442550Y-42180000D03*
%TO.N,IR_7*%
X89442550Y-39640000D03*
%TO.N,GND*%
X89442550Y-37100000D03*
X89442550Y-34560000D03*
D18*
%TO.N,N/C*%
X89442550Y-32020000D03*
%TD*%
D15*
%TO.N,Net-(D17-A)*%
%TO.C,D17*%
X274382100Y-103852300D03*
D16*
%TO.N,Net-(D17-K)*%
X271842100Y-103852300D03*
%TD*%
D15*
%TO.N,Net-(D59-A)*%
%TO.C,D59*%
X105442100Y-86552300D03*
D16*
%TO.N,Net-(D59-K)*%
X102902100Y-86552300D03*
%TD*%
D15*
%TO.N,IR_4*%
%TO.C,D115*%
X175000000Y-39920000D03*
D16*
%TO.N,Net-(D115-K)*%
X172460000Y-39920000D03*
%TD*%
D19*
%TO.N,Net-(U51-I0c)*%
%TO.C,SW6*%
X242317100Y-145427300D03*
X248817100Y-145427300D03*
%TO.N,GND*%
X242317100Y-149927300D03*
X248817100Y-149927300D03*
%TD*%
D15*
%TO.N,Net-(D30-A)*%
%TO.C,D30*%
X202660000Y-161420000D03*
D16*
%TO.N,Net-(D30-K)*%
X200120000Y-161420000D03*
%TD*%
D11*
%TO.N,VCC*%
%TO.C,U32*%
X138003900Y-134069100D03*
%TO.N,unconnected-(U32A-Q-Pad15)*%
X138003900Y-136609100D03*
%TO.N,Net-(U32A-~{Q})*%
X138003900Y-139149100D03*
%TO.N,GND*%
X138003900Y-141689100D03*
%TO.N,VCC*%
X138003900Y-144229100D03*
%TO.N,unconnected-(U32B-Q-Pad11)*%
X138003900Y-146769100D03*
%TO.N,Net-(U32B-~{Q})*%
X138003900Y-149309100D03*
%TO.N,VCC*%
X138003900Y-151849100D03*
X130383900Y-151849100D03*
X130383900Y-149309100D03*
%TO.N,Net-(U32A-~{Q})*%
X130383900Y-146769100D03*
%TO.N,VCC*%
X130383900Y-144229100D03*
X130383900Y-141689100D03*
X130383900Y-139149100D03*
X130383900Y-136609100D03*
D10*
%TO.N,Net-(U31-Q)*%
X130383900Y-134069100D03*
%TD*%
D15*
%TO.N,CE*%
%TO.C,D50*%
X104817100Y-122412300D03*
D16*
%TO.N,Net-(D50-K)*%
X102277100Y-122412300D03*
%TD*%
D11*
%TO.N,Net-(U34-G)*%
%TO.C,U35*%
X81636400Y-130639100D03*
%TO.N,Net-(U34-F)*%
X84176400Y-130639100D03*
%TO.N,Net-(U33A-O0)*%
X86716400Y-130639100D03*
%TO.N,Net-(U34-A)*%
X89256400Y-130639100D03*
%TO.N,Net-(U34-B)*%
X91796400Y-130639100D03*
%TO.N,Net-(U34-DP)*%
X91796400Y-145879100D03*
%TO.N,Net-(U34-C)*%
X89256400Y-145879100D03*
%TO.N,Net-(U33A-O0)*%
X86716400Y-145879100D03*
%TO.N,Net-(U34-D)*%
X84176400Y-145879100D03*
D20*
%TO.N,Net-(U34-E)*%
X81636400Y-145879100D03*
%TD*%
D15*
%TO.N,Net-(D11-A)*%
%TO.C,D11*%
X250017100Y-103852300D03*
D16*
%TO.N,Net-(D11-K)*%
X247477100Y-103852300D03*
%TD*%
D15*
%TO.N,Net-(D25-A)*%
%TO.C,D25*%
X251250000Y-23500000D03*
D16*
%TO.N,Net-(D25-K)*%
X248710000Y-23500000D03*
%TD*%
D11*
%TO.N,VCC*%
%TO.C,R57*%
X111412100Y-90932300D03*
%TO.N,Net-(D57-A)*%
X111412100Y-98552300D03*
%TD*%
%TO.N,VCC*%
%TO.C,U33*%
X148783900Y-134069100D03*
%TO.N,N/C*%
X148783900Y-136609100D03*
X148783900Y-139149100D03*
X148783900Y-141689100D03*
X148783900Y-144229100D03*
X148783900Y-146769100D03*
X148783900Y-149309100D03*
X148783900Y-151849100D03*
%TO.N,GND*%
X141163900Y-151849100D03*
%TO.N,Net-(U33A-O3)*%
X141163900Y-149309100D03*
%TO.N,Net-(U33A-O2)*%
X141163900Y-146769100D03*
%TO.N,Net-(U33A-O1)*%
X141163900Y-144229100D03*
%TO.N,Net-(U33A-O0)*%
X141163900Y-141689100D03*
%TO.N,Net-(U32B-~{Q})*%
X141163900Y-139149100D03*
%TO.N,Net-(U32A-~{Q})*%
X141163900Y-136609100D03*
D10*
%TO.N,GND*%
X141163900Y-134069100D03*
%TD*%
D15*
%TO.N,HLT*%
%TO.C,D38*%
X44767100Y-122412300D03*
D16*
%TO.N,Net-(D38-K)*%
X42227100Y-122412300D03*
%TD*%
D11*
%TO.N,GND*%
%TO.C,R72*%
X46047700Y-71657100D03*
%TO.N,Net-(D69-K)*%
X53667700Y-71657100D03*
%TD*%
D12*
%TO.N,GND*%
%TO.C,C18*%
X146666400Y-120379100D03*
%TO.N,VCC*%
X148666400Y-120379100D03*
%TD*%
D15*
%TO.N,Net-(D42-A)*%
%TO.C,D42*%
X64767100Y-122412300D03*
D16*
%TO.N,Net-(D42-K)*%
X62227100Y-122412300D03*
%TD*%
D15*
%TO.N,/ALU/A_1*%
%TO.C,D8*%
X229047100Y-81162300D03*
D16*
%TO.N,Net-(D8-K)*%
X231587100Y-81162300D03*
%TD*%
D11*
%TO.N,GND*%
%TO.C,R52*%
X102317100Y-109792300D03*
%TO.N,Net-(D50-K)*%
X102317100Y-117412300D03*
%TD*%
%TO.N,GND*%
%TO.C,R89*%
X187500000Y-27170000D03*
%TO.N,Net-(D118-K)*%
X187500000Y-34790000D03*
%TD*%
%TO.N,GND*%
%TO.C,R31*%
X215120000Y-173920000D03*
%TO.N,Net-(D33-K)*%
X215120000Y-166300000D03*
%TD*%
%TO.N,Net-(SW2-A)*%
%TO.C,R5*%
X292567100Y-149852300D03*
%TO.N,VCC*%
X292567100Y-157472300D03*
%TD*%
D15*
%TO.N,/ALU/B_7*%
%TO.C,D022*%
X337000000Y-78920000D03*
D16*
%TO.N,Net-(D022-K)*%
X334460000Y-78920000D03*
%TD*%
D11*
%TO.N,GND*%
%TO.C,R90*%
X192500000Y-27300000D03*
%TO.N,Net-(D119-K)*%
X192500000Y-34920000D03*
%TD*%
D12*
%TO.N,GND*%
%TO.C,C10*%
X257993900Y-82749100D03*
%TO.N,VCC*%
X255993900Y-82749100D03*
%TD*%
%TO.N,GND*%
%TO.C,C7*%
X315605000Y-107040000D03*
%TO.N,Net-(U1-THR)*%
X317605000Y-107040000D03*
%TD*%
D15*
%TO.N,Net-(D54-A)*%
%TO.C,D54*%
X93412100Y-103552300D03*
D16*
%TO.N,Net-(D54-K)*%
X90872100Y-103552300D03*
%TD*%
D11*
%TO.N,GND*%
%TO.C,R74*%
X70945000Y-92640000D03*
%TO.N,BUS_6*%
X63325000Y-92640000D03*
%TD*%
D15*
%TO.N,Net-(D44-A)*%
%TO.C,D44*%
X74817100Y-122412300D03*
D16*
%TO.N,Net-(D44-K)*%
X72277100Y-122412300D03*
%TD*%
D15*
%TO.N,Net-(D48-A)*%
%TO.C,D48*%
X94817100Y-122412300D03*
D16*
%TO.N,Net-(D48-K)*%
X92277100Y-122412300D03*
%TD*%
D11*
%TO.N,GND*%
%TO.C,SW5*%
X169197100Y-143412300D03*
X169197100Y-140872300D03*
%TO.N,Net-(U24-I0b)*%
X169197100Y-138332300D03*
%TO.N,Net-(U24-I0a)*%
X169197100Y-135792300D03*
%TO.N,GND*%
X169197100Y-133252300D03*
X169197100Y-130712300D03*
%TO.N,Net-(U52-I0b)*%
X169197100Y-128172300D03*
%TO.N,Net-(U52-I0a)*%
X169197100Y-125632300D03*
%TO.N,GND*%
X176817100Y-125632300D03*
X176817100Y-128172300D03*
%TO.N,Net-(U52-I0c)*%
X176817100Y-130712300D03*
%TO.N,Net-(U52-I0d)*%
X176817100Y-133252300D03*
%TO.N,GND*%
X176817100Y-135792300D03*
X176817100Y-138332300D03*
%TO.N,Net-(U24-I0c)*%
X176817100Y-140872300D03*
D21*
%TO.N,Net-(U24-I0d)*%
X176817100Y-143412300D03*
%TD*%
D22*
%TO.N,VCC*%
%TO.C,U29*%
X151050000Y-66740000D03*
%TO.N,~{CO}*%
X151050000Y-69280000D03*
%TO.N,unconnected-(U29-B0-Pad18)*%
X151050000Y-71820000D03*
%TO.N,unconnected-(U29-B1-Pad17)*%
X151050000Y-74360000D03*
%TO.N,unconnected-(U29-B2-Pad16)*%
X151050000Y-76900000D03*
%TO.N,unconnected-(U29-B3-Pad15)*%
X151050000Y-79440000D03*
%TO.N,Net-(D34-A)*%
X151050000Y-81980000D03*
%TO.N,Net-(D35-A)*%
X151050000Y-84520000D03*
%TO.N,Net-(D36-A)*%
X151050000Y-87060000D03*
%TO.N,Net-(D37-A)*%
X151050000Y-89600000D03*
%TO.N,GND*%
X143430000Y-89600000D03*
%TO.N,BUS_0*%
X143430000Y-87060000D03*
%TO.N,BUS_1*%
X143430000Y-84520000D03*
%TO.N,BUS_2*%
X143430000Y-81980000D03*
%TO.N,BUS_3*%
X143430000Y-79440000D03*
%TO.N,unconnected-(U29-A3-Pad5)*%
X143430000Y-76900000D03*
%TO.N,unconnected-(U29-A2-Pad4)*%
X143430000Y-74360000D03*
%TO.N,unconnected-(U29-A1-Pad3)*%
X143430000Y-71820000D03*
%TO.N,unconnected-(U29-A0-Pad2)*%
X143430000Y-69280000D03*
D23*
%TO.N,GND*%
X143430000Y-66740000D03*
%TD*%
D11*
%TO.N,GND*%
%TO.C,R39*%
X116976400Y-150879100D03*
%TO.N,Net-(SW7-A)*%
X109356400Y-150879100D03*
%TD*%
D15*
%TO.N,ZF*%
%TO.C,D10*%
X262000000Y-58420000D03*
D16*
%TO.N,Net-(D10-K)*%
X259460000Y-58420000D03*
%TD*%
D15*
%TO.N,/ALU/B_1*%
%TO.C,D028*%
X306980000Y-78920000D03*
D16*
%TO.N,Net-(D028-K)*%
X304440000Y-78920000D03*
%TD*%
D11*
%TO.N,GND*%
%TO.C,R44*%
X62317100Y-109792300D03*
%TO.N,Net-(D42-K)*%
X62317100Y-117412300D03*
%TD*%
D15*
%TO.N,/MAR/A3*%
%TO.C,D20*%
X224937100Y-42332300D03*
D16*
%TO.N,Net-(D20-K)*%
X222397100Y-42332300D03*
%TD*%
D11*
%TO.N,VCC*%
%TO.C,U22*%
X194817100Y-142152300D03*
%TO.N,unconnected-(U22-Pad13)*%
X194817100Y-139612300D03*
%TO.N,unconnected-(U22-Pad12)*%
X194817100Y-137072300D03*
%TO.N,unconnected-(U22-Pad11)*%
X194817100Y-134532300D03*
%TO.N,unconnected-(U22-Pad10)*%
X194817100Y-131992300D03*
%TO.N,unconnected-(U22-Pad9)*%
X194817100Y-129452300D03*
%TO.N,unconnected-(U22-Pad8)*%
X194817100Y-126912300D03*
%TO.N,GND*%
X202437100Y-126912300D03*
%TO.N,unconnected-(U22-Pad6)*%
X202437100Y-129452300D03*
%TO.N,unconnected-(U22-Pad5)*%
X202437100Y-131992300D03*
%TO.N,unconnected-(U22-Pad4)*%
X202437100Y-134532300D03*
%TO.N,unconnected-(U22-Pad3)*%
X202437100Y-137072300D03*
%TO.N,Net-(U21-D0)*%
X202437100Y-139612300D03*
D21*
%TO.N,Net-(U52-Za)*%
X202437100Y-142152300D03*
%TD*%
D11*
%TO.N,GND*%
%TO.C,R69*%
X46047700Y-86157100D03*
%TO.N,Net-(D66-K)*%
X53667700Y-86157100D03*
%TD*%
%TO.N,GND*%
%TO.C,R24*%
X180120000Y-173920000D03*
%TO.N,Net-(D26-K)*%
X180120000Y-166300000D03*
%TD*%
%TO.N,Net-(SW2-C)*%
%TO.C,R6*%
X296317100Y-139602300D03*
%TO.N,VCC*%
X296317100Y-147222300D03*
%TD*%
D15*
%TO.N,/ALU/B_4*%
%TO.C,D025*%
X321960000Y-78920000D03*
D16*
%TO.N,Net-(D025-K)*%
X319420000Y-78920000D03*
%TD*%
D11*
%TO.N,Net-(U34-G)*%
%TO.C,U37*%
X109736400Y-130639100D03*
%TO.N,Net-(U34-F)*%
X112276400Y-130639100D03*
%TO.N,Net-(U33A-O1)*%
X114816400Y-130639100D03*
%TO.N,Net-(U34-A)*%
X117356400Y-130639100D03*
%TO.N,Net-(U34-B)*%
X119896400Y-130639100D03*
%TO.N,Net-(U34-DP)*%
X119896400Y-145879100D03*
%TO.N,Net-(U34-C)*%
X117356400Y-145879100D03*
%TO.N,Net-(U33A-O1)*%
X114816400Y-145879100D03*
%TO.N,Net-(U34-D)*%
X112276400Y-145879100D03*
D20*
%TO.N,Net-(U34-E)*%
X109736400Y-145879100D03*
%TD*%
D15*
%TO.N,BUS_6*%
%TO.C,D68*%
X58500000Y-74110000D03*
D16*
%TO.N,Net-(D68-K)*%
X58500000Y-76650000D03*
%TD*%
D11*
%TO.N,GND*%
%TO.C,R17*%
X281917100Y-117222300D03*
%TO.N,Net-(D19-K)*%
X281917100Y-109602300D03*
%TD*%
%TO.N,GND*%
%TO.C,R71*%
X46047700Y-77157100D03*
%TO.N,Net-(D68-K)*%
X53667700Y-77157100D03*
%TD*%
%TO.N,Net-(D25-A)*%
%TO.C,R19*%
X251250000Y-28130000D03*
%TO.N,VCC*%
X251250000Y-35750000D03*
%TD*%
D12*
%TO.N,GND*%
%TO.C,C17*%
X122166400Y-159879100D03*
%TO.N,Net-(U31-CV)*%
X124166400Y-159879100D03*
%TD*%
D15*
%TO.N,IR_5*%
%TO.C,D114*%
X170020000Y-39920000D03*
D16*
%TO.N,Net-(D114-K)*%
X167480000Y-39920000D03*
%TD*%
D12*
%TO.N,GND*%
%TO.C,C13*%
X239977100Y-112097300D03*
%TO.N,VCC*%
X237977100Y-112097300D03*
%TD*%
D11*
%TO.N,Net-(U31-DIS)*%
%TO.C,R37*%
X162666400Y-127069100D03*
%TO.N,VCC*%
X162666400Y-134689100D03*
%TD*%
%TO.N,Net-(D34-K)*%
%TO.C,R33*%
X157990000Y-84170000D03*
%TO.N,GND*%
X157990000Y-91790000D03*
%TD*%
%TO.N,GND*%
%TO.C,R62*%
X108912100Y-73932300D03*
%TO.N,Net-(D60-K)*%
X108912100Y-81552300D03*
%TD*%
D15*
%TO.N,Net-(D61-A)*%
%TO.C,D61*%
X117462100Y-86552300D03*
D16*
%TO.N,Net-(D61-K)*%
X114922100Y-86552300D03*
%TD*%
D15*
%TO.N,/MAR/A2*%
%TO.C,D21*%
X230947100Y-42332300D03*
D16*
%TO.N,Net-(D21-K)*%
X228407100Y-42332300D03*
%TD*%
D11*
%TO.N,VCC*%
%TO.C,U13*%
X284560000Y-45670000D03*
%TO.N,Net-(U13-B3)*%
X284560000Y-48210000D03*
%TO.N,/ALU/A_6*%
X284560000Y-50750000D03*
%TO.N,Net-(D12-A)*%
X284560000Y-53290000D03*
%TO.N,/ALU/A_7*%
X284560000Y-55830000D03*
%TO.N,Net-(U13-B4)*%
X284560000Y-58370000D03*
%TO.N,Net-(D11-A)*%
X284560000Y-60910000D03*
%TO.N,Net-(U12-D0)*%
X284560000Y-63450000D03*
%TO.N,GND*%
X276940000Y-63450000D03*
%TO.N,Net-(U13-C0)*%
X276940000Y-60910000D03*
%TO.N,Net-(U13-B1)*%
X276940000Y-58370000D03*
%TO.N,/ALU/A_4*%
X276940000Y-55830000D03*
%TO.N,Net-(D15-A)*%
X276940000Y-53290000D03*
%TO.N,/ALU/A_5*%
X276940000Y-50750000D03*
%TO.N,Net-(U13-B2)*%
X276940000Y-48210000D03*
D10*
%TO.N,Net-(D13-A)*%
X276940000Y-45670000D03*
%TD*%
D11*
%TO.N,GND*%
%TO.C,R91*%
X334460000Y-65050000D03*
%TO.N,Net-(D022-K)*%
X334460000Y-72670000D03*
%TD*%
%TO.N,GND*%
%TO.C,R47*%
X77317100Y-109792300D03*
%TO.N,Net-(D45-K)*%
X77317100Y-117412300D03*
%TD*%
%TO.N,GND*%
%TO.C,R81*%
X38000000Y-112420000D03*
%TO.N,Net-(J1-CC2)*%
X30380000Y-112420000D03*
%TD*%
D15*
%TO.N,/ALU/B_2*%
%TO.C,D027*%
X311980000Y-78920000D03*
D16*
%TO.N,Net-(D027-K)*%
X309440000Y-78920000D03*
%TD*%
D11*
%TO.N,VCC*%
%TO.C,R60*%
X93412100Y-91052300D03*
%TO.N,Net-(D54-A)*%
X93412100Y-98672300D03*
%TD*%
%TO.N,VCC*%
%TO.C,U24*%
X192037100Y-125657300D03*
%TO.N,GND*%
X192037100Y-128197300D03*
%TO.N,Net-(U24-I0c)*%
X192037100Y-130737300D03*
%TO.N,BUS_1*%
X192037100Y-133277300D03*
%TO.N,Net-(U24-Zc)*%
X192037100Y-135817300D03*
%TO.N,Net-(U24-I0d)*%
X192037100Y-138357300D03*
%TO.N,BUS_0*%
X192037100Y-140897300D03*
%TO.N,Net-(U24-Zd)*%
X192037100Y-143437300D03*
%TO.N,GND*%
X184417100Y-143437300D03*
%TO.N,Net-(U24-Zb)*%
X184417100Y-140897300D03*
%TO.N,BUS_2*%
X184417100Y-138357300D03*
%TO.N,Net-(U24-I0b)*%
X184417100Y-135817300D03*
%TO.N,Net-(U24-Za)*%
X184417100Y-133277300D03*
%TO.N,BUS_3*%
X184417100Y-130737300D03*
%TO.N,Net-(U24-I0a)*%
X184417100Y-128197300D03*
D10*
%TO.N,/MAR/PROG*%
X184417100Y-125657300D03*
%TD*%
D15*
%TO.N,Net-(D27-A)*%
%TO.C,D27*%
X187670000Y-161420000D03*
D16*
%TO.N,Net-(D27-K)*%
X185130000Y-161420000D03*
%TD*%
D11*
%TO.N,Net-(U1-DIS)*%
%TO.C,R1*%
X300627100Y-127412300D03*
%TO.N,VCC*%
X293007100Y-127412300D03*
%TD*%
%TO.N,Net-(U2-DIS)*%
%TO.C,R4*%
X282067100Y-149912300D03*
%TO.N,VCC*%
X282067100Y-157532300D03*
%TD*%
D15*
%TO.N,Net-(D29-A)*%
%TO.C,D29*%
X197660000Y-161420000D03*
D16*
%TO.N,Net-(D29-K)*%
X195120000Y-161420000D03*
%TD*%
D11*
%TO.N,GND*%
%TO.C,R70*%
X46047700Y-81657100D03*
%TO.N,Net-(D67-K)*%
X53667700Y-81657100D03*
%TD*%
D15*
%TO.N,/MAR/A1*%
%TO.C,D22*%
X236957100Y-42332300D03*
D16*
%TO.N,Net-(D22-K)*%
X234417100Y-42332300D03*
%TD*%
D11*
%TO.N,Net-(D36-K)*%
%TO.C,R35*%
X170240000Y-84170000D03*
%TO.N,GND*%
X170240000Y-91790000D03*
%TD*%
D15*
%TO.N,Net-(D56-A)*%
%TO.C,D56*%
X105432100Y-103552300D03*
D16*
%TO.N,Net-(D56-K)*%
X102892100Y-103552300D03*
%TD*%
D13*
%TO.N,VCC*%
%TO.C,U30*%
X176740000Y-73920000D03*
%TO.N,unconnected-(U30-TC-Pad15)*%
X174200000Y-73920000D03*
%TO.N,Net-(D37-A)*%
X171660000Y-73920000D03*
%TO.N,Net-(D36-A)*%
X169120000Y-73920000D03*
%TO.N,Net-(D35-A)*%
X166580000Y-73920000D03*
%TO.N,Net-(D34-A)*%
X164040000Y-73920000D03*
%TO.N,CE*%
X161500000Y-73920000D03*
%TO.N,~{J}*%
X158960000Y-73920000D03*
%TO.N,GND*%
X158960000Y-66300000D03*
%TO.N,CE*%
X161500000Y-66300000D03*
%TO.N,BUS_3*%
X164040000Y-66300000D03*
%TO.N,BUS_2*%
X166580000Y-66300000D03*
%TO.N,BUS_1*%
X169120000Y-66300000D03*
%TO.N,BUS_0*%
X171660000Y-66300000D03*
%TO.N,CLK*%
X174200000Y-66300000D03*
D14*
%TO.N,~{CLR}*%
X176740000Y-66300000D03*
%TD*%
D15*
%TO.N,Net-(D41-A)*%
%TO.C,D41*%
X59767100Y-122412300D03*
D16*
%TO.N,Net-(D41-K)*%
X57227100Y-122412300D03*
%TD*%
D15*
%TO.N,Net-(D46-A)*%
%TO.C,D46*%
X84817100Y-122412300D03*
D16*
%TO.N,Net-(D46-K)*%
X82277100Y-122412300D03*
%TD*%
D11*
%TO.N,Net-(D37-K)*%
%TO.C,R36*%
X175990000Y-84170000D03*
%TO.N,GND*%
X175990000Y-91790000D03*
%TD*%
%TO.N,GND*%
%TO.C,R55*%
X117817100Y-109792300D03*
%TO.N,Net-(D53-K)*%
X117817100Y-117412300D03*
%TD*%
D13*
%TO.N,VCC*%
%TO.C,U19*%
X276620000Y-23180000D03*
%TO.N,CLR*%
X276620000Y-25720000D03*
%TO.N,BUS_3*%
X276620000Y-28260000D03*
%TO.N,BUS_2*%
X276620000Y-30800000D03*
%TO.N,BUS_1*%
X276620000Y-33340000D03*
%TO.N,BUS_0*%
X276620000Y-35880000D03*
%TO.N,~{MI}*%
X276620000Y-38420000D03*
X276620000Y-40960000D03*
%TO.N,GND*%
X269000000Y-40960000D03*
%TO.N,CLK*%
X269000000Y-38420000D03*
%TO.N,/MAR/PROG*%
X269000000Y-35880000D03*
X269000000Y-33340000D03*
X269000000Y-30800000D03*
X269000000Y-28260000D03*
%TO.N,GND*%
X269000000Y-25720000D03*
D14*
X269000000Y-23180000D03*
%TD*%
D12*
%TO.N,GND*%
%TO.C,C118*%
X201817100Y-54712300D03*
%TO.N,VCC*%
X199817100Y-54712300D03*
%TD*%
D11*
%TO.N,VCC*%
%TO.C,U10*%
X306120000Y-45680000D03*
%TO.N,unconnected-(U10-Pad13)*%
X306120000Y-48220000D03*
%TO.N,unconnected-(U10-Pad12)*%
X306120000Y-50760000D03*
%TO.N,unconnected-(U10-Pad11)*%
X306120000Y-53300000D03*
%TO.N,Net-(U10-Pad10)*%
X306120000Y-55840000D03*
%TO.N,Net-(U10-Pad9)*%
X306120000Y-58380000D03*
%TO.N,Net-(U10-Pad4)*%
X306120000Y-60920000D03*
%TO.N,GND*%
X298500000Y-60920000D03*
%TO.N,Net-(U12-D1)*%
X298500000Y-58380000D03*
%TO.N,Net-(U10-Pad3)*%
X298500000Y-55840000D03*
%TO.N,Net-(U10-Pad4)*%
X298500000Y-53300000D03*
%TO.N,Net-(U10-Pad3)*%
X298500000Y-50760000D03*
%TO.N,Net-(U10-Pad2)*%
X298500000Y-48220000D03*
D10*
%TO.N,Net-(U10-Pad1)*%
X298500000Y-45680000D03*
%TD*%
D24*
%TO.N,VCC*%
%TO.C,SW7*%
X115266400Y-158879100D03*
%TO.N,Net-(SW7-B)*%
X113266400Y-158879100D03*
D25*
%TO.N,Net-(SW7-A)*%
X111266400Y-158879100D03*
D26*
%TO.N,*%
X117366400Y-158879100D03*
X109166400Y-158879100D03*
%TD*%
D11*
%TO.N,GND*%
%TO.C,R88*%
X182500000Y-27300000D03*
%TO.N,Net-(D117-K)*%
X182500000Y-34920000D03*
%TD*%
D13*
%TO.N,VCC*%
%TO.C,U11*%
X274468400Y-70180000D03*
%TO.N,Net-(U10-Pad9)*%
X274468400Y-72720000D03*
%TO.N,Net-(D19-A)*%
X274468400Y-75260000D03*
%TO.N,Net-(D18-A)*%
X274468400Y-77800000D03*
%TO.N,Net-(U10-Pad10)*%
X274468400Y-80340000D03*
%TO.N,Net-(D17-A)*%
X274468400Y-82880000D03*
%TO.N,Net-(D16-A)*%
X274468400Y-85420000D03*
%TO.N,GND*%
X266848400Y-85420000D03*
%TO.N,Net-(D15-A)*%
X266848400Y-82880000D03*
%TO.N,Net-(D13-A)*%
X266848400Y-80340000D03*
%TO.N,Net-(U10-Pad1)*%
X266848400Y-77800000D03*
%TO.N,Net-(D12-A)*%
X266848400Y-75260000D03*
%TO.N,Net-(D11-A)*%
X266848400Y-72720000D03*
D14*
%TO.N,Net-(U10-Pad2)*%
X266848400Y-70180000D03*
%TD*%
D19*
%TO.N,Net-(U2-TR)*%
%TO.C,SW1*%
X289567100Y-135662300D03*
X283067100Y-135662300D03*
%TO.N,GND*%
X289567100Y-131162300D03*
X283067100Y-131162300D03*
%TD*%
D15*
%TO.N,Net-(D28-A)*%
%TO.C,D28*%
X192660000Y-161420000D03*
D16*
%TO.N,Net-(D28-K)*%
X190120000Y-161420000D03*
%TD*%
D11*
%TO.N,VCC*%
%TO.C,R58*%
X105412100Y-91242300D03*
%TO.N,Net-(D56-A)*%
X105412100Y-98862300D03*
%TD*%
%TO.N,VCC*%
%TO.C,R59*%
X99912100Y-91052300D03*
%TO.N,Net-(D55-A)*%
X99912100Y-98672300D03*
%TD*%
%TO.N,Net-(R2-Pad2)*%
%TO.C,R2*%
X317165000Y-111540000D03*
%TO.N,Net-(U1-DIS)*%
X309545000Y-111540000D03*
%TD*%
D15*
%TO.N,RI*%
%TO.C,D40*%
X54767100Y-122412300D03*
D16*
%TO.N,Net-(D40-K)*%
X52227100Y-122412300D03*
%TD*%
D11*
%TO.N,Net-(U3-CV)*%
%TO.C,C4*%
X293317100Y-136662300D03*
%TO.N,GND*%
X293317100Y-134162300D03*
%TD*%
%TO.N,GND*%
%TO.C,R93*%
X324210000Y-65110000D03*
%TO.N,Net-(D024-K)*%
X324210000Y-72730000D03*
%TD*%
D15*
%TO.N,/ALU/A_7*%
%TO.C,D2*%
X198967100Y-81162300D03*
D16*
%TO.N,Net-(D2-K)*%
X201507100Y-81162300D03*
%TD*%
D11*
%TO.N,GND*%
%TO.C,R86*%
X172500000Y-27300000D03*
%TO.N,Net-(D115-K)*%
X172500000Y-34920000D03*
%TD*%
D15*
%TO.N,SU*%
%TO.C,D47*%
X89817100Y-122412300D03*
D16*
%TO.N,Net-(D47-K)*%
X87277100Y-122412300D03*
%TD*%
D11*
%TO.N,Net-(U34-G)*%
%TO.C,U34*%
X67586400Y-130639100D03*
%TO.N,Net-(U34-F)*%
X70126400Y-130639100D03*
%TO.N,Net-(U33A-O3)*%
X72666400Y-130639100D03*
%TO.N,Net-(U34-A)*%
X75206400Y-130639100D03*
%TO.N,Net-(U34-B)*%
X77746400Y-130639100D03*
%TO.N,Net-(U34-DP)*%
X77746400Y-145879100D03*
%TO.N,Net-(U34-C)*%
X75206400Y-145879100D03*
%TO.N,Net-(U33A-O3)*%
X72666400Y-145879100D03*
%TO.N,Net-(U34-D)*%
X70126400Y-145879100D03*
D20*
%TO.N,Net-(U34-E)*%
X67586400Y-145879100D03*
%TD*%
D22*
%TO.N,VCC*%
%TO.C,U25*%
X187760000Y-146300000D03*
%TO.N,~{RO}*%
X190300000Y-146300000D03*
%TO.N,BUS_7*%
X192840000Y-146300000D03*
%TO.N,BUS_6*%
X195380000Y-146300000D03*
%TO.N,BUS_5*%
X197920000Y-146300000D03*
%TO.N,BUS_4*%
X200460000Y-146300000D03*
%TO.N,BUS_3*%
X203000000Y-146300000D03*
%TO.N,BUS_2*%
X205540000Y-146300000D03*
%TO.N,BUS_1*%
X208080000Y-146300000D03*
%TO.N,BUS_0*%
X210620000Y-146300000D03*
%TO.N,GND*%
X210620000Y-153920000D03*
%TO.N,Net-(D33-A)*%
X208080000Y-153920000D03*
%TO.N,Net-(D32-A)*%
X205540000Y-153920000D03*
%TO.N,Net-(D31-A)*%
X203000000Y-153920000D03*
%TO.N,Net-(D30-A)*%
X200460000Y-153920000D03*
%TO.N,Net-(D29-A)*%
X197920000Y-153920000D03*
%TO.N,Net-(D28-A)*%
X195380000Y-153920000D03*
%TO.N,Net-(D27-A)*%
X192840000Y-153920000D03*
%TO.N,Net-(D26-A)*%
X190300000Y-153920000D03*
D23*
%TO.N,VCC*%
X187760000Y-153920000D03*
%TD*%
D15*
%TO.N,/ALU/B_3*%
%TO.C,D026*%
X317000000Y-78920000D03*
D16*
%TO.N,Net-(D026-K)*%
X314460000Y-78920000D03*
%TD*%
D11*
%TO.N,GND*%
%TO.C,R98*%
X299460000Y-65050000D03*
%TO.N,Net-(D029-K)*%
X299460000Y-72670000D03*
%TD*%
%TO.N,Net-(D35-K)*%
%TO.C,R34*%
X163990000Y-84170000D03*
%TO.N,GND*%
X163990000Y-91790000D03*
%TD*%
%TO.N,GND*%
%TO.C,R102*%
X216567100Y-93282300D03*
%TO.N,Net-(D5-K)*%
X216567100Y-85662300D03*
%TD*%
D22*
%TO.N,VCC*%
%TO.C,U48*%
X205957100Y-64662300D03*
%TO.N,~{AO}*%
X208497100Y-64662300D03*
%TO.N,BUS_7*%
X211037100Y-64662300D03*
%TO.N,BUS_6*%
X213577100Y-64662300D03*
%TO.N,BUS_5*%
X216117100Y-64662300D03*
%TO.N,BUS_4*%
X218657100Y-64662300D03*
%TO.N,BUS_3*%
X221197100Y-64662300D03*
%TO.N,BUS_2*%
X223737100Y-64662300D03*
%TO.N,BUS_1*%
X226277100Y-64662300D03*
%TO.N,BUS_0*%
X228817100Y-64662300D03*
%TO.N,GND*%
X228817100Y-72282300D03*
%TO.N,/ALU/A_3*%
X226277100Y-72282300D03*
%TO.N,/ALU/A_2*%
X223737100Y-72282300D03*
%TO.N,/ALU/A_1*%
X221197100Y-72282300D03*
%TO.N,/ALU/A_0*%
X218657100Y-72282300D03*
%TO.N,/ALU/A_7*%
X216117100Y-72282300D03*
%TO.N,/ALU/A_6*%
X213577100Y-72282300D03*
%TO.N,/ALU/A_5*%
X211037100Y-72282300D03*
%TO.N,/ALU/A_4*%
X208497100Y-72282300D03*
D23*
%TO.N,VCC*%
X205957100Y-72282300D03*
%TD*%
D15*
%TO.N,/ALU/B_0*%
%TO.C,D029*%
X301980000Y-78920000D03*
D16*
%TO.N,Net-(D029-K)*%
X299440000Y-78920000D03*
%TD*%
D11*
%TO.N,GND*%
%TO.C,R28*%
X200620000Y-173920000D03*
%TO.N,Net-(D30-K)*%
X200620000Y-166300000D03*
%TD*%
D13*
%TO.N,VCC*%
%TO.C,U26*%
X213081600Y-105325000D03*
%TO.N,~{CLR}*%
X213081600Y-107865000D03*
X213081600Y-110405000D03*
%TO.N,CLR*%
X213081600Y-112945000D03*
%TO.N,Net-(R64-Pad1)*%
X213081600Y-115485000D03*
X213081600Y-118025000D03*
%TO.N,~{CLR}*%
X213081600Y-120565000D03*
%TO.N,GND*%
X205461600Y-120565000D03*
%TO.N,Net-(U26-Pad6)*%
X205461600Y-118025000D03*
%TO.N,Net-(U42-O5)*%
X205461600Y-115485000D03*
%TO.N,~{CLR}*%
X205461600Y-112945000D03*
%TO.N,Net-(U51-I1c)*%
X205461600Y-110405000D03*
%TO.N,RI*%
X205461600Y-107865000D03*
D14*
%TO.N,Net-(C14-Pad2)*%
X205461600Y-105325000D03*
%TD*%
D15*
%TO.N,CLK*%
%TO.C,D1*%
X273837100Y-134912300D03*
D16*
%TO.N,Net-(D1-K)*%
X271297100Y-134912300D03*
%TD*%
D15*
%TO.N,/ALU/A_0*%
%TO.C,D9*%
X234047100Y-81162300D03*
D16*
%TO.N,Net-(D9-K)*%
X236587100Y-81162300D03*
%TD*%
D15*
%TO.N,IR_6*%
%TO.C,D113*%
X165020000Y-39920000D03*
D16*
%TO.N,Net-(D113-K)*%
X162480000Y-39920000D03*
%TD*%
D22*
%TO.N,VCC*%
%TO.C,U17*%
X252737100Y-90792300D03*
%TO.N,~{EO}*%
X255277100Y-90792300D03*
%TO.N,BUS_7*%
X257817100Y-90792300D03*
%TO.N,BUS_6*%
X260357100Y-90792300D03*
%TO.N,BUS_5*%
X262897100Y-90792300D03*
%TO.N,BUS_4*%
X265437100Y-90792300D03*
%TO.N,BUS_3*%
X267977100Y-90792300D03*
%TO.N,BUS_2*%
X270517100Y-90792300D03*
%TO.N,BUS_1*%
X273057100Y-90792300D03*
%TO.N,BUS_0*%
X275597100Y-90792300D03*
%TO.N,GND*%
X275597100Y-98412300D03*
%TO.N,Net-(D19-A)*%
X273057100Y-98412300D03*
%TO.N,Net-(D18-A)*%
X270517100Y-98412300D03*
%TO.N,Net-(D17-A)*%
X267977100Y-98412300D03*
%TO.N,Net-(D16-A)*%
X265437100Y-98412300D03*
%TO.N,Net-(D15-A)*%
X262897100Y-98412300D03*
%TO.N,Net-(D13-A)*%
X260357100Y-98412300D03*
%TO.N,Net-(D12-A)*%
X257817100Y-98412300D03*
%TO.N,Net-(D11-A)*%
X255277100Y-98412300D03*
D23*
%TO.N,VCC*%
X252737100Y-98412300D03*
%TD*%
D12*
%TO.N,GND*%
%TO.C,C22*%
X200067100Y-74282300D03*
%TO.N,VCC*%
X202067100Y-74282300D03*
%TD*%
D13*
%TO.N,VCC*%
%TO.C,U18*%
X219800000Y-28920000D03*
%TO.N,GND*%
X222340000Y-28920000D03*
%TO.N,/MAR/PROG*%
X224880000Y-28920000D03*
X227420000Y-28920000D03*
%TO.N,/MAR/A0*%
X229960000Y-28920000D03*
%TO.N,/MAR/PROG*%
X232500000Y-28920000D03*
X235040000Y-28920000D03*
%TO.N,/MAR/A1*%
X237580000Y-28920000D03*
%TO.N,GND*%
X237580000Y-36540000D03*
%TO.N,/MAR/A2*%
X235040000Y-36540000D03*
%TO.N,/MAR/PROG*%
X232500000Y-36540000D03*
X229960000Y-36540000D03*
%TO.N,/MAR/A3*%
X227420000Y-36540000D03*
%TO.N,/MAR/PROG*%
X224880000Y-36540000D03*
X222340000Y-36540000D03*
D14*
X219800000Y-36540000D03*
%TD*%
D11*
%TO.N,Net-(D24-A)*%
%TO.C,R18*%
X243250000Y-28130000D03*
%TO.N,VCC*%
X243250000Y-35750000D03*
%TD*%
%TO.N,GND*%
%TO.C,R101*%
X211567100Y-93282300D03*
%TO.N,Net-(D4-K)*%
X211567100Y-85662300D03*
%TD*%
D12*
%TO.N,GND*%
%TO.C,C12*%
X239977100Y-105547300D03*
%TO.N,VCC*%
X237977100Y-105547300D03*
%TD*%
D15*
%TO.N,/ALU/A_4*%
%TO.C,D5*%
X214027100Y-81162300D03*
D16*
%TO.N,Net-(D5-K)*%
X216567100Y-81162300D03*
%TD*%
D11*
%TO.N,GND*%
%TO.C,R51*%
X97817100Y-109792300D03*
%TO.N,Net-(D49-K)*%
X97817100Y-117412300D03*
%TD*%
%TO.N,GND*%
%TO.C,R54*%
X112817100Y-109912300D03*
%TO.N,Net-(D52-K)*%
X112817100Y-117532300D03*
%TD*%
%TO.N,Net-(U1-CV)*%
%TO.C,C1*%
X304067100Y-121662300D03*
%TO.N,GND*%
X304067100Y-119162300D03*
%TD*%
D19*
%TO.N,VCC*%
%TO.C,SW8*%
X91750000Y-74750000D03*
X85250000Y-74750000D03*
%TO.N,Net-(R64-Pad1)*%
X91750000Y-70250000D03*
X85250000Y-70250000D03*
%TD*%
D11*
%TO.N,GND*%
%TO.C,R25*%
X185120000Y-173920000D03*
%TO.N,Net-(D27-K)*%
X185120000Y-166300000D03*
%TD*%
%TO.N,GND*%
%TO.C,SW3*%
X264500000Y-32630000D03*
X264500000Y-35170000D03*
%TO.N,/MAR/PROG*%
X264500000Y-37710000D03*
X264500000Y-40250000D03*
%TO.N,GND*%
X256880000Y-40250000D03*
X256880000Y-37710000D03*
%TO.N,/MAR/PROG*%
X256880000Y-35170000D03*
D10*
X256880000Y-32630000D03*
%TD*%
D15*
%TO.N,Net-(D39-A)*%
%TO.C,D39*%
X49777100Y-122412300D03*
D16*
%TO.N,Net-(D39-K)*%
X47237100Y-122412300D03*
%TD*%
D11*
%TO.N,GND*%
%TO.C,R46*%
X72317100Y-109792300D03*
%TO.N,Net-(D44-K)*%
X72317100Y-117412300D03*
%TD*%
%TO.N,GND*%
%TO.C,R103*%
X221567100Y-93282300D03*
%TO.N,Net-(D6-K)*%
X221567100Y-85662300D03*
%TD*%
%TO.N,GND*%
%TO.C,R30*%
X210120000Y-173730000D03*
%TO.N,Net-(D32-K)*%
X210120000Y-166110000D03*
%TD*%
%TO.N,GND*%
%TO.C,R50*%
X92317100Y-109792300D03*
%TO.N,Net-(D48-K)*%
X92317100Y-117412300D03*
%TD*%
D24*
%TO.N,Net-(D25-K)*%
%TO.C,SW4*%
X257000000Y-23500000D03*
%TO.N,GND*%
X259000000Y-23500000D03*
D25*
%TO.N,/MAR/PROG*%
X261000000Y-23500000D03*
D26*
%TO.N,*%
X254900000Y-23500000D03*
X263100000Y-23500000D03*
%TD*%
D13*
%TO.N,VCC*%
%TO.C,U28*%
X234233200Y-105325000D03*
%TO.N,Net-(D43-A)*%
X234233200Y-107865000D03*
%TO.N,~{II}*%
X234233200Y-110405000D03*
%TO.N,Net-(D44-A)*%
X234233200Y-112945000D03*
%TO.N,~{AI}*%
X234233200Y-115485000D03*
%TO.N,Net-(D45-A)*%
X234233200Y-118025000D03*
%TO.N,~{AO}*%
X234233200Y-120565000D03*
%TO.N,GND*%
X226613200Y-120565000D03*
%TO.N,~{IO}*%
X226613200Y-118025000D03*
%TO.N,Net-(D42-A)*%
X226613200Y-115485000D03*
%TO.N,Net-(D33-A)*%
X226613200Y-112945000D03*
%TO.N,Net-(U23-\u002AO0)*%
X226613200Y-110405000D03*
%TO.N,Net-(D32-A)*%
X226613200Y-107865000D03*
D14*
%TO.N,Net-(U23-\u002AO1)*%
X226613200Y-105325000D03*
%TD*%
D22*
%TO.N,VCC*%
%TO.C,U117*%
X168570000Y-45110000D03*
%TO.N,~{IO}*%
X171110000Y-45110000D03*
%TO.N,BUS_7*%
X173650000Y-45110000D03*
%TO.N,BUS_6*%
X176190000Y-45110000D03*
%TO.N,BUS_5*%
X178730000Y-45110000D03*
%TO.N,BUS_4*%
X181270000Y-45110000D03*
%TO.N,BUS_3*%
X183810000Y-45110000D03*
%TO.N,BUS_2*%
X186350000Y-45110000D03*
%TO.N,BUS_1*%
X188890000Y-45110000D03*
%TO.N,BUS_0*%
X191430000Y-45110000D03*
%TO.N,GND*%
X191430000Y-52730000D03*
%TO.N,Net-(D116-A)*%
X188890000Y-52730000D03*
%TO.N,Net-(D117-A)*%
X186350000Y-52730000D03*
%TO.N,Net-(D118-A)*%
X183810000Y-52730000D03*
%TO.N,Net-(D119-A)*%
X181270000Y-52730000D03*
%TO.N,IR_7*%
X178730000Y-52730000D03*
%TO.N,IR_6*%
X176190000Y-52730000D03*
%TO.N,IR_5*%
X173650000Y-52730000D03*
%TO.N,IR_4*%
X171110000Y-52730000D03*
D23*
%TO.N,VCC*%
X168570000Y-52730000D03*
%TD*%
D11*
%TO.N,GND*%
%TO.C,R106*%
X236817100Y-93532300D03*
%TO.N,Net-(D9-K)*%
X236817100Y-85912300D03*
%TD*%
%TO.N,GND*%
%TO.C,R92*%
X329460000Y-65110000D03*
%TO.N,Net-(D023-K)*%
X329460000Y-72730000D03*
%TD*%
D15*
%TO.N,Net-(D60-A)*%
%TO.C,D60*%
X111452100Y-86552300D03*
D16*
%TO.N,Net-(D60-K)*%
X108912100Y-86552300D03*
%TD*%
D13*
%TO.N,VCC*%
%TO.C,U15*%
X285044200Y-70180000D03*
%TO.N,SU*%
X285044200Y-72720000D03*
%TO.N,/ALU/B_6*%
X285044200Y-75260000D03*
%TO.N,Net-(U13-B3)*%
X285044200Y-77800000D03*
%TO.N,SU*%
X285044200Y-80340000D03*
%TO.N,/ALU/B_7*%
X285044200Y-82880000D03*
%TO.N,Net-(U13-B4)*%
X285044200Y-85420000D03*
%TO.N,GND*%
X277424200Y-85420000D03*
%TO.N,Net-(U13-B1)*%
X277424200Y-82880000D03*
%TO.N,SU*%
X277424200Y-80340000D03*
%TO.N,/ALU/B_4*%
X277424200Y-77800000D03*
%TO.N,Net-(U13-B2)*%
X277424200Y-75260000D03*
%TO.N,SU*%
X277424200Y-72720000D03*
D14*
%TO.N,/ALU/B_5*%
X277424200Y-70180000D03*
%TD*%
D15*
%TO.N,Net-(D16-A)*%
%TO.C,D16*%
X269507100Y-103852300D03*
D16*
%TO.N,Net-(D16-K)*%
X266967100Y-103852300D03*
%TD*%
D11*
%TO.N,GND*%
%TO.C,R99*%
X201567100Y-93282300D03*
%TO.N,Net-(D2-K)*%
X201567100Y-85662300D03*
%TD*%
D15*
%TO.N,Net-(D18-A)*%
%TO.C,D18*%
X279257100Y-103852300D03*
D16*
%TO.N,Net-(D18-K)*%
X276717100Y-103852300D03*
%TD*%
D11*
%TO.N,GND*%
%TO.C,R26*%
X190120000Y-173730000D03*
%TO.N,Net-(D28-K)*%
X190120000Y-166110000D03*
%TD*%
D13*
%TO.N,VCC*%
%TO.C,U46*%
X140412100Y-31392300D03*
%TO.N,Net-(D51-A)*%
X140412100Y-33932300D03*
%TO.N,~{CO}*%
X140412100Y-36472300D03*
%TO.N,Net-(D52-A)*%
X140412100Y-39012300D03*
%TO.N,~{J}*%
X140412100Y-41552300D03*
%TO.N,unconnected-(U46-Pad9)*%
X140412100Y-44092300D03*
%TO.N,unconnected-(U46-Pad8)*%
X140412100Y-46632300D03*
%TO.N,GND*%
X132792100Y-46632300D03*
%TO.N,~{FI}*%
X132792100Y-44092300D03*
%TO.N,Net-(D53-A)*%
X132792100Y-41552300D03*
%TO.N,~{RO}*%
X132792100Y-39012300D03*
%TO.N,Net-(D41-A)*%
X132792100Y-36472300D03*
%TO.N,~{MI}*%
X132792100Y-33932300D03*
D14*
%TO.N,Net-(D39-A)*%
X132792100Y-31392300D03*
%TD*%
D11*
%TO.N,GND*%
%TO.C,R45*%
X67317100Y-109792300D03*
%TO.N,Net-(D43-K)*%
X67317100Y-117412300D03*
%TD*%
D15*
%TO.N,BUS_2*%
%TO.C,D64*%
X58500000Y-94150000D03*
D16*
%TO.N,Net-(D64-K)*%
X58500000Y-96690000D03*
%TD*%
D15*
%TO.N,/ALU/A_6*%
%TO.C,D3*%
X204007100Y-81162300D03*
D16*
%TO.N,Net-(D3-K)*%
X206547100Y-81162300D03*
%TD*%
D11*
%TO.N,GND*%
%TO.C,R68*%
X45927700Y-91657100D03*
%TO.N,Net-(D65-K)*%
X53547700Y-91657100D03*
%TD*%
D15*
%TO.N,BUS_3*%
%TO.C,D65*%
X58500000Y-89150000D03*
D16*
%TO.N,Net-(D65-K)*%
X58500000Y-91690000D03*
%TD*%
D22*
%TO.N,VCC*%
%TO.C,U7*%
X324650000Y-91300000D03*
X322110000Y-91300000D03*
%TO.N,BUS_7*%
X319570000Y-91300000D03*
%TO.N,BUS_6*%
X317030000Y-91300000D03*
%TO.N,BUS_5*%
X314490000Y-91300000D03*
%TO.N,BUS_4*%
X311950000Y-91300000D03*
%TO.N,BUS_3*%
X309410000Y-91300000D03*
%TO.N,BUS_2*%
X306870000Y-91300000D03*
%TO.N,BUS_1*%
X304330000Y-91300000D03*
%TO.N,BUS_0*%
X301790000Y-91300000D03*
%TO.N,GND*%
X301790000Y-83680000D03*
%TO.N,/ALU/B_3*%
X304330000Y-83680000D03*
%TO.N,/ALU/B_2*%
X306870000Y-83680000D03*
%TO.N,/ALU/B_1*%
X309410000Y-83680000D03*
%TO.N,/ALU/B_0*%
X311950000Y-83680000D03*
%TO.N,/ALU/B_7*%
X314490000Y-83680000D03*
%TO.N,/ALU/B_6*%
X317030000Y-83680000D03*
%TO.N,/ALU/B_5*%
X319570000Y-83680000D03*
%TO.N,/ALU/B_4*%
X322110000Y-83680000D03*
D23*
%TO.N,VCC*%
X324650000Y-83680000D03*
%TD*%
D15*
%TO.N,Net-(D35-A)*%
%TO.C,D35*%
X166500000Y-79420000D03*
D16*
%TO.N,Net-(D35-K)*%
X163960000Y-79420000D03*
%TD*%
D13*
%TO.N,VCC*%
%TO.C,U9*%
X332580000Y-101420000D03*
%TO.N,CLR*%
X330040000Y-101420000D03*
%TO.N,BUS_3*%
X327500000Y-101420000D03*
%TO.N,BUS_2*%
X324960000Y-101420000D03*
%TO.N,BUS_1*%
X322420000Y-101420000D03*
%TO.N,BUS_0*%
X319880000Y-101420000D03*
%TO.N,~{BI}*%
X317340000Y-101420000D03*
X314800000Y-101420000D03*
%TO.N,GND*%
X314800000Y-93800000D03*
%TO.N,CLK*%
X317340000Y-93800000D03*
%TO.N,/ALU/B_0*%
X319880000Y-93800000D03*
%TO.N,/ALU/B_1*%
X322420000Y-93800000D03*
%TO.N,/ALU/B_2*%
X324960000Y-93800000D03*
%TO.N,/ALU/B_3*%
X327500000Y-93800000D03*
%TO.N,GND*%
X330040000Y-93800000D03*
D14*
X332580000Y-93800000D03*
%TD*%
D15*
%TO.N,OI*%
%TO.C,D49*%
X99817100Y-122412300D03*
D16*
%TO.N,Net-(D49-K)*%
X97277100Y-122412300D03*
%TD*%
D15*
%TO.N,Net-(D119-A)*%
%TO.C,D119*%
X195000000Y-39920000D03*
D16*
%TO.N,Net-(D119-K)*%
X192460000Y-39920000D03*
%TD*%
D11*
%TO.N,GND*%
%TO.C,R73*%
X70707900Y-88287700D03*
%TO.N,BUS_7*%
X63087900Y-88287700D03*
%TD*%
%TO.N,Net-(U31-DIS)*%
%TO.C,R38*%
X163286400Y-124379100D03*
%TO.N,Net-(U31-THR)*%
X155666400Y-124379100D03*
%TD*%
D15*
%TO.N,/ALU/B_6*%
%TO.C,D023*%
X332040000Y-78880000D03*
D16*
%TO.N,Net-(D023-K)*%
X329500000Y-78880000D03*
%TD*%
D15*
%TO.N,Net-(D34-A)*%
%TO.C,D34*%
X160490000Y-79420000D03*
D16*
%TO.N,Net-(D34-K)*%
X157950000Y-79420000D03*
%TD*%
D12*
%TO.N,GND*%
%TO.C,C16*%
X155666400Y-117379100D03*
%TO.N,Net-(U31-THR)*%
X155666400Y-119379100D03*
%TD*%
D11*
%TO.N,GND*%
%TO.C,R9*%
X247417100Y-117222300D03*
%TO.N,Net-(D11-K)*%
X247417100Y-109602300D03*
%TD*%
D15*
%TO.N,Net-(D117-A)*%
%TO.C,D117*%
X185000000Y-39920000D03*
D16*
%TO.N,Net-(D117-K)*%
X182460000Y-39920000D03*
%TD*%
D13*
%TO.N,VCC*%
%TO.C,U50*%
X238947100Y-79112300D03*
%TO.N,CLR*%
X238947100Y-76572300D03*
%TO.N,BUS_3*%
X238947100Y-74032300D03*
%TO.N,BUS_2*%
X238947100Y-71492300D03*
%TO.N,BUS_1*%
X238947100Y-68952300D03*
%TO.N,BUS_0*%
X238947100Y-66412300D03*
%TO.N,~{AI}*%
X238947100Y-63872300D03*
X238947100Y-61332300D03*
%TO.N,GND*%
X246567100Y-61332300D03*
%TO.N,CLK*%
X246567100Y-63872300D03*
%TO.N,/ALU/A_0*%
X246567100Y-66412300D03*
%TO.N,/ALU/A_1*%
X246567100Y-68952300D03*
%TO.N,/ALU/A_2*%
X246567100Y-71492300D03*
%TO.N,/ALU/A_3*%
X246567100Y-74032300D03*
%TO.N,GND*%
X246567100Y-76572300D03*
D14*
X246567100Y-79112300D03*
%TD*%
D15*
%TO.N,Net-(D24-A)*%
%TO.C,D24*%
X243770000Y-23500000D03*
D16*
%TO.N,/MAR/PROG*%
X241230000Y-23500000D03*
%TD*%
D11*
%TO.N,GND*%
%TO.C,R29*%
X205120000Y-173920000D03*
%TO.N,Net-(D31-K)*%
X205120000Y-166300000D03*
%TD*%
%TO.N,GND*%
%TO.C,R61*%
X102912100Y-73932300D03*
%TO.N,Net-(D59-K)*%
X102912100Y-81552300D03*
%TD*%
%TO.N,GND*%
%TO.C,R95*%
X314460000Y-65050000D03*
%TO.N,Net-(D026-K)*%
X314460000Y-72670000D03*
%TD*%
D12*
%TO.N,GND*%
%TO.C,C19*%
X145666400Y-126379100D03*
%TO.N,VCC*%
X147666400Y-126379100D03*
%TD*%
D11*
%TO.N,GND*%
%TO.C,R7*%
X271317100Y-147222300D03*
%TO.N,Net-(D1-K)*%
X271317100Y-139602300D03*
%TD*%
D15*
%TO.N,BUS_5*%
%TO.C,D67*%
X58500000Y-79150000D03*
D16*
%TO.N,Net-(D67-K)*%
X58500000Y-81690000D03*
%TD*%
D15*
%TO.N,Net-(D26-A)*%
%TO.C,D26*%
X182620000Y-161420000D03*
D16*
%TO.N,Net-(D26-K)*%
X180080000Y-161420000D03*
%TD*%
D12*
%TO.N,GND*%
%TO.C,C21*%
X82612100Y-63342300D03*
%TO.N,VCC*%
X80612100Y-63342300D03*
%TD*%
D11*
%TO.N,GND*%
%TO.C,R27*%
X195120000Y-173730000D03*
%TO.N,Net-(D29-K)*%
X195120000Y-166110000D03*
%TD*%
%TO.N,GND*%
%TO.C,R100*%
X206567100Y-93282300D03*
%TO.N,Net-(D3-K)*%
X206567100Y-85662300D03*
%TD*%
D15*
%TO.N,Net-(D58-A)*%
%TO.C,D58*%
X117452100Y-103552300D03*
D16*
%TO.N,Net-(D58-K)*%
X114912100Y-103552300D03*
%TD*%
D11*
%TO.N,GND*%
%TO.C,R43*%
X57317100Y-109792300D03*
%TO.N,Net-(D41-K)*%
X57317100Y-117412300D03*
%TD*%
D15*
%TO.N,BUS_4*%
%TO.C,D66*%
X58500000Y-84110000D03*
D16*
%TO.N,Net-(D66-K)*%
X58500000Y-86650000D03*
%TD*%
D15*
%TO.N,/MAR/A0*%
%TO.C,D23*%
X242967100Y-42332300D03*
D16*
%TO.N,Net-(D23-K)*%
X240427100Y-42332300D03*
%TD*%
D12*
%TO.N,GND*%
%TO.C,C20*%
X82612100Y-56792300D03*
%TO.N,VCC*%
X80612100Y-56792300D03*
%TD*%
D11*
%TO.N,GND*%
%TO.C,R41*%
X47317100Y-109792300D03*
%TO.N,Net-(D39-K)*%
X47317100Y-117412300D03*
%TD*%
%TO.N,GND*%
%TO.C,R48*%
X82317100Y-109792300D03*
%TO.N,Net-(D46-K)*%
X82317100Y-117412300D03*
%TD*%
%TO.N,Net-(U2-CV)*%
%TO.C,C2*%
X278067100Y-154412300D03*
%TO.N,GND*%
X275567100Y-154412300D03*
%TD*%
%TO.N,Net-(U34-G)*%
%TO.C,U36*%
X95686400Y-130639100D03*
%TO.N,Net-(U34-F)*%
X98226400Y-130639100D03*
%TO.N,Net-(U33A-O2)*%
X100766400Y-130639100D03*
%TO.N,Net-(U34-A)*%
X103306400Y-130639100D03*
%TO.N,Net-(U34-B)*%
X105846400Y-130639100D03*
%TO.N,Net-(U34-DP)*%
X105846400Y-145879100D03*
%TO.N,Net-(U34-C)*%
X103306400Y-145879100D03*
%TO.N,Net-(U33A-O2)*%
X100766400Y-145879100D03*
%TO.N,Net-(U34-D)*%
X98226400Y-145879100D03*
D20*
%TO.N,Net-(U34-E)*%
X95686400Y-145879100D03*
%TD*%
D15*
%TO.N,Net-(D37-A)*%
%TO.C,D37*%
X178520000Y-79420000D03*
D16*
%TO.N,Net-(D37-K)*%
X175980000Y-79420000D03*
%TD*%
D11*
%TO.N,VCC*%
%TO.C,U12*%
X273780000Y-45670000D03*
%TO.N,CLR*%
X273780000Y-48210000D03*
%TO.N,Net-(U12-D0)*%
X273780000Y-50750000D03*
%TO.N,Net-(U12-D1)*%
X273780000Y-53290000D03*
%TO.N,unconnected-(U12-D2-Pad12)*%
X273780000Y-55830000D03*
%TO.N,unconnected-(U12-D3-Pad11)*%
X273780000Y-58370000D03*
%TO.N,~{FI}*%
X273780000Y-60910000D03*
X273780000Y-63450000D03*
%TO.N,GND*%
X266160000Y-63450000D03*
%TO.N,CLK*%
X266160000Y-60910000D03*
%TO.N,unconnected-(U12-Q3-Pad6)*%
X266160000Y-58370000D03*
%TO.N,unconnected-(U12-Q2-Pad5)*%
X266160000Y-55830000D03*
%TO.N,ZF*%
X266160000Y-53290000D03*
%TO.N,CF*%
X266160000Y-50750000D03*
%TO.N,GND*%
X266160000Y-48210000D03*
D10*
X266160000Y-45670000D03*
%TD*%
D27*
%TO.N,GND*%
%TO.C,J1*%
X20520000Y-114990000D03*
X24320000Y-114990000D03*
X20520000Y-106350000D03*
X24320000Y-106350000D03*
%TD*%
D13*
%TO.N,VCC*%
%TO.C,U39*%
X163296800Y-96506800D03*
%TO.N,N/C*%
X163296800Y-99046800D03*
X163296800Y-101586800D03*
X163296800Y-104126800D03*
X163296800Y-106666800D03*
X163296800Y-109206800D03*
X163296800Y-111746800D03*
%TO.N,GND*%
X155676800Y-111746800D03*
%TO.N,N/C*%
X155676800Y-109206800D03*
X155676800Y-106666800D03*
X155676800Y-104126800D03*
%TO.N,Net-(U38-Cp)*%
X155676800Y-101586800D03*
%TO.N,CLK*%
X155676800Y-99046800D03*
D14*
%TO.N,OI*%
X155676800Y-96506800D03*
%TD*%
D11*
%TO.N,GND*%
%TO.C,R66*%
X46047700Y-102157100D03*
%TO.N,Net-(D63-K)*%
X53667700Y-102157100D03*
%TD*%
D15*
%TO.N,Net-(D32-A)*%
%TO.C,D32*%
X212660000Y-161420000D03*
D16*
%TO.N,Net-(D32-K)*%
X210120000Y-161420000D03*
%TD*%
D11*
%TO.N,GND*%
%TO.C,R12*%
X257167100Y-117162300D03*
%TO.N,Net-(D13-K)*%
X257167100Y-109542300D03*
%TD*%
D13*
%TO.N,VCC*%
%TO.C,U42*%
X81740000Y-89100000D03*
%TO.N,Net-(D58-K)*%
X81740000Y-91640000D03*
%TO.N,Net-(D57-K)*%
X81740000Y-94180000D03*
%TO.N,Net-(D56-K)*%
X81740000Y-96720000D03*
%TO.N,Net-(D55-K)*%
X81740000Y-99260000D03*
%TO.N,Net-(D54-K)*%
X81740000Y-101800000D03*
%TO.N,Net-(U42-O5)*%
X81740000Y-104340000D03*
%TO.N,unconnected-(U42-O6-Pad9)*%
X81740000Y-106880000D03*
%TO.N,GND*%
X74120000Y-106880000D03*
%TO.N,unconnected-(U42-O7-Pad7)*%
X74120000Y-104340000D03*
%TO.N,VCC*%
X74120000Y-101800000D03*
%TO.N,GND*%
X74120000Y-99260000D03*
X74120000Y-96720000D03*
%TO.N,Net-(D61-A)*%
X74120000Y-94180000D03*
%TO.N,Net-(D60-A)*%
X74120000Y-91640000D03*
D14*
%TO.N,Net-(D59-A)*%
X74120000Y-89100000D03*
%TD*%
D11*
%TO.N,GND*%
%TO.C,R23*%
X240647100Y-54892300D03*
%TO.N,Net-(D23-K)*%
X240647100Y-47272300D03*
%TD*%
D22*
%TO.N,N/C*%
%TO.C,U118*%
X184000000Y-63040000D03*
X181460000Y-63040000D03*
X178920000Y-63040000D03*
X176380000Y-63040000D03*
%TO.N,VCC*%
X173840000Y-63040000D03*
%TO.N,CLR*%
X171300000Y-63040000D03*
%TO.N,BUS_7*%
X168760000Y-63040000D03*
%TO.N,BUS_6*%
X166220000Y-63040000D03*
%TO.N,BUS_5*%
X163680000Y-63040000D03*
%TO.N,BUS_4*%
X161140000Y-63040000D03*
%TO.N,~{II}*%
X161140000Y-55420000D03*
X163680000Y-55420000D03*
%TO.N,GND*%
X166220000Y-55420000D03*
%TO.N,CLK*%
X168760000Y-55420000D03*
%TO.N,IR_4*%
X171300000Y-55420000D03*
%TO.N,IR_5*%
X173840000Y-55420000D03*
%TO.N,IR_6*%
X176380000Y-55420000D03*
%TO.N,IR_7*%
X178920000Y-55420000D03*
%TO.N,GND*%
X181460000Y-55420000D03*
D23*
X184000000Y-55420000D03*
%TD*%
D15*
%TO.N,BUS_0*%
%TO.C,D62*%
X58500000Y-104150000D03*
D16*
%TO.N,Net-(D62-K)*%
X58500000Y-106690000D03*
%TD*%
D15*
%TO.N,Net-(D15-A)*%
%TO.C,D15*%
X264627100Y-103852300D03*
D16*
%TO.N,Net-(D15-K)*%
X262087100Y-103852300D03*
%TD*%
D11*
%TO.N,GND*%
%TO.C,R8*%
X256750000Y-46360000D03*
%TO.N,Net-(D14-K)*%
X256750000Y-53980000D03*
%TD*%
D15*
%TO.N,BUS_1*%
%TO.C,D63*%
X58500000Y-99150000D03*
D16*
%TO.N,Net-(D63-K)*%
X58500000Y-101690000D03*
%TD*%
D13*
%TO.N,VCC*%
%TO.C,U27*%
X223657400Y-105325000D03*
%TO.N,Net-(U23-\u002AO2)*%
X223657400Y-107865000D03*
%TO.N,Net-(D31-A)*%
X223657400Y-110405000D03*
%TO.N,Net-(U23-\u002AO3)*%
X223657400Y-112945000D03*
%TO.N,Net-(D30-A)*%
X223657400Y-115485000D03*
%TO.N,Net-(U21-\u002AO3)*%
X223657400Y-118025000D03*
%TO.N,Net-(D29-A)*%
X223657400Y-120565000D03*
%TO.N,GND*%
X216037400Y-120565000D03*
%TO.N,Net-(D28-A)*%
X216037400Y-118025000D03*
%TO.N,Net-(U21-\u002AO2)*%
X216037400Y-115485000D03*
%TO.N,Net-(D27-A)*%
X216037400Y-112945000D03*
%TO.N,Net-(U21-\u002AO1)*%
X216037400Y-110405000D03*
%TO.N,Net-(D26-A)*%
X216037400Y-107865000D03*
D14*
%TO.N,Net-(U21-\u002AO0)*%
X216037400Y-105325000D03*
%TD*%
D11*
%TO.N,VCC*%
%TO.C,U14*%
X295340000Y-45670000D03*
%TO.N,Net-(U14-B3)*%
X295340000Y-48210000D03*
%TO.N,/ALU/A_2*%
X295340000Y-50750000D03*
%TO.N,Net-(D17-A)*%
X295340000Y-53290000D03*
%TO.N,/ALU/A_3*%
X295340000Y-55830000D03*
%TO.N,Net-(U14-B4)*%
X295340000Y-58370000D03*
%TO.N,Net-(D16-A)*%
X295340000Y-60910000D03*
%TO.N,Net-(U13-C0)*%
X295340000Y-63450000D03*
%TO.N,GND*%
X287720000Y-63450000D03*
%TO.N,SU*%
X287720000Y-60910000D03*
%TO.N,Net-(U14-B1)*%
X287720000Y-58370000D03*
%TO.N,/ALU/A_0*%
X287720000Y-55830000D03*
%TO.N,Net-(D19-A)*%
X287720000Y-53290000D03*
%TO.N,/ALU/A_1*%
X287720000Y-50750000D03*
%TO.N,Net-(U14-B2)*%
X287720000Y-48210000D03*
D10*
%TO.N,Net-(D18-A)*%
X287720000Y-45670000D03*
%TD*%
D11*
%TO.N,GND*%
%TO.C,R84*%
X162500000Y-27300000D03*
%TO.N,Net-(D113-K)*%
X162500000Y-34920000D03*
%TD*%
%TO.N,GND*%
%TO.C,R53*%
X107817100Y-109912300D03*
%TO.N,Net-(D51-K)*%
X107817100Y-117532300D03*
%TD*%
D15*
%TO.N,/ALU/A_2*%
%TO.C,D7*%
X224047100Y-81162300D03*
D16*
%TO.N,Net-(D7-K)*%
X226587100Y-81162300D03*
%TD*%
D15*
%TO.N,Net-(D55-A)*%
%TO.C,D55*%
X99422100Y-103552300D03*
D16*
%TO.N,Net-(D55-K)*%
X96882100Y-103552300D03*
%TD*%
D15*
%TO.N,Net-(D19-A)*%
%TO.C,D19*%
X284417100Y-103852300D03*
D16*
%TO.N,Net-(D19-K)*%
X281877100Y-103852300D03*
%TD*%
D11*
%TO.N,GND*%
%TO.C,R105*%
X231567100Y-93282300D03*
%TO.N,Net-(D8-K)*%
X231567100Y-85662300D03*
%TD*%
D15*
%TO.N,unconnected-(RV1-Pad3)*%
%TO.C,RV1*%
X320775000Y-114000000D03*
%TO.N,Net-(R2-Pad2)*%
X320775000Y-111500000D03*
D16*
%TO.N,Net-(U1-THR)*%
X320775000Y-109000000D03*
D28*
%TO.N,*%
X328275000Y-116300000D03*
X328275000Y-106700000D03*
%TD*%
D13*
%TO.N,VCC*%
%TO.C,U47*%
X140532100Y-51812300D03*
%TO.N,unconnected-(U47-Pad13)*%
X140532100Y-54352300D03*
%TO.N,unconnected-(U47-Pad12)*%
X140532100Y-56892300D03*
%TO.N,unconnected-(U47-Pad11)*%
X140532100Y-59432300D03*
%TO.N,unconnected-(U47-Pad10)*%
X140532100Y-61972300D03*
%TO.N,unconnected-(U47-Pad9)*%
X140532100Y-64512300D03*
%TO.N,unconnected-(U47-Pad8)*%
X140532100Y-67052300D03*
%TO.N,GND*%
X132912100Y-67052300D03*
%TO.N,unconnected-(U47-Pad6)*%
X132912100Y-64512300D03*
%TO.N,unconnected-(U47-Pad5)*%
X132912100Y-61972300D03*
%TO.N,~{BI}*%
X132912100Y-59432300D03*
%TO.N,Net-(D48-A)*%
X132912100Y-56892300D03*
%TO.N,~{EO}*%
X132912100Y-54352300D03*
D14*
%TO.N,Net-(D46-A)*%
X132912100Y-51812300D03*
%TD*%
D11*
%TO.N,GND*%
%TO.C,R104*%
X226567100Y-93282300D03*
%TO.N,Net-(D7-K)*%
X226567100Y-85662300D03*
%TD*%
%TO.N,GND*%
%TO.C,R64*%
X85912100Y-58932300D03*
%TO.N,Net-(R64-Pad1)*%
X85912100Y-66552300D03*
%TD*%
%TO.N,GND*%
%TO.C,R40*%
X42317100Y-109792300D03*
%TO.N,Net-(D38-K)*%
X42317100Y-117412300D03*
%TD*%
%TO.N,GND*%
%TO.C,R85*%
X167500000Y-27300000D03*
%TO.N,Net-(D114-K)*%
X167500000Y-34920000D03*
%TD*%
D12*
%TO.N,GND*%
%TO.C,C15*%
X155490000Y-60920000D03*
%TO.N,VCC*%
X153490000Y-60920000D03*
%TD*%
D15*
%TO.N,Net-(D12-A)*%
%TO.C,D12*%
X254907100Y-103852300D03*
D16*
%TO.N,Net-(D12-K)*%
X252367100Y-103852300D03*
%TD*%
D11*
%TO.N,VCC*%
%TO.C,U16*%
X289380000Y-105185000D03*
%TO.N,SU*%
X291920000Y-105185000D03*
%TO.N,/ALU/B_2*%
X294460000Y-105185000D03*
%TO.N,Net-(U14-B2)*%
X297000000Y-105185000D03*
%TO.N,SU*%
X299540000Y-105185000D03*
%TO.N,/ALU/B_3*%
X302080000Y-105185000D03*
%TO.N,Net-(U14-B4)*%
X304620000Y-105185000D03*
%TO.N,GND*%
X304620000Y-112805000D03*
%TO.N,Net-(U14-B1)*%
X302080000Y-112805000D03*
%TO.N,SU*%
X299540000Y-112805000D03*
%TO.N,/ALU/B_0*%
X297000000Y-112805000D03*
%TO.N,Net-(U14-B3)*%
X294460000Y-112805000D03*
%TO.N,SU*%
X291920000Y-112805000D03*
D29*
%TO.N,/ALU/B_1*%
X289380000Y-112805000D03*
%TD*%
D17*
%TO.N,VCC*%
%TO.C,U44*%
X124000050Y-32060000D03*
X124000050Y-34600000D03*
%TO.N,N/C*%
X124000050Y-37140000D03*
%TO.N,CF*%
X124000050Y-39680000D03*
%TO.N,ZF*%
X124000050Y-42220000D03*
%TO.N,GND*%
X124000050Y-44760000D03*
X124000050Y-47300000D03*
X124000050Y-49840000D03*
X124000050Y-52380000D03*
%TO.N,Net-(D46-A)*%
X124000050Y-54920000D03*
%TO.N,SU*%
X124000050Y-57460000D03*
%TO.N,Net-(D48-A)*%
X124000050Y-60000000D03*
%TO.N,OI*%
X124000050Y-62540000D03*
%TO.N,CE*%
X124000050Y-65080000D03*
%TO.N,GND*%
X108442550Y-65080000D03*
%TO.N,Net-(D51-A)*%
X108442550Y-62540000D03*
%TO.N,Net-(D52-A)*%
X108442550Y-60000000D03*
%TO.N,Net-(D53-A)*%
X108442550Y-57460000D03*
%TO.N,Net-(D59-A)*%
X108442550Y-54920000D03*
%TO.N,Net-(D60-A)*%
X108442550Y-52380000D03*
%TO.N,Net-(D61-A)*%
X108442550Y-49840000D03*
%TO.N,IR_4*%
X108442550Y-47300000D03*
%TO.N,IR_5*%
X108442550Y-44760000D03*
%TO.N,IR_6*%
X108442550Y-42220000D03*
%TO.N,IR_7*%
X108442550Y-39680000D03*
%TO.N,VCC*%
X108442550Y-37140000D03*
%TO.N,GND*%
X108442550Y-34600000D03*
D18*
%TO.N,N/C*%
X108442550Y-32060000D03*
%TD*%
D15*
%TO.N,Net-(D45-A)*%
%TO.C,D45*%
X79817100Y-122412300D03*
D16*
%TO.N,Net-(D45-K)*%
X77277100Y-122412300D03*
%TD*%
D15*
%TO.N,Net-(D118-A)*%
%TO.C,D118*%
X190000000Y-39920000D03*
D16*
%TO.N,Net-(D118-K)*%
X187460000Y-39920000D03*
%TD*%
D15*
%TO.N,Net-(D36-A)*%
%TO.C,D36*%
X172510000Y-79420000D03*
D16*
%TO.N,Net-(D36-K)*%
X169970000Y-79420000D03*
%TD*%
D13*
%TO.N,VCC*%
%TO.C,U119*%
X205197100Y-53912300D03*
%TO.N,CLR*%
X205197100Y-51372300D03*
%TO.N,BUS_3*%
X205197100Y-48832300D03*
%TO.N,BUS_2*%
X205197100Y-46292300D03*
%TO.N,BUS_1*%
X205197100Y-43752300D03*
%TO.N,BUS_0*%
X205197100Y-41212300D03*
%TO.N,~{II}*%
X205197100Y-38672300D03*
X205197100Y-36132300D03*
%TO.N,GND*%
X212817100Y-36132300D03*
%TO.N,CLK*%
X212817100Y-38672300D03*
%TO.N,Net-(D119-A)*%
X212817100Y-41212300D03*
%TO.N,Net-(D118-A)*%
X212817100Y-43752300D03*
%TO.N,Net-(D117-A)*%
X212817100Y-46292300D03*
%TO.N,Net-(D116-A)*%
X212817100Y-48832300D03*
%TO.N,GND*%
X212817100Y-51372300D03*
D14*
X212817100Y-53912300D03*
%TD*%
D11*
%TO.N,GND*%
%TO.C,R96*%
X309460000Y-65110000D03*
%TO.N,Net-(D027-K)*%
X309460000Y-72730000D03*
%TD*%
%TO.N,GND*%
%TO.C,R67*%
X46047700Y-96657100D03*
%TO.N,Net-(D64-K)*%
X53667700Y-96657100D03*
%TD*%
%TO.N,GND*%
%TO.C,R75*%
X70945000Y-96690000D03*
%TO.N,BUS_5*%
X63325000Y-96690000D03*
%TD*%
D15*
%TO.N,/ALU/A_3*%
%TO.C,D6*%
X219047100Y-81162300D03*
D16*
%TO.N,Net-(D6-K)*%
X221587100Y-81162300D03*
%TD*%
D11*
%TO.N,Net-(D10-K)*%
%TO.C,R10*%
X256750000Y-58550000D03*
%TO.N,GND*%
X256750000Y-66170000D03*
%TD*%
%TO.N,GND*%
%TO.C,R22*%
X234397100Y-54892300D03*
%TO.N,Net-(D22-K)*%
X234397100Y-47272300D03*
%TD*%
%TO.N,GND*%
%TO.C,R82*%
X37994400Y-109375000D03*
%TO.N,Net-(J1-CC1)*%
X30374400Y-109375000D03*
%TD*%
%TO.N,VCC*%
%TO.C,C5*%
X298567100Y-135962300D03*
%TO.N,GND*%
X301067100Y-135962300D03*
%TD*%
D15*
%TO.N,Net-(D52-A)*%
%TO.C,D52*%
X115317100Y-122412300D03*
D16*
%TO.N,Net-(D52-K)*%
X112777100Y-122412300D03*
%TD*%
D15*
%TO.N,Net-(D43-A)*%
%TO.C,D43*%
X69767100Y-122412300D03*
D16*
%TO.N,Net-(D43-K)*%
X67227100Y-122412300D03*
%TD*%
D13*
%TO.N,VCC*%
%TO.C,U45*%
X81620000Y-70180000D03*
%TO.N,N/C*%
X81620000Y-72720000D03*
X81620000Y-75260000D03*
X81620000Y-77800000D03*
X81620000Y-80340000D03*
X81620000Y-82880000D03*
X81620000Y-85420000D03*
%TO.N,GND*%
X74000000Y-85420000D03*
%TO.N,N/C*%
X74000000Y-82880000D03*
X74000000Y-80340000D03*
X74000000Y-77800000D03*
%TO.N,Net-(U41-~{MR})*%
X74000000Y-75260000D03*
%TO.N,Net-(U26-Pad6)*%
X74000000Y-72720000D03*
D14*
X74000000Y-70180000D03*
%TD*%
D12*
%TO.N,Net-(C14-Pad2)*%
%TO.C,C14*%
X265000000Y-130580000D03*
%TO.N,CLK*%
X265000000Y-128580000D03*
%TD*%
D11*
%TO.N,GND*%
%TO.C,R49*%
X87317100Y-109792300D03*
%TO.N,Net-(D47-K)*%
X87317100Y-117412300D03*
%TD*%
D15*
%TO.N,Net-(D33-A)*%
%TO.C,D33*%
X217660000Y-161420000D03*
D16*
%TO.N,Net-(D33-K)*%
X215120000Y-161420000D03*
%TD*%
D11*
%TO.N,VCC*%
%TO.C,C6*%
X298567100Y-131912300D03*
%TO.N,GND*%
X301067100Y-131912300D03*
%TD*%
D17*
%TO.N,VCC*%
%TO.C,U40*%
X141723950Y-95979100D03*
X141723950Y-98519100D03*
%TO.N,N/C*%
X141723950Y-101059100D03*
%TO.N,Net-(U32A-~{Q})*%
X141723950Y-103599100D03*
%TO.N,Net-(U32B-~{Q})*%
X141723950Y-106139100D03*
%TO.N,GND*%
X141723950Y-108679100D03*
X141723950Y-111219100D03*
%TO.N,Net-(SW7-B)*%
X141723950Y-113759100D03*
%TO.N,GND*%
X141723950Y-116299100D03*
%TO.N,Net-(U34-DP)*%
X141723950Y-118839100D03*
%TO.N,Net-(U34-A)*%
X141723950Y-121379100D03*
%TO.N,Net-(U34-B)*%
X141723950Y-123919100D03*
%TO.N,Net-(U34-C)*%
X141723950Y-126459100D03*
%TO.N,Net-(U34-D)*%
X141723950Y-128999100D03*
%TO.N,GND*%
X126166450Y-128999100D03*
%TO.N,Net-(U34-E)*%
X126166450Y-126459100D03*
%TO.N,Net-(U34-F)*%
X126166450Y-123919100D03*
%TO.N,Net-(U34-G)*%
X126166450Y-121379100D03*
%TO.N,Net-(U38-Q0)*%
X126166450Y-118839100D03*
%TO.N,Net-(U38-Q1)*%
X126166450Y-116299100D03*
%TO.N,Net-(U38-Q2)*%
X126166450Y-113759100D03*
%TO.N,Net-(U38-Q3)*%
X126166450Y-111219100D03*
%TO.N,Net-(U38-Q4)*%
X126166450Y-108679100D03*
%TO.N,Net-(U38-Q5)*%
X126166450Y-106139100D03*
%TO.N,Net-(U38-Q6)*%
X126166450Y-103599100D03*
%TO.N,Net-(U38-Q7)*%
X126166450Y-101059100D03*
%TO.N,GND*%
X126166450Y-98519100D03*
D18*
%TO.N,N/C*%
X126166450Y-95979100D03*
%TD*%
D11*
%TO.N,VCC*%
%TO.C,U51*%
X249317100Y-124172300D03*
%TO.N,GND*%
X249317100Y-126712300D03*
%TO.N,Net-(U51-I0c)*%
X249317100Y-129252300D03*
%TO.N,Net-(U51-I1c)*%
X249317100Y-131792300D03*
%TO.N,Net-(U51-Zc)*%
X249317100Y-134332300D03*
%TO.N,unconnected-(U51-I0d-Pad11)*%
X249317100Y-136872300D03*
%TO.N,unconnected-(U51-I1d-Pad10)*%
X249317100Y-139412300D03*
%TO.N,unconnected-(U51-Zd-Pad9)*%
X249317100Y-141952300D03*
%TO.N,GND*%
X241697100Y-141952300D03*
%TO.N,unconnected-(U51-Zb-Pad7)*%
X241697100Y-139412300D03*
%TO.N,unconnected-(U51-I1b-Pad6)*%
X241697100Y-136872300D03*
%TO.N,unconnected-(U51-I0b-Pad5)*%
X241697100Y-134332300D03*
%TO.N,unconnected-(U51-Za-Pad4)*%
X241697100Y-131792300D03*
%TO.N,unconnected-(U51-I1a-Pad3)*%
X241697100Y-129252300D03*
%TO.N,unconnected-(U51-I0a-Pad2)*%
X241697100Y-126712300D03*
D10*
%TO.N,/MAR/PROG*%
X241697100Y-124172300D03*
%TD*%
D11*
%TO.N,VCC*%
%TO.C,U4*%
X289437100Y-128227300D03*
%TO.N,unconnected-(U4-Pad13)*%
X286897100Y-128227300D03*
%TO.N,unconnected-(U4-Pad12)*%
X284357100Y-128227300D03*
%TO.N,unconnected-(U4-Pad11)*%
X281817100Y-128227300D03*
%TO.N,Net-(U4-Pad10)*%
X279277100Y-128227300D03*
%TO.N,Net-(U4-Pad9)*%
X276737100Y-128227300D03*
%TO.N,CLK*%
X274197100Y-128227300D03*
%TO.N,GND*%
X274197100Y-120607300D03*
%TO.N,Net-(U4-Pad6)*%
X276737100Y-120607300D03*
%TO.N,Net-(U2-Q)*%
X279277100Y-120607300D03*
%TO.N,Net-(U4-Pad4)*%
X281817100Y-120607300D03*
%TO.N,Net-(U4-Pad3)*%
X284357100Y-120607300D03*
%TO.N,Net-(U3-Q)*%
X286897100Y-120607300D03*
D30*
%TO.N,Net-(U1-Q)*%
X289437100Y-120607300D03*
%TD*%
D22*
%TO.N,VCC*%
%TO.C,U38*%
X159317100Y-134632300D03*
%TO.N,Net-(U38-Q7)*%
X159317100Y-137172300D03*
%TO.N,BUS_7*%
X159317100Y-139712300D03*
%TO.N,BUS_6*%
X159317100Y-142252300D03*
%TO.N,Net-(U38-Q6)*%
X159317100Y-144792300D03*
%TO.N,Net-(U38-Q5)*%
X159317100Y-147332300D03*
%TO.N,BUS_5*%
X159317100Y-149872300D03*
%TO.N,BUS_4*%
X159317100Y-152412300D03*
%TO.N,Net-(U38-Q4)*%
X159317100Y-154952300D03*
%TO.N,Net-(U38-Cp)*%
X159317100Y-157492300D03*
%TO.N,GND*%
X151697100Y-157492300D03*
%TO.N,Net-(U38-Q3)*%
X151697100Y-154952300D03*
%TO.N,BUS_3*%
X151697100Y-152412300D03*
%TO.N,BUS_2*%
X151697100Y-149872300D03*
%TO.N,Net-(U38-Q2)*%
X151697100Y-147332300D03*
%TO.N,Net-(U38-Q1)*%
X151697100Y-144792300D03*
%TO.N,BUS_1*%
X151697100Y-142252300D03*
%TO.N,BUS_0*%
X151697100Y-139712300D03*
%TO.N,Net-(U38-Q0)*%
X151697100Y-137172300D03*
D23*
%TO.N,~{CLR}*%
X151697100Y-134632300D03*
%TD*%
D13*
%TO.N,VCC*%
%TO.C,U49*%
X189007100Y-79672300D03*
%TO.N,CLR*%
X189007100Y-77132300D03*
%TO.N,BUS_7*%
X189007100Y-74592300D03*
%TO.N,BUS_6*%
X189007100Y-72052300D03*
%TO.N,BUS_5*%
X189007100Y-69512300D03*
%TO.N,BUS_4*%
X189007100Y-66972300D03*
%TO.N,~{AI}*%
X189007100Y-64432300D03*
X189007100Y-61892300D03*
%TO.N,GND*%
X196627100Y-61892300D03*
%TO.N,CLK*%
X196627100Y-64432300D03*
%TO.N,/ALU/A_4*%
X196627100Y-66972300D03*
%TO.N,/ALU/A_5*%
X196627100Y-69512300D03*
%TO.N,/ALU/A_6*%
X196627100Y-72052300D03*
%TO.N,/ALU/A_7*%
X196627100Y-74592300D03*
%TO.N,GND*%
X196627100Y-77132300D03*
D14*
X196627100Y-79672300D03*
%TD*%
D11*
%TO.N,GND*%
%TO.C,R42*%
X52317100Y-109792300D03*
%TO.N,Net-(D40-K)*%
X52317100Y-117412300D03*
%TD*%
D12*
%TO.N,GND*%
%TO.C,C9*%
X257993900Y-76199100D03*
%TO.N,VCC*%
X255993900Y-76199100D03*
%TD*%
D11*
%TO.N,GND*%
%TO.C,R21*%
X228647100Y-54952300D03*
%TO.N,Net-(D21-K)*%
X228647100Y-47332300D03*
%TD*%
D15*
%TO.N,Net-(D51-A)*%
%TO.C,D51*%
X110147100Y-122412300D03*
D16*
%TO.N,Net-(D51-K)*%
X107607100Y-122412300D03*
%TD*%
D11*
%TO.N,GND*%
%TO.C,R63*%
X114912100Y-73932300D03*
%TO.N,Net-(D61-K)*%
X114912100Y-81552300D03*
%TD*%
%TO.N,GND*%
%TO.C,R76*%
X71017900Y-100787700D03*
%TO.N,BUS_4*%
X63397900Y-100787700D03*
%TD*%
%TO.N,GND*%
%TO.C,R11*%
X252167100Y-117162300D03*
%TO.N,Net-(D12-K)*%
X252167100Y-109542300D03*
%TD*%
D15*
%TO.N,/ALU/B_5*%
%TO.C,D024*%
X326960000Y-78920000D03*
D16*
%TO.N,Net-(D024-K)*%
X324420000Y-78920000D03*
%TD*%
D11*
%TO.N,VCC*%
%TO.C,R56*%
X117412100Y-90932300D03*
%TO.N,Net-(D58-A)*%
X117412100Y-98552300D03*
%TD*%
D15*
%TO.N,/ALU/A_5*%
%TO.C,D4*%
X209027100Y-81162300D03*
D16*
%TO.N,Net-(D4-K)*%
X211567100Y-81162300D03*
%TD*%
D31*
%TO.N,Net-(SW2-C)*%
%TO.C,SW2*%
X302797500Y-149000000D03*
%TO.N,GND*%
X302797500Y-151000000D03*
D32*
%TO.N,Net-(SW2-A)*%
X302797500Y-153000000D03*
D33*
%TO.N,*%
X302797500Y-146900000D03*
X302797500Y-155100000D03*
%TD*%
D11*
%TO.N,GND*%
%TO.C,R79*%
X43620000Y-99500000D03*
%TO.N,BUS_1*%
X36000000Y-99500000D03*
%TD*%
%TO.N,GND*%
%TO.C,R80*%
X43500000Y-104000000D03*
%TO.N,BUS_0*%
X35880000Y-104000000D03*
%TD*%
%TO.N,GND*%
%TO.C,R77*%
X43620000Y-89000000D03*
%TO.N,BUS_3*%
X36000000Y-89000000D03*
%TD*%
%TO.N,GND*%
%TO.C,R78*%
X43620000Y-94157100D03*
%TO.N,BUS_2*%
X36000000Y-94157100D03*
%TD*%
D34*
%TO.N,Net-(U23-\u002AO1)*%
X191918500Y-105667900D03*
%TO.N,Net-(U23-\u002AO2)*%
X193409100Y-108763200D03*
%TO.N,Net-(U21-\u002AWE)*%
X224048000Y-106595000D03*
%TO.N,Net-(U23-D3)*%
X229309200Y-112435600D03*
%TO.N,Net-(U23-D1)*%
X190407300Y-123998300D03*
%TO.N,Net-(U38-Q4)*%
X154729200Y-110656800D03*
%TO.N,Net-(U38-Q5)*%
X152471700Y-107267700D03*
%TO.N,Net-(U38-Q6)*%
X157552900Y-104745000D03*
%TO.N,Net-(U38-Q1)*%
X126732400Y-144678400D03*
%TO.N,Net-(U38-Q3)*%
X129224200Y-153564400D03*
%TO.N,Net-(U38-Q7)*%
X156311200Y-105563500D03*
%TO.N,Net-(U38-Q0)*%
X145507200Y-120586700D03*
%TO.N,Net-(U38-Q2)*%
X148278200Y-115940100D03*
%TO.N,Net-(U34-C)*%
X118450700Y-129551300D03*
%TO.N,Net-(U34-D)*%
X114263400Y-133375200D03*
X97325800Y-144199700D03*
%TO.N,Net-(U34-F)*%
X73348200Y-127424200D03*
%TO.N,Net-(U52-I0b)*%
X207037400Y-122380500D03*
%TO.N,Net-(U31-Q)*%
X130295000Y-153163600D03*
%TO.N,~{II}*%
X209546100Y-50197100D03*
%TO.N,~{IO}*%
X226205300Y-49057500D03*
%TO.N,Net-(U51-I1c)*%
X209378100Y-127171300D03*
%TO.N,Net-(U26-Pad6)*%
X199266700Y-76840700D03*
%TO.N,~{CLR}*%
X174884900Y-127421700D03*
%TO.N,~{RO}*%
X142873200Y-144546300D03*
%TO.N,Net-(U23-D0)*%
X193363700Y-128164400D03*
%TO.N,Net-(U24-Zd)*%
X193440200Y-138215900D03*
%TO.N,Net-(U21-D2)*%
X250915900Y-114217800D03*
%TO.N,Net-(U21-D1)*%
X173928300Y-122301800D03*
X250293200Y-121473200D03*
%TO.N,BUS_7*%
X244378800Y-65834400D03*
%TO.N,BUS_6*%
X215691200Y-83170900D03*
X214086700Y-74567500D03*
X180196200Y-71930100D03*
%TO.N,BUS_4*%
X160230000Y-68815700D03*
X220248800Y-92097900D03*
%TO.N,~{EO}*%
X150362700Y-85790000D03*
%TO.N,Net-(U14-B1)*%
X289786000Y-68666700D03*
%TO.N,Net-(U13-B3)*%
X282187300Y-61043200D03*
%TO.N,Net-(U10-Pad2)*%
X272969100Y-51866900D03*
%TO.N,Net-(U10-Pad10)*%
X297770000Y-77638000D03*
%TO.N,Net-(U10-Pad1)*%
X295652400Y-76050200D03*
%TO.N,Net-(U10-Pad9)*%
X301271300Y-70811700D03*
%TO.N,~{BI}*%
X142279300Y-94248000D03*
%TO.N,CLR*%
X207825400Y-76840700D03*
X309577400Y-99965600D03*
X240751500Y-97240200D03*
%TO.N,Net-(U21-D3)*%
X181247400Y-122681400D03*
X229202600Y-123429600D03*
%TO.N,Net-(U23-D2)*%
X222478900Y-117997800D03*
%TO.N,Net-(U21-D0)*%
X188265400Y-139125600D03*
%TO.N,~{CLK}*%
X251006900Y-55180900D03*
%TO.N,Net-(U24-Za)*%
X226011400Y-129144600D03*
%TO.N,Net-(U4-Pad6)*%
X279509000Y-141407800D03*
%TO.N,Net-(U4-Pad9)*%
X277157800Y-145277200D03*
%TO.N,Net-(U4-Pad3)*%
X310127000Y-127424200D03*
%TO.N,Net-(U3-Q)*%
X290197400Y-142639300D03*
%TO.N,Net-(U2-Q)*%
X280155000Y-139326200D03*
%TO.N,Net-(U24-I0d)*%
X179049500Y-141374400D03*
%TO.N,Net-(R64-Pad1)*%
X97831600Y-112959500D03*
%TO.N,Net-(U31-DIS)*%
X127765500Y-150909500D03*
X131182900Y-129928900D03*
%TO.N,Net-(U1-DIS)*%
X303126300Y-120599700D03*
%TO.N,Net-(D117-A)*%
X185080000Y-47116700D03*
%TO.N,IR_5*%
X137202100Y-42709100D03*
X171085000Y-49759800D03*
%TO.N,BUS_3*%
X178250200Y-151142300D03*
X148063000Y-68129500D03*
X171488100Y-46544300D03*
X268580500Y-70358900D03*
%TO.N,BUS_2*%
X162412800Y-79816200D03*
X270618300Y-73230800D03*
X174250500Y-47146000D03*
%TO.N,BUS_1*%
X166243600Y-82760400D03*
X187757100Y-64214800D03*
X186812900Y-142636600D03*
X279094700Y-68433200D03*
%TO.N,BUS_0*%
X190557500Y-66182500D03*
X145338400Y-106209300D03*
X278894600Y-67120200D03*
X171843100Y-88330000D03*
%TO.N,Net-(D53-A)*%
X109972400Y-42056600D03*
%TO.N,Net-(D52-A)*%
X112535100Y-41795900D03*
%TO.N,Net-(D51-A)*%
X136130900Y-56698800D03*
%TO.N,OI*%
X111553200Y-97032400D03*
%TO.N,SU*%
X94328600Y-58987700D03*
X275068100Y-60007700D03*
%TO.N,Net-(D46-A)*%
X85022100Y-59928100D03*
%TO.N,Net-(D44-A)*%
X76012000Y-119809900D03*
%TO.N,Net-(D43-A)*%
X89638600Y-120992200D03*
X88624900Y-106484200D03*
%TO.N,Net-(D42-A)*%
X70351000Y-67914200D03*
%TO.N,Net-(D41-A)*%
X67353800Y-64938700D03*
X128553500Y-60985700D03*
%TO.N,RI*%
X55365000Y-61963200D03*
X198193800Y-63840500D03*
%TO.N,Net-(D39-A)*%
X128076400Y-55906100D03*
X54531600Y-61135300D03*
%TO.N,HLT*%
X46373400Y-58987700D03*
X244377200Y-58603300D03*
%TO.N,/ALU/B_1*%
X292142200Y-88981400D03*
%TO.N,/ALU/B_4*%
X297154800Y-76349000D03*
%TO.N,/ALU/B_5*%
X301974000Y-74295700D03*
%TO.N,/MAR/A0*%
X238194200Y-100644700D03*
%TO.N,/MAR/A1*%
X234067400Y-101647200D03*
%TO.N,/MAR/A2*%
X196120700Y-44508900D03*
%TO.N,/MAR/A3*%
X198397200Y-44172700D03*
%TO.N,Net-(D17-A)*%
X292142200Y-80237000D03*
%TO.N,Net-(D16-A)*%
X295652400Y-82791700D03*
%TO.N,Net-(D12-A)*%
X280437800Y-74185800D03*
%TO.N,Net-(D11-A)*%
X282497300Y-71415800D03*
%TO.N,/ALU/A_0*%
X230153700Y-69895900D03*
%TO.N,/ALU/A_1*%
X286701000Y-62555400D03*
%TO.N,/ALU/A_2*%
X292143800Y-67914200D03*
%TO.N,/ALU/A_3*%
X250183000Y-56539000D03*
%TO.N,/ALU/A_4*%
X210964000Y-58603300D03*
X210616800Y-67587200D03*
%TO.N,/ALU/A_5*%
X214216600Y-56030000D03*
%TO.N,/ALU/A_6*%
X279835400Y-72498700D03*
%TO.N,Net-(U31-THR)*%
X123854900Y-153649100D03*
X154272600Y-154203700D03*
%TO.N,CLK*%
X263868800Y-95579700D03*
%TO.N,Net-(C14-Pad2)*%
X262171800Y-112546700D03*
%TO.N,BUS_5*%
X162195000Y-76879500D03*
X199913000Y-133419800D03*
X162767400Y-69651200D03*
X217587100Y-79295400D03*
%TO.N,Net-(U1-THR)*%
X301469500Y-120773900D03*
%TO.N,Net-(U2-CV)*%
X279509000Y-147942600D03*
%TO.N,VCC*%
X32500000Y-107500000D03*
X31000000Y-114000000D03*
X27500000Y-109000000D03*
X27500000Y-112500000D03*
X301575900Y-118287400D03*
X123792700Y-150909500D03*
X279509000Y-142301700D03*
X286210400Y-148304200D03*
X285407500Y-147450500D03*
X292130900Y-122054100D03*
%TO.N,GND*%
X31000000Y-103500000D03*
X31000000Y-104500000D03*
X31000000Y-106000000D03*
X31500000Y-107000000D03*
X32500000Y-114500000D03*
X31500000Y-115500000D03*
X31000000Y-116500000D03*
X31500000Y-118000000D03*
X26500000Y-115000000D03*
X20500000Y-104000000D03*
X24500000Y-104500000D03*
X26500000Y-106500000D03*
X26500000Y-108000000D03*
X26500000Y-113500000D03*
X24500000Y-116500000D03*
X20500000Y-116500000D03*
X285694600Y-142301700D03*
X292130900Y-118497700D03*
X122260200Y-150307600D03*
X289606500Y-144014600D03*
X292550500Y-147885100D03*
%TD*%
D35*
%TO.N,Net-(U23-\u002AO2)*%
X193409100Y-115795900D02*
X193409100Y-108763200D01*
X190315000Y-118890000D02*
X193409100Y-115795900D01*
%TO.N,Net-(U23-D3)*%
X229309200Y-120259100D02*
X229309200Y-112435600D01*
X226415300Y-123153000D02*
X229309200Y-120259100D01*
X226415300Y-128697600D02*
X226415300Y-123153000D01*
X226613100Y-128895400D02*
X226415300Y-128697600D01*
X226613100Y-129393800D02*
X226613100Y-128895400D01*
X226415300Y-129591600D02*
X226613100Y-129393800D01*
X226415300Y-132175500D02*
X226415300Y-129591600D01*
X227527100Y-133287300D02*
X226415300Y-132175500D01*
%TO.N,Net-(U14-B3)*%
X296509800Y-49379800D02*
X295340000Y-48210000D01*
X296509800Y-65904000D02*
X296509800Y-49379800D01*
X294565100Y-67848700D02*
X296509800Y-65904000D01*
X294565100Y-102576400D02*
X294565100Y-67848700D01*
X293355600Y-103785900D02*
X294565100Y-102576400D01*
X293355600Y-111700600D02*
X293355600Y-103785900D01*
X294460000Y-112805000D02*
X293355600Y-111700600D01*
%TO.N,Net-(U23-D1)*%
X182695000Y-114719900D02*
X182695000Y-113810000D01*
X190407300Y-122432200D02*
X182695000Y-114719900D01*
X190407300Y-123998300D02*
X190407300Y-122432200D01*
%TO.N,Net-(U41-~{MR})*%
X83677200Y-65582800D02*
X74000000Y-75260000D01*
X83677200Y-52556600D02*
X83677200Y-65582800D01*
X84032100Y-52201700D02*
X83677200Y-52556600D01*
X84032100Y-51252300D02*
X84032100Y-52201700D01*
%TO.N,Net-(U38-Q4)*%
X154520600Y-110865400D02*
X154729200Y-110656800D01*
X154520600Y-139145200D02*
X154520600Y-110865400D01*
X158784300Y-143408900D02*
X154520600Y-139145200D01*
X159545800Y-143408900D02*
X158784300Y-143408900D01*
X160462500Y-144325600D02*
X159545800Y-143408900D01*
X160462500Y-153806900D02*
X160462500Y-144325600D01*
X159317100Y-154952300D02*
X160462500Y-153806900D01*
%TO.N,Net-(U38-Q5)*%
X154104300Y-142119500D02*
X159317100Y-147332300D01*
X154104200Y-142119500D02*
X154104300Y-142119500D01*
X154104200Y-108900200D02*
X154104200Y-142119500D01*
X152471700Y-107267700D02*
X154104200Y-108900200D01*
%TO.N,Net-(U38-Q7)*%
X157915500Y-107167800D02*
X156311200Y-105563500D01*
X157915500Y-135770700D02*
X157915500Y-107167800D01*
X159317100Y-137172300D02*
X157915500Y-135770700D01*
%TO.N,Net-(U38-Q2)*%
X147666400Y-116551900D02*
X148278200Y-115940100D01*
X147666400Y-123075600D02*
X147666400Y-116551900D01*
X146718500Y-124023500D02*
X147666400Y-123075600D01*
X146718500Y-141190900D02*
X146718500Y-124023500D01*
X148486700Y-142959100D02*
X146718500Y-141190900D01*
X149111300Y-142959100D02*
X148486700Y-142959100D01*
X149885600Y-143733400D02*
X149111300Y-142959100D01*
X149885600Y-145520800D02*
X149885600Y-143733400D01*
X151697100Y-147332300D02*
X149885600Y-145520800D01*
%TO.N,Net-(U34-DP)*%
X141421900Y-118839100D02*
X141724000Y-118839100D01*
X119896400Y-140364600D02*
X141421900Y-118839100D01*
X119896400Y-145879100D02*
X119896400Y-140364600D01*
%TO.N,Net-(U34-G)*%
X112223300Y-128152200D02*
X109736400Y-130639100D01*
X119393400Y-128152200D02*
X112223300Y-128152200D01*
X126166500Y-121379100D02*
X119393400Y-128152200D01*
%TO.N,Net-(U34-E)*%
X109736400Y-142889200D02*
X109736400Y-145879100D01*
X126166500Y-126459100D02*
X109736400Y-142889200D01*
%TO.N,Net-(U32A-~{Q})*%
X130383900Y-146769100D02*
X138003900Y-139149100D01*
X142718500Y-135054500D02*
X141163900Y-136609100D01*
X142718500Y-104593600D02*
X142718500Y-135054500D01*
X141724000Y-103599100D02*
X142718500Y-104593600D01*
X140543900Y-136609100D02*
X138003900Y-139149100D01*
X141163900Y-136609100D02*
X140543900Y-136609100D01*
%TO.N,Net-(U31-Q)*%
X129247100Y-135205900D02*
X130383900Y-134069100D01*
X129247100Y-152387600D02*
X129247100Y-135205900D01*
X130023100Y-153163600D02*
X129247100Y-152387600D01*
X130295000Y-153163600D02*
X130023100Y-153163600D01*
%TO.N,~{CO}*%
X142004200Y-38064400D02*
X140412100Y-36472300D01*
X142004200Y-60234200D02*
X142004200Y-38064400D01*
X151050000Y-69280000D02*
X142004200Y-60234200D01*
%TO.N,~{AO}*%
X208542800Y-64662300D02*
X208497100Y-64662300D01*
X211264200Y-67383700D02*
X208542800Y-64662300D01*
X212887400Y-67383700D02*
X211264200Y-67383700D01*
X217257000Y-71753300D02*
X212887400Y-67383700D01*
X217257000Y-78114500D02*
X217257000Y-71753300D01*
X217257100Y-78114500D02*
X217257000Y-78114500D01*
X218188800Y-79046200D02*
X217257100Y-78114500D01*
X218188800Y-79544600D02*
X218188800Y-79046200D01*
X217836300Y-79897100D02*
X218188800Y-79544600D01*
X217836300Y-86154300D02*
X217836300Y-79897100D01*
X232474800Y-100792800D02*
X217836300Y-86154300D01*
X232474800Y-118806700D02*
X232474800Y-100792800D01*
X232474900Y-118806700D02*
X232474800Y-118806700D01*
X234233200Y-120565000D02*
X232474900Y-118806700D01*
%TO.N,~{AI}*%
X237997600Y-64821800D02*
X238947100Y-63872300D01*
X237997600Y-99438700D02*
X237997600Y-64821800D01*
X236541200Y-100895100D02*
X237997600Y-99438700D01*
X236541200Y-113177000D02*
X236541200Y-100895100D01*
X234233200Y-115485000D02*
X236541200Y-113177000D01*
%TO.N,~{II}*%
X209546100Y-50197100D02*
X209883500Y-49859700D01*
X209883500Y-43358700D02*
X205197100Y-38672300D01*
X209883500Y-49859700D02*
X209883500Y-43358700D01*
X232939400Y-109111200D02*
X234233200Y-110405000D01*
X232939400Y-97185400D02*
X232939400Y-109111200D01*
X230371800Y-94617800D02*
X232939400Y-97185400D01*
X230371800Y-72207300D02*
X230371800Y-94617800D01*
X224996300Y-66831800D02*
X230371800Y-72207300D01*
X224996300Y-64261300D02*
X224996300Y-66831800D01*
X213133500Y-52398500D02*
X224996300Y-64261300D01*
X212422300Y-52398500D02*
X213133500Y-52398500D01*
X209883500Y-49859700D02*
X212422300Y-52398500D01*
%TO.N,Net-(U26-Pad6)*%
X200237200Y-77811200D02*
X199266700Y-76840700D01*
X200237200Y-112800600D02*
X200237200Y-77811200D01*
X205461600Y-118025000D02*
X200237200Y-112800600D01*
%TO.N,~{CLR}*%
X176740000Y-66300000D02*
X176740000Y-67249400D01*
X214034200Y-111357600D02*
X213081600Y-110405000D01*
X214034200Y-119612400D02*
X214034200Y-111357600D01*
X213081600Y-120565000D02*
X214034200Y-119612400D01*
X175790600Y-68198800D02*
X176740000Y-67249400D01*
X175790600Y-74547400D02*
X175790600Y-68198800D01*
X174725200Y-75612800D02*
X175790600Y-74547400D01*
X174725200Y-121679800D02*
X174725200Y-75612800D01*
X174931700Y-121886300D02*
X174725200Y-121679800D01*
X174931700Y-127374900D02*
X174931700Y-121886300D01*
X174884900Y-127421700D02*
X174931700Y-127374900D01*
%TO.N,Net-(U23-D0)*%
X193363700Y-124748400D02*
X193363700Y-128164400D01*
X183965000Y-115349700D02*
X193363700Y-124748400D01*
X183965000Y-110000000D02*
X183965000Y-115349700D01*
X182695000Y-108730000D02*
X183965000Y-110000000D01*
%TO.N,Net-(U21-D1)*%
X250649400Y-130929400D02*
X253130000Y-133410000D01*
X250649400Y-121829400D02*
X250649400Y-130929400D01*
X250293200Y-121473200D02*
X250649400Y-121829400D01*
%TO.N,BUS_7*%
X308007900Y-99332100D02*
X305790000Y-101550000D01*
X310626400Y-99332100D02*
X308007900Y-99332100D01*
X316070100Y-93888400D02*
X310626400Y-99332100D01*
X316070100Y-93660000D02*
X316070100Y-93888400D01*
X317023100Y-92707000D02*
X316070100Y-93660000D01*
X318163000Y-92707000D02*
X317023100Y-92707000D01*
X319570000Y-91300000D02*
X318163000Y-92707000D01*
X63087900Y-73697900D02*
X63087900Y-88287700D01*
X58500000Y-69110000D02*
X63087900Y-73697900D01*
X173650000Y-45233300D02*
X173650000Y-45110000D01*
X167430100Y-51453200D02*
X173650000Y-45233300D01*
X167430100Y-61710100D02*
X167430100Y-51453200D01*
X168760000Y-63040000D02*
X167430100Y-61710100D01*
X199387100Y-122246900D02*
X202445000Y-125304800D01*
X199387100Y-84972300D02*
X199387100Y-122246900D01*
X189007100Y-74592300D02*
X199387100Y-84972300D01*
X204537300Y-129297500D02*
X205977100Y-130737300D01*
X204537300Y-127397100D02*
X204537300Y-129297500D01*
X202445000Y-125304800D02*
X204537300Y-127397100D01*
X196463900Y-142676100D02*
X192840000Y-146300000D01*
X196463900Y-131285900D02*
X196463900Y-142676100D01*
X202445000Y-125304800D02*
X196463900Y-131285900D01*
%TO.N,BUS_6*%
X61312700Y-90627700D02*
X63325000Y-92640000D01*
X61312600Y-90627700D02*
X61312700Y-90627700D01*
X61312600Y-76922600D02*
X61312600Y-90627700D01*
X58500000Y-74110000D02*
X61312600Y-76922600D01*
X315479400Y-92850600D02*
X317030000Y-91300000D01*
X314372600Y-92850600D02*
X315479400Y-92850600D01*
X308885500Y-98337700D02*
X314372600Y-92850600D01*
X306857000Y-98337700D02*
X308885500Y-98337700D01*
X303644700Y-101550000D02*
X306857000Y-98337700D01*
X303250000Y-101550000D02*
X303644700Y-101550000D01*
X166220000Y-63042100D02*
X166220000Y-63040000D01*
X165229900Y-64032200D02*
X166220000Y-63042100D01*
X165229900Y-136339500D02*
X165229900Y-64032200D01*
X159317100Y-142252300D02*
X165229900Y-136339500D01*
X180000000Y-48920000D02*
X176190000Y-45110000D01*
X180000000Y-54887900D02*
X180000000Y-48920000D01*
X180196200Y-55084100D02*
X180000000Y-54887900D01*
X180196200Y-71930100D02*
X180196200Y-55084100D01*
%TO.N,BUS_4*%
X59710200Y-85320200D02*
X58500000Y-84110000D01*
X59710200Y-97100000D02*
X59710200Y-85320200D01*
X63397900Y-100787700D02*
X59710200Y-97100000D01*
X311763000Y-91300000D02*
X311950000Y-91300000D01*
X309613400Y-93449600D02*
X311763000Y-91300000D01*
X309613400Y-94008300D02*
X309613400Y-93449600D01*
X306085900Y-97535800D02*
X309613400Y-94008300D01*
X302184200Y-97535800D02*
X306085900Y-97535800D01*
X298170000Y-101550000D02*
X302184200Y-97535800D01*
X185541600Y-61749800D02*
X185306200Y-61514400D01*
X185541600Y-63506800D02*
X185541600Y-61749800D01*
X189007100Y-66972300D02*
X185541600Y-63506800D01*
X185306200Y-61514400D02*
X185141400Y-61349600D01*
X185306200Y-61514400D02*
X185141400Y-61349600D01*
X185141400Y-48981400D02*
X181270000Y-45110000D01*
X185141400Y-61349600D02*
X185141400Y-48981400D01*
%TO.N,/MAR/PROG*%
X256880000Y-29171700D02*
X256880000Y-32630000D01*
X261000000Y-25051700D02*
X256880000Y-29171700D01*
X261000000Y-23500000D02*
X261000000Y-25051700D01*
X269000000Y-33340000D02*
X269000000Y-30800000D01*
X255440200Y-36609800D02*
X256880000Y-35170000D01*
X255440200Y-41976700D02*
X255440200Y-36609800D01*
X241697100Y-55719800D02*
X255440200Y-41976700D01*
X241697100Y-124172300D02*
X241697100Y-55719800D01*
%TO.N,~{EO}*%
X144569900Y-79997200D02*
X150362700Y-85790000D01*
X144569900Y-71342200D02*
X144569900Y-79997200D01*
X143777700Y-70550000D02*
X144569900Y-71342200D01*
X142658800Y-70550000D02*
X143777700Y-70550000D01*
X138735400Y-66626600D02*
X142658800Y-70550000D01*
X138735400Y-60175600D02*
X138735400Y-66626600D01*
X132912100Y-54352300D02*
X138735400Y-60175600D01*
%TO.N,Net-(U14-B1)*%
X289786000Y-60436000D02*
X289786000Y-68666700D01*
X287720000Y-58370000D02*
X289786000Y-60436000D01*
%TO.N,Net-(U13-B2)*%
X278379800Y-74304400D02*
X277424200Y-75260000D01*
X278379800Y-69137100D02*
X278379800Y-74304400D01*
X278091300Y-68848600D02*
X278379800Y-69137100D01*
X278091300Y-68017800D02*
X278091300Y-68848600D01*
X278379800Y-67729300D02*
X278091300Y-68017800D01*
X278379800Y-67456200D02*
X278379800Y-67729300D01*
X278292900Y-67369300D02*
X278379800Y-67456200D01*
X278292900Y-49562900D02*
X278292900Y-67369300D01*
X276940000Y-48210000D02*
X278292900Y-49562900D01*
%TO.N,Net-(U10-Pad2)*%
X271163400Y-64915600D02*
X266848400Y-69230600D01*
X271163400Y-53672600D02*
X271163400Y-64915600D01*
X272969100Y-51866900D02*
X271163400Y-53672600D01*
X266848400Y-70180000D02*
X266848400Y-69230600D01*
%TO.N,Net-(U10-Pad10)*%
X297770000Y-64190000D02*
X297770000Y-77638000D01*
X306120000Y-55840000D02*
X297770000Y-64190000D01*
%TO.N,Net-(U10-Pad1)*%
X297060200Y-47119800D02*
X298500000Y-45680000D01*
X297060200Y-74642400D02*
X297060200Y-47119800D01*
X295652400Y-76050200D02*
X297060200Y-74642400D01*
%TO.N,Net-(U10-Pad9)*%
X301271300Y-63228700D02*
X306120000Y-58380000D01*
X301271300Y-70811700D02*
X301271300Y-63228700D01*
%TO.N,~{BI}*%
X136423900Y-88392600D02*
X142279300Y-94248000D01*
X136423900Y-62944100D02*
X136423900Y-88392600D01*
X132912100Y-59432300D02*
X136423900Y-62944100D01*
%TO.N,CLR*%
X309577400Y-100302600D02*
X309577400Y-99965600D01*
X308330000Y-101550000D02*
X309577400Y-100302600D01*
%TO.N,Net-(U21-D3)*%
X180982000Y-122681400D02*
X181247400Y-122681400D01*
X177188200Y-118887600D02*
X180982000Y-122681400D01*
X177188200Y-111896800D02*
X177188200Y-118887600D01*
X178315000Y-110770000D02*
X177188200Y-111896800D01*
%TO.N,Net-(U21-D0)*%
X174202100Y-111737100D02*
X170695000Y-108230000D01*
X174202100Y-121724700D02*
X174202100Y-111737100D01*
X174530000Y-122052600D02*
X174202100Y-121724700D01*
X174530000Y-122551000D02*
X174530000Y-122052600D01*
X174202100Y-122878900D02*
X174530000Y-122551000D01*
X174202100Y-127645300D02*
X174202100Y-122878900D01*
X176024100Y-129467300D02*
X174202100Y-127645300D01*
X184761500Y-129467300D02*
X176024100Y-129467300D01*
X188265400Y-132971200D02*
X184761500Y-129467300D01*
X188265400Y-139125600D02*
X188265400Y-132971200D01*
%TO.N,~{CLK}*%
X253882500Y-58056500D02*
X251006900Y-55180900D01*
X253882500Y-102781100D02*
X253882500Y-58056500D01*
X253702400Y-102961200D02*
X253882500Y-102781100D01*
X253702400Y-123822400D02*
X253702400Y-102961200D01*
X260750000Y-130870000D02*
X253702400Y-123822400D01*
%TO.N,Net-(U24-Za)*%
X226011400Y-134311600D02*
X227527100Y-135827300D01*
X226011400Y-129144600D02*
X226011400Y-134311600D01*
%TO.N,Net-(U4-Pad10)*%
X270016700Y-131763300D02*
X260750000Y-141030000D01*
X275741100Y-131763300D02*
X270016700Y-131763300D01*
X279277100Y-128227300D02*
X275741100Y-131763300D01*
%TO.N,Net-(U2-Q)*%
X280388200Y-139093000D02*
X280155000Y-139326200D01*
X280388200Y-121718400D02*
X280388200Y-139093000D01*
X279277100Y-120607300D02*
X280388200Y-121718400D01*
%TO.N,Net-(SW7-B)*%
X140173200Y-115309900D02*
X141724000Y-113759100D01*
X140173200Y-116451100D02*
X140173200Y-115309900D01*
X118626400Y-137997900D02*
X140173200Y-116451100D01*
X118626400Y-151967400D02*
X118626400Y-137997900D01*
X113266400Y-157327400D02*
X118626400Y-151967400D01*
X113266400Y-158879100D02*
X113266400Y-157327400D01*
%TO.N,Net-(SW2-C)*%
X296317100Y-144071300D02*
X296317100Y-139602300D01*
X301245800Y-149000000D02*
X296317100Y-144071300D01*
X302797500Y-149000000D02*
X301245800Y-149000000D01*
%TO.N,Net-(R64-Pad1)*%
X85250000Y-67214400D02*
X85250000Y-70250000D01*
X85912100Y-66552300D02*
X85250000Y-67214400D01*
X213081600Y-115485000D02*
X213081600Y-118025000D01*
%TO.N,Net-(U31-DIS)*%
X127765500Y-133346300D02*
X131182900Y-129928900D01*
X127765500Y-150909500D02*
X127765500Y-133346300D01*
%TO.N,Net-(U1-DIS)*%
X309545000Y-115332800D02*
X309545000Y-111540000D01*
X304465500Y-120412300D02*
X309545000Y-115332800D01*
X303712600Y-120412300D02*
X304465500Y-120412300D01*
X303325800Y-120799100D02*
X303712600Y-120412300D01*
X303126300Y-120599700D02*
X303325800Y-120799100D01*
X300627100Y-123497800D02*
X303325800Y-120799100D01*
X300627100Y-127412300D02*
X300627100Y-123497800D01*
%TO.N,Net-(D116-A)*%
X182540000Y-42460000D02*
X180000000Y-39920000D01*
X182540000Y-45723000D02*
X182540000Y-42460000D01*
X188890000Y-52073000D02*
X182540000Y-45723000D01*
X188890000Y-52730000D02*
X188890000Y-52073000D01*
%TO.N,IR_4*%
X171110000Y-55230000D02*
X171110000Y-52730000D01*
X171300000Y-55420000D02*
X171110000Y-55230000D01*
%TO.N,IR_5*%
X173840000Y-52920000D02*
X173650000Y-52730000D01*
X173840000Y-55420000D02*
X173840000Y-52920000D01*
X171085000Y-50165000D02*
X171085000Y-49759800D01*
X173650000Y-52730000D02*
X171085000Y-50165000D01*
%TO.N,IR_6*%
X167213100Y-42113100D02*
X165020000Y-39920000D01*
X172298600Y-42113100D02*
X167213100Y-42113100D01*
X174852200Y-44666700D02*
X172298600Y-42113100D01*
X174852200Y-51392200D02*
X174852200Y-44666700D01*
X176190000Y-52730000D02*
X174852200Y-51392200D01*
%TO.N,Net-(D112-K)*%
X157500000Y-34920000D02*
X157500000Y-39920000D01*
%TO.N,BUS_3*%
X221027100Y-64662300D02*
X221197100Y-64662300D01*
X205197100Y-48832300D02*
X221027100Y-64662300D01*
X164950000Y-53082400D02*
X171488100Y-46544300D01*
X164950000Y-63744100D02*
X164950000Y-53082400D01*
X164040000Y-64654100D02*
X164950000Y-63744100D01*
X164040000Y-66300000D02*
X164040000Y-64654100D01*
X178250200Y-136904200D02*
X178250200Y-151142300D01*
X184417100Y-130737300D02*
X178250200Y-136904200D01*
%TO.N,BUS_2*%
X205197100Y-46698900D02*
X205197100Y-46292300D01*
X210613500Y-52115300D02*
X205197100Y-46698900D01*
X210613500Y-53503200D02*
X210613500Y-52115300D01*
X219133600Y-62023300D02*
X210613500Y-53503200D01*
X221098100Y-62023300D02*
X219133600Y-62023300D01*
X223737100Y-64662300D02*
X221098100Y-62023300D01*
X149762500Y-88312500D02*
X143430000Y-81980000D01*
X149762500Y-109784400D02*
X149762500Y-88312500D01*
X152848600Y-112870500D02*
X149762500Y-109784400D01*
X152848600Y-148720800D02*
X152848600Y-112870500D01*
X151697100Y-149872300D02*
X152848600Y-148720800D01*
%TO.N,BUS_1*%
X167850100Y-67569900D02*
X169120000Y-66300000D01*
X167850100Y-81153900D02*
X167850100Y-67569900D01*
X166243600Y-82760400D02*
X167850100Y-81153900D01*
X187757100Y-55502400D02*
X187757100Y-64214800D01*
X190051200Y-53208300D02*
X187757100Y-55502400D01*
X190051200Y-46271200D02*
X190051200Y-53208300D01*
X188890000Y-45110000D02*
X190051200Y-46271200D01*
X189784100Y-139665400D02*
X186812900Y-142636600D01*
X189784100Y-135530300D02*
X189784100Y-139665400D01*
X192037100Y-133277300D02*
X189784100Y-135530300D01*
X279496400Y-36216400D02*
X276620000Y-33340000D01*
X279496400Y-68169800D02*
X279496400Y-36216400D01*
X279233000Y-68433200D02*
X279496400Y-68169800D01*
X142280200Y-85669800D02*
X143430000Y-84520000D01*
X142280200Y-90062200D02*
X142280200Y-85669800D01*
X143786200Y-91568200D02*
X142280200Y-90062200D01*
X143786200Y-107466500D02*
X143786200Y-91568200D01*
X150060400Y-113740700D02*
X143786200Y-107466500D01*
X150060400Y-140615600D02*
X150060400Y-113740700D01*
X151697100Y-142252300D02*
X150060400Y-140615600D01*
X279094700Y-68433200D02*
X279233000Y-68433200D01*
X279233000Y-88848500D02*
X279233000Y-68433200D01*
X276099000Y-91982500D02*
X279233000Y-88848500D01*
X274247300Y-91982500D02*
X276099000Y-91982500D01*
X273057100Y-90792300D02*
X274247300Y-91982500D01*
%TO.N,BUS_0*%
X145338400Y-88968400D02*
X143430000Y-87060000D01*
X145338400Y-106209300D02*
X145338400Y-88968400D01*
X275597100Y-78246300D02*
X275597100Y-90792300D01*
X277313400Y-76530000D02*
X275597100Y-78246300D01*
X277592500Y-76530000D02*
X277313400Y-76530000D01*
X278804300Y-75318200D02*
X277592500Y-76530000D01*
X278804300Y-68993600D02*
X278804300Y-75318200D01*
X278493000Y-68682300D02*
X278804300Y-68993600D01*
X278493000Y-68184100D02*
X278493000Y-68682300D01*
X278804300Y-67872800D02*
X278493000Y-68184100D01*
X278804300Y-67120200D02*
X278804300Y-67872800D01*
X150519500Y-111390400D02*
X145338400Y-106209300D01*
X150519500Y-138534700D02*
X150519500Y-111390400D01*
X151697100Y-139712300D02*
X150519500Y-138534700D01*
X172930100Y-67570100D02*
X171660000Y-66300000D01*
X172930100Y-77164200D02*
X172930100Y-67570100D01*
X173714000Y-77948100D02*
X172930100Y-77164200D01*
X173714000Y-86459100D02*
X173714000Y-77948100D01*
X171843100Y-88330000D02*
X173714000Y-86459100D01*
X278804300Y-67120200D02*
X278894600Y-67120200D01*
X278804300Y-38064300D02*
X278804300Y-67120200D01*
X276620000Y-35880000D02*
X278804300Y-38064300D01*
%TO.N,Net-(D59-K)*%
X102902100Y-81562300D02*
X102912100Y-81552300D01*
X102902100Y-86552300D02*
X102902100Y-81562300D01*
%TO.N,Net-(D59-A)*%
X106701400Y-85293000D02*
X105442100Y-86552300D01*
X106701400Y-56661200D02*
X106701400Y-85293000D01*
X108442600Y-54920000D02*
X106701400Y-56661200D01*
%TO.N,Net-(D53-K)*%
X117787100Y-117442300D02*
X117787100Y-122412300D01*
X117817100Y-117412300D02*
X117787100Y-117442300D01*
%TO.N,Net-(D53-A)*%
X109972400Y-55930200D02*
X109972400Y-42056600D01*
X108442600Y-57460000D02*
X109972400Y-55930200D01*
%TO.N,Net-(D52-A)*%
X112535100Y-55907500D02*
X112535100Y-41795900D01*
X108442600Y-60000000D02*
X112535100Y-55907500D01*
%TO.N,Net-(D51-A)*%
X136465700Y-56364000D02*
X136130900Y-56698800D01*
X136465700Y-37878700D02*
X136465700Y-56364000D01*
X140412100Y-33932300D02*
X136465700Y-37878700D01*
%TO.N,CE*%
X124000100Y-98713600D02*
X124000100Y-65080000D01*
X116112300Y-106601400D02*
X124000100Y-98713600D01*
X116112300Y-111117100D02*
X116112300Y-106601400D01*
X104817100Y-122412300D02*
X116112300Y-111117100D01*
%TO.N,OI*%
X111294100Y-97032400D02*
X111553200Y-97032400D01*
X110172000Y-98154500D02*
X111294100Y-97032400D01*
X110172000Y-112057400D02*
X110172000Y-98154500D01*
X99817100Y-122412300D02*
X110172000Y-112057400D01*
X113247800Y-73292300D02*
X124000100Y-62540000D01*
X113247800Y-95337800D02*
X113247800Y-73292300D01*
X111553200Y-97032400D02*
X113247800Y-95337800D01*
%TO.N,Net-(D48-A)*%
X94817100Y-115088500D02*
X94817100Y-122412300D01*
X101298600Y-108607000D02*
X94817100Y-115088500D01*
X101298600Y-101003300D02*
X101298600Y-108607000D01*
X107247300Y-95054600D02*
X101298600Y-101003300D01*
X107247300Y-79278800D02*
X107247300Y-95054600D01*
X112704900Y-73821200D02*
X107247300Y-79278800D01*
X112704900Y-71295200D02*
X112704900Y-73821200D01*
X124000100Y-60000000D02*
X112704900Y-71295200D01*
%TO.N,SU*%
X291920000Y-105185000D02*
X291920000Y-112805000D01*
X285993600Y-73669400D02*
X285993600Y-80340000D01*
X285044200Y-72720000D02*
X285993600Y-73669400D01*
X285044200Y-80340000D02*
X285993600Y-80340000D01*
X285993600Y-99258600D02*
X291920000Y-105185000D01*
X285993600Y-80340000D02*
X285993600Y-99258600D01*
X287493500Y-60910000D02*
X287720000Y-60910000D01*
X286081400Y-62322100D02*
X287493500Y-60910000D01*
X286081400Y-71682800D02*
X286081400Y-62322100D01*
X285044200Y-72720000D02*
X286081400Y-71682800D01*
X275591800Y-60531400D02*
X275068100Y-60007700D01*
X275591800Y-70887600D02*
X275591800Y-60531400D01*
X277424200Y-72720000D02*
X275591800Y-70887600D01*
%TO.N,Net-(D46-A)*%
X83890700Y-121485900D02*
X84817100Y-122412300D01*
X83890700Y-67550400D02*
X83890700Y-121485900D01*
X84680600Y-66760500D02*
X83890700Y-67550400D01*
X84680600Y-60269600D02*
X84680600Y-66760500D01*
X85022100Y-59928100D02*
X84680600Y-60269600D01*
%TO.N,Net-(D44-A)*%
X76012000Y-121217400D02*
X74817100Y-122412300D01*
X76012000Y-119809900D02*
X76012000Y-121217400D01*
X76012000Y-74445400D02*
X76012000Y-119809900D01*
X84078900Y-66378500D02*
X76012000Y-74445400D01*
X84078900Y-59126300D02*
X84078900Y-66378500D01*
X85422500Y-57782700D02*
X84078900Y-59126300D01*
X87265300Y-57782700D02*
X85422500Y-57782700D01*
X89442600Y-59960000D02*
X87265300Y-57782700D01*
%TO.N,Net-(D43-A)*%
X89638600Y-107497900D02*
X88624900Y-106484200D01*
X89638600Y-120992200D02*
X89638600Y-107497900D01*
X88443000Y-63499600D02*
X89442600Y-62500000D01*
X88443000Y-106302300D02*
X88443000Y-63499600D01*
X88624900Y-106484200D02*
X88443000Y-106302300D01*
%TO.N,Net-(D42-A)*%
X64767100Y-73498100D02*
X64767100Y-122412300D01*
X70351000Y-67914200D02*
X64767100Y-73498100D01*
%TO.N,Net-(D38-K)*%
X42227100Y-117502300D02*
X42227100Y-122412300D01*
X42317100Y-117412300D02*
X42227100Y-117502300D01*
%TO.N,Net-(D36-A)*%
X172510000Y-77310000D02*
X169120000Y-73920000D01*
X172510000Y-79420000D02*
X172510000Y-77310000D01*
%TO.N,Net-(D34-A)*%
X157930000Y-81980000D02*
X160490000Y-79420000D01*
X151050000Y-81980000D02*
X157930000Y-81980000D01*
X164040000Y-75885400D02*
X164040000Y-73920000D01*
X160505400Y-79420000D02*
X164040000Y-75885400D01*
X160490000Y-79420000D02*
X160505400Y-79420000D01*
%TO.N,Net-(D33-A)*%
X225409700Y-153670300D02*
X217660000Y-161420000D01*
X225409700Y-128895500D02*
X225409700Y-153670300D01*
X225607500Y-128697700D02*
X225409700Y-128895500D01*
X225607500Y-113950700D02*
X225607500Y-128697700D01*
X226613200Y-112945000D02*
X225607500Y-113950700D01*
%TO.N,Net-(D32-A)*%
X212660000Y-161040000D02*
X212660000Y-161420000D01*
X205540000Y-153920000D02*
X212660000Y-161040000D01*
X225008000Y-134452000D02*
X205540000Y-153920000D01*
X225008000Y-128729200D02*
X225008000Y-134452000D01*
X225204300Y-128532900D02*
X225008000Y-128729200D01*
X225204300Y-109273900D02*
X225204300Y-128532900D01*
X226613200Y-107865000D02*
X225204300Y-109273900D01*
%TO.N,Net-(D30-A)*%
X200460000Y-159220000D02*
X202660000Y-161420000D01*
X200460000Y-153920000D02*
X200460000Y-159220000D01*
X202174900Y-152205100D02*
X200460000Y-153920000D01*
X206432100Y-152205100D02*
X202174900Y-152205100D01*
X224606300Y-134030900D02*
X206432100Y-152205100D01*
X224606300Y-128562900D02*
X224606300Y-134030900D01*
X224651700Y-128517500D02*
X224606300Y-128562900D01*
X224651700Y-116479300D02*
X224651700Y-128517500D01*
X223657400Y-115485000D02*
X224651700Y-116479300D01*
%TO.N,Net-(D029-K)*%
X299440000Y-72690000D02*
X299460000Y-72670000D01*
X299440000Y-78920000D02*
X299440000Y-72690000D01*
%TO.N,Net-(D29-A)*%
X200328400Y-151511600D02*
X197920000Y-153920000D01*
X200328400Y-151511500D02*
X200328400Y-151511600D01*
X204523500Y-151511500D02*
X200328400Y-151511500D01*
X209350000Y-146685000D02*
X204523500Y-151511500D01*
X209350000Y-140957700D02*
X209350000Y-146685000D01*
X213220400Y-137087300D02*
X209350000Y-140957700D01*
X213944000Y-137087300D02*
X213220400Y-137087300D01*
X223657400Y-127373900D02*
X213944000Y-137087300D01*
X223657400Y-120565000D02*
X223657400Y-127373900D01*
%TO.N,Net-(D28-A)*%
X216037400Y-119030800D02*
X216037400Y-118025000D01*
X208400500Y-126667700D02*
X216037400Y-119030800D01*
X208400500Y-132419300D02*
X208400500Y-126667700D01*
X206272500Y-134547300D02*
X208400500Y-132419300D01*
X205664200Y-134547300D02*
X206272500Y-134547300D01*
X203691800Y-136519700D02*
X205664200Y-134547300D01*
X203691800Y-137383100D02*
X203691800Y-136519700D01*
X202732600Y-138342300D02*
X203691800Y-137383100D01*
X202142500Y-138342300D02*
X202732600Y-138342300D01*
X199191500Y-141293300D02*
X202142500Y-138342300D01*
X199191500Y-150108500D02*
X199191500Y-141293300D01*
X195380000Y-153920000D02*
X199191500Y-150108500D01*
%TO.N,/ALU/B_1*%
X310570400Y-82519600D02*
X309410000Y-83680000D01*
X317509100Y-82519600D02*
X310570400Y-82519600D01*
X318300000Y-83310500D02*
X317509100Y-82519600D01*
X318300000Y-85206900D02*
X318300000Y-83310500D01*
X320747500Y-87654400D02*
X318300000Y-85206900D01*
X320747500Y-92127500D02*
X320747500Y-87654400D01*
X322420000Y-93800000D02*
X320747500Y-92127500D01*
%TO.N,/ALU/B_2*%
X307220000Y-83680000D02*
X311980000Y-78920000D01*
X306870000Y-83680000D02*
X307220000Y-83680000D01*
X303060000Y-87490000D02*
X306870000Y-83680000D01*
X303060000Y-92330400D02*
X303060000Y-87490000D01*
X301838400Y-93552000D02*
X303060000Y-92330400D01*
X301838400Y-94178000D02*
X301838400Y-93552000D01*
X296900000Y-99116400D02*
X301838400Y-94178000D01*
X296900000Y-102745000D02*
X296900000Y-99116400D01*
X294460000Y-105185000D02*
X296900000Y-102745000D01*
%TO.N,Net-(D26-A)*%
X214767400Y-109135000D02*
X216037400Y-107865000D01*
X212956700Y-109135000D02*
X214767400Y-109135000D01*
X207639100Y-114452600D02*
X212956700Y-109135000D01*
X207639100Y-130670100D02*
X207639100Y-114452600D01*
X206466300Y-131842900D02*
X207639100Y-130670100D01*
X204894300Y-131842900D02*
X206466300Y-131842900D01*
X203920000Y-130868600D02*
X204894300Y-131842900D01*
X201599500Y-130868600D02*
X203920000Y-130868600D01*
X197065600Y-135402500D02*
X201599500Y-130868600D01*
X197065600Y-142731300D02*
X197065600Y-135402500D01*
X194110000Y-145686900D02*
X197065600Y-142731300D01*
X194110000Y-150110000D02*
X194110000Y-145686900D01*
X190300000Y-153920000D02*
X194110000Y-150110000D01*
%TO.N,/ALU/B_5*%
X321831300Y-81418700D02*
X319570000Y-83680000D01*
X324461300Y-81418700D02*
X321831300Y-81418700D01*
X326960000Y-78920000D02*
X324461300Y-81418700D01*
X300606300Y-93826300D02*
X300710000Y-93930000D01*
X300606300Y-80385400D02*
X300606300Y-93826300D01*
X300771100Y-80220600D02*
X300606300Y-80385400D01*
X300771100Y-75498600D02*
X300771100Y-80220600D01*
X301974000Y-74295700D02*
X300771100Y-75498600D01*
%TO.N,/ALU/B_6*%
X303387700Y-93930000D02*
X303250000Y-93930000D01*
X305600000Y-91717700D02*
X303387700Y-93930000D01*
X305600000Y-90877600D02*
X305600000Y-91717700D01*
X307037200Y-89440400D02*
X305600000Y-90877600D01*
X311269600Y-89440400D02*
X307037200Y-89440400D01*
X317030000Y-83680000D02*
X311269600Y-89440400D01*
%TO.N,/MAR/A1*%
X236603200Y-42103200D02*
X236832300Y-42332300D01*
X236603200Y-29896800D02*
X236603200Y-42103200D01*
X237580000Y-28920000D02*
X236603200Y-29896800D01*
X236832300Y-42332300D02*
X236957100Y-42332300D01*
X235297100Y-100417500D02*
X234067400Y-101647200D01*
X235297100Y-78702300D02*
X235297100Y-100417500D01*
X236832300Y-77167100D02*
X235297100Y-78702300D01*
X236832300Y-42332300D02*
X236832300Y-77167100D01*
%TO.N,/MAR/A2*%
X230947100Y-40632900D02*
X230947100Y-42332300D01*
X235040000Y-36540000D02*
X230947100Y-40632900D01*
%TO.N,Net-(D18-A)*%
X283682100Y-99427300D02*
X279257100Y-103852300D01*
X283682100Y-68377700D02*
X283682100Y-99427300D01*
X285670000Y-66389800D02*
X283682100Y-68377700D01*
X285670000Y-47720000D02*
X285670000Y-66389800D01*
X287720000Y-45670000D02*
X285670000Y-47720000D01*
%TO.N,Net-(D17-A)*%
X269336800Y-97052600D02*
X267977100Y-98412300D01*
X269336800Y-88011600D02*
X269336800Y-97052600D01*
X274468400Y-82880000D02*
X269336800Y-88011600D01*
X293337300Y-79041900D02*
X292142200Y-80237000D01*
X293337300Y-55292700D02*
X293337300Y-79041900D01*
X295340000Y-53290000D02*
X293337300Y-55292700D01*
%TO.N,Net-(D16-A)*%
X271787100Y-101572300D02*
X269507100Y-103852300D01*
X271787100Y-88101300D02*
X271787100Y-101572300D01*
X274468400Y-85420000D02*
X271787100Y-88101300D01*
X269507100Y-102482300D02*
X269507100Y-103852300D01*
X265437100Y-98412300D02*
X269507100Y-102482300D01*
%TO.N,Net-(D15-A)*%
X275592000Y-54638000D02*
X276940000Y-53290000D01*
X275592000Y-58181800D02*
X275592000Y-54638000D01*
X274133800Y-59640000D02*
X275592000Y-58181800D01*
X273406800Y-59640000D02*
X274133800Y-59640000D01*
X272523400Y-60523400D02*
X273406800Y-59640000D01*
X272523400Y-77205000D02*
X272523400Y-60523400D01*
X266848400Y-82880000D02*
X272523400Y-77205000D01*
X264167100Y-85561300D02*
X266848400Y-82880000D01*
X264167100Y-95027100D02*
X264167100Y-85561300D01*
X264470500Y-95330500D02*
X264167100Y-95027100D01*
X264470500Y-96838900D02*
X264470500Y-95330500D01*
X262897100Y-98412300D02*
X264470500Y-96838900D01*
X262897100Y-102122300D02*
X264627100Y-103852300D01*
X262897100Y-98412300D02*
X262897100Y-102122300D01*
%TO.N,CF*%
X265170000Y-50750000D02*
X266160000Y-50750000D01*
X262000000Y-53920000D02*
X265170000Y-50750000D01*
%TO.N,Net-(D13-A)*%
X274990400Y-47619600D02*
X276940000Y-45670000D01*
X274990400Y-56233600D02*
X274990400Y-47619600D01*
X274124000Y-57100000D02*
X274990400Y-56233600D01*
X273484100Y-57100000D02*
X274124000Y-57100000D01*
X271671800Y-58912300D02*
X273484100Y-57100000D01*
X271671800Y-75516600D02*
X271671800Y-58912300D01*
X266848400Y-80340000D02*
X271671800Y-75516600D01*
%TO.N,Net-(D12-A)*%
X261543000Y-80565400D02*
X266848400Y-75260000D01*
X261543000Y-94686400D02*
X261543000Y-80565400D01*
X257817100Y-98412300D02*
X261543000Y-94686400D01*
X280437800Y-57412200D02*
X284560000Y-53290000D01*
X280437800Y-74185800D02*
X280437800Y-57412200D01*
%TO.N,Net-(D11-A)*%
X282497800Y-71415300D02*
X282497300Y-71415800D01*
X282497900Y-71415300D02*
X282497800Y-71415300D01*
X282497900Y-62972100D02*
X282497900Y-71415300D01*
X284560000Y-60910000D02*
X282497900Y-62972100D01*
X266744400Y-72720000D02*
X266848400Y-72720000D01*
X256905600Y-82558800D02*
X266744400Y-72720000D01*
X256905600Y-84544300D02*
X256905600Y-82558800D01*
X256547100Y-84902800D02*
X256905600Y-84544300D01*
X256547100Y-97142300D02*
X256547100Y-84902800D01*
X255277100Y-98412300D02*
X256547100Y-97142300D01*
%TO.N,ZF*%
X262000000Y-57450000D02*
X262000000Y-58420000D01*
X266160000Y-53290000D02*
X262000000Y-57450000D01*
%TO.N,/ALU/A_1*%
X227547100Y-79662300D02*
X229047100Y-81162300D01*
X227547100Y-71920300D02*
X227547100Y-79662300D01*
X226747500Y-71120700D02*
X227547100Y-71920300D01*
X222358700Y-71120700D02*
X226747500Y-71120700D01*
X221197100Y-72282300D02*
X222358700Y-71120700D01*
%TO.N,/ALU/A_2*%
X292143800Y-53946200D02*
X292143800Y-67914200D01*
X295340000Y-50750000D02*
X292143800Y-53946200D01*
%TO.N,Net-(D7-K)*%
X226587100Y-85642300D02*
X226567100Y-85662300D01*
X226587100Y-81162300D02*
X226587100Y-85642300D01*
%TO.N,/ALU/A_3*%
X226277100Y-73932300D02*
X226277100Y-72282300D01*
X219047100Y-81162300D02*
X226277100Y-73932300D01*
X250183000Y-70416400D02*
X246567100Y-74032300D01*
X250183000Y-56539000D02*
X250183000Y-70416400D01*
%TO.N,/ALU/A_5*%
X209027100Y-74292300D02*
X211037100Y-72282300D01*
X209027100Y-81162300D02*
X209027100Y-74292300D01*
%TO.N,/ALU/A_6*%
X204007100Y-79618700D02*
X204007100Y-81162300D01*
X196627100Y-72238700D02*
X204007100Y-79618700D01*
X196627100Y-72052300D02*
X196627100Y-72238700D01*
X279898100Y-55411900D02*
X284560000Y-50750000D01*
X279898100Y-72436000D02*
X279898100Y-55411900D01*
X279835400Y-72498700D02*
X279898100Y-72436000D01*
%TO.N,/ALU/A_7*%
X198219200Y-76184400D02*
X196627100Y-74592300D01*
X198219200Y-80414400D02*
X198219200Y-76184400D01*
X198967100Y-81162300D02*
X198219200Y-80414400D01*
%TO.N,Net-(D1-K)*%
X271297100Y-139582300D02*
X271317100Y-139602300D01*
X271297100Y-134912300D02*
X271297100Y-139582300D01*
%TO.N,CLK*%
X172570000Y-59230000D02*
X168760000Y-55420000D01*
X172570000Y-64670000D02*
X172570000Y-59230000D01*
X174200000Y-66300000D02*
X172570000Y-64670000D01*
%TO.N,Net-(C14-Pad2)*%
X205461600Y-102556800D02*
X205461600Y-105325000D01*
X202817100Y-99912300D02*
X205461600Y-102556800D01*
%TO.N,BUS_5*%
X60653000Y-81303000D02*
X58500000Y-79150000D01*
X60653000Y-94018000D02*
X60653000Y-81303000D01*
X63325000Y-96690000D02*
X60653000Y-94018000D01*
X314490000Y-92038100D02*
X314490000Y-91300000D01*
X308592100Y-97936000D02*
X314490000Y-92038100D01*
X306690700Y-97936000D02*
X308592100Y-97936000D01*
X306689200Y-97937500D02*
X306690700Y-97936000D01*
X304322500Y-97937500D02*
X306689200Y-97937500D01*
X300710000Y-101550000D02*
X304322500Y-97937500D01*
X162767400Y-63952600D02*
X163680000Y-63040000D01*
X162767400Y-69651200D02*
X162767400Y-63952600D01*
X162767400Y-76307100D02*
X162767400Y-69651200D01*
X162195000Y-76879500D02*
X162767400Y-76307100D01*
X197920000Y-135412800D02*
X199913000Y-133419800D01*
X197920000Y-146300000D02*
X197920000Y-135412800D01*
X182635000Y-49015000D02*
X178730000Y-45110000D01*
X182635000Y-59611400D02*
X182635000Y-49015000D01*
X185139900Y-62116300D02*
X182635000Y-59611400D01*
X185139900Y-65645100D02*
X185139900Y-62116300D01*
X189007100Y-69512300D02*
X185139900Y-65645100D01*
%TD*%
M02*
