%TF.GenerationSoftware,KiCad,Pcbnew,9.0.6*%
%TF.CreationDate,2025-11-18T15:10:35-06:00*%
%TF.ProjectId,8-Bit-PC,382d4269-742d-4504-932e-6b696361645f,1*%
%TF.SameCoordinates,Original*%
%TF.FileFunction,Copper,L1,Top*%
%TF.FilePolarity,Positive*%
%FSLAX46Y46*%
G04 Gerber Fmt 4.6, Leading zero omitted, Abs format (unit mm)*
G04 Created by KiCad (PCBNEW 9.0.6) date 2025-11-18 15:10:35*
%MOMM*%
%LPD*%
G01*
G04 APERTURE LIST*
G04 Aperture macros list*
%AMRoundRect*
0 Rectangle with rounded corners*
0 $1 Rounding radius*
0 $2 $3 $4 $5 $6 $7 $8 $9 X,Y pos of 4 corners*
0 Add a 4 corners polygon primitive as box body*
4,1,4,$2,$3,$4,$5,$6,$7,$8,$9,$2,$3,0*
0 Add four circle primitives for the rounded corners*
1,1,$1+$1,$2,$3*
1,1,$1+$1,$4,$5*
1,1,$1+$1,$6,$7*
1,1,$1+$1,$8,$9*
0 Add four rect primitives between the rounded corners*
20,1,$1+$1,$2,$3,$4,$5,0*
20,1,$1+$1,$4,$5,$6,$7,0*
20,1,$1+$1,$6,$7,$8,$9,0*
20,1,$1+$1,$8,$9,$2,$3,0*%
G04 Aperture macros list end*
%TA.AperFunction,ComponentPad*%
%ADD10C,1.600000*%
%TD*%
%TA.AperFunction,ComponentPad*%
%ADD11RoundRect,0.250000X-0.550000X-0.550000X0.550000X-0.550000X0.550000X0.550000X-0.550000X0.550000X0*%
%TD*%
%TA.AperFunction,ComponentPad*%
%ADD12C,1.200000*%
%TD*%
%TA.AperFunction,SMDPad,CuDef*%
%ADD13RoundRect,0.150000X-0.825000X-0.150000X0.825000X-0.150000X0.825000X0.150000X-0.825000X0.150000X0*%
%TD*%
%TA.AperFunction,ComponentPad*%
%ADD14R,1.295400X1.295400*%
%TD*%
%TA.AperFunction,ComponentPad*%
%ADD15C,1.295400*%
%TD*%
%TA.AperFunction,ComponentPad*%
%ADD16R,1.800000X1.800000*%
%TD*%
%TA.AperFunction,ComponentPad*%
%ADD17C,1.800000*%
%TD*%
%TA.AperFunction,ComponentPad*%
%ADD18R,1.378000X1.378000*%
%TD*%
%TA.AperFunction,ComponentPad*%
%ADD19C,1.378000*%
%TD*%
%TA.AperFunction,ComponentPad*%
%ADD20C,2.000000*%
%TD*%
%TA.AperFunction,ComponentPad*%
%ADD21R,1.600000X1.600000*%
%TD*%
%TA.AperFunction,SMDPad,CuDef*%
%ADD22RoundRect,0.150000X-0.150000X0.825000X-0.150000X-0.825000X0.150000X-0.825000X0.150000X0.825000X0*%
%TD*%
%TA.AperFunction,ComponentPad*%
%ADD23RoundRect,0.250000X0.550000X0.550000X-0.550000X0.550000X-0.550000X-0.550000X0.550000X-0.550000X0*%
%TD*%
%TA.AperFunction,ComponentPad*%
%ADD24R,1.676400X1.676400*%
%TD*%
%TA.AperFunction,ComponentPad*%
%ADD25C,1.676400*%
%TD*%
%TA.AperFunction,SMDPad,CuDef*%
%ADD26RoundRect,0.250000X-0.375000X-1.000000X0.375000X-1.000000X0.375000X1.000000X-0.375000X1.000000X0*%
%TD*%
%TA.AperFunction,SMDPad,CuDef*%
%ADD27R,1.361700X0.558800*%
%TD*%
%TA.AperFunction,SMDPad,CuDef*%
%ADD28RoundRect,0.250000X0.375000X1.000000X-0.375000X1.000000X-0.375000X-1.000000X0.375000X-1.000000X0*%
%TD*%
%TA.AperFunction,SMDPad,CuDef*%
%ADD29RoundRect,0.175000X-0.625000X0.175000X-0.625000X-0.175000X0.625000X-0.175000X0.625000X0.175000X0*%
%TD*%
%TA.AperFunction,SMDPad,CuDef*%
%ADD30RoundRect,0.200000X-0.600000X0.200000X-0.600000X-0.200000X0.600000X-0.200000X0.600000X0.200000X0*%
%TD*%
%TA.AperFunction,SMDPad,CuDef*%
%ADD31RoundRect,0.225000X-0.575000X0.225000X-0.575000X-0.225000X0.575000X-0.225000X0.575000X0.225000X0*%
%TD*%
%TA.AperFunction,HeatsinkPad*%
%ADD32O,1.700000X1.000000*%
%TD*%
%TA.AperFunction,ComponentPad*%
%ADD33O,3.240000X2.720000*%
%TD*%
%TA.AperFunction,ComponentPad*%
%ADD34RoundRect,0.250000X0.550000X-0.550000X0.550000X0.550000X-0.550000X0.550000X-0.550000X-0.550000X0*%
%TD*%
%TA.AperFunction,SMDPad,CuDef*%
%ADD35RoundRect,0.150000X0.825000X0.150000X-0.825000X0.150000X-0.825000X-0.150000X0.825000X-0.150000X0*%
%TD*%
%TA.AperFunction,ComponentPad*%
%ADD36RoundRect,0.250000X-0.550000X0.550000X-0.550000X-0.550000X0.550000X-0.550000X0.550000X0.550000X0*%
%TD*%
%TA.AperFunction,SMDPad,CuDef*%
%ADD37RoundRect,0.250000X1.000000X-0.375000X1.000000X0.375000X-1.000000X0.375000X-1.000000X-0.375000X0*%
%TD*%
%TA.AperFunction,ViaPad*%
%ADD38C,0.600000*%
%TD*%
%TA.AperFunction,Conductor*%
%ADD39C,0.200000*%
%TD*%
G04 APERTURE END LIST*
D10*
%TO.P,R14,1*%
%TO.N,Net-(D16-K)*%
X266917100Y-109792300D03*
%TO.P,R14,2*%
%TO.N,GND*%
X266917100Y-117412300D03*
%TD*%
D11*
%TO.P,U5,1*%
%TO.N,Net-(U3-Q)*%
X253130000Y-125790000D03*
D10*
%TO.P,U5,2*%
%TO.N,Net-(U4-Pad4)*%
X253130000Y-128330000D03*
%TO.P,U5,3*%
%TO.N,Net-(U52-Zb)*%
X253130000Y-130870000D03*
%TO.P,U5,4*%
%TO.N,Net-(U21-D1)*%
X253130000Y-133410000D03*
%TO.P,U5,5*%
%TO.N,Net-(U52-Zc)*%
X253130000Y-135950000D03*
%TO.P,U5,6*%
%TO.N,Net-(U21-D2)*%
X253130000Y-138490000D03*
%TO.P,U5,7,GND*%
%TO.N,GND*%
X253130000Y-141030000D03*
%TO.P,U5,8*%
%TO.N,Net-(U4-Pad10)*%
X260750000Y-141030000D03*
%TO.P,U5,9*%
%TO.N,HLT*%
X260750000Y-138490000D03*
%TO.P,U5,10*%
%TO.N,Net-(U23-D1)*%
X260750000Y-135950000D03*
%TO.P,U5,11*%
%TO.N,Net-(U24-Zc)*%
X260750000Y-133410000D03*
%TO.P,U5,12*%
%TO.N,~{CLK}*%
X260750000Y-130870000D03*
%TO.P,U5,13*%
%TO.N,CLK*%
X260750000Y-128330000D03*
%TO.P,U5,14,VCC*%
%TO.N,VCC*%
X260750000Y-125790000D03*
%TD*%
D12*
%TO.P,C47,1*%
%TO.N,VCC*%
X192000000Y-122000000D03*
%TO.P,C47,2*%
%TO.N,GND*%
X192000000Y-120000000D03*
%TD*%
D13*
%TO.P,U1,1,GND*%
%TO.N,GND*%
X294592100Y-118507300D03*
%TO.P,U1,2,TR*%
%TO.N,Net-(U1-THR)*%
X294592100Y-119777300D03*
%TO.P,U1,3,Q*%
%TO.N,Net-(U1-Q)*%
X294592100Y-121047300D03*
%TO.P,U1,4,R*%
%TO.N,VCC*%
X294592100Y-122317300D03*
%TO.P,U1,5,CV*%
%TO.N,Net-(U1-CV)*%
X299542100Y-122317300D03*
%TO.P,U1,6,THR*%
%TO.N,Net-(U1-THR)*%
X299542100Y-121047300D03*
%TO.P,U1,7,DIS*%
%TO.N,Net-(U1-DIS)*%
X299542100Y-119777300D03*
%TO.P,U1,8,VCC*%
%TO.N,VCC*%
X299542100Y-118507300D03*
%TD*%
D12*
%TO.P,C8,1*%
%TO.N,VCC*%
X333040000Y-86300000D03*
%TO.P,C8,2*%
%TO.N,GND*%
X333040000Y-88300000D03*
%TD*%
D10*
%TO.P,C3,1*%
%TO.N,GND*%
X275567100Y-149662300D03*
%TO.P,C3,2*%
%TO.N,Net-(U2-DIS)*%
X278067100Y-149662300D03*
%TD*%
%TO.P,R94,1*%
%TO.N,Net-(D025-K)*%
X319460000Y-72670000D03*
%TO.P,R94,2*%
%TO.N,GND*%
X319460000Y-65050000D03*
%TD*%
D11*
%TO.P,U52,1,S*%
%TO.N,/MAR/PROG*%
X205977100Y-125657300D03*
D10*
%TO.P,U52,2,I0a*%
%TO.N,Net-(U52-I0a)*%
X205977100Y-128197300D03*
%TO.P,U52,3,I1a*%
%TO.N,BUS_7*%
X205977100Y-130737300D03*
%TO.P,U52,4,Za*%
%TO.N,Net-(U52-Za)*%
X205977100Y-133277300D03*
%TO.P,U52,5,I0b*%
%TO.N,Net-(U52-I0b)*%
X205977100Y-135817300D03*
%TO.P,U52,6,I1b*%
%TO.N,BUS_6*%
X205977100Y-138357300D03*
%TO.P,U52,7,Zb*%
%TO.N,Net-(U52-Zb)*%
X205977100Y-140897300D03*
%TO.P,U52,8,GND*%
%TO.N,GND*%
X205977100Y-143437300D03*
%TO.P,U52,9,Zd*%
%TO.N,Net-(U52-Zd)*%
X213597100Y-143437300D03*
%TO.P,U52,10,I1d*%
%TO.N,BUS_4*%
X213597100Y-140897300D03*
%TO.P,U52,11,I0d*%
%TO.N,Net-(U52-I0d)*%
X213597100Y-138357300D03*
%TO.P,U52,12,Zc*%
%TO.N,Net-(U52-Zc)*%
X213597100Y-135817300D03*
%TO.P,U52,13,I1c*%
%TO.N,BUS_5*%
X213597100Y-133277300D03*
%TO.P,U52,14,I0c*%
%TO.N,Net-(U52-I0c)*%
X213597100Y-130737300D03*
%TO.P,U52,15,E*%
%TO.N,GND*%
X213597100Y-128197300D03*
%TO.P,U52,16,VCC*%
%TO.N,VCC*%
X213597100Y-125657300D03*
%TD*%
%TO.P,R83,1*%
%TO.N,Net-(D112-K)*%
X157500000Y-34920000D03*
%TO.P,R83,2*%
%TO.N,GND*%
X157500000Y-27300000D03*
%TD*%
%TO.P,R87,1*%
%TO.N,Net-(D116-K)*%
X177500000Y-34920000D03*
%TO.P,R87,2*%
%TO.N,GND*%
X177500000Y-27300000D03*
%TD*%
D14*
%TO.P,U8,1,Oe1*%
%TO.N,GND*%
X310870000Y-93930000D03*
D15*
%TO.P,U8,2,Oe2*%
X308330000Y-93930000D03*
%TO.P,U8,3,Q0*%
%TO.N,/ALU/B_7*%
X305790000Y-93930000D03*
%TO.P,U8,4,Q1*%
%TO.N,/ALU/B_6*%
X303250000Y-93930000D03*
%TO.P,U8,5,Q2*%
%TO.N,/ALU/B_5*%
X300710000Y-93930000D03*
%TO.P,U8,6,Q3*%
%TO.N,/ALU/B_4*%
X298170000Y-93930000D03*
%TO.P,U8,7,Cp*%
%TO.N,CLK*%
X295630000Y-93930000D03*
%TO.P,U8,8,GND*%
%TO.N,GND*%
X293090000Y-93930000D03*
%TO.P,U8,9,E1*%
%TO.N,~{BI}*%
X293090000Y-101550000D03*
%TO.P,U8,10,E2*%
X295630000Y-101550000D03*
%TO.P,U8,11,D3*%
%TO.N,BUS_4*%
X298170000Y-101550000D03*
%TO.P,U8,12,D2*%
%TO.N,BUS_5*%
X300710000Y-101550000D03*
%TO.P,U8,13,D1*%
%TO.N,BUS_6*%
X303250000Y-101550000D03*
%TO.P,U8,14,D0*%
%TO.N,BUS_7*%
X305790000Y-101550000D03*
%TO.P,U8,15,Mr*%
%TO.N,CLR*%
X308330000Y-101550000D03*
%TO.P,U8,16,VCC*%
%TO.N,VCC*%
X310870000Y-101550000D03*
%TD*%
D11*
%TO.P,U20,1*%
%TO.N,Net-(U51-Zc)*%
X227527100Y-125667300D03*
D10*
%TO.P,U20,2*%
%TO.N,Net-(U21-\u002AWE)*%
X227527100Y-128207300D03*
%TO.P,U20,3*%
%TO.N,Net-(U24-Zb)*%
X227527100Y-130747300D03*
%TO.P,U20,4*%
%TO.N,Net-(U23-D3)*%
X227527100Y-133287300D03*
%TO.P,U20,5*%
%TO.N,Net-(U24-Za)*%
X227527100Y-135827300D03*
%TO.P,U20,6*%
%TO.N,Net-(U23-D2)*%
X227527100Y-138367300D03*
%TO.P,U20,7,GND*%
%TO.N,GND*%
X227527100Y-140907300D03*
%TO.P,U20,8*%
%TO.N,Net-(U21-D3)*%
X235147100Y-140907300D03*
%TO.P,U20,9*%
%TO.N,Net-(U52-Zd)*%
X235147100Y-138367300D03*
%TO.P,U20,10*%
%TO.N,N/C*%
X235147100Y-135827300D03*
%TO.P,U20,11*%
X235147100Y-133287300D03*
%TO.P,U20,12*%
%TO.N,Net-(U23-D0)*%
X235147100Y-130747300D03*
%TO.P,U20,13*%
%TO.N,Net-(U24-Zd)*%
X235147100Y-128207300D03*
%TO.P,U20,14,VCC*%
%TO.N,VCC*%
X235147100Y-125667300D03*
%TD*%
D14*
%TO.P,U41,1,~{MR}*%
%TO.N,Net-(U41-~{MR})*%
X84032100Y-51252300D03*
D15*
%TO.P,U41,2,CP*%
%TO.N,~{CLK}*%
X84032100Y-48712300D03*
%TO.P,U41,3,D0*%
%TO.N,unconnected-(U41-D0-Pad3)*%
X84032100Y-46172300D03*
%TO.P,U41,4,D1*%
%TO.N,unconnected-(U41-D1-Pad4)*%
X84032100Y-43632300D03*
%TO.P,U41,5,D2*%
%TO.N,unconnected-(U41-D2-Pad5)*%
X84032100Y-41092300D03*
%TO.P,U41,6,D3*%
%TO.N,unconnected-(U41-D3-Pad6)*%
X84032100Y-38552300D03*
%TO.P,U41,7,CEP*%
%TO.N,VCC*%
X84032100Y-36012300D03*
%TO.P,U41,8,GND*%
%TO.N,GND*%
X84032100Y-33472300D03*
%TO.P,U41,9,~{PE}*%
%TO.N,VCC*%
X76412100Y-33472300D03*
%TO.P,U41,10,CET*%
X76412100Y-36012300D03*
%TO.P,U41,11,Q3*%
%TO.N,unconnected-(U41-Q3-Pad11)*%
X76412100Y-38552300D03*
%TO.P,U41,12,Q2*%
%TO.N,Net-(D61-A)*%
X76412100Y-41092300D03*
%TO.P,U41,13,Q1*%
%TO.N,Net-(D60-A)*%
X76412100Y-43632300D03*
%TO.P,U41,14,Q0*%
%TO.N,Net-(D59-A)*%
X76412100Y-46172300D03*
%TO.P,U41,15,TC*%
%TO.N,unconnected-(U41-TC-Pad15)*%
X76412100Y-48712300D03*
%TO.P,U41,16,VCC*%
%TO.N,VCC*%
X76412100Y-51252300D03*
%TD*%
D12*
%TO.P,C11,1*%
%TO.N,VCC*%
X249000000Y-42420000D03*
%TO.P,C11,2*%
%TO.N,GND*%
X251000000Y-42420000D03*
%TD*%
%TO.P,C39,1*%
%TO.N,VCC*%
X234500000Y-101000000D03*
%TO.P,C39,2*%
%TO.N,GND*%
X234500000Y-99000000D03*
%TD*%
D16*
%TO.P,D31,1,K*%
%TO.N,Net-(D31-K)*%
X205080000Y-161420000D03*
D17*
%TO.P,D31,2,A*%
%TO.N,Net-(D31-A)*%
X207620000Y-161420000D03*
%TD*%
D16*
%TO.P,D116,1,K*%
%TO.N,Net-(D116-K)*%
X177460000Y-39920000D03*
D17*
%TO.P,D116,2,A*%
%TO.N,Net-(D116-A)*%
X180000000Y-39920000D03*
%TD*%
D10*
%TO.P,R32,1*%
%TO.N,Net-(C14-Pad2)*%
X202817100Y-99912300D03*
%TO.P,R32,2*%
%TO.N,GND*%
X195197100Y-99912300D03*
%TD*%
D11*
%TO.P,U6,1*%
%TO.N,Net-(U4-Pad3)*%
X312620000Y-141580000D03*
D10*
%TO.P,U6,2*%
%TO.N,Net-(U4-Pad6)*%
X312620000Y-144120000D03*
%TO.P,U6,3*%
%TO.N,Net-(U4-Pad9)*%
X312620000Y-146660000D03*
%TO.P,U6,4*%
%TO.N,unconnected-(U6-Pad4)*%
X312620000Y-149200000D03*
%TO.P,U6,5*%
%TO.N,unconnected-(U6-Pad5)*%
X312620000Y-151740000D03*
%TO.P,U6,6*%
%TO.N,unconnected-(U6-Pad6)*%
X312620000Y-154280000D03*
%TO.P,U6,7,GND*%
%TO.N,GND*%
X312620000Y-156820000D03*
%TO.P,U6,8*%
%TO.N,unconnected-(U6-Pad8)*%
X320240000Y-156820000D03*
%TO.P,U6,9*%
%TO.N,unconnected-(U6-Pad9)*%
X320240000Y-154280000D03*
%TO.P,U6,10*%
%TO.N,unconnected-(U6-Pad10)*%
X320240000Y-151740000D03*
%TO.P,U6,11*%
%TO.N,unconnected-(U6-Pad11)*%
X320240000Y-149200000D03*
%TO.P,U6,12*%
%TO.N,unconnected-(U6-Pad12)*%
X320240000Y-146660000D03*
%TO.P,U6,13*%
%TO.N,unconnected-(U6-Pad13)*%
X320240000Y-144120000D03*
%TO.P,U6,14,VCC*%
%TO.N,VCC*%
X320240000Y-141580000D03*
%TD*%
D16*
%TO.P,D57,1,K*%
%TO.N,Net-(D57-K)*%
X108902100Y-103552300D03*
D17*
%TO.P,D57,2,A*%
%TO.N,Net-(D57-A)*%
X111442100Y-103552300D03*
%TD*%
D16*
%TO.P,D53,1,K*%
%TO.N,Net-(D53-K)*%
X117787100Y-122412300D03*
D17*
%TO.P,D53,2,A*%
%TO.N,Net-(D53-A)*%
X120327100Y-122412300D03*
%TD*%
D10*
%TO.P,R15,1*%
%TO.N,Net-(D17-K)*%
X271717100Y-109602300D03*
%TO.P,R15,2*%
%TO.N,GND*%
X271717100Y-117222300D03*
%TD*%
%TO.P,R13,1*%
%TO.N,Net-(D15-K)*%
X262167100Y-109542300D03*
%TO.P,R13,2*%
%TO.N,GND*%
X262167100Y-117162300D03*
%TD*%
D16*
%TO.P,D112,1,K*%
%TO.N,Net-(D112-K)*%
X157500000Y-39920000D03*
D17*
%TO.P,D112,2,A*%
%TO.N,IR_7*%
X160040000Y-39920000D03*
%TD*%
D10*
%TO.P,R16,1*%
%TO.N,GND*%
X276917100Y-117352300D03*
%TO.P,R16,2*%
%TO.N,Net-(D18-K)*%
X276917100Y-109732300D03*
%TD*%
D16*
%TO.P,D14,1,K*%
%TO.N,Net-(D14-K)*%
X259460000Y-53920000D03*
D17*
%TO.P,D14,2,A*%
%TO.N,CF*%
X262000000Y-53920000D03*
%TD*%
D12*
%TO.P,C25,1*%
%TO.N,GND*%
X287500000Y-151500000D03*
%TO.P,C25,2*%
%TO.N,VCC*%
X287500000Y-149500000D03*
%TD*%
D10*
%TO.P,R3,1*%
%TO.N,VCC*%
X275507100Y-139162300D03*
%TO.P,R3,2*%
%TO.N,Net-(U2-TR)*%
X283127100Y-139162300D03*
%TD*%
%TO.P,R65,1*%
%TO.N,Net-(D62-K)*%
X53667700Y-106657100D03*
%TO.P,R65,2*%
%TO.N,GND*%
X46047700Y-106657100D03*
%TD*%
%TO.P,R20,1*%
%TO.N,Net-(D20-K)*%
X222197100Y-47272300D03*
%TO.P,R20,2*%
%TO.N,GND*%
X222197100Y-54892300D03*
%TD*%
D16*
%TO.P,D69,1,K*%
%TO.N,Net-(D69-K)*%
X58500000Y-71650000D03*
D17*
%TO.P,D69,2,A*%
%TO.N,BUS_7*%
X58500000Y-69110000D03*
%TD*%
D16*
%TO.P,D13,1,K*%
%TO.N,Net-(D13-K)*%
X257242100Y-103852300D03*
D17*
%TO.P,D13,2,A*%
%TO.N,Net-(D13-A)*%
X259782100Y-103852300D03*
%TD*%
D10*
%TO.P,R79,1*%
%TO.N,BUS_1*%
X36000000Y-99500000D03*
%TO.P,R79,2*%
%TO.N,GND*%
X43620000Y-99500000D03*
%TD*%
%TO.P,R97,1*%
%TO.N,Net-(D028-K)*%
X304460000Y-72670000D03*
%TO.P,R97,2*%
%TO.N,GND*%
X304460000Y-65050000D03*
%TD*%
D18*
%TO.P,U43,1*%
%TO.N,N/C*%
X89442550Y-32020000D03*
D19*
%TO.P,U43,2,A12*%
%TO.N,GND*%
X89442550Y-34560000D03*
%TO.P,U43,3,A7*%
X89442550Y-37100000D03*
%TO.P,U43,4,A6*%
%TO.N,IR_7*%
X89442550Y-39640000D03*
%TO.P,U43,5,A5*%
%TO.N,IR_6*%
X89442550Y-42180000D03*
%TO.P,U43,6,A4*%
%TO.N,IR_5*%
X89442550Y-44720000D03*
%TO.P,U43,7,A3*%
%TO.N,IR_4*%
X89442550Y-47260000D03*
%TO.P,U43,8,A2*%
%TO.N,Net-(D61-A)*%
X89442550Y-49800000D03*
%TO.P,U43,9,A1*%
%TO.N,Net-(D60-A)*%
X89442550Y-52340000D03*
%TO.P,U43,10,A0*%
%TO.N,Net-(D59-A)*%
X89442550Y-54880000D03*
%TO.P,U43,11,I/O0*%
%TO.N,Net-(D45-A)*%
X89442550Y-57420000D03*
%TO.P,U43,12,I/O1*%
%TO.N,Net-(D44-A)*%
X89442550Y-59960000D03*
%TO.P,U43,13,I/O2*%
%TO.N,Net-(D43-A)*%
X89442550Y-62500000D03*
%TO.P,U43,14,GND*%
%TO.N,GND*%
X89442550Y-65040000D03*
%TO.P,U43,15,I/O3*%
%TO.N,Net-(D42-A)*%
X105000050Y-65040000D03*
%TO.P,U43,16,I/O4*%
%TO.N,Net-(D41-A)*%
X105000050Y-62500000D03*
%TO.P,U43,17,I/O5*%
%TO.N,RI*%
X105000050Y-59960000D03*
%TO.P,U43,18,I/O6*%
%TO.N,Net-(D39-A)*%
X105000050Y-57420000D03*
%TO.P,U43,19,I/O7*%
%TO.N,HLT*%
X105000050Y-54880000D03*
%TO.P,U43,20,~{CE}*%
%TO.N,GND*%
X105000050Y-52340000D03*
%TO.P,U43,21,A10*%
X105000050Y-49800000D03*
%TO.P,U43,22,~{OE}*%
X105000050Y-47260000D03*
%TO.P,U43,23,A11*%
X105000050Y-44720000D03*
%TO.P,U43,24,A9*%
%TO.N,ZF*%
X105000050Y-42180000D03*
%TO.P,U43,25,A8*%
%TO.N,CF*%
X105000050Y-39640000D03*
%TO.P,U43,26*%
%TO.N,N/C*%
X105000050Y-37100000D03*
%TO.P,U43,27,~{WE}*%
%TO.N,VCC*%
X105000050Y-34560000D03*
%TO.P,U43,28,VCC*%
X105000050Y-32020000D03*
%TD*%
D12*
%TO.P,C24,1*%
%TO.N,VCC*%
X278000000Y-143500000D03*
%TO.P,C24,2*%
%TO.N,GND*%
X276000000Y-143500000D03*
%TD*%
%TO.P,C30,1*%
%TO.N,VCC*%
X253000000Y-88000000D03*
%TO.P,C30,2*%
%TO.N,GND*%
X253000000Y-86000000D03*
%TD*%
D16*
%TO.P,D17,1,K*%
%TO.N,Net-(D17-K)*%
X271842100Y-103852300D03*
D17*
%TO.P,D17,2,A*%
%TO.N,Net-(D17-A)*%
X274382100Y-103852300D03*
%TD*%
D16*
%TO.P,D59,1,K*%
%TO.N,Net-(D59-K)*%
X102902100Y-86552300D03*
D17*
%TO.P,D59,2,A*%
%TO.N,Net-(D59-A)*%
X105442100Y-86552300D03*
%TD*%
D12*
%TO.P,C68,1*%
%TO.N,VCC*%
X124000000Y-28000000D03*
%TO.P,C68,2*%
%TO.N,GND*%
X124000000Y-26000000D03*
%TD*%
D16*
%TO.P,D115,1,K*%
%TO.N,Net-(D115-K)*%
X172460000Y-39920000D03*
D17*
%TO.P,D115,2,A*%
%TO.N,IR_4*%
X175000000Y-39920000D03*
%TD*%
D20*
%TO.P,SW6,1,1*%
%TO.N,GND*%
X248817100Y-149927300D03*
X242317100Y-149927300D03*
%TO.P,SW6,2,2*%
%TO.N,Net-(U51-I0c)*%
X248817100Y-145427300D03*
X242317100Y-145427300D03*
%TD*%
D16*
%TO.P,D30,1,K*%
%TO.N,Net-(D30-K)*%
X200120000Y-161420000D03*
D17*
%TO.P,D30,2,A*%
%TO.N,Net-(D30-A)*%
X202660000Y-161420000D03*
%TD*%
D11*
%TO.P,U32,1,C*%
%TO.N,Net-(U31-Q)*%
X130383900Y-134069100D03*
D10*
%TO.P,U32,2,~{S}*%
%TO.N,VCC*%
X130383900Y-136609100D03*
%TO.P,U32,3,~{R}*%
X130383900Y-139149100D03*
%TO.P,U32,4,J*%
X130383900Y-141689100D03*
%TO.P,U32,5,VCC*%
X130383900Y-144229100D03*
%TO.P,U32,6,C*%
%TO.N,Net-(U32A-~{Q})*%
X130383900Y-146769100D03*
%TO.P,U32,7,~{S}*%
%TO.N,VCC*%
X130383900Y-149309100D03*
%TO.P,U32,8,~{R}*%
X130383900Y-151849100D03*
%TO.P,U32,9,J*%
X138003900Y-151849100D03*
%TO.P,U32,10,~{Q}*%
%TO.N,Net-(U32B-~{Q})*%
X138003900Y-149309100D03*
%TO.P,U32,11,Q*%
%TO.N,unconnected-(U32B-Q-Pad11)*%
X138003900Y-146769100D03*
%TO.P,U32,12,K*%
%TO.N,VCC*%
X138003900Y-144229100D03*
%TO.P,U32,13,GND*%
%TO.N,GND*%
X138003900Y-141689100D03*
%TO.P,U32,14,~{Q}*%
%TO.N,Net-(U32A-~{Q})*%
X138003900Y-139149100D03*
%TO.P,U32,15,Q*%
%TO.N,unconnected-(U32A-Q-Pad15)*%
X138003900Y-136609100D03*
%TO.P,U32,16,K*%
%TO.N,VCC*%
X138003900Y-134069100D03*
%TD*%
D16*
%TO.P,D50,1,K*%
%TO.N,Net-(D50-K)*%
X102277100Y-122412300D03*
D17*
%TO.P,D50,2,A*%
%TO.N,CE*%
X104817100Y-122412300D03*
%TD*%
D21*
%TO.P,U35,1,E*%
%TO.N,Net-(U34-E)*%
X81636400Y-145879100D03*
D10*
%TO.P,U35,2,D*%
%TO.N,Net-(U34-D)*%
X84176400Y-145879100D03*
%TO.P,U35,3,CC*%
%TO.N,Net-(U33A-O0)*%
X86716400Y-145879100D03*
%TO.P,U35,4,C*%
%TO.N,Net-(U34-C)*%
X89256400Y-145879100D03*
%TO.P,U35,5,DP*%
%TO.N,Net-(U34-DP)*%
X91796400Y-145879100D03*
%TO.P,U35,6,B*%
%TO.N,Net-(U34-B)*%
X91796400Y-130639100D03*
%TO.P,U35,7,A*%
%TO.N,Net-(U34-A)*%
X89256400Y-130639100D03*
%TO.P,U35,8,CC*%
%TO.N,Net-(U33A-O0)*%
X86716400Y-130639100D03*
%TO.P,U35,9,F*%
%TO.N,Net-(U34-F)*%
X84176400Y-130639100D03*
%TO.P,U35,10,G*%
%TO.N,Net-(U34-G)*%
X81636400Y-130639100D03*
%TD*%
D16*
%TO.P,D11,1,K*%
%TO.N,Net-(D11-K)*%
X247477100Y-103852300D03*
D17*
%TO.P,D11,2,A*%
%TO.N,Net-(D11-A)*%
X250017100Y-103852300D03*
%TD*%
D16*
%TO.P,D25,1,K*%
%TO.N,Net-(D25-K)*%
X248710000Y-23500000D03*
D17*
%TO.P,D25,2,A*%
%TO.N,Net-(D25-A)*%
X251250000Y-23500000D03*
%TD*%
D10*
%TO.P,R57,1*%
%TO.N,Net-(D57-A)*%
X111412100Y-98552300D03*
%TO.P,R57,2*%
%TO.N,VCC*%
X111412100Y-90932300D03*
%TD*%
D11*
%TO.P,U33,1,E*%
%TO.N,GND*%
X141163900Y-134069100D03*
D10*
%TO.P,U33,2,A0*%
%TO.N,Net-(U32A-~{Q})*%
X141163900Y-136609100D03*
%TO.P,U33,3,A1*%
%TO.N,Net-(U32B-~{Q})*%
X141163900Y-139149100D03*
%TO.P,U33,4,O0*%
%TO.N,Net-(U33A-O0)*%
X141163900Y-141689100D03*
%TO.P,U33,5,O1*%
%TO.N,Net-(U33A-O1)*%
X141163900Y-144229100D03*
%TO.P,U33,6,O2*%
%TO.N,Net-(U33A-O2)*%
X141163900Y-146769100D03*
%TO.P,U33,7,O3*%
%TO.N,Net-(U33A-O3)*%
X141163900Y-149309100D03*
%TO.P,U33,8,GND*%
%TO.N,GND*%
X141163900Y-151849100D03*
%TO.P,U33,9*%
%TO.N,N/C*%
X148783900Y-151849100D03*
%TO.P,U33,10*%
X148783900Y-149309100D03*
%TO.P,U33,11*%
X148783900Y-146769100D03*
%TO.P,U33,12*%
X148783900Y-144229100D03*
%TO.P,U33,13*%
X148783900Y-141689100D03*
%TO.P,U33,14*%
X148783900Y-139149100D03*
%TO.P,U33,15*%
X148783900Y-136609100D03*
%TO.P,U33,16,VCC*%
%TO.N,VCC*%
X148783900Y-134069100D03*
%TD*%
D16*
%TO.P,D38,1,K*%
%TO.N,Net-(D38-K)*%
X42227100Y-122412300D03*
D17*
%TO.P,D38,2,A*%
%TO.N,HLT*%
X44767100Y-122412300D03*
%TD*%
D10*
%TO.P,R72,1*%
%TO.N,Net-(D69-K)*%
X53667700Y-71657100D03*
%TO.P,R72,2*%
%TO.N,GND*%
X46047700Y-71657100D03*
%TD*%
D12*
%TO.P,C18,1*%
%TO.N,VCC*%
X148666400Y-120379100D03*
%TO.P,C18,2*%
%TO.N,GND*%
X146666400Y-120379100D03*
%TD*%
D16*
%TO.P,D42,1,K*%
%TO.N,Net-(D42-K)*%
X62227100Y-122412300D03*
D17*
%TO.P,D42,2,A*%
%TO.N,Net-(D42-A)*%
X64767100Y-122412300D03*
%TD*%
D16*
%TO.P,D8,1,K*%
%TO.N,Net-(D8-K)*%
X231587100Y-81162300D03*
D17*
%TO.P,D8,2,A*%
%TO.N,/ALU/A_1*%
X229047100Y-81162300D03*
%TD*%
D10*
%TO.P,R52,1*%
%TO.N,Net-(D50-K)*%
X102317100Y-117412300D03*
%TO.P,R52,2*%
%TO.N,GND*%
X102317100Y-109792300D03*
%TD*%
%TO.P,R89,1*%
%TO.N,Net-(D118-K)*%
X187500000Y-34790000D03*
%TO.P,R89,2*%
%TO.N,GND*%
X187500000Y-27170000D03*
%TD*%
%TO.P,R31,1*%
%TO.N,Net-(D33-K)*%
X215120000Y-166300000D03*
%TO.P,R31,2*%
%TO.N,GND*%
X215120000Y-173920000D03*
%TD*%
%TO.P,R5,1*%
%TO.N,VCC*%
X292567100Y-157472300D03*
%TO.P,R5,2*%
%TO.N,Net-(SW2-A)*%
X292567100Y-149852300D03*
%TD*%
D12*
%TO.P,C38,1*%
%TO.N,GND*%
X189000000Y-85000000D03*
%TO.P,C38,2*%
%TO.N,VCC*%
X189000000Y-83000000D03*
%TD*%
D16*
%TO.P,D022,1,K*%
%TO.N,Net-(D022-K)*%
X334460000Y-78920000D03*
D17*
%TO.P,D022,2,A*%
%TO.N,/ALU/B_7*%
X337000000Y-78920000D03*
%TD*%
D10*
%TO.P,R90,1*%
%TO.N,Net-(D119-K)*%
X192500000Y-34920000D03*
%TO.P,R90,2*%
%TO.N,GND*%
X192500000Y-27300000D03*
%TD*%
D12*
%TO.P,C10,1*%
%TO.N,VCC*%
X255993900Y-82749100D03*
%TO.P,C10,2*%
%TO.N,GND*%
X257993900Y-82749100D03*
%TD*%
D22*
%TO.P,U2,1,GND*%
%TO.N,GND*%
X284472100Y-142187300D03*
%TO.P,U2,2,TR*%
%TO.N,Net-(U2-TR)*%
X283202100Y-142187300D03*
%TO.P,U2,3,Q*%
%TO.N,Net-(U2-Q)*%
X281932100Y-142187300D03*
%TO.P,U2,4,R*%
%TO.N,VCC*%
X280662100Y-142187300D03*
%TO.P,U2,5,CV*%
%TO.N,Net-(U2-CV)*%
X280662100Y-147137300D03*
%TO.P,U2,6,THR*%
%TO.N,Net-(U2-DIS)*%
X281932100Y-147137300D03*
%TO.P,U2,7,DIS*%
X283202100Y-147137300D03*
%TO.P,U2,8,VCC*%
%TO.N,VCC*%
X284472100Y-147137300D03*
%TD*%
D12*
%TO.P,C7,1*%
%TO.N,Net-(U1-THR)*%
X317605000Y-107040000D03*
%TO.P,C7,2*%
%TO.N,GND*%
X315605000Y-107040000D03*
%TD*%
D16*
%TO.P,D54,1,K*%
%TO.N,Net-(D54-K)*%
X90872100Y-103552300D03*
D17*
%TO.P,D54,2,A*%
%TO.N,Net-(D54-A)*%
X93412100Y-103552300D03*
%TD*%
D10*
%TO.P,R80,1*%
%TO.N,BUS_0*%
X35880000Y-104000000D03*
%TO.P,R80,2*%
%TO.N,GND*%
X43500000Y-104000000D03*
%TD*%
%TO.P,R74,1*%
%TO.N,BUS_6*%
X63325000Y-92640000D03*
%TO.P,R74,2*%
%TO.N,GND*%
X70945000Y-92640000D03*
%TD*%
D12*
%TO.P,C33,1*%
%TO.N,GND*%
X325500000Y-141500000D03*
%TO.P,C33,2*%
%TO.N,VCC*%
X323500000Y-141500000D03*
%TD*%
D16*
%TO.P,D44,1,K*%
%TO.N,Net-(D44-K)*%
X72277100Y-122412300D03*
D17*
%TO.P,D44,2,A*%
%TO.N,Net-(D44-A)*%
X74817100Y-122412300D03*
%TD*%
D16*
%TO.P,D48,1,K*%
%TO.N,Net-(D48-K)*%
X92277100Y-122412300D03*
D17*
%TO.P,D48,2,A*%
%TO.N,Net-(D48-A)*%
X94817100Y-122412300D03*
%TD*%
D23*
%TO.P,SW5,1*%
%TO.N,Net-(U24-I0d)*%
X176817100Y-143412300D03*
D10*
%TO.P,SW5,2*%
%TO.N,Net-(U24-I0c)*%
X176817100Y-140872300D03*
%TO.P,SW5,3*%
%TO.N,GND*%
X176817100Y-138332300D03*
%TO.P,SW5,4*%
X176817100Y-135792300D03*
%TO.P,SW5,5*%
%TO.N,Net-(U52-I0d)*%
X176817100Y-133252300D03*
%TO.P,SW5,6*%
%TO.N,Net-(U52-I0c)*%
X176817100Y-130712300D03*
%TO.P,SW5,7*%
%TO.N,GND*%
X176817100Y-128172300D03*
%TO.P,SW5,8*%
X176817100Y-125632300D03*
%TO.P,SW5,9*%
%TO.N,Net-(U52-I0a)*%
X169197100Y-125632300D03*
%TO.P,SW5,10*%
%TO.N,Net-(U52-I0b)*%
X169197100Y-128172300D03*
%TO.P,SW5,11*%
%TO.N,GND*%
X169197100Y-130712300D03*
%TO.P,SW5,12*%
X169197100Y-133252300D03*
%TO.P,SW5,13*%
%TO.N,Net-(U24-I0a)*%
X169197100Y-135792300D03*
%TO.P,SW5,14*%
%TO.N,Net-(U24-I0b)*%
X169197100Y-138332300D03*
%TO.P,SW5,15*%
%TO.N,GND*%
X169197100Y-140872300D03*
%TO.P,SW5,16*%
X169197100Y-143412300D03*
%TD*%
D24*
%TO.P,U29,1,A->B*%
%TO.N,GND*%
X143430000Y-66740000D03*
D25*
%TO.P,U29,2,A0*%
%TO.N,unconnected-(U29-A0-Pad2)*%
X143430000Y-69280000D03*
%TO.P,U29,3,A1*%
%TO.N,unconnected-(U29-A1-Pad3)*%
X143430000Y-71820000D03*
%TO.P,U29,4,A2*%
%TO.N,unconnected-(U29-A2-Pad4)*%
X143430000Y-74360000D03*
%TO.P,U29,5,A3*%
%TO.N,unconnected-(U29-A3-Pad5)*%
X143430000Y-76900000D03*
%TO.P,U29,6,A4*%
%TO.N,BUS_3*%
X143430000Y-79440000D03*
%TO.P,U29,7,A5*%
%TO.N,BUS_2*%
X143430000Y-81980000D03*
%TO.P,U29,8,A6*%
%TO.N,BUS_1*%
X143430000Y-84520000D03*
%TO.P,U29,9,A7*%
%TO.N,BUS_0*%
X143430000Y-87060000D03*
%TO.P,U29,10,GND*%
%TO.N,GND*%
X143430000Y-89600000D03*
%TO.P,U29,11,B7*%
%TO.N,Net-(D37-A)*%
X151050000Y-89600000D03*
%TO.P,U29,12,B6*%
%TO.N,Net-(D36-A)*%
X151050000Y-87060000D03*
%TO.P,U29,13,B5*%
%TO.N,Net-(D35-A)*%
X151050000Y-84520000D03*
%TO.P,U29,14,B4*%
%TO.N,Net-(D34-A)*%
X151050000Y-81980000D03*
%TO.P,U29,15,B3*%
%TO.N,unconnected-(U29-B3-Pad15)*%
X151050000Y-79440000D03*
%TO.P,U29,16,B2*%
%TO.N,unconnected-(U29-B2-Pad16)*%
X151050000Y-76900000D03*
%TO.P,U29,17,B1*%
%TO.N,unconnected-(U29-B1-Pad17)*%
X151050000Y-74360000D03*
%TO.P,U29,18,B0*%
%TO.N,unconnected-(U29-B0-Pad18)*%
X151050000Y-71820000D03*
%TO.P,U29,19,CE*%
%TO.N,~{CO}*%
X151050000Y-69280000D03*
%TO.P,U29,20,VCC*%
%TO.N,VCC*%
X151050000Y-66740000D03*
%TD*%
D10*
%TO.P,R39,1*%
%TO.N,Net-(SW7-A)*%
X109356400Y-150879100D03*
%TO.P,R39,2*%
%TO.N,GND*%
X116976400Y-150879100D03*
%TD*%
D12*
%TO.P,C65,1*%
%TO.N,VCC*%
X144000000Y-31500000D03*
%TO.P,C65,2*%
%TO.N,GND*%
X146000000Y-31500000D03*
%TD*%
D16*
%TO.P,D10,1,K*%
%TO.N,Net-(D10-K)*%
X259460000Y-58420000D03*
D17*
%TO.P,D10,2,A*%
%TO.N,ZF*%
X262000000Y-58420000D03*
%TD*%
D16*
%TO.P,D028,1,K*%
%TO.N,Net-(D028-K)*%
X304440000Y-78920000D03*
D17*
%TO.P,D028,2,A*%
%TO.N,/ALU/B_1*%
X306980000Y-78920000D03*
%TD*%
D10*
%TO.P,R44,1*%
%TO.N,Net-(D42-K)*%
X62317100Y-117412300D03*
%TO.P,R44,2*%
%TO.N,GND*%
X62317100Y-109792300D03*
%TD*%
D16*
%TO.P,D20,1,K*%
%TO.N,Net-(D20-K)*%
X222397100Y-42332300D03*
D17*
%TO.P,D20,2,A*%
%TO.N,/MAR/A3*%
X224937100Y-42332300D03*
%TD*%
D23*
%TO.P,U22,1*%
%TO.N,Net-(U52-Za)*%
X202437100Y-142152300D03*
D10*
%TO.P,U22,2*%
%TO.N,Net-(U21-D0)*%
X202437100Y-139612300D03*
%TO.P,U22,3*%
%TO.N,unconnected-(U22-Pad3)*%
X202437100Y-137072300D03*
%TO.P,U22,4*%
%TO.N,unconnected-(U22-Pad4)*%
X202437100Y-134532300D03*
%TO.P,U22,5*%
%TO.N,unconnected-(U22-Pad5)*%
X202437100Y-131992300D03*
%TO.P,U22,6*%
%TO.N,unconnected-(U22-Pad6)*%
X202437100Y-129452300D03*
%TO.P,U22,7,GND*%
%TO.N,GND*%
X202437100Y-126912300D03*
%TO.P,U22,8*%
%TO.N,unconnected-(U22-Pad8)*%
X194817100Y-126912300D03*
%TO.P,U22,9*%
%TO.N,unconnected-(U22-Pad9)*%
X194817100Y-129452300D03*
%TO.P,U22,10*%
%TO.N,unconnected-(U22-Pad10)*%
X194817100Y-131992300D03*
%TO.P,U22,11*%
%TO.N,unconnected-(U22-Pad11)*%
X194817100Y-134532300D03*
%TO.P,U22,12*%
%TO.N,unconnected-(U22-Pad12)*%
X194817100Y-137072300D03*
%TO.P,U22,13*%
%TO.N,unconnected-(U22-Pad13)*%
X194817100Y-139612300D03*
%TO.P,U22,14,VCC*%
%TO.N,VCC*%
X194817100Y-142152300D03*
%TD*%
%TO.P,R69,1*%
%TO.N,Net-(D66-K)*%
X53667700Y-86157100D03*
%TO.P,R69,2*%
%TO.N,GND*%
X46047700Y-86157100D03*
%TD*%
%TO.P,R24,1*%
%TO.N,Net-(D26-K)*%
X180120000Y-166300000D03*
%TO.P,R24,2*%
%TO.N,GND*%
X180120000Y-173920000D03*
%TD*%
%TO.P,R6,1*%
%TO.N,VCC*%
X296317100Y-147222300D03*
%TO.P,R6,2*%
%TO.N,Net-(SW2-C)*%
X296317100Y-139602300D03*
%TD*%
D16*
%TO.P,D025,1,K*%
%TO.N,Net-(D025-K)*%
X319420000Y-78920000D03*
D17*
%TO.P,D025,2,A*%
%TO.N,/ALU/B_4*%
X321960000Y-78920000D03*
%TD*%
D21*
%TO.P,U37,1,E*%
%TO.N,Net-(U34-E)*%
X109736400Y-145879100D03*
D10*
%TO.P,U37,2,D*%
%TO.N,Net-(U34-D)*%
X112276400Y-145879100D03*
%TO.P,U37,3,CC*%
%TO.N,Net-(U33A-O1)*%
X114816400Y-145879100D03*
%TO.P,U37,4,C*%
%TO.N,Net-(U34-C)*%
X117356400Y-145879100D03*
%TO.P,U37,5,DP*%
%TO.N,Net-(U34-DP)*%
X119896400Y-145879100D03*
%TO.P,U37,6,B*%
%TO.N,Net-(U34-B)*%
X119896400Y-130639100D03*
%TO.P,U37,7,A*%
%TO.N,Net-(U34-A)*%
X117356400Y-130639100D03*
%TO.P,U37,8,CC*%
%TO.N,Net-(U33A-O1)*%
X114816400Y-130639100D03*
%TO.P,U37,9,F*%
%TO.N,Net-(U34-F)*%
X112276400Y-130639100D03*
%TO.P,U37,10,G*%
%TO.N,Net-(U34-G)*%
X109736400Y-130639100D03*
%TD*%
D16*
%TO.P,D68,1,K*%
%TO.N,Net-(D68-K)*%
X58500000Y-76650000D03*
D17*
%TO.P,D68,2,A*%
%TO.N,BUS_6*%
X58500000Y-74110000D03*
%TD*%
D10*
%TO.P,R17,1*%
%TO.N,Net-(D19-K)*%
X281917100Y-109602300D03*
%TO.P,R17,2*%
%TO.N,GND*%
X281917100Y-117222300D03*
%TD*%
%TO.P,R71,1*%
%TO.N,Net-(D68-K)*%
X53667700Y-77157100D03*
%TO.P,R71,2*%
%TO.N,GND*%
X46047700Y-77157100D03*
%TD*%
%TO.P,R19,1*%
%TO.N,VCC*%
X251250000Y-35750000D03*
%TO.P,R19,2*%
%TO.N,Net-(D25-A)*%
X251250000Y-28130000D03*
%TD*%
D12*
%TO.P,C17,1*%
%TO.N,Net-(U31-CV)*%
X124166400Y-159879100D03*
%TO.P,C17,2*%
%TO.N,GND*%
X122166400Y-159879100D03*
%TD*%
D16*
%TO.P,D114,1,K*%
%TO.N,Net-(D114-K)*%
X167480000Y-39920000D03*
D17*
%TO.P,D114,2,A*%
%TO.N,IR_5*%
X170020000Y-39920000D03*
%TD*%
D12*
%TO.P,C13,1*%
%TO.N,VCC*%
X237977100Y-112097300D03*
%TO.P,C13,2*%
%TO.N,GND*%
X239977100Y-112097300D03*
%TD*%
D10*
%TO.P,R37,1*%
%TO.N,VCC*%
X162666400Y-134689100D03*
%TO.P,R37,2*%
%TO.N,Net-(U31-DIS)*%
X162666400Y-127069100D03*
%TD*%
%TO.P,R33,1*%
%TO.N,GND*%
X157990000Y-91790000D03*
%TO.P,R33,2*%
%TO.N,Net-(D34-K)*%
X157990000Y-84170000D03*
%TD*%
%TO.P,R62,1*%
%TO.N,Net-(D60-K)*%
X108912100Y-81552300D03*
%TO.P,R62,2*%
%TO.N,GND*%
X108912100Y-73932300D03*
%TD*%
D16*
%TO.P,D61,1,K*%
%TO.N,Net-(D61-K)*%
X114922100Y-86552300D03*
D17*
%TO.P,D61,2,A*%
%TO.N,Net-(D61-A)*%
X117462100Y-86552300D03*
%TD*%
D16*
%TO.P,D21,1,K*%
%TO.N,Net-(D21-K)*%
X228407100Y-42332300D03*
D17*
%TO.P,D21,2,A*%
%TO.N,/MAR/A2*%
X230947100Y-42332300D03*
%TD*%
D11*
%TO.P,U13,1,S2*%
%TO.N,Net-(D13-A)*%
X276940000Y-45670000D03*
D10*
%TO.P,U13,2,B2*%
%TO.N,Net-(U13-B2)*%
X276940000Y-48210000D03*
%TO.P,U13,3,A2*%
%TO.N,/ALU/A_5*%
X276940000Y-50750000D03*
%TO.P,U13,4,S1*%
%TO.N,Net-(D15-A)*%
X276940000Y-53290000D03*
%TO.P,U13,5,A1*%
%TO.N,/ALU/A_4*%
X276940000Y-55830000D03*
%TO.P,U13,6,B1*%
%TO.N,Net-(U13-B1)*%
X276940000Y-58370000D03*
%TO.P,U13,7,C0*%
%TO.N,Net-(U13-C0)*%
X276940000Y-60910000D03*
%TO.P,U13,8,GND*%
%TO.N,GND*%
X276940000Y-63450000D03*
%TO.P,U13,9,C4*%
%TO.N,Net-(U12-D0)*%
X284560000Y-63450000D03*
%TO.P,U13,10,S4*%
%TO.N,Net-(D11-A)*%
X284560000Y-60910000D03*
%TO.P,U13,11,B4*%
%TO.N,Net-(U13-B4)*%
X284560000Y-58370000D03*
%TO.P,U13,12,A4*%
%TO.N,/ALU/A_7*%
X284560000Y-55830000D03*
%TO.P,U13,13,S3*%
%TO.N,Net-(D12-A)*%
X284560000Y-53290000D03*
%TO.P,U13,14,A3*%
%TO.N,/ALU/A_6*%
X284560000Y-50750000D03*
%TO.P,U13,15,B3*%
%TO.N,Net-(U13-B3)*%
X284560000Y-48210000D03*
%TO.P,U13,16,VCC*%
%TO.N,VCC*%
X284560000Y-45670000D03*
%TD*%
%TO.P,R91,1*%
%TO.N,Net-(D022-K)*%
X334460000Y-72670000D03*
%TO.P,R91,2*%
%TO.N,GND*%
X334460000Y-65050000D03*
%TD*%
%TO.P,R47,1*%
%TO.N,Net-(D45-K)*%
X77317100Y-117412300D03*
%TO.P,R47,2*%
%TO.N,GND*%
X77317100Y-109792300D03*
%TD*%
%TO.P,R81,1*%
%TO.N,Net-(J1-CC2)*%
X30380000Y-112420000D03*
%TO.P,R81,2*%
%TO.N,GND*%
X38000000Y-112420000D03*
%TD*%
D16*
%TO.P,D027,1,K*%
%TO.N,Net-(D027-K)*%
X309440000Y-78920000D03*
D17*
%TO.P,D027,2,A*%
%TO.N,/ALU/B_2*%
X311980000Y-78920000D03*
%TD*%
D10*
%TO.P,R60,1*%
%TO.N,Net-(D54-A)*%
X93412100Y-98672300D03*
%TO.P,R60,2*%
%TO.N,VCC*%
X93412100Y-91052300D03*
%TD*%
D11*
%TO.P,U24,1,S*%
%TO.N,/MAR/PROG*%
X184417100Y-125657300D03*
D10*
%TO.P,U24,2,I0a*%
%TO.N,Net-(U24-I0a)*%
X184417100Y-128197300D03*
%TO.P,U24,3,I1a*%
%TO.N,BUS_3*%
X184417100Y-130737300D03*
%TO.P,U24,4,Za*%
%TO.N,Net-(U24-Za)*%
X184417100Y-133277300D03*
%TO.P,U24,5,I0b*%
%TO.N,Net-(U24-I0b)*%
X184417100Y-135817300D03*
%TO.P,U24,6,I1b*%
%TO.N,BUS_2*%
X184417100Y-138357300D03*
%TO.P,U24,7,Zb*%
%TO.N,Net-(U24-Zb)*%
X184417100Y-140897300D03*
%TO.P,U24,8,GND*%
%TO.N,GND*%
X184417100Y-143437300D03*
%TO.P,U24,9,Zd*%
%TO.N,Net-(U24-Zd)*%
X192037100Y-143437300D03*
%TO.P,U24,10,I1d*%
%TO.N,BUS_0*%
X192037100Y-140897300D03*
%TO.P,U24,11,I0d*%
%TO.N,Net-(U24-I0d)*%
X192037100Y-138357300D03*
%TO.P,U24,12,Zc*%
%TO.N,Net-(U24-Zc)*%
X192037100Y-135817300D03*
%TO.P,U24,13,I1c*%
%TO.N,BUS_1*%
X192037100Y-133277300D03*
%TO.P,U24,14,I0c*%
%TO.N,Net-(U24-I0c)*%
X192037100Y-130737300D03*
%TO.P,U24,15,E*%
%TO.N,GND*%
X192037100Y-128197300D03*
%TO.P,U24,16,VCC*%
%TO.N,VCC*%
X192037100Y-125657300D03*
%TD*%
D16*
%TO.P,D27,1,K*%
%TO.N,Net-(D27-K)*%
X185130000Y-161420000D03*
D17*
%TO.P,D27,2,A*%
%TO.N,Net-(D27-A)*%
X187670000Y-161420000D03*
%TD*%
D10*
%TO.P,R1,1*%
%TO.N,VCC*%
X293007100Y-127412300D03*
%TO.P,R1,2*%
%TO.N,Net-(U1-DIS)*%
X300627100Y-127412300D03*
%TD*%
%TO.P,R4,1*%
%TO.N,VCC*%
X282067100Y-157532300D03*
%TO.P,R4,2*%
%TO.N,Net-(U2-DIS)*%
X282067100Y-149912300D03*
%TD*%
D16*
%TO.P,D29,1,K*%
%TO.N,Net-(D29-K)*%
X195120000Y-161420000D03*
D17*
%TO.P,D29,2,A*%
%TO.N,Net-(D29-A)*%
X197660000Y-161420000D03*
%TD*%
D10*
%TO.P,R70,1*%
%TO.N,Net-(D67-K)*%
X53667700Y-81657100D03*
%TO.P,R70,2*%
%TO.N,GND*%
X46047700Y-81657100D03*
%TD*%
D16*
%TO.P,D22,1,K*%
%TO.N,Net-(D22-K)*%
X234417100Y-42332300D03*
D17*
%TO.P,D22,2,A*%
%TO.N,/MAR/A1*%
X236957100Y-42332300D03*
%TD*%
D10*
%TO.P,R35,1*%
%TO.N,GND*%
X170240000Y-91790000D03*
%TO.P,R35,2*%
%TO.N,Net-(D36-K)*%
X170240000Y-84170000D03*
%TD*%
D16*
%TO.P,D56,1,K*%
%TO.N,Net-(D56-K)*%
X102892100Y-103552300D03*
D17*
%TO.P,D56,2,A*%
%TO.N,Net-(D56-A)*%
X105432100Y-103552300D03*
%TD*%
D14*
%TO.P,U30,1,~{MR}*%
%TO.N,~{CLR}*%
X176740000Y-66300000D03*
D15*
%TO.P,U30,2,CP*%
%TO.N,CLK*%
X174200000Y-66300000D03*
%TO.P,U30,3,D0*%
%TO.N,BUS_0*%
X171660000Y-66300000D03*
%TO.P,U30,4,D1*%
%TO.N,BUS_1*%
X169120000Y-66300000D03*
%TO.P,U30,5,D2*%
%TO.N,BUS_2*%
X166580000Y-66300000D03*
%TO.P,U30,6,D3*%
%TO.N,BUS_3*%
X164040000Y-66300000D03*
%TO.P,U30,7,CEP*%
%TO.N,CE*%
X161500000Y-66300000D03*
%TO.P,U30,8,GND*%
%TO.N,GND*%
X158960000Y-66300000D03*
%TO.P,U30,9,~{PE}*%
%TO.N,~{J}*%
X158960000Y-73920000D03*
%TO.P,U30,10,CET*%
%TO.N,CE*%
X161500000Y-73920000D03*
%TO.P,U30,11,Q3*%
%TO.N,Net-(D34-A)*%
X164040000Y-73920000D03*
%TO.P,U30,12,Q2*%
%TO.N,Net-(D35-A)*%
X166580000Y-73920000D03*
%TO.P,U30,13,Q1*%
%TO.N,Net-(D36-A)*%
X169120000Y-73920000D03*
%TO.P,U30,14,Q0*%
%TO.N,Net-(D37-A)*%
X171660000Y-73920000D03*
%TO.P,U30,15,TC*%
%TO.N,unconnected-(U30-TC-Pad15)*%
X174200000Y-73920000D03*
%TO.P,U30,16,VCC*%
%TO.N,VCC*%
X176740000Y-73920000D03*
%TD*%
D16*
%TO.P,D41,1,K*%
%TO.N,Net-(D41-K)*%
X57227100Y-122412300D03*
D17*
%TO.P,D41,2,A*%
%TO.N,Net-(D41-A)*%
X59767100Y-122412300D03*
%TD*%
D12*
%TO.P,C29,1*%
%TO.N,VCC*%
X310000000Y-45500000D03*
%TO.P,C29,2*%
%TO.N,GND*%
X312000000Y-45500000D03*
%TD*%
D16*
%TO.P,D46,1,K*%
%TO.N,Net-(D46-K)*%
X82277100Y-122412300D03*
D17*
%TO.P,D46,2,A*%
%TO.N,Net-(D46-A)*%
X84817100Y-122412300D03*
%TD*%
D10*
%TO.P,R36,1*%
%TO.N,GND*%
X175990000Y-91790000D03*
%TO.P,R36,2*%
%TO.N,Net-(D37-K)*%
X175990000Y-84170000D03*
%TD*%
%TO.P,R55,1*%
%TO.N,Net-(D53-K)*%
X117817100Y-117412300D03*
%TO.P,R55,2*%
%TO.N,GND*%
X117817100Y-109792300D03*
%TD*%
D14*
%TO.P,U19,1,Oe1*%
%TO.N,GND*%
X269000000Y-23180000D03*
D15*
%TO.P,U19,2,Oe2*%
X269000000Y-25720000D03*
%TO.P,U19,3,Q0*%
%TO.N,Net-(U18-I1a)*%
X269000000Y-28260000D03*
%TO.P,U19,4,Q1*%
%TO.N,Net-(U18-I1b)*%
X269000000Y-30800000D03*
%TO.P,U19,5,Q2*%
%TO.N,Net-(U18-I1c)*%
X269000000Y-33340000D03*
%TO.P,U19,6,Q3*%
%TO.N,Net-(U18-I1d)*%
X269000000Y-35880000D03*
%TO.P,U19,7,Cp*%
%TO.N,CLK*%
X269000000Y-38420000D03*
%TO.P,U19,8,GND*%
%TO.N,GND*%
X269000000Y-40960000D03*
%TO.P,U19,9,E1*%
%TO.N,~{MI}*%
X276620000Y-40960000D03*
%TO.P,U19,10,E2*%
X276620000Y-38420000D03*
%TO.P,U19,11,D3*%
%TO.N,BUS_0*%
X276620000Y-35880000D03*
%TO.P,U19,12,D2*%
%TO.N,BUS_1*%
X276620000Y-33340000D03*
%TO.P,U19,13,D1*%
%TO.N,BUS_2*%
X276620000Y-30800000D03*
%TO.P,U19,14,D0*%
%TO.N,BUS_3*%
X276620000Y-28260000D03*
%TO.P,U19,15,Mr*%
%TO.N,CLR*%
X276620000Y-25720000D03*
%TO.P,U19,16,VCC*%
%TO.N,VCC*%
X276620000Y-23180000D03*
%TD*%
D12*
%TO.P,C118,1*%
%TO.N,VCC*%
X199817100Y-54712300D03*
%TO.P,C118,2*%
%TO.N,GND*%
X201817100Y-54712300D03*
%TD*%
D11*
%TO.P,U10,1*%
%TO.N,Net-(U10-Pad1)*%
X298500000Y-45680000D03*
D10*
%TO.P,U10,2*%
%TO.N,Net-(U10-Pad2)*%
X298500000Y-48220000D03*
%TO.P,U10,3*%
%TO.N,Net-(U10-Pad3)*%
X298500000Y-50760000D03*
%TO.P,U10,4*%
%TO.N,Net-(U10-Pad4)*%
X298500000Y-53300000D03*
%TO.P,U10,5*%
%TO.N,Net-(U10-Pad3)*%
X298500000Y-55840000D03*
%TO.P,U10,6*%
%TO.N,Net-(U12-D1)*%
X298500000Y-58380000D03*
%TO.P,U10,7,GND*%
%TO.N,GND*%
X298500000Y-60920000D03*
%TO.P,U10,8*%
%TO.N,Net-(U10-Pad4)*%
X306120000Y-60920000D03*
%TO.P,U10,9*%
%TO.N,Net-(U10-Pad9)*%
X306120000Y-58380000D03*
%TO.P,U10,10*%
%TO.N,Net-(U10-Pad10)*%
X306120000Y-55840000D03*
%TO.P,U10,11*%
%TO.N,unconnected-(U10-Pad11)*%
X306120000Y-53300000D03*
%TO.P,U10,12*%
%TO.N,unconnected-(U10-Pad12)*%
X306120000Y-50760000D03*
%TO.P,U10,13*%
%TO.N,unconnected-(U10-Pad13)*%
X306120000Y-48220000D03*
%TO.P,U10,14,VCC*%
%TO.N,VCC*%
X306120000Y-45680000D03*
%TD*%
D26*
%TO.P,SW7,1,A*%
%TO.N,Net-(SW7-A)*%
X108766400Y-156129100D03*
%TO.P,SW7,2,B*%
%TO.N,Net-(SW7-B)*%
X111266400Y-156129100D03*
%TO.P,SW7,3,C*%
%TO.N,VCC*%
X113766400Y-156129100D03*
%TD*%
D10*
%TO.P,R88,1*%
%TO.N,Net-(D117-K)*%
X182500000Y-34920000D03*
%TO.P,R88,2*%
%TO.N,GND*%
X182500000Y-27300000D03*
%TD*%
D14*
%TO.P,U11,1*%
%TO.N,Net-(U10-Pad2)*%
X266848400Y-70180000D03*
D15*
%TO.P,U11,2*%
%TO.N,Net-(D11-A)*%
X266848400Y-72720000D03*
%TO.P,U11,3*%
%TO.N,Net-(D12-A)*%
X266848400Y-75260000D03*
%TO.P,U11,4*%
%TO.N,Net-(U10-Pad1)*%
X266848400Y-77800000D03*
%TO.P,U11,5*%
%TO.N,Net-(D13-A)*%
X266848400Y-80340000D03*
%TO.P,U11,6*%
%TO.N,Net-(D15-A)*%
X266848400Y-82880000D03*
%TO.P,U11,7,GND*%
%TO.N,GND*%
X266848400Y-85420000D03*
%TO.P,U11,8*%
%TO.N,Net-(D16-A)*%
X274468400Y-85420000D03*
%TO.P,U11,9*%
%TO.N,Net-(D17-A)*%
X274468400Y-82880000D03*
%TO.P,U11,10*%
%TO.N,Net-(U10-Pad10)*%
X274468400Y-80340000D03*
%TO.P,U11,11*%
%TO.N,Net-(D18-A)*%
X274468400Y-77800000D03*
%TO.P,U11,12*%
%TO.N,Net-(D19-A)*%
X274468400Y-75260000D03*
%TO.P,U11,13*%
%TO.N,Net-(U10-Pad9)*%
X274468400Y-72720000D03*
%TO.P,U11,14,VCC*%
%TO.N,VCC*%
X274468400Y-70180000D03*
%TD*%
D20*
%TO.P,SW1,1,1*%
%TO.N,GND*%
X283067100Y-131162300D03*
X289567100Y-131162300D03*
%TO.P,SW1,2,2*%
%TO.N,Net-(U2-TR)*%
X283067100Y-135662300D03*
X289567100Y-135662300D03*
%TD*%
D16*
%TO.P,D28,1,K*%
%TO.N,Net-(D28-K)*%
X190120000Y-161420000D03*
D17*
%TO.P,D28,2,A*%
%TO.N,Net-(D28-A)*%
X192660000Y-161420000D03*
%TD*%
D10*
%TO.P,R77,1*%
%TO.N,BUS_3*%
X36000000Y-89000000D03*
%TO.P,R77,2*%
%TO.N,GND*%
X43620000Y-89000000D03*
%TD*%
%TO.P,R58,1*%
%TO.N,Net-(D56-A)*%
X105412100Y-98862300D03*
%TO.P,R58,2*%
%TO.N,VCC*%
X105412100Y-91242300D03*
%TD*%
D12*
%TO.P,C26,1*%
%TO.N,VCC*%
X293500000Y-71000000D03*
%TO.P,C26,2*%
%TO.N,GND*%
X295500000Y-71000000D03*
%TD*%
D10*
%TO.P,R59,1*%
%TO.N,Net-(D55-A)*%
X99912100Y-98672300D03*
%TO.P,R59,2*%
%TO.N,VCC*%
X99912100Y-91052300D03*
%TD*%
%TO.P,R2,1*%
%TO.N,Net-(U1-DIS)*%
X309545000Y-111540000D03*
%TO.P,R2,2*%
%TO.N,Net-(R2-Pad2)*%
X317165000Y-111540000D03*
%TD*%
D16*
%TO.P,D40,1,K*%
%TO.N,Net-(D40-K)*%
X52227100Y-122412300D03*
D17*
%TO.P,D40,2,A*%
%TO.N,RI*%
X54767100Y-122412300D03*
%TD*%
D12*
%TO.P,C31,1*%
%TO.N,VCC*%
X220000000Y-26000000D03*
%TO.P,C31,2*%
%TO.N,GND*%
X220000000Y-24000000D03*
%TD*%
%TO.P,C64,1*%
%TO.N,VCC*%
X223500000Y-101000000D03*
%TO.P,C64,2*%
%TO.N,GND*%
X223500000Y-99000000D03*
%TD*%
D10*
%TO.P,C4,1*%
%TO.N,GND*%
X293317100Y-134162300D03*
%TO.P,C4,2*%
%TO.N,Net-(U3-CV)*%
X293317100Y-136662300D03*
%TD*%
%TO.P,R93,1*%
%TO.N,Net-(D024-K)*%
X324210000Y-72730000D03*
%TO.P,R93,2*%
%TO.N,GND*%
X324210000Y-65110000D03*
%TD*%
D16*
%TO.P,D2,1,K*%
%TO.N,Net-(D2-K)*%
X201507100Y-81162300D03*
D17*
%TO.P,D2,2,A*%
%TO.N,/ALU/A_7*%
X198967100Y-81162300D03*
%TD*%
D10*
%TO.P,R86,1*%
%TO.N,Net-(D115-K)*%
X172500000Y-34920000D03*
%TO.P,R86,2*%
%TO.N,GND*%
X172500000Y-27300000D03*
%TD*%
D16*
%TO.P,D47,1,K*%
%TO.N,Net-(D47-K)*%
X87277100Y-122412300D03*
D17*
%TO.P,D47,2,A*%
%TO.N,SU*%
X89817100Y-122412300D03*
%TD*%
D21*
%TO.P,U34,1,E*%
%TO.N,Net-(U34-E)*%
X67586400Y-145879100D03*
D10*
%TO.P,U34,2,D*%
%TO.N,Net-(U34-D)*%
X70126400Y-145879100D03*
%TO.P,U34,3,CC*%
%TO.N,Net-(U33A-O3)*%
X72666400Y-145879100D03*
%TO.P,U34,4,C*%
%TO.N,Net-(U34-C)*%
X75206400Y-145879100D03*
%TO.P,U34,5,DP*%
%TO.N,Net-(U34-DP)*%
X77746400Y-145879100D03*
%TO.P,U34,6,B*%
%TO.N,Net-(U34-B)*%
X77746400Y-130639100D03*
%TO.P,U34,7,A*%
%TO.N,Net-(U34-A)*%
X75206400Y-130639100D03*
%TO.P,U34,8,CC*%
%TO.N,Net-(U33A-O3)*%
X72666400Y-130639100D03*
%TO.P,U34,9,F*%
%TO.N,Net-(U34-F)*%
X70126400Y-130639100D03*
%TO.P,U34,10,G*%
%TO.N,Net-(U34-G)*%
X67586400Y-130639100D03*
%TD*%
D12*
%TO.P,C37,1*%
%TO.N,VCC*%
X213000000Y-101000000D03*
%TO.P,C37,2*%
%TO.N,GND*%
X213000000Y-99000000D03*
%TD*%
D24*
%TO.P,U25,1,A->B*%
%TO.N,VCC*%
X187760000Y-153920000D03*
D25*
%TO.P,U25,2,A0*%
%TO.N,Net-(D26-A)*%
X190300000Y-153920000D03*
%TO.P,U25,3,A1*%
%TO.N,Net-(D27-A)*%
X192840000Y-153920000D03*
%TO.P,U25,4,A2*%
%TO.N,Net-(D28-A)*%
X195380000Y-153920000D03*
%TO.P,U25,5,A3*%
%TO.N,Net-(D29-A)*%
X197920000Y-153920000D03*
%TO.P,U25,6,A4*%
%TO.N,Net-(D30-A)*%
X200460000Y-153920000D03*
%TO.P,U25,7,A5*%
%TO.N,Net-(D31-A)*%
X203000000Y-153920000D03*
%TO.P,U25,8,A6*%
%TO.N,Net-(D32-A)*%
X205540000Y-153920000D03*
%TO.P,U25,9,A7*%
%TO.N,Net-(D33-A)*%
X208080000Y-153920000D03*
%TO.P,U25,10,GND*%
%TO.N,GND*%
X210620000Y-153920000D03*
%TO.P,U25,11,B7*%
%TO.N,BUS_0*%
X210620000Y-146300000D03*
%TO.P,U25,12,B6*%
%TO.N,BUS_1*%
X208080000Y-146300000D03*
%TO.P,U25,13,B5*%
%TO.N,BUS_2*%
X205540000Y-146300000D03*
%TO.P,U25,14,B4*%
%TO.N,BUS_3*%
X203000000Y-146300000D03*
%TO.P,U25,15,B3*%
%TO.N,BUS_4*%
X200460000Y-146300000D03*
%TO.P,U25,16,B2*%
%TO.N,BUS_5*%
X197920000Y-146300000D03*
%TO.P,U25,17,B1*%
%TO.N,BUS_6*%
X195380000Y-146300000D03*
%TO.P,U25,18,B0*%
%TO.N,BUS_7*%
X192840000Y-146300000D03*
%TO.P,U25,19,CE*%
%TO.N,~{RO}*%
X190300000Y-146300000D03*
%TO.P,U25,20,VCC*%
%TO.N,VCC*%
X187760000Y-146300000D03*
%TD*%
D16*
%TO.P,D026,1,K*%
%TO.N,Net-(D026-K)*%
X314460000Y-78920000D03*
D17*
%TO.P,D026,2,A*%
%TO.N,/ALU/B_3*%
X317000000Y-78920000D03*
%TD*%
D10*
%TO.P,R98,1*%
%TO.N,Net-(D029-K)*%
X299460000Y-72670000D03*
%TO.P,R98,2*%
%TO.N,GND*%
X299460000Y-65050000D03*
%TD*%
D12*
%TO.P,C44,1*%
%TO.N,VCC*%
X184000000Y-154000000D03*
%TO.P,C44,2*%
%TO.N,GND*%
X182000000Y-154000000D03*
%TD*%
D10*
%TO.P,R34,1*%
%TO.N,GND*%
X163990000Y-91790000D03*
%TO.P,R34,2*%
%TO.N,Net-(D35-K)*%
X163990000Y-84170000D03*
%TD*%
%TO.P,R102,1*%
%TO.N,Net-(D5-K)*%
X216567100Y-85662300D03*
%TO.P,R102,2*%
%TO.N,GND*%
X216567100Y-93282300D03*
%TD*%
D24*
%TO.P,U48,1,A->B*%
%TO.N,VCC*%
X205957100Y-72282300D03*
D25*
%TO.P,U48,2,A0*%
%TO.N,/ALU/A_4*%
X208497100Y-72282300D03*
%TO.P,U48,3,A1*%
%TO.N,/ALU/A_5*%
X211037100Y-72282300D03*
%TO.P,U48,4,A2*%
%TO.N,/ALU/A_6*%
X213577100Y-72282300D03*
%TO.P,U48,5,A3*%
%TO.N,/ALU/A_7*%
X216117100Y-72282300D03*
%TO.P,U48,6,A4*%
%TO.N,/ALU/A_0*%
X218657100Y-72282300D03*
%TO.P,U48,7,A5*%
%TO.N,/ALU/A_1*%
X221197100Y-72282300D03*
%TO.P,U48,8,A6*%
%TO.N,/ALU/A_2*%
X223737100Y-72282300D03*
%TO.P,U48,9,A7*%
%TO.N,/ALU/A_3*%
X226277100Y-72282300D03*
%TO.P,U48,10,GND*%
%TO.N,GND*%
X228817100Y-72282300D03*
%TO.P,U48,11,B7*%
%TO.N,BUS_0*%
X228817100Y-64662300D03*
%TO.P,U48,12,B6*%
%TO.N,BUS_1*%
X226277100Y-64662300D03*
%TO.P,U48,13,B5*%
%TO.N,BUS_2*%
X223737100Y-64662300D03*
%TO.P,U48,14,B4*%
%TO.N,BUS_3*%
X221197100Y-64662300D03*
%TO.P,U48,15,B3*%
%TO.N,BUS_4*%
X218657100Y-64662300D03*
%TO.P,U48,16,B2*%
%TO.N,BUS_5*%
X216117100Y-64662300D03*
%TO.P,U48,17,B1*%
%TO.N,BUS_6*%
X213577100Y-64662300D03*
%TO.P,U48,18,B0*%
%TO.N,BUS_7*%
X211037100Y-64662300D03*
%TO.P,U48,19,CE*%
%TO.N,~{AO}*%
X208497100Y-64662300D03*
%TO.P,U48,20,VCC*%
%TO.N,VCC*%
X205957100Y-64662300D03*
%TD*%
D16*
%TO.P,D029,1,K*%
%TO.N,Net-(D029-K)*%
X299440000Y-78920000D03*
D17*
%TO.P,D029,2,A*%
%TO.N,/ALU/B_0*%
X301980000Y-78920000D03*
%TD*%
D12*
%TO.P,C66,1*%
%TO.N,VCC*%
X73500000Y-51500000D03*
%TO.P,C66,2*%
%TO.N,GND*%
X71500000Y-51500000D03*
%TD*%
D10*
%TO.P,R28,1*%
%TO.N,Net-(D30-K)*%
X200620000Y-166300000D03*
%TO.P,R28,2*%
%TO.N,GND*%
X200620000Y-173920000D03*
%TD*%
D12*
%TO.P,C23,1*%
%TO.N,VCC*%
X289000000Y-102000000D03*
%TO.P,C23,2*%
%TO.N,GND*%
X289000000Y-100000000D03*
%TD*%
D14*
%TO.P,U26,1*%
%TO.N,Net-(C14-Pad2)*%
X205461600Y-105325000D03*
D15*
%TO.P,U26,2*%
%TO.N,RI*%
X205461600Y-107865000D03*
%TO.P,U26,3*%
%TO.N,Net-(U51-I1c)*%
X205461600Y-110405000D03*
%TO.P,U26,4*%
%TO.N,~{CLR}*%
X205461600Y-112945000D03*
%TO.P,U26,5*%
%TO.N,Net-(U42-O5)*%
X205461600Y-115485000D03*
%TO.P,U26,6*%
%TO.N,Net-(U26-Pad6)*%
X205461600Y-118025000D03*
%TO.P,U26,7,GND*%
%TO.N,GND*%
X205461600Y-120565000D03*
%TO.P,U26,8*%
%TO.N,~{CLR}*%
X213081600Y-120565000D03*
%TO.P,U26,9*%
%TO.N,Net-(R64-Pad1)*%
X213081600Y-118025000D03*
%TO.P,U26,10*%
X213081600Y-115485000D03*
%TO.P,U26,11*%
%TO.N,CLR*%
X213081600Y-112945000D03*
%TO.P,U26,12*%
%TO.N,~{CLR}*%
X213081600Y-110405000D03*
%TO.P,U26,13*%
X213081600Y-107865000D03*
%TO.P,U26,14,VCC*%
%TO.N,VCC*%
X213081600Y-105325000D03*
%TD*%
D16*
%TO.P,D1,1,K*%
%TO.N,Net-(D1-K)*%
X271297100Y-134912300D03*
D17*
%TO.P,D1,2,A*%
%TO.N,CLK*%
X273837100Y-134912300D03*
%TD*%
D16*
%TO.P,D9,1,K*%
%TO.N,Net-(D9-K)*%
X236587100Y-81162300D03*
D17*
%TO.P,D9,2,A*%
%TO.N,/ALU/A_0*%
X234047100Y-81162300D03*
%TD*%
D12*
%TO.P,C52,1*%
%TO.N,VCC*%
X295500000Y-42000000D03*
%TO.P,C52,2*%
%TO.N,GND*%
X295500000Y-40000000D03*
%TD*%
D16*
%TO.P,D113,1,K*%
%TO.N,Net-(D113-K)*%
X162480000Y-39920000D03*
D17*
%TO.P,D113,2,A*%
%TO.N,IR_6*%
X165020000Y-39920000D03*
%TD*%
D24*
%TO.P,U17,1,A->B*%
%TO.N,VCC*%
X252737100Y-98412300D03*
D25*
%TO.P,U17,2,A0*%
%TO.N,Net-(D11-A)*%
X255277100Y-98412300D03*
%TO.P,U17,3,A1*%
%TO.N,Net-(D12-A)*%
X257817100Y-98412300D03*
%TO.P,U17,4,A2*%
%TO.N,Net-(D13-A)*%
X260357100Y-98412300D03*
%TO.P,U17,5,A3*%
%TO.N,Net-(D15-A)*%
X262897100Y-98412300D03*
%TO.P,U17,6,A4*%
%TO.N,Net-(D16-A)*%
X265437100Y-98412300D03*
%TO.P,U17,7,A5*%
%TO.N,Net-(D17-A)*%
X267977100Y-98412300D03*
%TO.P,U17,8,A6*%
%TO.N,Net-(D18-A)*%
X270517100Y-98412300D03*
%TO.P,U17,9,A7*%
%TO.N,Net-(D19-A)*%
X273057100Y-98412300D03*
%TO.P,U17,10,GND*%
%TO.N,GND*%
X275597100Y-98412300D03*
%TO.P,U17,11,B7*%
%TO.N,BUS_0*%
X275597100Y-90792300D03*
%TO.P,U17,12,B6*%
%TO.N,BUS_1*%
X273057100Y-90792300D03*
%TO.P,U17,13,B5*%
%TO.N,BUS_2*%
X270517100Y-90792300D03*
%TO.P,U17,14,B4*%
%TO.N,BUS_3*%
X267977100Y-90792300D03*
%TO.P,U17,15,B3*%
%TO.N,BUS_4*%
X265437100Y-90792300D03*
%TO.P,U17,16,B2*%
%TO.N,BUS_5*%
X262897100Y-90792300D03*
%TO.P,U17,17,B1*%
%TO.N,BUS_6*%
X260357100Y-90792300D03*
%TO.P,U17,18,B0*%
%TO.N,BUS_7*%
X257817100Y-90792300D03*
%TO.P,U17,19,CE*%
%TO.N,~{EO}*%
X255277100Y-90792300D03*
%TO.P,U17,20,VCC*%
%TO.N,VCC*%
X252737100Y-90792300D03*
%TD*%
D12*
%TO.P,C45,1*%
%TO.N,VCC*%
X216500000Y-126000000D03*
%TO.P,C45,2*%
%TO.N,GND*%
X218500000Y-126000000D03*
%TD*%
%TO.P,C22,1*%
%TO.N,VCC*%
X202067100Y-74282300D03*
%TO.P,C22,2*%
%TO.N,GND*%
X200067100Y-74282300D03*
%TD*%
D14*
%TO.P,U18,1,S*%
%TO.N,/MAR/PROG*%
X219800000Y-36540000D03*
D15*
%TO.P,U18,2,I0a*%
%TO.N,Net-(U18-I0a)*%
X222340000Y-36540000D03*
%TO.P,U18,3,I1a*%
%TO.N,Net-(U18-I1a)*%
X224880000Y-36540000D03*
%TO.P,U18,4,Za*%
%TO.N,/MAR/A3*%
X227420000Y-36540000D03*
%TO.P,U18,5,I0b*%
%TO.N,Net-(U18-I0b)*%
X229960000Y-36540000D03*
%TO.P,U18,6,I1b*%
%TO.N,Net-(U18-I1b)*%
X232500000Y-36540000D03*
%TO.P,U18,7,Zb*%
%TO.N,/MAR/A2*%
X235040000Y-36540000D03*
%TO.P,U18,8,GND*%
%TO.N,GND*%
X237580000Y-36540000D03*
%TO.P,U18,9,Zc*%
%TO.N,/MAR/A1*%
X237580000Y-28920000D03*
%TO.P,U18,10,I1c*%
%TO.N,Net-(U18-I1c)*%
X235040000Y-28920000D03*
%TO.P,U18,11,I0c*%
%TO.N,Net-(U18-I0c)*%
X232500000Y-28920000D03*
%TO.P,U18,12,Zd*%
%TO.N,/MAR/A0*%
X229960000Y-28920000D03*
%TO.P,U18,13,I1d*%
%TO.N,Net-(U18-I1d)*%
X227420000Y-28920000D03*
%TO.P,U18,14,I0d*%
%TO.N,Net-(U18-I0d)*%
X224880000Y-28920000D03*
%TO.P,U18,15,E*%
%TO.N,GND*%
X222340000Y-28920000D03*
%TO.P,U18,16,VCC*%
%TO.N,VCC*%
X219800000Y-28920000D03*
%TD*%
D10*
%TO.P,R18,1*%
%TO.N,VCC*%
X243250000Y-35750000D03*
%TO.P,R18,2*%
%TO.N,Net-(D24-A)*%
X243250000Y-28130000D03*
%TD*%
%TO.P,R101,1*%
%TO.N,Net-(D4-K)*%
X211567100Y-85662300D03*
%TO.P,R101,2*%
%TO.N,GND*%
X211567100Y-93282300D03*
%TD*%
D12*
%TO.P,C12,1*%
%TO.N,VCC*%
X237977100Y-105547300D03*
%TO.P,C12,2*%
%TO.N,GND*%
X239977100Y-105547300D03*
%TD*%
%TO.P,C75,1*%
%TO.N,VCC*%
X31000000Y-104500000D03*
%TO.P,C75,2*%
%TO.N,GND*%
X31000000Y-102500000D03*
%TD*%
D16*
%TO.P,D5,1,K*%
%TO.N,Net-(D5-K)*%
X216567100Y-81162300D03*
D17*
%TO.P,D5,2,A*%
%TO.N,/ALU/A_4*%
X214027100Y-81162300D03*
%TD*%
D10*
%TO.P,R51,1*%
%TO.N,Net-(D49-K)*%
X97817100Y-117412300D03*
%TO.P,R51,2*%
%TO.N,GND*%
X97817100Y-109792300D03*
%TD*%
D27*
%TO.P,U21,1,A0*%
%TO.N,/MAR/A0*%
X168020250Y-96165000D03*
%TO.P,U21,2,\u002ACS*%
%TO.N,GND*%
X168020250Y-97435000D03*
%TO.P,U21,3,\u002AWE*%
%TO.N,Net-(U21-\u002AWE)*%
X168020250Y-98705000D03*
%TO.P,U21,4,D0*%
%TO.N,Net-(U21-D0)*%
X168020250Y-99975000D03*
%TO.P,U21,5,\u002AO0*%
%TO.N,Net-(U21-\u002AO0)*%
X168020250Y-101245000D03*
%TO.P,U21,6,D1*%
%TO.N,Net-(U21-D1)*%
X168020250Y-102515000D03*
%TO.P,U21,7,\u002AO1*%
%TO.N,Net-(U21-\u002AO1)*%
X168020250Y-103785000D03*
%TO.P,U21,8,GND*%
%TO.N,GND*%
X168020250Y-105055000D03*
%TO.P,U21,9,\u002AO2*%
%TO.N,Net-(U21-\u002AO2)*%
X173369750Y-105055000D03*
%TO.P,U21,10,D2*%
%TO.N,Net-(U21-D2)*%
X173369750Y-103785000D03*
%TO.P,U21,11,\u002AO3*%
%TO.N,Net-(U21-\u002AO3)*%
X173369750Y-102515000D03*
%TO.P,U21,12,D3*%
%TO.N,Net-(U21-D3)*%
X173369750Y-101245000D03*
%TO.P,U21,13,A3*%
%TO.N,/MAR/A3*%
X173369750Y-99975000D03*
%TO.P,U21,14,A2*%
%TO.N,/MAR/A2*%
X173369750Y-98705000D03*
%TO.P,U21,15,A1*%
%TO.N,/MAR/A1*%
X173369750Y-97435000D03*
%TO.P,U21,16,VCC*%
%TO.N,VCC*%
X173369750Y-96165000D03*
%TD*%
D12*
%TO.P,C58,1*%
%TO.N,VCC*%
X126000000Y-148500000D03*
%TO.P,C58,2*%
%TO.N,GND*%
X126000000Y-146500000D03*
%TD*%
D10*
%TO.P,R54,1*%
%TO.N,Net-(D52-K)*%
X112817100Y-117532300D03*
%TO.P,R54,2*%
%TO.N,GND*%
X112817100Y-109912300D03*
%TD*%
%TO.P,C1,1*%
%TO.N,GND*%
X304067100Y-119162300D03*
%TO.P,C1,2*%
%TO.N,Net-(U1-CV)*%
X304067100Y-121662300D03*
%TD*%
D20*
%TO.P,SW8,1,1*%
%TO.N,Net-(R64-Pad1)*%
X91250000Y-69750000D03*
X97750000Y-69750000D03*
%TO.P,SW8,2,2*%
%TO.N,VCC*%
X91250000Y-74250000D03*
X97750000Y-74250000D03*
%TD*%
D10*
%TO.P,R25,1*%
%TO.N,Net-(D27-K)*%
X185120000Y-166300000D03*
%TO.P,R25,2*%
%TO.N,GND*%
X185120000Y-173920000D03*
%TD*%
D11*
%TO.P,SW3,1*%
%TO.N,Net-(U18-I0d)*%
X256880000Y-32630000D03*
D10*
%TO.P,SW3,2*%
%TO.N,Net-(U18-I0c)*%
X256880000Y-35170000D03*
%TO.P,SW3,3*%
%TO.N,GND*%
X256880000Y-37710000D03*
%TO.P,SW3,4*%
X256880000Y-40250000D03*
%TO.P,SW3,5*%
%TO.N,Net-(U18-I0a)*%
X264500000Y-40250000D03*
%TO.P,SW3,6*%
%TO.N,Net-(U18-I0b)*%
X264500000Y-37710000D03*
%TO.P,SW3,7*%
%TO.N,GND*%
X264500000Y-35170000D03*
%TO.P,SW3,8*%
X264500000Y-32630000D03*
%TD*%
D27*
%TO.P,U23,1,A0*%
%TO.N,/MAR/A0*%
X180020250Y-96665000D03*
%TO.P,U23,2,\u002ACS*%
%TO.N,GND*%
X180020250Y-97935000D03*
%TO.P,U23,3,\u002AWE*%
%TO.N,Net-(U21-\u002AWE)*%
X180020250Y-99205000D03*
%TO.P,U23,4,D0*%
%TO.N,Net-(U23-D0)*%
X180020250Y-100475000D03*
%TO.P,U23,5,\u002AO0*%
%TO.N,Net-(U23-\u002AO0)*%
X180020250Y-101745000D03*
%TO.P,U23,6,D1*%
%TO.N,Net-(U23-D1)*%
X180020250Y-103015000D03*
%TO.P,U23,7,\u002AO1*%
%TO.N,Net-(U23-\u002AO1)*%
X180020250Y-104285000D03*
%TO.P,U23,8,GND*%
%TO.N,GND*%
X180020250Y-105555000D03*
%TO.P,U23,9,\u002AO2*%
%TO.N,Net-(U23-\u002AO2)*%
X185369750Y-105555000D03*
%TO.P,U23,10,D2*%
%TO.N,Net-(U23-D2)*%
X185369750Y-104285000D03*
%TO.P,U23,11,\u002AO3*%
%TO.N,Net-(U23-\u002AO3)*%
X185369750Y-103015000D03*
%TO.P,U23,12,D3*%
%TO.N,Net-(U23-D3)*%
X185369750Y-101745000D03*
%TO.P,U23,13,A3*%
%TO.N,/MAR/A3*%
X185369750Y-100475000D03*
%TO.P,U23,14,A2*%
%TO.N,/MAR/A2*%
X185369750Y-99205000D03*
%TO.P,U23,15,A1*%
%TO.N,/MAR/A1*%
X185369750Y-97935000D03*
%TO.P,U23,16,VCC*%
%TO.N,VCC*%
X185369750Y-96665000D03*
%TD*%
D16*
%TO.P,D39,1,K*%
%TO.N,Net-(D39-K)*%
X47237100Y-122412300D03*
D17*
%TO.P,D39,2,A*%
%TO.N,Net-(D39-A)*%
X49777100Y-122412300D03*
%TD*%
D10*
%TO.P,R46,1*%
%TO.N,Net-(D44-K)*%
X72317100Y-117412300D03*
%TO.P,R46,2*%
%TO.N,GND*%
X72317100Y-109792300D03*
%TD*%
%TO.P,R103,1*%
%TO.N,Net-(D6-K)*%
X221567100Y-85662300D03*
%TO.P,R103,2*%
%TO.N,GND*%
X221567100Y-93282300D03*
%TD*%
%TO.P,R30,1*%
%TO.N,Net-(D32-K)*%
X210120000Y-166110000D03*
%TO.P,R30,2*%
%TO.N,GND*%
X210120000Y-173730000D03*
%TD*%
%TO.P,R50,1*%
%TO.N,Net-(D48-K)*%
X92317100Y-117412300D03*
%TO.P,R50,2*%
%TO.N,GND*%
X92317100Y-109792300D03*
%TD*%
D28*
%TO.P,SW4,1,A*%
%TO.N,/MAR/PROG*%
X263500000Y-26250000D03*
%TO.P,SW4,2,B*%
%TO.N,GND*%
X261000000Y-26250000D03*
%TO.P,SW4,3,C*%
%TO.N,Net-(D25-K)*%
X258500000Y-26250000D03*
%TD*%
D14*
%TO.P,U28,1*%
%TO.N,Net-(U23-\u002AO1)*%
X226613200Y-105325000D03*
D15*
%TO.P,U28,2*%
%TO.N,Net-(D32-A)*%
X226613200Y-107865000D03*
%TO.P,U28,3*%
%TO.N,Net-(U23-\u002AO0)*%
X226613200Y-110405000D03*
%TO.P,U28,4*%
%TO.N,Net-(D33-A)*%
X226613200Y-112945000D03*
%TO.P,U28,5*%
%TO.N,Net-(D42-A)*%
X226613200Y-115485000D03*
%TO.P,U28,6*%
%TO.N,~{IO}*%
X226613200Y-118025000D03*
%TO.P,U28,7,GND*%
%TO.N,GND*%
X226613200Y-120565000D03*
%TO.P,U28,8*%
%TO.N,~{AO}*%
X234233200Y-120565000D03*
%TO.P,U28,9*%
%TO.N,Net-(D45-A)*%
X234233200Y-118025000D03*
%TO.P,U28,10*%
%TO.N,~{AI}*%
X234233200Y-115485000D03*
%TO.P,U28,11*%
%TO.N,Net-(D44-A)*%
X234233200Y-112945000D03*
%TO.P,U28,12*%
%TO.N,~{II}*%
X234233200Y-110405000D03*
%TO.P,U28,13*%
%TO.N,Net-(D43-A)*%
X234233200Y-107865000D03*
%TO.P,U28,14,VCC*%
%TO.N,VCC*%
X234233200Y-105325000D03*
%TD*%
D24*
%TO.P,U117,1,A->B*%
%TO.N,VCC*%
X168570000Y-52730000D03*
D25*
%TO.P,U117,2,A0*%
%TO.N,IR_4*%
X171110000Y-52730000D03*
%TO.P,U117,3,A1*%
%TO.N,IR_5*%
X173650000Y-52730000D03*
%TO.P,U117,4,A2*%
%TO.N,IR_6*%
X176190000Y-52730000D03*
%TO.P,U117,5,A3*%
%TO.N,IR_7*%
X178730000Y-52730000D03*
%TO.P,U117,6,A4*%
%TO.N,Net-(D119-A)*%
X181270000Y-52730000D03*
%TO.P,U117,7,A5*%
%TO.N,Net-(D118-A)*%
X183810000Y-52730000D03*
%TO.P,U117,8,A6*%
%TO.N,Net-(D117-A)*%
X186350000Y-52730000D03*
%TO.P,U117,9,A7*%
%TO.N,Net-(D116-A)*%
X188890000Y-52730000D03*
%TO.P,U117,10,GND*%
%TO.N,GND*%
X191430000Y-52730000D03*
%TO.P,U117,11,B7*%
%TO.N,BUS_0*%
X191430000Y-45110000D03*
%TO.P,U117,12,B6*%
%TO.N,BUS_1*%
X188890000Y-45110000D03*
%TO.P,U117,13,B5*%
%TO.N,BUS_2*%
X186350000Y-45110000D03*
%TO.P,U117,14,B4*%
%TO.N,BUS_3*%
X183810000Y-45110000D03*
%TO.P,U117,15,B3*%
%TO.N,BUS_4*%
X181270000Y-45110000D03*
%TO.P,U117,16,B2*%
%TO.N,BUS_5*%
X178730000Y-45110000D03*
%TO.P,U117,17,B1*%
%TO.N,BUS_6*%
X176190000Y-45110000D03*
%TO.P,U117,18,B0*%
%TO.N,BUS_7*%
X173650000Y-45110000D03*
%TO.P,U117,19,CE*%
%TO.N,~{IO}*%
X171110000Y-45110000D03*
%TO.P,U117,20,VCC*%
%TO.N,VCC*%
X168570000Y-45110000D03*
%TD*%
D10*
%TO.P,R106,1*%
%TO.N,Net-(D9-K)*%
X236817100Y-85912300D03*
%TO.P,R106,2*%
%TO.N,GND*%
X236817100Y-93532300D03*
%TD*%
%TO.P,R92,1*%
%TO.N,Net-(D023-K)*%
X329460000Y-72730000D03*
%TO.P,R92,2*%
%TO.N,GND*%
X329460000Y-65110000D03*
%TD*%
D16*
%TO.P,D60,1,K*%
%TO.N,Net-(D60-K)*%
X108912100Y-86552300D03*
D17*
%TO.P,D60,2,A*%
%TO.N,Net-(D60-A)*%
X111452100Y-86552300D03*
%TD*%
D14*
%TO.P,U15,1*%
%TO.N,/ALU/B_5*%
X282880000Y-70960000D03*
D15*
%TO.P,U15,2*%
%TO.N,SU*%
X282880000Y-73500000D03*
%TO.P,U15,3*%
%TO.N,Net-(U13-B2)*%
X282880000Y-76040000D03*
%TO.P,U15,4*%
%TO.N,/ALU/B_4*%
X282880000Y-78580000D03*
%TO.P,U15,5*%
%TO.N,SU*%
X282880000Y-81120000D03*
%TO.P,U15,6*%
%TO.N,Net-(U13-B1)*%
X282880000Y-83660000D03*
%TO.P,U15,7,GND*%
%TO.N,GND*%
X282880000Y-86200000D03*
%TO.P,U15,8*%
%TO.N,Net-(U13-B4)*%
X290500000Y-86200000D03*
%TO.P,U15,9*%
%TO.N,/ALU/B_7*%
X290500000Y-83660000D03*
%TO.P,U15,10*%
%TO.N,SU*%
X290500000Y-81120000D03*
%TO.P,U15,11*%
%TO.N,Net-(U13-B3)*%
X290500000Y-78580000D03*
%TO.P,U15,12*%
%TO.N,/ALU/B_6*%
X290500000Y-76040000D03*
%TO.P,U15,13*%
%TO.N,SU*%
X290500000Y-73500000D03*
%TO.P,U15,14,VCC*%
%TO.N,VCC*%
X290500000Y-70960000D03*
%TD*%
D16*
%TO.P,D16,1,K*%
%TO.N,Net-(D16-K)*%
X266967100Y-103852300D03*
D17*
%TO.P,D16,2,A*%
%TO.N,Net-(D16-A)*%
X269507100Y-103852300D03*
%TD*%
D10*
%TO.P,R99,1*%
%TO.N,Net-(D2-K)*%
X201567100Y-85662300D03*
%TO.P,R99,2*%
%TO.N,GND*%
X201567100Y-93282300D03*
%TD*%
D16*
%TO.P,D18,1,K*%
%TO.N,Net-(D18-K)*%
X276717100Y-103852300D03*
D17*
%TO.P,D18,2,A*%
%TO.N,Net-(D18-A)*%
X279257100Y-103852300D03*
%TD*%
D10*
%TO.P,R26,1*%
%TO.N,Net-(D28-K)*%
X190120000Y-166110000D03*
%TO.P,R26,2*%
%TO.N,GND*%
X190120000Y-173730000D03*
%TD*%
D14*
%TO.P,U46,1*%
%TO.N,Net-(D39-A)*%
X132792100Y-31392300D03*
D15*
%TO.P,U46,2*%
%TO.N,~{MI}*%
X132792100Y-33932300D03*
%TO.P,U46,3*%
%TO.N,Net-(D41-A)*%
X132792100Y-36472300D03*
%TO.P,U46,4*%
%TO.N,~{RO}*%
X132792100Y-39012300D03*
%TO.P,U46,5*%
%TO.N,Net-(D53-A)*%
X132792100Y-41552300D03*
%TO.P,U46,6*%
%TO.N,~{FI}*%
X132792100Y-44092300D03*
%TO.P,U46,7,GND*%
%TO.N,GND*%
X132792100Y-46632300D03*
%TO.P,U46,8*%
%TO.N,unconnected-(U46-Pad8)*%
X140412100Y-46632300D03*
%TO.P,U46,9*%
%TO.N,unconnected-(U46-Pad9)*%
X140412100Y-44092300D03*
%TO.P,U46,10*%
%TO.N,~{J}*%
X140412100Y-41552300D03*
%TO.P,U46,11*%
%TO.N,Net-(D52-A)*%
X140412100Y-39012300D03*
%TO.P,U46,12*%
%TO.N,~{CO}*%
X140412100Y-36472300D03*
%TO.P,U46,13*%
%TO.N,Net-(D51-A)*%
X140412100Y-33932300D03*
%TO.P,U46,14,VCC*%
%TO.N,VCC*%
X140412100Y-31392300D03*
%TD*%
D10*
%TO.P,R45,1*%
%TO.N,Net-(D43-K)*%
X67317100Y-117412300D03*
%TO.P,R45,2*%
%TO.N,GND*%
X67317100Y-109792300D03*
%TD*%
D16*
%TO.P,D64,1,K*%
%TO.N,Net-(D64-K)*%
X58500000Y-96690000D03*
D17*
%TO.P,D64,2,A*%
%TO.N,BUS_2*%
X58500000Y-94150000D03*
%TD*%
D16*
%TO.P,D3,1,K*%
%TO.N,Net-(D3-K)*%
X206547100Y-81162300D03*
D17*
%TO.P,D3,2,A*%
%TO.N,/ALU/A_6*%
X204007100Y-81162300D03*
%TD*%
D10*
%TO.P,R68,1*%
%TO.N,Net-(D65-K)*%
X53547700Y-91657100D03*
%TO.P,R68,2*%
%TO.N,GND*%
X45927700Y-91657100D03*
%TD*%
D16*
%TO.P,D65,1,K*%
%TO.N,Net-(D65-K)*%
X58500000Y-91690000D03*
D17*
%TO.P,D65,2,A*%
%TO.N,BUS_3*%
X58500000Y-89150000D03*
%TD*%
D24*
%TO.P,U7,1,A->B*%
%TO.N,VCC*%
X324650000Y-83680000D03*
D25*
%TO.P,U7,2,A0*%
%TO.N,/ALU/B_4*%
X322110000Y-83680000D03*
%TO.P,U7,3,A1*%
%TO.N,/ALU/B_5*%
X319570000Y-83680000D03*
%TO.P,U7,4,A2*%
%TO.N,/ALU/B_6*%
X317030000Y-83680000D03*
%TO.P,U7,5,A3*%
%TO.N,/ALU/B_7*%
X314490000Y-83680000D03*
%TO.P,U7,6,A4*%
%TO.N,/ALU/B_0*%
X311950000Y-83680000D03*
%TO.P,U7,7,A5*%
%TO.N,/ALU/B_1*%
X309410000Y-83680000D03*
%TO.P,U7,8,A6*%
%TO.N,/ALU/B_2*%
X306870000Y-83680000D03*
%TO.P,U7,9,A7*%
%TO.N,/ALU/B_3*%
X304330000Y-83680000D03*
%TO.P,U7,10,GND*%
%TO.N,GND*%
X301790000Y-83680000D03*
%TO.P,U7,11,B7*%
%TO.N,BUS_0*%
X301790000Y-91300000D03*
%TO.P,U7,12,B6*%
%TO.N,BUS_1*%
X304330000Y-91300000D03*
%TO.P,U7,13,B5*%
%TO.N,BUS_2*%
X306870000Y-91300000D03*
%TO.P,U7,14,B4*%
%TO.N,BUS_3*%
X309410000Y-91300000D03*
%TO.P,U7,15,B3*%
%TO.N,BUS_4*%
X311950000Y-91300000D03*
%TO.P,U7,16,B2*%
%TO.N,BUS_5*%
X314490000Y-91300000D03*
%TO.P,U7,17,B1*%
%TO.N,BUS_6*%
X317030000Y-91300000D03*
%TO.P,U7,18,B0*%
%TO.N,BUS_7*%
X319570000Y-91300000D03*
%TO.P,U7,19,CE*%
%TO.N,VCC*%
X322110000Y-91300000D03*
%TO.P,U7,20,VCC*%
X324650000Y-91300000D03*
%TD*%
D10*
%TO.P,R78,1*%
%TO.N,BUS_2*%
X36000000Y-94157100D03*
%TO.P,R78,2*%
%TO.N,GND*%
X43620000Y-94157100D03*
%TD*%
D16*
%TO.P,D35,1,K*%
%TO.N,Net-(D35-K)*%
X163960000Y-79420000D03*
D17*
%TO.P,D35,2,A*%
%TO.N,Net-(D35-A)*%
X166500000Y-79420000D03*
%TD*%
D14*
%TO.P,U9,1,Oe1*%
%TO.N,GND*%
X332580000Y-93800000D03*
D15*
%TO.P,U9,2,Oe2*%
X330040000Y-93800000D03*
%TO.P,U9,3,Q0*%
%TO.N,/ALU/B_3*%
X327500000Y-93800000D03*
%TO.P,U9,4,Q1*%
%TO.N,/ALU/B_2*%
X324960000Y-93800000D03*
%TO.P,U9,5,Q2*%
%TO.N,/ALU/B_1*%
X322420000Y-93800000D03*
%TO.P,U9,6,Q3*%
%TO.N,/ALU/B_0*%
X319880000Y-93800000D03*
%TO.P,U9,7,Cp*%
%TO.N,CLK*%
X317340000Y-93800000D03*
%TO.P,U9,8,GND*%
%TO.N,GND*%
X314800000Y-93800000D03*
%TO.P,U9,9,E1*%
%TO.N,~{BI}*%
X314800000Y-101420000D03*
%TO.P,U9,10,E2*%
X317340000Y-101420000D03*
%TO.P,U9,11,D3*%
%TO.N,BUS_0*%
X319880000Y-101420000D03*
%TO.P,U9,12,D2*%
%TO.N,BUS_1*%
X322420000Y-101420000D03*
%TO.P,U9,13,D1*%
%TO.N,BUS_2*%
X324960000Y-101420000D03*
%TO.P,U9,14,D0*%
%TO.N,BUS_3*%
X327500000Y-101420000D03*
%TO.P,U9,15,Mr*%
%TO.N,CLR*%
X330040000Y-101420000D03*
%TO.P,U9,16,VCC*%
%TO.N,VCC*%
X332580000Y-101420000D03*
%TD*%
D16*
%TO.P,D49,1,K*%
%TO.N,Net-(D49-K)*%
X97277100Y-122412300D03*
D17*
%TO.P,D49,2,A*%
%TO.N,OI*%
X99817100Y-122412300D03*
%TD*%
D16*
%TO.P,D119,1,K*%
%TO.N,Net-(D119-K)*%
X192460000Y-39920000D03*
D17*
%TO.P,D119,2,A*%
%TO.N,Net-(D119-A)*%
X195000000Y-39920000D03*
%TD*%
D10*
%TO.P,R73,1*%
%TO.N,BUS_7*%
X63087900Y-88287700D03*
%TO.P,R73,2*%
%TO.N,GND*%
X70707900Y-88287700D03*
%TD*%
D12*
%TO.P,C49,1*%
%TO.N,VCC*%
X284500000Y-42000000D03*
%TO.P,C49,2*%
%TO.N,GND*%
X284500000Y-40000000D03*
%TD*%
%TO.P,C42,1*%
%TO.N,VCC*%
X237000000Y-121500000D03*
%TO.P,C42,2*%
%TO.N,GND*%
X239000000Y-121500000D03*
%TD*%
D10*
%TO.P,R38,1*%
%TO.N,Net-(U31-THR)*%
X155666400Y-124379100D03*
%TO.P,R38,2*%
%TO.N,Net-(U31-DIS)*%
X163286400Y-124379100D03*
%TD*%
D16*
%TO.P,D023,1,K*%
%TO.N,Net-(D023-K)*%
X329500000Y-78880000D03*
D17*
%TO.P,D023,2,A*%
%TO.N,/ALU/B_6*%
X332040000Y-78880000D03*
%TD*%
D16*
%TO.P,D34,1,K*%
%TO.N,Net-(D34-K)*%
X157950000Y-79420000D03*
D17*
%TO.P,D34,2,A*%
%TO.N,Net-(D34-A)*%
X160490000Y-79420000D03*
%TD*%
D12*
%TO.P,C16,1*%
%TO.N,Net-(U31-THR)*%
X155666400Y-119379100D03*
%TO.P,C16,2*%
%TO.N,GND*%
X155666400Y-117379100D03*
%TD*%
D10*
%TO.P,R9,1*%
%TO.N,Net-(D11-K)*%
X247417100Y-109602300D03*
%TO.P,R9,2*%
%TO.N,GND*%
X247417100Y-117222300D03*
%TD*%
D16*
%TO.P,D117,1,K*%
%TO.N,Net-(D117-K)*%
X182460000Y-39920000D03*
D17*
%TO.P,D117,2,A*%
%TO.N,Net-(D117-A)*%
X185000000Y-39920000D03*
%TD*%
D14*
%TO.P,U50,1,Oe1*%
%TO.N,GND*%
X246567100Y-79112300D03*
D15*
%TO.P,U50,2,Oe2*%
X246567100Y-76572300D03*
%TO.P,U50,3,Q0*%
%TO.N,/ALU/A_3*%
X246567100Y-74032300D03*
%TO.P,U50,4,Q1*%
%TO.N,/ALU/A_2*%
X246567100Y-71492300D03*
%TO.P,U50,5,Q2*%
%TO.N,/ALU/A_1*%
X246567100Y-68952300D03*
%TO.P,U50,6,Q3*%
%TO.N,/ALU/A_0*%
X246567100Y-66412300D03*
%TO.P,U50,7,Cp*%
%TO.N,CLK*%
X246567100Y-63872300D03*
%TO.P,U50,8,GND*%
%TO.N,GND*%
X246567100Y-61332300D03*
%TO.P,U50,9,E1*%
%TO.N,~{AI}*%
X238947100Y-61332300D03*
%TO.P,U50,10,E2*%
X238947100Y-63872300D03*
%TO.P,U50,11,D3*%
%TO.N,BUS_0*%
X238947100Y-66412300D03*
%TO.P,U50,12,D2*%
%TO.N,BUS_1*%
X238947100Y-68952300D03*
%TO.P,U50,13,D1*%
%TO.N,BUS_2*%
X238947100Y-71492300D03*
%TO.P,U50,14,D0*%
%TO.N,BUS_3*%
X238947100Y-74032300D03*
%TO.P,U50,15,Mr*%
%TO.N,CLR*%
X238947100Y-76572300D03*
%TO.P,U50,16,VCC*%
%TO.N,VCC*%
X238947100Y-79112300D03*
%TD*%
D16*
%TO.P,D24,1,K*%
%TO.N,/MAR/PROG*%
X241230000Y-23500000D03*
D17*
%TO.P,D24,2,A*%
%TO.N,Net-(D24-A)*%
X243770000Y-23500000D03*
%TD*%
D10*
%TO.P,R29,1*%
%TO.N,Net-(D31-K)*%
X205120000Y-166300000D03*
%TO.P,R29,2*%
%TO.N,GND*%
X205120000Y-173920000D03*
%TD*%
%TO.P,R61,1*%
%TO.N,Net-(D59-K)*%
X102912100Y-81552300D03*
%TO.P,R61,2*%
%TO.N,GND*%
X102912100Y-73932300D03*
%TD*%
%TO.P,R95,1*%
%TO.N,Net-(D026-K)*%
X314460000Y-72670000D03*
%TO.P,R95,2*%
%TO.N,GND*%
X314460000Y-65050000D03*
%TD*%
D12*
%TO.P,C19,1*%
%TO.N,VCC*%
X147666400Y-126379100D03*
%TO.P,C19,2*%
%TO.N,GND*%
X145666400Y-126379100D03*
%TD*%
D10*
%TO.P,R7,1*%
%TO.N,Net-(D1-K)*%
X271317100Y-139602300D03*
%TO.P,R7,2*%
%TO.N,GND*%
X271317100Y-147222300D03*
%TD*%
D12*
%TO.P,C50,1*%
%TO.N,VCC*%
X188500000Y-96500000D03*
%TO.P,C50,2*%
%TO.N,GND*%
X190500000Y-96500000D03*
%TD*%
D16*
%TO.P,D67,1,K*%
%TO.N,Net-(D67-K)*%
X58500000Y-81690000D03*
D17*
%TO.P,D67,2,A*%
%TO.N,BUS_5*%
X58500000Y-79150000D03*
%TD*%
D16*
%TO.P,D26,1,K*%
%TO.N,Net-(D26-K)*%
X180080000Y-161420000D03*
D17*
%TO.P,D26,2,A*%
%TO.N,Net-(D26-A)*%
X182620000Y-161420000D03*
%TD*%
D12*
%TO.P,C21,1*%
%TO.N,VCC*%
X80612100Y-63342300D03*
%TO.P,C21,2*%
%TO.N,GND*%
X82612100Y-63342300D03*
%TD*%
D10*
%TO.P,R27,1*%
%TO.N,Net-(D29-K)*%
X195120000Y-166110000D03*
%TO.P,R27,2*%
%TO.N,GND*%
X195120000Y-173730000D03*
%TD*%
%TO.P,R100,1*%
%TO.N,Net-(D3-K)*%
X206567100Y-85662300D03*
%TO.P,R100,2*%
%TO.N,GND*%
X206567100Y-93282300D03*
%TD*%
D16*
%TO.P,D58,1,K*%
%TO.N,Net-(D58-K)*%
X114912100Y-103552300D03*
D17*
%TO.P,D58,2,A*%
%TO.N,Net-(D58-A)*%
X117452100Y-103552300D03*
%TD*%
D10*
%TO.P,R43,1*%
%TO.N,Net-(D41-K)*%
X57317100Y-117412300D03*
%TO.P,R43,2*%
%TO.N,GND*%
X57317100Y-109792300D03*
%TD*%
D16*
%TO.P,D66,1,K*%
%TO.N,Net-(D66-K)*%
X58500000Y-86650000D03*
D17*
%TO.P,D66,2,A*%
%TO.N,BUS_4*%
X58500000Y-84110000D03*
%TD*%
D16*
%TO.P,D23,1,K*%
%TO.N,Net-(D23-K)*%
X240427100Y-42332300D03*
D17*
%TO.P,D23,2,A*%
%TO.N,/MAR/A0*%
X242967100Y-42332300D03*
%TD*%
D12*
%TO.P,C20,1*%
%TO.N,VCC*%
X80612100Y-56792300D03*
%TO.P,C20,2*%
%TO.N,GND*%
X82612100Y-56792300D03*
%TD*%
D10*
%TO.P,R41,1*%
%TO.N,Net-(D39-K)*%
X47317100Y-117412300D03*
%TO.P,R41,2*%
%TO.N,GND*%
X47317100Y-109792300D03*
%TD*%
%TO.P,R48,1*%
%TO.N,Net-(D46-K)*%
X82317100Y-117412300D03*
%TO.P,R48,2*%
%TO.N,GND*%
X82317100Y-109792300D03*
%TD*%
%TO.P,C2,1*%
%TO.N,GND*%
X275567100Y-154412300D03*
%TO.P,C2,2*%
%TO.N,Net-(U2-CV)*%
X278067100Y-154412300D03*
%TD*%
D21*
%TO.P,U36,1,E*%
%TO.N,Net-(U34-E)*%
X95686400Y-145879100D03*
D10*
%TO.P,U36,2,D*%
%TO.N,Net-(U34-D)*%
X98226400Y-145879100D03*
%TO.P,U36,3,CC*%
%TO.N,Net-(U33A-O2)*%
X100766400Y-145879100D03*
%TO.P,U36,4,C*%
%TO.N,Net-(U34-C)*%
X103306400Y-145879100D03*
%TO.P,U36,5,DP*%
%TO.N,Net-(U34-DP)*%
X105846400Y-145879100D03*
%TO.P,U36,6,B*%
%TO.N,Net-(U34-B)*%
X105846400Y-130639100D03*
%TO.P,U36,7,A*%
%TO.N,Net-(U34-A)*%
X103306400Y-130639100D03*
%TO.P,U36,8,CC*%
%TO.N,Net-(U33A-O2)*%
X100766400Y-130639100D03*
%TO.P,U36,9,F*%
%TO.N,Net-(U34-F)*%
X98226400Y-130639100D03*
%TO.P,U36,10,G*%
%TO.N,Net-(U34-G)*%
X95686400Y-130639100D03*
%TD*%
D16*
%TO.P,D37,1,K*%
%TO.N,Net-(D37-K)*%
X175980000Y-79420000D03*
D17*
%TO.P,D37,2,A*%
%TO.N,Net-(D37-A)*%
X178520000Y-79420000D03*
%TD*%
D11*
%TO.P,U12,1,Oe1*%
%TO.N,GND*%
X266160000Y-45670000D03*
D10*
%TO.P,U12,2,Oe2*%
X266160000Y-48210000D03*
%TO.P,U12,3,Q0*%
%TO.N,CF*%
X266160000Y-50750000D03*
%TO.P,U12,4,Q1*%
%TO.N,ZF*%
X266160000Y-53290000D03*
%TO.P,U12,5,Q2*%
%TO.N,unconnected-(U12-Q2-Pad5)*%
X266160000Y-55830000D03*
%TO.P,U12,6,Q3*%
%TO.N,unconnected-(U12-Q3-Pad6)*%
X266160000Y-58370000D03*
%TO.P,U12,7,Cp*%
%TO.N,CLK*%
X266160000Y-60910000D03*
%TO.P,U12,8,GND*%
%TO.N,GND*%
X266160000Y-63450000D03*
%TO.P,U12,9,E1*%
%TO.N,~{FI}*%
X273780000Y-63450000D03*
%TO.P,U12,10,E2*%
X273780000Y-60910000D03*
%TO.P,U12,11,D3*%
%TO.N,unconnected-(U12-D3-Pad11)*%
X273780000Y-58370000D03*
%TO.P,U12,12,D2*%
%TO.N,unconnected-(U12-D2-Pad12)*%
X273780000Y-55830000D03*
%TO.P,U12,13,D1*%
%TO.N,Net-(U12-D1)*%
X273780000Y-53290000D03*
%TO.P,U12,14,D0*%
%TO.N,Net-(U12-D0)*%
X273780000Y-50750000D03*
%TO.P,U12,15,Mr*%
%TO.N,CLR*%
X273780000Y-48210000D03*
%TO.P,U12,16,VCC*%
%TO.N,VCC*%
X273780000Y-45670000D03*
%TD*%
D12*
%TO.P,C40,1*%
%TO.N,GND*%
X242000000Y-83500000D03*
%TO.P,C40,2*%
%TO.N,VCC*%
X240000000Y-83500000D03*
%TD*%
D29*
%TO.P,J1,A5,CC1*%
%TO.N,Net-(J1-CC1)*%
X24500000Y-110170000D03*
D30*
%TO.P,J1,A9,VBUS*%
%TO.N,VCC*%
X24500000Y-112190000D03*
D31*
%TO.P,J1,A12,GND*%
%TO.N,GND*%
X24500000Y-113420000D03*
D29*
%TO.P,J1,B5,CC2*%
%TO.N,Net-(J1-CC2)*%
X24500000Y-111170000D03*
D30*
%TO.P,J1,B9,VBUS*%
%TO.N,VCC*%
X24500000Y-109150000D03*
D31*
%TO.P,J1,B12,GND*%
%TO.N,GND*%
X24500000Y-107920000D03*
D32*
%TO.P,J1,S1,SHIELD*%
X24320000Y-106350000D03*
X20520000Y-106350000D03*
X24320000Y-114990000D03*
X20520000Y-114990000D03*
%TD*%
D13*
%TO.P,U31,1,GND*%
%TO.N,GND*%
X120808900Y-151109100D03*
%TO.P,U31,2,TR*%
%TO.N,Net-(U31-THR)*%
X120808900Y-152379100D03*
%TO.P,U31,3,Q*%
%TO.N,Net-(U31-Q)*%
X120808900Y-153649100D03*
%TO.P,U31,4,R*%
%TO.N,unconnected-(U31-R-Pad4)*%
X120808900Y-154919100D03*
%TO.P,U31,5,CV*%
%TO.N,Net-(U31-CV)*%
X125758900Y-154919100D03*
%TO.P,U31,6,THR*%
%TO.N,Net-(U31-THR)*%
X125758900Y-153649100D03*
%TO.P,U31,7,DIS*%
%TO.N,Net-(U31-DIS)*%
X125758900Y-152379100D03*
%TO.P,U31,8,VCC*%
%TO.N,VCC*%
X125758900Y-151109100D03*
%TD*%
D14*
%TO.P,U39,1*%
%TO.N,OI*%
X155676800Y-96506800D03*
D15*
%TO.P,U39,2*%
%TO.N,CLK*%
X155676800Y-99046800D03*
%TO.P,U39,3*%
%TO.N,Net-(U38-Cp)*%
X155676800Y-101586800D03*
%TO.P,U39,4*%
%TO.N,N/C*%
X155676800Y-104126800D03*
%TO.P,U39,5*%
X155676800Y-106666800D03*
%TO.P,U39,6*%
X155676800Y-109206800D03*
%TO.P,U39,7,GND*%
%TO.N,GND*%
X155676800Y-111746800D03*
%TO.P,U39,8*%
%TO.N,N/C*%
X163296800Y-111746800D03*
%TO.P,U39,9*%
X163296800Y-109206800D03*
%TO.P,U39,10*%
X163296800Y-106666800D03*
%TO.P,U39,11*%
X163296800Y-104126800D03*
%TO.P,U39,12*%
X163296800Y-101586800D03*
%TO.P,U39,13*%
X163296800Y-99046800D03*
%TO.P,U39,14,VCC*%
%TO.N,VCC*%
X163296800Y-96506800D03*
%TD*%
D10*
%TO.P,R66,1*%
%TO.N,Net-(D63-K)*%
X53667700Y-102157100D03*
%TO.P,R66,2*%
%TO.N,GND*%
X46047700Y-102157100D03*
%TD*%
D16*
%TO.P,D32,1,K*%
%TO.N,Net-(D32-K)*%
X210120000Y-161420000D03*
D17*
%TO.P,D32,2,A*%
%TO.N,Net-(D32-A)*%
X212660000Y-161420000D03*
%TD*%
D10*
%TO.P,R12,1*%
%TO.N,Net-(D13-K)*%
X257167100Y-109542300D03*
%TO.P,R12,2*%
%TO.N,GND*%
X257167100Y-117162300D03*
%TD*%
D14*
%TO.P,U42,1,A0*%
%TO.N,Net-(D59-A)*%
X74120000Y-89100000D03*
D15*
%TO.P,U42,2,A1*%
%TO.N,Net-(D60-A)*%
X74120000Y-91640000D03*
%TO.P,U42,3,A2*%
%TO.N,Net-(D61-A)*%
X74120000Y-94180000D03*
%TO.P,U42,4,E1*%
%TO.N,GND*%
X74120000Y-96720000D03*
%TO.P,U42,5,E2*%
X74120000Y-99260000D03*
%TO.P,U42,6,E3*%
%TO.N,VCC*%
X74120000Y-101800000D03*
%TO.P,U42,7,O7*%
%TO.N,unconnected-(U42-O7-Pad7)*%
X74120000Y-104340000D03*
%TO.P,U42,8,GND*%
%TO.N,GND*%
X74120000Y-106880000D03*
%TO.P,U42,9,O6*%
%TO.N,unconnected-(U42-O6-Pad9)*%
X81740000Y-106880000D03*
%TO.P,U42,10,O5*%
%TO.N,Net-(U42-O5)*%
X81740000Y-104340000D03*
%TO.P,U42,11,O4*%
%TO.N,Net-(D54-K)*%
X81740000Y-101800000D03*
%TO.P,U42,12,O3*%
%TO.N,Net-(D55-K)*%
X81740000Y-99260000D03*
%TO.P,U42,13,O2*%
%TO.N,Net-(D56-K)*%
X81740000Y-96720000D03*
%TO.P,U42,14,O1*%
%TO.N,Net-(D57-K)*%
X81740000Y-94180000D03*
%TO.P,U42,15,O0*%
%TO.N,Net-(D58-K)*%
X81740000Y-91640000D03*
%TO.P,U42,16,VCC*%
%TO.N,VCC*%
X81740000Y-89100000D03*
%TD*%
D10*
%TO.P,R23,1*%
%TO.N,Net-(D23-K)*%
X240647100Y-47272300D03*
%TO.P,R23,2*%
%TO.N,GND*%
X240647100Y-54892300D03*
%TD*%
D24*
%TO.P,U118,1,Oe1*%
%TO.N,GND*%
X184000000Y-55420000D03*
D25*
%TO.P,U118,2,Oe2*%
X181460000Y-55420000D03*
%TO.P,U118,3,Q0*%
%TO.N,IR_7*%
X178920000Y-55420000D03*
%TO.P,U118,4,Q1*%
%TO.N,IR_6*%
X176380000Y-55420000D03*
%TO.P,U118,5,Q2*%
%TO.N,IR_5*%
X173840000Y-55420000D03*
%TO.P,U118,6,Q3*%
%TO.N,IR_4*%
X171300000Y-55420000D03*
%TO.P,U118,7,Cp*%
%TO.N,CLK*%
X168760000Y-55420000D03*
%TO.P,U118,8,GND*%
%TO.N,GND*%
X166220000Y-55420000D03*
%TO.P,U118,9,E1*%
%TO.N,~{II}*%
X163680000Y-55420000D03*
%TO.P,U118,10,E2*%
X161140000Y-55420000D03*
%TO.P,U118,11,D3*%
%TO.N,BUS_4*%
X161140000Y-63040000D03*
%TO.P,U118,12,D2*%
%TO.N,BUS_5*%
X163680000Y-63040000D03*
%TO.P,U118,13,D1*%
%TO.N,BUS_6*%
X166220000Y-63040000D03*
%TO.P,U118,14,D0*%
%TO.N,BUS_7*%
X168760000Y-63040000D03*
%TO.P,U118,15,Mr*%
%TO.N,CLR*%
X171300000Y-63040000D03*
%TO.P,U118,16,VCC*%
%TO.N,VCC*%
X173840000Y-63040000D03*
%TO.P,U118,17*%
%TO.N,N/C*%
X176380000Y-63040000D03*
%TO.P,U118,18*%
X178920000Y-63040000D03*
%TO.P,U118,19*%
X181460000Y-63040000D03*
%TO.P,U118,20*%
X184000000Y-63040000D03*
%TD*%
D16*
%TO.P,D62,1,K*%
%TO.N,Net-(D62-K)*%
X58500000Y-106690000D03*
D17*
%TO.P,D62,2,A*%
%TO.N,BUS_0*%
X58500000Y-104150000D03*
%TD*%
D12*
%TO.P,C67,1*%
%TO.N,VCC*%
X84500000Y-89000000D03*
%TO.P,C67,2*%
%TO.N,GND*%
X86500000Y-89000000D03*
%TD*%
D16*
%TO.P,D15,1,K*%
%TO.N,Net-(D15-K)*%
X262087100Y-103852300D03*
D17*
%TO.P,D15,2,A*%
%TO.N,Net-(D15-A)*%
X264627100Y-103852300D03*
%TD*%
D10*
%TO.P,R8,1*%
%TO.N,Net-(D14-K)*%
X256750000Y-53980000D03*
%TO.P,R8,2*%
%TO.N,GND*%
X256750000Y-46360000D03*
%TD*%
D16*
%TO.P,D63,1,K*%
%TO.N,Net-(D63-K)*%
X58500000Y-101690000D03*
D17*
%TO.P,D63,2,A*%
%TO.N,BUS_1*%
X58500000Y-99150000D03*
%TD*%
D14*
%TO.P,U27,1*%
%TO.N,Net-(U21-\u002AO0)*%
X216037400Y-105325000D03*
D15*
%TO.P,U27,2*%
%TO.N,Net-(D26-A)*%
X216037400Y-107865000D03*
%TO.P,U27,3*%
%TO.N,Net-(U21-\u002AO1)*%
X216037400Y-110405000D03*
%TO.P,U27,4*%
%TO.N,Net-(D27-A)*%
X216037400Y-112945000D03*
%TO.P,U27,5*%
%TO.N,Net-(U21-\u002AO2)*%
X216037400Y-115485000D03*
%TO.P,U27,6*%
%TO.N,Net-(D28-A)*%
X216037400Y-118025000D03*
%TO.P,U27,7,GND*%
%TO.N,GND*%
X216037400Y-120565000D03*
%TO.P,U27,8*%
%TO.N,Net-(D29-A)*%
X223657400Y-120565000D03*
%TO.P,U27,9*%
%TO.N,Net-(U21-\u002AO3)*%
X223657400Y-118025000D03*
%TO.P,U27,10*%
%TO.N,Net-(D30-A)*%
X223657400Y-115485000D03*
%TO.P,U27,11*%
%TO.N,Net-(U23-\u002AO3)*%
X223657400Y-112945000D03*
%TO.P,U27,12*%
%TO.N,Net-(D31-A)*%
X223657400Y-110405000D03*
%TO.P,U27,13*%
%TO.N,Net-(U23-\u002AO2)*%
X223657400Y-107865000D03*
%TO.P,U27,14,VCC*%
%TO.N,VCC*%
X223657400Y-105325000D03*
%TD*%
D11*
%TO.P,U14,1,S2*%
%TO.N,Net-(D18-A)*%
X287720000Y-45670000D03*
D10*
%TO.P,U14,2,B2*%
%TO.N,Net-(U14-B2)*%
X287720000Y-48210000D03*
%TO.P,U14,3,A2*%
%TO.N,/ALU/A_1*%
X287720000Y-50750000D03*
%TO.P,U14,4,S1*%
%TO.N,Net-(D19-A)*%
X287720000Y-53290000D03*
%TO.P,U14,5,A1*%
%TO.N,/ALU/A_0*%
X287720000Y-55830000D03*
%TO.P,U14,6,B1*%
%TO.N,Net-(U14-B1)*%
X287720000Y-58370000D03*
%TO.P,U14,7,C0*%
%TO.N,SU*%
X287720000Y-60910000D03*
%TO.P,U14,8,GND*%
%TO.N,GND*%
X287720000Y-63450000D03*
%TO.P,U14,9,C4*%
%TO.N,Net-(U13-C0)*%
X295340000Y-63450000D03*
%TO.P,U14,10,S4*%
%TO.N,Net-(D16-A)*%
X295340000Y-60910000D03*
%TO.P,U14,11,B4*%
%TO.N,Net-(U14-B4)*%
X295340000Y-58370000D03*
%TO.P,U14,12,A4*%
%TO.N,/ALU/A_3*%
X295340000Y-55830000D03*
%TO.P,U14,13,S3*%
%TO.N,Net-(D17-A)*%
X295340000Y-53290000D03*
%TO.P,U14,14,A3*%
%TO.N,/ALU/A_2*%
X295340000Y-50750000D03*
%TO.P,U14,15,B3*%
%TO.N,Net-(U14-B3)*%
X295340000Y-48210000D03*
%TO.P,U14,16,VCC*%
%TO.N,VCC*%
X295340000Y-45670000D03*
%TD*%
%TO.P,R84,1*%
%TO.N,Net-(D113-K)*%
X162500000Y-34920000D03*
%TO.P,R84,2*%
%TO.N,GND*%
X162500000Y-27300000D03*
%TD*%
%TO.P,R53,1*%
%TO.N,Net-(D51-K)*%
X107817100Y-117532300D03*
%TO.P,R53,2*%
%TO.N,GND*%
X107817100Y-109912300D03*
%TD*%
D16*
%TO.P,D7,1,K*%
%TO.N,Net-(D7-K)*%
X226587100Y-81162300D03*
D17*
%TO.P,D7,2,A*%
%TO.N,/ALU/A_2*%
X224047100Y-81162300D03*
%TD*%
D16*
%TO.P,D55,1,K*%
%TO.N,Net-(D55-K)*%
X96882100Y-103552300D03*
D17*
%TO.P,D55,2,A*%
%TO.N,Net-(D55-A)*%
X99422100Y-103552300D03*
%TD*%
D12*
%TO.P,C57,1*%
%TO.N,VCC*%
X144500000Y-96000000D03*
%TO.P,C57,2*%
%TO.N,GND*%
X146500000Y-96000000D03*
%TD*%
D16*
%TO.P,D19,1,K*%
%TO.N,Net-(D19-K)*%
X281877100Y-103852300D03*
D17*
%TO.P,D19,2,A*%
%TO.N,Net-(D19-A)*%
X284417100Y-103852300D03*
%TD*%
D10*
%TO.P,R105,1*%
%TO.N,Net-(D8-K)*%
X231567100Y-85662300D03*
%TO.P,R105,2*%
%TO.N,GND*%
X231567100Y-93282300D03*
%TD*%
D33*
%TO.P,RV1,*%
%TO.N,*%
X328275000Y-106700000D03*
X328275000Y-116300000D03*
D16*
%TO.P,RV1,1,1*%
%TO.N,Net-(U1-THR)*%
X320775000Y-109000000D03*
D17*
%TO.P,RV1,2,2*%
%TO.N,Net-(R2-Pad2)*%
X320775000Y-111500000D03*
%TO.P,RV1,3,3*%
%TO.N,unconnected-(RV1-Pad3)*%
X320775000Y-114000000D03*
%TD*%
D12*
%TO.P,C69,1*%
%TO.N,VCC*%
X105000000Y-28000000D03*
%TO.P,C69,2*%
%TO.N,GND*%
X105000000Y-26000000D03*
%TD*%
D14*
%TO.P,U47,1*%
%TO.N,Net-(D46-A)*%
X132912100Y-51812300D03*
D15*
%TO.P,U47,2*%
%TO.N,~{EO}*%
X132912100Y-54352300D03*
%TO.P,U47,3*%
%TO.N,Net-(D48-A)*%
X132912100Y-56892300D03*
%TO.P,U47,4*%
%TO.N,~{BI}*%
X132912100Y-59432300D03*
%TO.P,U47,5*%
%TO.N,unconnected-(U47-Pad5)*%
X132912100Y-61972300D03*
%TO.P,U47,6*%
%TO.N,unconnected-(U47-Pad6)*%
X132912100Y-64512300D03*
%TO.P,U47,7,GND*%
%TO.N,GND*%
X132912100Y-67052300D03*
%TO.P,U47,8*%
%TO.N,unconnected-(U47-Pad8)*%
X140532100Y-67052300D03*
%TO.P,U47,9*%
%TO.N,unconnected-(U47-Pad9)*%
X140532100Y-64512300D03*
%TO.P,U47,10*%
%TO.N,unconnected-(U47-Pad10)*%
X140532100Y-61972300D03*
%TO.P,U47,11*%
%TO.N,unconnected-(U47-Pad11)*%
X140532100Y-59432300D03*
%TO.P,U47,12*%
%TO.N,unconnected-(U47-Pad12)*%
X140532100Y-56892300D03*
%TO.P,U47,13*%
%TO.N,unconnected-(U47-Pad13)*%
X140532100Y-54352300D03*
%TO.P,U47,14,VCC*%
%TO.N,VCC*%
X140532100Y-51812300D03*
%TD*%
D12*
%TO.P,C34,1*%
%TO.N,GND*%
X266000000Y-124000000D03*
%TO.P,C34,2*%
%TO.N,VCC*%
X264000000Y-124000000D03*
%TD*%
D10*
%TO.P,R104,1*%
%TO.N,Net-(D7-K)*%
X226567100Y-85662300D03*
%TO.P,R104,2*%
%TO.N,GND*%
X226567100Y-93282300D03*
%TD*%
%TO.P,R64,1*%
%TO.N,Net-(R64-Pad1)*%
X85912100Y-66552300D03*
%TO.P,R64,2*%
%TO.N,GND*%
X85912100Y-58932300D03*
%TD*%
D12*
%TO.P,C63,1*%
%TO.N,VCC*%
X84500000Y-70500000D03*
%TO.P,C63,2*%
%TO.N,GND*%
X86500000Y-70500000D03*
%TD*%
D10*
%TO.P,R40,1*%
%TO.N,Net-(D38-K)*%
X42317100Y-117412300D03*
%TO.P,R40,2*%
%TO.N,GND*%
X42317100Y-109792300D03*
%TD*%
D12*
%TO.P,C70,1*%
%TO.N,VCC*%
X143500000Y-51500000D03*
%TO.P,C70,2*%
%TO.N,GND*%
X145500000Y-51500000D03*
%TD*%
%TO.P,C36,1*%
%TO.N,VCC*%
X279500000Y-23000000D03*
%TO.P,C36,2*%
%TO.N,GND*%
X281500000Y-23000000D03*
%TD*%
D10*
%TO.P,R85,1*%
%TO.N,Net-(D114-K)*%
X167500000Y-34920000D03*
%TO.P,R85,2*%
%TO.N,GND*%
X167500000Y-27300000D03*
%TD*%
D12*
%TO.P,C15,1*%
%TO.N,VCC*%
X153490000Y-60920000D03*
%TO.P,C15,2*%
%TO.N,GND*%
X155490000Y-60920000D03*
%TD*%
D16*
%TO.P,D12,1,K*%
%TO.N,Net-(D12-K)*%
X252367100Y-103852300D03*
D17*
%TO.P,D12,2,A*%
%TO.N,Net-(D12-A)*%
X254907100Y-103852300D03*
%TD*%
D34*
%TO.P,U16,1*%
%TO.N,/ALU/B_1*%
X289380000Y-112805000D03*
D10*
%TO.P,U16,2*%
%TO.N,SU*%
X291920000Y-112805000D03*
%TO.P,U16,3*%
%TO.N,Net-(U14-B3)*%
X294460000Y-112805000D03*
%TO.P,U16,4*%
%TO.N,/ALU/B_0*%
X297000000Y-112805000D03*
%TO.P,U16,5*%
%TO.N,SU*%
X299540000Y-112805000D03*
%TO.P,U16,6*%
%TO.N,Net-(U14-B1)*%
X302080000Y-112805000D03*
%TO.P,U16,7,GND*%
%TO.N,GND*%
X304620000Y-112805000D03*
%TO.P,U16,8*%
%TO.N,Net-(U14-B4)*%
X304620000Y-105185000D03*
%TO.P,U16,9*%
%TO.N,/ALU/B_3*%
X302080000Y-105185000D03*
%TO.P,U16,10*%
%TO.N,SU*%
X299540000Y-105185000D03*
%TO.P,U16,11*%
%TO.N,Net-(U14-B2)*%
X297000000Y-105185000D03*
%TO.P,U16,12*%
%TO.N,/ALU/B_2*%
X294460000Y-105185000D03*
%TO.P,U16,13*%
%TO.N,SU*%
X291920000Y-105185000D03*
%TO.P,U16,14,VCC*%
%TO.N,VCC*%
X289380000Y-105185000D03*
%TD*%
D18*
%TO.P,U44,1*%
%TO.N,N/C*%
X108442550Y-32060000D03*
D19*
%TO.P,U44,2,A12*%
%TO.N,GND*%
X108442550Y-34600000D03*
%TO.P,U44,3,A7*%
%TO.N,VCC*%
X108442550Y-37140000D03*
%TO.P,U44,4,A6*%
%TO.N,IR_7*%
X108442550Y-39680000D03*
%TO.P,U44,5,A5*%
%TO.N,IR_6*%
X108442550Y-42220000D03*
%TO.P,U44,6,A4*%
%TO.N,IR_5*%
X108442550Y-44760000D03*
%TO.P,U44,7,A3*%
%TO.N,IR_4*%
X108442550Y-47300000D03*
%TO.P,U44,8,A2*%
%TO.N,Net-(D61-A)*%
X108442550Y-49840000D03*
%TO.P,U44,9,A1*%
%TO.N,Net-(D60-A)*%
X108442550Y-52380000D03*
%TO.P,U44,10,A0*%
%TO.N,Net-(D59-A)*%
X108442550Y-54920000D03*
%TO.P,U44,11,I/O0*%
%TO.N,Net-(D53-A)*%
X108442550Y-57460000D03*
%TO.P,U44,12,I/O1*%
%TO.N,Net-(D52-A)*%
X108442550Y-60000000D03*
%TO.P,U44,13,I/O2*%
%TO.N,Net-(D51-A)*%
X108442550Y-62540000D03*
%TO.P,U44,14,GND*%
%TO.N,GND*%
X108442550Y-65080000D03*
%TO.P,U44,15,I/O3*%
%TO.N,CE*%
X124000050Y-65080000D03*
%TO.P,U44,16,I/O4*%
%TO.N,OI*%
X124000050Y-62540000D03*
%TO.P,U44,17,I/O5*%
%TO.N,Net-(D48-A)*%
X124000050Y-60000000D03*
%TO.P,U44,18,I/O6*%
%TO.N,SU*%
X124000050Y-57460000D03*
%TO.P,U44,19,I/O7*%
%TO.N,Net-(D46-A)*%
X124000050Y-54920000D03*
%TO.P,U44,20,~{CE}*%
%TO.N,GND*%
X124000050Y-52380000D03*
%TO.P,U44,21,A10*%
X124000050Y-49840000D03*
%TO.P,U44,22,~{OE}*%
X124000050Y-47300000D03*
%TO.P,U44,23,A11*%
X124000050Y-44760000D03*
%TO.P,U44,24,A9*%
%TO.N,ZF*%
X124000050Y-42220000D03*
%TO.P,U44,25,A8*%
%TO.N,CF*%
X124000050Y-39680000D03*
%TO.P,U44,26*%
%TO.N,N/C*%
X124000050Y-37140000D03*
%TO.P,U44,27,~{WE}*%
%TO.N,VCC*%
X124000050Y-34600000D03*
%TO.P,U44,28,VCC*%
X124000050Y-32060000D03*
%TD*%
D16*
%TO.P,D45,1,K*%
%TO.N,Net-(D45-K)*%
X77277100Y-122412300D03*
D17*
%TO.P,D45,2,A*%
%TO.N,Net-(D45-A)*%
X79817100Y-122412300D03*
%TD*%
D16*
%TO.P,D118,1,K*%
%TO.N,Net-(D118-K)*%
X187460000Y-39920000D03*
D17*
%TO.P,D118,2,A*%
%TO.N,Net-(D118-A)*%
X190000000Y-39920000D03*
%TD*%
D16*
%TO.P,D36,1,K*%
%TO.N,Net-(D36-K)*%
X169970000Y-79420000D03*
D17*
%TO.P,D36,2,A*%
%TO.N,Net-(D36-A)*%
X172510000Y-79420000D03*
%TD*%
D14*
%TO.P,U119,1,Oe1*%
%TO.N,GND*%
X212817100Y-53912300D03*
D15*
%TO.P,U119,2,Oe2*%
X212817100Y-51372300D03*
%TO.P,U119,3,Q0*%
%TO.N,Net-(D116-A)*%
X212817100Y-48832300D03*
%TO.P,U119,4,Q1*%
%TO.N,Net-(D117-A)*%
X212817100Y-46292300D03*
%TO.P,U119,5,Q2*%
%TO.N,Net-(D118-A)*%
X212817100Y-43752300D03*
%TO.P,U119,6,Q3*%
%TO.N,Net-(D119-A)*%
X212817100Y-41212300D03*
%TO.P,U119,7,Cp*%
%TO.N,CLK*%
X212817100Y-38672300D03*
%TO.P,U119,8,GND*%
%TO.N,GND*%
X212817100Y-36132300D03*
%TO.P,U119,9,E1*%
%TO.N,~{II}*%
X205197100Y-36132300D03*
%TO.P,U119,10,E2*%
X205197100Y-38672300D03*
%TO.P,U119,11,D3*%
%TO.N,BUS_0*%
X205197100Y-41212300D03*
%TO.P,U119,12,D2*%
%TO.N,BUS_1*%
X205197100Y-43752300D03*
%TO.P,U119,13,D1*%
%TO.N,BUS_2*%
X205197100Y-46292300D03*
%TO.P,U119,14,D0*%
%TO.N,BUS_3*%
X205197100Y-48832300D03*
%TO.P,U119,15,Mr*%
%TO.N,CLR*%
X205197100Y-51372300D03*
%TO.P,U119,16,VCC*%
%TO.N,VCC*%
X205197100Y-53912300D03*
%TD*%
D10*
%TO.P,R96,1*%
%TO.N,Net-(D027-K)*%
X309460000Y-72730000D03*
%TO.P,R96,2*%
%TO.N,GND*%
X309460000Y-65110000D03*
%TD*%
%TO.P,R67,1*%
%TO.N,Net-(D64-K)*%
X53667700Y-96657100D03*
%TO.P,R67,2*%
%TO.N,GND*%
X46047700Y-96657100D03*
%TD*%
%TO.P,R75,1*%
%TO.N,BUS_5*%
X63325000Y-96690000D03*
%TO.P,R75,2*%
%TO.N,GND*%
X70945000Y-96690000D03*
%TD*%
D16*
%TO.P,D6,1,K*%
%TO.N,Net-(D6-K)*%
X221587100Y-81162300D03*
D17*
%TO.P,D6,2,A*%
%TO.N,/ALU/A_3*%
X219047100Y-81162300D03*
%TD*%
D35*
%TO.P,U3,1,GND*%
%TO.N,GND*%
X292542100Y-146567300D03*
%TO.P,U3,2,TR*%
%TO.N,Net-(SW2-A)*%
X292542100Y-145297300D03*
%TO.P,U3,3,Q*%
%TO.N,Net-(U3-Q)*%
X292542100Y-144027300D03*
%TO.P,U3,4,R*%
%TO.N,Net-(SW2-C)*%
X292542100Y-142757300D03*
%TO.P,U3,5,CV*%
%TO.N,Net-(U3-CV)*%
X287592100Y-142757300D03*
%TO.P,U3,6,THR*%
%TO.N,GND*%
X287592100Y-144027300D03*
%TO.P,U3,7,DIS*%
%TO.N,unconnected-(U3-DIS-Pad7)*%
X287592100Y-145297300D03*
%TO.P,U3,8,VCC*%
%TO.N,VCC*%
X287592100Y-146567300D03*
%TD*%
D10*
%TO.P,R10,1*%
%TO.N,GND*%
X256750000Y-66170000D03*
%TO.P,R10,2*%
%TO.N,Net-(D10-K)*%
X256750000Y-58550000D03*
%TD*%
%TO.P,R22,1*%
%TO.N,Net-(D22-K)*%
X234397100Y-47272300D03*
%TO.P,R22,2*%
%TO.N,GND*%
X234397100Y-54892300D03*
%TD*%
%TO.P,R82,1*%
%TO.N,Net-(J1-CC1)*%
X30374400Y-109375000D03*
%TO.P,R82,2*%
%TO.N,GND*%
X37994400Y-109375000D03*
%TD*%
%TO.P,C5,1*%
%TO.N,GND*%
X301067100Y-135962300D03*
%TO.P,C5,2*%
%TO.N,VCC*%
X298567100Y-135962300D03*
%TD*%
D16*
%TO.P,D52,1,K*%
%TO.N,Net-(D52-K)*%
X112777100Y-122412300D03*
D17*
%TO.P,D52,2,A*%
%TO.N,Net-(D52-A)*%
X115317100Y-122412300D03*
%TD*%
D16*
%TO.P,D43,1,K*%
%TO.N,Net-(D43-K)*%
X67227100Y-122412300D03*
D17*
%TO.P,D43,2,A*%
%TO.N,Net-(D43-A)*%
X69767100Y-122412300D03*
%TD*%
D12*
%TO.P,C56,1*%
%TO.N,VCC*%
X180000000Y-74000000D03*
%TO.P,C56,2*%
%TO.N,GND*%
X182000000Y-74000000D03*
%TD*%
D14*
%TO.P,U45,1*%
%TO.N,Net-(U26-Pad6)*%
X74000000Y-70180000D03*
D15*
%TO.P,U45,2*%
X74000000Y-72720000D03*
%TO.P,U45,3*%
%TO.N,Net-(U41-~{MR})*%
X74000000Y-75260000D03*
%TO.P,U45,4*%
%TO.N,N/C*%
X74000000Y-77800000D03*
%TO.P,U45,5*%
X74000000Y-80340000D03*
%TO.P,U45,6*%
X74000000Y-82880000D03*
%TO.P,U45,7,GND*%
%TO.N,GND*%
X74000000Y-85420000D03*
%TO.P,U45,8*%
%TO.N,N/C*%
X81620000Y-85420000D03*
%TO.P,U45,9*%
X81620000Y-82880000D03*
%TO.P,U45,10*%
X81620000Y-80340000D03*
%TO.P,U45,11*%
X81620000Y-77800000D03*
%TO.P,U45,12*%
X81620000Y-75260000D03*
%TO.P,U45,13*%
X81620000Y-72720000D03*
%TO.P,U45,14,VCC*%
%TO.N,VCC*%
X81620000Y-70180000D03*
%TD*%
D12*
%TO.P,C14,1*%
%TO.N,CLK*%
X200000000Y-105500000D03*
%TO.P,C14,2*%
%TO.N,Net-(C14-Pad2)*%
X202000000Y-105500000D03*
%TD*%
D10*
%TO.P,R49,1*%
%TO.N,Net-(D47-K)*%
X87317100Y-117412300D03*
%TO.P,R49,2*%
%TO.N,GND*%
X87317100Y-109792300D03*
%TD*%
D16*
%TO.P,D33,1,K*%
%TO.N,Net-(D33-K)*%
X215120000Y-161420000D03*
D17*
%TO.P,D33,2,A*%
%TO.N,Net-(D33-A)*%
X217660000Y-161420000D03*
%TD*%
D10*
%TO.P,C6,1*%
%TO.N,GND*%
X301067100Y-131912300D03*
%TO.P,C6,2*%
%TO.N,VCC*%
X298567100Y-131912300D03*
%TD*%
D18*
%TO.P,U40,1*%
%TO.N,N/C*%
X126166450Y-95979100D03*
D19*
%TO.P,U40,2,A12*%
%TO.N,GND*%
X126166450Y-98519100D03*
%TO.P,U40,3,A7*%
%TO.N,Net-(U38-Q7)*%
X126166450Y-101059100D03*
%TO.P,U40,4,A6*%
%TO.N,Net-(U38-Q6)*%
X126166450Y-103599100D03*
%TO.P,U40,5,A5*%
%TO.N,Net-(U38-Q5)*%
X126166450Y-106139100D03*
%TO.P,U40,6,A4*%
%TO.N,Net-(U38-Q4)*%
X126166450Y-108679100D03*
%TO.P,U40,7,A3*%
%TO.N,Net-(U38-Q3)*%
X126166450Y-111219100D03*
%TO.P,U40,8,A2*%
%TO.N,Net-(U38-Q2)*%
X126166450Y-113759100D03*
%TO.P,U40,9,A1*%
%TO.N,Net-(U38-Q1)*%
X126166450Y-116299100D03*
%TO.P,U40,10,A0*%
%TO.N,Net-(U38-Q0)*%
X126166450Y-118839100D03*
%TO.P,U40,11,I/O0*%
%TO.N,Net-(U34-G)*%
X126166450Y-121379100D03*
%TO.P,U40,12,I/O1*%
%TO.N,Net-(U34-F)*%
X126166450Y-123919100D03*
%TO.P,U40,13,I/O2*%
%TO.N,Net-(U34-E)*%
X126166450Y-126459100D03*
%TO.P,U40,14,GND*%
%TO.N,GND*%
X126166450Y-128999100D03*
%TO.P,U40,15,I/O3*%
%TO.N,Net-(U34-D)*%
X141723950Y-128999100D03*
%TO.P,U40,16,I/O4*%
%TO.N,Net-(U34-C)*%
X141723950Y-126459100D03*
%TO.P,U40,17,I/O5*%
%TO.N,Net-(U34-B)*%
X141723950Y-123919100D03*
%TO.P,U40,18,I/O6*%
%TO.N,Net-(U34-A)*%
X141723950Y-121379100D03*
%TO.P,U40,19,I/O7*%
%TO.N,Net-(U34-DP)*%
X141723950Y-118839100D03*
%TO.P,U40,20,~{CE}*%
%TO.N,GND*%
X141723950Y-116299100D03*
%TO.P,U40,21,A10*%
%TO.N,Net-(SW7-B)*%
X141723950Y-113759100D03*
%TO.P,U40,22,~{OE}*%
%TO.N,GND*%
X141723950Y-111219100D03*
%TO.P,U40,23,A11*%
X141723950Y-108679100D03*
%TO.P,U40,24,A9*%
%TO.N,Net-(U32B-~{Q})*%
X141723950Y-106139100D03*
%TO.P,U40,25,A8*%
%TO.N,Net-(U32A-~{Q})*%
X141723950Y-103599100D03*
%TO.P,U40,26*%
%TO.N,N/C*%
X141723950Y-101059100D03*
%TO.P,U40,27,~{WE}*%
%TO.N,VCC*%
X141723950Y-98519100D03*
%TO.P,U40,28,VCC*%
X141723950Y-95979100D03*
%TD*%
D11*
%TO.P,U51,1,S*%
%TO.N,/MAR/PROG*%
X241697100Y-124172300D03*
D10*
%TO.P,U51,2,I0a*%
%TO.N,unconnected-(U51-I0a-Pad2)*%
X241697100Y-126712300D03*
%TO.P,U51,3,I1a*%
%TO.N,unconnected-(U51-I1a-Pad3)*%
X241697100Y-129252300D03*
%TO.P,U51,4,Za*%
%TO.N,unconnected-(U51-Za-Pad4)*%
X241697100Y-131792300D03*
%TO.P,U51,5,I0b*%
%TO.N,unconnected-(U51-I0b-Pad5)*%
X241697100Y-134332300D03*
%TO.P,U51,6,I1b*%
%TO.N,unconnected-(U51-I1b-Pad6)*%
X241697100Y-136872300D03*
%TO.P,U51,7,Zb*%
%TO.N,unconnected-(U51-Zb-Pad7)*%
X241697100Y-139412300D03*
%TO.P,U51,8,GND*%
%TO.N,GND*%
X241697100Y-141952300D03*
%TO.P,U51,9,Zd*%
%TO.N,unconnected-(U51-Zd-Pad9)*%
X249317100Y-141952300D03*
%TO.P,U51,10,I1d*%
%TO.N,unconnected-(U51-I1d-Pad10)*%
X249317100Y-139412300D03*
%TO.P,U51,11,I0d*%
%TO.N,unconnected-(U51-I0d-Pad11)*%
X249317100Y-136872300D03*
%TO.P,U51,12,Zc*%
%TO.N,Net-(U51-Zc)*%
X249317100Y-134332300D03*
%TO.P,U51,13,I1c*%
%TO.N,Net-(U51-I1c)*%
X249317100Y-131792300D03*
%TO.P,U51,14,I0c*%
%TO.N,Net-(U51-I0c)*%
X249317100Y-129252300D03*
%TO.P,U51,15,E*%
%TO.N,GND*%
X249317100Y-126712300D03*
%TO.P,U51,16,VCC*%
%TO.N,VCC*%
X249317100Y-124172300D03*
%TD*%
D36*
%TO.P,U4,1*%
%TO.N,Net-(U1-Q)*%
X289437100Y-120607300D03*
D10*
%TO.P,U4,2*%
%TO.N,Net-(U3-Q)*%
X286897100Y-120607300D03*
%TO.P,U4,3*%
%TO.N,Net-(U4-Pad3)*%
X284357100Y-120607300D03*
%TO.P,U4,4*%
%TO.N,Net-(U4-Pad4)*%
X281817100Y-120607300D03*
%TO.P,U4,5*%
%TO.N,Net-(U2-Q)*%
X279277100Y-120607300D03*
%TO.P,U4,6*%
%TO.N,Net-(U4-Pad6)*%
X276737100Y-120607300D03*
%TO.P,U4,7,GND*%
%TO.N,GND*%
X274197100Y-120607300D03*
%TO.P,U4,8*%
%TO.N,CLK*%
X274197100Y-128227300D03*
%TO.P,U4,9*%
%TO.N,Net-(U4-Pad9)*%
X276737100Y-128227300D03*
%TO.P,U4,10*%
%TO.N,Net-(U4-Pad10)*%
X279277100Y-128227300D03*
%TO.P,U4,11*%
%TO.N,unconnected-(U4-Pad11)*%
X281817100Y-128227300D03*
%TO.P,U4,12*%
%TO.N,unconnected-(U4-Pad12)*%
X284357100Y-128227300D03*
%TO.P,U4,13*%
%TO.N,unconnected-(U4-Pad13)*%
X286897100Y-128227300D03*
%TO.P,U4,14,VCC*%
%TO.N,VCC*%
X289437100Y-128227300D03*
%TD*%
D24*
%TO.P,U38,1,~{Mr}*%
%TO.N,~{CLR}*%
X151697100Y-134632300D03*
D25*
%TO.P,U38,2,Q0*%
%TO.N,Net-(U38-Q0)*%
X151697100Y-137172300D03*
%TO.P,U38,3,D0*%
%TO.N,BUS_0*%
X151697100Y-139712300D03*
%TO.P,U38,4,D1*%
%TO.N,BUS_1*%
X151697100Y-142252300D03*
%TO.P,U38,5,Q1*%
%TO.N,Net-(U38-Q1)*%
X151697100Y-144792300D03*
%TO.P,U38,6,Q2*%
%TO.N,Net-(U38-Q2)*%
X151697100Y-147332300D03*
%TO.P,U38,7,D2*%
%TO.N,BUS_2*%
X151697100Y-149872300D03*
%TO.P,U38,8,D3*%
%TO.N,BUS_3*%
X151697100Y-152412300D03*
%TO.P,U38,9,Q3*%
%TO.N,Net-(U38-Q3)*%
X151697100Y-154952300D03*
%TO.P,U38,10,GND*%
%TO.N,GND*%
X151697100Y-157492300D03*
%TO.P,U38,11,Cp*%
%TO.N,Net-(U38-Cp)*%
X159317100Y-157492300D03*
%TO.P,U38,12,Q4*%
%TO.N,Net-(U38-Q4)*%
X159317100Y-154952300D03*
%TO.P,U38,13,D4*%
%TO.N,BUS_4*%
X159317100Y-152412300D03*
%TO.P,U38,14,D5*%
%TO.N,BUS_5*%
X159317100Y-149872300D03*
%TO.P,U38,15,Q5*%
%TO.N,Net-(U38-Q5)*%
X159317100Y-147332300D03*
%TO.P,U38,16,Q6*%
%TO.N,Net-(U38-Q6)*%
X159317100Y-144792300D03*
%TO.P,U38,17,D6*%
%TO.N,BUS_6*%
X159317100Y-142252300D03*
%TO.P,U38,18,D7*%
%TO.N,BUS_7*%
X159317100Y-139712300D03*
%TO.P,U38,19,Q7*%
%TO.N,Net-(U38-Q7)*%
X159317100Y-137172300D03*
%TO.P,U38,20,VCC*%
%TO.N,VCC*%
X159317100Y-134632300D03*
%TD*%
D14*
%TO.P,U49,1,Oe1*%
%TO.N,GND*%
X196627100Y-79672300D03*
D15*
%TO.P,U49,2,Oe2*%
X196627100Y-77132300D03*
%TO.P,U49,3,Q0*%
%TO.N,/ALU/A_7*%
X196627100Y-74592300D03*
%TO.P,U49,4,Q1*%
%TO.N,/ALU/A_6*%
X196627100Y-72052300D03*
%TO.P,U49,5,Q2*%
%TO.N,/ALU/A_5*%
X196627100Y-69512300D03*
%TO.P,U49,6,Q3*%
%TO.N,/ALU/A_4*%
X196627100Y-66972300D03*
%TO.P,U49,7,Cp*%
%TO.N,CLK*%
X196627100Y-64432300D03*
%TO.P,U49,8,GND*%
%TO.N,GND*%
X196627100Y-61892300D03*
%TO.P,U49,9,E1*%
%TO.N,~{AI}*%
X189007100Y-61892300D03*
%TO.P,U49,10,E2*%
X189007100Y-64432300D03*
%TO.P,U49,11,D3*%
%TO.N,BUS_4*%
X189007100Y-66972300D03*
%TO.P,U49,12,D2*%
%TO.N,BUS_5*%
X189007100Y-69512300D03*
%TO.P,U49,13,D1*%
%TO.N,BUS_6*%
X189007100Y-72052300D03*
%TO.P,U49,14,D0*%
%TO.N,BUS_7*%
X189007100Y-74592300D03*
%TO.P,U49,15,Mr*%
%TO.N,CLR*%
X189007100Y-77132300D03*
%TO.P,U49,16,VCC*%
%TO.N,VCC*%
X189007100Y-79672300D03*
%TD*%
D10*
%TO.P,R42,1*%
%TO.N,Net-(D40-K)*%
X52317100Y-117412300D03*
%TO.P,R42,2*%
%TO.N,GND*%
X52317100Y-109792300D03*
%TD*%
D12*
%TO.P,C9,1*%
%TO.N,VCC*%
X255993900Y-76199100D03*
%TO.P,C9,2*%
%TO.N,GND*%
X257993900Y-76199100D03*
%TD*%
D10*
%TO.P,R21,1*%
%TO.N,Net-(D21-K)*%
X228647100Y-47332300D03*
%TO.P,R21,2*%
%TO.N,GND*%
X228647100Y-54952300D03*
%TD*%
D16*
%TO.P,D51,1,K*%
%TO.N,Net-(D51-K)*%
X107607100Y-122412300D03*
D17*
%TO.P,D51,2,A*%
%TO.N,Net-(D51-A)*%
X110147100Y-122412300D03*
%TD*%
D10*
%TO.P,R63,1*%
%TO.N,Net-(D61-K)*%
X114912100Y-81552300D03*
%TO.P,R63,2*%
%TO.N,GND*%
X114912100Y-73932300D03*
%TD*%
D12*
%TO.P,C55,1*%
%TO.N,VCC*%
X154000000Y-66500000D03*
%TO.P,C55,2*%
%TO.N,GND*%
X156000000Y-66500000D03*
%TD*%
%TO.P,C35,1*%
%TO.N,GND*%
X206000000Y-59500000D03*
%TO.P,C35,2*%
%TO.N,VCC*%
X206000000Y-61500000D03*
%TD*%
D10*
%TO.P,R76,1*%
%TO.N,BUS_4*%
X63397900Y-100787700D03*
%TO.P,R76,2*%
%TO.N,GND*%
X71017900Y-100787700D03*
%TD*%
%TO.P,R11,1*%
%TO.N,Net-(D12-K)*%
X252167100Y-109542300D03*
%TO.P,R11,2*%
%TO.N,GND*%
X252167100Y-117162300D03*
%TD*%
D16*
%TO.P,D024,1,K*%
%TO.N,Net-(D024-K)*%
X324420000Y-78920000D03*
D17*
%TO.P,D024,2,A*%
%TO.N,/ALU/B_5*%
X326960000Y-78920000D03*
%TD*%
D10*
%TO.P,R56,1*%
%TO.N,Net-(D58-A)*%
X117412100Y-98552300D03*
%TO.P,R56,2*%
%TO.N,VCC*%
X117412100Y-90932300D03*
%TD*%
D16*
%TO.P,D4,1,K*%
%TO.N,Net-(D4-K)*%
X211567100Y-81162300D03*
D17*
%TO.P,D4,2,A*%
%TO.N,/ALU/A_5*%
X209027100Y-81162300D03*
%TD*%
D12*
%TO.P,C27,1*%
%TO.N,VCC*%
X277500000Y-70000000D03*
%TO.P,C27,2*%
%TO.N,GND*%
X279500000Y-70000000D03*
%TD*%
D37*
%TO.P,SW2,1,A*%
%TO.N,Net-(SW2-A)*%
X300047500Y-155500000D03*
%TO.P,SW2,2,B*%
%TO.N,GND*%
X300047500Y-153000000D03*
%TO.P,SW2,3,C*%
%TO.N,Net-(SW2-C)*%
X300047500Y-150500000D03*
%TD*%
D12*
%TO.P,C48,1*%
%TO.N,VCC*%
X175500000Y-96000000D03*
%TO.P,C48,2*%
%TO.N,GND*%
X177500000Y-96000000D03*
%TD*%
%TO.P,C28,1*%
%TO.N,GND*%
X301500000Y-116500000D03*
%TO.P,C28,2*%
%TO.N,VCC*%
X299500000Y-116500000D03*
%TD*%
%TO.P,C43,1*%
%TO.N,VCC*%
X310000000Y-99000000D03*
%TO.P,C43,2*%
%TO.N,GND*%
X310000000Y-97000000D03*
%TD*%
%TO.P,C71,1*%
%TO.N,VCC*%
X175000000Y-60000000D03*
%TO.P,C71,2*%
%TO.N,GND*%
X175000000Y-58000000D03*
%TD*%
%TO.P,C54,1*%
%TO.N,GND*%
X269000000Y-47000000D03*
%TO.P,C54,2*%
%TO.N,VCC*%
X271000000Y-47000000D03*
%TD*%
%TO.P,C41,1*%
%TO.N,VCC*%
X331500000Y-98500000D03*
%TO.P,C41,2*%
%TO.N,GND*%
X331500000Y-96500000D03*
%TD*%
%TO.P,C72,1*%
%TO.N,VCC*%
X208000000Y-53500000D03*
%TO.P,C72,2*%
%TO.N,GND*%
X210000000Y-53500000D03*
%TD*%
%TO.P,C73,1*%
%TO.N,VCC*%
X169000000Y-49000000D03*
%TO.P,C73,2*%
%TO.N,GND*%
X171000000Y-49000000D03*
%TD*%
%TO.P,C60,1*%
%TO.N,VCC*%
X135000000Y-135500000D03*
%TO.P,C60,2*%
%TO.N,GND*%
X133000000Y-135500000D03*
%TD*%
%TO.P,C62,1*%
%TO.N,VCC*%
X160500000Y-96500000D03*
%TO.P,C62,2*%
%TO.N,GND*%
X158500000Y-96500000D03*
%TD*%
%TO.P,C32,1*%
%TO.N,VCC*%
X289000000Y-124500000D03*
%TO.P,C32,2*%
%TO.N,GND*%
X287000000Y-124500000D03*
%TD*%
%TO.P,C59,1*%
%TO.N,VCC*%
X156500000Y-134500000D03*
%TO.P,C59,2*%
%TO.N,GND*%
X154500000Y-134500000D03*
%TD*%
%TO.P,C51,1*%
%TO.N,VCC*%
X197500000Y-141000000D03*
%TO.P,C51,2*%
%TO.N,GND*%
X199500000Y-141000000D03*
%TD*%
%TO.P,C53,1*%
%TO.N,VCC*%
X251500000Y-121500000D03*
%TO.P,C53,2*%
%TO.N,GND*%
X253500000Y-121500000D03*
%TD*%
%TO.P,C46,1*%
%TO.N,GND*%
X324500000Y-88500000D03*
%TO.P,C46,2*%
%TO.N,VCC*%
X324500000Y-86500000D03*
%TD*%
%TO.P,C61,1*%
%TO.N,VCC*%
X146000000Y-135000000D03*
%TO.P,C61,2*%
%TO.N,GND*%
X144000000Y-135000000D03*
%TD*%
D38*
%TO.N,VCC*%
X115000000Y-153500000D03*
%TO.N,Net-(U18-I1b)*%
X265983800Y-37790400D03*
%TO.N,Net-(U18-I1a)*%
X224880000Y-32377500D03*
%TO.N,Net-(U23-\u002AO0)*%
X214573900Y-109255700D03*
X193056100Y-102253000D03*
%TO.N,Net-(U23-\u002AO3)*%
X221952900Y-116689200D03*
X186577700Y-103015000D03*
%TO.N,Net-(U21-\u002AO3)*%
X172183800Y-102463400D03*
%TO.N,Net-(U21-\u002AO0)*%
X214392200Y-112015400D03*
X169504500Y-99911600D03*
%TO.N,Net-(U21-\u002AO1)*%
X207217800Y-121842100D03*
X169208200Y-103785000D03*
%TO.N,Net-(U21-\u002AO2)*%
X174576300Y-105055000D03*
%TO.N,Net-(U52-Zd)*%
X215427500Y-143501800D03*
%TO.N,Net-(U21-\u002AWE)*%
X221432600Y-113478800D03*
X192784200Y-97192800D03*
X169129400Y-98108200D03*
X178173200Y-98211400D03*
%TO.N,Net-(U23-D3)*%
X228759100Y-116265800D03*
X189683500Y-95057500D03*
X188144400Y-101722600D03*
%TO.N,Net-(U14-B3)*%
X297215700Y-103258700D03*
%TO.N,Net-(U23-D1)*%
X233419900Y-103628400D03*
X253573000Y-106595700D03*
%TO.N,Net-(U52-I0a)*%
X179050000Y-125930300D03*
%TO.N,Net-(U38-Q4)*%
X127253800Y-151162500D03*
%TO.N,Net-(U38-Q5)*%
X131434100Y-132633000D03*
%TO.N,Net-(U38-Q6)*%
X133292200Y-130399700D03*
%TO.N,Net-(U38-Q1)*%
X125383800Y-141222400D03*
%TO.N,Net-(U38-Q3)*%
X134091500Y-111585500D03*
%TO.N,Net-(U38-Q7)*%
X150400500Y-102756200D03*
%TO.N,Net-(U38-Q0)*%
X151583000Y-117355100D03*
%TO.N,Net-(U38-Q2)*%
X124777200Y-143145400D03*
%TO.N,Net-(U34-B)*%
X121133300Y-125274600D03*
%TO.N,Net-(U34-A)*%
X123346000Y-124892200D03*
%TO.N,Net-(U34-DP)*%
X122842900Y-134271900D03*
X139813500Y-129219400D03*
%TO.N,Net-(U34-C)*%
X122745300Y-133467300D03*
X140413600Y-128370500D03*
%TO.N,Net-(U34-G)*%
X109736400Y-128792300D03*
X109314600Y-124621500D03*
%TO.N,Net-(U34-D)*%
X123634300Y-134617400D03*
%TO.N,Net-(U34-E)*%
X113546400Y-127111700D03*
%TO.N,Net-(U33A-O0)*%
X86716400Y-150006000D03*
X142283800Y-154802100D03*
%TO.N,Net-(U52-I0b)*%
X178988300Y-129297500D03*
%TO.N,Net-(U33A-O2)*%
X139583900Y-144243300D03*
%TO.N,Net-(U32B-~{Q})*%
X140824400Y-130880700D03*
%TO.N,Net-(U32A-~{Q})*%
X141659000Y-131682500D03*
%TO.N,Net-(U31-Q)*%
X124277900Y-153667200D03*
%TO.N,~{AI}*%
X190300500Y-55992600D03*
X228266500Y-62888500D03*
%TO.N,~{II}*%
X218384800Y-84325600D03*
%TO.N,Net-(U51-I1c)*%
X200627000Y-124664800D03*
%TO.N,Net-(U26-Pad6)*%
X133054400Y-83254800D03*
X134927800Y-81733100D03*
%TO.N,Net-(U42-O5)*%
X198904100Y-109886900D03*
X153499500Y-98313400D03*
X152685600Y-101064600D03*
%TO.N,~{CLR}*%
X208784100Y-97669200D03*
X158988500Y-128341200D03*
%TO.N,Net-(U23-D0)*%
X229169700Y-113427900D03*
X188561800Y-93921600D03*
X181855300Y-100212500D03*
%TO.N,Net-(U24-Zd)*%
X204240200Y-137993100D03*
%TO.N,Net-(U21-D2)*%
X250902000Y-145210000D03*
X175401200Y-153015800D03*
X175401200Y-103659200D03*
%TO.N,Net-(U24-Zc)*%
X211516000Y-135926300D03*
%TO.N,Net-(U21-D1)*%
X230470900Y-124953200D03*
X201324800Y-121376800D03*
X169232800Y-102515000D03*
%TO.N,Net-(U24-Zb)*%
X188317500Y-133776300D03*
X201015600Y-133304700D03*
%TO.N,Net-(U51-Zc)*%
X229514200Y-131695000D03*
%TO.N,BUS_7*%
X192238800Y-148790100D03*
X75106800Y-87254700D03*
X138850700Y-89051000D03*
X142190600Y-88145900D03*
X162759900Y-86499200D03*
X190919900Y-70889700D03*
%TO.N,BUS_6*%
X195380000Y-148872000D03*
X163680200Y-24871700D03*
X180448100Y-149315300D03*
X291304400Y-100332800D03*
X267784600Y-92256100D03*
%TO.N,BUS_4*%
X312817400Y-94724100D03*
X297822500Y-97926800D03*
X200460000Y-149152200D03*
X63427300Y-144347900D03*
X224427000Y-74953300D03*
X208851300Y-142167300D03*
%TO.N,/MAR/PROG*%
X238194200Y-33428500D03*
X232701500Y-127402100D03*
X187241800Y-123956000D03*
X262366700Y-25621800D03*
%TO.N,Net-(U13-B4)*%
X288253900Y-85767200D03*
%TO.N,~{FI}*%
X134339000Y-40078100D03*
%TO.N,Net-(U12-D0)*%
X281383900Y-51895900D03*
%TO.N,Net-(U10-Pad9)*%
X286307300Y-67146900D03*
%TO.N,~{BI}*%
X293341200Y-115538100D03*
%TO.N,CLR*%
X210991400Y-110242300D03*
X192633300Y-57770300D03*
X210820800Y-63306000D03*
X237211200Y-77913500D03*
X242169400Y-51792400D03*
X304965300Y-40323700D03*
%TO.N,Net-(U52-Zb)*%
X212438400Y-146485400D03*
%TO.N,Net-(U21-D3)*%
X222993800Y-139637300D03*
X220247800Y-116210000D03*
X175313300Y-100300400D03*
%TO.N,Net-(U23-D2)*%
X203904100Y-119869400D03*
X186563400Y-104285000D03*
%TO.N,Net-(U21-D0)*%
X207583600Y-117541600D03*
X166797300Y-99792500D03*
%TO.N,Net-(U52-Zc)*%
X216983600Y-141956700D03*
%TO.N,~{CLK}*%
X87392900Y-68027100D03*
X129915200Y-79566500D03*
X132764800Y-79566500D03*
X228312500Y-120087800D03*
X228912500Y-123758900D03*
%TO.N,Net-(U24-Za)*%
X189868800Y-136945700D03*
X207712100Y-139705300D03*
%TO.N,Net-(U3-Q)*%
X291045400Y-144027300D03*
%TO.N,Net-(U2-Q)*%
X281515600Y-140686800D03*
%TO.N,Net-(SW7-B)*%
X137441800Y-127994600D03*
X118823200Y-128705100D03*
X112516400Y-156462200D03*
%TO.N,Net-(U24-I0c)*%
X180257200Y-132746800D03*
%TO.N,Net-(U24-I0d)*%
X186114200Y-140443000D03*
%TO.N,Net-(R64-Pad1)*%
X201153800Y-111364100D03*
X149367500Y-94181400D03*
X147338800Y-95192200D03*
%TO.N,Net-(U31-DIS)*%
X158032700Y-149221400D03*
X128734200Y-151762200D03*
%TO.N,Net-(U1-DIS)*%
X301015300Y-120213300D03*
%TO.N,Net-(D119-A)*%
X180079500Y-41635300D03*
%TO.N,Net-(D117-A)*%
X186845400Y-47286700D03*
X211519400Y-47286700D03*
%TO.N,Net-(D116-A)*%
X182430100Y-45909600D03*
%TO.N,IR_4*%
X169258600Y-31602200D03*
%TO.N,IR_5*%
X176200100Y-31973800D03*
%TO.N,IR_6*%
X113057000Y-42220000D03*
X165020000Y-31973800D03*
%TO.N,IR_7*%
X175051600Y-42702200D03*
X160040000Y-28958200D03*
%TO.N,BUS_3*%
X270967800Y-71578500D03*
X240658900Y-72320500D03*
X181247400Y-151142300D03*
X82898500Y-91267100D03*
X139531900Y-89732300D03*
X208460300Y-58364300D03*
X171815000Y-57016300D03*
X291127400Y-89659000D03*
%TO.N,BUS_2*%
X62815400Y-106348700D03*
X140221400Y-91132200D03*
X210919500Y-58061200D03*
X291587800Y-90670400D03*
%TO.N,BUS_1*%
X291359000Y-92461900D03*
X165531700Y-84114200D03*
X61386700Y-107766400D03*
X143540500Y-97640100D03*
X204194300Y-57684800D03*
X187699900Y-55479300D03*
X172673800Y-58252500D03*
X273205500Y-64971700D03*
X249371800Y-69917800D03*
X152954700Y-138090400D03*
X183282100Y-137493600D03*
%TO.N,BUS_0*%
X166767200Y-85386000D03*
X208053500Y-50875600D03*
X187028400Y-64098700D03*
X241363300Y-49770600D03*
X137771800Y-87541200D03*
%TO.N,Net-(D61-A)*%
X107443100Y-88667300D03*
%TO.N,Net-(D53-A)*%
X121303400Y-53036700D03*
%TO.N,Net-(D52-A)*%
X133184500Y-47890700D03*
X119021100Y-65642800D03*
%TO.N,Net-(D51-A)*%
X115369100Y-70373600D03*
%TO.N,CE*%
X149198700Y-63508400D03*
X120896600Y-108112900D03*
%TO.N,OI*%
X153305900Y-101600600D03*
X124139800Y-112212100D03*
%TO.N,SU*%
X286614700Y-73500000D03*
X121303400Y-106976800D03*
X148646700Y-105399100D03*
X158486600Y-105399100D03*
X230565000Y-120287600D03*
X233572100Y-119383700D03*
%TO.N,Net-(D46-A)*%
X124965300Y-105770200D03*
%TO.N,Net-(D45-A)*%
X232750300Y-121324400D03*
X177904700Y-123936200D03*
X176292500Y-124040300D03*
%TO.N,Net-(D44-A)*%
X230270300Y-121103100D03*
X165185000Y-111461000D03*
X164211500Y-112643000D03*
%TO.N,Net-(D43-A)*%
X231222300Y-119764100D03*
X165819400Y-112075000D03*
X165521200Y-113276100D03*
%TO.N,Net-(D42-A)*%
X225135400Y-124555000D03*
X179037700Y-125066300D03*
X177776000Y-127069800D03*
X93596100Y-127729100D03*
%TO.N,Net-(D41-A)*%
X104231900Y-106157300D03*
%TO.N,RI*%
X198185000Y-108953000D03*
X150920200Y-94796800D03*
X144770900Y-92640800D03*
X101165200Y-106157300D03*
%TO.N,Net-(D39-A)*%
X88334200Y-105740400D03*
%TO.N,HLT*%
X99254800Y-77134000D03*
%TO.N,Net-(D37-A)*%
X169083800Y-88917500D03*
%TO.N,Net-(D36-A)*%
X157223500Y-73683500D03*
%TO.N,Net-(D30-A)*%
X222555500Y-134364900D03*
%TO.N,Net-(D29-A)*%
X223155600Y-135440500D03*
%TO.N,Net-(D28-A)*%
X207064400Y-145265900D03*
%TO.N,/ALU/B_1*%
X314807200Y-97225100D03*
%TO.N,Net-(D27-A)*%
X207606100Y-133953500D03*
X193662500Y-147529400D03*
%TO.N,/ALU/B_4*%
X298170000Y-75646500D03*
%TO.N,/ALU/B_5*%
X290290800Y-82275800D03*
X319873300Y-88178600D03*
X301077600Y-95520700D03*
%TO.N,/MAR/A0*%
X240961100Y-32460900D03*
X195358500Y-93781700D03*
X197158900Y-31759300D03*
X229960000Y-25738600D03*
%TO.N,/MAR/A1*%
X194814800Y-96592600D03*
X196325700Y-33318600D03*
%TO.N,/MAR/A2*%
X191759000Y-99205000D03*
X193808100Y-35253100D03*
%TO.N,/MAR/A3*%
X176142000Y-99828000D03*
X184149200Y-100337500D03*
X194589200Y-34518900D03*
%TO.N,Net-(D18-A)*%
X272567300Y-79701100D03*
%TO.N,Net-(D16-A)*%
X274354300Y-94131300D03*
%TO.N,Net-(D15-A)*%
X276075400Y-62004200D03*
%TO.N,Net-(D13-A)*%
X271344500Y-49076200D03*
%TO.N,ZF*%
X133802400Y-38349600D03*
%TO.N,/ALU/A_0*%
X236066700Y-69227100D03*
X248388100Y-69739200D03*
X276561700Y-64920400D03*
%TO.N,/ALU/A_1*%
X237205100Y-69066100D03*
X249190700Y-68952300D03*
X270487500Y-62632900D03*
%TO.N,/ALU/A_2*%
X274846100Y-68909700D03*
%TO.N,/ALU/A_3*%
X285932200Y-69489800D03*
X286707500Y-59703700D03*
%TO.N,/ALU/A_4*%
X214365600Y-67225900D03*
X231899900Y-72099100D03*
X238129300Y-56329800D03*
X274629100Y-56889300D03*
%TO.N,/ALU/A_5*%
X231157400Y-54067800D03*
X274678900Y-52195700D03*
%TO.N,/ALU/A_6*%
X215397000Y-71009100D03*
X224933700Y-46820100D03*
X274703800Y-49576500D03*
%TO.N,/ALU/A_7*%
X224358400Y-57712700D03*
X264138800Y-59639400D03*
%TO.N,Net-(U31-THR)*%
X132122200Y-152793800D03*
X153599700Y-147071700D03*
%TO.N,CLK*%
X283152200Y-95100400D03*
%TO.N,BUS_5*%
X173301900Y-61336000D03*
X299132900Y-87816300D03*
X197920000Y-149152200D03*
X178730000Y-31962000D03*
X251777200Y-88959000D03*
X236317800Y-129480800D03*
%TO.N,Net-(U1-THR)*%
X306373300Y-115735300D03*
%TO.N,VCC*%
X30500000Y-107500000D03*
X31500000Y-114000000D03*
%TO.N,GND*%
X295000000Y-116500000D03*
X31500000Y-107000000D03*
X30500000Y-98500000D03*
X30500000Y-106500000D03*
X31000000Y-118500000D03*
X31000000Y-116500000D03*
X297500000Y-153500000D03*
X286500000Y-141500000D03*
X289500000Y-144000000D03*
X292000000Y-148000000D03*
X166000000Y-97500000D03*
X166500000Y-105500000D03*
X181500000Y-98000000D03*
X178500000Y-105500000D03*
%TD*%
D39*
%TO.N,VCC*%
X113766400Y-154733600D02*
X115000000Y-153500000D01*
X113766400Y-156129100D02*
X113766400Y-154733600D01*
%TO.N,Net-(U23-\u002AO0)*%
X180020300Y-101745000D02*
X181001300Y-101745000D01*
X192984600Y-102324500D02*
X193056100Y-102253000D01*
X181580800Y-102324500D02*
X192984600Y-102324500D01*
X181001300Y-101745000D02*
X181580800Y-102324500D01*
X225463900Y-109255700D02*
X214573900Y-109255700D01*
X226613200Y-110405000D02*
X225463900Y-109255700D01*
%TO.N,Net-(U23-\u002AO1)*%
X226613200Y-105325000D02*
X225665400Y-105325000D01*
X180020300Y-104285000D02*
X181001300Y-104285000D01*
X224717500Y-104377100D02*
X225665400Y-105325000D01*
X193485700Y-104377100D02*
X224717500Y-104377100D01*
X192972400Y-104890400D02*
X193485700Y-104377100D01*
X181606700Y-104890400D02*
X192972400Y-104890400D01*
X181001300Y-104285000D02*
X181606700Y-104890400D01*
%TO.N,Net-(U23-\u002AO3)*%
X185369800Y-103015000D02*
X186350800Y-103015000D01*
X186350800Y-103015000D02*
X186577700Y-103015000D01*
%TO.N,Net-(U23-\u002AO2)*%
X187663200Y-106867400D02*
X186350800Y-105555000D01*
X222659800Y-106867400D02*
X187663200Y-106867400D01*
X223657400Y-107865000D02*
X222659800Y-106867400D01*
X185369800Y-105555000D02*
X186350800Y-105555000D01*
%TO.N,Net-(U21-\u002AO3)*%
X173369800Y-102515000D02*
X172388900Y-102515000D01*
X172337300Y-102463400D02*
X172388900Y-102515000D01*
X172183800Y-102463400D02*
X172337300Y-102463400D01*
%TO.N,Net-(U21-\u002AO0)*%
X168020300Y-101245000D02*
X169001300Y-101245000D01*
X169001300Y-100414800D02*
X169001300Y-101245000D01*
X169504500Y-99911600D02*
X169001300Y-100414800D01*
%TO.N,Net-(U21-\u002AO1)*%
X168020300Y-103785000D02*
X169001300Y-103785000D01*
X169001300Y-103785000D02*
X169208200Y-103785000D01*
%TO.N,Net-(U21-\u002AO2)*%
X173369800Y-105055000D02*
X174350800Y-105055000D01*
X174350800Y-105055000D02*
X174576300Y-105055000D01*
%TO.N,Net-(U52-Zd)*%
X215363000Y-143437300D02*
X215427500Y-143501800D01*
X213597100Y-143437300D02*
X215363000Y-143437300D01*
%TO.N,Net-(U21-\u002AWE)*%
X180020300Y-99205000D02*
X181001300Y-99205000D01*
X180020300Y-99205000D02*
X179039400Y-99205000D01*
X179039400Y-99077600D02*
X179039400Y-99205000D01*
X178173200Y-98211400D02*
X179039400Y-99077600D01*
X168020300Y-98705000D02*
X169001300Y-98705000D01*
X169001300Y-98236300D02*
X169129400Y-98108200D01*
X169001300Y-98705000D02*
X169001300Y-98236300D01*
X181580800Y-98625500D02*
X181001300Y-99205000D01*
X191351500Y-98625500D02*
X181580800Y-98625500D01*
X192784200Y-97192800D02*
X191351500Y-98625500D01*
%TO.N,Net-(U23-D3)*%
X186373200Y-101722600D02*
X186350800Y-101745000D01*
X188144400Y-101722600D02*
X186373200Y-101722600D01*
X185369800Y-101745000D02*
X186350800Y-101745000D01*
%TO.N,Net-(U23-D1)*%
X180020300Y-103015000D02*
X181001300Y-103015000D01*
X181614700Y-103628400D02*
X233419900Y-103628400D01*
X181001300Y-103015000D02*
X181614700Y-103628400D01*
%TO.N,Net-(U34-B)*%
X90675800Y-131759700D02*
X91796400Y-130639100D01*
X78867000Y-131759700D02*
X90675800Y-131759700D01*
X77746400Y-130639100D02*
X78867000Y-131759700D01*
X92896600Y-131739300D02*
X91796400Y-130639100D01*
X104746200Y-131739300D02*
X92896600Y-131739300D01*
X105846400Y-130639100D02*
X104746200Y-131739300D01*
%TO.N,Net-(U34-A)*%
X90356600Y-129538900D02*
X89256400Y-130639100D01*
X102206200Y-129538900D02*
X90356600Y-129538900D01*
X103306400Y-130639100D02*
X102206200Y-129538900D01*
X123346000Y-125031000D02*
X123346000Y-124892200D01*
X117737900Y-130639100D02*
X123346000Y-125031000D01*
X117356400Y-130639100D02*
X117737900Y-130639100D01*
%TO.N,Net-(U34-DP)*%
X92896600Y-146979300D02*
X91796400Y-145879100D01*
X104746200Y-146979300D02*
X92896600Y-146979300D01*
X105846400Y-145879100D02*
X104746200Y-146979300D01*
%TO.N,Net-(U34-D)*%
X99330500Y-144775000D02*
X98226400Y-145879100D01*
X111172300Y-144775000D02*
X99330500Y-144775000D01*
X112276400Y-145879100D02*
X111172300Y-144775000D01*
%TO.N,Net-(U34-F)*%
X118996400Y-123919100D02*
X112276400Y-130639100D01*
X126166500Y-123919100D02*
X118996400Y-123919100D01*
%TO.N,Net-(U52-I0b)*%
X170322300Y-129297500D02*
X178988300Y-129297500D01*
X169197100Y-128172300D02*
X170322300Y-129297500D01*
%TO.N,Net-(U31-Q)*%
X120827000Y-153667200D02*
X124277900Y-153667200D01*
X120808900Y-153649100D02*
X120827000Y-153667200D01*
%TO.N,Net-(U52-I0d)*%
X212185500Y-136945700D02*
X213597100Y-138357300D01*
X205305500Y-136945700D02*
X212185500Y-136945700D01*
X204020500Y-135660700D02*
X205305500Y-136945700D01*
X193717400Y-135660700D02*
X204020500Y-135660700D01*
X192462400Y-134405700D02*
X193717400Y-135660700D01*
X177970500Y-134405700D02*
X192462400Y-134405700D01*
X176817100Y-133252300D02*
X177970500Y-134405700D01*
%TO.N,~{AI}*%
X237963300Y-62888500D02*
X238947100Y-63872300D01*
X228266500Y-62888500D02*
X237963300Y-62888500D01*
%TO.N,~{CLR}*%
X210541600Y-112945000D02*
X205461600Y-112945000D01*
X213081600Y-110405000D02*
X210541600Y-112945000D01*
%TO.N,Net-(U23-D0)*%
X181263800Y-100212500D02*
X181001300Y-100475000D01*
X181855300Y-100212500D02*
X181263800Y-100212500D01*
X180020300Y-100475000D02*
X181001300Y-100475000D01*
%TO.N,Net-(U21-D2)*%
X174476600Y-103659200D02*
X174350800Y-103785000D01*
X175401200Y-103659200D02*
X174476600Y-103659200D01*
X173369800Y-103785000D02*
X174350800Y-103785000D01*
%TO.N,Net-(U52-I0c)*%
X212441300Y-129581500D02*
X213597100Y-130737300D01*
X205363300Y-129581500D02*
X212441300Y-129581500D01*
X204358200Y-130586600D02*
X205363300Y-129581500D01*
X193723300Y-130586600D02*
X204358200Y-130586600D01*
X192720200Y-129583500D02*
X193723300Y-130586600D01*
X181723100Y-129583500D02*
X192720200Y-129583500D01*
X180594300Y-130712300D02*
X181723100Y-129583500D01*
X176817100Y-130712300D02*
X180594300Y-130712300D01*
%TO.N,Net-(U21-D1)*%
X169232800Y-102515000D02*
X168020300Y-102515000D01*
X202390300Y-122442300D02*
X201324800Y-121376800D01*
X226373000Y-122442300D02*
X202390300Y-122442300D01*
X228883900Y-124953200D02*
X226373000Y-122442300D01*
X230470900Y-124953200D02*
X228883900Y-124953200D01*
%TO.N,Net-(U24-Zb)*%
X226267100Y-132007300D02*
X227527100Y-130747300D01*
X204639000Y-132007300D02*
X226267100Y-132007300D01*
X203341600Y-133304700D02*
X204639000Y-132007300D01*
X201015600Y-133304700D02*
X203341600Y-133304700D01*
%TO.N,BUS_7*%
X263110200Y-96085400D02*
X257817100Y-90792300D01*
X300325400Y-96085400D02*
X263110200Y-96085400D01*
X305790000Y-101550000D02*
X300325400Y-96085400D01*
X75023900Y-87171800D02*
X75106800Y-87254700D01*
X64203800Y-87171800D02*
X75023900Y-87171800D01*
X63087900Y-88287700D02*
X64203800Y-87171800D01*
%TO.N,BUS_6*%
X261820900Y-92256100D02*
X260357100Y-90792300D01*
X267784600Y-92256100D02*
X261820900Y-92256100D01*
X302032800Y-100332800D02*
X291304400Y-100332800D01*
X303250000Y-101550000D02*
X302032800Y-100332800D01*
%TO.N,/MAR/PROG*%
X233336100Y-126767500D02*
X232701500Y-127402100D01*
X239101900Y-126767500D02*
X233336100Y-126767500D01*
X241697100Y-124172300D02*
X239101900Y-126767500D01*
X262994900Y-26250000D02*
X262366700Y-25621800D01*
X263500000Y-26250000D02*
X262994900Y-26250000D01*
%TO.N,Net-(U13-C0)*%
X280582600Y-64552600D02*
X276940000Y-60910000D01*
X294237400Y-64552600D02*
X280582600Y-64552600D01*
X295340000Y-63450000D02*
X294237400Y-64552600D01*
%TO.N,Net-(U12-D0)*%
X275821300Y-51895900D02*
X281383900Y-51895900D01*
X274675400Y-50750000D02*
X275821300Y-51895900D01*
X273780000Y-50750000D02*
X274675400Y-50750000D01*
%TO.N,Net-(U12-D1)*%
X297175100Y-57055100D02*
X298500000Y-58380000D01*
X294798300Y-57055100D02*
X297175100Y-57055100D01*
X292303200Y-54560000D02*
X294798300Y-57055100D01*
X275050000Y-54560000D02*
X292303200Y-54560000D01*
X273780000Y-53290000D02*
X275050000Y-54560000D01*
%TO.N,~{BI}*%
X295630000Y-101550000D02*
X293090000Y-101550000D01*
%TO.N,CLR*%
X309467400Y-100412600D02*
X308330000Y-101550000D01*
X329032600Y-100412600D02*
X309467400Y-100412600D01*
X330040000Y-101420000D02*
X329032600Y-100412600D01*
%TO.N,Net-(U21-D3)*%
X233877100Y-139637300D02*
X222993800Y-139637300D01*
X235147100Y-140907300D02*
X233877100Y-139637300D01*
X174368700Y-101245000D02*
X173369800Y-101245000D01*
X175313300Y-100300400D02*
X174368700Y-101245000D01*
%TO.N,Net-(U23-D2)*%
X185369800Y-104285000D02*
X186563400Y-104285000D01*
%TO.N,Net-(U21-D0)*%
X168020300Y-99975000D02*
X167039400Y-99975000D01*
X166856900Y-99792500D02*
X167039400Y-99975000D01*
X166797300Y-99792500D02*
X166856900Y-99792500D01*
%TO.N,Net-(U24-Za)*%
X204795100Y-139705300D02*
X207712100Y-139705300D01*
X203432100Y-138342300D02*
X204795100Y-139705300D01*
X193859000Y-138342300D02*
X203432100Y-138342300D01*
X192462400Y-136945700D02*
X193859000Y-138342300D01*
X189868800Y-136945700D02*
X192462400Y-136945700D01*
%TO.N,Net-(U3-Q)*%
X292542100Y-144027300D02*
X291045400Y-144027300D01*
%TO.N,Net-(U2-Q)*%
X281932100Y-141103300D02*
X281932100Y-142187300D01*
X281515600Y-140686800D02*
X281932100Y-141103300D01*
%TO.N,Net-(U1-Q)*%
X294152100Y-120607300D02*
X294592100Y-121047300D01*
X289437100Y-120607300D02*
X294152100Y-120607300D01*
%TO.N,Net-(SW7-B)*%
X111599500Y-156462200D02*
X111266400Y-156129100D01*
X112516400Y-156462200D02*
X111599500Y-156462200D01*
%TO.N,Net-(U24-I0b)*%
X170467100Y-137062300D02*
X169197100Y-138332300D01*
X182864800Y-137062300D02*
X170467100Y-137062300D01*
X184109800Y-135817300D02*
X182864800Y-137062300D01*
X184417100Y-135817300D02*
X184109800Y-135817300D01*
%TO.N,Net-(U24-I0d)*%
X189951400Y-140443000D02*
X192037100Y-138357300D01*
X186114200Y-140443000D02*
X189951400Y-140443000D01*
%TO.N,Net-(SW2-C)*%
X300047500Y-149381500D02*
X300047500Y-150500000D01*
X293292700Y-142626700D02*
X300047500Y-149381500D01*
X293162100Y-142757300D02*
X293292700Y-142626700D01*
X292542100Y-142757300D02*
X293162100Y-142757300D01*
X293292700Y-142626700D02*
X296317100Y-139602300D01*
%TO.N,Net-(SW7-A)*%
X108766400Y-151469100D02*
X108766400Y-156129100D01*
X109356400Y-150879100D02*
X108766400Y-151469100D01*
%TO.N,Net-(U31-DIS)*%
X128117300Y-152379100D02*
X125758900Y-152379100D01*
X128734200Y-151762200D02*
X128117300Y-152379100D01*
%TO.N,Net-(SW2-A)*%
X291252700Y-148537900D02*
X292567100Y-149852300D01*
X291252700Y-146234800D02*
X291252700Y-148537900D01*
X292190200Y-145297300D02*
X291252700Y-146234800D01*
X292542100Y-145297300D02*
X292190200Y-145297300D01*
X298214800Y-155500000D02*
X300047500Y-155500000D01*
X292567100Y-149852300D02*
X298214800Y-155500000D01*
%TO.N,Net-(U2-TR)*%
X283202100Y-139237300D02*
X283127100Y-139162300D01*
X283202100Y-142187300D02*
X283202100Y-139237300D01*
%TO.N,Net-(U1-DIS)*%
X300579300Y-119777300D02*
X299542100Y-119777300D01*
X301015300Y-120213300D02*
X300579300Y-119777300D01*
%TO.N,Net-(J1-CC1)*%
X29579400Y-110170000D02*
X24500000Y-110170000D01*
X30374400Y-109375000D02*
X29579400Y-110170000D01*
%TO.N,Net-(J1-CC2)*%
X29130000Y-111170000D02*
X24500000Y-111170000D01*
X30380000Y-112420000D02*
X29130000Y-111170000D01*
%TO.N,Net-(D119-A)*%
X211524800Y-39920000D02*
X212817100Y-41212300D01*
X195000000Y-39920000D02*
X211524800Y-39920000D01*
%TO.N,Net-(D118-A)*%
X211547100Y-42482300D02*
X212817100Y-43752300D01*
X192562300Y-42482300D02*
X211547100Y-42482300D01*
X190000000Y-39920000D02*
X192562300Y-42482300D01*
%TO.N,IR_6*%
X108442600Y-42220000D02*
X113057000Y-42220000D01*
%TO.N,BUS_3*%
X82179800Y-90548400D02*
X82898500Y-91267100D01*
X59898400Y-90548400D02*
X82179800Y-90548400D01*
X58500000Y-89150000D02*
X59898400Y-90548400D01*
X307769000Y-89659000D02*
X291127400Y-89659000D01*
X309410000Y-91300000D02*
X307769000Y-89659000D01*
%TO.N,BUS_2*%
X305712000Y-90142000D02*
X306870000Y-91300000D01*
X292116200Y-90142000D02*
X305712000Y-90142000D01*
X291587800Y-90670400D02*
X292116200Y-90142000D01*
%TO.N,BUS_1*%
X230080800Y-68466000D02*
X226277100Y-64662300D01*
X238460800Y-68466000D02*
X230080800Y-68466000D01*
X238947100Y-68952300D02*
X238460800Y-68466000D01*
X303168100Y-92461900D02*
X291359000Y-92461900D01*
X304330000Y-91300000D02*
X303168100Y-92461900D01*
X240091300Y-70096500D02*
X238947100Y-68952300D01*
X247572400Y-70096500D02*
X240091300Y-70096500D01*
X247838000Y-70362100D02*
X247572400Y-70096500D01*
X248927500Y-70362100D02*
X247838000Y-70362100D01*
X249371800Y-69917800D02*
X248927500Y-70362100D01*
%TO.N,BUS_0*%
X230567100Y-66412300D02*
X238947100Y-66412300D01*
X228817100Y-64662300D02*
X230567100Y-66412300D01*
X196121100Y-140897300D02*
X192037100Y-140897300D01*
X199866100Y-144642300D02*
X196121100Y-140897300D01*
X208962300Y-144642300D02*
X199866100Y-144642300D01*
X210620000Y-146300000D02*
X208962300Y-144642300D01*
X172975700Y-64984300D02*
X171660000Y-66300000D01*
X186142800Y-64984300D02*
X172975700Y-64984300D01*
X187028400Y-64098700D02*
X186142800Y-64984300D01*
X190891500Y-142042900D02*
X192037100Y-140897300D01*
X167138800Y-142042900D02*
X190891500Y-142042900D01*
X163645500Y-138549600D02*
X167138800Y-142042900D01*
X153579200Y-138549600D02*
X163645500Y-138549600D01*
X152416500Y-139712300D02*
X153579200Y-138549600D01*
X151697100Y-139712300D02*
X152416500Y-139712300D01*
%TO.N,CE*%
X125571700Y-63508400D02*
X149198700Y-63508400D01*
X124000100Y-65080000D02*
X125571700Y-63508400D01*
%TO.N,Net-(D48-A)*%
X129804400Y-60000000D02*
X124000100Y-60000000D01*
X132912100Y-56892300D02*
X129804400Y-60000000D01*
%TO.N,SU*%
X148646700Y-105399100D02*
X158486600Y-105399100D01*
%TO.N,Net-(D46-A)*%
X128856600Y-54920000D02*
X124000100Y-54920000D01*
X131964300Y-51812300D02*
X128856600Y-54920000D01*
X132912100Y-51812300D02*
X131964300Y-51812300D01*
%TO.N,RI*%
X199273000Y-107865000D02*
X198185000Y-108953000D01*
X205461600Y-107865000D02*
X199273000Y-107865000D01*
%TO.N,Net-(D35-A)*%
X164075000Y-81845000D02*
X166500000Y-79420000D01*
X153725000Y-81845000D02*
X164075000Y-81845000D01*
X151050000Y-84520000D02*
X153725000Y-81845000D01*
%TO.N,Net-(D25-K)*%
X252285100Y-26250000D02*
X258500000Y-26250000D01*
X249910100Y-23875000D02*
X252285100Y-26250000D01*
X249910100Y-23500000D02*
X249910100Y-23875000D01*
X248710000Y-23500000D02*
X249910100Y-23500000D01*
%TO.N,/MAR/A0*%
X178801800Y-96902600D02*
X179039400Y-96665000D01*
X174638300Y-96902600D02*
X178801800Y-96902600D01*
X174480200Y-96744500D02*
X174638300Y-96902600D01*
X169580800Y-96744500D02*
X174480200Y-96744500D01*
X169001300Y-96165000D02*
X169580800Y-96744500D01*
X168020300Y-96165000D02*
X169001300Y-96165000D01*
X179529900Y-96665000D02*
X179039400Y-96665000D01*
X179529900Y-96665000D02*
X180020300Y-96665000D01*
X194882500Y-93305700D02*
X195358500Y-93781700D01*
X184360600Y-93305700D02*
X194882500Y-93305700D01*
X181001300Y-96665000D02*
X184360600Y-93305700D01*
X180020300Y-96665000D02*
X181001300Y-96665000D01*
%TO.N,/MAR/A1*%
X183809400Y-97355500D02*
X184388900Y-97935000D01*
X174430300Y-97355500D02*
X183809400Y-97355500D01*
X174350800Y-97435000D02*
X174430300Y-97355500D01*
X173369800Y-97435000D02*
X174350800Y-97435000D01*
X184879400Y-97935000D02*
X184388900Y-97935000D01*
X184879400Y-97935000D02*
X185369800Y-97935000D01*
X191680400Y-96592600D02*
X194814800Y-96592600D01*
X190338000Y-97935000D02*
X191680400Y-96592600D01*
X185369800Y-97935000D02*
X190338000Y-97935000D01*
%TO.N,/MAR/A2*%
X184112600Y-99205000D02*
X185369800Y-99205000D01*
X182207600Y-101110000D02*
X184112600Y-99205000D01*
X178334600Y-101110000D02*
X182207600Y-101110000D01*
X175929600Y-98705000D02*
X178334600Y-101110000D01*
X173369800Y-98705000D02*
X175929600Y-98705000D01*
X185369800Y-99205000D02*
X191759000Y-99205000D01*
%TO.N,/MAR/A3*%
X185369800Y-100475000D02*
X184388900Y-100475000D01*
X173369800Y-99975000D02*
X174350800Y-99975000D01*
X184251400Y-100337500D02*
X184388900Y-100475000D01*
X184149200Y-100337500D02*
X184251400Y-100337500D01*
X176001300Y-99687300D02*
X176142000Y-99828000D01*
X174638500Y-99687300D02*
X176001300Y-99687300D01*
X174350800Y-99975000D02*
X174638500Y-99687300D01*
%TO.N,CF*%
X105999500Y-38640600D02*
X105000100Y-39640000D01*
X122960700Y-38640600D02*
X105999500Y-38640600D01*
X124000100Y-39680000D02*
X122960700Y-38640600D01*
%TO.N,ZF*%
X105999500Y-41180600D02*
X105000100Y-42180000D01*
X122960700Y-41180600D02*
X105999500Y-41180600D01*
X124000100Y-42220000D02*
X122960700Y-41180600D01*
%TO.N,/ALU/A_1*%
X246567100Y-68952300D02*
X249190700Y-68952300D01*
%TO.N,/ALU/A_2*%
X251574400Y-68909700D02*
X274846100Y-68909700D01*
X249689000Y-70795100D02*
X251574400Y-68909700D01*
X246567100Y-70795100D02*
X249689000Y-70795100D01*
X246268700Y-70496700D02*
X246567100Y-70795100D01*
X225522700Y-70496700D02*
X246268700Y-70496700D01*
X223737100Y-72282300D02*
X225522700Y-70496700D01*
X246567100Y-70795100D02*
X246567100Y-71492300D01*
%TO.N,/ALU/A_3*%
X245613300Y-73078500D02*
X246567100Y-74032300D01*
X238418500Y-73078500D02*
X245613300Y-73078500D01*
X238062300Y-73434700D02*
X238418500Y-73078500D01*
X227429500Y-73434700D02*
X238062300Y-73434700D01*
X226277100Y-72282300D02*
X227429500Y-73434700D01*
%TO.N,/ALU/A_6*%
X283386500Y-49576500D02*
X274703800Y-49576500D01*
X284560000Y-50750000D02*
X283386500Y-49576500D01*
%TO.N,/ALU/A_7*%
X280750600Y-59639400D02*
X284560000Y-55830000D01*
X264138800Y-59639400D02*
X280750600Y-59639400D01*
%TO.N,Net-(U31-CV)*%
X124166400Y-156511600D02*
X124166400Y-159879100D01*
X125758900Y-154919100D02*
X124166400Y-156511600D01*
%TO.N,Net-(U31-THR)*%
X125758900Y-153649100D02*
X125758900Y-153424800D01*
X125382400Y-153048300D02*
X125758900Y-153424800D01*
X121478100Y-153048300D02*
X125382400Y-153048300D01*
X120808900Y-152379100D02*
X121478100Y-153048300D01*
X131491200Y-153424800D02*
X132122200Y-152793800D01*
X125758900Y-153424800D02*
X131491200Y-153424800D01*
%TO.N,CLK*%
X195357100Y-65702300D02*
X196627100Y-64432300D01*
X186537700Y-65702300D02*
X195357100Y-65702300D01*
X184992100Y-67247900D02*
X186537700Y-65702300D01*
X175147900Y-67247900D02*
X184992100Y-67247900D01*
X174200000Y-66300000D02*
X175147900Y-67247900D01*
X296620500Y-94920500D02*
X295630000Y-93930000D01*
X303533300Y-94920500D02*
X296620500Y-94920500D01*
X303944800Y-95332000D02*
X303533300Y-94920500D01*
X315808000Y-95332000D02*
X303944800Y-95332000D01*
X317340000Y-93800000D02*
X315808000Y-95332000D01*
X294459600Y-95100400D02*
X283152200Y-95100400D01*
X295630000Y-93930000D02*
X294459600Y-95100400D01*
%TO.N,Net-(U1-THR)*%
X304385200Y-115735300D02*
X306373300Y-115735300D01*
X301615400Y-118505100D02*
X304385200Y-115735300D01*
X301615400Y-120485800D02*
X301615400Y-118505100D01*
X301053900Y-121047300D02*
X301615400Y-120485800D01*
X299542100Y-121047300D02*
X301053900Y-121047300D01*
X294934700Y-119777300D02*
X294592100Y-119777300D01*
X299124100Y-115587900D02*
X294934700Y-119777300D01*
X299892900Y-115587900D02*
X299124100Y-115587900D01*
X300500000Y-116195000D02*
X299892900Y-115587900D01*
X300500000Y-117389700D02*
X300500000Y-116195000D01*
X301615400Y-118505100D02*
X300500000Y-117389700D01*
%TO.N,Net-(U3-CV)*%
X293317100Y-137032300D02*
X293317100Y-136662300D01*
X287592100Y-142757300D02*
X293317100Y-137032300D01*
%TO.N,Net-(U2-DIS)*%
X282067100Y-147137300D02*
X282067100Y-149912300D01*
X283202100Y-147137300D02*
X282067100Y-147137300D01*
X282067100Y-147137300D02*
X281932100Y-147137300D01*
%TO.N,Net-(U2-CV)*%
X280662100Y-151817300D02*
X278067100Y-154412300D01*
X280662100Y-147137300D02*
X280662100Y-151817300D01*
%TO.N,Net-(U1-CV)*%
X300197100Y-121662300D02*
X299542100Y-122317300D01*
X304067100Y-121662300D02*
X300197100Y-121662300D01*
%TO.N,VCC*%
X28850000Y-109150000D02*
X30500000Y-107500000D01*
X24500000Y-109150000D02*
X28850000Y-109150000D01*
X28006000Y-114000000D02*
X31500000Y-114000000D01*
X26196000Y-112190000D02*
X28006000Y-114000000D01*
X24500000Y-112190000D02*
X26196000Y-112190000D01*
X287592000Y-146567000D02*
X287592000Y-147987500D01*
X287592000Y-149408000D02*
X287500000Y-149500000D01*
X287592000Y-147987500D02*
X287592000Y-149408000D01*
X287592100Y-147987400D02*
X287592100Y-146567300D01*
X287592000Y-147987500D02*
X287592100Y-147987400D01*
X284472000Y-147137000D02*
X284472000Y-146740500D01*
X284472100Y-146740600D02*
X284472100Y-147137300D01*
X284472000Y-146740500D02*
X284472100Y-146740600D01*
X280662000Y-142534000D02*
X280662000Y-142360500D01*
X284472000Y-146344000D02*
X280662000Y-142534000D01*
X284472000Y-146740500D02*
X284472000Y-146344000D01*
X279349000Y-143500000D02*
X278000000Y-143500000D01*
X280662000Y-142187000D02*
X279349000Y-143500000D01*
X280662000Y-142360500D02*
X280662000Y-142187000D01*
X280662100Y-142360400D02*
X280662100Y-142187300D01*
X280662000Y-142360500D02*
X280662100Y-142360400D01*
X125759000Y-151109000D02*
X125759000Y-149925000D01*
X125759000Y-148741000D02*
X126000000Y-148500000D01*
X125759000Y-149925000D02*
X125759000Y-148741000D01*
X299542000Y-116542000D02*
X299500000Y-116500000D01*
X299542000Y-118507000D02*
X299542000Y-116542000D01*
X299541800Y-118507000D02*
X299542000Y-118507000D01*
X299541800Y-118507000D02*
X299542100Y-118507300D01*
X294592000Y-122317000D02*
X294592400Y-122317000D01*
X299195000Y-118507000D02*
X299541800Y-118507000D01*
X295385000Y-122317000D02*
X299195000Y-118507000D01*
X294592400Y-122317000D02*
X295385000Y-122317000D01*
X294592400Y-122317000D02*
X294592100Y-122317300D01*
X175335000Y-96165000D02*
X175500000Y-96000000D01*
X173370000Y-96165000D02*
X175335000Y-96165000D01*
X173370000Y-96165000D02*
X173369800Y-96165000D01*
X188335000Y-96665000D02*
X188500000Y-96500000D01*
X185370000Y-96665000D02*
X188335000Y-96665000D01*
X185370000Y-96665000D02*
X185369800Y-96665000D01*
X125758900Y-149925100D02*
X125758900Y-151109100D01*
X125759000Y-149925000D02*
X125758900Y-149925100D01*
%TO.N,GND*%
X261000000Y-29130000D02*
X264500000Y-32630000D01*
X261000000Y-26250000D02*
X261000000Y-29130000D01*
X31399000Y-106899000D02*
X31500000Y-107000000D01*
X25521000Y-106899000D02*
X31399000Y-106899000D01*
X24500000Y-107920000D02*
X25521000Y-106899000D01*
X22650000Y-106350000D02*
X30500000Y-98500000D01*
X20520000Y-106350000D02*
X22650000Y-106350000D01*
X30350000Y-106350000D02*
X30500000Y-106500000D01*
X24320000Y-106350000D02*
X30350000Y-106350000D01*
X27490000Y-114990000D02*
X31000000Y-118500000D01*
X298000000Y-153000000D02*
X297500000Y-153500000D01*
X300047500Y-153000000D02*
X298000000Y-153000000D01*
X181435000Y-97935000D02*
X181500000Y-98000000D01*
X180020300Y-97935000D02*
X181435000Y-97935000D01*
X29490000Y-114990000D02*
X31000000Y-116500000D01*
X27490000Y-114990000D02*
X29490000Y-114990000D01*
X20520000Y-114990000D02*
X24320000Y-114990000D01*
X180020000Y-97935000D02*
X180020300Y-97935000D01*
X300048000Y-153000000D02*
X300047500Y-153000000D01*
X116976400Y-150879100D02*
X116976300Y-150879200D01*
X116976300Y-150879200D02*
X116976000Y-150879000D01*
X287592000Y-144027000D02*
X287592400Y-144027000D01*
X289473000Y-144027000D02*
X289500000Y-144000000D01*
X287592400Y-144027000D02*
X289473000Y-144027000D01*
X287592400Y-144027000D02*
X287592100Y-144027300D01*
X292542000Y-146567000D02*
X292542000Y-147012500D01*
X292542000Y-147458000D02*
X292000000Y-148000000D01*
X292542000Y-147012500D02*
X292542000Y-147458000D01*
X292542100Y-147012400D02*
X292542100Y-146567300D01*
X292542000Y-147012500D02*
X292542100Y-147012400D01*
X24320000Y-114990000D02*
X25905000Y-114990000D01*
X25905000Y-114990000D02*
X27490000Y-114990000D01*
X24320000Y-114990000D02*
X25905000Y-114990000D01*
X25905000Y-114990000D02*
X27490000Y-114990000D01*
X24500000Y-113585000D02*
X24500000Y-113420000D01*
X25905000Y-114990000D02*
X24500000Y-113585000D01*
X284472000Y-142187000D02*
X284472100Y-142186900D01*
X285159000Y-141500000D02*
X286500000Y-141500000D01*
X284472100Y-142186900D02*
X285159000Y-141500000D01*
X284472100Y-142186900D02*
X284472100Y-142187300D01*
X120809000Y-151109000D02*
X120808800Y-151109000D01*
X117206000Y-151109000D02*
X116976300Y-150879200D01*
X120808800Y-151109000D02*
X117206000Y-151109000D01*
X120808800Y-151109000D02*
X120808900Y-151109100D01*
X294592000Y-118507000D02*
X294592100Y-118506900D01*
X295000000Y-118099000D02*
X295000000Y-116500000D01*
X294592100Y-118506900D02*
X295000000Y-118099000D01*
X294592100Y-118506900D02*
X294592100Y-118507300D01*
X166945000Y-105055000D02*
X167445000Y-105055000D01*
X166500000Y-105500000D02*
X166945000Y-105055000D01*
X167445000Y-105055000D02*
X168020300Y-105055000D01*
X166065000Y-97435000D02*
X166000000Y-97500000D01*
X168020000Y-97435000D02*
X166065000Y-97435000D01*
X168020000Y-97435000D02*
X168020300Y-97435000D01*
X178555000Y-105555000D02*
X178500000Y-105500000D01*
X180020000Y-105555000D02*
X178555000Y-105555000D01*
X180020000Y-105555000D02*
X180020300Y-105555000D01*
%TD*%
M02*
