%TF.GenerationSoftware,KiCad,Pcbnew,9.0.4-1.fc42app3*%
%TF.CreationDate,2025-11-07T21:17:38-06:00*%
%TF.ProjectId,8-Bit-PC,382d4269-742d-4504-932e-6b696361645f,1*%
%TF.SameCoordinates,Original*%
%TF.FileFunction,Copper,L3,Inr*%
%TF.FilePolarity,Positive*%
%FSLAX46Y46*%
G04 Gerber Fmt 4.6, Leading zero omitted, Abs format (unit mm)*
G04 Created by KiCad (PCBNEW 9.0.4-1.fc42app3) date 2025-11-07 21:17:38*
%MOMM*%
%LPD*%
G01*
G04 APERTURE LIST*
G04 Aperture macros list*
%AMRoundRect*
0 Rectangle with rounded corners*
0 $1 Rounding radius*
0 $2 $3 $4 $5 $6 $7 $8 $9 X,Y pos of 4 corners*
0 Add a 4 corners polygon primitive as box body*
4,1,4,$2,$3,$4,$5,$6,$7,$8,$9,$2,$3,0*
0 Add four circle primitives for the rounded corners*
1,1,$1+$1,$2,$3*
1,1,$1+$1,$4,$5*
1,1,$1+$1,$6,$7*
1,1,$1+$1,$8,$9*
0 Add four rect primitives between the rounded corners*
20,1,$1+$1,$2,$3,$4,$5,0*
20,1,$1+$1,$4,$5,$6,$7,0*
20,1,$1+$1,$6,$7,$8,$9,0*
20,1,$1+$1,$8,$9,$2,$3,0*%
G04 Aperture macros list end*
%TA.AperFunction,ComponentPad*%
%ADD10RoundRect,0.250000X-0.550000X-0.550000X0.550000X-0.550000X0.550000X0.550000X-0.550000X0.550000X0*%
%TD*%
%TA.AperFunction,ComponentPad*%
%ADD11C,1.600000*%
%TD*%
%TA.AperFunction,ComponentPad*%
%ADD12C,1.200000*%
%TD*%
%TA.AperFunction,ComponentPad*%
%ADD13C,1.295400*%
%TD*%
%TA.AperFunction,ComponentPad*%
%ADD14R,1.295400X1.295400*%
%TD*%
%TA.AperFunction,ComponentPad*%
%ADD15C,1.800000*%
%TD*%
%TA.AperFunction,ComponentPad*%
%ADD16R,1.800000X1.800000*%
%TD*%
%TA.AperFunction,ComponentPad*%
%ADD17C,1.378000*%
%TD*%
%TA.AperFunction,ComponentPad*%
%ADD18R,1.378000X1.378000*%
%TD*%
%TA.AperFunction,ComponentPad*%
%ADD19C,2.000000*%
%TD*%
%TA.AperFunction,ComponentPad*%
%ADD20R,1.600000X1.600000*%
%TD*%
%TA.AperFunction,ComponentPad*%
%ADD21RoundRect,0.250000X0.550000X0.550000X-0.550000X0.550000X-0.550000X-0.550000X0.550000X-0.550000X0*%
%TD*%
%TA.AperFunction,ComponentPad*%
%ADD22C,1.676400*%
%TD*%
%TA.AperFunction,ComponentPad*%
%ADD23R,1.676400X1.676400*%
%TD*%
%TA.AperFunction,ComponentPad*%
%ADD24O,1.500000X2.500000*%
%TD*%
%TA.AperFunction,ComponentPad*%
%ADD25R,1.500000X2.500000*%
%TD*%
%TA.AperFunction,ComponentPad*%
%ADD26O,2.200000X3.500000*%
%TD*%
%TA.AperFunction,HeatsinkPad*%
%ADD27O,1.700000X1.000000*%
%TD*%
%TA.AperFunction,ComponentPad*%
%ADD28O,3.240000X2.720000*%
%TD*%
%TA.AperFunction,ComponentPad*%
%ADD29RoundRect,0.250000X0.550000X-0.550000X0.550000X0.550000X-0.550000X0.550000X-0.550000X-0.550000X0*%
%TD*%
%TA.AperFunction,ComponentPad*%
%ADD30RoundRect,0.250000X-0.550000X0.550000X-0.550000X-0.550000X0.550000X-0.550000X0.550000X0.550000X0*%
%TD*%
%TA.AperFunction,ComponentPad*%
%ADD31O,2.500000X1.500000*%
%TD*%
%TA.AperFunction,ComponentPad*%
%ADD32R,2.500000X1.500000*%
%TD*%
%TA.AperFunction,ComponentPad*%
%ADD33O,3.500000X2.200000*%
%TD*%
%TA.AperFunction,ViaPad*%
%ADD34C,0.600000*%
%TD*%
%TA.AperFunction,Conductor*%
%ADD35C,0.200000*%
%TD*%
G04 APERTURE END LIST*
D10*
%TO.N,/MAR/A0*%
%TO.C,U21*%
X170695000Y-100610000D03*
D11*
%TO.N,GND*%
X170695000Y-103150000D03*
%TO.N,Net-(U21-\u002AWE)*%
X170695000Y-105690000D03*
%TO.N,Net-(U21-D0)*%
X170695000Y-108230000D03*
%TO.N,Net-(U21-\u002AO0)*%
X170695000Y-110770000D03*
%TO.N,Net-(U21-D1)*%
X170695000Y-113310000D03*
%TO.N,Net-(U21-\u002AO1)*%
X170695000Y-115850000D03*
%TO.N,GND*%
X170695000Y-118390000D03*
%TO.N,Net-(U21-\u002AO2)*%
X178315000Y-118390000D03*
%TO.N,Net-(U21-D2)*%
X178315000Y-115850000D03*
%TO.N,Net-(U21-\u002AO3)*%
X178315000Y-113310000D03*
%TO.N,Net-(U21-D3)*%
X178315000Y-110770000D03*
%TO.N,/MAR/A3*%
X178315000Y-108230000D03*
%TO.N,/MAR/A2*%
X178315000Y-105690000D03*
%TO.N,/MAR/A1*%
X178315000Y-103150000D03*
%TO.N,VCC*%
X178315000Y-100610000D03*
%TD*%
D10*
%TO.N,/MAR/A0*%
%TO.C,U23*%
X182695000Y-101110000D03*
D11*
%TO.N,GND*%
X182695000Y-103650000D03*
%TO.N,Net-(U21-\u002AWE)*%
X182695000Y-106190000D03*
%TO.N,Net-(U23-D0)*%
X182695000Y-108730000D03*
%TO.N,Net-(U23-\u002AO0)*%
X182695000Y-111270000D03*
%TO.N,Net-(U23-D1)*%
X182695000Y-113810000D03*
%TO.N,Net-(U23-\u002AO1)*%
X182695000Y-116350000D03*
%TO.N,GND*%
X182695000Y-118890000D03*
%TO.N,Net-(U23-\u002AO2)*%
X190315000Y-118890000D03*
%TO.N,Net-(U23-D2)*%
X190315000Y-116350000D03*
%TO.N,Net-(U23-\u002AO3)*%
X190315000Y-113810000D03*
%TO.N,Net-(U23-D3)*%
X190315000Y-111270000D03*
%TO.N,/MAR/A3*%
X190315000Y-108730000D03*
%TO.N,/MAR/A2*%
X190315000Y-106190000D03*
%TO.N,/MAR/A1*%
X190315000Y-103650000D03*
%TO.N,VCC*%
X190315000Y-101110000D03*
%TD*%
%TO.N,GND*%
%TO.C,R14*%
X266917100Y-117412300D03*
%TO.N,Net-(D16-K)*%
X266917100Y-109792300D03*
%TD*%
%TO.N,VCC*%
%TO.C,U5*%
X260750000Y-125790000D03*
%TO.N,CLK*%
X260750000Y-128330000D03*
%TO.N,~{CLK}*%
X260750000Y-130870000D03*
%TO.N,Net-(U24-Zc)*%
X260750000Y-133410000D03*
%TO.N,Net-(U23-D1)*%
X260750000Y-135950000D03*
%TO.N,HLT*%
X260750000Y-138490000D03*
%TO.N,Net-(U4-Pad10)*%
X260750000Y-141030000D03*
%TO.N,GND*%
X253130000Y-141030000D03*
%TO.N,Net-(U21-D2)*%
X253130000Y-138490000D03*
%TO.N,Net-(U52-Zc)*%
X253130000Y-135950000D03*
%TO.N,Net-(U21-D1)*%
X253130000Y-133410000D03*
%TO.N,Net-(U52-Zb)*%
X253130000Y-130870000D03*
%TO.N,Net-(U4-Pad4)*%
X253130000Y-128330000D03*
D10*
%TO.N,Net-(U3-Q)*%
X253130000Y-125790000D03*
%TD*%
D12*
%TO.N,GND*%
%TO.C,C8*%
X333040000Y-88300000D03*
%TO.N,VCC*%
X333040000Y-86300000D03*
%TD*%
D11*
%TO.N,Net-(U2-DIS)*%
%TO.C,C3*%
X278067100Y-149662300D03*
%TO.N,GND*%
X275567100Y-149662300D03*
%TD*%
%TO.N,GND*%
%TO.C,R94*%
X319460000Y-65050000D03*
%TO.N,Net-(D025-K)*%
X319460000Y-72670000D03*
%TD*%
%TO.N,VCC*%
%TO.C,U52*%
X213597100Y-125657300D03*
%TO.N,GND*%
X213597100Y-128197300D03*
%TO.N,Net-(U52-I0c)*%
X213597100Y-130737300D03*
%TO.N,BUS_5*%
X213597100Y-133277300D03*
%TO.N,Net-(U52-Zc)*%
X213597100Y-135817300D03*
%TO.N,Net-(U52-I0d)*%
X213597100Y-138357300D03*
%TO.N,BUS_4*%
X213597100Y-140897300D03*
%TO.N,Net-(U52-Zd)*%
X213597100Y-143437300D03*
%TO.N,GND*%
X205977100Y-143437300D03*
%TO.N,Net-(U52-Zb)*%
X205977100Y-140897300D03*
%TO.N,BUS_6*%
X205977100Y-138357300D03*
%TO.N,Net-(U52-I0b)*%
X205977100Y-135817300D03*
%TO.N,Net-(U52-Za)*%
X205977100Y-133277300D03*
%TO.N,BUS_7*%
X205977100Y-130737300D03*
%TO.N,Net-(U52-I0a)*%
X205977100Y-128197300D03*
D10*
%TO.N,/MAR/PROG*%
X205977100Y-125657300D03*
%TD*%
D11*
%TO.N,GND*%
%TO.C,R83*%
X157500000Y-27300000D03*
%TO.N,Net-(D112-K)*%
X157500000Y-34920000D03*
%TD*%
%TO.N,GND*%
%TO.C,R87*%
X177500000Y-27300000D03*
%TO.N,Net-(D116-K)*%
X177500000Y-34920000D03*
%TD*%
D13*
%TO.N,VCC*%
%TO.C,U8*%
X310870000Y-101550000D03*
%TO.N,CLR*%
X308330000Y-101550000D03*
%TO.N,BUS_7*%
X305790000Y-101550000D03*
%TO.N,BUS_6*%
X303250000Y-101550000D03*
%TO.N,BUS_5*%
X300710000Y-101550000D03*
%TO.N,BUS_4*%
X298170000Y-101550000D03*
%TO.N,~{BI}*%
X295630000Y-101550000D03*
X293090000Y-101550000D03*
%TO.N,GND*%
X293090000Y-93930000D03*
%TO.N,CLK*%
X295630000Y-93930000D03*
%TO.N,/ALU/B_4*%
X298170000Y-93930000D03*
%TO.N,/ALU/B_5*%
X300710000Y-93930000D03*
%TO.N,/ALU/B_6*%
X303250000Y-93930000D03*
%TO.N,/ALU/B_7*%
X305790000Y-93930000D03*
%TO.N,GND*%
X308330000Y-93930000D03*
D14*
X310870000Y-93930000D03*
%TD*%
D11*
%TO.N,VCC*%
%TO.C,U20*%
X235147100Y-125667300D03*
%TO.N,Net-(U24-Zd)*%
X235147100Y-128207300D03*
%TO.N,Net-(U23-D0)*%
X235147100Y-130747300D03*
%TO.N,N/C*%
X235147100Y-133287300D03*
X235147100Y-135827300D03*
%TO.N,Net-(U52-Zd)*%
X235147100Y-138367300D03*
%TO.N,Net-(U21-D3)*%
X235147100Y-140907300D03*
%TO.N,GND*%
X227527100Y-140907300D03*
%TO.N,Net-(U23-D2)*%
X227527100Y-138367300D03*
%TO.N,Net-(U24-Za)*%
X227527100Y-135827300D03*
%TO.N,Net-(U23-D3)*%
X227527100Y-133287300D03*
%TO.N,Net-(U24-Zb)*%
X227527100Y-130747300D03*
%TO.N,Net-(U21-\u002AWE)*%
X227527100Y-128207300D03*
D10*
%TO.N,Net-(U51-Zc)*%
X227527100Y-125667300D03*
%TD*%
D13*
%TO.N,VCC*%
%TO.C,U41*%
X76412100Y-51252300D03*
%TO.N,unconnected-(U41-TC-Pad15)*%
X76412100Y-48712300D03*
%TO.N,Net-(D59-A)*%
X76412100Y-46172300D03*
%TO.N,Net-(D60-A)*%
X76412100Y-43632300D03*
%TO.N,Net-(D61-A)*%
X76412100Y-41092300D03*
%TO.N,unconnected-(U41-Q3-Pad11)*%
X76412100Y-38552300D03*
%TO.N,VCC*%
X76412100Y-36012300D03*
X76412100Y-33472300D03*
%TO.N,GND*%
X84032100Y-33472300D03*
%TO.N,VCC*%
X84032100Y-36012300D03*
%TO.N,unconnected-(U41-D3-Pad6)*%
X84032100Y-38552300D03*
%TO.N,unconnected-(U41-D2-Pad5)*%
X84032100Y-41092300D03*
%TO.N,unconnected-(U41-D1-Pad4)*%
X84032100Y-43632300D03*
%TO.N,unconnected-(U41-D0-Pad3)*%
X84032100Y-46172300D03*
%TO.N,~{CLK}*%
X84032100Y-48712300D03*
D14*
%TO.N,Net-(U41-~{MR})*%
X84032100Y-51252300D03*
%TD*%
D12*
%TO.N,GND*%
%TO.C,C11*%
X251000000Y-42420000D03*
%TO.N,VCC*%
X249000000Y-42420000D03*
%TD*%
D15*
%TO.N,Net-(D31-A)*%
%TO.C,D31*%
X207620000Y-161420000D03*
D16*
%TO.N,Net-(D31-K)*%
X205080000Y-161420000D03*
%TD*%
D15*
%TO.N,Net-(D116-A)*%
%TO.C,D116*%
X180000000Y-39920000D03*
D16*
%TO.N,Net-(D116-K)*%
X177460000Y-39920000D03*
%TD*%
D11*
%TO.N,GND*%
%TO.C,R32*%
X195197100Y-99912300D03*
%TO.N,Net-(C14-Pad2)*%
X202817100Y-99912300D03*
%TD*%
%TO.N,VCC*%
%TO.C,U6*%
X320240000Y-141580000D03*
%TO.N,unconnected-(U6-Pad13)*%
X320240000Y-144120000D03*
%TO.N,unconnected-(U6-Pad12)*%
X320240000Y-146660000D03*
%TO.N,unconnected-(U6-Pad11)*%
X320240000Y-149200000D03*
%TO.N,unconnected-(U6-Pad10)*%
X320240000Y-151740000D03*
%TO.N,unconnected-(U6-Pad9)*%
X320240000Y-154280000D03*
%TO.N,unconnected-(U6-Pad8)*%
X320240000Y-156820000D03*
%TO.N,GND*%
X312620000Y-156820000D03*
%TO.N,unconnected-(U6-Pad6)*%
X312620000Y-154280000D03*
%TO.N,unconnected-(U6-Pad5)*%
X312620000Y-151740000D03*
%TO.N,unconnected-(U6-Pad4)*%
X312620000Y-149200000D03*
%TO.N,Net-(U4-Pad9)*%
X312620000Y-146660000D03*
%TO.N,Net-(U4-Pad6)*%
X312620000Y-144120000D03*
D10*
%TO.N,Net-(U4-Pad3)*%
X312620000Y-141580000D03*
%TD*%
D15*
%TO.N,Net-(D57-A)*%
%TO.C,D57*%
X111442100Y-103552300D03*
D16*
%TO.N,Net-(D57-K)*%
X108902100Y-103552300D03*
%TD*%
D15*
%TO.N,Net-(D53-A)*%
%TO.C,D53*%
X120327100Y-122412300D03*
D16*
%TO.N,Net-(D53-K)*%
X117787100Y-122412300D03*
%TD*%
D11*
%TO.N,GND*%
%TO.C,R15*%
X271717100Y-117222300D03*
%TO.N,Net-(D17-K)*%
X271717100Y-109602300D03*
%TD*%
%TO.N,GND*%
%TO.C,R13*%
X262167100Y-117162300D03*
%TO.N,Net-(D15-K)*%
X262167100Y-109542300D03*
%TD*%
D15*
%TO.N,IR_7*%
%TO.C,D112*%
X160040000Y-39920000D03*
D16*
%TO.N,Net-(D112-K)*%
X157500000Y-39920000D03*
%TD*%
D11*
%TO.N,Net-(D18-K)*%
%TO.C,R16*%
X276917100Y-109732300D03*
%TO.N,GND*%
X276917100Y-117352300D03*
%TD*%
D15*
%TO.N,CF*%
%TO.C,D14*%
X262000000Y-53920000D03*
D16*
%TO.N,Net-(D14-K)*%
X259460000Y-53920000D03*
%TD*%
D11*
%TO.N,Net-(U2-TR)*%
%TO.C,R3*%
X283127100Y-139162300D03*
%TO.N,VCC*%
X275507100Y-139162300D03*
%TD*%
%TO.N,GND*%
%TO.C,R65*%
X46047700Y-106657100D03*
%TO.N,Net-(D62-K)*%
X53667700Y-106657100D03*
%TD*%
%TO.N,GND*%
%TO.C,R20*%
X222197100Y-54892300D03*
%TO.N,Net-(D20-K)*%
X222197100Y-47272300D03*
%TD*%
D15*
%TO.N,BUS_7*%
%TO.C,D69*%
X58500000Y-69110000D03*
D16*
%TO.N,Net-(D69-K)*%
X58500000Y-71650000D03*
%TD*%
D15*
%TO.N,Net-(D13-A)*%
%TO.C,D13*%
X259782100Y-103852300D03*
D16*
%TO.N,Net-(D13-K)*%
X257242100Y-103852300D03*
%TD*%
D11*
%TO.N,GND*%
%TO.C,R97*%
X304460000Y-65050000D03*
%TO.N,Net-(D028-K)*%
X304460000Y-72670000D03*
%TD*%
D17*
%TO.N,VCC*%
%TO.C,U43*%
X105000050Y-32020000D03*
X105000050Y-34560000D03*
%TO.N,N/C*%
X105000050Y-37100000D03*
%TO.N,CF*%
X105000050Y-39640000D03*
%TO.N,ZF*%
X105000050Y-42180000D03*
%TO.N,GND*%
X105000050Y-44720000D03*
X105000050Y-47260000D03*
X105000050Y-49800000D03*
X105000050Y-52340000D03*
%TO.N,HLT*%
X105000050Y-54880000D03*
%TO.N,Net-(D39-A)*%
X105000050Y-57420000D03*
%TO.N,RI*%
X105000050Y-59960000D03*
%TO.N,Net-(D41-A)*%
X105000050Y-62500000D03*
%TO.N,Net-(D42-A)*%
X105000050Y-65040000D03*
%TO.N,GND*%
X89442550Y-65040000D03*
%TO.N,Net-(D43-A)*%
X89442550Y-62500000D03*
%TO.N,Net-(D44-A)*%
X89442550Y-59960000D03*
%TO.N,Net-(D45-A)*%
X89442550Y-57420000D03*
%TO.N,Net-(D59-A)*%
X89442550Y-54880000D03*
%TO.N,Net-(D60-A)*%
X89442550Y-52340000D03*
%TO.N,Net-(D61-A)*%
X89442550Y-49800000D03*
%TO.N,IR_4*%
X89442550Y-47260000D03*
%TO.N,IR_5*%
X89442550Y-44720000D03*
%TO.N,IR_6*%
X89442550Y-42180000D03*
%TO.N,IR_7*%
X89442550Y-39640000D03*
%TO.N,GND*%
X89442550Y-37100000D03*
X89442550Y-34560000D03*
D18*
%TO.N,N/C*%
X89442550Y-32020000D03*
%TD*%
D15*
%TO.N,Net-(D17-A)*%
%TO.C,D17*%
X274382100Y-103852300D03*
D16*
%TO.N,Net-(D17-K)*%
X271842100Y-103852300D03*
%TD*%
D15*
%TO.N,Net-(D59-A)*%
%TO.C,D59*%
X105442100Y-86552300D03*
D16*
%TO.N,Net-(D59-K)*%
X102902100Y-86552300D03*
%TD*%
D15*
%TO.N,IR_4*%
%TO.C,D115*%
X175000000Y-39920000D03*
D16*
%TO.N,Net-(D115-K)*%
X172460000Y-39920000D03*
%TD*%
D19*
%TO.N,Net-(U51-I0c)*%
%TO.C,SW6*%
X242317100Y-145427300D03*
X248817100Y-145427300D03*
%TO.N,GND*%
X242317100Y-149927300D03*
X248817100Y-149927300D03*
%TD*%
D15*
%TO.N,Net-(D30-A)*%
%TO.C,D30*%
X202660000Y-161420000D03*
D16*
%TO.N,Net-(D30-K)*%
X200120000Y-161420000D03*
%TD*%
D11*
%TO.N,VCC*%
%TO.C,U32*%
X138003900Y-134069100D03*
%TO.N,unconnected-(U32A-Q-Pad15)*%
X138003900Y-136609100D03*
%TO.N,Net-(U32A-~{Q})*%
X138003900Y-139149100D03*
%TO.N,GND*%
X138003900Y-141689100D03*
%TO.N,VCC*%
X138003900Y-144229100D03*
%TO.N,unconnected-(U32B-Q-Pad11)*%
X138003900Y-146769100D03*
%TO.N,Net-(U32B-~{Q})*%
X138003900Y-149309100D03*
%TO.N,VCC*%
X138003900Y-151849100D03*
X130383900Y-151849100D03*
X130383900Y-149309100D03*
%TO.N,Net-(U32A-~{Q})*%
X130383900Y-146769100D03*
%TO.N,VCC*%
X130383900Y-144229100D03*
X130383900Y-141689100D03*
X130383900Y-139149100D03*
X130383900Y-136609100D03*
D10*
%TO.N,Net-(U31-Q)*%
X130383900Y-134069100D03*
%TD*%
D15*
%TO.N,CE*%
%TO.C,D50*%
X104817100Y-122412300D03*
D16*
%TO.N,Net-(D50-K)*%
X102277100Y-122412300D03*
%TD*%
D11*
%TO.N,Net-(U34-G)*%
%TO.C,U35*%
X81636400Y-130639100D03*
%TO.N,Net-(U34-F)*%
X84176400Y-130639100D03*
%TO.N,Net-(U33A-O0)*%
X86716400Y-130639100D03*
%TO.N,Net-(U34-A)*%
X89256400Y-130639100D03*
%TO.N,Net-(U34-B)*%
X91796400Y-130639100D03*
%TO.N,Net-(U34-DP)*%
X91796400Y-145879100D03*
%TO.N,Net-(U34-C)*%
X89256400Y-145879100D03*
%TO.N,Net-(U33A-O0)*%
X86716400Y-145879100D03*
%TO.N,Net-(U34-D)*%
X84176400Y-145879100D03*
D20*
%TO.N,Net-(U34-E)*%
X81636400Y-145879100D03*
%TD*%
D15*
%TO.N,Net-(D11-A)*%
%TO.C,D11*%
X250017100Y-103852300D03*
D16*
%TO.N,Net-(D11-K)*%
X247477100Y-103852300D03*
%TD*%
D15*
%TO.N,Net-(D25-A)*%
%TO.C,D25*%
X251250000Y-23500000D03*
D16*
%TO.N,Net-(D25-K)*%
X248710000Y-23500000D03*
%TD*%
D11*
%TO.N,VCC*%
%TO.C,R57*%
X111412100Y-90932300D03*
%TO.N,Net-(D57-A)*%
X111412100Y-98552300D03*
%TD*%
%TO.N,VCC*%
%TO.C,U33*%
X148783900Y-134069100D03*
%TO.N,N/C*%
X148783900Y-136609100D03*
X148783900Y-139149100D03*
X148783900Y-141689100D03*
X148783900Y-144229100D03*
X148783900Y-146769100D03*
X148783900Y-149309100D03*
X148783900Y-151849100D03*
%TO.N,GND*%
X141163900Y-151849100D03*
%TO.N,Net-(U33A-O3)*%
X141163900Y-149309100D03*
%TO.N,Net-(U33A-O2)*%
X141163900Y-146769100D03*
%TO.N,Net-(U33A-O1)*%
X141163900Y-144229100D03*
%TO.N,Net-(U33A-O0)*%
X141163900Y-141689100D03*
%TO.N,Net-(U32B-~{Q})*%
X141163900Y-139149100D03*
%TO.N,Net-(U32A-~{Q})*%
X141163900Y-136609100D03*
D10*
%TO.N,GND*%
X141163900Y-134069100D03*
%TD*%
D15*
%TO.N,HLT*%
%TO.C,D38*%
X44767100Y-122412300D03*
D16*
%TO.N,Net-(D38-K)*%
X42227100Y-122412300D03*
%TD*%
D11*
%TO.N,GND*%
%TO.C,R72*%
X46047700Y-71657100D03*
%TO.N,Net-(D69-K)*%
X53667700Y-71657100D03*
%TD*%
D12*
%TO.N,GND*%
%TO.C,C18*%
X146666400Y-120379100D03*
%TO.N,VCC*%
X148666400Y-120379100D03*
%TD*%
D15*
%TO.N,Net-(D42-A)*%
%TO.C,D42*%
X64767100Y-122412300D03*
D16*
%TO.N,Net-(D42-K)*%
X62227100Y-122412300D03*
%TD*%
D15*
%TO.N,/ALU/A_1*%
%TO.C,D8*%
X229047100Y-81162300D03*
D16*
%TO.N,Net-(D8-K)*%
X231587100Y-81162300D03*
%TD*%
D11*
%TO.N,GND*%
%TO.C,R52*%
X102317100Y-109792300D03*
%TO.N,Net-(D50-K)*%
X102317100Y-117412300D03*
%TD*%
%TO.N,GND*%
%TO.C,R89*%
X187500000Y-27170000D03*
%TO.N,Net-(D118-K)*%
X187500000Y-34790000D03*
%TD*%
%TO.N,GND*%
%TO.C,R31*%
X215120000Y-173920000D03*
%TO.N,Net-(D33-K)*%
X215120000Y-166300000D03*
%TD*%
%TO.N,Net-(SW2-A)*%
%TO.C,R5*%
X292567100Y-149852300D03*
%TO.N,VCC*%
X292567100Y-157472300D03*
%TD*%
D15*
%TO.N,/ALU/B_7*%
%TO.C,D022*%
X337000000Y-78920000D03*
D16*
%TO.N,Net-(D022-K)*%
X334460000Y-78920000D03*
%TD*%
D11*
%TO.N,GND*%
%TO.C,R90*%
X192500000Y-27300000D03*
%TO.N,Net-(D119-K)*%
X192500000Y-34920000D03*
%TD*%
D12*
%TO.N,GND*%
%TO.C,C10*%
X257993900Y-82749100D03*
%TO.N,VCC*%
X255993900Y-82749100D03*
%TD*%
%TO.N,GND*%
%TO.C,C7*%
X315605000Y-107040000D03*
%TO.N,Net-(U1-THR)*%
X317605000Y-107040000D03*
%TD*%
D15*
%TO.N,Net-(D54-A)*%
%TO.C,D54*%
X93412100Y-103552300D03*
D16*
%TO.N,Net-(D54-K)*%
X90872100Y-103552300D03*
%TD*%
D11*
%TO.N,GND*%
%TO.C,R74*%
X70945000Y-92640000D03*
%TO.N,BUS_6*%
X63325000Y-92640000D03*
%TD*%
D15*
%TO.N,Net-(D44-A)*%
%TO.C,D44*%
X74817100Y-122412300D03*
D16*
%TO.N,Net-(D44-K)*%
X72277100Y-122412300D03*
%TD*%
D15*
%TO.N,Net-(D48-A)*%
%TO.C,D48*%
X94817100Y-122412300D03*
D16*
%TO.N,Net-(D48-K)*%
X92277100Y-122412300D03*
%TD*%
D11*
%TO.N,GND*%
%TO.C,SW5*%
X169197100Y-143412300D03*
X169197100Y-140872300D03*
%TO.N,Net-(U24-I0b)*%
X169197100Y-138332300D03*
%TO.N,Net-(U24-I0a)*%
X169197100Y-135792300D03*
%TO.N,GND*%
X169197100Y-133252300D03*
X169197100Y-130712300D03*
%TO.N,Net-(U52-I0b)*%
X169197100Y-128172300D03*
%TO.N,Net-(U52-I0a)*%
X169197100Y-125632300D03*
%TO.N,GND*%
X176817100Y-125632300D03*
X176817100Y-128172300D03*
%TO.N,Net-(U52-I0c)*%
X176817100Y-130712300D03*
%TO.N,Net-(U52-I0d)*%
X176817100Y-133252300D03*
%TO.N,GND*%
X176817100Y-135792300D03*
X176817100Y-138332300D03*
%TO.N,Net-(U24-I0c)*%
X176817100Y-140872300D03*
D21*
%TO.N,Net-(U24-I0d)*%
X176817100Y-143412300D03*
%TD*%
D22*
%TO.N,VCC*%
%TO.C,U29*%
X151050000Y-66740000D03*
%TO.N,~{CO}*%
X151050000Y-69280000D03*
%TO.N,unconnected-(U29-B0-Pad18)*%
X151050000Y-71820000D03*
%TO.N,unconnected-(U29-B1-Pad17)*%
X151050000Y-74360000D03*
%TO.N,unconnected-(U29-B2-Pad16)*%
X151050000Y-76900000D03*
%TO.N,unconnected-(U29-B3-Pad15)*%
X151050000Y-79440000D03*
%TO.N,Net-(D34-A)*%
X151050000Y-81980000D03*
%TO.N,Net-(D35-A)*%
X151050000Y-84520000D03*
%TO.N,Net-(D36-A)*%
X151050000Y-87060000D03*
%TO.N,Net-(D37-A)*%
X151050000Y-89600000D03*
%TO.N,GND*%
X143430000Y-89600000D03*
%TO.N,BUS_0*%
X143430000Y-87060000D03*
%TO.N,BUS_1*%
X143430000Y-84520000D03*
%TO.N,BUS_2*%
X143430000Y-81980000D03*
%TO.N,BUS_3*%
X143430000Y-79440000D03*
%TO.N,unconnected-(U29-A3-Pad5)*%
X143430000Y-76900000D03*
%TO.N,unconnected-(U29-A2-Pad4)*%
X143430000Y-74360000D03*
%TO.N,unconnected-(U29-A1-Pad3)*%
X143430000Y-71820000D03*
%TO.N,unconnected-(U29-A0-Pad2)*%
X143430000Y-69280000D03*
D23*
%TO.N,GND*%
X143430000Y-66740000D03*
%TD*%
D11*
%TO.N,GND*%
%TO.C,R39*%
X116976400Y-150879100D03*
%TO.N,Net-(SW7-A)*%
X109356400Y-150879100D03*
%TD*%
D15*
%TO.N,ZF*%
%TO.C,D10*%
X262000000Y-58420000D03*
D16*
%TO.N,Net-(D10-K)*%
X259460000Y-58420000D03*
%TD*%
D15*
%TO.N,/ALU/B_1*%
%TO.C,D028*%
X306980000Y-78920000D03*
D16*
%TO.N,Net-(D028-K)*%
X304440000Y-78920000D03*
%TD*%
D11*
%TO.N,GND*%
%TO.C,R44*%
X62317100Y-109792300D03*
%TO.N,Net-(D42-K)*%
X62317100Y-117412300D03*
%TD*%
D15*
%TO.N,/MAR/A3*%
%TO.C,D20*%
X224937100Y-42332300D03*
D16*
%TO.N,Net-(D20-K)*%
X222397100Y-42332300D03*
%TD*%
D11*
%TO.N,VCC*%
%TO.C,U22*%
X194817100Y-142152300D03*
%TO.N,unconnected-(U22-Pad13)*%
X194817100Y-139612300D03*
%TO.N,unconnected-(U22-Pad12)*%
X194817100Y-137072300D03*
%TO.N,unconnected-(U22-Pad11)*%
X194817100Y-134532300D03*
%TO.N,unconnected-(U22-Pad10)*%
X194817100Y-131992300D03*
%TO.N,unconnected-(U22-Pad9)*%
X194817100Y-129452300D03*
%TO.N,unconnected-(U22-Pad8)*%
X194817100Y-126912300D03*
%TO.N,GND*%
X202437100Y-126912300D03*
%TO.N,unconnected-(U22-Pad6)*%
X202437100Y-129452300D03*
%TO.N,unconnected-(U22-Pad5)*%
X202437100Y-131992300D03*
%TO.N,unconnected-(U22-Pad4)*%
X202437100Y-134532300D03*
%TO.N,unconnected-(U22-Pad3)*%
X202437100Y-137072300D03*
%TO.N,Net-(U21-D0)*%
X202437100Y-139612300D03*
D21*
%TO.N,Net-(U52-Za)*%
X202437100Y-142152300D03*
%TD*%
D11*
%TO.N,GND*%
%TO.C,R69*%
X46047700Y-86157100D03*
%TO.N,Net-(D66-K)*%
X53667700Y-86157100D03*
%TD*%
%TO.N,GND*%
%TO.C,R24*%
X180120000Y-173920000D03*
%TO.N,Net-(D26-K)*%
X180120000Y-166300000D03*
%TD*%
%TO.N,Net-(SW2-C)*%
%TO.C,R6*%
X296317100Y-139602300D03*
%TO.N,VCC*%
X296317100Y-147222300D03*
%TD*%
D15*
%TO.N,/ALU/B_4*%
%TO.C,D025*%
X321960000Y-78920000D03*
D16*
%TO.N,Net-(D025-K)*%
X319420000Y-78920000D03*
%TD*%
D11*
%TO.N,Net-(U34-G)*%
%TO.C,U37*%
X109736400Y-130639100D03*
%TO.N,Net-(U34-F)*%
X112276400Y-130639100D03*
%TO.N,Net-(U33A-O1)*%
X114816400Y-130639100D03*
%TO.N,Net-(U34-A)*%
X117356400Y-130639100D03*
%TO.N,Net-(U34-B)*%
X119896400Y-130639100D03*
%TO.N,Net-(U34-DP)*%
X119896400Y-145879100D03*
%TO.N,Net-(U34-C)*%
X117356400Y-145879100D03*
%TO.N,Net-(U33A-O1)*%
X114816400Y-145879100D03*
%TO.N,Net-(U34-D)*%
X112276400Y-145879100D03*
D20*
%TO.N,Net-(U34-E)*%
X109736400Y-145879100D03*
%TD*%
D15*
%TO.N,BUS_6*%
%TO.C,D68*%
X58500000Y-74110000D03*
D16*
%TO.N,Net-(D68-K)*%
X58500000Y-76650000D03*
%TD*%
D11*
%TO.N,GND*%
%TO.C,R17*%
X281917100Y-117222300D03*
%TO.N,Net-(D19-K)*%
X281917100Y-109602300D03*
%TD*%
%TO.N,GND*%
%TO.C,R71*%
X46047700Y-77157100D03*
%TO.N,Net-(D68-K)*%
X53667700Y-77157100D03*
%TD*%
%TO.N,Net-(D25-A)*%
%TO.C,R19*%
X251250000Y-28130000D03*
%TO.N,VCC*%
X251250000Y-35750000D03*
%TD*%
D12*
%TO.N,GND*%
%TO.C,C17*%
X122166400Y-159879100D03*
%TO.N,Net-(U31-CV)*%
X124166400Y-159879100D03*
%TD*%
D15*
%TO.N,IR_5*%
%TO.C,D114*%
X170020000Y-39920000D03*
D16*
%TO.N,Net-(D114-K)*%
X167480000Y-39920000D03*
%TD*%
D12*
%TO.N,GND*%
%TO.C,C13*%
X239977100Y-112097300D03*
%TO.N,VCC*%
X237977100Y-112097300D03*
%TD*%
D11*
%TO.N,Net-(U31-DIS)*%
%TO.C,R37*%
X162666400Y-127069100D03*
%TO.N,VCC*%
X162666400Y-134689100D03*
%TD*%
%TO.N,Net-(D34-K)*%
%TO.C,R33*%
X157990000Y-84170000D03*
%TO.N,GND*%
X157990000Y-91790000D03*
%TD*%
%TO.N,GND*%
%TO.C,R62*%
X108912100Y-73932300D03*
%TO.N,Net-(D60-K)*%
X108912100Y-81552300D03*
%TD*%
D15*
%TO.N,Net-(D61-A)*%
%TO.C,D61*%
X117462100Y-86552300D03*
D16*
%TO.N,Net-(D61-K)*%
X114922100Y-86552300D03*
%TD*%
D15*
%TO.N,/MAR/A2*%
%TO.C,D21*%
X230947100Y-42332300D03*
D16*
%TO.N,Net-(D21-K)*%
X228407100Y-42332300D03*
%TD*%
D11*
%TO.N,VCC*%
%TO.C,U13*%
X284560000Y-45670000D03*
%TO.N,Net-(U13-B3)*%
X284560000Y-48210000D03*
%TO.N,/ALU/A_6*%
X284560000Y-50750000D03*
%TO.N,Net-(D12-A)*%
X284560000Y-53290000D03*
%TO.N,/ALU/A_7*%
X284560000Y-55830000D03*
%TO.N,Net-(U13-B4)*%
X284560000Y-58370000D03*
%TO.N,Net-(D11-A)*%
X284560000Y-60910000D03*
%TO.N,Net-(U12-D0)*%
X284560000Y-63450000D03*
%TO.N,GND*%
X276940000Y-63450000D03*
%TO.N,Net-(U13-C0)*%
X276940000Y-60910000D03*
%TO.N,Net-(U13-B1)*%
X276940000Y-58370000D03*
%TO.N,/ALU/A_4*%
X276940000Y-55830000D03*
%TO.N,Net-(D15-A)*%
X276940000Y-53290000D03*
%TO.N,/ALU/A_5*%
X276940000Y-50750000D03*
%TO.N,Net-(U13-B2)*%
X276940000Y-48210000D03*
D10*
%TO.N,Net-(D13-A)*%
X276940000Y-45670000D03*
%TD*%
D11*
%TO.N,GND*%
%TO.C,R91*%
X334460000Y-65050000D03*
%TO.N,Net-(D022-K)*%
X334460000Y-72670000D03*
%TD*%
%TO.N,GND*%
%TO.C,R47*%
X77317100Y-109792300D03*
%TO.N,Net-(D45-K)*%
X77317100Y-117412300D03*
%TD*%
%TO.N,GND*%
%TO.C,R81*%
X38000000Y-112420000D03*
%TO.N,Net-(J1-CC2)*%
X30380000Y-112420000D03*
%TD*%
D15*
%TO.N,/ALU/B_2*%
%TO.C,D027*%
X311980000Y-78920000D03*
D16*
%TO.N,Net-(D027-K)*%
X309440000Y-78920000D03*
%TD*%
D11*
%TO.N,VCC*%
%TO.C,R60*%
X93412100Y-91052300D03*
%TO.N,Net-(D54-A)*%
X93412100Y-98672300D03*
%TD*%
%TO.N,VCC*%
%TO.C,U24*%
X192037100Y-125657300D03*
%TO.N,GND*%
X192037100Y-128197300D03*
%TO.N,Net-(U24-I0c)*%
X192037100Y-130737300D03*
%TO.N,BUS_1*%
X192037100Y-133277300D03*
%TO.N,Net-(U24-Zc)*%
X192037100Y-135817300D03*
%TO.N,Net-(U24-I0d)*%
X192037100Y-138357300D03*
%TO.N,BUS_0*%
X192037100Y-140897300D03*
%TO.N,Net-(U24-Zd)*%
X192037100Y-143437300D03*
%TO.N,GND*%
X184417100Y-143437300D03*
%TO.N,Net-(U24-Zb)*%
X184417100Y-140897300D03*
%TO.N,BUS_2*%
X184417100Y-138357300D03*
%TO.N,Net-(U24-I0b)*%
X184417100Y-135817300D03*
%TO.N,Net-(U24-Za)*%
X184417100Y-133277300D03*
%TO.N,BUS_3*%
X184417100Y-130737300D03*
%TO.N,Net-(U24-I0a)*%
X184417100Y-128197300D03*
D10*
%TO.N,/MAR/PROG*%
X184417100Y-125657300D03*
%TD*%
D15*
%TO.N,Net-(D27-A)*%
%TO.C,D27*%
X187670000Y-161420000D03*
D16*
%TO.N,Net-(D27-K)*%
X185130000Y-161420000D03*
%TD*%
D11*
%TO.N,Net-(U1-DIS)*%
%TO.C,R1*%
X300627100Y-127412300D03*
%TO.N,VCC*%
X293007100Y-127412300D03*
%TD*%
%TO.N,Net-(U2-DIS)*%
%TO.C,R4*%
X282067100Y-149912300D03*
%TO.N,VCC*%
X282067100Y-157532300D03*
%TD*%
D15*
%TO.N,Net-(D29-A)*%
%TO.C,D29*%
X197660000Y-161420000D03*
D16*
%TO.N,Net-(D29-K)*%
X195120000Y-161420000D03*
%TD*%
D11*
%TO.N,GND*%
%TO.C,R70*%
X46047700Y-81657100D03*
%TO.N,Net-(D67-K)*%
X53667700Y-81657100D03*
%TD*%
D15*
%TO.N,/MAR/A1*%
%TO.C,D22*%
X236957100Y-42332300D03*
D16*
%TO.N,Net-(D22-K)*%
X234417100Y-42332300D03*
%TD*%
D11*
%TO.N,Net-(D36-K)*%
%TO.C,R35*%
X170240000Y-84170000D03*
%TO.N,GND*%
X170240000Y-91790000D03*
%TD*%
D15*
%TO.N,Net-(D56-A)*%
%TO.C,D56*%
X105432100Y-103552300D03*
D16*
%TO.N,Net-(D56-K)*%
X102892100Y-103552300D03*
%TD*%
D13*
%TO.N,VCC*%
%TO.C,U30*%
X176740000Y-73920000D03*
%TO.N,unconnected-(U30-TC-Pad15)*%
X174200000Y-73920000D03*
%TO.N,Net-(D37-A)*%
X171660000Y-73920000D03*
%TO.N,Net-(D36-A)*%
X169120000Y-73920000D03*
%TO.N,Net-(D35-A)*%
X166580000Y-73920000D03*
%TO.N,Net-(D34-A)*%
X164040000Y-73920000D03*
%TO.N,CE*%
X161500000Y-73920000D03*
%TO.N,~{J}*%
X158960000Y-73920000D03*
%TO.N,GND*%
X158960000Y-66300000D03*
%TO.N,CE*%
X161500000Y-66300000D03*
%TO.N,BUS_3*%
X164040000Y-66300000D03*
%TO.N,BUS_2*%
X166580000Y-66300000D03*
%TO.N,BUS_1*%
X169120000Y-66300000D03*
%TO.N,BUS_0*%
X171660000Y-66300000D03*
%TO.N,CLK*%
X174200000Y-66300000D03*
D14*
%TO.N,~{CLR}*%
X176740000Y-66300000D03*
%TD*%
D15*
%TO.N,Net-(D41-A)*%
%TO.C,D41*%
X59767100Y-122412300D03*
D16*
%TO.N,Net-(D41-K)*%
X57227100Y-122412300D03*
%TD*%
D15*
%TO.N,Net-(D46-A)*%
%TO.C,D46*%
X84817100Y-122412300D03*
D16*
%TO.N,Net-(D46-K)*%
X82277100Y-122412300D03*
%TD*%
D11*
%TO.N,Net-(D37-K)*%
%TO.C,R36*%
X175990000Y-84170000D03*
%TO.N,GND*%
X175990000Y-91790000D03*
%TD*%
%TO.N,GND*%
%TO.C,R55*%
X117817100Y-109792300D03*
%TO.N,Net-(D53-K)*%
X117817100Y-117412300D03*
%TD*%
D13*
%TO.N,VCC*%
%TO.C,U19*%
X276620000Y-23180000D03*
%TO.N,CLR*%
X276620000Y-25720000D03*
%TO.N,BUS_3*%
X276620000Y-28260000D03*
%TO.N,BUS_2*%
X276620000Y-30800000D03*
%TO.N,BUS_1*%
X276620000Y-33340000D03*
%TO.N,BUS_0*%
X276620000Y-35880000D03*
%TO.N,~{MI}*%
X276620000Y-38420000D03*
X276620000Y-40960000D03*
%TO.N,GND*%
X269000000Y-40960000D03*
%TO.N,CLK*%
X269000000Y-38420000D03*
%TO.N,/MAR/PROG*%
X269000000Y-35880000D03*
X269000000Y-33340000D03*
X269000000Y-30800000D03*
X269000000Y-28260000D03*
%TO.N,GND*%
X269000000Y-25720000D03*
D14*
X269000000Y-23180000D03*
%TD*%
D12*
%TO.N,GND*%
%TO.C,C118*%
X201817100Y-54712300D03*
%TO.N,VCC*%
X199817100Y-54712300D03*
%TD*%
D11*
%TO.N,VCC*%
%TO.C,U10*%
X306120000Y-45680000D03*
%TO.N,unconnected-(U10-Pad13)*%
X306120000Y-48220000D03*
%TO.N,unconnected-(U10-Pad12)*%
X306120000Y-50760000D03*
%TO.N,unconnected-(U10-Pad11)*%
X306120000Y-53300000D03*
%TO.N,Net-(U10-Pad10)*%
X306120000Y-55840000D03*
%TO.N,Net-(U10-Pad9)*%
X306120000Y-58380000D03*
%TO.N,Net-(U10-Pad4)*%
X306120000Y-60920000D03*
%TO.N,GND*%
X298500000Y-60920000D03*
%TO.N,Net-(U12-D1)*%
X298500000Y-58380000D03*
%TO.N,Net-(U10-Pad3)*%
X298500000Y-55840000D03*
%TO.N,Net-(U10-Pad4)*%
X298500000Y-53300000D03*
%TO.N,Net-(U10-Pad3)*%
X298500000Y-50760000D03*
%TO.N,Net-(U10-Pad2)*%
X298500000Y-48220000D03*
D10*
%TO.N,Net-(U10-Pad1)*%
X298500000Y-45680000D03*
%TD*%
D24*
%TO.N,VCC*%
%TO.C,SW7*%
X115266400Y-158879100D03*
%TO.N,Net-(SW7-B)*%
X113266400Y-158879100D03*
D25*
%TO.N,Net-(SW7-A)*%
X111266400Y-158879100D03*
D26*
%TO.N,*%
X117366400Y-158879100D03*
X109166400Y-158879100D03*
%TD*%
D11*
%TO.N,GND*%
%TO.C,R88*%
X182500000Y-27300000D03*
%TO.N,Net-(D117-K)*%
X182500000Y-34920000D03*
%TD*%
D13*
%TO.N,VCC*%
%TO.C,U11*%
X274468400Y-70180000D03*
%TO.N,Net-(U10-Pad9)*%
X274468400Y-72720000D03*
%TO.N,Net-(D19-A)*%
X274468400Y-75260000D03*
%TO.N,Net-(D18-A)*%
X274468400Y-77800000D03*
%TO.N,Net-(U10-Pad10)*%
X274468400Y-80340000D03*
%TO.N,Net-(D17-A)*%
X274468400Y-82880000D03*
%TO.N,Net-(D16-A)*%
X274468400Y-85420000D03*
%TO.N,GND*%
X266848400Y-85420000D03*
%TO.N,Net-(D15-A)*%
X266848400Y-82880000D03*
%TO.N,Net-(D13-A)*%
X266848400Y-80340000D03*
%TO.N,Net-(U10-Pad1)*%
X266848400Y-77800000D03*
%TO.N,Net-(D12-A)*%
X266848400Y-75260000D03*
%TO.N,Net-(D11-A)*%
X266848400Y-72720000D03*
D14*
%TO.N,Net-(U10-Pad2)*%
X266848400Y-70180000D03*
%TD*%
D19*
%TO.N,Net-(U2-TR)*%
%TO.C,SW1*%
X289567100Y-135662300D03*
X283067100Y-135662300D03*
%TO.N,GND*%
X289567100Y-131162300D03*
X283067100Y-131162300D03*
%TD*%
D15*
%TO.N,Net-(D28-A)*%
%TO.C,D28*%
X192660000Y-161420000D03*
D16*
%TO.N,Net-(D28-K)*%
X190120000Y-161420000D03*
%TD*%
D11*
%TO.N,VCC*%
%TO.C,R58*%
X105412100Y-91242300D03*
%TO.N,Net-(D56-A)*%
X105412100Y-98862300D03*
%TD*%
%TO.N,VCC*%
%TO.C,R59*%
X99912100Y-91052300D03*
%TO.N,Net-(D55-A)*%
X99912100Y-98672300D03*
%TD*%
%TO.N,Net-(R2-Pad2)*%
%TO.C,R2*%
X317165000Y-111540000D03*
%TO.N,Net-(U1-DIS)*%
X309545000Y-111540000D03*
%TD*%
D15*
%TO.N,RI*%
%TO.C,D40*%
X54767100Y-122412300D03*
D16*
%TO.N,Net-(D40-K)*%
X52227100Y-122412300D03*
%TD*%
D11*
%TO.N,Net-(U3-CV)*%
%TO.C,C4*%
X293317100Y-136662300D03*
%TO.N,GND*%
X293317100Y-134162300D03*
%TD*%
%TO.N,GND*%
%TO.C,R93*%
X324210000Y-65110000D03*
%TO.N,Net-(D024-K)*%
X324210000Y-72730000D03*
%TD*%
D15*
%TO.N,/ALU/A_7*%
%TO.C,D2*%
X198967100Y-81162300D03*
D16*
%TO.N,Net-(D2-K)*%
X201507100Y-81162300D03*
%TD*%
D11*
%TO.N,GND*%
%TO.C,R86*%
X172500000Y-27300000D03*
%TO.N,Net-(D115-K)*%
X172500000Y-34920000D03*
%TD*%
D15*
%TO.N,SU*%
%TO.C,D47*%
X89817100Y-122412300D03*
D16*
%TO.N,Net-(D47-K)*%
X87277100Y-122412300D03*
%TD*%
D11*
%TO.N,Net-(U34-G)*%
%TO.C,U34*%
X67586400Y-130639100D03*
%TO.N,Net-(U34-F)*%
X70126400Y-130639100D03*
%TO.N,Net-(U33A-O3)*%
X72666400Y-130639100D03*
%TO.N,Net-(U34-A)*%
X75206400Y-130639100D03*
%TO.N,Net-(U34-B)*%
X77746400Y-130639100D03*
%TO.N,Net-(U34-DP)*%
X77746400Y-145879100D03*
%TO.N,Net-(U34-C)*%
X75206400Y-145879100D03*
%TO.N,Net-(U33A-O3)*%
X72666400Y-145879100D03*
%TO.N,Net-(U34-D)*%
X70126400Y-145879100D03*
D20*
%TO.N,Net-(U34-E)*%
X67586400Y-145879100D03*
%TD*%
D22*
%TO.N,VCC*%
%TO.C,U25*%
X187760000Y-146300000D03*
%TO.N,~{RO}*%
X190300000Y-146300000D03*
%TO.N,BUS_7*%
X192840000Y-146300000D03*
%TO.N,BUS_6*%
X195380000Y-146300000D03*
%TO.N,BUS_5*%
X197920000Y-146300000D03*
%TO.N,BUS_4*%
X200460000Y-146300000D03*
%TO.N,BUS_3*%
X203000000Y-146300000D03*
%TO.N,BUS_2*%
X205540000Y-146300000D03*
%TO.N,BUS_1*%
X208080000Y-146300000D03*
%TO.N,BUS_0*%
X210620000Y-146300000D03*
%TO.N,GND*%
X210620000Y-153920000D03*
%TO.N,Net-(D33-A)*%
X208080000Y-153920000D03*
%TO.N,Net-(D32-A)*%
X205540000Y-153920000D03*
%TO.N,Net-(D31-A)*%
X203000000Y-153920000D03*
%TO.N,Net-(D30-A)*%
X200460000Y-153920000D03*
%TO.N,Net-(D29-A)*%
X197920000Y-153920000D03*
%TO.N,Net-(D28-A)*%
X195380000Y-153920000D03*
%TO.N,Net-(D27-A)*%
X192840000Y-153920000D03*
%TO.N,Net-(D26-A)*%
X190300000Y-153920000D03*
D23*
%TO.N,VCC*%
X187760000Y-153920000D03*
%TD*%
D15*
%TO.N,/ALU/B_3*%
%TO.C,D026*%
X317000000Y-78920000D03*
D16*
%TO.N,Net-(D026-K)*%
X314460000Y-78920000D03*
%TD*%
D11*
%TO.N,GND*%
%TO.C,R98*%
X299460000Y-65050000D03*
%TO.N,Net-(D029-K)*%
X299460000Y-72670000D03*
%TD*%
%TO.N,Net-(D35-K)*%
%TO.C,R34*%
X163990000Y-84170000D03*
%TO.N,GND*%
X163990000Y-91790000D03*
%TD*%
%TO.N,GND*%
%TO.C,R102*%
X216567100Y-93282300D03*
%TO.N,Net-(D5-K)*%
X216567100Y-85662300D03*
%TD*%
D22*
%TO.N,VCC*%
%TO.C,U48*%
X205957100Y-64662300D03*
%TO.N,~{AO}*%
X208497100Y-64662300D03*
%TO.N,BUS_7*%
X211037100Y-64662300D03*
%TO.N,BUS_6*%
X213577100Y-64662300D03*
%TO.N,BUS_5*%
X216117100Y-64662300D03*
%TO.N,BUS_4*%
X218657100Y-64662300D03*
%TO.N,BUS_3*%
X221197100Y-64662300D03*
%TO.N,BUS_2*%
X223737100Y-64662300D03*
%TO.N,BUS_1*%
X226277100Y-64662300D03*
%TO.N,BUS_0*%
X228817100Y-64662300D03*
%TO.N,GND*%
X228817100Y-72282300D03*
%TO.N,/ALU/A_3*%
X226277100Y-72282300D03*
%TO.N,/ALU/A_2*%
X223737100Y-72282300D03*
%TO.N,/ALU/A_1*%
X221197100Y-72282300D03*
%TO.N,/ALU/A_0*%
X218657100Y-72282300D03*
%TO.N,/ALU/A_7*%
X216117100Y-72282300D03*
%TO.N,/ALU/A_6*%
X213577100Y-72282300D03*
%TO.N,/ALU/A_5*%
X211037100Y-72282300D03*
%TO.N,/ALU/A_4*%
X208497100Y-72282300D03*
D23*
%TO.N,VCC*%
X205957100Y-72282300D03*
%TD*%
D15*
%TO.N,/ALU/B_0*%
%TO.C,D029*%
X301980000Y-78920000D03*
D16*
%TO.N,Net-(D029-K)*%
X299440000Y-78920000D03*
%TD*%
D11*
%TO.N,GND*%
%TO.C,R28*%
X200620000Y-173920000D03*
%TO.N,Net-(D30-K)*%
X200620000Y-166300000D03*
%TD*%
D13*
%TO.N,VCC*%
%TO.C,U26*%
X213081600Y-105325000D03*
%TO.N,~{CLR}*%
X213081600Y-107865000D03*
X213081600Y-110405000D03*
%TO.N,CLR*%
X213081600Y-112945000D03*
%TO.N,Net-(R64-Pad1)*%
X213081600Y-115485000D03*
X213081600Y-118025000D03*
%TO.N,~{CLR}*%
X213081600Y-120565000D03*
%TO.N,GND*%
X205461600Y-120565000D03*
%TO.N,Net-(U26-Pad6)*%
X205461600Y-118025000D03*
%TO.N,Net-(U42-O5)*%
X205461600Y-115485000D03*
%TO.N,~{CLR}*%
X205461600Y-112945000D03*
%TO.N,Net-(U51-I1c)*%
X205461600Y-110405000D03*
%TO.N,RI*%
X205461600Y-107865000D03*
D14*
%TO.N,Net-(C14-Pad2)*%
X205461600Y-105325000D03*
%TD*%
D15*
%TO.N,CLK*%
%TO.C,D1*%
X273837100Y-134912300D03*
D16*
%TO.N,Net-(D1-K)*%
X271297100Y-134912300D03*
%TD*%
D15*
%TO.N,/ALU/A_0*%
%TO.C,D9*%
X234047100Y-81162300D03*
D16*
%TO.N,Net-(D9-K)*%
X236587100Y-81162300D03*
%TD*%
D15*
%TO.N,IR_6*%
%TO.C,D113*%
X165020000Y-39920000D03*
D16*
%TO.N,Net-(D113-K)*%
X162480000Y-39920000D03*
%TD*%
D22*
%TO.N,VCC*%
%TO.C,U17*%
X252737100Y-90792300D03*
%TO.N,~{EO}*%
X255277100Y-90792300D03*
%TO.N,BUS_7*%
X257817100Y-90792300D03*
%TO.N,BUS_6*%
X260357100Y-90792300D03*
%TO.N,BUS_5*%
X262897100Y-90792300D03*
%TO.N,BUS_4*%
X265437100Y-90792300D03*
%TO.N,BUS_3*%
X267977100Y-90792300D03*
%TO.N,BUS_2*%
X270517100Y-90792300D03*
%TO.N,BUS_1*%
X273057100Y-90792300D03*
%TO.N,BUS_0*%
X275597100Y-90792300D03*
%TO.N,GND*%
X275597100Y-98412300D03*
%TO.N,Net-(D19-A)*%
X273057100Y-98412300D03*
%TO.N,Net-(D18-A)*%
X270517100Y-98412300D03*
%TO.N,Net-(D17-A)*%
X267977100Y-98412300D03*
%TO.N,Net-(D16-A)*%
X265437100Y-98412300D03*
%TO.N,Net-(D15-A)*%
X262897100Y-98412300D03*
%TO.N,Net-(D13-A)*%
X260357100Y-98412300D03*
%TO.N,Net-(D12-A)*%
X257817100Y-98412300D03*
%TO.N,Net-(D11-A)*%
X255277100Y-98412300D03*
D23*
%TO.N,VCC*%
X252737100Y-98412300D03*
%TD*%
D12*
%TO.N,GND*%
%TO.C,C22*%
X200067100Y-74282300D03*
%TO.N,VCC*%
X202067100Y-74282300D03*
%TD*%
D13*
%TO.N,VCC*%
%TO.C,U18*%
X219800000Y-28920000D03*
%TO.N,GND*%
X222340000Y-28920000D03*
%TO.N,/MAR/PROG*%
X224880000Y-28920000D03*
X227420000Y-28920000D03*
%TO.N,/MAR/A0*%
X229960000Y-28920000D03*
%TO.N,/MAR/PROG*%
X232500000Y-28920000D03*
X235040000Y-28920000D03*
%TO.N,/MAR/A1*%
X237580000Y-28920000D03*
%TO.N,GND*%
X237580000Y-36540000D03*
%TO.N,/MAR/A2*%
X235040000Y-36540000D03*
%TO.N,/MAR/PROG*%
X232500000Y-36540000D03*
X229960000Y-36540000D03*
%TO.N,/MAR/A3*%
X227420000Y-36540000D03*
%TO.N,/MAR/PROG*%
X224880000Y-36540000D03*
X222340000Y-36540000D03*
D14*
X219800000Y-36540000D03*
%TD*%
D11*
%TO.N,Net-(D24-A)*%
%TO.C,R18*%
X243250000Y-28130000D03*
%TO.N,VCC*%
X243250000Y-35750000D03*
%TD*%
%TO.N,GND*%
%TO.C,R101*%
X211567100Y-93282300D03*
%TO.N,Net-(D4-K)*%
X211567100Y-85662300D03*
%TD*%
D12*
%TO.N,GND*%
%TO.C,C12*%
X239977100Y-105547300D03*
%TO.N,VCC*%
X237977100Y-105547300D03*
%TD*%
D15*
%TO.N,/ALU/A_4*%
%TO.C,D5*%
X214027100Y-81162300D03*
D16*
%TO.N,Net-(D5-K)*%
X216567100Y-81162300D03*
%TD*%
D11*
%TO.N,GND*%
%TO.C,R51*%
X97817100Y-109792300D03*
%TO.N,Net-(D49-K)*%
X97817100Y-117412300D03*
%TD*%
%TO.N,GND*%
%TO.C,R54*%
X112817100Y-109912300D03*
%TO.N,Net-(D52-K)*%
X112817100Y-117532300D03*
%TD*%
%TO.N,Net-(U1-CV)*%
%TO.C,C1*%
X304067100Y-121662300D03*
%TO.N,GND*%
X304067100Y-119162300D03*
%TD*%
D19*
%TO.N,VCC*%
%TO.C,SW8*%
X91750000Y-74750000D03*
X85250000Y-74750000D03*
%TO.N,Net-(R64-Pad1)*%
X91750000Y-70250000D03*
X85250000Y-70250000D03*
%TD*%
D11*
%TO.N,GND*%
%TO.C,R25*%
X185120000Y-173920000D03*
%TO.N,Net-(D27-K)*%
X185120000Y-166300000D03*
%TD*%
%TO.N,GND*%
%TO.C,SW3*%
X264500000Y-32630000D03*
X264500000Y-35170000D03*
%TO.N,/MAR/PROG*%
X264500000Y-37710000D03*
X264500000Y-40250000D03*
%TO.N,GND*%
X256880000Y-40250000D03*
X256880000Y-37710000D03*
%TO.N,/MAR/PROG*%
X256880000Y-35170000D03*
D10*
X256880000Y-32630000D03*
%TD*%
D15*
%TO.N,Net-(D39-A)*%
%TO.C,D39*%
X49777100Y-122412300D03*
D16*
%TO.N,Net-(D39-K)*%
X47237100Y-122412300D03*
%TD*%
D11*
%TO.N,GND*%
%TO.C,R46*%
X72317100Y-109792300D03*
%TO.N,Net-(D44-K)*%
X72317100Y-117412300D03*
%TD*%
%TO.N,GND*%
%TO.C,R103*%
X221567100Y-93282300D03*
%TO.N,Net-(D6-K)*%
X221567100Y-85662300D03*
%TD*%
%TO.N,GND*%
%TO.C,R30*%
X210120000Y-173730000D03*
%TO.N,Net-(D32-K)*%
X210120000Y-166110000D03*
%TD*%
%TO.N,GND*%
%TO.C,R50*%
X92317100Y-109792300D03*
%TO.N,Net-(D48-K)*%
X92317100Y-117412300D03*
%TD*%
D24*
%TO.N,Net-(D25-K)*%
%TO.C,SW4*%
X257000000Y-23500000D03*
%TO.N,GND*%
X259000000Y-23500000D03*
D25*
%TO.N,/MAR/PROG*%
X261000000Y-23500000D03*
D26*
%TO.N,*%
X254900000Y-23500000D03*
X263100000Y-23500000D03*
%TD*%
D13*
%TO.N,VCC*%
%TO.C,U28*%
X234233200Y-105325000D03*
%TO.N,Net-(D43-A)*%
X234233200Y-107865000D03*
%TO.N,~{II}*%
X234233200Y-110405000D03*
%TO.N,Net-(D44-A)*%
X234233200Y-112945000D03*
%TO.N,~{AI}*%
X234233200Y-115485000D03*
%TO.N,Net-(D45-A)*%
X234233200Y-118025000D03*
%TO.N,~{AO}*%
X234233200Y-120565000D03*
%TO.N,GND*%
X226613200Y-120565000D03*
%TO.N,~{IO}*%
X226613200Y-118025000D03*
%TO.N,Net-(D42-A)*%
X226613200Y-115485000D03*
%TO.N,Net-(D33-A)*%
X226613200Y-112945000D03*
%TO.N,Net-(U23-\u002AO0)*%
X226613200Y-110405000D03*
%TO.N,Net-(D32-A)*%
X226613200Y-107865000D03*
D14*
%TO.N,Net-(U23-\u002AO1)*%
X226613200Y-105325000D03*
%TD*%
D22*
%TO.N,VCC*%
%TO.C,U117*%
X168570000Y-45110000D03*
%TO.N,~{IO}*%
X171110000Y-45110000D03*
%TO.N,BUS_7*%
X173650000Y-45110000D03*
%TO.N,BUS_6*%
X176190000Y-45110000D03*
%TO.N,BUS_5*%
X178730000Y-45110000D03*
%TO.N,BUS_4*%
X181270000Y-45110000D03*
%TO.N,BUS_3*%
X183810000Y-45110000D03*
%TO.N,BUS_2*%
X186350000Y-45110000D03*
%TO.N,BUS_1*%
X188890000Y-45110000D03*
%TO.N,BUS_0*%
X191430000Y-45110000D03*
%TO.N,GND*%
X191430000Y-52730000D03*
%TO.N,Net-(D116-A)*%
X188890000Y-52730000D03*
%TO.N,Net-(D117-A)*%
X186350000Y-52730000D03*
%TO.N,Net-(D118-A)*%
X183810000Y-52730000D03*
%TO.N,Net-(D119-A)*%
X181270000Y-52730000D03*
%TO.N,IR_7*%
X178730000Y-52730000D03*
%TO.N,IR_6*%
X176190000Y-52730000D03*
%TO.N,IR_5*%
X173650000Y-52730000D03*
%TO.N,IR_4*%
X171110000Y-52730000D03*
D23*
%TO.N,VCC*%
X168570000Y-52730000D03*
%TD*%
D11*
%TO.N,GND*%
%TO.C,R106*%
X236817100Y-93532300D03*
%TO.N,Net-(D9-K)*%
X236817100Y-85912300D03*
%TD*%
%TO.N,GND*%
%TO.C,R92*%
X329460000Y-65110000D03*
%TO.N,Net-(D023-K)*%
X329460000Y-72730000D03*
%TD*%
D15*
%TO.N,Net-(D60-A)*%
%TO.C,D60*%
X111452100Y-86552300D03*
D16*
%TO.N,Net-(D60-K)*%
X108912100Y-86552300D03*
%TD*%
D13*
%TO.N,VCC*%
%TO.C,U15*%
X285044200Y-70180000D03*
%TO.N,SU*%
X285044200Y-72720000D03*
%TO.N,/ALU/B_6*%
X285044200Y-75260000D03*
%TO.N,Net-(U13-B3)*%
X285044200Y-77800000D03*
%TO.N,SU*%
X285044200Y-80340000D03*
%TO.N,/ALU/B_7*%
X285044200Y-82880000D03*
%TO.N,Net-(U13-B4)*%
X285044200Y-85420000D03*
%TO.N,GND*%
X277424200Y-85420000D03*
%TO.N,Net-(U13-B1)*%
X277424200Y-82880000D03*
%TO.N,SU*%
X277424200Y-80340000D03*
%TO.N,/ALU/B_4*%
X277424200Y-77800000D03*
%TO.N,Net-(U13-B2)*%
X277424200Y-75260000D03*
%TO.N,SU*%
X277424200Y-72720000D03*
D14*
%TO.N,/ALU/B_5*%
X277424200Y-70180000D03*
%TD*%
D15*
%TO.N,Net-(D16-A)*%
%TO.C,D16*%
X269507100Y-103852300D03*
D16*
%TO.N,Net-(D16-K)*%
X266967100Y-103852300D03*
%TD*%
D11*
%TO.N,GND*%
%TO.C,R99*%
X201567100Y-93282300D03*
%TO.N,Net-(D2-K)*%
X201567100Y-85662300D03*
%TD*%
D15*
%TO.N,Net-(D18-A)*%
%TO.C,D18*%
X279257100Y-103852300D03*
D16*
%TO.N,Net-(D18-K)*%
X276717100Y-103852300D03*
%TD*%
D11*
%TO.N,GND*%
%TO.C,R26*%
X190120000Y-173730000D03*
%TO.N,Net-(D28-K)*%
X190120000Y-166110000D03*
%TD*%
D13*
%TO.N,VCC*%
%TO.C,U46*%
X140412100Y-31392300D03*
%TO.N,Net-(D51-A)*%
X140412100Y-33932300D03*
%TO.N,~{CO}*%
X140412100Y-36472300D03*
%TO.N,Net-(D52-A)*%
X140412100Y-39012300D03*
%TO.N,~{J}*%
X140412100Y-41552300D03*
%TO.N,unconnected-(U46-Pad9)*%
X140412100Y-44092300D03*
%TO.N,unconnected-(U46-Pad8)*%
X140412100Y-46632300D03*
%TO.N,GND*%
X132792100Y-46632300D03*
%TO.N,~{FI}*%
X132792100Y-44092300D03*
%TO.N,Net-(D53-A)*%
X132792100Y-41552300D03*
%TO.N,~{RO}*%
X132792100Y-39012300D03*
%TO.N,Net-(D41-A)*%
X132792100Y-36472300D03*
%TO.N,~{MI}*%
X132792100Y-33932300D03*
D14*
%TO.N,Net-(D39-A)*%
X132792100Y-31392300D03*
%TD*%
D11*
%TO.N,GND*%
%TO.C,R45*%
X67317100Y-109792300D03*
%TO.N,Net-(D43-K)*%
X67317100Y-117412300D03*
%TD*%
D15*
%TO.N,BUS_2*%
%TO.C,D64*%
X58500000Y-94150000D03*
D16*
%TO.N,Net-(D64-K)*%
X58500000Y-96690000D03*
%TD*%
D15*
%TO.N,/ALU/A_6*%
%TO.C,D3*%
X204007100Y-81162300D03*
D16*
%TO.N,Net-(D3-K)*%
X206547100Y-81162300D03*
%TD*%
D11*
%TO.N,GND*%
%TO.C,R68*%
X45927700Y-91657100D03*
%TO.N,Net-(D65-K)*%
X53547700Y-91657100D03*
%TD*%
D15*
%TO.N,BUS_3*%
%TO.C,D65*%
X58500000Y-89150000D03*
D16*
%TO.N,Net-(D65-K)*%
X58500000Y-91690000D03*
%TD*%
D22*
%TO.N,VCC*%
%TO.C,U7*%
X324650000Y-91300000D03*
X322110000Y-91300000D03*
%TO.N,BUS_7*%
X319570000Y-91300000D03*
%TO.N,BUS_6*%
X317030000Y-91300000D03*
%TO.N,BUS_5*%
X314490000Y-91300000D03*
%TO.N,BUS_4*%
X311950000Y-91300000D03*
%TO.N,BUS_3*%
X309410000Y-91300000D03*
%TO.N,BUS_2*%
X306870000Y-91300000D03*
%TO.N,BUS_1*%
X304330000Y-91300000D03*
%TO.N,BUS_0*%
X301790000Y-91300000D03*
%TO.N,GND*%
X301790000Y-83680000D03*
%TO.N,/ALU/B_3*%
X304330000Y-83680000D03*
%TO.N,/ALU/B_2*%
X306870000Y-83680000D03*
%TO.N,/ALU/B_1*%
X309410000Y-83680000D03*
%TO.N,/ALU/B_0*%
X311950000Y-83680000D03*
%TO.N,/ALU/B_7*%
X314490000Y-83680000D03*
%TO.N,/ALU/B_6*%
X317030000Y-83680000D03*
%TO.N,/ALU/B_5*%
X319570000Y-83680000D03*
%TO.N,/ALU/B_4*%
X322110000Y-83680000D03*
D23*
%TO.N,VCC*%
X324650000Y-83680000D03*
%TD*%
D15*
%TO.N,Net-(D35-A)*%
%TO.C,D35*%
X166500000Y-79420000D03*
D16*
%TO.N,Net-(D35-K)*%
X163960000Y-79420000D03*
%TD*%
D13*
%TO.N,VCC*%
%TO.C,U9*%
X332580000Y-101420000D03*
%TO.N,CLR*%
X330040000Y-101420000D03*
%TO.N,BUS_3*%
X327500000Y-101420000D03*
%TO.N,BUS_2*%
X324960000Y-101420000D03*
%TO.N,BUS_1*%
X322420000Y-101420000D03*
%TO.N,BUS_0*%
X319880000Y-101420000D03*
%TO.N,~{BI}*%
X317340000Y-101420000D03*
X314800000Y-101420000D03*
%TO.N,GND*%
X314800000Y-93800000D03*
%TO.N,CLK*%
X317340000Y-93800000D03*
%TO.N,/ALU/B_0*%
X319880000Y-93800000D03*
%TO.N,/ALU/B_1*%
X322420000Y-93800000D03*
%TO.N,/ALU/B_2*%
X324960000Y-93800000D03*
%TO.N,/ALU/B_3*%
X327500000Y-93800000D03*
%TO.N,GND*%
X330040000Y-93800000D03*
D14*
X332580000Y-93800000D03*
%TD*%
D15*
%TO.N,OI*%
%TO.C,D49*%
X99817100Y-122412300D03*
D16*
%TO.N,Net-(D49-K)*%
X97277100Y-122412300D03*
%TD*%
D15*
%TO.N,Net-(D119-A)*%
%TO.C,D119*%
X195000000Y-39920000D03*
D16*
%TO.N,Net-(D119-K)*%
X192460000Y-39920000D03*
%TD*%
D11*
%TO.N,GND*%
%TO.C,R73*%
X70707900Y-88287700D03*
%TO.N,BUS_7*%
X63087900Y-88287700D03*
%TD*%
%TO.N,Net-(U31-DIS)*%
%TO.C,R38*%
X163286400Y-124379100D03*
%TO.N,Net-(U31-THR)*%
X155666400Y-124379100D03*
%TD*%
D15*
%TO.N,/ALU/B_6*%
%TO.C,D023*%
X332040000Y-78880000D03*
D16*
%TO.N,Net-(D023-K)*%
X329500000Y-78880000D03*
%TD*%
D15*
%TO.N,Net-(D34-A)*%
%TO.C,D34*%
X160490000Y-79420000D03*
D16*
%TO.N,Net-(D34-K)*%
X157950000Y-79420000D03*
%TD*%
D12*
%TO.N,GND*%
%TO.C,C16*%
X155666400Y-117379100D03*
%TO.N,Net-(U31-THR)*%
X155666400Y-119379100D03*
%TD*%
D11*
%TO.N,GND*%
%TO.C,R9*%
X247417100Y-117222300D03*
%TO.N,Net-(D11-K)*%
X247417100Y-109602300D03*
%TD*%
D15*
%TO.N,Net-(D117-A)*%
%TO.C,D117*%
X185000000Y-39920000D03*
D16*
%TO.N,Net-(D117-K)*%
X182460000Y-39920000D03*
%TD*%
D13*
%TO.N,VCC*%
%TO.C,U50*%
X238947100Y-79112300D03*
%TO.N,CLR*%
X238947100Y-76572300D03*
%TO.N,BUS_3*%
X238947100Y-74032300D03*
%TO.N,BUS_2*%
X238947100Y-71492300D03*
%TO.N,BUS_1*%
X238947100Y-68952300D03*
%TO.N,BUS_0*%
X238947100Y-66412300D03*
%TO.N,~{AI}*%
X238947100Y-63872300D03*
X238947100Y-61332300D03*
%TO.N,GND*%
X246567100Y-61332300D03*
%TO.N,CLK*%
X246567100Y-63872300D03*
%TO.N,/ALU/A_0*%
X246567100Y-66412300D03*
%TO.N,/ALU/A_1*%
X246567100Y-68952300D03*
%TO.N,/ALU/A_2*%
X246567100Y-71492300D03*
%TO.N,/ALU/A_3*%
X246567100Y-74032300D03*
%TO.N,GND*%
X246567100Y-76572300D03*
D14*
X246567100Y-79112300D03*
%TD*%
D15*
%TO.N,Net-(D24-A)*%
%TO.C,D24*%
X243770000Y-23500000D03*
D16*
%TO.N,/MAR/PROG*%
X241230000Y-23500000D03*
%TD*%
D11*
%TO.N,GND*%
%TO.C,R29*%
X205120000Y-173920000D03*
%TO.N,Net-(D31-K)*%
X205120000Y-166300000D03*
%TD*%
%TO.N,GND*%
%TO.C,R61*%
X102912100Y-73932300D03*
%TO.N,Net-(D59-K)*%
X102912100Y-81552300D03*
%TD*%
%TO.N,GND*%
%TO.C,R95*%
X314460000Y-65050000D03*
%TO.N,Net-(D026-K)*%
X314460000Y-72670000D03*
%TD*%
D12*
%TO.N,GND*%
%TO.C,C19*%
X145666400Y-126379100D03*
%TO.N,VCC*%
X147666400Y-126379100D03*
%TD*%
D11*
%TO.N,GND*%
%TO.C,R7*%
X271317100Y-147222300D03*
%TO.N,Net-(D1-K)*%
X271317100Y-139602300D03*
%TD*%
D15*
%TO.N,BUS_5*%
%TO.C,D67*%
X58500000Y-79150000D03*
D16*
%TO.N,Net-(D67-K)*%
X58500000Y-81690000D03*
%TD*%
D15*
%TO.N,Net-(D26-A)*%
%TO.C,D26*%
X182620000Y-161420000D03*
D16*
%TO.N,Net-(D26-K)*%
X180080000Y-161420000D03*
%TD*%
D12*
%TO.N,GND*%
%TO.C,C21*%
X82612100Y-63342300D03*
%TO.N,VCC*%
X80612100Y-63342300D03*
%TD*%
D11*
%TO.N,GND*%
%TO.C,R27*%
X195120000Y-173730000D03*
%TO.N,Net-(D29-K)*%
X195120000Y-166110000D03*
%TD*%
%TO.N,GND*%
%TO.C,R100*%
X206567100Y-93282300D03*
%TO.N,Net-(D3-K)*%
X206567100Y-85662300D03*
%TD*%
D15*
%TO.N,Net-(D58-A)*%
%TO.C,D58*%
X117452100Y-103552300D03*
D16*
%TO.N,Net-(D58-K)*%
X114912100Y-103552300D03*
%TD*%
D11*
%TO.N,GND*%
%TO.C,R43*%
X57317100Y-109792300D03*
%TO.N,Net-(D41-K)*%
X57317100Y-117412300D03*
%TD*%
D15*
%TO.N,BUS_4*%
%TO.C,D66*%
X58500000Y-84110000D03*
D16*
%TO.N,Net-(D66-K)*%
X58500000Y-86650000D03*
%TD*%
D15*
%TO.N,/MAR/A0*%
%TO.C,D23*%
X242967100Y-42332300D03*
D16*
%TO.N,Net-(D23-K)*%
X240427100Y-42332300D03*
%TD*%
D12*
%TO.N,GND*%
%TO.C,C20*%
X82612100Y-56792300D03*
%TO.N,VCC*%
X80612100Y-56792300D03*
%TD*%
D11*
%TO.N,GND*%
%TO.C,R41*%
X47317100Y-109792300D03*
%TO.N,Net-(D39-K)*%
X47317100Y-117412300D03*
%TD*%
%TO.N,GND*%
%TO.C,R48*%
X82317100Y-109792300D03*
%TO.N,Net-(D46-K)*%
X82317100Y-117412300D03*
%TD*%
%TO.N,Net-(U2-CV)*%
%TO.C,C2*%
X278067100Y-154412300D03*
%TO.N,GND*%
X275567100Y-154412300D03*
%TD*%
%TO.N,Net-(U34-G)*%
%TO.C,U36*%
X95686400Y-130639100D03*
%TO.N,Net-(U34-F)*%
X98226400Y-130639100D03*
%TO.N,Net-(U33A-O2)*%
X100766400Y-130639100D03*
%TO.N,Net-(U34-A)*%
X103306400Y-130639100D03*
%TO.N,Net-(U34-B)*%
X105846400Y-130639100D03*
%TO.N,Net-(U34-DP)*%
X105846400Y-145879100D03*
%TO.N,Net-(U34-C)*%
X103306400Y-145879100D03*
%TO.N,Net-(U33A-O2)*%
X100766400Y-145879100D03*
%TO.N,Net-(U34-D)*%
X98226400Y-145879100D03*
D20*
%TO.N,Net-(U34-E)*%
X95686400Y-145879100D03*
%TD*%
D15*
%TO.N,Net-(D37-A)*%
%TO.C,D37*%
X178520000Y-79420000D03*
D16*
%TO.N,Net-(D37-K)*%
X175980000Y-79420000D03*
%TD*%
D11*
%TO.N,VCC*%
%TO.C,U12*%
X273780000Y-45670000D03*
%TO.N,CLR*%
X273780000Y-48210000D03*
%TO.N,Net-(U12-D0)*%
X273780000Y-50750000D03*
%TO.N,Net-(U12-D1)*%
X273780000Y-53290000D03*
%TO.N,unconnected-(U12-D2-Pad12)*%
X273780000Y-55830000D03*
%TO.N,unconnected-(U12-D3-Pad11)*%
X273780000Y-58370000D03*
%TO.N,~{FI}*%
X273780000Y-60910000D03*
X273780000Y-63450000D03*
%TO.N,GND*%
X266160000Y-63450000D03*
%TO.N,CLK*%
X266160000Y-60910000D03*
%TO.N,unconnected-(U12-Q3-Pad6)*%
X266160000Y-58370000D03*
%TO.N,unconnected-(U12-Q2-Pad5)*%
X266160000Y-55830000D03*
%TO.N,ZF*%
X266160000Y-53290000D03*
%TO.N,CF*%
X266160000Y-50750000D03*
%TO.N,GND*%
X266160000Y-48210000D03*
D10*
X266160000Y-45670000D03*
%TD*%
D27*
%TO.N,GND*%
%TO.C,J1*%
X20520000Y-114990000D03*
X24320000Y-114990000D03*
X20520000Y-106350000D03*
X24320000Y-106350000D03*
%TD*%
D13*
%TO.N,VCC*%
%TO.C,U39*%
X163296800Y-96506800D03*
%TO.N,N/C*%
X163296800Y-99046800D03*
X163296800Y-101586800D03*
X163296800Y-104126800D03*
X163296800Y-106666800D03*
X163296800Y-109206800D03*
X163296800Y-111746800D03*
%TO.N,GND*%
X155676800Y-111746800D03*
%TO.N,N/C*%
X155676800Y-109206800D03*
X155676800Y-106666800D03*
X155676800Y-104126800D03*
%TO.N,Net-(U38-Cp)*%
X155676800Y-101586800D03*
%TO.N,CLK*%
X155676800Y-99046800D03*
D14*
%TO.N,OI*%
X155676800Y-96506800D03*
%TD*%
D11*
%TO.N,GND*%
%TO.C,R66*%
X46047700Y-102157100D03*
%TO.N,Net-(D63-K)*%
X53667700Y-102157100D03*
%TD*%
D15*
%TO.N,Net-(D32-A)*%
%TO.C,D32*%
X212660000Y-161420000D03*
D16*
%TO.N,Net-(D32-K)*%
X210120000Y-161420000D03*
%TD*%
D11*
%TO.N,GND*%
%TO.C,R12*%
X257167100Y-117162300D03*
%TO.N,Net-(D13-K)*%
X257167100Y-109542300D03*
%TD*%
D13*
%TO.N,VCC*%
%TO.C,U42*%
X81740000Y-89100000D03*
%TO.N,Net-(D58-K)*%
X81740000Y-91640000D03*
%TO.N,Net-(D57-K)*%
X81740000Y-94180000D03*
%TO.N,Net-(D56-K)*%
X81740000Y-96720000D03*
%TO.N,Net-(D55-K)*%
X81740000Y-99260000D03*
%TO.N,Net-(D54-K)*%
X81740000Y-101800000D03*
%TO.N,Net-(U42-O5)*%
X81740000Y-104340000D03*
%TO.N,unconnected-(U42-O6-Pad9)*%
X81740000Y-106880000D03*
%TO.N,GND*%
X74120000Y-106880000D03*
%TO.N,unconnected-(U42-O7-Pad7)*%
X74120000Y-104340000D03*
%TO.N,VCC*%
X74120000Y-101800000D03*
%TO.N,GND*%
X74120000Y-99260000D03*
X74120000Y-96720000D03*
%TO.N,Net-(D61-A)*%
X74120000Y-94180000D03*
%TO.N,Net-(D60-A)*%
X74120000Y-91640000D03*
D14*
%TO.N,Net-(D59-A)*%
X74120000Y-89100000D03*
%TD*%
D11*
%TO.N,GND*%
%TO.C,R23*%
X240647100Y-54892300D03*
%TO.N,Net-(D23-K)*%
X240647100Y-47272300D03*
%TD*%
D22*
%TO.N,N/C*%
%TO.C,U118*%
X184000000Y-63040000D03*
X181460000Y-63040000D03*
X178920000Y-63040000D03*
X176380000Y-63040000D03*
%TO.N,VCC*%
X173840000Y-63040000D03*
%TO.N,CLR*%
X171300000Y-63040000D03*
%TO.N,BUS_7*%
X168760000Y-63040000D03*
%TO.N,BUS_6*%
X166220000Y-63040000D03*
%TO.N,BUS_5*%
X163680000Y-63040000D03*
%TO.N,BUS_4*%
X161140000Y-63040000D03*
%TO.N,~{II}*%
X161140000Y-55420000D03*
X163680000Y-55420000D03*
%TO.N,GND*%
X166220000Y-55420000D03*
%TO.N,CLK*%
X168760000Y-55420000D03*
%TO.N,IR_4*%
X171300000Y-55420000D03*
%TO.N,IR_5*%
X173840000Y-55420000D03*
%TO.N,IR_6*%
X176380000Y-55420000D03*
%TO.N,IR_7*%
X178920000Y-55420000D03*
%TO.N,GND*%
X181460000Y-55420000D03*
D23*
X184000000Y-55420000D03*
%TD*%
D15*
%TO.N,BUS_0*%
%TO.C,D62*%
X58500000Y-104150000D03*
D16*
%TO.N,Net-(D62-K)*%
X58500000Y-106690000D03*
%TD*%
D15*
%TO.N,Net-(D15-A)*%
%TO.C,D15*%
X264627100Y-103852300D03*
D16*
%TO.N,Net-(D15-K)*%
X262087100Y-103852300D03*
%TD*%
D11*
%TO.N,GND*%
%TO.C,R8*%
X256750000Y-46360000D03*
%TO.N,Net-(D14-K)*%
X256750000Y-53980000D03*
%TD*%
D15*
%TO.N,BUS_1*%
%TO.C,D63*%
X58500000Y-99150000D03*
D16*
%TO.N,Net-(D63-K)*%
X58500000Y-101690000D03*
%TD*%
D13*
%TO.N,VCC*%
%TO.C,U27*%
X223657400Y-105325000D03*
%TO.N,Net-(U23-\u002AO2)*%
X223657400Y-107865000D03*
%TO.N,Net-(D31-A)*%
X223657400Y-110405000D03*
%TO.N,Net-(U23-\u002AO3)*%
X223657400Y-112945000D03*
%TO.N,Net-(D30-A)*%
X223657400Y-115485000D03*
%TO.N,Net-(U21-\u002AO3)*%
X223657400Y-118025000D03*
%TO.N,Net-(D29-A)*%
X223657400Y-120565000D03*
%TO.N,GND*%
X216037400Y-120565000D03*
%TO.N,Net-(D28-A)*%
X216037400Y-118025000D03*
%TO.N,Net-(U21-\u002AO2)*%
X216037400Y-115485000D03*
%TO.N,Net-(D27-A)*%
X216037400Y-112945000D03*
%TO.N,Net-(U21-\u002AO1)*%
X216037400Y-110405000D03*
%TO.N,Net-(D26-A)*%
X216037400Y-107865000D03*
D14*
%TO.N,Net-(U21-\u002AO0)*%
X216037400Y-105325000D03*
%TD*%
D11*
%TO.N,VCC*%
%TO.C,U14*%
X295340000Y-45670000D03*
%TO.N,Net-(U14-B3)*%
X295340000Y-48210000D03*
%TO.N,/ALU/A_2*%
X295340000Y-50750000D03*
%TO.N,Net-(D17-A)*%
X295340000Y-53290000D03*
%TO.N,/ALU/A_3*%
X295340000Y-55830000D03*
%TO.N,Net-(U14-B4)*%
X295340000Y-58370000D03*
%TO.N,Net-(D16-A)*%
X295340000Y-60910000D03*
%TO.N,Net-(U13-C0)*%
X295340000Y-63450000D03*
%TO.N,GND*%
X287720000Y-63450000D03*
%TO.N,SU*%
X287720000Y-60910000D03*
%TO.N,Net-(U14-B1)*%
X287720000Y-58370000D03*
%TO.N,/ALU/A_0*%
X287720000Y-55830000D03*
%TO.N,Net-(D19-A)*%
X287720000Y-53290000D03*
%TO.N,/ALU/A_1*%
X287720000Y-50750000D03*
%TO.N,Net-(U14-B2)*%
X287720000Y-48210000D03*
D10*
%TO.N,Net-(D18-A)*%
X287720000Y-45670000D03*
%TD*%
D11*
%TO.N,GND*%
%TO.C,R84*%
X162500000Y-27300000D03*
%TO.N,Net-(D113-K)*%
X162500000Y-34920000D03*
%TD*%
%TO.N,GND*%
%TO.C,R53*%
X107817100Y-109912300D03*
%TO.N,Net-(D51-K)*%
X107817100Y-117532300D03*
%TD*%
D15*
%TO.N,/ALU/A_2*%
%TO.C,D7*%
X224047100Y-81162300D03*
D16*
%TO.N,Net-(D7-K)*%
X226587100Y-81162300D03*
%TD*%
D15*
%TO.N,Net-(D55-A)*%
%TO.C,D55*%
X99422100Y-103552300D03*
D16*
%TO.N,Net-(D55-K)*%
X96882100Y-103552300D03*
%TD*%
D15*
%TO.N,Net-(D19-A)*%
%TO.C,D19*%
X284417100Y-103852300D03*
D16*
%TO.N,Net-(D19-K)*%
X281877100Y-103852300D03*
%TD*%
D11*
%TO.N,GND*%
%TO.C,R105*%
X231567100Y-93282300D03*
%TO.N,Net-(D8-K)*%
X231567100Y-85662300D03*
%TD*%
D15*
%TO.N,unconnected-(RV1-Pad3)*%
%TO.C,RV1*%
X320775000Y-114000000D03*
%TO.N,Net-(R2-Pad2)*%
X320775000Y-111500000D03*
D16*
%TO.N,Net-(U1-THR)*%
X320775000Y-109000000D03*
D28*
%TO.N,*%
X328275000Y-116300000D03*
X328275000Y-106700000D03*
%TD*%
D13*
%TO.N,VCC*%
%TO.C,U47*%
X140532100Y-51812300D03*
%TO.N,unconnected-(U47-Pad13)*%
X140532100Y-54352300D03*
%TO.N,unconnected-(U47-Pad12)*%
X140532100Y-56892300D03*
%TO.N,unconnected-(U47-Pad11)*%
X140532100Y-59432300D03*
%TO.N,unconnected-(U47-Pad10)*%
X140532100Y-61972300D03*
%TO.N,unconnected-(U47-Pad9)*%
X140532100Y-64512300D03*
%TO.N,unconnected-(U47-Pad8)*%
X140532100Y-67052300D03*
%TO.N,GND*%
X132912100Y-67052300D03*
%TO.N,unconnected-(U47-Pad6)*%
X132912100Y-64512300D03*
%TO.N,unconnected-(U47-Pad5)*%
X132912100Y-61972300D03*
%TO.N,~{BI}*%
X132912100Y-59432300D03*
%TO.N,Net-(D48-A)*%
X132912100Y-56892300D03*
%TO.N,~{EO}*%
X132912100Y-54352300D03*
D14*
%TO.N,Net-(D46-A)*%
X132912100Y-51812300D03*
%TD*%
D11*
%TO.N,GND*%
%TO.C,R104*%
X226567100Y-93282300D03*
%TO.N,Net-(D7-K)*%
X226567100Y-85662300D03*
%TD*%
%TO.N,GND*%
%TO.C,R64*%
X85912100Y-58932300D03*
%TO.N,Net-(R64-Pad1)*%
X85912100Y-66552300D03*
%TD*%
%TO.N,GND*%
%TO.C,R40*%
X42317100Y-109792300D03*
%TO.N,Net-(D38-K)*%
X42317100Y-117412300D03*
%TD*%
%TO.N,GND*%
%TO.C,R85*%
X167500000Y-27300000D03*
%TO.N,Net-(D114-K)*%
X167500000Y-34920000D03*
%TD*%
D12*
%TO.N,GND*%
%TO.C,C15*%
X155490000Y-60920000D03*
%TO.N,VCC*%
X153490000Y-60920000D03*
%TD*%
D15*
%TO.N,Net-(D12-A)*%
%TO.C,D12*%
X254907100Y-103852300D03*
D16*
%TO.N,Net-(D12-K)*%
X252367100Y-103852300D03*
%TD*%
D11*
%TO.N,VCC*%
%TO.C,U16*%
X289380000Y-105185000D03*
%TO.N,SU*%
X291920000Y-105185000D03*
%TO.N,/ALU/B_2*%
X294460000Y-105185000D03*
%TO.N,Net-(U14-B2)*%
X297000000Y-105185000D03*
%TO.N,SU*%
X299540000Y-105185000D03*
%TO.N,/ALU/B_3*%
X302080000Y-105185000D03*
%TO.N,Net-(U14-B4)*%
X304620000Y-105185000D03*
%TO.N,GND*%
X304620000Y-112805000D03*
%TO.N,Net-(U14-B1)*%
X302080000Y-112805000D03*
%TO.N,SU*%
X299540000Y-112805000D03*
%TO.N,/ALU/B_0*%
X297000000Y-112805000D03*
%TO.N,Net-(U14-B3)*%
X294460000Y-112805000D03*
%TO.N,SU*%
X291920000Y-112805000D03*
D29*
%TO.N,/ALU/B_1*%
X289380000Y-112805000D03*
%TD*%
D17*
%TO.N,VCC*%
%TO.C,U44*%
X124000050Y-32060000D03*
X124000050Y-34600000D03*
%TO.N,N/C*%
X124000050Y-37140000D03*
%TO.N,CF*%
X124000050Y-39680000D03*
%TO.N,ZF*%
X124000050Y-42220000D03*
%TO.N,GND*%
X124000050Y-44760000D03*
X124000050Y-47300000D03*
X124000050Y-49840000D03*
X124000050Y-52380000D03*
%TO.N,Net-(D46-A)*%
X124000050Y-54920000D03*
%TO.N,SU*%
X124000050Y-57460000D03*
%TO.N,Net-(D48-A)*%
X124000050Y-60000000D03*
%TO.N,OI*%
X124000050Y-62540000D03*
%TO.N,CE*%
X124000050Y-65080000D03*
%TO.N,GND*%
X108442550Y-65080000D03*
%TO.N,Net-(D51-A)*%
X108442550Y-62540000D03*
%TO.N,Net-(D52-A)*%
X108442550Y-60000000D03*
%TO.N,Net-(D53-A)*%
X108442550Y-57460000D03*
%TO.N,Net-(D59-A)*%
X108442550Y-54920000D03*
%TO.N,Net-(D60-A)*%
X108442550Y-52380000D03*
%TO.N,Net-(D61-A)*%
X108442550Y-49840000D03*
%TO.N,IR_4*%
X108442550Y-47300000D03*
%TO.N,IR_5*%
X108442550Y-44760000D03*
%TO.N,IR_6*%
X108442550Y-42220000D03*
%TO.N,IR_7*%
X108442550Y-39680000D03*
%TO.N,VCC*%
X108442550Y-37140000D03*
%TO.N,GND*%
X108442550Y-34600000D03*
D18*
%TO.N,N/C*%
X108442550Y-32060000D03*
%TD*%
D15*
%TO.N,Net-(D45-A)*%
%TO.C,D45*%
X79817100Y-122412300D03*
D16*
%TO.N,Net-(D45-K)*%
X77277100Y-122412300D03*
%TD*%
D15*
%TO.N,Net-(D118-A)*%
%TO.C,D118*%
X190000000Y-39920000D03*
D16*
%TO.N,Net-(D118-K)*%
X187460000Y-39920000D03*
%TD*%
D15*
%TO.N,Net-(D36-A)*%
%TO.C,D36*%
X172510000Y-79420000D03*
D16*
%TO.N,Net-(D36-K)*%
X169970000Y-79420000D03*
%TD*%
D13*
%TO.N,VCC*%
%TO.C,U119*%
X205197100Y-53912300D03*
%TO.N,CLR*%
X205197100Y-51372300D03*
%TO.N,BUS_3*%
X205197100Y-48832300D03*
%TO.N,BUS_2*%
X205197100Y-46292300D03*
%TO.N,BUS_1*%
X205197100Y-43752300D03*
%TO.N,BUS_0*%
X205197100Y-41212300D03*
%TO.N,~{II}*%
X205197100Y-38672300D03*
X205197100Y-36132300D03*
%TO.N,GND*%
X212817100Y-36132300D03*
%TO.N,CLK*%
X212817100Y-38672300D03*
%TO.N,Net-(D119-A)*%
X212817100Y-41212300D03*
%TO.N,Net-(D118-A)*%
X212817100Y-43752300D03*
%TO.N,Net-(D117-A)*%
X212817100Y-46292300D03*
%TO.N,Net-(D116-A)*%
X212817100Y-48832300D03*
%TO.N,GND*%
X212817100Y-51372300D03*
D14*
X212817100Y-53912300D03*
%TD*%
D11*
%TO.N,GND*%
%TO.C,R96*%
X309460000Y-65110000D03*
%TO.N,Net-(D027-K)*%
X309460000Y-72730000D03*
%TD*%
%TO.N,GND*%
%TO.C,R67*%
X46047700Y-96657100D03*
%TO.N,Net-(D64-K)*%
X53667700Y-96657100D03*
%TD*%
%TO.N,GND*%
%TO.C,R75*%
X70945000Y-96690000D03*
%TO.N,BUS_5*%
X63325000Y-96690000D03*
%TD*%
D15*
%TO.N,/ALU/A_3*%
%TO.C,D6*%
X219047100Y-81162300D03*
D16*
%TO.N,Net-(D6-K)*%
X221587100Y-81162300D03*
%TD*%
D11*
%TO.N,Net-(D10-K)*%
%TO.C,R10*%
X256750000Y-58550000D03*
%TO.N,GND*%
X256750000Y-66170000D03*
%TD*%
%TO.N,GND*%
%TO.C,R22*%
X234397100Y-54892300D03*
%TO.N,Net-(D22-K)*%
X234397100Y-47272300D03*
%TD*%
%TO.N,GND*%
%TO.C,R82*%
X37994400Y-109375000D03*
%TO.N,Net-(J1-CC1)*%
X30374400Y-109375000D03*
%TD*%
%TO.N,VCC*%
%TO.C,C5*%
X298567100Y-135962300D03*
%TO.N,GND*%
X301067100Y-135962300D03*
%TD*%
D15*
%TO.N,Net-(D52-A)*%
%TO.C,D52*%
X115317100Y-122412300D03*
D16*
%TO.N,Net-(D52-K)*%
X112777100Y-122412300D03*
%TD*%
D15*
%TO.N,Net-(D43-A)*%
%TO.C,D43*%
X69767100Y-122412300D03*
D16*
%TO.N,Net-(D43-K)*%
X67227100Y-122412300D03*
%TD*%
D13*
%TO.N,VCC*%
%TO.C,U45*%
X81620000Y-70180000D03*
%TO.N,N/C*%
X81620000Y-72720000D03*
X81620000Y-75260000D03*
X81620000Y-77800000D03*
X81620000Y-80340000D03*
X81620000Y-82880000D03*
X81620000Y-85420000D03*
%TO.N,GND*%
X74000000Y-85420000D03*
%TO.N,N/C*%
X74000000Y-82880000D03*
X74000000Y-80340000D03*
X74000000Y-77800000D03*
%TO.N,Net-(U41-~{MR})*%
X74000000Y-75260000D03*
%TO.N,Net-(U26-Pad6)*%
X74000000Y-72720000D03*
D14*
X74000000Y-70180000D03*
%TD*%
D12*
%TO.N,Net-(C14-Pad2)*%
%TO.C,C14*%
X265000000Y-130580000D03*
%TO.N,CLK*%
X265000000Y-128580000D03*
%TD*%
D11*
%TO.N,GND*%
%TO.C,R49*%
X87317100Y-109792300D03*
%TO.N,Net-(D47-K)*%
X87317100Y-117412300D03*
%TD*%
D15*
%TO.N,Net-(D33-A)*%
%TO.C,D33*%
X217660000Y-161420000D03*
D16*
%TO.N,Net-(D33-K)*%
X215120000Y-161420000D03*
%TD*%
D11*
%TO.N,VCC*%
%TO.C,C6*%
X298567100Y-131912300D03*
%TO.N,GND*%
X301067100Y-131912300D03*
%TD*%
D17*
%TO.N,VCC*%
%TO.C,U40*%
X141723950Y-95979100D03*
X141723950Y-98519100D03*
%TO.N,N/C*%
X141723950Y-101059100D03*
%TO.N,Net-(U32A-~{Q})*%
X141723950Y-103599100D03*
%TO.N,Net-(U32B-~{Q})*%
X141723950Y-106139100D03*
%TO.N,GND*%
X141723950Y-108679100D03*
X141723950Y-111219100D03*
%TO.N,Net-(SW7-B)*%
X141723950Y-113759100D03*
%TO.N,GND*%
X141723950Y-116299100D03*
%TO.N,Net-(U34-DP)*%
X141723950Y-118839100D03*
%TO.N,Net-(U34-A)*%
X141723950Y-121379100D03*
%TO.N,Net-(U34-B)*%
X141723950Y-123919100D03*
%TO.N,Net-(U34-C)*%
X141723950Y-126459100D03*
%TO.N,Net-(U34-D)*%
X141723950Y-128999100D03*
%TO.N,GND*%
X126166450Y-128999100D03*
%TO.N,Net-(U34-E)*%
X126166450Y-126459100D03*
%TO.N,Net-(U34-F)*%
X126166450Y-123919100D03*
%TO.N,Net-(U34-G)*%
X126166450Y-121379100D03*
%TO.N,Net-(U38-Q0)*%
X126166450Y-118839100D03*
%TO.N,Net-(U38-Q1)*%
X126166450Y-116299100D03*
%TO.N,Net-(U38-Q2)*%
X126166450Y-113759100D03*
%TO.N,Net-(U38-Q3)*%
X126166450Y-111219100D03*
%TO.N,Net-(U38-Q4)*%
X126166450Y-108679100D03*
%TO.N,Net-(U38-Q5)*%
X126166450Y-106139100D03*
%TO.N,Net-(U38-Q6)*%
X126166450Y-103599100D03*
%TO.N,Net-(U38-Q7)*%
X126166450Y-101059100D03*
%TO.N,GND*%
X126166450Y-98519100D03*
D18*
%TO.N,N/C*%
X126166450Y-95979100D03*
%TD*%
D11*
%TO.N,VCC*%
%TO.C,U51*%
X249317100Y-124172300D03*
%TO.N,GND*%
X249317100Y-126712300D03*
%TO.N,Net-(U51-I0c)*%
X249317100Y-129252300D03*
%TO.N,Net-(U51-I1c)*%
X249317100Y-131792300D03*
%TO.N,Net-(U51-Zc)*%
X249317100Y-134332300D03*
%TO.N,unconnected-(U51-I0d-Pad11)*%
X249317100Y-136872300D03*
%TO.N,unconnected-(U51-I1d-Pad10)*%
X249317100Y-139412300D03*
%TO.N,unconnected-(U51-Zd-Pad9)*%
X249317100Y-141952300D03*
%TO.N,GND*%
X241697100Y-141952300D03*
%TO.N,unconnected-(U51-Zb-Pad7)*%
X241697100Y-139412300D03*
%TO.N,unconnected-(U51-I1b-Pad6)*%
X241697100Y-136872300D03*
%TO.N,unconnected-(U51-I0b-Pad5)*%
X241697100Y-134332300D03*
%TO.N,unconnected-(U51-Za-Pad4)*%
X241697100Y-131792300D03*
%TO.N,unconnected-(U51-I1a-Pad3)*%
X241697100Y-129252300D03*
%TO.N,unconnected-(U51-I0a-Pad2)*%
X241697100Y-126712300D03*
D10*
%TO.N,/MAR/PROG*%
X241697100Y-124172300D03*
%TD*%
D11*
%TO.N,VCC*%
%TO.C,U4*%
X289437100Y-128227300D03*
%TO.N,unconnected-(U4-Pad13)*%
X286897100Y-128227300D03*
%TO.N,unconnected-(U4-Pad12)*%
X284357100Y-128227300D03*
%TO.N,unconnected-(U4-Pad11)*%
X281817100Y-128227300D03*
%TO.N,Net-(U4-Pad10)*%
X279277100Y-128227300D03*
%TO.N,Net-(U4-Pad9)*%
X276737100Y-128227300D03*
%TO.N,CLK*%
X274197100Y-128227300D03*
%TO.N,GND*%
X274197100Y-120607300D03*
%TO.N,Net-(U4-Pad6)*%
X276737100Y-120607300D03*
%TO.N,Net-(U2-Q)*%
X279277100Y-120607300D03*
%TO.N,Net-(U4-Pad4)*%
X281817100Y-120607300D03*
%TO.N,Net-(U4-Pad3)*%
X284357100Y-120607300D03*
%TO.N,Net-(U3-Q)*%
X286897100Y-120607300D03*
D30*
%TO.N,Net-(U1-Q)*%
X289437100Y-120607300D03*
%TD*%
D22*
%TO.N,VCC*%
%TO.C,U38*%
X159317100Y-134632300D03*
%TO.N,Net-(U38-Q7)*%
X159317100Y-137172300D03*
%TO.N,BUS_7*%
X159317100Y-139712300D03*
%TO.N,BUS_6*%
X159317100Y-142252300D03*
%TO.N,Net-(U38-Q6)*%
X159317100Y-144792300D03*
%TO.N,Net-(U38-Q5)*%
X159317100Y-147332300D03*
%TO.N,BUS_5*%
X159317100Y-149872300D03*
%TO.N,BUS_4*%
X159317100Y-152412300D03*
%TO.N,Net-(U38-Q4)*%
X159317100Y-154952300D03*
%TO.N,Net-(U38-Cp)*%
X159317100Y-157492300D03*
%TO.N,GND*%
X151697100Y-157492300D03*
%TO.N,Net-(U38-Q3)*%
X151697100Y-154952300D03*
%TO.N,BUS_3*%
X151697100Y-152412300D03*
%TO.N,BUS_2*%
X151697100Y-149872300D03*
%TO.N,Net-(U38-Q2)*%
X151697100Y-147332300D03*
%TO.N,Net-(U38-Q1)*%
X151697100Y-144792300D03*
%TO.N,BUS_1*%
X151697100Y-142252300D03*
%TO.N,BUS_0*%
X151697100Y-139712300D03*
%TO.N,Net-(U38-Q0)*%
X151697100Y-137172300D03*
D23*
%TO.N,~{CLR}*%
X151697100Y-134632300D03*
%TD*%
D13*
%TO.N,VCC*%
%TO.C,U49*%
X189007100Y-79672300D03*
%TO.N,CLR*%
X189007100Y-77132300D03*
%TO.N,BUS_7*%
X189007100Y-74592300D03*
%TO.N,BUS_6*%
X189007100Y-72052300D03*
%TO.N,BUS_5*%
X189007100Y-69512300D03*
%TO.N,BUS_4*%
X189007100Y-66972300D03*
%TO.N,~{AI}*%
X189007100Y-64432300D03*
X189007100Y-61892300D03*
%TO.N,GND*%
X196627100Y-61892300D03*
%TO.N,CLK*%
X196627100Y-64432300D03*
%TO.N,/ALU/A_4*%
X196627100Y-66972300D03*
%TO.N,/ALU/A_5*%
X196627100Y-69512300D03*
%TO.N,/ALU/A_6*%
X196627100Y-72052300D03*
%TO.N,/ALU/A_7*%
X196627100Y-74592300D03*
%TO.N,GND*%
X196627100Y-77132300D03*
D14*
X196627100Y-79672300D03*
%TD*%
D11*
%TO.N,GND*%
%TO.C,R42*%
X52317100Y-109792300D03*
%TO.N,Net-(D40-K)*%
X52317100Y-117412300D03*
%TD*%
D12*
%TO.N,GND*%
%TO.C,C9*%
X257993900Y-76199100D03*
%TO.N,VCC*%
X255993900Y-76199100D03*
%TD*%
D11*
%TO.N,GND*%
%TO.C,R21*%
X228647100Y-54952300D03*
%TO.N,Net-(D21-K)*%
X228647100Y-47332300D03*
%TD*%
D15*
%TO.N,Net-(D51-A)*%
%TO.C,D51*%
X110147100Y-122412300D03*
D16*
%TO.N,Net-(D51-K)*%
X107607100Y-122412300D03*
%TD*%
D11*
%TO.N,GND*%
%TO.C,R63*%
X114912100Y-73932300D03*
%TO.N,Net-(D61-K)*%
X114912100Y-81552300D03*
%TD*%
%TO.N,GND*%
%TO.C,R76*%
X71017900Y-100787700D03*
%TO.N,BUS_4*%
X63397900Y-100787700D03*
%TD*%
%TO.N,GND*%
%TO.C,R11*%
X252167100Y-117162300D03*
%TO.N,Net-(D12-K)*%
X252167100Y-109542300D03*
%TD*%
D15*
%TO.N,/ALU/B_5*%
%TO.C,D024*%
X326960000Y-78920000D03*
D16*
%TO.N,Net-(D024-K)*%
X324420000Y-78920000D03*
%TD*%
D11*
%TO.N,VCC*%
%TO.C,R56*%
X117412100Y-90932300D03*
%TO.N,Net-(D58-A)*%
X117412100Y-98552300D03*
%TD*%
D15*
%TO.N,/ALU/A_5*%
%TO.C,D4*%
X209027100Y-81162300D03*
D16*
%TO.N,Net-(D4-K)*%
X211567100Y-81162300D03*
%TD*%
D31*
%TO.N,Net-(SW2-C)*%
%TO.C,SW2*%
X302797500Y-149000000D03*
%TO.N,GND*%
X302797500Y-151000000D03*
D32*
%TO.N,Net-(SW2-A)*%
X302797500Y-153000000D03*
D33*
%TO.N,*%
X302797500Y-146900000D03*
X302797500Y-155100000D03*
%TD*%
D11*
%TO.N,GND*%
%TO.C,R79*%
X43620000Y-99500000D03*
%TO.N,BUS_1*%
X36000000Y-99500000D03*
%TD*%
%TO.N,GND*%
%TO.C,R80*%
X43500000Y-104000000D03*
%TO.N,BUS_0*%
X35880000Y-104000000D03*
%TD*%
%TO.N,GND*%
%TO.C,R77*%
X43620000Y-89000000D03*
%TO.N,BUS_3*%
X36000000Y-89000000D03*
%TD*%
%TO.N,GND*%
%TO.C,R78*%
X43620000Y-94157100D03*
%TO.N,BUS_2*%
X36000000Y-94157100D03*
%TD*%
D34*
%TO.N,Net-(U23-\u002AO1)*%
X191918500Y-105667900D03*
%TO.N,Net-(U23-\u002AO2)*%
X193409100Y-108763200D03*
%TO.N,Net-(U21-\u002AWE)*%
X224048000Y-106595000D03*
%TO.N,Net-(U23-D3)*%
X229309200Y-112435600D03*
%TO.N,Net-(U23-D1)*%
X190407300Y-123998300D03*
%TO.N,Net-(U38-Q4)*%
X154729200Y-110656800D03*
%TO.N,Net-(U38-Q5)*%
X152471700Y-107267700D03*
%TO.N,Net-(U38-Q6)*%
X157552900Y-104745000D03*
%TO.N,Net-(U38-Q1)*%
X126732400Y-144678400D03*
%TO.N,Net-(U38-Q3)*%
X129224200Y-153564400D03*
%TO.N,Net-(U38-Q7)*%
X156311200Y-105563500D03*
%TO.N,Net-(U38-Q0)*%
X145507200Y-120586700D03*
%TO.N,Net-(U38-Q2)*%
X148278200Y-115940100D03*
%TO.N,Net-(U34-C)*%
X118450700Y-129551300D03*
%TO.N,Net-(U34-D)*%
X114263400Y-133375200D03*
X97325800Y-144199700D03*
%TO.N,Net-(U34-F)*%
X73348200Y-127424200D03*
%TO.N,Net-(U52-I0b)*%
X207037400Y-122380500D03*
%TO.N,Net-(U31-Q)*%
X130295000Y-153163600D03*
%TO.N,~{II}*%
X209546100Y-50197100D03*
%TO.N,~{IO}*%
X226205300Y-49057500D03*
%TO.N,Net-(U51-I1c)*%
X209378100Y-127171300D03*
%TO.N,Net-(U26-Pad6)*%
X199266700Y-76840700D03*
%TO.N,~{CLR}*%
X174884900Y-127421700D03*
%TO.N,~{RO}*%
X142873200Y-144546300D03*
%TO.N,Net-(U23-D0)*%
X193363700Y-128164400D03*
%TO.N,Net-(U24-Zd)*%
X193440200Y-138215900D03*
%TO.N,Net-(U21-D2)*%
X250915900Y-114217800D03*
%TO.N,Net-(U21-D1)*%
X173928300Y-122301800D03*
X250293200Y-121473200D03*
%TO.N,BUS_7*%
X244378800Y-65834400D03*
%TO.N,BUS_6*%
X215691200Y-83170900D03*
X214086700Y-74567500D03*
X180196200Y-71930100D03*
%TO.N,BUS_4*%
X160230000Y-68815700D03*
X220248800Y-92097900D03*
%TO.N,~{EO}*%
X150362700Y-85790000D03*
%TO.N,Net-(U14-B1)*%
X289786000Y-68666700D03*
%TO.N,Net-(U13-B3)*%
X282187300Y-61043200D03*
%TO.N,Net-(U10-Pad2)*%
X272969100Y-51866900D03*
%TO.N,Net-(U10-Pad10)*%
X297770000Y-77638000D03*
%TO.N,Net-(U10-Pad1)*%
X295652400Y-76050200D03*
%TO.N,Net-(U10-Pad9)*%
X301271300Y-70811700D03*
%TO.N,~{BI}*%
X142279300Y-94248000D03*
%TO.N,CLR*%
X207825400Y-76840700D03*
X309577400Y-99965600D03*
X240751500Y-97240200D03*
%TO.N,Net-(U21-D3)*%
X181247400Y-122681400D03*
X229202600Y-123429600D03*
%TO.N,Net-(U23-D2)*%
X222478900Y-117997800D03*
%TO.N,Net-(U21-D0)*%
X188265400Y-139125600D03*
%TO.N,~{CLK}*%
X251006900Y-55180900D03*
%TO.N,Net-(U24-Za)*%
X226011400Y-129144600D03*
%TO.N,Net-(U4-Pad6)*%
X279509000Y-141407800D03*
%TO.N,Net-(U4-Pad9)*%
X277157800Y-145277200D03*
%TO.N,Net-(U4-Pad3)*%
X310127000Y-127424200D03*
%TO.N,Net-(U3-Q)*%
X290197400Y-142639300D03*
%TO.N,Net-(U2-Q)*%
X280155000Y-139326200D03*
%TO.N,Net-(U24-I0d)*%
X179049500Y-141374400D03*
%TO.N,Net-(R64-Pad1)*%
X97831600Y-112959500D03*
%TO.N,Net-(U31-DIS)*%
X127765500Y-150909500D03*
X131182900Y-129928900D03*
%TO.N,Net-(U1-DIS)*%
X303126300Y-120599700D03*
%TO.N,Net-(D117-A)*%
X185080000Y-47116700D03*
%TO.N,IR_5*%
X137202100Y-42709100D03*
X171085000Y-49759800D03*
%TO.N,BUS_3*%
X178250200Y-151142300D03*
X148063000Y-68129500D03*
X171488100Y-46544300D03*
X268580500Y-70358900D03*
%TO.N,BUS_2*%
X162412800Y-79816200D03*
X270618300Y-73230800D03*
X174250500Y-47146000D03*
%TO.N,BUS_1*%
X166243600Y-82760400D03*
X187757100Y-64214800D03*
X186812900Y-142636600D03*
X279094700Y-68433200D03*
%TO.N,BUS_0*%
X190557500Y-66182500D03*
X145338400Y-106209300D03*
X278894600Y-67120200D03*
X171843100Y-88330000D03*
%TO.N,Net-(D53-A)*%
X109972400Y-42056600D03*
%TO.N,Net-(D52-A)*%
X112535100Y-41795900D03*
%TO.N,Net-(D51-A)*%
X136130900Y-56698800D03*
%TO.N,OI*%
X111553200Y-97032400D03*
%TO.N,SU*%
X94328600Y-58987700D03*
X275068100Y-60007700D03*
%TO.N,Net-(D46-A)*%
X85022100Y-59928100D03*
%TO.N,Net-(D44-A)*%
X76012000Y-119809900D03*
%TO.N,Net-(D43-A)*%
X89638600Y-120992200D03*
X88624900Y-106484200D03*
%TO.N,Net-(D42-A)*%
X70351000Y-67914200D03*
%TO.N,Net-(D41-A)*%
X67353800Y-64938700D03*
X128553500Y-60985700D03*
%TO.N,RI*%
X55365000Y-61963200D03*
X198193800Y-63840500D03*
%TO.N,Net-(D39-A)*%
X128076400Y-55906100D03*
X54531600Y-61135300D03*
%TO.N,HLT*%
X46373400Y-58987700D03*
X244377200Y-58603300D03*
%TO.N,/ALU/B_1*%
X292142200Y-88981400D03*
%TO.N,/ALU/B_4*%
X297154800Y-76349000D03*
%TO.N,/ALU/B_5*%
X301974000Y-74295700D03*
%TO.N,/MAR/A0*%
X238194200Y-100644700D03*
%TO.N,/MAR/A1*%
X234067400Y-101647200D03*
%TO.N,/MAR/A2*%
X196120700Y-44508900D03*
%TO.N,/MAR/A3*%
X198397200Y-44172700D03*
%TO.N,Net-(D17-A)*%
X292142200Y-80237000D03*
%TO.N,Net-(D16-A)*%
X295652400Y-82791700D03*
%TO.N,Net-(D12-A)*%
X280437800Y-74185800D03*
%TO.N,Net-(D11-A)*%
X282497300Y-71415800D03*
%TO.N,/ALU/A_0*%
X230153700Y-69895900D03*
%TO.N,/ALU/A_1*%
X286701000Y-62555400D03*
%TO.N,/ALU/A_2*%
X292143800Y-67914200D03*
%TO.N,/ALU/A_3*%
X250183000Y-56539000D03*
%TO.N,/ALU/A_4*%
X210964000Y-58603300D03*
X210616800Y-67587200D03*
%TO.N,/ALU/A_5*%
X214216600Y-56030000D03*
%TO.N,/ALU/A_6*%
X279835400Y-72498700D03*
%TO.N,Net-(U31-THR)*%
X123854900Y-153649100D03*
X154272600Y-154203700D03*
%TO.N,CLK*%
X263868800Y-95579700D03*
%TO.N,Net-(C14-Pad2)*%
X262171800Y-112546700D03*
%TO.N,BUS_5*%
X162195000Y-76879500D03*
X199913000Y-133419800D03*
X162767400Y-69651200D03*
X217587100Y-79295400D03*
%TO.N,Net-(U1-THR)*%
X301469500Y-120773900D03*
%TO.N,Net-(U2-CV)*%
X279509000Y-147942600D03*
%TO.N,VCC*%
X32500000Y-107500000D03*
X31000000Y-114000000D03*
X27500000Y-109000000D03*
X27500000Y-112500000D03*
X301575900Y-118287400D03*
X123792700Y-150909500D03*
X279509000Y-142301700D03*
X286210400Y-148304200D03*
X285407500Y-147450500D03*
X292130900Y-122054100D03*
%TO.N,GND*%
X31000000Y-103500000D03*
X31000000Y-104500000D03*
X31000000Y-106000000D03*
X31500000Y-107000000D03*
X32500000Y-114500000D03*
X31500000Y-115500000D03*
X31000000Y-116500000D03*
X31500000Y-118000000D03*
X26500000Y-115000000D03*
X20500000Y-104000000D03*
X24500000Y-104500000D03*
X26500000Y-106500000D03*
X26500000Y-108000000D03*
X26500000Y-113500000D03*
X24500000Y-116500000D03*
X20500000Y-116500000D03*
X285694600Y-142301700D03*
X292130900Y-118497700D03*
X122260200Y-150307600D03*
X289606500Y-144014600D03*
X292550500Y-147885100D03*
%TD*%
D35*
%TO.N,Net-(U23-\u002AO2)*%
X217624700Y-107865000D02*
X223657400Y-107865000D01*
X216655800Y-108833900D02*
X217624700Y-107865000D01*
X193479800Y-108833900D02*
X216655800Y-108833900D01*
X193409100Y-108763200D02*
X193479800Y-108833900D01*
%TO.N,Net-(U21-\u002AO3)*%
X220146300Y-114513900D02*
X223657400Y-118025000D01*
X203941000Y-114513900D02*
X220146300Y-114513900D01*
X202064700Y-112637600D02*
X203941000Y-114513900D01*
X178987400Y-112637600D02*
X202064700Y-112637600D01*
X178315000Y-113310000D02*
X178987400Y-112637600D01*
%TO.N,Net-(U21-\u002AO0)*%
X214138600Y-106274400D02*
X215088000Y-105325000D01*
X192057900Y-106274400D02*
X214138600Y-106274400D01*
X190730800Y-107601500D02*
X192057900Y-106274400D01*
X180783400Y-107601500D02*
X190730800Y-107601500D01*
X178884900Y-109500000D02*
X180783400Y-107601500D01*
X171965000Y-109500000D02*
X178884900Y-109500000D01*
X170695000Y-110770000D02*
X171965000Y-109500000D01*
X216037400Y-105325000D02*
X215088000Y-105325000D01*
%TO.N,Net-(U21-\u002AO2)*%
X214767400Y-116755000D02*
X216037400Y-115485000D01*
X191737300Y-116755000D02*
X214767400Y-116755000D01*
X190730800Y-117761500D02*
X191737300Y-116755000D01*
X178943500Y-117761500D02*
X190730800Y-117761500D01*
X178315000Y-118390000D02*
X178943500Y-117761500D01*
%TO.N,Net-(U52-Zd)*%
X230077100Y-143437300D02*
X235147100Y-138367300D01*
X213597100Y-143437300D02*
X230077100Y-143437300D01*
%TO.N,Net-(U21-\u002AWE)*%
X182021300Y-106863700D02*
X182695000Y-106190000D01*
X171868700Y-106863700D02*
X182021300Y-106863700D01*
X170695000Y-105690000D02*
X171868700Y-106863700D01*
X223432000Y-106595000D02*
X224048000Y-106595000D01*
X221212600Y-104375600D02*
X223432000Y-106595000D01*
X204688900Y-104375600D02*
X221212600Y-104375600D01*
X204003000Y-105061500D02*
X204688900Y-104375600D01*
X183823500Y-105061500D02*
X204003000Y-105061500D01*
X182695000Y-106190000D02*
X183823500Y-105061500D01*
%TO.N,Net-(U23-D3)*%
X227832600Y-113912200D02*
X229309200Y-112435600D01*
X204126700Y-113912200D02*
X227832600Y-113912200D01*
X201484500Y-111270000D02*
X204126700Y-113912200D01*
X190315000Y-111270000D02*
X201484500Y-111270000D01*
%TO.N,Net-(U52-I0a)*%
X174384900Y-125632300D02*
X169197100Y-125632300D01*
X175575700Y-126823100D02*
X174384900Y-125632300D01*
X192891100Y-126823100D02*
X175575700Y-126823100D01*
X194265300Y-128197300D02*
X192891100Y-126823100D01*
X205977100Y-128197300D02*
X194265300Y-128197300D01*
%TO.N,Net-(U38-Q5)*%
X127295100Y-107267700D02*
X126166500Y-106139100D01*
X152471700Y-107267700D02*
X127295100Y-107267700D01*
%TO.N,Net-(U38-Q6)*%
X157552900Y-104584000D02*
X157552900Y-104745000D01*
X155819600Y-102850700D02*
X157552900Y-104584000D01*
X155445300Y-102850700D02*
X155819600Y-102850700D01*
X155129300Y-102534700D02*
X155445300Y-102850700D01*
X127230900Y-102534700D02*
X155129300Y-102534700D01*
X126166500Y-103599100D02*
X127230900Y-102534700D01*
%TO.N,Net-(U38-Q0)*%
X145153400Y-120232900D02*
X145507200Y-120586700D01*
X127560300Y-120232900D02*
X145153400Y-120232900D01*
X126166500Y-118839100D02*
X127560300Y-120232900D01*
%TO.N,Net-(U38-Q2)*%
X127647200Y-115239800D02*
X126166500Y-113759100D01*
X147577900Y-115239800D02*
X127647200Y-115239800D01*
X148278200Y-115940100D02*
X147577900Y-115239800D01*
%TO.N,Net-(U34-B)*%
X135004000Y-130639100D02*
X119896400Y-130639100D01*
X141724000Y-123919100D02*
X135004000Y-130639100D01*
%TO.N,Net-(U34-DP)*%
X79250900Y-144374600D02*
X77746400Y-145879100D01*
X91461000Y-144374600D02*
X79250900Y-144374600D01*
X91796400Y-144710000D02*
X91461000Y-144374600D01*
X91796400Y-145879100D02*
X91796400Y-144710000D01*
X104677300Y-144710000D02*
X105846400Y-145879100D01*
X97666400Y-144710000D02*
X104677300Y-144710000D01*
X97575000Y-144801400D02*
X97666400Y-144710000D01*
X97076700Y-144801400D02*
X97575000Y-144801400D01*
X96985300Y-144710000D02*
X97076700Y-144801400D01*
X91796400Y-144710000D02*
X96985300Y-144710000D01*
%TO.N,Net-(U34-C)*%
X88153500Y-146982000D02*
X89256400Y-145879100D01*
X76309300Y-146982000D02*
X88153500Y-146982000D01*
X75206400Y-145879100D02*
X76309300Y-146982000D01*
X102918100Y-147383700D02*
X103306400Y-146995400D01*
X90761000Y-147383700D02*
X102918100Y-147383700D01*
X89256400Y-145879100D02*
X90761000Y-147383700D01*
X112737600Y-146995400D02*
X103306400Y-146995400D01*
X113546400Y-146186600D02*
X112737600Y-146995400D01*
X113546400Y-145570000D02*
X113546400Y-146186600D01*
X114340400Y-144776000D02*
X113546400Y-145570000D01*
X116253300Y-144776000D02*
X114340400Y-144776000D01*
X117356400Y-145879100D02*
X116253300Y-144776000D01*
X103306400Y-146995400D02*
X103306400Y-145879100D01*
%TO.N,Net-(U34-G)*%
X80510600Y-129513300D02*
X81636400Y-130639100D01*
X68712200Y-129513300D02*
X80510600Y-129513300D01*
X67586400Y-130639100D02*
X68712200Y-129513300D01*
X96793600Y-131746300D02*
X95686400Y-130639100D01*
X108629200Y-131746300D02*
X96793600Y-131746300D01*
X109736400Y-130639100D02*
X108629200Y-131746300D01*
X94527300Y-131798200D02*
X95686400Y-130639100D01*
X82795500Y-131798200D02*
X94527300Y-131798200D01*
X81636400Y-130639100D02*
X82795500Y-131798200D01*
%TO.N,Net-(U34-D)*%
X85279200Y-144776300D02*
X84176400Y-145879100D01*
X89711700Y-144776300D02*
X85279200Y-144776300D01*
X90358100Y-145422700D02*
X89711700Y-144776300D01*
X90358100Y-146040400D02*
X90358100Y-145422700D01*
X91299700Y-146982000D02*
X90358100Y-146040400D01*
X97123500Y-146982000D02*
X91299700Y-146982000D01*
X98226400Y-145879100D02*
X97123500Y-146982000D01*
X115776600Y-131862000D02*
X114263400Y-133375200D01*
X138861100Y-131862000D02*
X115776600Y-131862000D01*
X141724000Y-128999100D02*
X138861100Y-131862000D01*
X110597000Y-144199700D02*
X112276400Y-145879100D01*
X97325800Y-144199700D02*
X110597000Y-144199700D01*
%TO.N,Net-(U34-F)*%
X98226400Y-130639100D02*
X98226400Y-129535800D01*
X111173100Y-129535800D02*
X98226400Y-129535800D01*
X112276400Y-130639100D02*
X111173100Y-129535800D01*
X118996400Y-123919100D02*
X112276400Y-130639100D01*
X126166500Y-123919100D02*
X118996400Y-123919100D01*
X85279700Y-129535800D02*
X98226400Y-129535800D01*
X84176400Y-130639100D02*
X85279700Y-129535800D01*
X80961500Y-127424200D02*
X73348200Y-127424200D01*
X84176400Y-130639100D02*
X80961500Y-127424200D01*
%TO.N,Net-(U33A-O3)*%
X74968900Y-148181600D02*
X72666400Y-145879100D01*
X140036400Y-148181600D02*
X74968900Y-148181600D01*
X141163900Y-149309100D02*
X140036400Y-148181600D01*
%TO.N,Net-(U33A-O1)*%
X115919300Y-146982000D02*
X114816400Y-145879100D01*
X120351600Y-146982000D02*
X115919300Y-146982000D01*
X121666200Y-145667400D02*
X120351600Y-146982000D01*
X139725600Y-145667400D02*
X121666200Y-145667400D01*
X141163900Y-144229100D02*
X139725600Y-145667400D01*
%TO.N,~{II}*%
X161140000Y-55420000D02*
X163680000Y-55420000D01*
X192287600Y-50197100D02*
X209546100Y-50197100D01*
X190290100Y-52194600D02*
X192287600Y-50197100D01*
X190290100Y-53011100D02*
X190290100Y-52194600D01*
X189036200Y-54265000D02*
X190290100Y-53011100D01*
X164835000Y-54265000D02*
X189036200Y-54265000D01*
X163680000Y-55420000D02*
X164835000Y-54265000D01*
%TO.N,~{IO}*%
X222270000Y-49057500D02*
X226205300Y-49057500D01*
X220961600Y-47749100D02*
X222270000Y-49057500D01*
X173749100Y-47749100D02*
X220961600Y-47749100D01*
X171110000Y-45110000D02*
X173749100Y-47749100D01*
%TO.N,Net-(U51-I1c)*%
X209455200Y-127094200D02*
X209378100Y-127171300D01*
X238173400Y-127094200D02*
X209455200Y-127094200D01*
X239203000Y-128123800D02*
X238173400Y-127094200D01*
X245648600Y-128123800D02*
X239203000Y-128123800D01*
X249317100Y-131792300D02*
X245648600Y-128123800D01*
%TO.N,Net-(U26-Pad6)*%
X198027100Y-75601100D02*
X199266700Y-76840700D01*
X123758000Y-75601100D02*
X198027100Y-75601100D01*
X119923000Y-71766100D02*
X123758000Y-75601100D01*
X74953900Y-71766100D02*
X119923000Y-71766100D01*
X74000000Y-72720000D02*
X74953900Y-71766100D01*
%TO.N,Net-(U42-O5)*%
X204915100Y-114938500D02*
X205461600Y-115485000D01*
X179943500Y-114938500D02*
X204915100Y-114938500D01*
X179443400Y-114438400D02*
X179943500Y-114938500D01*
X144662600Y-114438400D02*
X179443400Y-114438400D01*
X142713300Y-112489100D02*
X144662600Y-114438400D01*
X129262600Y-112489100D02*
X142713300Y-112489100D01*
X126722600Y-109949100D02*
X129262600Y-112489100D01*
X124239800Y-109949100D02*
X126722600Y-109949100D01*
X122050800Y-107760100D02*
X124239800Y-109949100D01*
X85160100Y-107760100D02*
X122050800Y-107760100D01*
X81740000Y-104340000D02*
X85160100Y-107760100D01*
%TO.N,~{CLR}*%
X210541600Y-112945000D02*
X205461600Y-112945000D01*
X213081600Y-110405000D02*
X210541600Y-112945000D01*
%TO.N,~{RO}*%
X189130200Y-145130200D02*
X190300000Y-146300000D01*
X179518700Y-145130200D02*
X189130200Y-145130200D01*
X178674700Y-145974200D02*
X179518700Y-145130200D01*
X150220200Y-145974200D02*
X178674700Y-145974200D01*
X149603500Y-145357500D02*
X150220200Y-145974200D01*
X143684400Y-145357500D02*
X149603500Y-145357500D01*
X142873200Y-144546300D02*
X143684400Y-145357500D01*
%TO.N,Net-(U24-Zd)*%
X233877100Y-129477300D02*
X235147100Y-128207300D01*
X226529600Y-129477300D02*
X233877100Y-129477300D01*
X224141200Y-131865700D02*
X226529600Y-129477300D01*
X205578500Y-131865700D02*
X224141200Y-131865700D01*
X204181900Y-133262300D02*
X205578500Y-131865700D01*
X201370100Y-133262300D02*
X204181900Y-133262300D01*
X196416500Y-138215900D02*
X201370100Y-133262300D01*
X193440200Y-138215900D02*
X196416500Y-138215900D01*
%TO.N,Net-(U21-D1)*%
X174150400Y-122079700D02*
X173928300Y-122301800D01*
X206487400Y-122079700D02*
X174150400Y-122079700D01*
X206788300Y-121778800D02*
X206487400Y-122079700D01*
X207286600Y-121778800D02*
X206788300Y-121778800D01*
X207587500Y-122079700D02*
X207286600Y-121778800D01*
X249686700Y-122079700D02*
X207587500Y-122079700D01*
X250293200Y-121473200D02*
X249686700Y-122079700D01*
%TO.N,Net-(U24-Zb)*%
X223727100Y-134547300D02*
X227527100Y-130747300D01*
X204639000Y-134547300D02*
X223727100Y-134547300D01*
X203369000Y-135817300D02*
X204639000Y-134547300D01*
X201307800Y-135817300D02*
X203369000Y-135817300D01*
X196411100Y-140714000D02*
X201307800Y-135817300D01*
X194360800Y-140714000D02*
X196411100Y-140714000D01*
X193410000Y-139763200D02*
X194360800Y-140714000D01*
X185551200Y-139763200D02*
X193410000Y-139763200D01*
X184417100Y-140897300D02*
X185551200Y-139763200D01*
%TO.N,BUS_7*%
X207457100Y-68242300D02*
X189992800Y-68242300D01*
X211037100Y-64662300D02*
X207457100Y-68242300D01*
X189992800Y-73606600D02*
X189992800Y-68242300D01*
X189007100Y-74592300D02*
X189992800Y-73606600D01*
X170266600Y-64546600D02*
X168760000Y-63040000D01*
X171312800Y-64546600D02*
X170266600Y-64546600D01*
X172930100Y-66163900D02*
X171312800Y-64546600D01*
X172930100Y-66423300D02*
X172930100Y-66163900D01*
X174749100Y-68242300D02*
X172930100Y-66423300D01*
X189992800Y-68242300D02*
X174749100Y-68242300D01*
X167557300Y-61837300D02*
X168760000Y-63040000D01*
X160730700Y-61837300D02*
X167557300Y-61837300D01*
X159579000Y-62989000D02*
X160730700Y-61837300D01*
X128821000Y-62989000D02*
X159579000Y-62989000D01*
X123405700Y-68404300D02*
X128821000Y-62989000D01*
X71398100Y-68404300D02*
X123405700Y-68404300D01*
X70692400Y-69110000D02*
X71398100Y-68404300D01*
X58500000Y-69110000D02*
X70692400Y-69110000D01*
%TO.N,BUS_6*%
X166220000Y-63040000D02*
X166220000Y-64275000D01*
X142557100Y-64275000D02*
X166220000Y-64275000D01*
X141230500Y-65601600D02*
X142557100Y-64275000D01*
X140640200Y-65601600D02*
X141230500Y-65601600D01*
X137349300Y-68892500D02*
X140640200Y-65601600D01*
X71678100Y-68892500D02*
X137349300Y-68892500D01*
X66460600Y-74110000D02*
X71678100Y-68892500D01*
X58500000Y-74110000D02*
X66460600Y-74110000D01*
X202123000Y-138357300D02*
X205977100Y-138357300D01*
X194780200Y-145700100D02*
X202123000Y-138357300D01*
X194780200Y-145700100D02*
X195380000Y-146300000D01*
X260357100Y-88774700D02*
X260357100Y-90792300D01*
X221295000Y-88774700D02*
X215691200Y-83170900D01*
X260357100Y-88774700D02*
X221295000Y-88774700D01*
X260752100Y-88379700D02*
X260357100Y-88774700D01*
X314109700Y-88379700D02*
X260752100Y-88379700D01*
X317030000Y-91300000D02*
X314109700Y-88379700D01*
X180318400Y-72052300D02*
X180196200Y-71930100D01*
X189007100Y-72052300D02*
X180318400Y-72052300D01*
X168472700Y-64275000D02*
X166220000Y-64275000D01*
X170390000Y-66192300D02*
X168472700Y-64275000D01*
X170390000Y-66456200D02*
X170390000Y-66192300D01*
X175863900Y-71930100D02*
X170390000Y-66456200D01*
X180196200Y-71930100D02*
X175863900Y-71930100D01*
X160317000Y-143252200D02*
X159317100Y-142252300D01*
X160319100Y-143252200D02*
X160317000Y-143252200D01*
X161652900Y-144586000D02*
X160319100Y-143252200D01*
X193661200Y-144586000D02*
X161652900Y-144586000D01*
X193800200Y-144725000D02*
X193661200Y-144586000D01*
X193805000Y-144725000D02*
X193800200Y-144725000D01*
X194780200Y-145700100D02*
X193805000Y-144725000D01*
%TO.N,BUS_4*%
X212327100Y-142167300D02*
X213597100Y-140897300D01*
X204592700Y-142167300D02*
X212327100Y-142167300D01*
X200460000Y-146300000D02*
X204592700Y-142167300D01*
X217480200Y-63485400D02*
X218657100Y-64662300D01*
X199399800Y-63485400D02*
X217480200Y-63485400D01*
X197182900Y-65702300D02*
X199399800Y-63485400D01*
X195923000Y-65702300D02*
X197182900Y-65702300D01*
X194653000Y-66972300D02*
X195923000Y-65702300D01*
X189007100Y-66972300D02*
X194653000Y-66972300D01*
X310233100Y-89583100D02*
X311950000Y-91300000D01*
X291893100Y-89583100D02*
X310233100Y-89583100D01*
X291540500Y-89230500D02*
X291893100Y-89583100D01*
X291540500Y-89228800D02*
X291540500Y-89230500D01*
X291499900Y-89188200D02*
X291540500Y-89228800D01*
X267041200Y-89188200D02*
X291499900Y-89188200D01*
X265437100Y-90792300D02*
X267041200Y-89188200D01*
X264131500Y-92097900D02*
X220248800Y-92097900D01*
X265437100Y-90792300D02*
X264131500Y-92097900D01*
%TO.N,/MAR/PROG*%
X219800000Y-36540000D02*
X222340000Y-36540000D01*
X229960000Y-36540000D02*
X232500000Y-36540000D01*
X227420000Y-28920000D02*
X224880000Y-28920000D01*
X235040000Y-28920000D02*
X232500000Y-28920000D01*
X205977100Y-125657300D02*
X205977100Y-124539000D01*
X224880000Y-36540000D02*
X222340000Y-36540000D01*
X206343800Y-124172300D02*
X205977100Y-124539000D01*
X241697100Y-124172300D02*
X206343800Y-124172300D01*
X267170000Y-37710000D02*
X269000000Y-35880000D01*
X264500000Y-37710000D02*
X267170000Y-37710000D01*
X259420000Y-37710000D02*
X264500000Y-37710000D01*
X256880000Y-35170000D02*
X259420000Y-37710000D01*
X190717500Y-124539000D02*
X205977100Y-124539000D01*
X189599200Y-125657300D02*
X190717500Y-124539000D01*
X184417100Y-125657300D02*
X189599200Y-125657300D01*
%TO.N,Net-(U10-Pad10)*%
X275738400Y-79070000D02*
X274468400Y-80340000D01*
X296338000Y-79070000D02*
X275738400Y-79070000D01*
X297770000Y-77638000D02*
X296338000Y-79070000D01*
%TO.N,Net-(U10-Pad1)*%
X295315200Y-76387400D02*
X295652400Y-76050200D01*
X268261000Y-76387400D02*
X295315200Y-76387400D01*
X266848400Y-77800000D02*
X268261000Y-76387400D01*
%TO.N,~{BI}*%
X314800000Y-101420000D02*
X317340000Y-101420000D01*
X293090000Y-101550000D02*
X295630000Y-101550000D01*
X313979100Y-100599100D02*
X314800000Y-101420000D01*
X296580900Y-100599100D02*
X313979100Y-100599100D01*
X295630000Y-101550000D02*
X296580900Y-100599100D01*
X142663800Y-94632500D02*
X142279300Y-94248000D01*
X233876200Y-94632500D02*
X142663800Y-94632500D01*
X240793700Y-101550000D02*
X233876200Y-94632500D01*
X293090000Y-101550000D02*
X240793700Y-101550000D01*
%TO.N,CLR*%
X272649300Y-47079300D02*
X273780000Y-48210000D01*
X257880700Y-47079300D02*
X272649300Y-47079300D01*
X256147400Y-48812600D02*
X257880700Y-47079300D01*
X227301200Y-48812600D02*
X256147400Y-48812600D01*
X226454500Y-49659300D02*
X227301200Y-48812600D01*
X214530100Y-49659300D02*
X226454500Y-49659300D01*
X213766500Y-50422900D02*
X214530100Y-49659300D01*
X212390300Y-50422900D02*
X213766500Y-50422900D01*
X211440900Y-51372300D02*
X212390300Y-50422900D01*
X205197100Y-51372300D02*
X211440900Y-51372300D01*
X243476900Y-99965600D02*
X240751500Y-97240200D01*
X309577400Y-99965600D02*
X243476900Y-99965600D01*
%TO.N,Net-(U52-Zb)*%
X209777100Y-137097300D02*
X205977100Y-140897300D01*
X237175900Y-137097300D02*
X209777100Y-137097300D01*
X238670900Y-135602300D02*
X237175900Y-137097300D01*
X250833300Y-135602300D02*
X238670900Y-135602300D01*
X251897200Y-134538400D02*
X250833300Y-135602300D01*
X253616900Y-134538400D02*
X251897200Y-134538400D01*
X254261100Y-133894200D02*
X253616900Y-134538400D01*
X254261100Y-132001100D02*
X254261100Y-133894200D01*
X253130000Y-130870000D02*
X254261100Y-132001100D01*
%TO.N,Net-(U21-D3)*%
X228755200Y-122982200D02*
X229202600Y-123429600D01*
X181548200Y-122982200D02*
X228755200Y-122982200D01*
X181247400Y-122681400D02*
X181548200Y-122982200D01*
%TO.N,~{CLK}*%
X242505200Y-55180900D02*
X251006900Y-55180900D01*
X240977900Y-56708200D02*
X242505200Y-55180900D01*
X159701200Y-56708200D02*
X240977900Y-56708200D01*
X156363700Y-53370700D02*
X159701200Y-56708200D01*
X88690500Y-53370700D02*
X156363700Y-53370700D01*
X84032100Y-48712300D02*
X88690500Y-53370700D01*
%TO.N,Net-(U24-Za)*%
X225830300Y-129325700D02*
X226011400Y-129144600D01*
X204790400Y-129325700D02*
X225830300Y-129325700D01*
X203225700Y-130890400D02*
X204790400Y-129325700D01*
X193898000Y-130890400D02*
X203225700Y-130890400D01*
X192612800Y-132175600D02*
X193898000Y-130890400D01*
X185518800Y-132175600D02*
X192612800Y-132175600D01*
X184417100Y-133277300D02*
X185518800Y-132175600D01*
%TO.N,Net-(U4-Pad4)*%
X254400000Y-127060000D02*
X253130000Y-128330000D01*
X275364400Y-127060000D02*
X254400000Y-127060000D01*
X281817100Y-120607300D02*
X275364400Y-127060000D01*
%TO.N,Net-(U4-Pad3)*%
X308219000Y-125516200D02*
X310127000Y-127424200D01*
X289266000Y-125516200D02*
X308219000Y-125516200D01*
X284357100Y-120607300D02*
X289266000Y-125516200D01*
%TO.N,Net-(U51-I0c)*%
X242317100Y-145427300D02*
X248817100Y-145427300D01*
%TO.N,Net-(U24-I0b)*%
X170511300Y-137018100D02*
X169197100Y-138332300D01*
X183216300Y-137018100D02*
X170511300Y-137018100D01*
X184417100Y-135817300D02*
X183216300Y-137018100D01*
%TO.N,Net-(U24-I0d)*%
X180964900Y-139459000D02*
X179049500Y-141374400D01*
X185223900Y-139459000D02*
X180964900Y-139459000D01*
X186325600Y-138357300D02*
X185223900Y-139459000D01*
X192037100Y-138357300D02*
X186325600Y-138357300D01*
%TO.N,Net-(R64-Pad1)*%
X91750000Y-70250000D02*
X85250000Y-70250000D01*
%TO.N,Net-(SW2-A)*%
X295714800Y-153000000D02*
X292567100Y-149852300D01*
X302797500Y-153000000D02*
X295714800Y-153000000D01*
%TO.N,Net-(U2-TR)*%
X289567100Y-135662300D02*
X283067100Y-135662300D01*
%TO.N,Net-(R2-Pad2)*%
X317205000Y-111500000D02*
X317165000Y-111540000D01*
X320775000Y-111500000D02*
X317205000Y-111500000D01*
%TO.N,Net-(D119-A)*%
X211524800Y-39920000D02*
X195000000Y-39920000D01*
X212817100Y-41212300D02*
X211524800Y-39920000D01*
%TO.N,Net-(D117-A)*%
X211815600Y-47293800D02*
X212817100Y-46292300D01*
X185257100Y-47293800D02*
X211815600Y-47293800D01*
X185080000Y-47116700D02*
X185257100Y-47293800D01*
%TO.N,Net-(D116-A)*%
X191824600Y-49795400D02*
X188890000Y-52730000D01*
X208301000Y-49795400D02*
X191824600Y-49795400D01*
X209264100Y-48832300D02*
X208301000Y-49795400D01*
X212817100Y-48832300D02*
X209264100Y-48832300D01*
%TO.N,IR_4*%
X109712600Y-48570000D02*
X108442600Y-47300000D01*
X166950000Y-48570000D02*
X109712600Y-48570000D01*
X171110000Y-52730000D02*
X166950000Y-48570000D01*
%TO.N,IR_5*%
X132767200Y-42709100D02*
X137202100Y-42709100D01*
X131986300Y-43490000D02*
X132767200Y-42709100D01*
X109712600Y-43490000D02*
X131986300Y-43490000D01*
X108442600Y-44760000D02*
X109712600Y-43490000D01*
%TO.N,IR_7*%
X109485000Y-40722400D02*
X108442600Y-39680000D01*
X128519300Y-40722400D02*
X109485000Y-40722400D01*
X128688800Y-40552900D02*
X128519300Y-40722400D01*
X140755400Y-40552900D02*
X128688800Y-40552900D01*
X141324200Y-41121700D02*
X140755400Y-40552900D01*
X158838300Y-41121700D02*
X141324200Y-41121700D01*
X160040000Y-39920000D02*
X158838300Y-41121700D01*
X169278100Y-49158100D02*
X160040000Y-39920000D01*
X175158100Y-49158100D02*
X169278100Y-49158100D01*
X178730000Y-52730000D02*
X175158100Y-49158100D01*
%TO.N,Net-(D69-K)*%
X57291200Y-71657100D02*
X57298300Y-71650000D01*
X53667700Y-71657100D02*
X57291200Y-71657100D01*
X58500000Y-71650000D02*
X57298300Y-71650000D01*
%TO.N,Net-(D68-K)*%
X54174800Y-76650000D02*
X53667700Y-77157100D01*
X58500000Y-76650000D02*
X54174800Y-76650000D01*
%TO.N,Net-(D67-K)*%
X57265400Y-81657100D02*
X57298300Y-81690000D01*
X53667700Y-81657100D02*
X57265400Y-81657100D01*
X58500000Y-81690000D02*
X57298300Y-81690000D01*
%TO.N,Net-(D66-K)*%
X54160600Y-86650000D02*
X53667700Y-86157100D01*
X58500000Y-86650000D02*
X54160600Y-86650000D01*
%TO.N,BUS_3*%
X152967100Y-151142300D02*
X178250200Y-151142300D01*
X151697100Y-152412300D02*
X152967100Y-151142300D01*
X198157700Y-151142300D02*
X203000000Y-146300000D01*
X178250200Y-151142300D02*
X198157700Y-151142300D01*
X162210500Y-68129500D02*
X148063000Y-68129500D01*
X164040000Y-66300000D02*
X162210500Y-68129500D01*
X239896500Y-73082900D02*
X238947100Y-74032300D01*
X265142900Y-73082900D02*
X239896500Y-73082900D01*
X266455200Y-71770600D02*
X265142900Y-73082900D01*
X267168800Y-71770600D02*
X266455200Y-71770600D01*
X268580500Y-70358900D02*
X267168800Y-71770600D01*
%TO.N,BUS_2*%
X141452100Y-83957900D02*
X143430000Y-81980000D01*
X101282800Y-83957900D02*
X141452100Y-83957900D01*
X97806600Y-87434100D02*
X101282800Y-83957900D01*
X77508000Y-87434100D02*
X97806600Y-87434100D01*
X74892700Y-90049400D02*
X77508000Y-87434100D01*
X62600600Y-90049400D02*
X74892700Y-90049400D01*
X58500000Y-94150000D02*
X62600600Y-90049400D01*
X184199900Y-47146000D02*
X174250500Y-47146000D01*
X186235900Y-45110000D02*
X184199900Y-47146000D01*
X186350000Y-45110000D02*
X186235900Y-45110000D01*
X305554800Y-89984800D02*
X306870000Y-91300000D01*
X291726800Y-89984800D02*
X305554800Y-89984800D01*
X291337100Y-89595100D02*
X291726800Y-89984800D01*
X271714300Y-89595100D02*
X291337100Y-89595100D01*
X270517100Y-90792300D02*
X271714300Y-89595100D01*
%TO.N,Net-(D64-K)*%
X53700600Y-96690000D02*
X53667700Y-96657100D01*
X58500000Y-96690000D02*
X53700600Y-96690000D01*
%TO.N,BUS_1*%
X152497900Y-82760400D02*
X166243600Y-82760400D01*
X152008200Y-83250100D02*
X152497900Y-82760400D01*
X144699900Y-83250100D02*
X152008200Y-83250100D01*
X143430000Y-84520000D02*
X144699900Y-83250100D01*
X274726800Y-92462000D02*
X294678400Y-92462000D01*
X273057100Y-90792300D02*
X274726800Y-92462000D01*
X303168000Y-92462000D02*
X304330000Y-91300000D01*
X294678400Y-92462000D02*
X303168000Y-92462000D01*
X57712600Y-98362600D02*
X58500000Y-99150000D01*
X37137400Y-98362600D02*
X57712600Y-98362600D01*
X36000000Y-99500000D02*
X37137400Y-98362600D01*
X294678400Y-94365400D02*
X294678400Y-92462000D01*
X299308600Y-98995600D02*
X294678400Y-94365400D01*
X319995600Y-98995600D02*
X299308600Y-98995600D01*
X322420000Y-101420000D02*
X319995600Y-98995600D01*
%TO.N,Net-(D63-K)*%
X54134800Y-101690000D02*
X53667700Y-102157100D01*
X58500000Y-101690000D02*
X54134800Y-101690000D01*
%TO.N,BUS_0*%
X195327700Y-41212300D02*
X191430000Y-45110000D01*
X205197100Y-41212300D02*
X195327700Y-41212300D01*
X230567100Y-66412300D02*
X228817100Y-64662300D01*
X238947100Y-66412300D02*
X230567100Y-66412300D01*
X152967100Y-140982300D02*
X151697100Y-139712300D01*
X163878500Y-140982300D02*
X152967100Y-140982300D01*
X164931100Y-142034900D02*
X163878500Y-140982300D01*
X190899500Y-142034900D02*
X164931100Y-142034900D01*
X192037100Y-140897300D02*
X190899500Y-142034900D01*
%TO.N,Net-(D61-A)*%
X117462100Y-86807000D02*
X117462100Y-86552300D01*
X111359100Y-92910000D02*
X117462100Y-86807000D01*
X75390000Y-92910000D02*
X111359100Y-92910000D01*
X74120000Y-94180000D02*
X75390000Y-92910000D01*
%TO.N,Net-(D59-A)*%
X74120000Y-89100000D02*
X74903100Y-89100000D01*
X76970700Y-87032400D02*
X74903100Y-89100000D01*
X97540200Y-87032400D02*
X76970700Y-87032400D01*
X101016400Y-83556200D02*
X97540200Y-87032400D01*
X115123500Y-83556200D02*
X101016400Y-83556200D01*
X117839600Y-80840100D02*
X115123500Y-83556200D01*
X143902200Y-80840100D02*
X117839600Y-80840100D01*
X144569900Y-81507800D02*
X143902200Y-80840100D01*
X144569900Y-82452200D02*
X144569900Y-81507800D01*
X143902200Y-83119900D02*
X144569900Y-82452200D01*
X142957700Y-83119900D02*
X143902200Y-83119900D01*
X140768200Y-85309400D02*
X142957700Y-83119900D01*
X116982100Y-85309400D02*
X140768200Y-85309400D01*
X116123800Y-86167700D02*
X116982100Y-85309400D01*
X116123800Y-87577300D02*
X116123800Y-86167700D01*
X115947100Y-87754000D02*
X116123800Y-87577300D01*
X113897100Y-87754000D02*
X115947100Y-87754000D01*
X113720400Y-87577300D02*
X113897100Y-87754000D01*
X113720400Y-87047800D02*
X113720400Y-87577300D01*
X111999400Y-85326800D02*
X113720400Y-87047800D01*
X101829800Y-85326800D02*
X111999400Y-85326800D01*
X101691600Y-85465000D02*
X101829800Y-85326800D01*
X101691600Y-87570500D02*
X101691600Y-85465000D01*
X101920400Y-87799300D02*
X101691600Y-87570500D01*
X104195100Y-87799300D02*
X101920400Y-87799300D01*
X105442100Y-86552300D02*
X104195100Y-87799300D01*
%TO.N,Net-(D57-K)*%
X98328100Y-94180000D02*
X107700400Y-103552300D01*
X81740000Y-94180000D02*
X98328100Y-94180000D01*
X108902100Y-103552300D02*
X107700400Y-103552300D01*
%TO.N,Net-(D56-K)*%
X102892100Y-103552300D02*
X101690400Y-103552300D01*
X94858100Y-96720000D02*
X101690400Y-103552300D01*
X81740000Y-96720000D02*
X94858100Y-96720000D01*
%TO.N,Net-(D55-K)*%
X96882100Y-103552300D02*
X95680400Y-103552300D01*
X91388100Y-99260000D02*
X95680400Y-103552300D01*
X81740000Y-99260000D02*
X91388100Y-99260000D01*
%TO.N,Net-(D53-A)*%
X132415700Y-41175900D02*
X132792100Y-41552300D01*
X110853100Y-41175900D02*
X132415700Y-41175900D01*
X109972400Y-42056600D02*
X110853100Y-41175900D01*
%TO.N,OI*%
X154201800Y-97032400D02*
X111553200Y-97032400D01*
X154727400Y-96506800D02*
X154201800Y-97032400D01*
X155676800Y-96506800D02*
X154727400Y-96506800D01*
%TO.N,SU*%
X124500700Y-57960600D02*
X124000100Y-57460000D01*
X177421200Y-57960600D02*
X124500700Y-57960600D01*
X179267300Y-59806700D02*
X177421200Y-57960600D01*
X274867100Y-59806700D02*
X179267300Y-59806700D01*
X275068100Y-60007700D02*
X274867100Y-59806700D01*
%TO.N,Net-(D46-A)*%
X86063400Y-60969400D02*
X85022100Y-59928100D01*
X91168200Y-60969400D02*
X86063400Y-60969400D01*
X95987600Y-56150000D02*
X91168200Y-60969400D01*
X122770100Y-56150000D02*
X95987600Y-56150000D01*
X124000100Y-54920000D02*
X122770100Y-56150000D01*
%TO.N,Net-(D44-A)*%
X123116700Y-119809900D02*
X76012000Y-119809900D01*
X125122600Y-117804000D02*
X123116700Y-119809900D01*
X143914700Y-117804000D02*
X125122600Y-117804000D01*
X145572000Y-119461300D02*
X143914700Y-117804000D01*
X154290200Y-119461300D02*
X145572000Y-119461300D01*
X156371500Y-121542600D02*
X154290200Y-119461300D01*
X206456500Y-121542600D02*
X156371500Y-121542600D01*
X206622000Y-121377100D02*
X206456500Y-121542600D01*
X207452900Y-121377100D02*
X206622000Y-121377100D01*
X207618400Y-121542600D02*
X207452900Y-121377100D01*
X224073800Y-121542600D02*
X207618400Y-121542600D01*
X226321400Y-119295000D02*
X224073800Y-121542600D01*
X227883200Y-119295000D02*
X226321400Y-119295000D01*
X234233200Y-112945000D02*
X227883200Y-119295000D01*
%TO.N,Net-(D43-A)*%
X71187200Y-120992200D02*
X69767100Y-122412300D01*
X89638600Y-120992200D02*
X71187200Y-120992200D01*
X216951600Y-109306300D02*
X217187000Y-109070900D01*
X196531900Y-109306300D02*
X216951600Y-109306300D01*
X195949400Y-109888800D02*
X196531900Y-109306300D01*
X181638800Y-109888800D02*
X195949400Y-109888800D01*
X179622200Y-111905400D02*
X181638800Y-109888800D01*
X168688000Y-111905400D02*
X179622200Y-111905400D01*
X167259400Y-110476800D02*
X168688000Y-111905400D01*
X155451400Y-110476800D02*
X167259400Y-110476800D01*
X155029700Y-110055100D02*
X155451400Y-110476800D01*
X129332900Y-110055100D02*
X155029700Y-110055100D01*
X126545300Y-107267500D02*
X129332900Y-110055100D01*
X89408200Y-107267500D02*
X126545300Y-107267500D01*
X88624900Y-106484200D02*
X89408200Y-107267500D01*
X217187000Y-109070900D02*
X217351800Y-108906100D01*
X217187000Y-109070900D02*
X217351800Y-108906100D01*
X233192100Y-108906100D02*
X234233200Y-107865000D01*
X217351800Y-108906100D02*
X233192100Y-108906100D01*
%TO.N,Net-(D42-A)*%
X102125900Y-67914200D02*
X70351000Y-67914200D01*
X105000100Y-65040000D02*
X102125900Y-67914200D01*
X67971200Y-119208200D02*
X64767100Y-122412300D01*
X120817800Y-119208200D02*
X67971200Y-119208200D01*
X122623700Y-117402300D02*
X120817800Y-119208200D01*
X146962700Y-117402300D02*
X122623700Y-117402300D01*
X147939500Y-118379100D02*
X146962700Y-117402300D01*
X162775500Y-118379100D02*
X147939500Y-118379100D01*
X164422300Y-120025900D02*
X162775500Y-118379100D01*
X204275100Y-120025900D02*
X164422300Y-120025900D01*
X205006000Y-119295000D02*
X204275100Y-120025900D01*
X223731400Y-119295000D02*
X205006000Y-119295000D01*
X226613200Y-116413200D02*
X223731400Y-119295000D01*
X226613200Y-115485000D02*
X226613200Y-116413200D01*
%TO.N,Net-(D41-A)*%
X128269200Y-61270000D02*
X128553500Y-60985700D01*
X106230100Y-61270000D02*
X128269200Y-61270000D01*
X105000100Y-62500000D02*
X106230100Y-61270000D01*
%TO.N,RI*%
X197374000Y-63020700D02*
X198193800Y-63840500D01*
X186996900Y-63020700D02*
X197374000Y-63020700D01*
X185409100Y-61432900D02*
X186996900Y-63020700D01*
X156394400Y-61432900D02*
X185409100Y-61432900D01*
X155989800Y-61837500D02*
X156394400Y-61432900D01*
X148731800Y-61837500D02*
X155989800Y-61837500D01*
X147455000Y-60560700D02*
X148731800Y-61837500D01*
X131129400Y-60560700D02*
X147455000Y-60560700D01*
X129532200Y-58963500D02*
X131129400Y-60560700D01*
X105996600Y-58963500D02*
X129532200Y-58963500D01*
X105000100Y-59960000D02*
X105996600Y-58963500D01*
%TO.N,HLT*%
X151937800Y-57508600D02*
X240854000Y-57508600D01*
X149909900Y-55480700D02*
X151937800Y-57508600D01*
X128857100Y-55480700D02*
X149909900Y-55480700D01*
X127257000Y-53880600D02*
X128857100Y-55480700D01*
X105999500Y-53880600D02*
X127257000Y-53880600D01*
X105000100Y-54880000D02*
X105999500Y-53880600D01*
X243116200Y-57342300D02*
X244377200Y-58603300D01*
X241020300Y-57342300D02*
X243116200Y-57342300D01*
X240854000Y-57508600D02*
X241020300Y-57342300D01*
X240854000Y-57508600D02*
X241020300Y-57342300D01*
%TO.N,Net-(D37-A)*%
X168340000Y-89600000D02*
X178520000Y-79420000D01*
X151050000Y-89600000D02*
X168340000Y-89600000D01*
%TO.N,Net-(D36-A)*%
X151050000Y-87059900D02*
X151050000Y-87060000D01*
X164870100Y-87059900D02*
X151050000Y-87059900D01*
X172510000Y-79420000D02*
X164870100Y-87059900D01*
%TO.N,/ALU/B_0*%
X309875700Y-81605700D02*
X311950000Y-83680000D01*
X304665700Y-81605700D02*
X309875700Y-81605700D01*
X301980000Y-78920000D02*
X304665700Y-81605700D01*
%TO.N,/ALU/B_4*%
X278376700Y-76847500D02*
X297154800Y-76847500D01*
X277424200Y-77800000D02*
X278376700Y-76847500D01*
X297154800Y-76847500D02*
X297154800Y-76349000D01*
X319887500Y-76847500D02*
X321960000Y-78920000D01*
X297154800Y-76847500D02*
X319887500Y-76847500D01*
%TO.N,Net-(D25-K)*%
X256443000Y-21391300D02*
X257000000Y-21948300D01*
X251644900Y-21391300D02*
X256443000Y-21391300D01*
X249911700Y-23124500D02*
X251644900Y-21391300D01*
X249911700Y-23500000D02*
X249911700Y-23124500D01*
X248710000Y-23500000D02*
X249911700Y-23500000D01*
X257000000Y-23500000D02*
X257000000Y-21948300D01*
%TO.N,/ALU/B_5*%
X277424200Y-70180000D02*
X278373600Y-70180000D01*
X282489300Y-74295700D02*
X278373600Y-70180000D01*
X301974000Y-74295700D02*
X282489300Y-74295700D01*
X322335700Y-74295700D02*
X301974000Y-74295700D01*
X326960000Y-78920000D02*
X322335700Y-74295700D01*
%TO.N,/ALU/B_6*%
X330001300Y-80918700D02*
X332040000Y-78880000D01*
X319791300Y-80918700D02*
X330001300Y-80918700D01*
X317030000Y-83680000D02*
X319791300Y-80918700D01*
%TO.N,/MAR/A0*%
X182021300Y-101783700D02*
X182695000Y-101110000D01*
X171868700Y-101783700D02*
X182021300Y-101783700D01*
X170695000Y-100610000D02*
X171868700Y-101783700D01*
X183855500Y-102270500D02*
X182695000Y-101110000D01*
X236568400Y-102270500D02*
X183855500Y-102270500D01*
X238194200Y-100644700D02*
X236568400Y-102270500D01*
%TO.N,/ALU/B_7*%
X287022200Y-84858000D02*
X285044200Y-82880000D01*
X313312000Y-84858000D02*
X287022200Y-84858000D01*
X314490000Y-83680000D02*
X313312000Y-84858000D01*
%TO.N,/MAR/A2*%
X196441600Y-44829800D02*
X196120700Y-44508900D01*
X228449600Y-44829800D02*
X196441600Y-44829800D01*
X230947100Y-42332300D02*
X228449600Y-44829800D01*
%TO.N,/MAR/A3*%
X223735400Y-43534000D02*
X224937100Y-42332300D01*
X215630600Y-43534000D02*
X223735400Y-43534000D01*
X214838100Y-42741500D02*
X215630600Y-43534000D01*
X199828400Y-42741500D02*
X214838100Y-42741500D01*
X198397200Y-44172700D02*
X199828400Y-42741500D01*
%TO.N,Net-(D17-A)*%
X275738400Y-81610000D02*
X274468400Y-82880000D01*
X290769200Y-81610000D02*
X275738400Y-81610000D01*
X292142200Y-80237000D02*
X290769200Y-81610000D01*
%TO.N,Net-(D14-K)*%
X258198300Y-53980000D02*
X258258300Y-53920000D01*
X256750000Y-53980000D02*
X258198300Y-53980000D01*
X259460000Y-53920000D02*
X258258300Y-53920000D01*
%TO.N,Net-(D12-A)*%
X267922600Y-74185800D02*
X280437800Y-74185800D01*
X266848400Y-75260000D02*
X267922600Y-74185800D01*
%TO.N,Net-(D10-K)*%
X258128300Y-58550000D02*
X258258300Y-58420000D01*
X256750000Y-58550000D02*
X258128300Y-58550000D01*
X259460000Y-58420000D02*
X258258300Y-58420000D01*
%TO.N,/ALU/A_0*%
X254780000Y-66412300D02*
X246567100Y-66412300D01*
X256577300Y-64615000D02*
X254780000Y-66412300D01*
X278693000Y-64615000D02*
X256577300Y-64615000D01*
X281287800Y-62020200D02*
X278693000Y-64615000D01*
X285055400Y-62020200D02*
X281287800Y-62020200D01*
X286140100Y-60935500D02*
X285055400Y-62020200D01*
X286140100Y-57409900D02*
X286140100Y-60935500D01*
X287720000Y-55830000D02*
X286140100Y-57409900D01*
X220990800Y-69948600D02*
X218657100Y-72282300D01*
X230153700Y-69948600D02*
X220990800Y-69948600D01*
X243030800Y-69948600D02*
X230153700Y-69948600D01*
X246567100Y-66412300D02*
X243030800Y-69948600D01*
X230153700Y-69895900D02*
X230153700Y-69948600D01*
%TO.N,/ALU/A_1*%
X245021800Y-70497600D02*
X246567100Y-68952300D01*
X222981800Y-70497600D02*
X245021800Y-70497600D01*
X221197100Y-72282300D02*
X222981800Y-70497600D01*
%TO.N,/ALU/A_2*%
X245614600Y-72444800D02*
X246567100Y-71492300D01*
X235049200Y-72444800D02*
X245614600Y-72444800D01*
X233711100Y-71106700D02*
X235049200Y-72444800D01*
X224912700Y-71106700D02*
X233711100Y-71106700D01*
X223737100Y-72282300D02*
X224912700Y-71106700D01*
X250227900Y-67831500D02*
X246567100Y-71492300D01*
X292061100Y-67831500D02*
X250227900Y-67831500D01*
X292143800Y-67914200D02*
X292061100Y-67831500D01*
%TO.N,/ALU/A_3*%
X263758900Y-56539000D02*
X250183000Y-56539000D01*
X265603800Y-54694100D02*
X263758900Y-56539000D01*
X294204100Y-54694100D02*
X265603800Y-54694100D01*
X295340000Y-55830000D02*
X294204100Y-54694100D01*
X228981100Y-74986300D02*
X226277100Y-72282300D01*
X245045200Y-74986300D02*
X228981100Y-74986300D01*
X245999200Y-74032300D02*
X245045200Y-74986300D01*
X246567100Y-74032300D02*
X245999200Y-74032300D01*
%TO.N,/ALU/A_4*%
X211587300Y-59226600D02*
X210964000Y-58603300D01*
X250576800Y-59226600D02*
X211587300Y-59226600D01*
X252664200Y-57139200D02*
X250576800Y-59226600D01*
X275630800Y-57139200D02*
X252664200Y-57139200D01*
X276940000Y-55830000D02*
X275630800Y-57139200D01*
%TO.N,/ALU/A_5*%
X226754400Y-50061000D02*
X227007300Y-49808100D01*
X220185600Y-50061000D02*
X226754400Y-50061000D01*
X214216600Y-56030000D02*
X220185600Y-50061000D01*
X275831800Y-49641800D02*
X276940000Y-50750000D01*
X227173600Y-49641800D02*
X275831800Y-49641800D01*
X227007300Y-49808100D02*
X227173600Y-49641800D01*
X227007300Y-49808100D02*
X227173600Y-49641800D01*
%TO.N,/ALU/A_6*%
X212420100Y-73439300D02*
X213577100Y-72282300D01*
X205011000Y-73439300D02*
X212420100Y-73439300D01*
X203624000Y-72052300D02*
X205011000Y-73439300D01*
X196627100Y-72052300D02*
X203624000Y-72052300D01*
X216736100Y-75441300D02*
X213577100Y-72282300D01*
X245228800Y-75441300D02*
X216736100Y-75441300D01*
X245541000Y-75129100D02*
X245228800Y-75441300D01*
X256361200Y-75129100D02*
X245541000Y-75129100D01*
X257420700Y-74069600D02*
X256361200Y-75129100D01*
X267469300Y-74069600D02*
X257420700Y-74069600D01*
X269775500Y-71763400D02*
X267469300Y-74069600D01*
X279100100Y-71763400D02*
X269775500Y-71763400D01*
X279835400Y-72498700D02*
X279100100Y-71763400D01*
%TO.N,/ALU/A_7*%
X220717100Y-67682300D02*
X216117100Y-72282300D01*
X239914700Y-67682300D02*
X220717100Y-67682300D01*
X242454700Y-65142300D02*
X239914700Y-67682300D01*
X247269100Y-65142300D02*
X242454700Y-65142300D01*
X250131200Y-62280200D02*
X247269100Y-65142300D01*
X278109800Y-62280200D02*
X250131200Y-62280200D01*
X284560000Y-55830000D02*
X278109800Y-62280200D01*
%TO.N,Net-(U31-THR)*%
X153834300Y-153765400D02*
X154272600Y-154203700D01*
X129874100Y-153765400D02*
X153834300Y-153765400D01*
X129473400Y-154166100D02*
X129874100Y-153765400D01*
X124371900Y-154166100D02*
X129473400Y-154166100D01*
X123854900Y-153649100D02*
X124371900Y-154166100D01*
%TO.N,CLK*%
X261000000Y-128580000D02*
X265000000Y-128580000D01*
X260750000Y-128330000D02*
X261000000Y-128580000D01*
X273844400Y-128580000D02*
X274197100Y-128227300D01*
X265000000Y-128580000D02*
X273844400Y-128580000D01*
X296600400Y-94900400D02*
X295630000Y-93930000D01*
X316239600Y-94900400D02*
X296600400Y-94900400D01*
X317340000Y-93800000D02*
X316239600Y-94900400D01*
X175149400Y-67249400D02*
X174200000Y-66300000D01*
X179350800Y-67249400D02*
X175149400Y-67249400D01*
X181019400Y-65580800D02*
X179350800Y-67249400D01*
X195476500Y-65580800D02*
X181019400Y-65580800D01*
X196625000Y-64432300D02*
X195476500Y-65580800D01*
X196627100Y-64432300D02*
X196625000Y-64432300D01*
%TO.N,BUS_5*%
X194347700Y-149872300D02*
X159317100Y-149872300D01*
X197920000Y-146300000D02*
X194347700Y-149872300D01*
X160904500Y-78170000D02*
X162195000Y-76879500D01*
X142823600Y-78170000D02*
X160904500Y-78170000D01*
X141843600Y-79150000D02*
X142823600Y-78170000D01*
X58500000Y-79150000D02*
X141843600Y-79150000D01*
%TO.N,Net-(U1-THR)*%
X319565000Y-109000000D02*
X317605000Y-107040000D01*
X320775000Y-109000000D02*
X319565000Y-109000000D01*
%TO.N,Net-(U2-DIS)*%
X281817100Y-149662300D02*
X282067100Y-149912300D01*
X278067100Y-149662300D02*
X281817100Y-149662300D01*
%TD*%
M02*
