%TF.GenerationSoftware,KiCad,Pcbnew,9.0.6*%
%TF.CreationDate,2025-12-09T11:29:58-06:00*%
%TF.ProjectId,8-Bit-PC,382d4269-742d-4504-932e-6b696361645f,2*%
%TF.SameCoordinates,Original*%
%TF.FileFunction,Copper,L1,Top*%
%TF.FilePolarity,Positive*%
%FSLAX46Y46*%
G04 Gerber Fmt 4.6, Leading zero omitted, Abs format (unit mm)*
G04 Created by KiCad (PCBNEW 9.0.6) date 2025-12-09 11:29:58*
%MOMM*%
%LPD*%
G01*
G04 APERTURE LIST*
G04 Aperture macros list*
%AMRoundRect*
0 Rectangle with rounded corners*
0 $1 Rounding radius*
0 $2 $3 $4 $5 $6 $7 $8 $9 X,Y pos of 4 corners*
0 Add a 4 corners polygon primitive as box body*
4,1,4,$2,$3,$4,$5,$6,$7,$8,$9,$2,$3,0*
0 Add four circle primitives for the rounded corners*
1,1,$1+$1,$2,$3*
1,1,$1+$1,$4,$5*
1,1,$1+$1,$6,$7*
1,1,$1+$1,$8,$9*
0 Add four rect primitives between the rounded corners*
20,1,$1+$1,$2,$3,$4,$5,0*
20,1,$1+$1,$4,$5,$6,$7,0*
20,1,$1+$1,$6,$7,$8,$9,0*
20,1,$1+$1,$8,$9,$2,$3,0*%
G04 Aperture macros list end*
%TA.AperFunction,ComponentPad*%
%ADD10C,1.200000*%
%TD*%
%TA.AperFunction,ComponentPad*%
%ADD11R,1.800000X1.800000*%
%TD*%
%TA.AperFunction,ComponentPad*%
%ADD12C,1.800000*%
%TD*%
%TA.AperFunction,ComponentPad*%
%ADD13C,1.600000*%
%TD*%
%TA.AperFunction,ComponentPad*%
%ADD14R,1.295400X1.295400*%
%TD*%
%TA.AperFunction,ComponentPad*%
%ADD15C,1.295400*%
%TD*%
%TA.AperFunction,ComponentPad*%
%ADD16R,1.676400X1.676400*%
%TD*%
%TA.AperFunction,ComponentPad*%
%ADD17C,1.676400*%
%TD*%
%TA.AperFunction,ComponentPad*%
%ADD18R,1.500000X1.500000*%
%TD*%
%TA.AperFunction,ComponentPad*%
%ADD19R,1.600000X1.600000*%
%TD*%
%TA.AperFunction,ComponentPad*%
%ADD20C,2.000000*%
%TD*%
%TA.AperFunction,ComponentPad*%
%ADD21RoundRect,0.250000X0.550000X-0.550000X0.550000X0.550000X-0.550000X0.550000X-0.550000X-0.550000X0*%
%TD*%
%TA.AperFunction,ComponentPad*%
%ADD22RoundRect,0.250000X-0.550000X-0.550000X0.550000X-0.550000X0.550000X0.550000X-0.550000X0.550000X0*%
%TD*%
%TA.AperFunction,ComponentPad*%
%ADD23O,3.240000X2.720000*%
%TD*%
%TA.AperFunction,ComponentPad*%
%ADD24O,1.000000X2.200000*%
%TD*%
%TA.AperFunction,ComponentPad*%
%ADD25C,0.900000*%
%TD*%
%TA.AperFunction,ComponentPad*%
%ADD26RoundRect,0.250000X-0.550000X0.550000X-0.550000X-0.550000X0.550000X-0.550000X0.550000X0.550000X0*%
%TD*%
%TA.AperFunction,ViaPad*%
%ADD27C,0.600000*%
%TD*%
%TA.AperFunction,Conductor*%
%ADD28C,0.200000*%
%TD*%
G04 APERTURE END LIST*
D10*
%TO.P,C72,1*%
%TO.N,VCC*%
X117460000Y-133620000D03*
%TO.P,C72,2*%
%TO.N,GND*%
X117460000Y-131620000D03*
%TD*%
D11*
%TO.P,D2,1,K*%
%TO.N,Net-(D2-K)*%
X280000000Y-83540000D03*
D12*
%TO.P,D2,2,A*%
%TO.N,/ALU/A_7*%
X280000000Y-81000000D03*
%TD*%
D13*
%TO.P,R5,1*%
%TO.N,VCC*%
X90190000Y-39500000D03*
%TO.P,R5,2*%
%TO.N,Net-(SW2-A)*%
X97810000Y-39500000D03*
%TD*%
D14*
%TO.P,U49,1,Oe1*%
%TO.N,GND*%
X274960000Y-76000000D03*
D15*
%TO.P,U49,2,Oe2*%
X277500000Y-76000000D03*
%TO.P,U49,3,Q0*%
%TO.N,/ALU/A_7*%
X280040000Y-76000000D03*
%TO.P,U49,4,Q1*%
%TO.N,/ALU/A_6*%
X282580000Y-76000000D03*
%TO.P,U49,5,Q2*%
%TO.N,/ALU/A_5*%
X285120000Y-76000000D03*
%TO.P,U49,6,Q3*%
%TO.N,/ALU/A_4*%
X287660000Y-76000000D03*
%TO.P,U49,7,Cp*%
%TO.N,CLK*%
X290200000Y-76000000D03*
%TO.P,U49,8,GND*%
%TO.N,GND*%
X292740000Y-76000000D03*
%TO.P,U49,9,E1*%
%TO.N,~{AI}*%
X292740000Y-68380000D03*
%TO.P,U49,10,E2*%
X290200000Y-68380000D03*
%TO.P,U49,11,D3*%
%TO.N,BUS_4*%
X287660000Y-68380000D03*
%TO.P,U49,12,D2*%
%TO.N,BUS_5*%
X285120000Y-68380000D03*
%TO.P,U49,13,D1*%
%TO.N,BUS_6*%
X282580000Y-68380000D03*
%TO.P,U49,14,D0*%
%TO.N,BUS_7*%
X280040000Y-68380000D03*
%TO.P,U49,15,Mr*%
%TO.N,CLR*%
X277500000Y-68380000D03*
%TO.P,U49,16,VCC*%
%TO.N,VCC*%
X274960000Y-68380000D03*
%TD*%
D13*
%TO.P,C1,1*%
%TO.N,GND*%
X49500000Y-30500000D03*
%TO.P,C1,2*%
%TO.N,Net-(U1-CV)*%
X47000000Y-30500000D03*
%TD*%
%TO.P,R87,1*%
%TO.N,Net-(D116-K)*%
X114960000Y-157810000D03*
%TO.P,R87,2*%
%TO.N,GND*%
X114960000Y-165430000D03*
%TD*%
D10*
%TO.P,C25,1*%
%TO.N,GND*%
X95500000Y-22000000D03*
%TO.P,C25,2*%
%TO.N,VCC*%
X95500000Y-24000000D03*
%TD*%
%TO.P,C54,1*%
%TO.N,GND*%
X403897700Y-70925700D03*
%TO.P,C54,2*%
%TO.N,VCC*%
X403897700Y-72925700D03*
%TD*%
%TO.P,C71,1*%
%TO.N,VCC*%
X96960000Y-133120000D03*
%TO.P,C71,2*%
%TO.N,GND*%
X96960000Y-131120000D03*
%TD*%
%TO.P,C44,1*%
%TO.N,VCC*%
X86500000Y-106500000D03*
%TO.P,C44,2*%
%TO.N,GND*%
X86500000Y-108500000D03*
%TD*%
D11*
%TO.P,D33,1,K*%
%TO.N,Net-(D33-K)*%
X117500000Y-116540000D03*
D12*
%TO.P,D33,2,A*%
%TO.N,Net-(D33-A)*%
X117500000Y-114000000D03*
%TD*%
D10*
%TO.P,C59,1*%
%TO.N,VCC*%
X274000000Y-137000000D03*
%TO.P,C59,2*%
%TO.N,GND*%
X274000000Y-135000000D03*
%TD*%
D13*
%TO.P,R68,1*%
%TO.N,Net-(D65-K)*%
X318310000Y-192690000D03*
%TO.P,R68,2*%
%TO.N,GND*%
X318310000Y-200310000D03*
%TD*%
D11*
%TO.P,D35,1,K*%
%TO.N,Net-(D35-K)*%
X251186800Y-46126800D03*
D12*
%TO.P,D35,2,A*%
%TO.N,Net-(D35-A)*%
X248646800Y-46126800D03*
%TD*%
D11*
%TO.P,D21,1,K*%
%TO.N,Net-(D21-K)*%
X59030000Y-66620000D03*
D12*
%TO.P,D21,2,A*%
%TO.N,/MAR/A2*%
X59030000Y-64080000D03*
%TD*%
D13*
%TO.P,R46,1*%
%TO.N,Net-(D44-K)*%
X177000000Y-167000000D03*
%TO.P,R46,2*%
%TO.N,GND*%
X177000000Y-174620000D03*
%TD*%
%TO.P,R43,1*%
%TO.N,Net-(D41-K)*%
X162000000Y-167000000D03*
%TO.P,R43,2*%
%TO.N,GND*%
X162000000Y-174620000D03*
%TD*%
D11*
%TO.P,D36,1,K*%
%TO.N,Net-(D36-K)*%
X251186800Y-50626800D03*
D12*
%TO.P,D36,2,A*%
%TO.N,Net-(D36-A)*%
X248646800Y-50626800D03*
%TD*%
D11*
%TO.P,D26,1,K*%
%TO.N,Net-(D26-K)*%
X86000000Y-116540000D03*
D12*
%TO.P,D26,2,A*%
%TO.N,Net-(D26-A)*%
X86000000Y-114000000D03*
%TD*%
D13*
%TO.P,R19,1*%
%TO.N,VCC*%
X21000000Y-43310000D03*
%TO.P,R19,2*%
%TO.N,Net-(D25-A)*%
X21000000Y-50930000D03*
%TD*%
D10*
%TO.P,C23,1*%
%TO.N,VCC*%
X329230000Y-117190000D03*
%TO.P,C23,2*%
%TO.N,GND*%
X331230000Y-117190000D03*
%TD*%
D14*
%TO.P,U119,1,Oe1*%
%TO.N,GND*%
X117680000Y-144240000D03*
D15*
%TO.P,U119,2,Oe2*%
X120220000Y-144240000D03*
%TO.P,U119,3,Q0*%
%TO.N,Net-(D116-A)*%
X122760000Y-144240000D03*
%TO.P,U119,4,Q1*%
%TO.N,Net-(D117-A)*%
X125300000Y-144240000D03*
%TO.P,U119,5,Q2*%
%TO.N,Net-(D118-A)*%
X127840000Y-144240000D03*
%TO.P,U119,6,Q3*%
%TO.N,Net-(D119-A)*%
X130380000Y-144240000D03*
%TO.P,U119,7,Cp*%
%TO.N,CLK*%
X132920000Y-144240000D03*
%TO.P,U119,8,GND*%
%TO.N,GND*%
X135460000Y-144240000D03*
%TO.P,U119,9,E1*%
%TO.N,~{II}*%
X135460000Y-136620000D03*
%TO.P,U119,10,E2*%
X132920000Y-136620000D03*
%TO.P,U119,11,D3*%
%TO.N,BUS_0*%
X130380000Y-136620000D03*
%TO.P,U119,12,D2*%
%TO.N,BUS_1*%
X127840000Y-136620000D03*
%TO.P,U119,13,D1*%
%TO.N,BUS_2*%
X125300000Y-136620000D03*
%TO.P,U119,14,D0*%
%TO.N,BUS_3*%
X122760000Y-136620000D03*
%TO.P,U119,15,Mr*%
%TO.N,CLR*%
X120220000Y-136620000D03*
%TO.P,U119,16,VCC*%
%TO.N,VCC*%
X117680000Y-136620000D03*
%TD*%
D11*
%TO.P,D25,1,K*%
%TO.N,Net-(D25-K)*%
X21000000Y-56620000D03*
D12*
%TO.P,D25,2,A*%
%TO.N,Net-(D25-A)*%
X21000000Y-54080000D03*
%TD*%
D13*
%TO.P,R99,1*%
%TO.N,Net-(D2-K)*%
X280000000Y-86190000D03*
%TO.P,R99,2*%
%TO.N,GND*%
X280000000Y-93810000D03*
%TD*%
D10*
%TO.P,C31,1*%
%TO.N,VCC*%
X69500000Y-61000000D03*
%TO.P,C31,2*%
%TO.N,GND*%
X71500000Y-61000000D03*
%TD*%
%TO.P,C55,1*%
%TO.N,VCC*%
X246186800Y-29126800D03*
%TO.P,C55,2*%
%TO.N,GND*%
X248186800Y-29126800D03*
%TD*%
D13*
%TO.P,R26,1*%
%TO.N,Net-(D28-K)*%
X95000000Y-119000000D03*
%TO.P,R26,2*%
%TO.N,GND*%
X95000000Y-126620000D03*
%TD*%
D11*
%TO.P,D40,1,K*%
%TO.N,Net-(D40-K)*%
X156970000Y-162000000D03*
D12*
%TO.P,D40,2,A*%
%TO.N,RI*%
X159510000Y-162000000D03*
%TD*%
D11*
%TO.P,D53,1,K*%
%TO.N,Net-(D53-K)*%
X221970000Y-162000000D03*
D12*
%TO.P,D53,2,A*%
%TO.N,Net-(D53-A)*%
X224510000Y-162000000D03*
%TD*%
D14*
%TO.P,U11,1*%
%TO.N,Net-(U10-Pad2)*%
X360230000Y-104450000D03*
D15*
%TO.P,U11,2*%
%TO.N,Net-(D11-A)*%
X360230000Y-106990000D03*
%TO.P,U11,3*%
%TO.N,Net-(D12-A)*%
X360230000Y-109530000D03*
%TO.P,U11,4*%
%TO.N,Net-(U10-Pad1)*%
X360230000Y-112070000D03*
%TO.P,U11,5*%
%TO.N,Net-(D13-A)*%
X360230000Y-114610000D03*
%TO.P,U11,6*%
%TO.N,Net-(D15-A)*%
X360230000Y-117150000D03*
%TO.P,U11,7,GND*%
%TO.N,GND*%
X360230000Y-119690000D03*
%TO.P,U11,8*%
%TO.N,Net-(D16-A)*%
X367850000Y-119690000D03*
%TO.P,U11,9*%
%TO.N,Net-(D17-A)*%
X367850000Y-117150000D03*
%TO.P,U11,10*%
%TO.N,Net-(U10-Pad10)*%
X367850000Y-114610000D03*
%TO.P,U11,11*%
%TO.N,Net-(D18-A)*%
X367850000Y-112070000D03*
%TO.P,U11,12*%
%TO.N,Net-(D19-A)*%
X367850000Y-109530000D03*
%TO.P,U11,13*%
%TO.N,Net-(U10-Pad9)*%
X367850000Y-106990000D03*
%TO.P,U11,14,VCC*%
%TO.N,VCC*%
X367850000Y-104450000D03*
%TD*%
D13*
%TO.P,R86,1*%
%TO.N,Net-(D115-K)*%
X107960000Y-157810000D03*
%TO.P,R86,2*%
%TO.N,GND*%
X107960000Y-165430000D03*
%TD*%
D11*
%TO.P,D026,1,K*%
%TO.N,Net-(D026-K)*%
X298760000Y-119700000D03*
D12*
%TO.P,D026,2,A*%
%TO.N,/ALU/B_3*%
X298760000Y-117160000D03*
%TD*%
D16*
%TO.P,U38,1,~{Mr}*%
%TO.N,~{CLR}*%
X274460000Y-148120000D03*
D17*
%TO.P,U38,2,Q0*%
%TO.N,Net-(U38-Q0)*%
X277000000Y-148120000D03*
%TO.P,U38,3,D0*%
%TO.N,BUS_0*%
X279540000Y-148120000D03*
%TO.P,U38,4,D1*%
%TO.N,BUS_1*%
X282080000Y-148120000D03*
%TO.P,U38,5,Q1*%
%TO.N,Net-(U38-Q1)*%
X284620000Y-148120000D03*
%TO.P,U38,6,Q2*%
%TO.N,Net-(U38-Q2)*%
X287160000Y-148120000D03*
%TO.P,U38,7,D2*%
%TO.N,BUS_2*%
X289700000Y-148120000D03*
%TO.P,U38,8,D3*%
%TO.N,BUS_3*%
X292240000Y-148120000D03*
%TO.P,U38,9,Q3*%
%TO.N,Net-(U38-Q3)*%
X294780000Y-148120000D03*
%TO.P,U38,10,GND*%
%TO.N,GND*%
X297320000Y-148120000D03*
%TO.P,U38,11,Cp*%
%TO.N,Net-(U38-Cp)*%
X297320000Y-140500000D03*
%TO.P,U38,12,Q4*%
%TO.N,Net-(U38-Q4)*%
X294780000Y-140500000D03*
%TO.P,U38,13,D4*%
%TO.N,BUS_4*%
X292240000Y-140500000D03*
%TO.P,U38,14,D5*%
%TO.N,BUS_5*%
X289700000Y-140500000D03*
%TO.P,U38,15,Q5*%
%TO.N,Net-(U38-Q5)*%
X287160000Y-140500000D03*
%TO.P,U38,16,Q6*%
%TO.N,Net-(U38-Q6)*%
X284620000Y-140500000D03*
%TO.P,U38,17,D6*%
%TO.N,BUS_6*%
X282080000Y-140500000D03*
%TO.P,U38,18,D7*%
%TO.N,BUS_7*%
X279540000Y-140500000D03*
%TO.P,U38,19,Q7*%
%TO.N,Net-(U38-Q7)*%
X277000000Y-140500000D03*
%TO.P,U38,20,VCC*%
%TO.N,VCC*%
X274460000Y-140500000D03*
%TD*%
D11*
%TO.P,D59,1,K*%
%TO.N,Net-(D59-K)*%
X182240000Y-142500000D03*
D12*
%TO.P,D59,2,A*%
%TO.N,Net-(D59-A)*%
X179700000Y-142500000D03*
%TD*%
D10*
%TO.P,C63,1*%
%TO.N,VCC*%
X179120000Y-102540000D03*
%TO.P,C63,2*%
%TO.N,GND*%
X181120000Y-102540000D03*
%TD*%
%TO.P,C60,1*%
%TO.N,VCC*%
X242500000Y-128500000D03*
%TO.P,C60,2*%
%TO.N,GND*%
X242500000Y-126500000D03*
%TD*%
D13*
%TO.P,R38,1*%
%TO.N,Net-(U31-THR)*%
X241500000Y-153310000D03*
%TO.P,R38,2*%
%TO.N,Net-(U31-DIS)*%
X241500000Y-145690000D03*
%TD*%
%TO.P,R56,1*%
%TO.N,Net-(D58-A)*%
X157740000Y-143500000D03*
%TO.P,R56,2*%
%TO.N,VCC*%
X150120000Y-143500000D03*
%TD*%
D18*
%TO.P,SW4,1,A*%
%TO.N,/MAR/PROG*%
X16500000Y-53080000D03*
D13*
%TO.P,SW4,2,B*%
%TO.N,GND*%
X16500000Y-50540000D03*
%TO.P,SW4,3,C*%
%TO.N,Net-(D25-K)*%
X16500000Y-55620000D03*
%TD*%
D11*
%TO.P,D31,1,K*%
%TO.N,Net-(D31-K)*%
X108500000Y-116540000D03*
D12*
%TO.P,D31,2,A*%
%TO.N,Net-(D31-A)*%
X108500000Y-114000000D03*
%TD*%
D19*
%TO.P,U35,1,E*%
%TO.N,Net-(U34-E)*%
X327280000Y-172240000D03*
D13*
%TO.P,U35,2,D*%
%TO.N,Net-(U34-D)*%
X329820000Y-172240000D03*
%TO.P,U35,3,CC*%
%TO.N,Net-(U33A-O0)*%
X332360000Y-172240000D03*
%TO.P,U35,4,C*%
%TO.N,Net-(U34-C)*%
X334900000Y-172240000D03*
%TO.P,U35,5,DP*%
%TO.N,Net-(U34-DP)*%
X337440000Y-172240000D03*
%TO.P,U35,6,B*%
%TO.N,Net-(U34-B)*%
X337440000Y-157000000D03*
%TO.P,U35,7,A*%
%TO.N,Net-(U34-A)*%
X334900000Y-157000000D03*
%TO.P,U35,8,CC*%
%TO.N,Net-(U33A-O0)*%
X332360000Y-157000000D03*
%TO.P,U35,9,F*%
%TO.N,Net-(U34-F)*%
X329820000Y-157000000D03*
%TO.P,U35,10,G*%
%TO.N,Net-(U34-G)*%
X327280000Y-157000000D03*
%TD*%
D20*
%TO.P,SW6,1,1*%
%TO.N,GND*%
X121500000Y-65500000D03*
X121500000Y-72000000D03*
%TO.P,SW6,2,2*%
%TO.N,Net-(U51-I0c)*%
X117000000Y-65500000D03*
X117000000Y-72000000D03*
%TD*%
D10*
%TO.P,C50,1*%
%TO.N,VCC*%
X115000000Y-93000000D03*
%TO.P,C50,2*%
%TO.N,GND*%
X115000000Y-91000000D03*
%TD*%
D13*
%TO.P,R66,1*%
%TO.N,Net-(D63-K)*%
X308310000Y-192690000D03*
%TO.P,R66,2*%
%TO.N,GND*%
X308310000Y-200310000D03*
%TD*%
%TO.P,R49,1*%
%TO.N,Net-(D47-K)*%
X192000000Y-167000000D03*
%TO.P,R49,2*%
%TO.N,GND*%
X192000000Y-174620000D03*
%TD*%
D10*
%TO.P,C53,1*%
%TO.N,VCC*%
X111500000Y-76000000D03*
%TO.P,C53,2*%
%TO.N,GND*%
X111500000Y-74000000D03*
%TD*%
D13*
%TO.P,R81,1*%
%TO.N,Net-(J1-CC2)*%
X257000000Y-194500000D03*
%TO.P,R81,2*%
%TO.N,GND*%
X257000000Y-186880000D03*
%TD*%
D10*
%TO.P,C41,1*%
%TO.N,VCC*%
X298260000Y-103120000D03*
%TO.P,C41,2*%
%TO.N,GND*%
X298260000Y-101120000D03*
%TD*%
D13*
%TO.P,R106,1*%
%TO.N,Net-(D9-K)*%
X311500000Y-86000000D03*
%TO.P,R106,2*%
%TO.N,GND*%
X311500000Y-93620000D03*
%TD*%
D10*
%TO.P,C38,1*%
%TO.N,GND*%
X275000000Y-63500000D03*
%TO.P,C38,2*%
%TO.N,VCC*%
X275000000Y-65500000D03*
%TD*%
D13*
%TO.P,R44,1*%
%TO.N,Net-(D42-K)*%
X167000000Y-167000000D03*
%TO.P,R44,2*%
%TO.N,GND*%
X167000000Y-174620000D03*
%TD*%
D11*
%TO.P,D29,1,K*%
%TO.N,Net-(D29-K)*%
X99500000Y-116540000D03*
D12*
%TO.P,D29,2,A*%
%TO.N,Net-(D29-A)*%
X99500000Y-114000000D03*
%TD*%
D11*
%TO.P,D42,1,K*%
%TO.N,Net-(D42-K)*%
X166970000Y-162000000D03*
D12*
%TO.P,D42,2,A*%
%TO.N,Net-(D42-A)*%
X169510000Y-162000000D03*
%TD*%
D14*
%TO.P,U41,1,~{MR}*%
%TO.N,Net-(U41-~{MR})*%
X192360000Y-105620000D03*
D15*
%TO.P,U41,2,CP*%
%TO.N,~{CLK}*%
X192360000Y-103080000D03*
%TO.P,U41,3,D0*%
%TO.N,unconnected-(U41-D0-Pad3)*%
X192360000Y-100540000D03*
%TO.P,U41,4,D1*%
%TO.N,unconnected-(U41-D1-Pad4)*%
X192360000Y-98000000D03*
%TO.P,U41,5,D2*%
%TO.N,unconnected-(U41-D2-Pad5)*%
X192360000Y-95460000D03*
%TO.P,U41,6,D3*%
%TO.N,unconnected-(U41-D3-Pad6)*%
X192360000Y-92920000D03*
%TO.P,U41,7,CEP*%
%TO.N,VCC*%
X192360000Y-90380000D03*
%TO.P,U41,8,GND*%
%TO.N,GND*%
X192360000Y-87840000D03*
%TO.P,U41,9,~{PE}*%
%TO.N,VCC*%
X184740000Y-87840000D03*
%TO.P,U41,10,CET*%
X184740000Y-90380000D03*
%TO.P,U41,11,Q3*%
%TO.N,unconnected-(U41-Q3-Pad11)*%
X184740000Y-92920000D03*
%TO.P,U41,12,Q2*%
%TO.N,Net-(D61-A)*%
X184740000Y-95460000D03*
%TO.P,U41,13,Q1*%
%TO.N,Net-(D60-A)*%
X184740000Y-98000000D03*
%TO.P,U41,14,Q0*%
%TO.N,Net-(D59-A)*%
X184740000Y-100540000D03*
%TO.P,U41,15,TC*%
%TO.N,unconnected-(U41-TC-Pad15)*%
X184740000Y-103080000D03*
%TO.P,U41,16,VCC*%
%TO.N,VCC*%
X184740000Y-105620000D03*
%TD*%
D11*
%TO.P,D45,1,K*%
%TO.N,Net-(D45-K)*%
X181970000Y-162000000D03*
D12*
%TO.P,D45,2,A*%
%TO.N,Net-(D45-A)*%
X184510000Y-162000000D03*
%TD*%
D13*
%TO.P,R83,1*%
%TO.N,Net-(D112-K)*%
X86960000Y-157810000D03*
%TO.P,R83,2*%
%TO.N,GND*%
X86960000Y-165430000D03*
%TD*%
D11*
%TO.P,D57,1,K*%
%TO.N,Net-(D57-K)*%
X162740000Y-139000000D03*
D12*
%TO.P,D57,2,A*%
%TO.N,Net-(D57-A)*%
X160200000Y-139000000D03*
%TD*%
D13*
%TO.P,R17,1*%
%TO.N,Net-(D19-K)*%
X396120000Y-86380000D03*
%TO.P,R17,2*%
%TO.N,GND*%
X396120000Y-94000000D03*
%TD*%
%TO.P,C6,1*%
%TO.N,GND*%
X126000000Y-23000000D03*
%TO.P,C6,2*%
%TO.N,VCC*%
X126000000Y-20500000D03*
%TD*%
D19*
%TO.P,U37,1,E*%
%TO.N,Net-(U34-E)*%
X355380000Y-172240000D03*
D13*
%TO.P,U37,2,D*%
%TO.N,Net-(U34-D)*%
X357920000Y-172240000D03*
%TO.P,U37,3,CC*%
%TO.N,Net-(U33A-O1)*%
X360460000Y-172240000D03*
%TO.P,U37,4,C*%
%TO.N,Net-(U34-C)*%
X363000000Y-172240000D03*
%TO.P,U37,5,DP*%
%TO.N,Net-(U34-DP)*%
X365540000Y-172240000D03*
%TO.P,U37,6,B*%
%TO.N,Net-(U34-B)*%
X365540000Y-157000000D03*
%TO.P,U37,7,A*%
%TO.N,Net-(U34-A)*%
X363000000Y-157000000D03*
%TO.P,U37,8,CC*%
%TO.N,Net-(U33A-O1)*%
X360460000Y-157000000D03*
%TO.P,U37,9,F*%
%TO.N,Net-(U34-F)*%
X357920000Y-157000000D03*
%TO.P,U37,10,G*%
%TO.N,Net-(U34-G)*%
X355380000Y-157000000D03*
%TD*%
D10*
%TO.P,C74,1*%
%TO.N,VCC*%
X251000000Y-199000000D03*
%TO.P,C74,2*%
%TO.N,GND*%
X249000000Y-199000000D03*
%TD*%
D13*
%TO.P,R25,1*%
%TO.N,Net-(D27-K)*%
X90500000Y-119190000D03*
%TO.P,R25,2*%
%TO.N,GND*%
X90500000Y-126810000D03*
%TD*%
D10*
%TO.P,C34,1*%
%TO.N,GND*%
X172500000Y-42000000D03*
%TO.P,C34,2*%
%TO.N,VCC*%
X172500000Y-40000000D03*
%TD*%
D21*
%TO.P,U21,1,A0*%
%TO.N,/MAR/A0*%
X65920000Y-103500000D03*
D13*
%TO.P,U21,2,\u002ACS*%
%TO.N,GND*%
X68460000Y-103500000D03*
%TO.P,U21,3,\u002AWE*%
%TO.N,Net-(U21-\u002AWE)*%
X71000000Y-103500000D03*
%TO.P,U21,4,D0*%
%TO.N,Net-(U21-D0)*%
X73540000Y-103500000D03*
%TO.P,U21,5,\u002AO0*%
%TO.N,Net-(U21-\u002AO0)*%
X76080000Y-103500000D03*
%TO.P,U21,6,D1*%
%TO.N,Net-(U21-D1)*%
X78620000Y-103500000D03*
%TO.P,U21,7,\u002AO1*%
%TO.N,Net-(U21-\u002AO1)*%
X81160000Y-103500000D03*
%TO.P,U21,8,GND*%
%TO.N,GND*%
X83700000Y-103500000D03*
%TO.P,U21,9,\u002AO2*%
%TO.N,Net-(U21-\u002AO2)*%
X83700000Y-95880000D03*
%TO.P,U21,10,D2*%
%TO.N,Net-(U21-D2)*%
X81160000Y-95880000D03*
%TO.P,U21,11,\u002AO3*%
%TO.N,Net-(U21-\u002AO3)*%
X78620000Y-95880000D03*
%TO.P,U21,12,D3*%
%TO.N,Net-(U21-D3)*%
X76080000Y-95880000D03*
%TO.P,U21,13,A3*%
%TO.N,/MAR/A3*%
X73540000Y-95880000D03*
%TO.P,U21,14,A2*%
%TO.N,/MAR/A2*%
X71000000Y-95880000D03*
%TO.P,U21,15,A1*%
%TO.N,/MAR/A1*%
X68460000Y-95880000D03*
%TO.P,U21,16,VCC*%
%TO.N,VCC*%
X65920000Y-95880000D03*
%TD*%
D21*
%TO.P,SW3,1*%
%TO.N,Net-(U18-I0d)*%
X33500000Y-58240000D03*
D13*
%TO.P,SW3,2*%
%TO.N,Net-(U18-I0c)*%
X36040000Y-58240000D03*
%TO.P,SW3,3*%
%TO.N,GND*%
X38580000Y-58240000D03*
%TO.P,SW3,4*%
X41120000Y-58240000D03*
%TO.P,SW3,5*%
%TO.N,Net-(U18-I0a)*%
X41120000Y-50620000D03*
%TO.P,SW3,6*%
%TO.N,Net-(U18-I0b)*%
X38580000Y-50620000D03*
%TO.P,SW3,7*%
%TO.N,GND*%
X36040000Y-50620000D03*
%TO.P,SW3,8*%
X33500000Y-50620000D03*
%TD*%
D21*
%TO.P,U3,1,GND*%
%TO.N,GND*%
X95190000Y-34805000D03*
D13*
%TO.P,U3,2,TR*%
%TO.N,Net-(SW2-A)*%
X97730000Y-34805000D03*
%TO.P,U3,3,Q*%
%TO.N,Net-(U3-Q)*%
X100270000Y-34805000D03*
%TO.P,U3,4,R*%
%TO.N,Net-(SW2-C)*%
X102810000Y-34805000D03*
%TO.P,U3,5,CV*%
%TO.N,Net-(U3-CV)*%
X102810000Y-27185000D03*
%TO.P,U3,6,THR*%
%TO.N,GND*%
X100270000Y-27185000D03*
%TO.P,U3,7,DIS*%
%TO.N,unconnected-(U3-DIS-Pad7)*%
X97730000Y-27185000D03*
%TO.P,U3,8,VCC*%
%TO.N,VCC*%
X95190000Y-27185000D03*
%TD*%
%TO.P,R97,1*%
%TO.N,Net-(D028-K)*%
X307760000Y-122120000D03*
%TO.P,R97,2*%
%TO.N,GND*%
X307760000Y-129740000D03*
%TD*%
%TO.P,R1,1*%
%TO.N,VCC*%
X36690000Y-28500000D03*
%TO.P,R1,2*%
%TO.N,Net-(U1-DIS)*%
X44310000Y-28500000D03*
%TD*%
D16*
%TO.P,U25,1,A->B*%
%TO.N,VCC*%
X88920000Y-103500000D03*
D17*
%TO.P,U25,2,A0*%
%TO.N,Net-(D26-A)*%
X91460000Y-103500000D03*
%TO.P,U25,3,A1*%
%TO.N,Net-(D27-A)*%
X94000000Y-103500000D03*
%TO.P,U25,4,A2*%
%TO.N,Net-(D28-A)*%
X96540000Y-103500000D03*
%TO.P,U25,5,A3*%
%TO.N,Net-(D29-A)*%
X99080000Y-103500000D03*
%TO.P,U25,6,A4*%
%TO.N,Net-(D30-A)*%
X101620000Y-103500000D03*
%TO.P,U25,7,A5*%
%TO.N,Net-(D31-A)*%
X104160000Y-103500000D03*
%TO.P,U25,8,A6*%
%TO.N,Net-(D32-A)*%
X106700000Y-103500000D03*
%TO.P,U25,9,A7*%
%TO.N,Net-(D33-A)*%
X109240000Y-103500000D03*
%TO.P,U25,10,GND*%
%TO.N,GND*%
X111780000Y-103500000D03*
%TO.P,U25,11,B7*%
%TO.N,BUS_0*%
X111780000Y-95880000D03*
%TO.P,U25,12,B6*%
%TO.N,BUS_1*%
X109240000Y-95880000D03*
%TO.P,U25,13,B5*%
%TO.N,BUS_2*%
X106700000Y-95880000D03*
%TO.P,U25,14,B4*%
%TO.N,BUS_3*%
X104160000Y-95880000D03*
%TO.P,U25,15,B3*%
%TO.N,BUS_4*%
X101620000Y-95880000D03*
%TO.P,U25,16,B2*%
%TO.N,BUS_5*%
X99080000Y-95880000D03*
%TO.P,U25,17,B1*%
%TO.N,BUS_6*%
X96540000Y-95880000D03*
%TO.P,U25,18,B0*%
%TO.N,BUS_7*%
X94000000Y-95880000D03*
%TO.P,U25,19,CE*%
%TO.N,~{RO}*%
X91460000Y-95880000D03*
%TO.P,U25,20,VCC*%
%TO.N,VCC*%
X88920000Y-95880000D03*
%TD*%
D11*
%TO.P,D54,1,K*%
%TO.N,Net-(D54-K)*%
X162740000Y-125500000D03*
D12*
%TO.P,D54,2,A*%
%TO.N,Net-(D54-A)*%
X160200000Y-125500000D03*
%TD*%
D13*
%TO.P,R72,1*%
%TO.N,Net-(D69-K)*%
X338310000Y-192380000D03*
%TO.P,R72,2*%
%TO.N,GND*%
X338310000Y-200000000D03*
%TD*%
%TO.P,R52,1*%
%TO.N,Net-(D50-K)*%
X207000000Y-166880000D03*
%TO.P,R52,2*%
%TO.N,GND*%
X207000000Y-174500000D03*
%TD*%
D10*
%TO.P,C46,1*%
%TO.N,GND*%
X241760000Y-119120000D03*
%TO.P,C46,2*%
%TO.N,VCC*%
X241760000Y-117120000D03*
%TD*%
D11*
%TO.P,D116,1,K*%
%TO.N,Net-(D116-K)*%
X114960000Y-154160000D03*
D12*
%TO.P,D116,2,A*%
%TO.N,Net-(D116-A)*%
X114960000Y-151620000D03*
%TD*%
D10*
%TO.P,C35,1*%
%TO.N,GND*%
X241000000Y-81500000D03*
%TO.P,C35,2*%
%TO.N,VCC*%
X241000000Y-79500000D03*
%TD*%
D13*
%TO.P,R75,1*%
%TO.N,BUS_5*%
X330190000Y-178000000D03*
%TO.P,R75,2*%
%TO.N,GND*%
X337810000Y-178000000D03*
%TD*%
D22*
%TO.P,U14,1,S2*%
%TO.N,Net-(D18-A)*%
X337230000Y-102450000D03*
D13*
%TO.P,U14,2,B2*%
%TO.N,Net-(U14-B2)*%
X337230000Y-104990000D03*
%TO.P,U14,3,A2*%
%TO.N,/ALU/A_1*%
X337230000Y-107530000D03*
%TO.P,U14,4,S1*%
%TO.N,Net-(D19-A)*%
X337230000Y-110070000D03*
%TO.P,U14,5,A1*%
%TO.N,/ALU/A_0*%
X337230000Y-112610000D03*
%TO.P,U14,6,B1*%
%TO.N,Net-(U14-B1)*%
X337230000Y-115150000D03*
%TO.P,U14,7,C0*%
%TO.N,SU*%
X337230000Y-117690000D03*
%TO.P,U14,8,GND*%
%TO.N,GND*%
X337230000Y-120230000D03*
%TO.P,U14,9,C4*%
%TO.N,Net-(U13-C0)*%
X344850000Y-120230000D03*
%TO.P,U14,10,S4*%
%TO.N,Net-(D16-A)*%
X344850000Y-117690000D03*
%TO.P,U14,11,B4*%
%TO.N,Net-(U14-B4)*%
X344850000Y-115150000D03*
%TO.P,U14,12,A4*%
%TO.N,/ALU/A_3*%
X344850000Y-112610000D03*
%TO.P,U14,13,S3*%
%TO.N,Net-(D17-A)*%
X344850000Y-110070000D03*
%TO.P,U14,14,A3*%
%TO.N,/ALU/A_2*%
X344850000Y-107530000D03*
%TO.P,U14,15,B3*%
%TO.N,Net-(U14-B3)*%
X344850000Y-104990000D03*
%TO.P,U14,16,VCC*%
%TO.N,VCC*%
X344850000Y-102450000D03*
%TD*%
D10*
%TO.P,C56,1*%
%TO.N,VCC*%
X218566800Y-56326800D03*
%TO.P,C56,2*%
%TO.N,GND*%
X216566800Y-56326800D03*
%TD*%
D13*
%TO.P,R13,1*%
%TO.N,Net-(D15-K)*%
X374620000Y-86380000D03*
%TO.P,R13,2*%
%TO.N,GND*%
X374620000Y-94000000D03*
%TD*%
D14*
%TO.P,U9,1,Oe1*%
%TO.N,GND*%
X298020000Y-113620000D03*
D15*
%TO.P,U9,2,Oe2*%
X300560000Y-113620000D03*
%TO.P,U9,3,Q0*%
%TO.N,/ALU/B_3*%
X303100000Y-113620000D03*
%TO.P,U9,4,Q1*%
%TO.N,/ALU/B_2*%
X305640000Y-113620000D03*
%TO.P,U9,5,Q2*%
%TO.N,/ALU/B_1*%
X308180000Y-113620000D03*
%TO.P,U9,6,Q3*%
%TO.N,/ALU/B_0*%
X310720000Y-113620000D03*
%TO.P,U9,7,Cp*%
%TO.N,CLK*%
X313260000Y-113620000D03*
%TO.P,U9,8,GND*%
%TO.N,GND*%
X315800000Y-113620000D03*
%TO.P,U9,9,E1*%
%TO.N,~{BI}*%
X315800000Y-106000000D03*
%TO.P,U9,10,E2*%
X313260000Y-106000000D03*
%TO.P,U9,11,D3*%
%TO.N,BUS_0*%
X310720000Y-106000000D03*
%TO.P,U9,12,D2*%
%TO.N,BUS_1*%
X308180000Y-106000000D03*
%TO.P,U9,13,D1*%
%TO.N,BUS_2*%
X305640000Y-106000000D03*
%TO.P,U9,14,D0*%
%TO.N,BUS_3*%
X303100000Y-106000000D03*
%TO.P,U9,15,Mr*%
%TO.N,CLR*%
X300560000Y-106000000D03*
%TO.P,U9,16,VCC*%
%TO.N,VCC*%
X298020000Y-106000000D03*
%TD*%
D10*
%TO.P,C61,1*%
%TO.N,VCC*%
X246500000Y-144380000D03*
%TO.P,C61,2*%
%TO.N,GND*%
X246500000Y-142380000D03*
%TD*%
D11*
%TO.P,D13,1,K*%
%TO.N,Net-(D13-K)*%
X369060000Y-83920000D03*
D12*
%TO.P,D13,2,A*%
%TO.N,Net-(D13-A)*%
X369060000Y-81380000D03*
%TD*%
D13*
%TO.P,R76,1*%
%TO.N,BUS_4*%
X325190000Y-181000000D03*
%TO.P,R76,2*%
%TO.N,GND*%
X332810000Y-181000000D03*
%TD*%
D16*
%TO.P,U7,1,A->B*%
%TO.N,VCC*%
X241760000Y-114120000D03*
D17*
%TO.P,U7,2,A0*%
%TO.N,/ALU/B_4*%
X244300000Y-114120000D03*
%TO.P,U7,3,A1*%
%TO.N,/ALU/B_5*%
X246840000Y-114120000D03*
%TO.P,U7,4,A2*%
%TO.N,/ALU/B_6*%
X249380000Y-114120000D03*
%TO.P,U7,5,A3*%
%TO.N,/ALU/B_7*%
X251920000Y-114120000D03*
%TO.P,U7,6,A4*%
%TO.N,/ALU/B_0*%
X254460000Y-114120000D03*
%TO.P,U7,7,A5*%
%TO.N,/ALU/B_1*%
X257000000Y-114120000D03*
%TO.P,U7,8,A6*%
%TO.N,/ALU/B_2*%
X259540000Y-114120000D03*
%TO.P,U7,9,A7*%
%TO.N,/ALU/B_3*%
X262080000Y-114120000D03*
%TO.P,U7,10,GND*%
%TO.N,GND*%
X264620000Y-114120000D03*
%TO.P,U7,11,B7*%
%TO.N,BUS_0*%
X264620000Y-106500000D03*
%TO.P,U7,12,B6*%
%TO.N,BUS_1*%
X262080000Y-106500000D03*
%TO.P,U7,13,B5*%
%TO.N,BUS_2*%
X259540000Y-106500000D03*
%TO.P,U7,14,B4*%
%TO.N,BUS_3*%
X257000000Y-106500000D03*
%TO.P,U7,15,B3*%
%TO.N,BUS_4*%
X254460000Y-106500000D03*
%TO.P,U7,16,B2*%
%TO.N,BUS_5*%
X251920000Y-106500000D03*
%TO.P,U7,17,B1*%
%TO.N,BUS_6*%
X249380000Y-106500000D03*
%TO.P,U7,18,B0*%
%TO.N,BUS_7*%
X246840000Y-106500000D03*
%TO.P,U7,19,CE*%
%TO.N,VCC*%
X244300000Y-106500000D03*
%TO.P,U7,20,VCC*%
X241760000Y-106500000D03*
%TD*%
D11*
%TO.P,D9,1,K*%
%TO.N,Net-(D9-K)*%
X311500000Y-83540000D03*
D12*
%TO.P,D9,2,A*%
%TO.N,/ALU/A_0*%
X311500000Y-81000000D03*
%TD*%
D11*
%TO.P,D46,1,K*%
%TO.N,Net-(D46-K)*%
X186970000Y-162000000D03*
D12*
%TO.P,D46,2,A*%
%TO.N,Net-(D46-A)*%
X189510000Y-162000000D03*
%TD*%
D13*
%TO.P,R88,1*%
%TO.N,Net-(D117-K)*%
X121960000Y-157500000D03*
%TO.P,R88,2*%
%TO.N,GND*%
X121960000Y-165120000D03*
%TD*%
D11*
%TO.P,D52,1,K*%
%TO.N,Net-(D52-K)*%
X216970000Y-162000000D03*
D12*
%TO.P,D52,2,A*%
%TO.N,Net-(D52-A)*%
X219510000Y-162000000D03*
%TD*%
D13*
%TO.P,R82,1*%
%TO.N,Net-(J1-CC1)*%
X254000000Y-196500000D03*
%TO.P,R82,2*%
%TO.N,GND*%
X254000000Y-188880000D03*
%TD*%
%TO.P,R79,1*%
%TO.N,BUS_1*%
X311190000Y-178500000D03*
%TO.P,R79,2*%
%TO.N,GND*%
X318810000Y-178500000D03*
%TD*%
D10*
%TO.P,C58,1*%
%TO.N,VCC*%
X232500000Y-140000000D03*
%TO.P,C58,2*%
%TO.N,GND*%
X232500000Y-138000000D03*
%TD*%
%TO.P,C43,1*%
%TO.N,VCC*%
X276760000Y-103120000D03*
%TO.P,C43,2*%
%TO.N,GND*%
X276760000Y-101120000D03*
%TD*%
D13*
%TO.P,R47,1*%
%TO.N,Net-(D45-K)*%
X182000000Y-167000000D03*
%TO.P,R47,2*%
%TO.N,GND*%
X182000000Y-174620000D03*
%TD*%
%TO.P,R101,1*%
%TO.N,Net-(D4-K)*%
X289000000Y-86000000D03*
%TO.P,R101,2*%
%TO.N,GND*%
X289000000Y-93620000D03*
%TD*%
D11*
%TO.P,D32,1,K*%
%TO.N,Net-(D32-K)*%
X113000000Y-116540000D03*
D12*
%TO.P,D32,2,A*%
%TO.N,Net-(D32-A)*%
X113000000Y-114000000D03*
%TD*%
D11*
%TO.P,D58,1,K*%
%TO.N,Net-(D58-K)*%
X162740000Y-143500000D03*
D12*
%TO.P,D58,2,A*%
%TO.N,Net-(D58-A)*%
X160200000Y-143500000D03*
%TD*%
D13*
%TO.P,R22,1*%
%TO.N,Net-(D22-K)*%
X53400000Y-70620000D03*
%TO.P,R22,2*%
%TO.N,GND*%
X53400000Y-78240000D03*
%TD*%
D11*
%TO.P,D24,1,K*%
%TO.N,/MAR/PROG*%
X27500000Y-56620000D03*
D12*
%TO.P,D24,2,A*%
%TO.N,Net-(D24-A)*%
X27500000Y-54080000D03*
%TD*%
D13*
%TO.P,R48,1*%
%TO.N,Net-(D46-K)*%
X187000000Y-167000000D03*
%TO.P,R48,2*%
%TO.N,GND*%
X187000000Y-174620000D03*
%TD*%
D11*
%TO.P,D027,1,K*%
%TO.N,Net-(D027-K)*%
X303260000Y-119700000D03*
D12*
%TO.P,D027,2,A*%
%TO.N,/ALU/B_2*%
X303260000Y-117160000D03*
%TD*%
D11*
%TO.P,D20,1,K*%
%TO.N,Net-(D20-K)*%
X64500000Y-66620000D03*
D12*
%TO.P,D20,2,A*%
%TO.N,/MAR/A3*%
X64500000Y-64080000D03*
%TD*%
D11*
%TO.P,D8,1,K*%
%TO.N,Net-(D8-K)*%
X307000000Y-83540000D03*
D12*
%TO.P,D8,2,A*%
%TO.N,/ALU/A_1*%
X307000000Y-81000000D03*
%TD*%
D13*
%TO.P,R104,1*%
%TO.N,Net-(D7-K)*%
X302500000Y-86000000D03*
%TO.P,R104,2*%
%TO.N,GND*%
X302500000Y-93620000D03*
%TD*%
D10*
%TO.P,C8,1*%
%TO.N,VCC*%
X251500000Y-95000000D03*
%TO.P,C8,2*%
%TO.N,GND*%
X253500000Y-95000000D03*
%TD*%
D23*
%TO.P,RV1,*%
%TO.N,*%
X27275000Y-29200000D03*
X27275000Y-38800000D03*
D11*
%TO.P,RV1,1,1*%
%TO.N,Net-(U1-THR)*%
X19775000Y-31500000D03*
D12*
%TO.P,RV1,2,2*%
%TO.N,Net-(R2-Pad2)*%
X19775000Y-34000000D03*
%TO.P,RV1,3,3*%
%TO.N,unconnected-(RV1-Pad3)*%
X19775000Y-36500000D03*
%TD*%
D22*
%TO.P,U31,1,GND*%
%TO.N,GND*%
X224880000Y-143380000D03*
D13*
%TO.P,U31,2,TR*%
%TO.N,Net-(U31-THR)*%
X224880000Y-145920000D03*
%TO.P,U31,3,Q*%
%TO.N,Net-(U31-Q)*%
X224880000Y-148460000D03*
%TO.P,U31,4,R*%
%TO.N,unconnected-(U31-R-Pad4)*%
X224880000Y-151000000D03*
%TO.P,U31,5,CV*%
%TO.N,Net-(U31-CV)*%
X232500000Y-151000000D03*
%TO.P,U31,6,THR*%
%TO.N,Net-(U31-THR)*%
X232500000Y-148460000D03*
%TO.P,U31,7,DIS*%
%TO.N,Net-(U31-DIS)*%
X232500000Y-145920000D03*
%TO.P,U31,8,VCC*%
%TO.N,VCC*%
X232500000Y-143380000D03*
%TD*%
D10*
%TO.P,C37,1*%
%TO.N,VCC*%
X91000000Y-63000000D03*
%TO.P,C37,2*%
%TO.N,GND*%
X91000000Y-61000000D03*
%TD*%
%TO.P,C49,1*%
%TO.N,VCC*%
X347730000Y-76190000D03*
%TO.P,C49,2*%
%TO.N,GND*%
X349730000Y-76190000D03*
%TD*%
D13*
%TO.P,R3,1*%
%TO.N,VCC*%
X64000000Y-48310000D03*
%TO.P,R3,2*%
%TO.N,Net-(U2-TR)*%
X64000000Y-40690000D03*
%TD*%
D11*
%TO.P,D118,1,K*%
%TO.N,Net-(D118-K)*%
X128960000Y-154160000D03*
D12*
%TO.P,D118,2,A*%
%TO.N,Net-(D118-A)*%
X128960000Y-151620000D03*
%TD*%
D13*
%TO.P,R62,1*%
%TO.N,Net-(D60-K)*%
X184930000Y-137500000D03*
%TO.P,R62,2*%
%TO.N,GND*%
X192550000Y-137500000D03*
%TD*%
D11*
%TO.P,D022,1,K*%
%TO.N,Net-(D022-K)*%
X280760000Y-119660000D03*
D12*
%TO.P,D022,2,A*%
%TO.N,/ALU/B_7*%
X280760000Y-117120000D03*
%TD*%
D16*
%TO.P,U117,1,A->B*%
%TO.N,VCC*%
X55960000Y-144240000D03*
D17*
%TO.P,U117,2,A0*%
%TO.N,IR_4*%
X58500000Y-144240000D03*
%TO.P,U117,3,A1*%
%TO.N,IR_5*%
X61040000Y-144240000D03*
%TO.P,U117,4,A2*%
%TO.N,IR_6*%
X63580000Y-144240000D03*
%TO.P,U117,5,A3*%
%TO.N,IR_7*%
X66120000Y-144240000D03*
%TO.P,U117,6,A4*%
%TO.N,Net-(D119-A)*%
X68660000Y-144240000D03*
%TO.P,U117,7,A5*%
%TO.N,Net-(D118-A)*%
X71200000Y-144240000D03*
%TO.P,U117,8,A6*%
%TO.N,Net-(D117-A)*%
X73740000Y-144240000D03*
%TO.P,U117,9,A7*%
%TO.N,Net-(D116-A)*%
X76280000Y-144240000D03*
%TO.P,U117,10,GND*%
%TO.N,GND*%
X78820000Y-144240000D03*
%TO.P,U117,11,B7*%
%TO.N,BUS_0*%
X78820000Y-136620000D03*
%TO.P,U117,12,B6*%
%TO.N,BUS_1*%
X76280000Y-136620000D03*
%TO.P,U117,13,B5*%
%TO.N,BUS_2*%
X73740000Y-136620000D03*
%TO.P,U117,14,B4*%
%TO.N,BUS_3*%
X71200000Y-136620000D03*
%TO.P,U117,15,B3*%
%TO.N,BUS_4*%
X68660000Y-136620000D03*
%TO.P,U117,16,B2*%
%TO.N,BUS_5*%
X66120000Y-136620000D03*
%TO.P,U117,17,B1*%
%TO.N,BUS_6*%
X63580000Y-136620000D03*
%TO.P,U117,18,B0*%
%TO.N,BUS_7*%
X61040000Y-136620000D03*
%TO.P,U117,19,CE*%
%TO.N,~{IO}*%
X58500000Y-136620000D03*
%TO.P,U117,20,VCC*%
%TO.N,VCC*%
X55960000Y-136620000D03*
%TD*%
D13*
%TO.P,R7,1*%
%TO.N,Net-(D1-K)*%
X148000000Y-49190000D03*
%TO.P,R7,2*%
%TO.N,GND*%
X148000000Y-56810000D03*
%TD*%
D10*
%TO.P,C16,1*%
%TO.N,Net-(U31-THR)*%
X236000000Y-148000000D03*
%TO.P,C16,2*%
%TO.N,GND*%
X238000000Y-148000000D03*
%TD*%
D13*
%TO.P,R35,1*%
%TO.N,GND*%
X261496800Y-50626800D03*
%TO.P,R35,2*%
%TO.N,Net-(D36-K)*%
X253876800Y-50626800D03*
%TD*%
D11*
%TO.P,D41,1,K*%
%TO.N,Net-(D41-K)*%
X161970000Y-162000000D03*
D12*
%TO.P,D41,2,A*%
%TO.N,Net-(D41-A)*%
X164510000Y-162000000D03*
%TD*%
D13*
%TO.P,R85,1*%
%TO.N,Net-(D114-K)*%
X100960000Y-157620000D03*
%TO.P,R85,2*%
%TO.N,GND*%
X100960000Y-165240000D03*
%TD*%
D11*
%TO.P,D62,1,K*%
%TO.N,Net-(D62-K)*%
X303270000Y-188500000D03*
D12*
%TO.P,D62,2,A*%
%TO.N,BUS_0*%
X305810000Y-188500000D03*
%TD*%
D11*
%TO.P,D025,1,K*%
%TO.N,Net-(D025-K)*%
X294260000Y-119700000D03*
D12*
%TO.P,D025,2,A*%
%TO.N,/ALU/B_4*%
X294260000Y-117160000D03*
%TD*%
D10*
%TO.P,C14,1*%
%TO.N,CLK*%
X89500000Y-78500000D03*
%TO.P,C14,2*%
%TO.N,Net-(C14-Pad2)*%
X89500000Y-76500000D03*
%TD*%
D14*
%TO.P,U39,1*%
%TO.N,OI*%
X240380000Y-160960000D03*
D15*
%TO.P,U39,2*%
%TO.N,CLK*%
X240380000Y-163500000D03*
%TO.P,U39,3*%
%TO.N,Net-(U38-Cp)*%
X240380000Y-166040000D03*
%TO.P,U39,4*%
%TO.N,unconnected-(U39-Pad4)*%
X240380000Y-168580000D03*
%TO.P,U39,5*%
%TO.N,unconnected-(U39-Pad5)*%
X240380000Y-171120000D03*
%TO.P,U39,6*%
%TO.N,unconnected-(U39-Pad6)*%
X240380000Y-173660000D03*
%TO.P,U39,7,GND*%
%TO.N,GND*%
X240380000Y-176200000D03*
%TO.P,U39,8*%
%TO.N,unconnected-(U39-Pad8)*%
X248000000Y-176200000D03*
%TO.P,U39,9*%
%TO.N,unconnected-(U39-Pad9)*%
X248000000Y-173660000D03*
%TO.P,U39,10*%
%TO.N,unconnected-(U39-Pad10)*%
X248000000Y-171120000D03*
%TO.P,U39,11*%
%TO.N,unconnected-(U39-Pad11)*%
X248000000Y-168580000D03*
%TO.P,U39,12*%
%TO.N,unconnected-(U39-Pad12)*%
X248000000Y-166040000D03*
%TO.P,U39,13*%
%TO.N,unconnected-(U39-Pad13)*%
X248000000Y-163500000D03*
%TO.P,U39,14,VCC*%
%TO.N,VCC*%
X248000000Y-160960000D03*
%TD*%
D11*
%TO.P,D18,1,K*%
%TO.N,Net-(D18-K)*%
X390970000Y-83896800D03*
D12*
%TO.P,D18,2,A*%
%TO.N,Net-(D18-A)*%
X390970000Y-81356800D03*
%TD*%
D19*
%TO.P,U36,1,E*%
%TO.N,Net-(U34-E)*%
X341330000Y-172240000D03*
D13*
%TO.P,U36,2,D*%
%TO.N,Net-(U34-D)*%
X343870000Y-172240000D03*
%TO.P,U36,3,CC*%
%TO.N,Net-(U33A-O2)*%
X346410000Y-172240000D03*
%TO.P,U36,4,C*%
%TO.N,Net-(U34-C)*%
X348950000Y-172240000D03*
%TO.P,U36,5,DP*%
%TO.N,Net-(U34-DP)*%
X351490000Y-172240000D03*
%TO.P,U36,6,B*%
%TO.N,Net-(U34-B)*%
X351490000Y-157000000D03*
%TO.P,U36,7,A*%
%TO.N,Net-(U34-A)*%
X348950000Y-157000000D03*
%TO.P,U36,8,CC*%
%TO.N,Net-(U33A-O2)*%
X346410000Y-157000000D03*
%TO.P,U36,9,F*%
%TO.N,Net-(U34-F)*%
X343870000Y-157000000D03*
%TO.P,U36,10,G*%
%TO.N,Net-(U34-G)*%
X341330000Y-157000000D03*
%TD*%
D10*
%TO.P,C29,1*%
%TO.N,VCC*%
X383230000Y-99990000D03*
%TO.P,C29,2*%
%TO.N,GND*%
X383230000Y-97990000D03*
%TD*%
D13*
%TO.P,C2,1*%
%TO.N,GND*%
X80000000Y-34500000D03*
%TO.P,C2,2*%
%TO.N,Net-(U2-CV)*%
X77500000Y-34500000D03*
%TD*%
%TO.P,R64,1*%
%TO.N,Net-(R64-Pad1)*%
X103500000Y-62500000D03*
%TO.P,R64,2*%
%TO.N,GND*%
X103500000Y-54880000D03*
%TD*%
D10*
%TO.P,C33,1*%
%TO.N,GND*%
X153000000Y-41500000D03*
%TO.P,C33,2*%
%TO.N,VCC*%
X153000000Y-39500000D03*
%TD*%
D11*
%TO.P,D11,1,K*%
%TO.N,Net-(D11-K)*%
X358120000Y-83920000D03*
D12*
%TO.P,D11,2,A*%
%TO.N,Net-(D11-A)*%
X358120000Y-81380000D03*
%TD*%
D11*
%TO.P,D17,1,K*%
%TO.N,Net-(D17-K)*%
X385500000Y-83896800D03*
D12*
%TO.P,D17,2,A*%
%TO.N,Net-(D17-A)*%
X385500000Y-81356800D03*
%TD*%
D13*
%TO.P,C3,1*%
%TO.N,GND*%
X80000000Y-29000000D03*
%TO.P,C3,2*%
%TO.N,Net-(U2-DIS)*%
X77500000Y-29000000D03*
%TD*%
D10*
%TO.P,C32,1*%
%TO.N,VCC*%
X129500000Y-39500000D03*
%TO.P,C32,2*%
%TO.N,GND*%
X129500000Y-41500000D03*
%TD*%
D13*
%TO.P,R45,1*%
%TO.N,Net-(D43-K)*%
X172000000Y-167000000D03*
%TO.P,R45,2*%
%TO.N,GND*%
X172000000Y-174620000D03*
%TD*%
D11*
%TO.P,D27,1,K*%
%TO.N,Net-(D27-K)*%
X90500000Y-116540000D03*
D12*
%TO.P,D27,2,A*%
%TO.N,Net-(D27-A)*%
X90500000Y-114000000D03*
%TD*%
D13*
%TO.P,R10,1*%
%TO.N,GND*%
X412230000Y-98810000D03*
%TO.P,R10,2*%
%TO.N,Net-(D10-K)*%
X412230000Y-91190000D03*
%TD*%
D10*
%TO.P,C20,1*%
%TO.N,VCC*%
X187500000Y-75000000D03*
%TO.P,C20,2*%
%TO.N,GND*%
X189500000Y-75000000D03*
%TD*%
D21*
%TO.P,U23,1,A0*%
%TO.N,/MAR/A0*%
X116460000Y-103620000D03*
D13*
%TO.P,U23,2,\u002ACS*%
%TO.N,GND*%
X119000000Y-103620000D03*
%TO.P,U23,3,\u002AWE*%
%TO.N,Net-(U21-\u002AWE)*%
X121540000Y-103620000D03*
%TO.P,U23,4,D0*%
%TO.N,Net-(U23-D0)*%
X124080000Y-103620000D03*
%TO.P,U23,5,\u002AO0*%
%TO.N,Net-(U23-\u002AO0)*%
X126620000Y-103620000D03*
%TO.P,U23,6,D1*%
%TO.N,Net-(U23-D1)*%
X129160000Y-103620000D03*
%TO.P,U23,7,\u002AO1*%
%TO.N,Net-(U23-\u002AO1)*%
X131700000Y-103620000D03*
%TO.P,U23,8,GND*%
%TO.N,GND*%
X134240000Y-103620000D03*
%TO.P,U23,9,\u002AO2*%
%TO.N,Net-(U23-\u002AO2)*%
X134240000Y-96000000D03*
%TO.P,U23,10,D2*%
%TO.N,Net-(U23-D2)*%
X131700000Y-96000000D03*
%TO.P,U23,11,\u002AO3*%
%TO.N,Net-(U23-\u002AO3)*%
X129160000Y-96000000D03*
%TO.P,U23,12,D3*%
%TO.N,Net-(U23-D3)*%
X126620000Y-96000000D03*
%TO.P,U23,13,A3*%
%TO.N,/MAR/A3*%
X124080000Y-96000000D03*
%TO.P,U23,14,A2*%
%TO.N,/MAR/A2*%
X121540000Y-96000000D03*
%TO.P,U23,15,A1*%
%TO.N,/MAR/A1*%
X119000000Y-96000000D03*
%TO.P,U23,16,VCC*%
%TO.N,VCC*%
X116460000Y-96000000D03*
%TD*%
%TO.P,R102,1*%
%TO.N,Net-(D5-K)*%
X293500000Y-86000000D03*
%TO.P,R102,2*%
%TO.N,GND*%
X293500000Y-93620000D03*
%TD*%
D21*
%TO.P,U20,1*%
%TO.N,Net-(U51-Zc)*%
X67920000Y-90500000D03*
D13*
%TO.P,U20,2*%
%TO.N,Net-(U21-\u002AWE)*%
X70460000Y-90500000D03*
%TO.P,U20,3*%
%TO.N,Net-(U24-Zb)*%
X73000000Y-90500000D03*
%TO.P,U20,4*%
%TO.N,Net-(U23-D3)*%
X75540000Y-90500000D03*
%TO.P,U20,5*%
%TO.N,Net-(U24-Za)*%
X78080000Y-90500000D03*
%TO.P,U20,6*%
%TO.N,Net-(U23-D2)*%
X80620000Y-90500000D03*
%TO.P,U20,7,GND*%
%TO.N,GND*%
X83160000Y-90500000D03*
%TO.P,U20,8*%
%TO.N,Net-(U21-D3)*%
X83160000Y-82880000D03*
%TO.P,U20,9*%
%TO.N,Net-(U52-Zd)*%
X80620000Y-82880000D03*
%TO.P,U20,10*%
%TO.N,N/C*%
X78080000Y-82880000D03*
%TO.P,U20,11*%
X75540000Y-82880000D03*
%TO.P,U20,12*%
%TO.N,Net-(U23-D0)*%
X73000000Y-82880000D03*
%TO.P,U20,13*%
%TO.N,Net-(U24-Zd)*%
X70460000Y-82880000D03*
%TO.P,U20,14,VCC*%
%TO.N,VCC*%
X67920000Y-82880000D03*
%TD*%
D24*
%TO.P,J1,7,EH*%
%TO.N,GND*%
X252680000Y-201370000D03*
%TO.P,J1,8,EH*%
X261320000Y-201370000D03*
D25*
%TO.P,J1,A5,CC1*%
%TO.N,Net-(J1-CC1)*%
X256400000Y-201630000D03*
%TO.P,J1,A9,VBUS*%
%TO.N,VCC*%
X255200000Y-201630000D03*
%TO.P,J1,A12,GND*%
%TO.N,GND*%
X254000000Y-201630000D03*
%TO.P,J1,B5,CC2*%
%TO.N,Net-(J1-CC2)*%
X257600000Y-201630000D03*
%TO.P,J1,B9,VBUS*%
%TO.N,VCC*%
X258800000Y-201630000D03*
%TO.P,J1,B12,GND*%
%TO.N,GND*%
X260000000Y-201630000D03*
%TD*%
D13*
%TO.P,R32,1*%
%TO.N,Net-(C14-Pad2)*%
X94000000Y-77000000D03*
%TO.P,R32,2*%
%TO.N,GND*%
X101620000Y-77000000D03*
%TD*%
D11*
%TO.P,D69,1,K*%
%TO.N,Net-(D69-K)*%
X338270000Y-188500000D03*
D12*
%TO.P,D69,2,A*%
%TO.N,BUS_7*%
X340810000Y-188500000D03*
%TD*%
D13*
%TO.P,R54,1*%
%TO.N,Net-(D52-K)*%
X217000000Y-166690000D03*
%TO.P,R54,2*%
%TO.N,GND*%
X217000000Y-174310000D03*
%TD*%
D11*
%TO.P,D49,1,K*%
%TO.N,Net-(D49-K)*%
X201970000Y-162000000D03*
D12*
%TO.P,D49,2,A*%
%TO.N,OI*%
X204510000Y-162000000D03*
%TD*%
D20*
%TO.P,SW1,1,1*%
%TO.N,GND*%
X54500000Y-32500000D03*
X61000000Y-32500000D03*
%TO.P,SW1,2,2*%
%TO.N,Net-(U2-TR)*%
X54500000Y-37000000D03*
X61000000Y-37000000D03*
%TD*%
D11*
%TO.P,D119,1,K*%
%TO.N,Net-(D119-K)*%
X135960000Y-154160000D03*
D12*
%TO.P,D119,2,A*%
%TO.N,Net-(D119-A)*%
X135960000Y-151620000D03*
%TD*%
D21*
%TO.P,U22,1*%
%TO.N,Net-(U52-Za)*%
X90420000Y-90000000D03*
D13*
%TO.P,U22,2*%
%TO.N,Net-(U21-D0)*%
X92960000Y-90000000D03*
%TO.P,U22,3*%
%TO.N,unconnected-(U22-Pad3)*%
X95500000Y-90000000D03*
%TO.P,U22,4*%
%TO.N,unconnected-(U22-Pad4)*%
X98040000Y-90000000D03*
%TO.P,U22,5*%
%TO.N,unconnected-(U22-Pad5)*%
X100580000Y-90000000D03*
%TO.P,U22,6*%
%TO.N,unconnected-(U22-Pad6)*%
X103120000Y-90000000D03*
%TO.P,U22,7,GND*%
%TO.N,GND*%
X105660000Y-90000000D03*
%TO.P,U22,8*%
%TO.N,unconnected-(U22-Pad8)*%
X105660000Y-82380000D03*
%TO.P,U22,9*%
%TO.N,unconnected-(U22-Pad9)*%
X103120000Y-82380000D03*
%TO.P,U22,10*%
%TO.N,Net-(U23-D1)*%
X100580000Y-82380000D03*
%TO.P,U22,11*%
%TO.N,Net-(U24-Zc)*%
X98040000Y-82380000D03*
%TO.P,U22,12*%
%TO.N,unconnected-(U22-Pad12)*%
X95500000Y-82380000D03*
%TO.P,U22,13*%
%TO.N,unconnected-(U22-Pad13)*%
X92960000Y-82380000D03*
%TO.P,U22,14,VCC*%
%TO.N,VCC*%
X90420000Y-82380000D03*
%TD*%
D14*
%TO.P,U18,1,S*%
%TO.N,/MAR/PROG*%
X66740000Y-50620000D03*
D15*
%TO.P,U18,2,I0a*%
%TO.N,Net-(U18-I0a)*%
X64200000Y-50620000D03*
%TO.P,U18,3,I1a*%
%TO.N,Net-(U18-I1a)*%
X61660000Y-50620000D03*
%TO.P,U18,4,Za*%
%TO.N,/MAR/A3*%
X59120000Y-50620000D03*
%TO.P,U18,5,I0b*%
%TO.N,Net-(U18-I0b)*%
X56580000Y-50620000D03*
%TO.P,U18,6,I1b*%
%TO.N,Net-(U18-I1b)*%
X54040000Y-50620000D03*
%TO.P,U18,7,Zb*%
%TO.N,/MAR/A2*%
X51500000Y-50620000D03*
%TO.P,U18,8,GND*%
%TO.N,GND*%
X48960000Y-50620000D03*
%TO.P,U18,9,Zc*%
%TO.N,/MAR/A1*%
X48960000Y-58240000D03*
%TO.P,U18,10,I1c*%
%TO.N,Net-(U18-I1c)*%
X51500000Y-58240000D03*
%TO.P,U18,11,I0c*%
%TO.N,Net-(U18-I0c)*%
X54040000Y-58240000D03*
%TO.P,U18,12,Zd*%
%TO.N,/MAR/A0*%
X56580000Y-58240000D03*
%TO.P,U18,13,I1d*%
%TO.N,Net-(U18-I1d)*%
X59120000Y-58240000D03*
%TO.P,U18,14,I0d*%
%TO.N,Net-(U18-I0d)*%
X61660000Y-58240000D03*
%TO.P,U18,15,E*%
%TO.N,GND*%
X64200000Y-58240000D03*
%TO.P,U18,16,VCC*%
%TO.N,VCC*%
X66740000Y-58240000D03*
%TD*%
D11*
%TO.P,D50,1,K*%
%TO.N,Net-(D50-K)*%
X206970000Y-162000000D03*
D12*
%TO.P,D50,2,A*%
%TO.N,CE*%
X209510000Y-162000000D03*
%TD*%
D10*
%TO.P,C24,1*%
%TO.N,VCC*%
X66000000Y-27000000D03*
%TO.P,C24,2*%
%TO.N,GND*%
X66000000Y-25000000D03*
%TD*%
%TO.P,C42,1*%
%TO.N,VCC*%
X64000000Y-83000000D03*
%TO.P,C42,2*%
%TO.N,GND*%
X62000000Y-83000000D03*
%TD*%
%TO.P,C28,1*%
%TO.N,GND*%
X35500000Y-37000000D03*
%TO.P,C28,2*%
%TO.N,VCC*%
X35500000Y-35000000D03*
%TD*%
%TO.P,C13,1*%
%TO.N,VCC*%
X76000000Y-68000000D03*
%TO.P,C13,2*%
%TO.N,GND*%
X78000000Y-68000000D03*
%TD*%
%TO.P,C68,1*%
%TO.N,VCC*%
X214500000Y-120500000D03*
%TO.P,C68,2*%
%TO.N,GND*%
X216500000Y-120500000D03*
%TD*%
D13*
%TO.P,R12,1*%
%TO.N,Net-(D13-K)*%
X369120000Y-86380000D03*
%TO.P,R12,2*%
%TO.N,GND*%
X369120000Y-94000000D03*
%TD*%
D10*
%TO.P,C51,1*%
%TO.N,VCC*%
X81500000Y-76000000D03*
%TO.P,C51,2*%
%TO.N,GND*%
X83500000Y-76000000D03*
%TD*%
D11*
%TO.P,D1,1,K*%
%TO.N,Net-(D1-K)*%
X148000000Y-45000000D03*
D12*
%TO.P,D1,2,A*%
%TO.N,CLK*%
X148000000Y-42460000D03*
%TD*%
D13*
%TO.P,R57,1*%
%TO.N,Net-(D57-A)*%
X157740000Y-139000000D03*
%TO.P,R57,2*%
%TO.N,VCC*%
X150120000Y-139000000D03*
%TD*%
%TO.P,R37,1*%
%TO.N,VCC*%
X242294900Y-143041000D03*
%TO.P,R37,2*%
%TO.N,Net-(U31-DIS)*%
X234674900Y-143041000D03*
%TD*%
%TO.P,R94,1*%
%TO.N,Net-(D025-K)*%
X294260000Y-122120000D03*
%TO.P,R94,2*%
%TO.N,GND*%
X294260000Y-129740000D03*
%TD*%
D11*
%TO.P,D19,1,K*%
%TO.N,Net-(D19-K)*%
X396440000Y-83896800D03*
D12*
%TO.P,D19,2,A*%
%TO.N,Net-(D19-A)*%
X396440000Y-81356800D03*
%TD*%
D11*
%TO.P,D61,1,K*%
%TO.N,Net-(D61-K)*%
X182240000Y-132500000D03*
D12*
%TO.P,D61,2,A*%
%TO.N,Net-(D61-A)*%
X179700000Y-132500000D03*
%TD*%
D13*
%TO.P,R24,1*%
%TO.N,Net-(D26-K)*%
X86000000Y-119190000D03*
%TO.P,R24,2*%
%TO.N,GND*%
X86000000Y-126810000D03*
%TD*%
D10*
%TO.P,C48,1*%
%TO.N,VCC*%
X64500000Y-92000000D03*
%TO.P,C48,2*%
%TO.N,GND*%
X62500000Y-92000000D03*
%TD*%
%TO.P,C75,1*%
%TO.N,VCC*%
X260000000Y-197000000D03*
%TO.P,C75,2*%
%TO.N,GND*%
X262000000Y-197000000D03*
%TD*%
D11*
%TO.P,D34,1,K*%
%TO.N,Net-(D34-K)*%
X251186800Y-41626800D03*
D12*
%TO.P,D34,2,A*%
%TO.N,Net-(D34-A)*%
X248646800Y-41626800D03*
%TD*%
D13*
%TO.P,R23,1*%
%TO.N,Net-(D23-K)*%
X48000000Y-70620000D03*
%TO.P,R23,2*%
%TO.N,GND*%
X48000000Y-78240000D03*
%TD*%
D10*
%TO.P,C52,1*%
%TO.N,VCC*%
X347730000Y-102690000D03*
%TO.P,C52,2*%
%TO.N,GND*%
X349730000Y-102690000D03*
%TD*%
D13*
%TO.P,R103,1*%
%TO.N,Net-(D6-K)*%
X298000000Y-86000000D03*
%TO.P,R103,2*%
%TO.N,GND*%
X298000000Y-93620000D03*
%TD*%
D21*
%TO.P,U52,1,S*%
%TO.N,/MAR/PROG*%
X162560000Y-86435000D03*
D13*
%TO.P,U52,2,I0a*%
%TO.N,Net-(U52-I0a)*%
X165100000Y-86435000D03*
%TO.P,U52,3,I1a*%
%TO.N,BUS_7*%
X167640000Y-86435000D03*
%TO.P,U52,4,Za*%
%TO.N,Net-(U52-Za)*%
X170180000Y-86435000D03*
%TO.P,U52,5,I0b*%
%TO.N,Net-(U52-I0b)*%
X172720000Y-86435000D03*
%TO.P,U52,6,I1b*%
%TO.N,BUS_6*%
X175260000Y-86435000D03*
%TO.P,U52,7,Zb*%
%TO.N,Net-(U52-Zb)*%
X177800000Y-86435000D03*
%TO.P,U52,8,GND*%
%TO.N,GND*%
X180340000Y-86435000D03*
%TO.P,U52,9,Zd*%
%TO.N,Net-(U52-Zd)*%
X180340000Y-78815000D03*
%TO.P,U52,10,I1d*%
%TO.N,BUS_4*%
X177800000Y-78815000D03*
%TO.P,U52,11,I0d*%
%TO.N,Net-(U52-I0d)*%
X175260000Y-78815000D03*
%TO.P,U52,12,Zc*%
%TO.N,Net-(U52-Zc)*%
X172720000Y-78815000D03*
%TO.P,U52,13,I1c*%
%TO.N,BUS_5*%
X170180000Y-78815000D03*
%TO.P,U52,14,I0c*%
%TO.N,Net-(U52-I0c)*%
X167640000Y-78815000D03*
%TO.P,U52,15,E*%
%TO.N,GND*%
X165100000Y-78815000D03*
%TO.P,U52,16,VCC*%
%TO.N,VCC*%
X162560000Y-78815000D03*
%TD*%
%TO.P,R71,1*%
%TO.N,Net-(D68-K)*%
X333310000Y-192690000D03*
%TO.P,R71,2*%
%TO.N,GND*%
X333310000Y-200310000D03*
%TD*%
%TO.P,R60,1*%
%TO.N,Net-(D54-A)*%
X157740000Y-125500000D03*
%TO.P,R60,2*%
%TO.N,VCC*%
X150120000Y-125500000D03*
%TD*%
D14*
%TO.P,U27,1*%
%TO.N,Net-(U21-\u002AO0)*%
X138100000Y-70120000D03*
D15*
%TO.P,U27,2*%
%TO.N,Net-(D26-A)*%
X140640000Y-70120000D03*
%TO.P,U27,3*%
%TO.N,Net-(U21-\u002AO1)*%
X143180000Y-70120000D03*
%TO.P,U27,4*%
%TO.N,Net-(D27-A)*%
X145720000Y-70120000D03*
%TO.P,U27,5*%
%TO.N,Net-(U21-\u002AO2)*%
X148260000Y-70120000D03*
%TO.P,U27,6*%
%TO.N,Net-(D28-A)*%
X150800000Y-70120000D03*
%TO.P,U27,7,GND*%
%TO.N,GND*%
X153340000Y-70120000D03*
%TO.P,U27,8*%
%TO.N,Net-(D29-A)*%
X153340000Y-62500000D03*
%TO.P,U27,9*%
%TO.N,Net-(U21-\u002AO3)*%
X150800000Y-62500000D03*
%TO.P,U27,10*%
%TO.N,Net-(D30-A)*%
X148260000Y-62500000D03*
%TO.P,U27,11*%
%TO.N,Net-(U23-\u002AO3)*%
X145720000Y-62500000D03*
%TO.P,U27,12*%
%TO.N,Net-(D31-A)*%
X143180000Y-62500000D03*
%TO.P,U27,13*%
%TO.N,Net-(U23-\u002AO2)*%
X140640000Y-62500000D03*
%TO.P,U27,14,VCC*%
%TO.N,VCC*%
X138100000Y-62500000D03*
%TD*%
D14*
%TO.P,U26,1*%
%TO.N,Net-(C14-Pad2)*%
X90880000Y-73310000D03*
D15*
%TO.P,U26,2*%
%TO.N,RI*%
X93420000Y-73310000D03*
%TO.P,U26,3*%
%TO.N,Net-(U51-I1c)*%
X95960000Y-73310000D03*
%TO.P,U26,4*%
%TO.N,~{CLR}*%
X98500000Y-73310000D03*
%TO.P,U26,5*%
%TO.N,Net-(U42-O5)*%
X101040000Y-73310000D03*
%TO.P,U26,6*%
%TO.N,Net-(U26-Pad6)*%
X103580000Y-73310000D03*
%TO.P,U26,7,GND*%
%TO.N,GND*%
X106120000Y-73310000D03*
%TO.P,U26,8*%
%TO.N,~{CLR}*%
X106120000Y-65690000D03*
%TO.P,U26,9*%
%TO.N,Net-(R64-Pad1)*%
X103580000Y-65690000D03*
%TO.P,U26,10*%
X101040000Y-65690000D03*
%TO.P,U26,11*%
%TO.N,CLR*%
X98500000Y-65690000D03*
%TO.P,U26,12*%
%TO.N,~{CLR}*%
X95960000Y-65690000D03*
%TO.P,U26,13*%
X93420000Y-65690000D03*
%TO.P,U26,14,VCC*%
%TO.N,VCC*%
X90880000Y-65690000D03*
%TD*%
D11*
%TO.P,D68,1,K*%
%TO.N,Net-(D68-K)*%
X333270000Y-188500000D03*
D12*
%TO.P,D68,2,A*%
%TO.N,BUS_6*%
X335810000Y-188500000D03*
%TD*%
D13*
%TO.P,R51,1*%
%TO.N,Net-(D49-K)*%
X202000000Y-167000000D03*
%TO.P,R51,2*%
%TO.N,GND*%
X202000000Y-174620000D03*
%TD*%
%TO.P,R20,1*%
%TO.N,Net-(D20-K)*%
X64500000Y-70310000D03*
%TO.P,R20,2*%
%TO.N,GND*%
X64500000Y-77930000D03*
%TD*%
%TO.P,R74,1*%
%TO.N,BUS_6*%
X336190000Y-181000000D03*
%TO.P,R74,2*%
%TO.N,GND*%
X343810000Y-181000000D03*
%TD*%
D21*
%TO.P,U2,1,GND*%
%TO.N,GND*%
X66190000Y-37805000D03*
D13*
%TO.P,U2,2,TR*%
%TO.N,Net-(U2-TR)*%
X68730000Y-37805000D03*
%TO.P,U2,3,Q*%
%TO.N,Net-(U2-Q)*%
X71270000Y-37805000D03*
%TO.P,U2,4,R*%
%TO.N,VCC*%
X73810000Y-37805000D03*
%TO.P,U2,5,CV*%
%TO.N,Net-(U2-CV)*%
X73810000Y-30185000D03*
%TO.P,U2,6,THR*%
%TO.N,Net-(U2-DIS)*%
X71270000Y-30185000D03*
%TO.P,U2,7,DIS*%
X68730000Y-30185000D03*
%TO.P,U2,8,VCC*%
%TO.N,VCC*%
X66190000Y-30185000D03*
%TD*%
D11*
%TO.P,D029,1,K*%
%TO.N,Net-(D029-K)*%
X312212400Y-119693700D03*
D12*
%TO.P,D029,2,A*%
%TO.N,/ALU/B_0*%
X312212400Y-117153700D03*
%TD*%
D13*
%TO.P,R40,1*%
%TO.N,Net-(D38-K)*%
X147000000Y-167000000D03*
%TO.P,R40,2*%
%TO.N,GND*%
X147000000Y-174620000D03*
%TD*%
%TO.P,R29,1*%
%TO.N,Net-(D31-K)*%
X108500000Y-119000000D03*
%TO.P,R29,2*%
%TO.N,GND*%
X108500000Y-126620000D03*
%TD*%
D18*
%TO.P,SW2,1,A*%
%TO.N,Net-(SW2-A)*%
X90000000Y-32040000D03*
D13*
%TO.P,SW2,2,B*%
%TO.N,GND*%
X90000000Y-29500000D03*
%TO.P,SW2,3,C*%
%TO.N,Net-(SW2-C)*%
X90000000Y-34580000D03*
%TD*%
D26*
%TO.P,U5,1*%
%TO.N,Net-(U3-Q)*%
X150540000Y-28880000D03*
D13*
%TO.P,U5,2*%
%TO.N,Net-(U4-Pad4)*%
X148000000Y-28880000D03*
%TO.P,U5,3*%
%TO.N,Net-(U52-Zb)*%
X145460000Y-28880000D03*
%TO.P,U5,4*%
%TO.N,Net-(U21-D1)*%
X142920000Y-28880000D03*
%TO.P,U5,5*%
%TO.N,Net-(U52-Zc)*%
X140380000Y-28880000D03*
%TO.P,U5,6*%
%TO.N,Net-(U21-D2)*%
X137840000Y-28880000D03*
%TO.P,U5,7,GND*%
%TO.N,GND*%
X135300000Y-28880000D03*
%TO.P,U5,8*%
%TO.N,Net-(U4-Pad10)*%
X135300000Y-36500000D03*
%TO.P,U5,9*%
%TO.N,HLT*%
X137840000Y-36500000D03*
%TO.P,U5,10*%
%TO.N,N/C*%
X140380000Y-36500000D03*
%TO.P,U5,11*%
X142920000Y-36500000D03*
%TO.P,U5,12*%
%TO.N,~{CLK}*%
X145460000Y-36500000D03*
%TO.P,U5,13*%
%TO.N,CLK*%
X148000000Y-36500000D03*
%TO.P,U5,14,VCC*%
%TO.N,VCC*%
X150540000Y-36500000D03*
%TD*%
D10*
%TO.P,C118,1*%
%TO.N,VCC*%
X127000000Y-132500000D03*
%TO.P,C118,2*%
%TO.N,GND*%
X127000000Y-130500000D03*
%TD*%
D13*
%TO.P,R70,1*%
%TO.N,Net-(D67-K)*%
X328310000Y-192690000D03*
%TO.P,R70,2*%
%TO.N,GND*%
X328310000Y-200310000D03*
%TD*%
D10*
%TO.P,C10,1*%
%TO.N,VCC*%
X394730000Y-111690000D03*
%TO.P,C10,2*%
%TO.N,GND*%
X396730000Y-111690000D03*
%TD*%
D11*
%TO.P,D28,1,K*%
%TO.N,Net-(D28-K)*%
X95000000Y-116540000D03*
D12*
%TO.P,D28,2,A*%
%TO.N,Net-(D28-A)*%
X95000000Y-114000000D03*
%TD*%
D16*
%TO.P,U17,1,A->B*%
%TO.N,VCC*%
X369300000Y-77500000D03*
D17*
%TO.P,U17,2,A0*%
%TO.N,Net-(D11-A)*%
X371840000Y-77500000D03*
%TO.P,U17,3,A1*%
%TO.N,Net-(D12-A)*%
X374380000Y-77500000D03*
%TO.P,U17,4,A2*%
%TO.N,Net-(D13-A)*%
X376920000Y-77500000D03*
%TO.P,U17,5,A3*%
%TO.N,Net-(D15-A)*%
X379460000Y-77500000D03*
%TO.P,U17,6,A4*%
%TO.N,Net-(D16-A)*%
X382000000Y-77500000D03*
%TO.P,U17,7,A5*%
%TO.N,Net-(D17-A)*%
X384540000Y-77500000D03*
%TO.P,U17,8,A6*%
%TO.N,Net-(D18-A)*%
X387080000Y-77500000D03*
%TO.P,U17,9,A7*%
%TO.N,Net-(D19-A)*%
X389620000Y-77500000D03*
%TO.P,U17,10,GND*%
%TO.N,GND*%
X392160000Y-77500000D03*
%TO.P,U17,11,B7*%
%TO.N,BUS_0*%
X392160000Y-69880000D03*
%TO.P,U17,12,B6*%
%TO.N,BUS_1*%
X389620000Y-69880000D03*
%TO.P,U17,13,B5*%
%TO.N,BUS_2*%
X387080000Y-69880000D03*
%TO.P,U17,14,B4*%
%TO.N,BUS_3*%
X384540000Y-69880000D03*
%TO.P,U17,15,B3*%
%TO.N,BUS_4*%
X382000000Y-69880000D03*
%TO.P,U17,16,B2*%
%TO.N,BUS_5*%
X379460000Y-69880000D03*
%TO.P,U17,17,B1*%
%TO.N,BUS_6*%
X376920000Y-69880000D03*
%TO.P,U17,18,B0*%
%TO.N,BUS_7*%
X374380000Y-69880000D03*
%TO.P,U17,19,CE*%
%TO.N,~{EO}*%
X371840000Y-69880000D03*
%TO.P,U17,20,VCC*%
%TO.N,VCC*%
X369300000Y-69880000D03*
%TD*%
D11*
%TO.P,D56,1,K*%
%TO.N,Net-(D56-K)*%
X162740000Y-134500000D03*
D12*
%TO.P,D56,2,A*%
%TO.N,Net-(D56-A)*%
X160200000Y-134500000D03*
%TD*%
D11*
%TO.P,D47,1,K*%
%TO.N,Net-(D47-K)*%
X191970000Y-162000000D03*
D12*
%TO.P,D47,2,A*%
%TO.N,SU*%
X194510000Y-162000000D03*
%TD*%
D14*
%TO.P,U15,1*%
%TO.N,/ALU/B_5*%
X318730000Y-136450000D03*
D15*
%TO.P,U15,2*%
%TO.N,SU*%
X318730000Y-138990000D03*
%TO.P,U15,3*%
%TO.N,Net-(U13-B2)*%
X318730000Y-141530000D03*
%TO.P,U15,4*%
%TO.N,/ALU/B_4*%
X318730000Y-144070000D03*
%TO.P,U15,5*%
%TO.N,SU*%
X318730000Y-146610000D03*
%TO.P,U15,6*%
%TO.N,Net-(U13-B1)*%
X318730000Y-149150000D03*
%TO.P,U15,7,GND*%
%TO.N,GND*%
X318730000Y-151690000D03*
%TO.P,U15,8*%
%TO.N,Net-(U13-B4)*%
X326350000Y-151690000D03*
%TO.P,U15,9*%
%TO.N,/ALU/B_7*%
X326350000Y-149150000D03*
%TO.P,U15,10*%
%TO.N,SU*%
X326350000Y-146610000D03*
%TO.P,U15,11*%
%TO.N,Net-(U13-B3)*%
X326350000Y-144070000D03*
%TO.P,U15,12*%
%TO.N,/ALU/B_6*%
X326350000Y-141530000D03*
%TO.P,U15,13*%
%TO.N,SU*%
X326350000Y-138990000D03*
%TO.P,U15,14,VCC*%
%TO.N,VCC*%
X326350000Y-136450000D03*
%TD*%
D10*
%TO.P,C12,1*%
%TO.N,VCC*%
X76000000Y-74000000D03*
%TO.P,C12,2*%
%TO.N,GND*%
X78000000Y-74000000D03*
%TD*%
D22*
%TO.P,U16,1*%
%TO.N,/ALU/B_1*%
X318610000Y-116950000D03*
D13*
%TO.P,U16,2*%
%TO.N,SU*%
X318610000Y-119490000D03*
%TO.P,U16,3*%
%TO.N,Net-(U14-B3)*%
X318610000Y-122030000D03*
%TO.P,U16,4*%
%TO.N,/ALU/B_0*%
X318610000Y-124570000D03*
%TO.P,U16,5*%
%TO.N,SU*%
X318610000Y-127110000D03*
%TO.P,U16,6*%
%TO.N,Net-(U14-B1)*%
X318610000Y-129650000D03*
%TO.P,U16,7,GND*%
%TO.N,GND*%
X318610000Y-132190000D03*
%TO.P,U16,8*%
%TO.N,Net-(U14-B4)*%
X326230000Y-132190000D03*
%TO.P,U16,9*%
%TO.N,/ALU/B_3*%
X326230000Y-129650000D03*
%TO.P,U16,10*%
%TO.N,SU*%
X326230000Y-127110000D03*
%TO.P,U16,11*%
%TO.N,Net-(U14-B2)*%
X326230000Y-124570000D03*
%TO.P,U16,12*%
%TO.N,/ALU/B_2*%
X326230000Y-122030000D03*
%TO.P,U16,13*%
%TO.N,SU*%
X326230000Y-119490000D03*
%TO.P,U16,14,VCC*%
%TO.N,VCC*%
X326230000Y-116950000D03*
%TD*%
D10*
%TO.P,C17,1*%
%TO.N,Net-(U31-CV)*%
X236000000Y-153500000D03*
%TO.P,C17,2*%
%TO.N,GND*%
X238000000Y-153500000D03*
%TD*%
D13*
%TO.P,R69,1*%
%TO.N,Net-(D66-K)*%
X323310000Y-192880000D03*
%TO.P,R69,2*%
%TO.N,GND*%
X323310000Y-200500000D03*
%TD*%
D22*
%TO.P,U10,1*%
%TO.N,Net-(U10-Pad1)*%
X375730000Y-103650000D03*
D13*
%TO.P,U10,2*%
%TO.N,Net-(U10-Pad2)*%
X375730000Y-106190000D03*
%TO.P,U10,3*%
%TO.N,Net-(U10-Pad3)*%
X375730000Y-108730000D03*
%TO.P,U10,4*%
%TO.N,Net-(U10-Pad4)*%
X375730000Y-111270000D03*
%TO.P,U10,5*%
%TO.N,Net-(U10-Pad3)*%
X375730000Y-113810000D03*
%TO.P,U10,6*%
%TO.N,Net-(U12-D1)*%
X375730000Y-116350000D03*
%TO.P,U10,7,GND*%
%TO.N,GND*%
X375730000Y-118890000D03*
%TO.P,U10,8*%
%TO.N,Net-(U10-Pad4)*%
X383350000Y-118890000D03*
%TO.P,U10,9*%
%TO.N,Net-(U10-Pad9)*%
X383350000Y-116350000D03*
%TO.P,U10,10*%
%TO.N,Net-(U10-Pad10)*%
X383350000Y-113810000D03*
%TO.P,U10,11*%
%TO.N,unconnected-(U10-Pad11)*%
X383350000Y-111270000D03*
%TO.P,U10,12*%
%TO.N,unconnected-(U10-Pad12)*%
X383350000Y-108730000D03*
%TO.P,U10,13*%
%TO.N,unconnected-(U10-Pad13)*%
X383350000Y-106190000D03*
%TO.P,U10,14,VCC*%
%TO.N,VCC*%
X383350000Y-103650000D03*
%TD*%
%TO.P,R8,1*%
%TO.N,Net-(D14-K)*%
X407730000Y-91380000D03*
%TO.P,R8,2*%
%TO.N,GND*%
X407730000Y-99000000D03*
%TD*%
D11*
%TO.P,D44,1,K*%
%TO.N,Net-(D44-K)*%
X176970000Y-162000000D03*
D12*
%TO.P,D44,2,A*%
%TO.N,Net-(D44-A)*%
X179510000Y-162000000D03*
%TD*%
D13*
%TO.P,R67,1*%
%TO.N,Net-(D64-K)*%
X313310000Y-192690000D03*
%TO.P,R67,2*%
%TO.N,GND*%
X313310000Y-200310000D03*
%TD*%
D11*
%TO.P,D60,1,K*%
%TO.N,Net-(D60-K)*%
X182240000Y-137500000D03*
D12*
%TO.P,D60,2,A*%
%TO.N,Net-(D60-A)*%
X179700000Y-137500000D03*
%TD*%
D13*
%TO.P,R33,1*%
%TO.N,GND*%
X261306800Y-41626800D03*
%TO.P,R33,2*%
%TO.N,Net-(D34-K)*%
X253686800Y-41626800D03*
%TD*%
D11*
%TO.P,D10,1,K*%
%TO.N,Net-(D10-K)*%
X412230000Y-88976900D03*
D12*
%TO.P,D10,2,A*%
%TO.N,ZF*%
X412230000Y-86436900D03*
%TD*%
D11*
%TO.P,D14,1,K*%
%TO.N,Net-(D14-K)*%
X407753700Y-88960000D03*
D12*
%TO.P,D14,2,A*%
%TO.N,CF*%
X407753700Y-86420000D03*
%TD*%
D14*
%TO.P,U45,1*%
%TO.N,Net-(U26-Pad6)*%
X168620000Y-103000000D03*
D15*
%TO.P,U45,2*%
X168620000Y-105540000D03*
%TO.P,U45,3*%
%TO.N,Net-(U41-~{MR})*%
X168620000Y-108080000D03*
%TO.P,U45,4*%
%TO.N,N/C*%
X168620000Y-110620000D03*
%TO.P,U45,5*%
X168620000Y-113160000D03*
%TO.P,U45,6*%
X168620000Y-115700000D03*
%TO.P,U45,7,GND*%
%TO.N,GND*%
X168620000Y-118240000D03*
%TO.P,U45,8*%
%TO.N,N/C*%
X176240000Y-118240000D03*
%TO.P,U45,9*%
X176240000Y-115700000D03*
%TO.P,U45,10*%
X176240000Y-113160000D03*
%TO.P,U45,11*%
X176240000Y-110620000D03*
%TO.P,U45,12*%
X176240000Y-108080000D03*
%TO.P,U45,13*%
X176240000Y-105540000D03*
%TO.P,U45,14,VCC*%
%TO.N,VCC*%
X176240000Y-103000000D03*
%TD*%
D13*
%TO.P,R77,1*%
%TO.N,BUS_3*%
X320690000Y-184500000D03*
%TO.P,R77,2*%
%TO.N,GND*%
X328310000Y-184500000D03*
%TD*%
D14*
%TO.P,U46,1*%
%TO.N,Net-(D39-A)*%
X213620000Y-90460000D03*
D15*
%TO.P,U46,2*%
%TO.N,~{MI}*%
X213620000Y-93000000D03*
%TO.P,U46,3*%
%TO.N,Net-(D41-A)*%
X213620000Y-95540000D03*
%TO.P,U46,4*%
%TO.N,~{RO}*%
X213620000Y-98080000D03*
%TO.P,U46,5*%
%TO.N,Net-(D53-A)*%
X213620000Y-100620000D03*
%TO.P,U46,6*%
%TO.N,~{FI}*%
X213620000Y-103160000D03*
%TO.P,U46,7,GND*%
%TO.N,GND*%
X213620000Y-105700000D03*
%TO.P,U46,8*%
%TO.N,unconnected-(U46-Pad8)*%
X221240000Y-105700000D03*
%TO.P,U46,9*%
%TO.N,unconnected-(U46-Pad9)*%
X221240000Y-103160000D03*
%TO.P,U46,10*%
%TO.N,~{J}*%
X221240000Y-100620000D03*
%TO.P,U46,11*%
%TO.N,Net-(D52-A)*%
X221240000Y-98080000D03*
%TO.P,U46,12*%
%TO.N,~{CO}*%
X221240000Y-95540000D03*
%TO.P,U46,13*%
%TO.N,Net-(D51-A)*%
X221240000Y-93000000D03*
%TO.P,U46,14,VCC*%
%TO.N,VCC*%
X221240000Y-90460000D03*
%TD*%
D11*
%TO.P,D5,1,K*%
%TO.N,Net-(D5-K)*%
X293500000Y-83540000D03*
D12*
%TO.P,D5,2,A*%
%TO.N,/ALU/A_4*%
X293500000Y-81000000D03*
%TD*%
D13*
%TO.P,R2,1*%
%TO.N,Net-(U1-DIS)*%
X44430000Y-31500000D03*
%TO.P,R2,2*%
%TO.N,Net-(R2-Pad2)*%
X36810000Y-31500000D03*
%TD*%
D21*
%TO.P,U33,1,E*%
%TO.N,GND*%
X245420000Y-155000000D03*
D13*
%TO.P,U33,2,A0*%
%TO.N,Net-(U32A-~{Q})*%
X247960000Y-155000000D03*
%TO.P,U33,3,A1*%
%TO.N,Net-(U32B-~{Q})*%
X250500000Y-155000000D03*
%TO.P,U33,4,O0*%
%TO.N,Net-(U33A-O0)*%
X253040000Y-155000000D03*
%TO.P,U33,5,O1*%
%TO.N,Net-(U33A-O1)*%
X255580000Y-155000000D03*
%TO.P,U33,6,O2*%
%TO.N,Net-(U33A-O2)*%
X258120000Y-155000000D03*
%TO.P,U33,7,O3*%
%TO.N,Net-(U33A-O3)*%
X260660000Y-155000000D03*
%TO.P,U33,8,GND*%
%TO.N,GND*%
X263200000Y-155000000D03*
%TO.P,U33,9*%
%TO.N,N/C*%
X263200000Y-147380000D03*
%TO.P,U33,10*%
X260660000Y-147380000D03*
%TO.P,U33,11*%
X258120000Y-147380000D03*
%TO.P,U33,12*%
X255580000Y-147380000D03*
%TO.P,U33,13*%
X253040000Y-147380000D03*
%TO.P,U33,14*%
X250500000Y-147380000D03*
%TO.P,U33,15*%
X247960000Y-147380000D03*
%TO.P,U33,16,VCC*%
%TO.N,VCC*%
X245420000Y-147380000D03*
%TD*%
D10*
%TO.P,C19,1*%
%TO.N,VCC*%
X288980000Y-199800000D03*
%TO.P,C19,2*%
%TO.N,GND*%
X290980000Y-199800000D03*
%TD*%
D11*
%TO.P,D38,1,K*%
%TO.N,Net-(D38-K)*%
X146970000Y-162000000D03*
D12*
%TO.P,D38,2,A*%
%TO.N,HLT*%
X149510000Y-162000000D03*
%TD*%
D13*
%TO.P,R59,1*%
%TO.N,Net-(D55-A)*%
X157740000Y-130500000D03*
%TO.P,R59,2*%
%TO.N,VCC*%
X150120000Y-130500000D03*
%TD*%
%TO.P,R18,1*%
%TO.N,VCC*%
X27500000Y-43120000D03*
%TO.P,R18,2*%
%TO.N,Net-(D24-A)*%
X27500000Y-50740000D03*
%TD*%
D16*
%TO.P,U29,1,A->B*%
%TO.N,GND*%
X235500000Y-28960000D03*
D17*
%TO.P,U29,2,A0*%
%TO.N,unconnected-(U29-A0-Pad2)*%
X235500000Y-31500000D03*
%TO.P,U29,3,A1*%
%TO.N,unconnected-(U29-A1-Pad3)*%
X235500000Y-34040000D03*
%TO.P,U29,4,A2*%
%TO.N,unconnected-(U29-A2-Pad4)*%
X235500000Y-36580000D03*
%TO.P,U29,5,A3*%
%TO.N,unconnected-(U29-A3-Pad5)*%
X235500000Y-39120000D03*
%TO.P,U29,6,A4*%
%TO.N,BUS_3*%
X235500000Y-41660000D03*
%TO.P,U29,7,A5*%
%TO.N,BUS_2*%
X235500000Y-44200000D03*
%TO.P,U29,8,A6*%
%TO.N,BUS_1*%
X235500000Y-46740000D03*
%TO.P,U29,9,A7*%
%TO.N,BUS_0*%
X235500000Y-49280000D03*
%TO.P,U29,10,GND*%
%TO.N,GND*%
X235500000Y-51820000D03*
%TO.P,U29,11,B7*%
%TO.N,Net-(D37-A)*%
X243120000Y-51820000D03*
%TO.P,U29,12,B6*%
%TO.N,Net-(D36-A)*%
X243120000Y-49280000D03*
%TO.P,U29,13,B5*%
%TO.N,Net-(D35-A)*%
X243120000Y-46740000D03*
%TO.P,U29,14,B4*%
%TO.N,Net-(D34-A)*%
X243120000Y-44200000D03*
%TO.P,U29,15,B3*%
%TO.N,unconnected-(U29-B3-Pad15)*%
X243120000Y-41660000D03*
%TO.P,U29,16,B2*%
%TO.N,unconnected-(U29-B2-Pad16)*%
X243120000Y-39120000D03*
%TO.P,U29,17,B1*%
%TO.N,unconnected-(U29-B1-Pad17)*%
X243120000Y-36580000D03*
%TO.P,U29,18,B0*%
%TO.N,unconnected-(U29-B0-Pad18)*%
X243120000Y-34040000D03*
%TO.P,U29,19,CE*%
%TO.N,~{CO}*%
X243120000Y-31500000D03*
%TO.P,U29,20,VCC*%
%TO.N,VCC*%
X243120000Y-28960000D03*
%TD*%
D11*
%TO.P,D024,1,K*%
%TO.N,Net-(D024-K)*%
X289760000Y-119700000D03*
D12*
%TO.P,D024,2,A*%
%TO.N,/ALU/B_5*%
X289760000Y-117160000D03*
%TD*%
D13*
%TO.P,R58,1*%
%TO.N,Net-(D56-A)*%
X157740000Y-134500000D03*
%TO.P,R58,2*%
%TO.N,VCC*%
X150120000Y-134500000D03*
%TD*%
D11*
%TO.P,D30,1,K*%
%TO.N,Net-(D30-K)*%
X104000000Y-116540000D03*
D12*
%TO.P,D30,2,A*%
%TO.N,Net-(D30-A)*%
X104000000Y-114000000D03*
%TD*%
D10*
%TO.P,C62,1*%
%TO.N,VCC*%
X251000000Y-161000000D03*
%TO.P,C62,2*%
%TO.N,GND*%
X253000000Y-161000000D03*
%TD*%
D13*
%TO.P,R63,1*%
%TO.N,Net-(D61-K)*%
X184930000Y-132500000D03*
%TO.P,R63,2*%
%TO.N,GND*%
X192550000Y-132500000D03*
%TD*%
D10*
%TO.P,C22,1*%
%TO.N,VCC*%
X228000000Y-71000000D03*
%TO.P,C22,2*%
%TO.N,GND*%
X230000000Y-71000000D03*
%TD*%
D11*
%TO.P,D4,1,K*%
%TO.N,Net-(D4-K)*%
X289000000Y-83540000D03*
D12*
%TO.P,D4,2,A*%
%TO.N,/ALU/A_5*%
X289000000Y-81000000D03*
%TD*%
D13*
%TO.P,C5,1*%
%TO.N,GND*%
X119000000Y-23000000D03*
%TO.P,C5,2*%
%TO.N,VCC*%
X119000000Y-20500000D03*
%TD*%
D16*
%TO.P,U118,1,Oe1*%
%TO.N,GND*%
X86960000Y-144120000D03*
D17*
%TO.P,U118,2,Oe2*%
X89500000Y-144120000D03*
%TO.P,U118,3,Q0*%
%TO.N,IR_7*%
X92040000Y-144120000D03*
%TO.P,U118,4,Q1*%
%TO.N,IR_6*%
X94580000Y-144120000D03*
%TO.P,U118,5,Q2*%
%TO.N,IR_5*%
X97120000Y-144120000D03*
%TO.P,U118,6,Q3*%
%TO.N,IR_4*%
X99660000Y-144120000D03*
%TO.P,U118,7,Cp*%
%TO.N,CLK*%
X102200000Y-144120000D03*
%TO.P,U118,8,GND*%
%TO.N,GND*%
X104740000Y-144120000D03*
%TO.P,U118,9,E1*%
%TO.N,~{II}*%
X107280000Y-144120000D03*
%TO.P,U118,10,E2*%
X109820000Y-144120000D03*
%TO.P,U118,11,D3*%
%TO.N,BUS_4*%
X109820000Y-136500000D03*
%TO.P,U118,12,D2*%
%TO.N,BUS_5*%
X107280000Y-136500000D03*
%TO.P,U118,13,D1*%
%TO.N,BUS_6*%
X104740000Y-136500000D03*
%TO.P,U118,14,D0*%
%TO.N,BUS_7*%
X102200000Y-136500000D03*
%TO.P,U118,15,Mr*%
%TO.N,CLR*%
X99660000Y-136500000D03*
%TO.P,U118,16,VCC*%
%TO.N,VCC*%
X97120000Y-136500000D03*
%TO.P,U118,17*%
%TO.N,N/C*%
X94580000Y-136500000D03*
%TO.P,U118,18*%
X92040000Y-136500000D03*
%TO.P,U118,19*%
X89500000Y-136500000D03*
%TO.P,U118,20*%
X86960000Y-136500000D03*
%TD*%
D10*
%TO.P,C9,1*%
%TO.N,VCC*%
X394730000Y-105140000D03*
%TO.P,C9,2*%
%TO.N,GND*%
X396730000Y-105140000D03*
%TD*%
D14*
%TO.P,U47,1*%
%TO.N,Net-(D46-A)*%
X214740000Y-129960000D03*
D15*
%TO.P,U47,2*%
%TO.N,~{EO}*%
X214740000Y-132500000D03*
%TO.P,U47,3*%
%TO.N,Net-(D48-A)*%
X214740000Y-135040000D03*
%TO.P,U47,4*%
%TO.N,~{BI}*%
X214740000Y-137580000D03*
%TO.P,U47,5*%
%TO.N,unconnected-(U47-Pad5)*%
X214740000Y-140120000D03*
%TO.P,U47,6*%
%TO.N,unconnected-(U47-Pad6)*%
X214740000Y-142660000D03*
%TO.P,U47,7,GND*%
%TO.N,GND*%
X214740000Y-145200000D03*
%TO.P,U47,8*%
%TO.N,unconnected-(U47-Pad8)*%
X222360000Y-145200000D03*
%TO.P,U47,9*%
%TO.N,unconnected-(U47-Pad9)*%
X222360000Y-142660000D03*
%TO.P,U47,10*%
%TO.N,unconnected-(U47-Pad10)*%
X222360000Y-140120000D03*
%TO.P,U47,11*%
%TO.N,unconnected-(U47-Pad11)*%
X222360000Y-137580000D03*
%TO.P,U47,12*%
%TO.N,unconnected-(U47-Pad12)*%
X222360000Y-135040000D03*
%TO.P,U47,13*%
%TO.N,unconnected-(U47-Pad13)*%
X222360000Y-132500000D03*
%TO.P,U47,14,VCC*%
%TO.N,VCC*%
X222360000Y-129960000D03*
%TD*%
D11*
%TO.P,D64,1,K*%
%TO.N,Net-(D64-K)*%
X313270000Y-188500000D03*
D12*
%TO.P,D64,2,A*%
%TO.N,BUS_2*%
X315810000Y-188500000D03*
%TD*%
D13*
%TO.P,R4,1*%
%TO.N,VCC*%
X79810000Y-24500000D03*
%TO.P,R4,2*%
%TO.N,Net-(U2-DIS)*%
X72190000Y-24500000D03*
%TD*%
%TO.P,R98,1*%
%TO.N,Net-(D029-K)*%
X312260000Y-122120000D03*
%TO.P,R98,2*%
%TO.N,GND*%
X312260000Y-129740000D03*
%TD*%
D10*
%TO.P,C66,1*%
%TO.N,VCC*%
X185240000Y-109000000D03*
%TO.P,C66,2*%
%TO.N,GND*%
X185240000Y-111000000D03*
%TD*%
D13*
%TO.P,R14,1*%
%TO.N,Net-(D16-K)*%
X379970000Y-86380000D03*
%TO.P,R14,2*%
%TO.N,GND*%
X379970000Y-94000000D03*
%TD*%
D11*
%TO.P,D028,1,K*%
%TO.N,Net-(D028-K)*%
X307760000Y-119700000D03*
D12*
%TO.P,D028,2,A*%
%TO.N,/ALU/B_1*%
X307760000Y-117160000D03*
%TD*%
D11*
%TO.P,D16,1,K*%
%TO.N,Net-(D16-K)*%
X380030000Y-83896800D03*
D12*
%TO.P,D16,2,A*%
%TO.N,Net-(D16-A)*%
X380030000Y-81356800D03*
%TD*%
D10*
%TO.P,C30,1*%
%TO.N,VCC*%
X365000000Y-76000000D03*
%TO.P,C30,2*%
%TO.N,GND*%
X363000000Y-76000000D03*
%TD*%
D18*
%TO.P,SW7,1,A*%
%TO.N,Net-(SW7-A)*%
X283500000Y-178460000D03*
D13*
%TO.P,SW7,2,B*%
%TO.N,Net-(SW7-B)*%
X283500000Y-175920000D03*
%TO.P,SW7,3,C*%
%TO.N,VCC*%
X283500000Y-181000000D03*
%TD*%
%TO.P,R6,1*%
%TO.N,VCC*%
X110310000Y-39500000D03*
%TO.P,R6,2*%
%TO.N,Net-(SW2-C)*%
X102690000Y-39500000D03*
%TD*%
%TO.P,R28,1*%
%TO.N,Net-(D30-K)*%
X104000000Y-119000000D03*
%TO.P,R28,2*%
%TO.N,GND*%
X104000000Y-126620000D03*
%TD*%
D10*
%TO.P,C7,1*%
%TO.N,Net-(U1-THR)*%
X42500000Y-45000000D03*
%TO.P,C7,2*%
%TO.N,GND*%
X42500000Y-47000000D03*
%TD*%
D13*
%TO.P,R31,1*%
%TO.N,Net-(D33-K)*%
X117500000Y-119000000D03*
%TO.P,R31,2*%
%TO.N,GND*%
X117500000Y-126620000D03*
%TD*%
%TO.P,R105,1*%
%TO.N,Net-(D8-K)*%
X307000000Y-86000000D03*
%TO.P,R105,2*%
%TO.N,GND*%
X307000000Y-93620000D03*
%TD*%
D10*
%TO.P,C39,1*%
%TO.N,VCC*%
X162500000Y-58500000D03*
%TO.P,C39,2*%
%TO.N,GND*%
X160500000Y-58500000D03*
%TD*%
%TO.P,C47,1*%
%TO.N,VCC*%
X136500000Y-76000000D03*
%TO.P,C47,2*%
%TO.N,GND*%
X136500000Y-74000000D03*
%TD*%
D14*
%TO.P,U28,1*%
%TO.N,Net-(U23-\u002AO1)*%
X163300000Y-70120000D03*
D15*
%TO.P,U28,2*%
%TO.N,Net-(D32-A)*%
X165840000Y-70120000D03*
%TO.P,U28,3*%
%TO.N,Net-(U23-\u002AO0)*%
X168380000Y-70120000D03*
%TO.P,U28,4*%
%TO.N,Net-(D33-A)*%
X170920000Y-70120000D03*
%TO.P,U28,5*%
%TO.N,Net-(D42-A)*%
X173460000Y-70120000D03*
%TO.P,U28,6*%
%TO.N,~{IO}*%
X176000000Y-70120000D03*
%TO.P,U28,7,GND*%
%TO.N,GND*%
X178540000Y-70120000D03*
%TO.P,U28,8*%
%TO.N,~{AO}*%
X178540000Y-62500000D03*
%TO.P,U28,9*%
%TO.N,Net-(D45-A)*%
X176000000Y-62500000D03*
%TO.P,U28,10*%
%TO.N,~{AI}*%
X173460000Y-62500000D03*
%TO.P,U28,11*%
%TO.N,Net-(D44-A)*%
X170920000Y-62500000D03*
%TO.P,U28,12*%
%TO.N,~{II}*%
X168380000Y-62500000D03*
%TO.P,U28,13*%
%TO.N,Net-(D43-A)*%
X165840000Y-62500000D03*
%TO.P,U28,14,VCC*%
%TO.N,VCC*%
X163300000Y-62500000D03*
%TD*%
D10*
%TO.P,C26,1*%
%TO.N,VCC*%
X329230000Y-136690000D03*
%TO.P,C26,2*%
%TO.N,GND*%
X331230000Y-136690000D03*
%TD*%
D22*
%TO.P,U13,1,S2*%
%TO.N,Net-(D13-A)*%
X337110000Y-76530000D03*
D13*
%TO.P,U13,2,B2*%
%TO.N,Net-(U13-B2)*%
X337110000Y-79070000D03*
%TO.P,U13,3,A2*%
%TO.N,/ALU/A_5*%
X337110000Y-81610000D03*
%TO.P,U13,4,S1*%
%TO.N,Net-(D15-A)*%
X337110000Y-84150000D03*
%TO.P,U13,5,A1*%
%TO.N,/ALU/A_4*%
X337110000Y-86690000D03*
%TO.P,U13,6,B1*%
%TO.N,Net-(U13-B1)*%
X337110000Y-89230000D03*
%TO.P,U13,7,C0*%
%TO.N,Net-(U13-C0)*%
X337110000Y-91770000D03*
%TO.P,U13,8,GND*%
%TO.N,GND*%
X337110000Y-94310000D03*
%TO.P,U13,9,C4*%
%TO.N,Net-(U12-D0)*%
X344730000Y-94310000D03*
%TO.P,U13,10,S4*%
%TO.N,Net-(D11-A)*%
X344730000Y-91770000D03*
%TO.P,U13,11,B4*%
%TO.N,Net-(U13-B4)*%
X344730000Y-89230000D03*
%TO.P,U13,12,A4*%
%TO.N,/ALU/A_7*%
X344730000Y-86690000D03*
%TO.P,U13,13,S3*%
%TO.N,Net-(D12-A)*%
X344730000Y-84150000D03*
%TO.P,U13,14,A3*%
%TO.N,/ALU/A_6*%
X344730000Y-81610000D03*
%TO.P,U13,15,B3*%
%TO.N,Net-(U13-B3)*%
X344730000Y-79070000D03*
%TO.P,U13,16,VCC*%
%TO.N,VCC*%
X344730000Y-76530000D03*
%TD*%
D11*
%TO.P,D113,1,K*%
%TO.N,Net-(D113-K)*%
X93960000Y-154160000D03*
D12*
%TO.P,D113,2,A*%
%TO.N,IR_6*%
X93960000Y-151620000D03*
%TD*%
D13*
%TO.P,R89,1*%
%TO.N,Net-(D118-K)*%
X128960000Y-157500000D03*
%TO.P,R89,2*%
%TO.N,GND*%
X128960000Y-165120000D03*
%TD*%
D11*
%TO.P,D117,1,K*%
%TO.N,Net-(D117-K)*%
X121960000Y-154160000D03*
D12*
%TO.P,D117,2,A*%
%TO.N,Net-(D117-A)*%
X121960000Y-151620000D03*
%TD*%
D14*
%TO.P,U19,1,Oe1*%
%TO.N,GND*%
X92080000Y-50500000D03*
D15*
%TO.P,U19,2,Oe2*%
X89540000Y-50500000D03*
%TO.P,U19,3,Q0*%
%TO.N,Net-(U18-I1a)*%
X87000000Y-50500000D03*
%TO.P,U19,4,Q1*%
%TO.N,Net-(U18-I1b)*%
X84460000Y-50500000D03*
%TO.P,U19,5,Q2*%
%TO.N,Net-(U18-I1c)*%
X81920000Y-50500000D03*
%TO.P,U19,6,Q3*%
%TO.N,Net-(U18-I1d)*%
X79380000Y-50500000D03*
%TO.P,U19,7,Cp*%
%TO.N,CLK*%
X76840000Y-50500000D03*
%TO.P,U19,8,GND*%
%TO.N,GND*%
X74300000Y-50500000D03*
%TO.P,U19,9,E1*%
%TO.N,~{MI}*%
X74300000Y-58120000D03*
%TO.P,U19,10,E2*%
X76840000Y-58120000D03*
%TO.P,U19,11,D3*%
%TO.N,BUS_0*%
X79380000Y-58120000D03*
%TO.P,U19,12,D2*%
%TO.N,BUS_1*%
X81920000Y-58120000D03*
%TO.P,U19,13,D1*%
%TO.N,BUS_2*%
X84460000Y-58120000D03*
%TO.P,U19,14,D0*%
%TO.N,BUS_3*%
X87000000Y-58120000D03*
%TO.P,U19,15,Mr*%
%TO.N,CLR*%
X89540000Y-58120000D03*
%TO.P,U19,16,VCC*%
%TO.N,VCC*%
X92080000Y-58120000D03*
%TD*%
D13*
%TO.P,R50,1*%
%TO.N,Net-(D48-K)*%
X197000000Y-167000000D03*
%TO.P,R50,2*%
%TO.N,GND*%
X197000000Y-174620000D03*
%TD*%
D11*
%TO.P,D51,1,K*%
%TO.N,Net-(D51-K)*%
X211970000Y-162000000D03*
D12*
%TO.P,D51,2,A*%
%TO.N,Net-(D51-A)*%
X214510000Y-162000000D03*
%TD*%
D13*
%TO.P,R53,1*%
%TO.N,Net-(D51-K)*%
X212000000Y-166880000D03*
%TO.P,R53,2*%
%TO.N,GND*%
X212000000Y-174500000D03*
%TD*%
D10*
%TO.P,C18,1*%
%TO.N,VCC*%
X288980000Y-193250000D03*
%TO.P,C18,2*%
%TO.N,GND*%
X290980000Y-193250000D03*
%TD*%
D13*
%TO.P,R95,1*%
%TO.N,Net-(D026-K)*%
X298760000Y-122000000D03*
%TO.P,R95,2*%
%TO.N,GND*%
X298760000Y-129620000D03*
%TD*%
D11*
%TO.P,D023,1,K*%
%TO.N,Net-(D023-K)*%
X285260000Y-119700000D03*
D12*
%TO.P,D023,2,A*%
%TO.N,/ALU/B_6*%
X285260000Y-117160000D03*
%TD*%
D13*
%TO.P,R9,1*%
%TO.N,Net-(D11-K)*%
X358120000Y-86570000D03*
%TO.P,R9,2*%
%TO.N,GND*%
X358120000Y-94190000D03*
%TD*%
D10*
%TO.P,C21,1*%
%TO.N,VCC*%
X187500000Y-81550000D03*
%TO.P,C21,2*%
%TO.N,GND*%
X189500000Y-81550000D03*
%TD*%
D13*
%TO.P,R11,1*%
%TO.N,Net-(D12-K)*%
X363620000Y-86380000D03*
%TO.P,R11,2*%
%TO.N,GND*%
X363620000Y-94000000D03*
%TD*%
%TO.P,R36,1*%
%TO.N,GND*%
X261686800Y-55126800D03*
%TO.P,R36,2*%
%TO.N,Net-(D37-K)*%
X254066800Y-55126800D03*
%TD*%
D10*
%TO.P,C70,1*%
%TO.N,VCC*%
X225240000Y-129500000D03*
%TO.P,C70,2*%
%TO.N,GND*%
X227240000Y-129500000D03*
%TD*%
D13*
%TO.P,R96,1*%
%TO.N,Net-(D027-K)*%
X303260000Y-122120000D03*
%TO.P,R96,2*%
%TO.N,GND*%
X303260000Y-129740000D03*
%TD*%
D10*
%TO.P,C73,1*%
%TO.N,VCC*%
X55460000Y-147620000D03*
%TO.P,C73,2*%
%TO.N,GND*%
X55460000Y-149620000D03*
%TD*%
D22*
%TO.P,U44,1*%
%TO.N,N/C*%
X196000000Y-120380000D03*
D13*
%TO.P,U44,2,A12*%
%TO.N,GND*%
X196000000Y-122920000D03*
%TO.P,U44,3,A7*%
%TO.N,VCC*%
X196000000Y-125460000D03*
%TO.P,U44,4,A6*%
%TO.N,IR_7*%
X196000000Y-128000000D03*
%TO.P,U44,5,A5*%
%TO.N,IR_6*%
X196000000Y-130540000D03*
%TO.P,U44,6,A4*%
%TO.N,IR_5*%
X196000000Y-133080000D03*
%TO.P,U44,7,A3*%
%TO.N,IR_4*%
X196000000Y-135620000D03*
%TO.P,U44,8,A2*%
%TO.N,Net-(D61-A)*%
X196000000Y-138160000D03*
%TO.P,U44,9,A1*%
%TO.N,Net-(D60-A)*%
X196000000Y-140700000D03*
%TO.P,U44,10,A0*%
%TO.N,Net-(D59-A)*%
X196000000Y-143240000D03*
%TO.P,U44,11,I/O0*%
%TO.N,Net-(D53-A)*%
X196000000Y-145780000D03*
%TO.P,U44,12,I/O1*%
%TO.N,Net-(D52-A)*%
X196000000Y-148320000D03*
%TO.P,U44,13,I/O2*%
%TO.N,Net-(D51-A)*%
X196000000Y-150860000D03*
%TO.P,U44,14,GND*%
%TO.N,GND*%
X196000000Y-153400000D03*
%TO.P,U44,15,I/O3*%
%TO.N,CE*%
X211240000Y-153400000D03*
%TO.P,U44,16,I/O4*%
%TO.N,OI*%
X211240000Y-150860000D03*
%TO.P,U44,17,I/O5*%
%TO.N,Net-(D48-A)*%
X211240000Y-148320000D03*
%TO.P,U44,18,I/O6*%
%TO.N,SU*%
X211240000Y-145780000D03*
%TO.P,U44,19,I/O7*%
%TO.N,Net-(D46-A)*%
X211240000Y-143240000D03*
%TO.P,U44,20,~{CE}*%
%TO.N,GND*%
X211240000Y-140700000D03*
%TO.P,U44,21,A10*%
X211240000Y-138160000D03*
%TO.P,U44,22,~{OE}*%
X211240000Y-135620000D03*
%TO.P,U44,23,A11*%
X211240000Y-133080000D03*
%TO.P,U44,24,A9*%
%TO.N,ZF*%
X211240000Y-130540000D03*
%TO.P,U44,25,A8*%
%TO.N,CF*%
X211240000Y-128000000D03*
%TO.P,U44,26*%
%TO.N,N/C*%
X211240000Y-125460000D03*
%TO.P,U44,27,~{WE}*%
%TO.N,VCC*%
X211240000Y-122920000D03*
%TO.P,U44,28,VCC*%
X211240000Y-120380000D03*
%TD*%
D10*
%TO.P,C36,1*%
%TO.N,VCC*%
X95500000Y-58000000D03*
%TO.P,C36,2*%
%TO.N,GND*%
X97500000Y-58000000D03*
%TD*%
D11*
%TO.P,D23,1,K*%
%TO.N,Net-(D23-K)*%
X48090000Y-66620000D03*
D12*
%TO.P,D23,2,A*%
%TO.N,/MAR/A0*%
X48090000Y-64080000D03*
%TD*%
D11*
%TO.P,D12,1,K*%
%TO.N,Net-(D12-K)*%
X363590000Y-83920000D03*
D12*
%TO.P,D12,2,A*%
%TO.N,Net-(D12-A)*%
X363590000Y-81380000D03*
%TD*%
D21*
%TO.P,U32,1,C*%
%TO.N,Net-(U31-Q)*%
X242500000Y-139000000D03*
D13*
%TO.P,U32,2,~{S}*%
%TO.N,VCC*%
X245040000Y-139000000D03*
%TO.P,U32,3,~{R}*%
X247580000Y-139000000D03*
%TO.P,U32,4,J*%
X250120000Y-139000000D03*
%TO.P,U32,5,VCC*%
X252660000Y-139000000D03*
%TO.P,U32,6,C*%
%TO.N,Net-(U32A-~{Q})*%
X255200000Y-139000000D03*
%TO.P,U32,7,~{S}*%
%TO.N,VCC*%
X257740000Y-139000000D03*
%TO.P,U32,8,~{R}*%
X260280000Y-139000000D03*
%TO.P,U32,9,J*%
X260280000Y-131380000D03*
%TO.P,U32,10,~{Q}*%
%TO.N,Net-(U32B-~{Q})*%
X257740000Y-131380000D03*
%TO.P,U32,11,Q*%
%TO.N,unconnected-(U32B-Q-Pad11)*%
X255200000Y-131380000D03*
%TO.P,U32,12,K*%
%TO.N,VCC*%
X252660000Y-131380000D03*
%TO.P,U32,13,GND*%
%TO.N,GND*%
X250120000Y-131380000D03*
%TO.P,U32,14,~{Q}*%
%TO.N,Net-(U32A-~{Q})*%
X247580000Y-131380000D03*
%TO.P,U32,15,Q*%
%TO.N,unconnected-(U32A-Q-Pad15)*%
X245040000Y-131380000D03*
%TO.P,U32,16,K*%
%TO.N,VCC*%
X242500000Y-131380000D03*
%TD*%
%TO.P,R93,1*%
%TO.N,Net-(D024-K)*%
X289760000Y-122120000D03*
%TO.P,R93,2*%
%TO.N,GND*%
X289760000Y-129740000D03*
%TD*%
D21*
%TO.P,U24,1,S*%
%TO.N,/MAR/PROG*%
X137100000Y-86555000D03*
D13*
%TO.P,U24,2,I0a*%
%TO.N,Net-(U24-I0a)*%
X139640000Y-86555000D03*
%TO.P,U24,3,I1a*%
%TO.N,BUS_3*%
X142180000Y-86555000D03*
%TO.P,U24,4,Za*%
%TO.N,Net-(U24-Za)*%
X144720000Y-86555000D03*
%TO.P,U24,5,I0b*%
%TO.N,Net-(U24-I0b)*%
X147260000Y-86555000D03*
%TO.P,U24,6,I1b*%
%TO.N,BUS_2*%
X149800000Y-86555000D03*
%TO.P,U24,7,Zb*%
%TO.N,Net-(U24-Zb)*%
X152340000Y-86555000D03*
%TO.P,U24,8,GND*%
%TO.N,GND*%
X154880000Y-86555000D03*
%TO.P,U24,9,Zd*%
%TO.N,Net-(U24-Zd)*%
X154880000Y-78935000D03*
%TO.P,U24,10,I1d*%
%TO.N,BUS_0*%
X152340000Y-78935000D03*
%TO.P,U24,11,I0d*%
%TO.N,Net-(U24-I0d)*%
X149800000Y-78935000D03*
%TO.P,U24,12,Zc*%
%TO.N,Net-(U24-Zc)*%
X147260000Y-78935000D03*
%TO.P,U24,13,I1c*%
%TO.N,BUS_1*%
X144720000Y-78935000D03*
%TO.P,U24,14,I0c*%
%TO.N,Net-(U24-I0c)*%
X142180000Y-78935000D03*
%TO.P,U24,15,E*%
%TO.N,GND*%
X139640000Y-78935000D03*
%TO.P,U24,16,VCC*%
%TO.N,VCC*%
X137100000Y-78935000D03*
%TD*%
D11*
%TO.P,D66,1,K*%
%TO.N,Net-(D66-K)*%
X323270000Y-188500000D03*
D12*
%TO.P,D66,2,A*%
%TO.N,BUS_4*%
X325810000Y-188500000D03*
%TD*%
D11*
%TO.P,D63,1,K*%
%TO.N,Net-(D63-K)*%
X308270000Y-188500000D03*
D12*
%TO.P,D63,2,A*%
%TO.N,BUS_1*%
X310810000Y-188500000D03*
%TD*%
D21*
%TO.P,U12,1,Oe1*%
%TO.N,GND*%
X403840000Y-83495000D03*
D13*
%TO.P,U12,2,Oe2*%
X406380000Y-83495000D03*
%TO.P,U12,3,Q0*%
%TO.N,CF*%
X408920000Y-83495000D03*
%TO.P,U12,4,Q1*%
%TO.N,ZF*%
X411460000Y-83495000D03*
%TO.P,U12,5,Q2*%
%TO.N,unconnected-(U12-Q2-Pad5)*%
X414000000Y-83495000D03*
%TO.P,U12,6,Q3*%
%TO.N,unconnected-(U12-Q3-Pad6)*%
X416540000Y-83495000D03*
%TO.P,U12,7,Cp*%
%TO.N,CLK*%
X419080000Y-83495000D03*
%TO.P,U12,8,GND*%
%TO.N,GND*%
X421620000Y-83495000D03*
%TO.P,U12,9,E1*%
%TO.N,~{FI}*%
X421620000Y-75875000D03*
%TO.P,U12,10,E2*%
X419080000Y-75875000D03*
%TO.P,U12,11,D3*%
%TO.N,unconnected-(U12-D3-Pad11)*%
X416540000Y-75875000D03*
%TO.P,U12,12,D2*%
%TO.N,unconnected-(U12-D2-Pad12)*%
X414000000Y-75875000D03*
%TO.P,U12,13,D1*%
%TO.N,Net-(U12-D1)*%
X411460000Y-75875000D03*
%TO.P,U12,14,D0*%
%TO.N,Net-(U12-D0)*%
X408920000Y-75875000D03*
%TO.P,U12,15,Mr*%
%TO.N,CLR*%
X406380000Y-75875000D03*
%TO.P,U12,16,VCC*%
%TO.N,VCC*%
X403840000Y-75875000D03*
%TD*%
%TO.P,R90,1*%
%TO.N,Net-(D119-K)*%
X135960000Y-157500000D03*
%TO.P,R90,2*%
%TO.N,GND*%
X135960000Y-165120000D03*
%TD*%
D22*
%TO.P,U43,1*%
%TO.N,N/C*%
X196000000Y-82380000D03*
D13*
%TO.P,U43,2,A12*%
%TO.N,GND*%
X196000000Y-84920000D03*
%TO.P,U43,3,A7*%
X196000000Y-87460000D03*
%TO.P,U43,4,A6*%
%TO.N,IR_7*%
X196000000Y-90000000D03*
%TO.P,U43,5,A5*%
%TO.N,IR_6*%
X196000000Y-92540000D03*
%TO.P,U43,6,A4*%
%TO.N,IR_5*%
X196000000Y-95080000D03*
%TO.P,U43,7,A3*%
%TO.N,IR_4*%
X196000000Y-97620000D03*
%TO.P,U43,8,A2*%
%TO.N,Net-(D61-A)*%
X196000000Y-100160000D03*
%TO.P,U43,9,A1*%
%TO.N,Net-(D60-A)*%
X196000000Y-102700000D03*
%TO.P,U43,10,A0*%
%TO.N,Net-(D59-A)*%
X196000000Y-105240000D03*
%TO.P,U43,11,I/O0*%
%TO.N,Net-(D45-A)*%
X196000000Y-107780000D03*
%TO.P,U43,12,I/O1*%
%TO.N,Net-(D44-A)*%
X196000000Y-110320000D03*
%TO.P,U43,13,I/O2*%
%TO.N,Net-(D43-A)*%
X196000000Y-112860000D03*
%TO.P,U43,14,GND*%
%TO.N,GND*%
X196000000Y-115400000D03*
%TO.P,U43,15,I/O3*%
%TO.N,Net-(D42-A)*%
X211240000Y-115400000D03*
%TO.P,U43,16,I/O4*%
%TO.N,Net-(D41-A)*%
X211240000Y-112860000D03*
%TO.P,U43,17,I/O5*%
%TO.N,RI*%
X211240000Y-110320000D03*
%TO.P,U43,18,I/O6*%
%TO.N,Net-(D39-A)*%
X211240000Y-107780000D03*
%TO.P,U43,19,I/O7*%
%TO.N,HLT*%
X211240000Y-105240000D03*
%TO.P,U43,20,~{CE}*%
%TO.N,GND*%
X211240000Y-102700000D03*
%TO.P,U43,21,A10*%
X211240000Y-100160000D03*
%TO.P,U43,22,~{OE}*%
X211240000Y-97620000D03*
%TO.P,U43,23,A11*%
X211240000Y-95080000D03*
%TO.P,U43,24,A9*%
%TO.N,ZF*%
X211240000Y-92540000D03*
%TO.P,U43,25,A8*%
%TO.N,CF*%
X211240000Y-90000000D03*
%TO.P,U43,26*%
%TO.N,N/C*%
X211240000Y-87460000D03*
%TO.P,U43,27,~{WE}*%
%TO.N,VCC*%
X211240000Y-84920000D03*
%TO.P,U43,28,VCC*%
X211240000Y-82380000D03*
%TD*%
%TO.P,R65,1*%
%TO.N,Net-(D62-K)*%
X303310000Y-192380000D03*
%TO.P,R65,2*%
%TO.N,GND*%
X303310000Y-200000000D03*
%TD*%
D11*
%TO.P,D39,1,K*%
%TO.N,Net-(D39-K)*%
X151970000Y-162000000D03*
D12*
%TO.P,D39,2,A*%
%TO.N,Net-(D39-A)*%
X154510000Y-162000000D03*
%TD*%
D11*
%TO.P,D43,1,K*%
%TO.N,Net-(D43-K)*%
X171970000Y-162000000D03*
D12*
%TO.P,D43,2,A*%
%TO.N,Net-(D43-A)*%
X174510000Y-162000000D03*
%TD*%
D13*
%TO.P,R92,1*%
%TO.N,Net-(D023-K)*%
X285260000Y-122120000D03*
%TO.P,R92,2*%
%TO.N,GND*%
X285260000Y-129740000D03*
%TD*%
D11*
%TO.P,D55,1,K*%
%TO.N,Net-(D55-K)*%
X162700000Y-130000000D03*
D12*
%TO.P,D55,2,A*%
%TO.N,Net-(D55-A)*%
X160160000Y-130000000D03*
%TD*%
D26*
%TO.P,U6,1*%
%TO.N,Net-(U4-Pad3)*%
X172540000Y-28880000D03*
D13*
%TO.P,U6,2*%
%TO.N,Net-(U4-Pad6)*%
X170000000Y-28880000D03*
%TO.P,U6,3*%
%TO.N,Net-(U4-Pad9)*%
X167460000Y-28880000D03*
%TO.P,U6,4*%
%TO.N,unconnected-(U6-Pad4)*%
X164920000Y-28880000D03*
%TO.P,U6,5*%
%TO.N,unconnected-(U6-Pad5)*%
X162380000Y-28880000D03*
%TO.P,U6,6*%
%TO.N,unconnected-(U6-Pad6)*%
X159840000Y-28880000D03*
%TO.P,U6,7,GND*%
%TO.N,GND*%
X157300000Y-28880000D03*
%TO.P,U6,8*%
%TO.N,unconnected-(U6-Pad8)*%
X157300000Y-36500000D03*
%TO.P,U6,9*%
%TO.N,unconnected-(U6-Pad9)*%
X159840000Y-36500000D03*
%TO.P,U6,10*%
%TO.N,unconnected-(U6-Pad10)*%
X162380000Y-36500000D03*
%TO.P,U6,11*%
%TO.N,unconnected-(U6-Pad11)*%
X164920000Y-36500000D03*
%TO.P,U6,12*%
%TO.N,unconnected-(U6-Pad12)*%
X167460000Y-36500000D03*
%TO.P,U6,13*%
%TO.N,unconnected-(U6-Pad13)*%
X170000000Y-36500000D03*
%TO.P,U6,14,VCC*%
%TO.N,VCC*%
X172540000Y-36500000D03*
%TD*%
D10*
%TO.P,C27,1*%
%TO.N,VCC*%
X367730000Y-99990000D03*
%TO.P,C27,2*%
%TO.N,GND*%
X367730000Y-97990000D03*
%TD*%
D13*
%TO.P,R21,1*%
%TO.N,Net-(D21-K)*%
X59000000Y-70620000D03*
%TO.P,R21,2*%
%TO.N,GND*%
X59000000Y-78240000D03*
%TD*%
%TO.P,C4,1*%
%TO.N,GND*%
X108500000Y-27000000D03*
%TO.P,C4,2*%
%TO.N,Net-(U3-CV)*%
X106000000Y-27000000D03*
%TD*%
%TO.P,R42,1*%
%TO.N,Net-(D40-K)*%
X157000000Y-167000000D03*
%TO.P,R42,2*%
%TO.N,GND*%
X157000000Y-174620000D03*
%TD*%
D26*
%TO.P,U40,1*%
%TO.N,N/C*%
X301040000Y-156500000D03*
D13*
%TO.P,U40,2,A12*%
%TO.N,GND*%
X298500000Y-156500000D03*
%TO.P,U40,3,A7*%
%TO.N,Net-(U38-Q7)*%
X295960000Y-156500000D03*
%TO.P,U40,4,A6*%
%TO.N,Net-(U38-Q6)*%
X293420000Y-156500000D03*
%TO.P,U40,5,A5*%
%TO.N,Net-(U38-Q5)*%
X290880000Y-156500000D03*
%TO.P,U40,6,A4*%
%TO.N,Net-(U38-Q4)*%
X288340000Y-156500000D03*
%TO.P,U40,7,A3*%
%TO.N,Net-(U38-Q3)*%
X285800000Y-156500000D03*
%TO.P,U40,8,A2*%
%TO.N,Net-(U38-Q2)*%
X283260000Y-156500000D03*
%TO.P,U40,9,A1*%
%TO.N,Net-(U38-Q1)*%
X280720000Y-156500000D03*
%TO.P,U40,10,A0*%
%TO.N,Net-(U38-Q0)*%
X278180000Y-156500000D03*
%TO.P,U40,11,I/O0*%
%TO.N,Net-(U34-G)*%
X275640000Y-156500000D03*
%TO.P,U40,12,I/O1*%
%TO.N,Net-(U34-F)*%
X273100000Y-156500000D03*
%TO.P,U40,13,I/O2*%
%TO.N,Net-(U34-E)*%
X270560000Y-156500000D03*
%TO.P,U40,14,GND*%
%TO.N,GND*%
X268020000Y-156500000D03*
%TO.P,U40,15,I/O3*%
%TO.N,Net-(U34-D)*%
X268020000Y-171740000D03*
%TO.P,U40,16,I/O4*%
%TO.N,Net-(U34-C)*%
X270560000Y-171740000D03*
%TO.P,U40,17,I/O5*%
%TO.N,Net-(U34-B)*%
X273100000Y-171740000D03*
%TO.P,U40,18,I/O6*%
%TO.N,Net-(U34-A)*%
X275640000Y-171740000D03*
%TO.P,U40,19,I/O7*%
%TO.N,Net-(U34-DP)*%
X278180000Y-171740000D03*
%TO.P,U40,20,~{CE}*%
%TO.N,GND*%
X280720000Y-171740000D03*
%TO.P,U40,21,A10*%
%TO.N,Net-(SW7-B)*%
X283260000Y-171740000D03*
%TO.P,U40,22,~{OE}*%
%TO.N,GND*%
X285800000Y-171740000D03*
%TO.P,U40,23,A11*%
X288340000Y-171740000D03*
%TO.P,U40,24,A9*%
%TO.N,Net-(U32B-~{Q})*%
X290880000Y-171740000D03*
%TO.P,U40,25,A8*%
%TO.N,Net-(U32A-~{Q})*%
X293420000Y-171740000D03*
%TO.P,U40,26*%
%TO.N,N/C*%
X295960000Y-171740000D03*
%TO.P,U40,27,~{WE}*%
%TO.N,VCC*%
X298500000Y-171740000D03*
%TO.P,U40,28,VCC*%
X301040000Y-171740000D03*
%TD*%
D10*
%TO.P,C65,1*%
%TO.N,VCC*%
X224500000Y-90500000D03*
%TO.P,C65,2*%
%TO.N,GND*%
X226500000Y-90500000D03*
%TD*%
D13*
%TO.P,R91,1*%
%TO.N,Net-(D022-K)*%
X280760000Y-122310000D03*
%TO.P,R91,2*%
%TO.N,GND*%
X280760000Y-129930000D03*
%TD*%
D10*
%TO.P,C45,1*%
%TO.N,VCC*%
X162500000Y-76000000D03*
%TO.P,C45,2*%
%TO.N,GND*%
X162500000Y-74000000D03*
%TD*%
D13*
%TO.P,R41,1*%
%TO.N,Net-(D39-K)*%
X152000000Y-167000000D03*
%TO.P,R41,2*%
%TO.N,GND*%
X152000000Y-174620000D03*
%TD*%
%TO.P,R30,1*%
%TO.N,Net-(D32-K)*%
X113000000Y-119000000D03*
%TO.P,R30,2*%
%TO.N,GND*%
X113000000Y-126620000D03*
%TD*%
D11*
%TO.P,D114,1,K*%
%TO.N,Net-(D114-K)*%
X100960000Y-154160000D03*
D12*
%TO.P,D114,2,A*%
%TO.N,IR_5*%
X100960000Y-151620000D03*
%TD*%
D21*
%TO.P,U51,1,S*%
%TO.N,/MAR/PROG*%
X111710000Y-86740000D03*
D13*
%TO.P,U51,2,I0a*%
%TO.N,unconnected-(U51-I0a-Pad2)*%
X114250000Y-86740000D03*
%TO.P,U51,3,I1a*%
%TO.N,unconnected-(U51-I1a-Pad3)*%
X116790000Y-86740000D03*
%TO.P,U51,4,Za*%
%TO.N,unconnected-(U51-Za-Pad4)*%
X119330000Y-86740000D03*
%TO.P,U51,5,I0b*%
%TO.N,unconnected-(U51-I0b-Pad5)*%
X121870000Y-86740000D03*
%TO.P,U51,6,I1b*%
%TO.N,unconnected-(U51-I1b-Pad6)*%
X124410000Y-86740000D03*
%TO.P,U51,7,Zb*%
%TO.N,unconnected-(U51-Zb-Pad7)*%
X126950000Y-86740000D03*
%TO.P,U51,8,GND*%
%TO.N,GND*%
X129490000Y-86740000D03*
%TO.P,U51,9,Zd*%
%TO.N,unconnected-(U51-Zd-Pad9)*%
X129490000Y-79120000D03*
%TO.P,U51,10,I1d*%
%TO.N,unconnected-(U51-I1d-Pad10)*%
X126950000Y-79120000D03*
%TO.P,U51,11,I0d*%
%TO.N,unconnected-(U51-I0d-Pad11)*%
X124410000Y-79120000D03*
%TO.P,U51,12,Zc*%
%TO.N,Net-(U51-Zc)*%
X121870000Y-79120000D03*
%TO.P,U51,13,I1c*%
%TO.N,Net-(U51-I1c)*%
X119330000Y-79120000D03*
%TO.P,U51,14,I0c*%
%TO.N,Net-(U51-I0c)*%
X116790000Y-79120000D03*
%TO.P,U51,15,E*%
%TO.N,GND*%
X114250000Y-79120000D03*
%TO.P,U51,16,VCC*%
%TO.N,VCC*%
X111710000Y-79120000D03*
%TD*%
D10*
%TO.P,C15,1*%
%TO.N,VCC*%
X230566800Y-24326800D03*
%TO.P,C15,2*%
%TO.N,GND*%
X232566800Y-24326800D03*
%TD*%
D13*
%TO.P,R16,1*%
%TO.N,GND*%
X391120000Y-94000000D03*
%TO.P,R16,2*%
%TO.N,Net-(D18-K)*%
X391120000Y-86380000D03*
%TD*%
D10*
%TO.P,C67,1*%
%TO.N,VCC*%
X169240000Y-146000000D03*
%TO.P,C67,2*%
%TO.N,GND*%
X169240000Y-148000000D03*
%TD*%
D13*
%TO.P,R34,1*%
%TO.N,GND*%
X261496800Y-46126800D03*
%TO.P,R34,2*%
%TO.N,Net-(D35-K)*%
X253876800Y-46126800D03*
%TD*%
D14*
%TO.P,U30,1,~{MR}*%
%TO.N,~{CLR}*%
X229186800Y-56366800D03*
D15*
%TO.P,U30,2,CP*%
%TO.N,CLK*%
X229186800Y-53826800D03*
%TO.P,U30,3,D0*%
%TO.N,BUS_0*%
X229186800Y-51286800D03*
%TO.P,U30,4,D1*%
%TO.N,BUS_1*%
X229186800Y-48746800D03*
%TO.P,U30,5,D2*%
%TO.N,BUS_2*%
X229186800Y-46206800D03*
%TO.P,U30,6,D3*%
%TO.N,BUS_3*%
X229186800Y-43666800D03*
%TO.P,U30,7,CEP*%
%TO.N,CE*%
X229186800Y-41126800D03*
%TO.P,U30,8,GND*%
%TO.N,GND*%
X229186800Y-38586800D03*
%TO.P,U30,9,~{PE}*%
%TO.N,~{J}*%
X221566800Y-38586800D03*
%TO.P,U30,10,CET*%
%TO.N,CE*%
X221566800Y-41126800D03*
%TO.P,U30,11,Q3*%
%TO.N,Net-(D34-A)*%
X221566800Y-43666800D03*
%TO.P,U30,12,Q2*%
%TO.N,Net-(D35-A)*%
X221566800Y-46206800D03*
%TO.P,U30,13,Q1*%
%TO.N,Net-(D36-A)*%
X221566800Y-48746800D03*
%TO.P,U30,14,Q0*%
%TO.N,Net-(D37-A)*%
X221566800Y-51286800D03*
%TO.P,U30,15,TC*%
%TO.N,unconnected-(U30-TC-Pad15)*%
X221566800Y-53826800D03*
%TO.P,U30,16,VCC*%
%TO.N,VCC*%
X221566800Y-56366800D03*
%TD*%
D11*
%TO.P,D112,1,K*%
%TO.N,Net-(D112-K)*%
X86960000Y-154160000D03*
D12*
%TO.P,D112,2,A*%
%TO.N,IR_7*%
X86960000Y-151620000D03*
%TD*%
D11*
%TO.P,D15,1,K*%
%TO.N,Net-(D15-K)*%
X374560000Y-83896800D03*
D12*
%TO.P,D15,2,A*%
%TO.N,Net-(D15-A)*%
X374560000Y-81356800D03*
%TD*%
D11*
%TO.P,D48,1,K*%
%TO.N,Net-(D48-K)*%
X196970000Y-162000000D03*
D12*
%TO.P,D48,2,A*%
%TO.N,Net-(D48-A)*%
X199510000Y-162000000D03*
%TD*%
D13*
%TO.P,R78,1*%
%TO.N,BUS_2*%
X315190000Y-181500000D03*
%TO.P,R78,2*%
%TO.N,GND*%
X322810000Y-181500000D03*
%TD*%
D21*
%TO.P,SW5,1*%
%TO.N,Net-(U24-I0d)*%
X41960000Y-103500000D03*
D13*
%TO.P,SW5,2*%
%TO.N,Net-(U24-I0c)*%
X44500000Y-103500000D03*
%TO.P,SW5,3*%
%TO.N,GND*%
X47040000Y-103500000D03*
%TO.P,SW5,4*%
X49580000Y-103500000D03*
%TO.P,SW5,5*%
%TO.N,Net-(U52-I0d)*%
X52120000Y-103500000D03*
%TO.P,SW5,6*%
%TO.N,Net-(U52-I0c)*%
X54660000Y-103500000D03*
%TO.P,SW5,7*%
%TO.N,GND*%
X57200000Y-103500000D03*
%TO.P,SW5,8*%
X59740000Y-103500000D03*
%TO.P,SW5,9*%
%TO.N,Net-(U52-I0a)*%
X59740000Y-95880000D03*
%TO.P,SW5,10*%
%TO.N,Net-(U52-I0b)*%
X57200000Y-95880000D03*
%TO.P,SW5,11*%
%TO.N,GND*%
X54660000Y-95880000D03*
%TO.P,SW5,12*%
X52120000Y-95880000D03*
%TO.P,SW5,13*%
%TO.N,Net-(U24-I0a)*%
X49580000Y-95880000D03*
%TO.P,SW5,14*%
%TO.N,Net-(U24-I0b)*%
X47040000Y-95880000D03*
%TO.P,SW5,15*%
%TO.N,GND*%
X44500000Y-95880000D03*
%TO.P,SW5,16*%
X41960000Y-95880000D03*
%TD*%
D11*
%TO.P,D6,1,K*%
%TO.N,Net-(D6-K)*%
X298000000Y-83540000D03*
D12*
%TO.P,D6,2,A*%
%TO.N,/ALU/A_3*%
X298000000Y-81000000D03*
%TD*%
D19*
%TO.P,U34,1,E*%
%TO.N,Net-(U34-E)*%
X313230000Y-172240000D03*
D13*
%TO.P,U34,2,D*%
%TO.N,Net-(U34-D)*%
X315770000Y-172240000D03*
%TO.P,U34,3,CC*%
%TO.N,Net-(U33A-O3)*%
X318310000Y-172240000D03*
%TO.P,U34,4,C*%
%TO.N,Net-(U34-C)*%
X320850000Y-172240000D03*
%TO.P,U34,5,DP*%
%TO.N,Net-(U34-DP)*%
X323390000Y-172240000D03*
%TO.P,U34,6,B*%
%TO.N,Net-(U34-B)*%
X323390000Y-157000000D03*
%TO.P,U34,7,A*%
%TO.N,Net-(U34-A)*%
X320850000Y-157000000D03*
%TO.P,U34,8,CC*%
%TO.N,Net-(U33A-O3)*%
X318310000Y-157000000D03*
%TO.P,U34,9,F*%
%TO.N,Net-(U34-F)*%
X315770000Y-157000000D03*
%TO.P,U34,10,G*%
%TO.N,Net-(U34-G)*%
X313230000Y-157000000D03*
%TD*%
D10*
%TO.P,C40,1*%
%TO.N,GND*%
X299000000Y-63500000D03*
%TO.P,C40,2*%
%TO.N,VCC*%
X299000000Y-65500000D03*
%TD*%
D11*
%TO.P,D7,1,K*%
%TO.N,Net-(D7-K)*%
X302500000Y-83540000D03*
D12*
%TO.P,D7,2,A*%
%TO.N,/ALU/A_2*%
X302500000Y-81000000D03*
%TD*%
D13*
%TO.P,R84,1*%
%TO.N,Net-(D113-K)*%
X93960000Y-157810000D03*
%TO.P,R84,2*%
%TO.N,GND*%
X93960000Y-165430000D03*
%TD*%
D11*
%TO.P,D3,1,K*%
%TO.N,Net-(D3-K)*%
X284500000Y-83540000D03*
D12*
%TO.P,D3,2,A*%
%TO.N,/ALU/A_6*%
X284500000Y-81000000D03*
%TD*%
D14*
%TO.P,U42,1,A0*%
%TO.N,Net-(D59-A)*%
X176740000Y-142540000D03*
D15*
%TO.P,U42,2,A1*%
%TO.N,Net-(D60-A)*%
X176740000Y-140000000D03*
%TO.P,U42,3,A2*%
%TO.N,Net-(D61-A)*%
X176740000Y-137460000D03*
%TO.P,U42,4,E1*%
%TO.N,GND*%
X176740000Y-134920000D03*
%TO.P,U42,5,E2*%
X176740000Y-132380000D03*
%TO.P,U42,6,E3*%
%TO.N,VCC*%
X176740000Y-129840000D03*
%TO.P,U42,7,O7*%
%TO.N,unconnected-(U42-O7-Pad7)*%
X176740000Y-127300000D03*
%TO.P,U42,8,GND*%
%TO.N,GND*%
X176740000Y-124760000D03*
%TO.P,U42,9,O6*%
%TO.N,unconnected-(U42-O6-Pad9)*%
X169120000Y-124760000D03*
%TO.P,U42,10,O5*%
%TO.N,Net-(U42-O5)*%
X169120000Y-127300000D03*
%TO.P,U42,11,O4*%
%TO.N,Net-(D54-K)*%
X169120000Y-129840000D03*
%TO.P,U42,12,O3*%
%TO.N,Net-(D55-K)*%
X169120000Y-132380000D03*
%TO.P,U42,13,O2*%
%TO.N,Net-(D56-K)*%
X169120000Y-134920000D03*
%TO.P,U42,14,O1*%
%TO.N,Net-(D57-K)*%
X169120000Y-137460000D03*
%TO.P,U42,15,O0*%
%TO.N,Net-(D58-K)*%
X169120000Y-140000000D03*
%TO.P,U42,16,VCC*%
%TO.N,VCC*%
X169120000Y-142540000D03*
%TD*%
D13*
%TO.P,R27,1*%
%TO.N,Net-(D29-K)*%
X99500000Y-119000000D03*
%TO.P,R27,2*%
%TO.N,GND*%
X99500000Y-126620000D03*
%TD*%
%TO.P,R39,1*%
%TO.N,Net-(SW7-A)*%
X287880000Y-178500000D03*
%TO.P,R39,2*%
%TO.N,GND*%
X295500000Y-178500000D03*
%TD*%
D11*
%TO.P,D115,1,K*%
%TO.N,Net-(D115-K)*%
X107960000Y-154160000D03*
D12*
%TO.P,D115,2,A*%
%TO.N,IR_4*%
X107960000Y-151620000D03*
%TD*%
D13*
%TO.P,R55,1*%
%TO.N,Net-(D53-K)*%
X222000000Y-166880000D03*
%TO.P,R55,2*%
%TO.N,GND*%
X222000000Y-174500000D03*
%TD*%
D16*
%TO.P,U48,1,A->B*%
%TO.N,VCC*%
X241000000Y-76120000D03*
D17*
%TO.P,U48,2,A0*%
%TO.N,/ALU/A_4*%
X243540000Y-76120000D03*
%TO.P,U48,3,A1*%
%TO.N,/ALU/A_5*%
X246080000Y-76120000D03*
%TO.P,U48,4,A2*%
%TO.N,/ALU/A_6*%
X248620000Y-76120000D03*
%TO.P,U48,5,A3*%
%TO.N,/ALU/A_7*%
X251160000Y-76120000D03*
%TO.P,U48,6,A4*%
%TO.N,/ALU/A_0*%
X253700000Y-76120000D03*
%TO.P,U48,7,A5*%
%TO.N,/ALU/A_1*%
X256240000Y-76120000D03*
%TO.P,U48,8,A6*%
%TO.N,/ALU/A_2*%
X258780000Y-76120000D03*
%TO.P,U48,9,A7*%
%TO.N,/ALU/A_3*%
X261320000Y-76120000D03*
%TO.P,U48,10,GND*%
%TO.N,GND*%
X263860000Y-76120000D03*
%TO.P,U48,11,B7*%
%TO.N,BUS_0*%
X263860000Y-68500000D03*
%TO.P,U48,12,B6*%
%TO.N,BUS_1*%
X261320000Y-68500000D03*
%TO.P,U48,13,B5*%
%TO.N,BUS_2*%
X258780000Y-68500000D03*
%TO.P,U48,14,B4*%
%TO.N,BUS_3*%
X256240000Y-68500000D03*
%TO.P,U48,15,B3*%
%TO.N,BUS_4*%
X253700000Y-68500000D03*
%TO.P,U48,16,B2*%
%TO.N,BUS_5*%
X251160000Y-68500000D03*
%TO.P,U48,17,B1*%
%TO.N,BUS_6*%
X248620000Y-68500000D03*
%TO.P,U48,18,B0*%
%TO.N,BUS_7*%
X246080000Y-68500000D03*
%TO.P,U48,19,CE*%
%TO.N,~{AO}*%
X243540000Y-68500000D03*
%TO.P,U48,20,VCC*%
%TO.N,VCC*%
X241000000Y-68500000D03*
%TD*%
D11*
%TO.P,D37,1,K*%
%TO.N,Net-(D37-K)*%
X251186800Y-55126800D03*
D12*
%TO.P,D37,2,A*%
%TO.N,Net-(D37-A)*%
X248646800Y-55126800D03*
%TD*%
D13*
%TO.P,R61,1*%
%TO.N,Net-(D59-K)*%
X184930000Y-142500000D03*
%TO.P,R61,2*%
%TO.N,GND*%
X192550000Y-142500000D03*
%TD*%
D26*
%TO.P,U4,1*%
%TO.N,Net-(U1-Q)*%
X129540000Y-28760000D03*
D13*
%TO.P,U4,2*%
%TO.N,Net-(U3-Q)*%
X127000000Y-28760000D03*
%TO.P,U4,3*%
%TO.N,Net-(U4-Pad3)*%
X124460000Y-28760000D03*
%TO.P,U4,4*%
%TO.N,Net-(U4-Pad4)*%
X121920000Y-28760000D03*
%TO.P,U4,5*%
%TO.N,Net-(U2-Q)*%
X119380000Y-28760000D03*
%TO.P,U4,6*%
%TO.N,Net-(U4-Pad6)*%
X116840000Y-28760000D03*
%TO.P,U4,7,GND*%
%TO.N,GND*%
X114300000Y-28760000D03*
%TO.P,U4,8*%
%TO.N,CLK*%
X114300000Y-36380000D03*
%TO.P,U4,9*%
%TO.N,Net-(U4-Pad9)*%
X116840000Y-36380000D03*
%TO.P,U4,10*%
%TO.N,Net-(U4-Pad10)*%
X119380000Y-36380000D03*
%TO.P,U4,11*%
%TO.N,unconnected-(U4-Pad11)*%
X121920000Y-36380000D03*
%TO.P,U4,12*%
%TO.N,unconnected-(U4-Pad12)*%
X124460000Y-36380000D03*
%TO.P,U4,13*%
%TO.N,unconnected-(U4-Pad13)*%
X127000000Y-36380000D03*
%TO.P,U4,14,VCC*%
%TO.N,VCC*%
X129540000Y-36380000D03*
%TD*%
%TO.P,R73,1*%
%TO.N,BUS_7*%
X341000000Y-184000000D03*
%TO.P,R73,2*%
%TO.N,GND*%
X348620000Y-184000000D03*
%TD*%
D11*
%TO.P,D65,1,K*%
%TO.N,Net-(D65-K)*%
X318270000Y-188500000D03*
D12*
%TO.P,D65,2,A*%
%TO.N,BUS_3*%
X320810000Y-188500000D03*
%TD*%
D13*
%TO.P,R100,1*%
%TO.N,Net-(D3-K)*%
X284500000Y-86000000D03*
%TO.P,R100,2*%
%TO.N,GND*%
X284500000Y-93620000D03*
%TD*%
%TO.P,R15,1*%
%TO.N,Net-(D17-K)*%
X385620000Y-86380000D03*
%TO.P,R15,2*%
%TO.N,GND*%
X385620000Y-94000000D03*
%TD*%
D11*
%TO.P,D67,1,K*%
%TO.N,Net-(D67-K)*%
X328270000Y-188500000D03*
D12*
%TO.P,D67,2,A*%
%TO.N,BUS_5*%
X330810000Y-188500000D03*
%TD*%
D13*
%TO.P,R80,1*%
%TO.N,BUS_0*%
X305190000Y-181500000D03*
%TO.P,R80,2*%
%TO.N,GND*%
X312810000Y-181500000D03*
%TD*%
D11*
%TO.P,D22,1,K*%
%TO.N,Net-(D22-K)*%
X53560000Y-66620000D03*
D12*
%TO.P,D22,2,A*%
%TO.N,/MAR/A1*%
X53560000Y-64080000D03*
%TD*%
D10*
%TO.P,C11,1*%
%TO.N,VCC*%
X16000000Y-64000000D03*
%TO.P,C11,2*%
%TO.N,GND*%
X18000000Y-64000000D03*
%TD*%
D14*
%TO.P,U50,1,Oe1*%
%TO.N,GND*%
X298920000Y-76120000D03*
D15*
%TO.P,U50,2,Oe2*%
X301460000Y-76120000D03*
%TO.P,U50,3,Q0*%
%TO.N,/ALU/A_3*%
X304000000Y-76120000D03*
%TO.P,U50,4,Q1*%
%TO.N,/ALU/A_2*%
X306540000Y-76120000D03*
%TO.P,U50,5,Q2*%
%TO.N,/ALU/A_1*%
X309080000Y-76120000D03*
%TO.P,U50,6,Q3*%
%TO.N,/ALU/A_0*%
X311620000Y-76120000D03*
%TO.P,U50,7,Cp*%
%TO.N,CLK*%
X314160000Y-76120000D03*
%TO.P,U50,8,GND*%
%TO.N,GND*%
X316700000Y-76120000D03*
%TO.P,U50,9,E1*%
%TO.N,~{AI}*%
X316700000Y-68500000D03*
%TO.P,U50,10,E2*%
X314160000Y-68500000D03*
%TO.P,U50,11,D3*%
%TO.N,BUS_0*%
X311620000Y-68500000D03*
%TO.P,U50,12,D2*%
%TO.N,BUS_1*%
X309080000Y-68500000D03*
%TO.P,U50,13,D1*%
%TO.N,BUS_2*%
X306540000Y-68500000D03*
%TO.P,U50,14,D0*%
%TO.N,BUS_3*%
X304000000Y-68500000D03*
%TO.P,U50,15,Mr*%
%TO.N,CLR*%
X301460000Y-68500000D03*
%TO.P,U50,16,VCC*%
%TO.N,VCC*%
X298920000Y-68500000D03*
%TD*%
D10*
%TO.P,C57,1*%
%TO.N,VCC*%
X301000000Y-175000000D03*
%TO.P,C57,2*%
%TO.N,GND*%
X301000000Y-177000000D03*
%TD*%
%TO.P,C64,1*%
%TO.N,VCC*%
X138000000Y-58500000D03*
%TO.P,C64,2*%
%TO.N,GND*%
X138000000Y-56500000D03*
%TD*%
%TO.P,C69,1*%
%TO.N,VCC*%
X214500000Y-82500000D03*
%TO.P,C69,2*%
%TO.N,GND*%
X216500000Y-82500000D03*
%TD*%
D14*
%TO.P,U8,1,Oe1*%
%TO.N,GND*%
X276760000Y-113620000D03*
D15*
%TO.P,U8,2,Oe2*%
X279300000Y-113620000D03*
%TO.P,U8,3,Q0*%
%TO.N,/ALU/B_7*%
X281840000Y-113620000D03*
%TO.P,U8,4,Q1*%
%TO.N,/ALU/B_6*%
X284380000Y-113620000D03*
%TO.P,U8,5,Q2*%
%TO.N,/ALU/B_5*%
X286920000Y-113620000D03*
%TO.P,U8,6,Q3*%
%TO.N,/ALU/B_4*%
X289460000Y-113620000D03*
%TO.P,U8,7,Cp*%
%TO.N,CLK*%
X292000000Y-113620000D03*
%TO.P,U8,8,GND*%
%TO.N,GND*%
X294540000Y-113620000D03*
%TO.P,U8,9,E1*%
%TO.N,~{BI}*%
X294540000Y-106000000D03*
%TO.P,U8,10,E2*%
X292000000Y-106000000D03*
%TO.P,U8,11,D3*%
%TO.N,BUS_4*%
X289460000Y-106000000D03*
%TO.P,U8,12,D2*%
%TO.N,BUS_5*%
X286920000Y-106000000D03*
%TO.P,U8,13,D1*%
%TO.N,BUS_6*%
X284380000Y-106000000D03*
%TO.P,U8,14,D0*%
%TO.N,BUS_7*%
X281840000Y-106000000D03*
%TO.P,U8,15,Mr*%
%TO.N,CLR*%
X279300000Y-106000000D03*
%TO.P,U8,16,VCC*%
%TO.N,VCC*%
X276760000Y-106000000D03*
%TD*%
D21*
%TO.P,U1,1,GND*%
%TO.N,GND*%
X39920000Y-42120000D03*
D13*
%TO.P,U1,2,TR*%
%TO.N,Net-(U1-THR)*%
X42460000Y-42120000D03*
%TO.P,U1,3,Q*%
%TO.N,Net-(U1-Q)*%
X45000000Y-42120000D03*
%TO.P,U1,4,R*%
%TO.N,VCC*%
X47540000Y-42120000D03*
%TO.P,U1,5,CV*%
%TO.N,Net-(U1-CV)*%
X47540000Y-34500000D03*
%TO.P,U1,6,THR*%
%TO.N,Net-(U1-THR)*%
X45000000Y-34500000D03*
%TO.P,U1,7,DIS*%
%TO.N,Net-(U1-DIS)*%
X42460000Y-34500000D03*
%TO.P,U1,8,VCC*%
%TO.N,VCC*%
X39920000Y-34500000D03*
%TD*%
D27*
%TO.N,GND*%
X52000000Y-189000000D03*
X228500000Y-193000000D03*
X352500000Y-24500000D03*
X61000000Y-110500000D03*
X352500000Y-26500000D03*
X158942000Y-190808000D03*
X227329000Y-194500000D03*
X299500000Y-35500000D03*
X416500000Y-192000000D03*
X157942000Y-190808000D03*
X415500000Y-194000000D03*
X418000000Y-126500000D03*
X60000000Y-111500000D03*
X396000000Y-43000000D03*
X37000000Y-74000000D03*
X299500000Y-34500000D03*
X394000000Y-43000000D03*
X53000000Y-189000000D03*
X186000000Y-26500000D03*
X228500000Y-194500000D03*
X416500000Y-194000000D03*
X417000000Y-128500000D03*
X36000000Y-74000000D03*
X350500000Y-26500000D03*
X394000000Y-42000000D03*
X366000000Y-196000000D03*
X37000000Y-76000000D03*
X61000000Y-109500000D03*
X415500000Y-193000000D03*
X60000000Y-109500000D03*
X185000000Y-26500000D03*
X54000000Y-189000000D03*
X59000000Y-110500000D03*
X228500000Y-191617000D03*
X367000000Y-198000000D03*
X419000000Y-127500000D03*
X395000000Y-44000000D03*
X300500000Y-35500000D03*
X59000000Y-111500000D03*
X298500000Y-34500000D03*
X397276000Y-157132000D03*
X226000000Y-191617000D03*
X226000000Y-193000000D03*
X186000000Y-27500000D03*
X414500000Y-194000000D03*
X366000000Y-197000000D03*
X184000000Y-28500000D03*
X36000000Y-75000000D03*
X37000000Y-75000000D03*
X397276000Y-156132000D03*
X395276000Y-156132000D03*
X419000000Y-126500000D03*
X418000000Y-127500000D03*
X395276000Y-157132000D03*
X227329000Y-191617000D03*
X61000000Y-111500000D03*
X53000000Y-187000000D03*
X352500000Y-25500000D03*
X395276000Y-158132000D03*
X418000000Y-128500000D03*
X365000000Y-197000000D03*
X367000000Y-196000000D03*
X299500000Y-36500000D03*
X414500000Y-193000000D03*
X38000000Y-74000000D03*
X156942000Y-191808000D03*
X156942000Y-190808000D03*
X300500000Y-36500000D03*
X415500000Y-192000000D03*
X158942000Y-189808000D03*
X54000000Y-187000000D03*
X156942000Y-189808000D03*
X351500000Y-25500000D03*
X396276000Y-156132000D03*
X36000000Y-76000000D03*
X367000000Y-197000000D03*
X365000000Y-196000000D03*
X53000000Y-188000000D03*
X396000000Y-44000000D03*
X396000000Y-42000000D03*
X298500000Y-35500000D03*
X185000000Y-28500000D03*
X227329000Y-193000000D03*
X38000000Y-75000000D03*
X226000000Y-194500000D03*
X351500000Y-26500000D03*
X395000000Y-43000000D03*
X396276000Y-157132000D03*
X184000000Y-27500000D03*
X157942000Y-191808000D03*
X397276000Y-158132000D03*
X417000000Y-126500000D03*
X185000000Y-27500000D03*
X54000000Y-188000000D03*
X158942000Y-191808000D03*
X350500000Y-25500000D03*
X350500000Y-24500000D03*
X416500000Y-193000000D03*
X300500000Y-34500000D03*
X184000000Y-26500000D03*
X396276000Y-158132000D03*
X298500000Y-36500000D03*
X419000000Y-128500000D03*
X394000000Y-44000000D03*
X186000000Y-28500000D03*
X366000000Y-198000000D03*
X365000000Y-198000000D03*
X395000000Y-42000000D03*
X417000000Y-127500000D03*
X157942000Y-189808000D03*
X60000000Y-110500000D03*
X414500000Y-192000000D03*
X351500000Y-24500000D03*
X59000000Y-109500000D03*
X52000000Y-187000000D03*
X52000000Y-188000000D03*
X38000000Y-76000000D03*
%TO.N,VCC*%
X379691000Y-181626000D03*
X407500000Y-148000000D03*
X57500000Y-163000000D03*
X36000000Y-19500000D03*
X411000000Y-56000000D03*
X136500000Y-113500000D03*
X337000000Y-26000000D03*
X135500000Y-115500000D03*
X411000000Y-54000000D03*
X409500000Y-148000000D03*
X337000000Y-24000000D03*
X380691000Y-182626000D03*
X232500000Y-109000000D03*
X66500000Y-117000000D03*
X66500000Y-116000000D03*
X413000000Y-54000000D03*
X58500000Y-163000000D03*
X215500000Y-32000000D03*
X136500000Y-114500000D03*
X27676100Y-99124200D03*
X231500000Y-110000000D03*
X136500000Y-115500000D03*
X408500000Y-149000000D03*
X66500000Y-115000000D03*
X232500000Y-99500000D03*
X216500000Y-31000000D03*
X233500000Y-98500000D03*
X27676100Y-100124000D03*
X411000000Y-55000000D03*
X57500000Y-165000000D03*
X26676100Y-99124200D03*
X338000000Y-24000000D03*
X134500000Y-113500000D03*
X338000000Y-25000000D03*
X135500000Y-113500000D03*
X232500000Y-98500000D03*
X378691000Y-180626000D03*
X57500000Y-164000000D03*
X232500000Y-97500000D03*
X409500000Y-149000000D03*
X412000000Y-56000000D03*
X339000000Y-26000000D03*
X230500000Y-110000000D03*
X134500000Y-114500000D03*
X37000000Y-21500000D03*
X36000000Y-20500000D03*
X214500000Y-31000000D03*
X339000000Y-25000000D03*
X36000000Y-21500000D03*
X59500000Y-163000000D03*
X412000000Y-54000000D03*
X412000000Y-55000000D03*
X380691000Y-180626000D03*
X380691000Y-181626000D03*
X408500000Y-150000000D03*
X68500000Y-116000000D03*
X233500000Y-99500000D03*
X407500000Y-150000000D03*
X234500000Y-97500000D03*
X37000000Y-19500000D03*
X215500000Y-31000000D03*
X216500000Y-33000000D03*
X58500000Y-164000000D03*
X67500000Y-116000000D03*
X135500000Y-114500000D03*
X413000000Y-56000000D03*
X37000000Y-20500000D03*
X38000000Y-21500000D03*
X38000000Y-20500000D03*
X379691000Y-180626000D03*
X232500000Y-110000000D03*
X27676100Y-101124000D03*
X337000000Y-25000000D03*
X26676100Y-100124000D03*
X409500000Y-150000000D03*
X231500000Y-109000000D03*
X234500000Y-98500000D03*
X134500000Y-115500000D03*
X38000000Y-19500000D03*
X59500000Y-164000000D03*
X25676100Y-100124000D03*
X25676100Y-99124200D03*
X338000000Y-26000000D03*
X25676100Y-101124000D03*
X26676100Y-101124000D03*
X67500000Y-115000000D03*
X216500000Y-32000000D03*
X232500000Y-108000000D03*
X215500000Y-33000000D03*
X407500000Y-149000000D03*
X233500000Y-97500000D03*
X68500000Y-115000000D03*
X234500000Y-99500000D03*
X231500000Y-108000000D03*
X378691000Y-182626000D03*
X230500000Y-108000000D03*
X214500000Y-32000000D03*
X58500000Y-165000000D03*
X379691000Y-182626000D03*
X68500000Y-117000000D03*
X59500000Y-165000000D03*
X408500000Y-148000000D03*
X67500000Y-117000000D03*
X339000000Y-24000000D03*
X413000000Y-55000000D03*
X230500000Y-109000000D03*
X214500000Y-33000000D03*
X378691000Y-181626000D03*
%TO.N,BUS_5*%
X258000000Y-70239200D03*
X103500000Y-97500000D03*
X113500000Y-94000000D03*
X126500000Y-90000000D03*
X108084000Y-133916000D03*
X113600000Y-95500000D03*
X150500000Y-84000000D03*
X245561000Y-74099000D03*
X103486000Y-131014000D03*
X153102000Y-84101800D03*
X128568000Y-90067800D03*
X102000000Y-97500000D03*
X104500000Y-130000000D03*
X287000000Y-109500000D03*
%TO.N,CLK*%
X292177000Y-77977200D03*
X292500000Y-104000000D03*
X93000000Y-127500000D03*
X269500000Y-139500000D03*
X271500000Y-138000000D03*
X214000000Y-51000000D03*
X304000000Y-112000000D03*
X93500000Y-139000000D03*
X271500000Y-71500000D03*
X93500000Y-68000000D03*
X98701600Y-49551300D03*
X246000000Y-61000000D03*
X90500000Y-70500000D03*
X306443000Y-77977200D03*
%TO.N,/ALU/A_7*%
X309472000Y-88000000D03*
X322000000Y-88000000D03*
X259000000Y-72500000D03*
%TO.N,/ALU/A_6*%
X250000000Y-74000000D03*
X270000000Y-74000000D03*
X316500000Y-80500000D03*
%TO.N,/ALU/A_5*%
X310900000Y-79000000D03*
%TO.N,/ALU/A_4*%
X287000000Y-73400000D03*
X306000000Y-82000000D03*
%TO.N,/ALU/A_3*%
X328153000Y-93153400D03*
X296000000Y-77377200D03*
X326927000Y-91927200D03*
%TO.N,/ALU/A_2*%
X264500000Y-79500000D03*
%TO.N,/ALU/A_1*%
X328500000Y-105500000D03*
%TO.N,ZF*%
X312500000Y-91100000D03*
X353000000Y-90100000D03*
X402000000Y-88081000D03*
X348066000Y-89900000D03*
X254000000Y-91500000D03*
X209500000Y-121000000D03*
X209000000Y-105840000D03*
X371000000Y-88500000D03*
X266058000Y-91500000D03*
X280500000Y-91300000D03*
X376500000Y-88500000D03*
X209000000Y-104500000D03*
%TO.N,Net-(D12-A)*%
X359281000Y-85688700D03*
%TO.N,Net-(D13-A)*%
X342538000Y-78569000D03*
%TO.N,CF*%
X389305000Y-87071000D03*
X280500000Y-90500000D03*
X247400000Y-90500000D03*
X366000000Y-89500000D03*
X367500000Y-89500000D03*
X220100000Y-91500000D03*
X266058000Y-90500000D03*
X311000000Y-90500000D03*
X347500000Y-90500000D03*
X386806000Y-87071000D03*
X350500000Y-90500000D03*
%TO.N,Net-(D15-A)*%
X372500000Y-88500000D03*
X353500000Y-92000000D03*
X350000000Y-88000000D03*
%TO.N,Net-(D17-A)*%
X374000000Y-96500000D03*
X375229000Y-96500000D03*
%TO.N,Net-(D18-A)*%
X340400000Y-104591000D03*
X364094000Y-111594000D03*
%TO.N,/MAR/A3*%
X111500000Y-100400000D03*
%TO.N,/MAR/A2*%
X96000000Y-99500000D03*
%TO.N,/MAR/A1*%
X112400000Y-98500000D03*
X92000000Y-98000000D03*
%TO.N,/ALU/B_7*%
X309500000Y-135850000D03*
X290364000Y-125136000D03*
X299400000Y-128488000D03*
X264272000Y-117161000D03*
X284500000Y-123500000D03*
%TO.N,/MAR/A0*%
X92260800Y-109000000D03*
X112400000Y-105000000D03*
%TO.N,/ALU/B_6*%
X271165000Y-111555000D03*
X273000000Y-113500000D03*
%TO.N,/ALU/B_5*%
X272000000Y-117761000D03*
X263000000Y-118500000D03*
X286500000Y-115359000D03*
%TO.N,/ALU/B_4*%
X302500000Y-124500000D03*
X269525000Y-116025000D03*
X263000000Y-116000000D03*
%TO.N,Net-(D26-A)*%
X95739200Y-102100000D03*
X120000000Y-84400000D03*
X105026243Y-96900000D03*
X110500000Y-89500000D03*
X134000000Y-72500000D03*
X104674265Y-94174265D03*
X128000000Y-80400000D03*
%TO.N,/ALU/B_2*%
X306500000Y-115500000D03*
X287785000Y-118285000D03*
X312000000Y-115500000D03*
%TO.N,Net-(D27-A)*%
X112041300Y-69851900D03*
X81370800Y-74703200D03*
X78102500Y-97804400D03*
X96591000Y-70496000D03*
X91512500Y-75046900D03*
%TO.N,/ALU/B_1*%
X270500000Y-112000000D03*
X303500000Y-110200000D03*
X291500000Y-110900000D03*
%TO.N,Net-(D28-A)*%
X132983200Y-90251000D03*
X124450100Y-99576400D03*
X123646300Y-114228300D03*
X133000000Y-80400000D03*
X133963700Y-75496100D03*
X134570065Y-85929935D03*
%TO.N,Net-(D29-A)*%
X120431091Y-90584478D03*
X132500000Y-79500000D03*
X127500000Y-84081000D03*
X149500000Y-66500000D03*
%TO.N,/ALU/B_0*%
X272522000Y-110955000D03*
X303500000Y-111000000D03*
%TO.N,Net-(D30-A)*%
X106840300Y-111475400D03*
X150366100Y-93715900D03*
X123636400Y-111266200D03*
X122955600Y-100045300D03*
X138826200Y-95630400D03*
X128111200Y-100111500D03*
%TO.N,Net-(D31-A)*%
X134500000Y-70468700D03*
X121771845Y-90228134D03*
X119500000Y-99500000D03*
X121500000Y-93400000D03*
X107080000Y-106420000D03*
X125500000Y-80400000D03*
X113900000Y-106500000D03*
%TO.N,Net-(D32-A)*%
X137246000Y-90397600D03*
X116500000Y-109000000D03*
X137000000Y-94000000D03*
X113000000Y-109800000D03*
X156000000Y-76000000D03*
X142500000Y-82400000D03*
%TO.N,Net-(D33-A)*%
X159326000Y-81174300D03*
X137573000Y-96601900D03*
X165500000Y-74500000D03*
X117500000Y-111760000D03*
%TO.N,HLT*%
X175000000Y-74000000D03*
X188500000Y-85500000D03*
%TO.N,Net-(D39-A)*%
X215000000Y-92500000D03*
X192000000Y-124500000D03*
%TO.N,RI*%
X193500000Y-129000000D03*
X133500000Y-106000000D03*
X116500000Y-92699000D03*
X116500000Y-91000000D03*
X166500000Y-132201000D03*
X202000000Y-123500000D03*
X178255000Y-143255000D03*
X120200000Y-95499000D03*
%TO.N,Net-(D41-A)*%
X193000000Y-134500000D03*
%TO.N,Net-(D42-A)*%
X208000000Y-124000000D03*
X188500000Y-142000000D03*
X200500000Y-99500000D03*
X193000000Y-139500000D03*
%TO.N,Net-(D43-A)*%
X182000000Y-86500000D03*
X189500000Y-135500000D03*
X194299000Y-112870000D03*
%TO.N,Net-(D44-A)*%
X185000000Y-84734000D03*
X184215000Y-80284700D03*
X177500000Y-71500000D03*
X191326000Y-120826000D03*
%TO.N,Net-(D45-A)*%
X185500000Y-83500000D03*
X185000000Y-81000000D03*
%TO.N,Net-(D46-A)*%
X202809000Y-151460000D03*
%TO.N,SU*%
X302000000Y-146000000D03*
X290500000Y-146000000D03*
%TO.N,Net-(D48-A)*%
X204000000Y-155000000D03*
%TO.N,CE*%
X225000000Y-49000000D03*
X219500000Y-72500000D03*
X219500000Y-78000000D03*
%TO.N,Net-(D51-A)*%
X212000000Y-158500000D03*
%TO.N,Net-(D52-A)*%
X203000000Y-152500000D03*
X208900000Y-122246000D03*
%TO.N,Net-(D53-A)*%
X204603000Y-145780000D03*
%TO.N,Net-(D59-A)*%
X187500000Y-102100000D03*
X188500000Y-144500000D03*
%TO.N,Net-(D60-A)*%
X194000000Y-104500000D03*
X193509000Y-114509000D03*
X188319000Y-139819000D03*
X190100000Y-131500000D03*
X192000000Y-140500000D03*
%TO.N,Net-(D61-A)*%
X186476000Y-125676000D03*
X191926000Y-134500000D03*
X188900000Y-132000000D03*
X188000000Y-128500000D03*
%TO.N,BUS_1*%
X259000000Y-66500000D03*
X112000000Y-93000000D03*
X267000000Y-106738000D03*
X266500000Y-109500000D03*
%TO.N,BUS_2*%
X314500000Y-70000000D03*
X160000000Y-78000000D03*
X126568000Y-92067800D03*
X112500000Y-94000000D03*
X214500000Y-53000000D03*
X165000000Y-76301000D03*
X107000000Y-94000000D03*
X216500000Y-51500000D03*
X294000000Y-138000000D03*
X305500000Y-108000000D03*
X100073000Y-76927200D03*
X100500000Y-79500000D03*
X260500000Y-66000000D03*
X306000000Y-104000000D03*
%TO.N,IR_6*%
X199100000Y-113051000D03*
X193000000Y-121000000D03*
X100714000Y-141786000D03*
%TO.N,IR_5*%
X123496000Y-147004000D03*
X176000000Y-133500000D03*
X198500000Y-101500000D03*
X198500000Y-116000000D03*
%TO.N,IR_4*%
X200000000Y-121000000D03*
X133500000Y-147500000D03*
X124000000Y-147900000D03*
X200000000Y-122500000D03*
%TO.N,Net-(U24-I0d)*%
X146500000Y-76500000D03*
X101466000Y-94034300D03*
X109500000Y-93000000D03*
X110250000Y-90401471D03*
%TO.N,Net-(U24-I0a)*%
X132000000Y-88500000D03*
X96500000Y-91900000D03*
X84000000Y-91900000D03*
X110000000Y-88000000D03*
X104500000Y-88500000D03*
%TO.N,Net-(U24-I0c)*%
X104250000Y-91999000D03*
X110000000Y-88800003D03*
X113961000Y-84539300D03*
X137000000Y-81000000D03*
X98000000Y-91500000D03*
X69000000Y-98000000D03*
%TO.N,Net-(U24-I0b)*%
X82500000Y-92500000D03*
X99000000Y-92000000D03*
X146500000Y-88256000D03*
%TO.N,Net-(U4-Pad9)*%
X129494000Y-38201000D03*
%TO.N,Net-(U4-Pad4)*%
X147500000Y-30581000D03*
%TO.N,Net-(U24-Za)*%
X144395600Y-81435100D03*
X104409200Y-80967900D03*
X98128600Y-80834200D03*
X117416300Y-82589100D03*
%TO.N,~{CLK}*%
X164500000Y-61000000D03*
X172000000Y-75900000D03*
X167000000Y-68500000D03*
%TO.N,Net-(U52-Zc)*%
X164500000Y-72000000D03*
%TO.N,Net-(U23-D2)*%
X106324700Y-108269500D03*
X94829800Y-91236800D03*
%TO.N,Net-(U52-Zb)*%
X178135000Y-84364700D03*
X172000000Y-68571300D03*
%TO.N,CLR*%
X99741000Y-80589500D03*
X319000000Y-74600000D03*
X287000000Y-71000000D03*
X101500000Y-130000000D03*
X99741000Y-84500000D03*
X300500000Y-71900000D03*
X131000000Y-134500000D03*
X211534000Y-121646000D03*
X100000000Y-98500000D03*
X101564000Y-92435700D03*
X274000000Y-110701000D03*
%TO.N,~{BI}*%
X246000000Y-122246000D03*
X272176000Y-111676000D03*
X247000000Y-121000000D03*
%TO.N,Net-(U12-D1)*%
X379000000Y-113000000D03*
X380000000Y-112000000D03*
%TO.N,Net-(U10-Pad2)*%
X367500000Y-103000000D03*
%TO.N,~{FI}*%
X351500000Y-80500000D03*
X354000000Y-80500000D03*
%TO.N,Net-(U13-B2)*%
X332584000Y-94415700D03*
X334000000Y-87400000D03*
%TO.N,Net-(U13-B1)*%
X335000000Y-91500000D03*
X329826000Y-107674000D03*
%TO.N,Net-(U13-B3)*%
X341000000Y-91500000D03*
%TO.N,Net-(U14-B2)*%
X334000000Y-112109000D03*
%TO.N,/MAR/PROG*%
X95000000Y-68000000D03*
%TO.N,BUS_4*%
X305549000Y-71500000D03*
X151500000Y-83000000D03*
X290000000Y-109500000D03*
X259500000Y-108000000D03*
X108000000Y-92000000D03*
X154102000Y-83101800D03*
X382000000Y-72000000D03*
X304349000Y-71000000D03*
%TO.N,BUS_6*%
X134500000Y-93000000D03*
X284000000Y-110000000D03*
X376500000Y-72500000D03*
X101500000Y-131421000D03*
X195500000Y-73499000D03*
X283000000Y-71000000D03*
X306900000Y-72500000D03*
X137000000Y-93000000D03*
X243621000Y-73499000D03*
X310672000Y-72500000D03*
X118000000Y-93000000D03*
X194500000Y-77501000D03*
X251500000Y-66500000D03*
X255054000Y-65445700D03*
%TO.N,~{MI}*%
X168000000Y-82000000D03*
X111000000Y-62500000D03*
X158102000Y-79101800D03*
%TO.N,BUS_7*%
X374000000Y-73100000D03*
X99500000Y-94500000D03*
X267500000Y-69039200D03*
X127500000Y-91467800D03*
X144500000Y-91000000D03*
X306900000Y-74000000D03*
X280500000Y-71000000D03*
X97000000Y-128500000D03*
X281500000Y-110000000D03*
X102000000Y-134500000D03*
X147000000Y-91000000D03*
X310672000Y-74000000D03*
%TO.N,Net-(U51-Zc)*%
X96500000Y-81000000D03*
X115500000Y-76000000D03*
X90500000Y-85000000D03*
%TO.N,Net-(U24-Zb)*%
X106846100Y-85519900D03*
X158260600Y-84624400D03*
X97614600Y-86337700D03*
%TO.N,Net-(U21-D1)*%
X108500000Y-76500000D03*
%TO.N,Net-(U52-I0c)*%
X136307000Y-93600000D03*
X93500000Y-101500000D03*
X119500000Y-101600000D03*
X92000000Y-101500000D03*
X159500000Y-85000000D03*
X112400000Y-101600000D03*
X141500000Y-90400000D03*
%TO.N,Net-(U24-Zc)*%
X114679200Y-82207300D03*
X105351700Y-83819300D03*
%TO.N,Net-(U21-D2)*%
X100049000Y-75000000D03*
%TO.N,Net-(U24-Zd)*%
X109000000Y-81100000D03*
X134500000Y-80400000D03*
X103000000Y-79500000D03*
%TO.N,Net-(U23-D0)*%
X117500000Y-101000000D03*
X106000000Y-94000000D03*
X102500000Y-87500000D03*
X112068000Y-99290800D03*
X124000000Y-101000000D03*
%TO.N,Net-(U52-Za)*%
X132414900Y-82816800D03*
X107806100Y-85771900D03*
X118446400Y-82816000D03*
X112196000Y-84724200D03*
X134924300Y-87132700D03*
X141987800Y-88329700D03*
%TO.N,~{RO}*%
X129500000Y-101000000D03*
X195500000Y-101500000D03*
%TO.N,Net-(U42-O5)*%
X125068000Y-93600000D03*
%TO.N,Net-(U26-Pad6)*%
X150000000Y-94500000D03*
X131000000Y-85000000D03*
%TO.N,Net-(U51-I1c)*%
X100049000Y-76000000D03*
X106789000Y-78210700D03*
%TO.N,~{IO}*%
X164500000Y-81000000D03*
X168000000Y-75900000D03*
X123500000Y-116500000D03*
X121925000Y-117575000D03*
%TO.N,~{AI}*%
X306500000Y-69648900D03*
X224400000Y-66000000D03*
X290000000Y-66359800D03*
X183500000Y-65500000D03*
X184675000Y-66175100D03*
X250936000Y-65564300D03*
X226000000Y-66000000D03*
X304000000Y-69648900D03*
X254958000Y-64651600D03*
%TO.N,~{AO}*%
X188500000Y-67000000D03*
X210500000Y-71000000D03*
X180500000Y-63500000D03*
%TO.N,Net-(U52-I0d)*%
X114000000Y-97000000D03*
X145651000Y-88256000D03*
X174500000Y-84000000D03*
X130000000Y-90400000D03*
X92000000Y-100500000D03*
%TO.N,~{J}*%
X222500000Y-61000000D03*
X223500000Y-51000000D03*
X223000000Y-43500000D03*
%TO.N,Net-(U33A-O1)*%
X293009000Y-152898000D03*
X283000000Y-153000000D03*
%TO.N,Net-(U33A-O2)*%
X287092000Y-154823000D03*
X295500000Y-155000000D03*
%TO.N,Net-(U33A-O3)*%
X265156000Y-158656000D03*
%TO.N,Net-(U52-I0b)*%
X135326000Y-90174300D03*
X82500000Y-97900000D03*
X108000000Y-96900000D03*
X98540800Y-97299000D03*
X145000000Y-90102000D03*
X123000000Y-90000000D03*
%TO.N,Net-(U33A-O0)*%
X292583000Y-154271000D03*
X289896000Y-154096000D03*
%TO.N,Net-(U34-C)*%
X320500000Y-174600000D03*
%TO.N,Net-(U34-A)*%
X315000000Y-159500000D03*
X311500000Y-161500000D03*
%TO.N,Net-(U38-Q7)*%
X290496000Y-153496000D03*
%TO.N,Net-(U38-Q6)*%
X289161000Y-150000000D03*
%TO.N,Net-(U52-I0a)*%
X113000000Y-89000000D03*
X98000000Y-93299000D03*
X128500000Y-85600000D03*
%TO.N,Net-(U23-D1)*%
X108054000Y-93644700D03*
X109000000Y-89000000D03*
X103000000Y-84000000D03*
X114500000Y-95500000D03*
%TO.N,Net-(U14-B3)*%
X342500000Y-107000000D03*
%TO.N,Net-(U23-D3)*%
X106327900Y-99250000D03*
X118193400Y-98226200D03*
X117146200Y-99169600D03*
X79174300Y-91415700D03*
X81318900Y-97808700D03*
X91406500Y-102130900D03*
X98930300Y-99374400D03*
%TO.N,Net-(U21-\u002AWE)*%
X66056000Y-102149500D03*
X93964300Y-111648100D03*
X67042200Y-94039000D03*
X106742400Y-107374600D03*
%TO.N,Net-(U52-Zd)*%
X157000000Y-73500000D03*
X140000000Y-71668700D03*
X110004315Y-71504315D03*
X173175315Y-74324685D03*
X168500000Y-73500000D03*
X82599800Y-71844600D03*
X92920535Y-70920535D03*
X150500000Y-73000000D03*
%TO.N,Net-(U21-\u002AO2)*%
X114706600Y-68552700D03*
X97726100Y-68899700D03*
X87593600Y-77084600D03*
%TO.N,Net-(U21-\u002AO1)*%
X69797300Y-99262300D03*
X108000000Y-83000000D03*
X109000000Y-87400000D03*
X103000000Y-92000000D03*
X73753500Y-102170000D03*
X89500000Y-100400000D03*
X111500000Y-82500000D03*
%TO.N,Net-(U21-\u002AO0)*%
X119988900Y-53963100D03*
X79328800Y-56801100D03*
X78933200Y-93944200D03*
%TO.N,Net-(U21-\u002AO3)*%
X130000000Y-71668700D03*
X109559265Y-78440735D03*
X118100740Y-77100740D03*
X90500000Y-88100000D03*
X84000000Y-94000000D03*
X131000000Y-70468700D03*
X105674265Y-84825735D03*
%TO.N,Net-(U23-\u002AO2)*%
X128709200Y-97320800D03*
%TO.N,Net-(U23-\u002AO3)*%
X138000000Y-81500000D03*
X133500000Y-88500000D03*
%TO.N,Net-(U23-\u002AO1)*%
X158000000Y-80000000D03*
X150500000Y-88256000D03*
X159000000Y-76301000D03*
X141000000Y-95100000D03*
%TO.N,Net-(U23-\u002AO0)*%
X133500000Y-99000000D03*
X160000000Y-76301000D03*
X141600000Y-93900000D03*
%TO.N,Net-(U18-I1d)*%
X77232700Y-56957900D03*
%TD*%
D28*
%TO.N,Net-(U1-CV)*%
X47540000Y-34500000D02*
X47540000Y-31040000D01*
X47540000Y-31040000D02*
X47000000Y-30500000D01*
%TO.N,Net-(U2-CV)*%
X73810000Y-30810000D02*
X73810000Y-30185000D01*
X77500000Y-34500000D02*
X73810000Y-30810000D01*
%TO.N,Net-(U2-DIS)*%
X71270000Y-29730000D02*
X72190000Y-28810000D01*
X68730000Y-30185000D02*
X71270000Y-30185000D01*
X71270000Y-30185000D02*
X71270000Y-29730000D01*
X72455000Y-29000000D02*
X77500000Y-29000000D01*
X71270000Y-30185000D02*
X72455000Y-29000000D01*
X72190000Y-28810000D02*
X72190000Y-24500000D01*
%TO.N,Net-(U3-CV)*%
X105815000Y-27185000D02*
X106000000Y-27000000D01*
X102810000Y-27185000D02*
X105815000Y-27185000D01*
%TO.N,Net-(U1-THR)*%
X42500000Y-42160000D02*
X42460000Y-42120000D01*
X31000000Y-38500000D02*
X24000000Y-31500000D01*
X42460000Y-42120000D02*
X38840000Y-38500000D01*
X45000000Y-34500000D02*
X45000000Y-39580000D01*
X24000000Y-31500000D02*
X19775000Y-31500000D01*
X42500000Y-45000000D02*
X42500000Y-42160000D01*
X45000000Y-39580000D02*
X42460000Y-42120000D01*
X38840000Y-38500000D02*
X31000000Y-38500000D01*
%TO.N,BUS_5*%
X153102000Y-84101800D02*
X150602000Y-84101800D01*
X107280000Y-134720000D02*
X107280000Y-136500000D01*
X104500000Y-130000000D02*
X103486000Y-131014000D01*
X258000000Y-70239200D02*
X252899000Y-70239200D01*
X128568000Y-90067800D02*
X128500000Y-90000000D01*
X150602000Y-84101800D02*
X150500000Y-84000000D01*
X287000000Y-109500000D02*
X286920000Y-109420000D01*
X286920000Y-109420000D02*
X286920000Y-106000000D01*
X330810000Y-178620000D02*
X330190000Y-178000000D01*
X128500000Y-90000000D02*
X126500000Y-90000000D01*
X103500000Y-97500000D02*
X102000000Y-97500000D01*
X330810000Y-188500000D02*
X330810000Y-178620000D01*
X108084000Y-133916000D02*
X107280000Y-134720000D01*
X252899000Y-70239200D02*
X251160000Y-68500000D01*
%TO.N,CLK*%
X93500000Y-68000000D02*
X91000000Y-70500000D01*
X292949000Y-112671000D02*
X292000000Y-113620000D01*
X93179200Y-127679000D02*
X93179200Y-138679000D01*
X93000000Y-127500000D02*
X93179200Y-127679000D01*
X271500000Y-138000000D02*
X270000000Y-139500000D01*
X304000000Y-112000000D02*
X311640000Y-112000000D01*
X292949000Y-104449000D02*
X292949000Y-112671000D01*
X93179200Y-138679000D02*
X93500000Y-139000000D01*
X270000000Y-139500000D02*
X269500000Y-139500000D01*
X91000000Y-70500000D02*
X90500000Y-70500000D01*
X292500000Y-104000000D02*
X292949000Y-104449000D01*
X311640000Y-112000000D02*
X313260000Y-113620000D01*
%TO.N,Net-(U31-THR)*%
X227420000Y-148460000D02*
X232500000Y-148460000D01*
X224880000Y-145920000D02*
X227420000Y-148460000D01*
%TO.N,Net-(D1-K)*%
X148000000Y-45000000D02*
X148000000Y-49190000D01*
%TO.N,Net-(D2-K)*%
X280000000Y-86190000D02*
X280000000Y-83540000D01*
%TO.N,/ALU/A_7*%
X293943000Y-88000000D02*
X309472000Y-88000000D01*
X280000000Y-76040000D02*
X280040000Y-76000000D01*
X281201000Y-82201000D02*
X292161000Y-82201000D01*
X292161000Y-82201000D02*
X292161000Y-86218100D01*
X280000000Y-81000000D02*
X280000000Y-76040000D01*
X280000000Y-81000000D02*
X281201000Y-82201000D01*
X292161000Y-86218100D02*
X293943000Y-88000000D01*
%TO.N,Net-(D3-K)*%
X284500000Y-83540000D02*
X284500000Y-86000000D01*
%TO.N,/ALU/A_6*%
X270000000Y-74000000D02*
X250000000Y-74000000D01*
X282580000Y-79080000D02*
X282580000Y-76000000D01*
X284500000Y-81000000D02*
X282580000Y-79080000D01*
%TO.N,/ALU/A_5*%
X247219000Y-74980800D02*
X246080000Y-76120000D01*
X284101000Y-74980800D02*
X247219000Y-74980800D01*
X285120000Y-76000000D02*
X284101000Y-74980800D01*
X285120000Y-77120000D02*
X285120000Y-76000000D01*
X289000000Y-81000000D02*
X285120000Y-77120000D01*
%TO.N,Net-(D4-K)*%
X289000000Y-86000000D02*
X289000000Y-83540000D01*
%TO.N,/ALU/A_4*%
X293500000Y-81000000D02*
X294828000Y-82327700D01*
X288500000Y-76000000D02*
X287660000Y-76000000D01*
X305672000Y-82327700D02*
X306000000Y-82000000D01*
X287000000Y-73400000D02*
X287000000Y-75340000D01*
X293500000Y-81000000D02*
X288500000Y-76000000D01*
X294828000Y-82327700D02*
X305672000Y-82327700D01*
X287000000Y-75340000D02*
X287660000Y-76000000D01*
%TO.N,Net-(D5-K)*%
X293500000Y-86000000D02*
X293500000Y-83540000D01*
%TO.N,Net-(D6-K)*%
X298000000Y-83540000D02*
X298000000Y-86000000D01*
%TO.N,/ALU/A_3*%
X296000000Y-79000000D02*
X298000000Y-81000000D01*
X298000000Y-81000000D02*
X299000000Y-81000000D01*
X296000000Y-77377200D02*
X296000000Y-79000000D01*
X326927000Y-91927200D02*
X328153000Y-93153400D01*
X299000000Y-81000000D02*
X303880000Y-76120000D01*
X303880000Y-76120000D02*
X304000000Y-76120000D01*
%TO.N,Net-(D7-K)*%
X302500000Y-86000000D02*
X302500000Y-83540000D01*
%TO.N,/ALU/A_2*%
X307489000Y-75171300D02*
X306540000Y-76120000D01*
X302500000Y-81000000D02*
X306540000Y-76960000D01*
X262160000Y-79500000D02*
X258780000Y-76120000D01*
X314820000Y-77500000D02*
X313500000Y-77500000D01*
X264500000Y-79500000D02*
X262160000Y-79500000D01*
X312013000Y-75171300D02*
X307489000Y-75171300D01*
X313500000Y-77500000D02*
X313000000Y-77000000D01*
X306540000Y-76960000D02*
X306540000Y-76120000D01*
X313000000Y-77000000D02*
X313000000Y-76158300D01*
X313000000Y-76158300D02*
X312013000Y-75171300D01*
X344850000Y-107530000D02*
X314820000Y-77500000D01*
%TO.N,Net-(D8-K)*%
X307000000Y-83540000D02*
X307000000Y-86000000D01*
%TO.N,/ALU/A_1*%
X308201000Y-82201000D02*
X308201000Y-85201000D01*
X307000000Y-81000000D02*
X307000000Y-78200000D01*
X308201000Y-85201000D02*
X328500000Y-105500000D01*
X307000000Y-78200000D02*
X309080000Y-76120000D01*
X307000000Y-81000000D02*
X308201000Y-82201000D01*
%TO.N,/ALU/A_0*%
X312701000Y-88081000D02*
X312701000Y-82201000D01*
X311500000Y-81000000D02*
X311500000Y-76240000D01*
X337230000Y-112610000D02*
X312701000Y-88081000D01*
X311500000Y-76240000D02*
X311620000Y-76120000D01*
X312701000Y-82201000D02*
X311500000Y-81000000D01*
%TO.N,Net-(D9-K)*%
X311500000Y-86000000D02*
X311500000Y-83540000D01*
%TO.N,ZF*%
X280500000Y-91300000D02*
X312300000Y-91300000D01*
X411460000Y-85666900D02*
X412230000Y-86436900D01*
X254000000Y-91500000D02*
X266058000Y-91500000D01*
X402322000Y-87759000D02*
X410908000Y-87759000D01*
X371601000Y-89101000D02*
X375899000Y-89101000D01*
X209000000Y-104500000D02*
X209000000Y-105840000D01*
X411460000Y-83495000D02*
X411460000Y-85666900D01*
X352800000Y-89900000D02*
X353000000Y-90100000D01*
X312300000Y-91300000D02*
X312500000Y-91100000D01*
X371000000Y-88500000D02*
X371601000Y-89101000D01*
X402000000Y-88081000D02*
X402322000Y-87759000D01*
X375899000Y-89101000D02*
X376500000Y-88500000D01*
X348066000Y-89900000D02*
X352800000Y-89900000D01*
X410908000Y-87759000D02*
X412230000Y-86436900D01*
%TO.N,Net-(D10-K)*%
X412230000Y-88976900D02*
X412230000Y-91190000D01*
%TO.N,Net-(D11-K)*%
X358120000Y-83920000D02*
X358120000Y-86570000D01*
%TO.N,Net-(D11-A)*%
X370701000Y-76360800D02*
X371840000Y-77500000D01*
X361500000Y-78000000D02*
X366522000Y-78000000D01*
X368161000Y-76360800D02*
X370701000Y-76360800D01*
X358120000Y-81380000D02*
X361500000Y-78000000D01*
X366522000Y-78000000D02*
X368161000Y-76360800D01*
%TO.N,Net-(D12-A)*%
X359281000Y-85688700D02*
X363590000Y-81380000D01*
X371701000Y-80179000D02*
X374380000Y-77500000D01*
X364791000Y-80179000D02*
X371701000Y-80179000D01*
X359281000Y-108581000D02*
X359281000Y-85688700D01*
X360230000Y-109530000D02*
X359281000Y-108581000D01*
X363590000Y-81380000D02*
X364791000Y-80179000D01*
%TO.N,Net-(D12-K)*%
X363620000Y-83950000D02*
X363590000Y-83920000D01*
X363620000Y-86380000D02*
X363620000Y-83950000D01*
%TO.N,Net-(D13-K)*%
X369060000Y-86320000D02*
X369120000Y-86380000D01*
X369060000Y-83920000D02*
X369060000Y-86320000D01*
%TO.N,Net-(D13-A)*%
X340499000Y-76530000D02*
X337110000Y-76530000D01*
X342538000Y-78569000D02*
X340499000Y-76530000D01*
%TO.N,Net-(D14-K)*%
X407753800Y-88960100D02*
X407754000Y-88960000D01*
X407753700Y-88960000D02*
X407753800Y-88960100D01*
X407730000Y-88983700D02*
X407753800Y-88960100D01*
X407730000Y-91380000D02*
X407730000Y-88983700D01*
%TO.N,CF*%
X407754000Y-86420000D02*
X407754000Y-84661300D01*
X311000000Y-90500000D02*
X280500000Y-90500000D01*
X388876000Y-87500000D02*
X387235000Y-87500000D01*
X387235000Y-87500000D02*
X386806000Y-87071000D01*
X367500000Y-89500000D02*
X366000000Y-89500000D01*
X220100000Y-91500000D02*
X212740000Y-91500000D01*
X212740000Y-91500000D02*
X211240000Y-90000000D01*
X350500000Y-90500000D02*
X347500000Y-90500000D01*
X266058000Y-90500000D02*
X247400000Y-90500000D01*
X407754000Y-84661300D02*
X408920000Y-83495000D01*
X389305000Y-87071000D02*
X388876000Y-87500000D01*
%TO.N,Net-(D15-K)*%
X374620000Y-86380000D02*
X374620000Y-83956800D01*
X374620000Y-83956800D02*
X374560000Y-83896800D01*
%TO.N,Net-(D15-A)*%
X374560000Y-81356800D02*
X375603000Y-81356800D01*
X375603000Y-81356800D02*
X379460000Y-77500000D01*
X372500000Y-83416800D02*
X374560000Y-81356800D01*
X372500000Y-88500000D02*
X372500000Y-83416800D01*
%TO.N,Net-(D16-K)*%
X380030000Y-83896800D02*
X380030000Y-86320000D01*
X380030000Y-86320000D02*
X379970000Y-86380000D01*
%TO.N,Net-(D16-A)*%
X380030000Y-81356800D02*
X380030000Y-79470000D01*
X374629000Y-95548100D02*
X378829000Y-91348100D01*
X366650000Y-118490000D02*
X367850000Y-119690000D01*
X378829000Y-82557800D02*
X380030000Y-81356800D01*
X345650000Y-118490000D02*
X366650000Y-118490000D01*
X374629000Y-112911000D02*
X374629000Y-95548100D01*
X344850000Y-117690000D02*
X345650000Y-118490000D01*
X378829000Y-91348100D02*
X378829000Y-82557800D01*
X367850000Y-119690000D02*
X374629000Y-112911000D01*
X380030000Y-79470000D02*
X382000000Y-77500000D01*
%TO.N,Net-(D17-K)*%
X385620000Y-86380000D02*
X385620000Y-84016800D01*
X385620000Y-84016800D02*
X385500000Y-83896800D01*
%TO.N,Net-(D17-A)*%
X384299000Y-87430000D02*
X384299000Y-82557800D01*
X367850000Y-117150000D02*
X374000000Y-111000000D01*
X350339000Y-115559000D02*
X344850000Y-110070000D01*
X385500000Y-81356800D02*
X385500000Y-78460000D01*
X366259000Y-115559000D02*
X350339000Y-115559000D01*
X375229000Y-96500000D02*
X384299000Y-87430000D01*
X367850000Y-117150000D02*
X366259000Y-115559000D01*
X385500000Y-78460000D02*
X384540000Y-77500000D01*
X374000000Y-111000000D02*
X374000000Y-96500000D01*
X384299000Y-82557800D02*
X385500000Y-81356800D01*
%TO.N,Net-(D18-K)*%
X390970000Y-83896800D02*
X390970000Y-86230000D01*
X390970000Y-86230000D02*
X391120000Y-86380000D01*
%TO.N,Net-(D18-A)*%
X364570000Y-112070000D02*
X367850000Y-112070000D01*
X364094000Y-111594000D02*
X364570000Y-112070000D01*
X387080000Y-77500000D02*
X390937000Y-81356800D01*
X390937000Y-81356800D02*
X390970000Y-81356800D01*
%TO.N,Net-(D19-K)*%
X396120000Y-84216800D02*
X396440000Y-83896800D01*
X396120000Y-86380000D02*
X396120000Y-84216800D01*
%TO.N,/MAR/A3*%
X60500000Y-52000000D02*
X59120000Y-50620000D01*
X119680000Y-100400000D02*
X124080000Y-96000000D01*
X111500000Y-100400000D02*
X119680000Y-100400000D01*
X60500000Y-60080000D02*
X60500000Y-52000000D01*
X64500000Y-64080000D02*
X60500000Y-60080000D01*
%TO.N,Net-(D20-K)*%
X64500000Y-70310000D02*
X64500000Y-66620000D01*
%TO.N,Net-(D21-K)*%
X59030000Y-70590000D02*
X59000000Y-70620000D01*
X59030000Y-66620000D02*
X59030000Y-70590000D01*
%TO.N,/MAR/A2*%
X54988700Y-54108700D02*
X51500000Y-50620000D01*
X111251000Y-99799000D02*
X111050000Y-100000000D01*
X111949000Y-99999000D02*
X111749000Y-99799000D01*
X96500000Y-100000000D02*
X96000000Y-99500000D01*
X54988700Y-60038700D02*
X54988700Y-54108700D01*
X117541000Y-99999000D02*
X111949000Y-99999000D01*
X121540000Y-96000000D02*
X117541000Y-99999000D01*
X111749000Y-99799000D02*
X111251000Y-99799000D01*
X111050000Y-100000000D02*
X96500000Y-100000000D01*
X59030000Y-64080000D02*
X54988700Y-60038700D01*
%TO.N,/MAR/A1*%
X53560000Y-64080000D02*
X48960000Y-59480000D01*
X112400000Y-98500000D02*
X116500000Y-98500000D01*
X48960000Y-59480000D02*
X48960000Y-58240000D01*
X116500000Y-98500000D02*
X119000000Y-96000000D01*
%TO.N,Net-(D22-K)*%
X53400000Y-70620000D02*
X53400000Y-66780000D01*
X53400000Y-66780000D02*
X53560000Y-66620000D01*
%TO.N,Net-(D022-K)*%
X280760000Y-122310000D02*
X280760000Y-119660000D01*
%TO.N,/ALU/B_7*%
X284500000Y-123500000D02*
X286136000Y-125136000D01*
X280760000Y-114700000D02*
X281840000Y-113620000D01*
X264880000Y-117120000D02*
X280760000Y-117120000D01*
X280760000Y-117120000D02*
X280760000Y-114700000D01*
X306762000Y-135850000D02*
X309500000Y-135850000D01*
X286136000Y-125136000D02*
X290364000Y-125136000D01*
X264272000Y-117161000D02*
X264839000Y-117161000D01*
X264839000Y-117161000D02*
X264880000Y-117120000D01*
X299400000Y-128488000D02*
X306762000Y-135850000D01*
%TO.N,/MAR/A0*%
X113780000Y-103620000D02*
X116460000Y-103620000D01*
X112400000Y-105000000D02*
X113780000Y-103620000D01*
%TO.N,Net-(D23-K)*%
X48090000Y-70530000D02*
X48000000Y-70620000D01*
X48090000Y-66620000D02*
X48090000Y-70530000D01*
%TO.N,/ALU/B_6*%
X285260000Y-117160000D02*
X285260000Y-114500000D01*
X285260000Y-114500000D02*
X284380000Y-113620000D01*
%TO.N,Net-(D023-K)*%
X285260000Y-119700000D02*
X285260000Y-122120000D01*
%TO.N,Net-(D24-A)*%
X27500000Y-54080000D02*
X27500000Y-50740000D01*
%TO.N,/ALU/B_5*%
X286920000Y-114320000D02*
X286920000Y-113620000D01*
X290961000Y-118361000D02*
X289760000Y-117160000D01*
X290961000Y-123461000D02*
X290961000Y-118361000D01*
X289760000Y-117160000D02*
X286920000Y-114320000D01*
X286500000Y-115359000D02*
X286500000Y-114040000D01*
X303950000Y-136450000D02*
X290961000Y-123461000D01*
X318730000Y-136450000D02*
X303950000Y-136450000D01*
X286500000Y-114040000D02*
X286920000Y-113620000D01*
%TO.N,Net-(D024-K)*%
X289760000Y-122120000D02*
X289760000Y-119700000D01*
%TO.N,Net-(D25-A)*%
X21000000Y-50930000D02*
X21000000Y-54080000D01*
%TO.N,Net-(D25-K)*%
X17500000Y-56620000D02*
X16500000Y-55620000D01*
X21000000Y-56620000D02*
X17500000Y-56620000D01*
%TO.N,Net-(D025-K)*%
X294260000Y-119700000D02*
X294260000Y-122120000D01*
%TO.N,/ALU/B_4*%
X269500000Y-116000000D02*
X269525000Y-116025000D01*
X295461000Y-120258000D02*
X295461000Y-118361000D01*
X302500000Y-124500000D02*
X299703000Y-124500000D01*
X294260000Y-117160000D02*
X293000000Y-117160000D01*
X295461000Y-118361000D02*
X294260000Y-117160000D01*
X293000000Y-117160000D02*
X289460000Y-113620000D01*
X299703000Y-124500000D02*
X295461000Y-120258000D01*
X263000000Y-116000000D02*
X269500000Y-116000000D01*
%TO.N,Net-(D26-K)*%
X86000000Y-119190000D02*
X86000000Y-116540000D01*
%TO.N,Net-(D26-A)*%
X128051000Y-80349000D02*
X128000000Y-80400000D01*
X92860000Y-102100000D02*
X91460000Y-103500000D01*
X86000000Y-114000000D02*
X91460000Y-108540000D01*
X128051000Y-78449000D02*
X128051000Y-80349000D01*
X134000000Y-72500000D02*
X128051000Y-78449000D01*
X91460000Y-108540000D02*
X91460000Y-103500000D01*
X95739200Y-102100000D02*
X92860000Y-102100000D01*
%TO.N,/ALU/B_3*%
X322251000Y-125671000D02*
X305171000Y-125671000D01*
X302059000Y-120459000D02*
X298760000Y-117160000D01*
X298760000Y-117160000D02*
X302300000Y-113620000D01*
X326230000Y-129650000D02*
X322251000Y-125671000D01*
X305171000Y-125671000D02*
X302059000Y-122559000D01*
X302059000Y-122559000D02*
X302059000Y-120459000D01*
X302300000Y-113620000D02*
X303100000Y-113620000D01*
%TO.N,Net-(D026-K)*%
X298760000Y-122000000D02*
X298760000Y-119700000D01*
%TO.N,Net-(D027-K)*%
X303260000Y-119700000D02*
X303260000Y-122120000D01*
%TO.N,/ALU/B_2*%
X305640000Y-114640000D02*
X305640000Y-113620000D01*
X306500000Y-115500000D02*
X305640000Y-114640000D01*
X303260000Y-117160000D02*
X305640000Y-114780000D01*
X259540000Y-114120000D02*
X263781000Y-118361000D01*
X326230000Y-122030000D02*
X319700000Y-115500000D01*
X305640000Y-114640000D02*
X305640000Y-113620000D01*
X263781000Y-118361000D02*
X287709000Y-118361000D01*
X287709000Y-118361000D02*
X287785000Y-118285000D01*
X305640000Y-114780000D02*
X305640000Y-114640000D01*
X319700000Y-115500000D02*
X312000000Y-115500000D01*
%TO.N,Net-(D27-K)*%
X90500000Y-116540000D02*
X90500000Y-119190000D01*
%TO.N,Net-(D27-A)*%
X94000000Y-110500000D02*
X94000000Y-103500000D01*
X112041300Y-69851900D02*
X97235100Y-69851900D01*
X90500000Y-114000000D02*
X94000000Y-110500000D01*
X97235100Y-69851900D02*
X96591000Y-70496000D01*
%TO.N,/ALU/B_1*%
X307760000Y-117160000D02*
X307760000Y-114040000D01*
X270777000Y-112277000D02*
X290123000Y-112277000D01*
X270500000Y-112000000D02*
X270777000Y-112277000D01*
X290123000Y-112277000D02*
X291500000Y-110900000D01*
X307760000Y-114040000D02*
X308180000Y-113620000D01*
%TO.N,Net-(D028-K)*%
X307760000Y-122120000D02*
X307760000Y-119700000D01*
%TO.N,Net-(D28-K)*%
X95000000Y-119000000D02*
X95000000Y-116540000D01*
%TO.N,Net-(D28-A)*%
X133963700Y-75496100D02*
X133963700Y-79436300D01*
X122669600Y-115205000D02*
X123646300Y-114228300D01*
X95000000Y-114000000D02*
X95000000Y-113024000D01*
X133963700Y-79436300D02*
X133000000Y-80400000D01*
X95000000Y-113024000D02*
X97181000Y-115205000D01*
X95000000Y-113024000D02*
X95000000Y-105040000D01*
X97181000Y-115205000D02*
X122669600Y-115205000D01*
X95000000Y-105040000D02*
X96540000Y-103500000D01*
%TO.N,Net-(D29-K)*%
X99500000Y-116540000D02*
X99500000Y-119000000D01*
%TO.N,Net-(D29-A)*%
X99500000Y-103920000D02*
X99080000Y-103500000D01*
X149500000Y-66500000D02*
X149500000Y-66340000D01*
X99500000Y-114000000D02*
X99500000Y-103920000D01*
X149500000Y-66340000D02*
X153340000Y-62500000D01*
%TO.N,/ALU/B_0*%
X310720000Y-113620000D02*
X310720000Y-115661000D01*
X312212100Y-117154000D02*
X313413000Y-118355000D01*
X313413000Y-118355000D02*
X313413000Y-119373000D01*
X312212000Y-117154000D02*
X312212100Y-117154000D01*
X303399000Y-111101000D02*
X303399000Y-112249000D01*
X303399000Y-112249000D02*
X303751000Y-112601000D01*
X309701000Y-112601000D02*
X310720000Y-113620000D01*
X303751000Y-112601000D02*
X309701000Y-112601000D01*
X313413000Y-119373000D02*
X318610000Y-124570000D01*
X310720000Y-115661000D02*
X312212000Y-117154000D01*
X312212400Y-117153700D02*
X312212100Y-117154000D01*
X303500000Y-111000000D02*
X303399000Y-111101000D01*
%TO.N,Net-(D029-K)*%
X312212000Y-119694000D02*
X312212000Y-122072000D01*
X312212000Y-122072000D02*
X312260000Y-122120000D01*
%TO.N,Net-(D30-K)*%
X104000000Y-119000000D02*
X104000000Y-116540000D01*
%TO.N,Net-(D30-A)*%
X104000000Y-114000000D02*
X104000000Y-112967500D01*
X104000000Y-112967500D02*
X105492100Y-111475400D01*
X106840300Y-111475400D02*
X105914400Y-111475400D01*
X104000000Y-105880000D02*
X101620000Y-103500000D01*
X104000000Y-112967500D02*
X104000000Y-105880000D01*
X105492100Y-111475400D02*
X106840300Y-111475400D01*
X105914400Y-111475400D02*
X106840300Y-111475400D01*
%TO.N,Net-(D31-K)*%
X108500000Y-116540000D02*
X108500000Y-119000000D01*
%TO.N,Net-(D31-A)*%
X121500000Y-93400000D02*
X122641000Y-94541000D01*
X122641000Y-96456050D02*
X119597050Y-99500000D01*
X108500000Y-114000000D02*
X108500000Y-107840000D01*
X108500000Y-107840000D02*
X107160000Y-106500000D01*
X122641000Y-94541000D02*
X122641000Y-96456050D01*
X119597050Y-99500000D02*
X119500000Y-99500000D01*
X107160000Y-106500000D02*
X104160000Y-103500000D01*
%TO.N,Net-(D32-K)*%
X113000000Y-119000000D02*
X113000000Y-116540000D01*
%TO.N,Net-(D32-A)*%
X137601000Y-93399000D02*
X137000000Y-94000000D01*
X160931000Y-71068700D02*
X156000000Y-76000000D01*
X137601000Y-90601000D02*
X137601000Y-93399000D01*
X113000000Y-114000000D02*
X113000000Y-109800000D01*
X137246000Y-90397600D02*
X137398000Y-90397600D01*
X164891000Y-71068700D02*
X160931000Y-71068700D01*
X113000000Y-109800000D02*
X106700000Y-103500000D01*
X137398000Y-90397600D02*
X137601000Y-90601000D01*
X165840000Y-70120000D02*
X164891000Y-71068700D01*
%TO.N,Net-(D33-A)*%
X132574000Y-101601000D02*
X137573000Y-96601900D01*
X129622000Y-101601000D02*
X132574000Y-101601000D01*
X117500000Y-114000000D02*
X117500000Y-111760000D01*
X117500000Y-111760000D02*
X120240000Y-111760000D01*
X128059000Y-103164000D02*
X129622000Y-101601000D01*
X117500000Y-111760000D02*
X109240000Y-103500000D01*
X128059000Y-103941000D02*
X128059000Y-103164000D01*
X120240000Y-111760000D02*
X128059000Y-103941000D01*
%TO.N,Net-(D33-K)*%
X117500000Y-116540000D02*
X117500000Y-119000000D01*
%TO.N,Net-(D34-K)*%
X251186800Y-41626800D02*
X251187000Y-41626800D01*
X251187000Y-41626800D02*
X253687000Y-41626800D01*
%TO.N,Net-(D34-A)*%
X248646800Y-41627100D02*
X248646800Y-41626800D01*
X246074000Y-44200000D02*
X243120000Y-44200000D01*
X247360500Y-42913400D02*
X246074000Y-44200000D01*
X229580000Y-42718100D02*
X222516000Y-42718100D01*
X243120000Y-44200000D02*
X241981000Y-43060800D01*
X241981000Y-43060800D02*
X229922000Y-43060800D01*
X221566800Y-43666800D02*
X221567000Y-43666800D01*
X222516000Y-42718100D02*
X221567000Y-43666800D01*
X229922000Y-43060800D02*
X229580000Y-42718100D01*
X247360500Y-42913400D02*
X248646800Y-41627100D01*
X248647000Y-41626800D02*
X247360500Y-42913400D01*
%TO.N,Net-(D35-A)*%
X229580000Y-45258100D02*
X222516000Y-45258100D01*
X243733000Y-46126800D02*
X243120000Y-46740000D01*
X248646800Y-46126800D02*
X243733000Y-46126800D01*
X248647000Y-46126800D02*
X248646800Y-46126800D01*
X221566800Y-46206800D02*
X221567000Y-46206800D01*
X222516000Y-45258100D02*
X221567000Y-46206800D01*
X243120000Y-46740000D02*
X241880000Y-45500000D01*
X241880000Y-45500000D02*
X229822000Y-45500000D01*
X229822000Y-45500000D02*
X229580000Y-45258100D01*
%TO.N,Net-(D35-K)*%
X251186800Y-46126800D02*
X251187000Y-46126800D01*
X253877000Y-46126800D02*
X251187000Y-46126800D01*
%TO.N,Net-(D36-K)*%
X251187000Y-50626800D02*
X253877000Y-50626800D01*
X251186800Y-50626800D02*
X251187000Y-50626800D01*
%TO.N,Net-(D36-A)*%
X231016000Y-47798100D02*
X222516000Y-47798100D01*
X248646800Y-50626800D02*
X244467000Y-50626800D01*
X248647000Y-50626800D02*
X248646800Y-50626800D01*
X222516000Y-47798100D02*
X221567000Y-48746800D01*
X241981000Y-48140800D02*
X231359000Y-48140800D01*
X243120000Y-49280000D02*
X241981000Y-48140800D01*
X244467000Y-50626800D02*
X243120000Y-49280000D01*
X231359000Y-48140800D02*
X231016000Y-47798100D01*
X221566800Y-48746800D02*
X221567000Y-48746800D01*
%TO.N,Net-(D37-K)*%
X254067000Y-55126800D02*
X251187000Y-55126800D01*
X251186800Y-55126800D02*
X251187000Y-55126800D01*
%TO.N,Net-(D37-A)*%
X248646800Y-55126800D02*
X246427000Y-55126800D01*
X222780000Y-52500000D02*
X221567000Y-51286800D01*
X248647000Y-55126800D02*
X248646800Y-55126800D01*
X241981000Y-52959200D02*
X235028000Y-52959200D01*
X234569000Y-52500000D02*
X222780000Y-52500000D01*
X246427000Y-55126800D02*
X243120000Y-51820000D01*
X243120000Y-51820000D02*
X241981000Y-52959200D01*
X221566800Y-51286800D02*
X221567000Y-51286800D01*
X235028000Y-52959200D02*
X234569000Y-52500000D01*
%TO.N,Net-(D38-K)*%
X147000000Y-167000000D02*
X147000000Y-162030000D01*
X147000000Y-162030000D02*
X146970000Y-162000000D01*
%TO.N,HLT*%
X188500000Y-85417900D02*
X188500000Y-85500000D01*
X175000000Y-74000000D02*
X177082000Y-74000000D01*
X177082000Y-74000000D02*
X188500000Y-85417900D01*
%TO.N,Net-(D39-A)*%
X192000000Y-124500000D02*
X194899000Y-121601000D01*
X194899000Y-121601000D02*
X197419000Y-121601000D01*
X197419000Y-121601000D02*
X211240000Y-107780000D01*
%TO.N,Net-(D39-K)*%
X151970000Y-166970000D02*
X152000000Y-167000000D01*
X151970000Y-162000000D02*
X151970000Y-166970000D01*
%TO.N,Net-(D40-K)*%
X157000000Y-162030000D02*
X156970000Y-162000000D01*
X157000000Y-167000000D02*
X157000000Y-162030000D01*
%TO.N,RI*%
X120200000Y-95499000D02*
X118302000Y-93601000D01*
X198601000Y-126899000D02*
X202000000Y-123500000D01*
X117402000Y-93601000D02*
X116500000Y-92699000D01*
X193500000Y-129000000D02*
X193500000Y-128943000D01*
X193500000Y-128943000D02*
X195544000Y-126899000D01*
X118302000Y-93601000D02*
X117402000Y-93601000D01*
X195544000Y-126899000D02*
X198601000Y-126899000D01*
%TO.N,Net-(D41-K)*%
X161970000Y-162000000D02*
X161970000Y-166970000D01*
X161970000Y-166970000D02*
X162000000Y-167000000D01*
%TO.N,Net-(D41-A)*%
X208299000Y-122495000D02*
X208299000Y-115801000D01*
X193000000Y-134500000D02*
X196294000Y-134500000D01*
X214569000Y-109531000D02*
X211240000Y-112860000D01*
X214569000Y-96488700D02*
X214569000Y-109531000D01*
X213620000Y-95540000D02*
X214569000Y-96488700D01*
X196294000Y-134500000D02*
X208299000Y-122495000D01*
X208299000Y-115801000D02*
X211240000Y-112860000D01*
%TO.N,Net-(D42-K)*%
X166970000Y-162000000D02*
X166970000Y-166970000D01*
X166970000Y-166970000D02*
X167000000Y-167000000D01*
%TO.N,Net-(D42-A)*%
X187051000Y-85935400D02*
X181032000Y-79916000D01*
X192282000Y-91328700D02*
X191880000Y-91328700D01*
X181032000Y-79916000D02*
X179884000Y-79916000D01*
X196118000Y-93641000D02*
X194594000Y-93641000D01*
X194594000Y-93641000D02*
X192282000Y-91328700D01*
X173460000Y-73460000D02*
X173460000Y-70120000D01*
X179000000Y-79032100D02*
X179000000Y-78457900D01*
X179000000Y-78457900D02*
X178256000Y-77714000D01*
X179884000Y-79916000D02*
X179000000Y-79032100D01*
X200500000Y-98022900D02*
X196118000Y-93641000D01*
X191880000Y-91328700D02*
X187051000Y-86500000D01*
X177714000Y-77714000D02*
X173460000Y-73460000D01*
X200500000Y-99500000D02*
X200500000Y-98022900D01*
X178256000Y-77714000D02*
X177714000Y-77714000D01*
X187051000Y-86500000D02*
X187051000Y-85935400D01*
%TO.N,Net-(D43-K)*%
X172000000Y-167000000D02*
X172000000Y-162030000D01*
X172000000Y-162030000D02*
X171970000Y-162000000D01*
%TO.N,Net-(D44-K)*%
X176970000Y-166970000D02*
X177000000Y-167000000D01*
X176970000Y-162000000D02*
X176970000Y-166970000D01*
%TO.N,Net-(D44-A)*%
X184215000Y-78215300D02*
X184215000Y-80284700D01*
X186650000Y-86384300D02*
X186650000Y-96803200D01*
X202601000Y-123749000D02*
X197249000Y-129101000D01*
X177500000Y-71500000D02*
X184215000Y-78215300D01*
X186650000Y-96803200D02*
X191978000Y-102131000D01*
X197249000Y-129101000D02*
X195466000Y-129101000D01*
X195466000Y-129101000D02*
X193377000Y-131190000D01*
X202249000Y-122899000D02*
X202601000Y-123251000D01*
X191326000Y-128577000D02*
X195544000Y-124359000D01*
X195544000Y-124359000D02*
X200291000Y-124359000D01*
X191326000Y-131190000D02*
X191326000Y-150184000D01*
X191326000Y-150184000D02*
X179510000Y-162000000D01*
X202601000Y-123251000D02*
X202601000Y-123749000D01*
X194899000Y-104277000D02*
X194899000Y-109219000D01*
X201751000Y-122899000D02*
X202249000Y-122899000D01*
X191978000Y-102131000D02*
X192753000Y-102131000D01*
X185000000Y-84734000D02*
X186650000Y-86384300D01*
X194899000Y-109219000D02*
X196000000Y-110320000D01*
X192753000Y-102131000D02*
X194899000Y-104277000D01*
X193377000Y-131190000D02*
X191326000Y-131190000D01*
X191326000Y-120826000D02*
X191326000Y-128577000D01*
X200291000Y-124359000D02*
X201751000Y-122899000D01*
%TO.N,Net-(D45-K)*%
X182000000Y-162030000D02*
X181970000Y-162000000D01*
X182000000Y-167000000D02*
X182000000Y-162030000D01*
%TO.N,Net-(D45-A)*%
X185000000Y-71500000D02*
X176000000Y-62500000D01*
X185000000Y-81000000D02*
X185000000Y-71500000D01*
%TO.N,Net-(D46-A)*%
X200050000Y-151460000D02*
X189510000Y-162000000D01*
X202809000Y-151460000D02*
X200050000Y-151460000D01*
%TO.N,Net-(D46-K)*%
X186970000Y-162000000D02*
X186970000Y-166970000D01*
X186970000Y-166970000D02*
X187000000Y-167000000D01*
%TO.N,Net-(D47-K)*%
X192000000Y-166500000D02*
X191970000Y-166470000D01*
X191970000Y-166470000D02*
X191970000Y-162000000D01*
X192000000Y-167000000D02*
X192000000Y-166500000D01*
%TO.N,Net-(D48-K)*%
X196970000Y-166970000D02*
X197000000Y-167000000D01*
X196970000Y-162000000D02*
X196970000Y-166970000D01*
%TO.N,Net-(D48-A)*%
X204560000Y-155000000D02*
X211240000Y-148320000D01*
X204000000Y-155000000D02*
X204560000Y-155000000D01*
%TO.N,Net-(D49-K)*%
X202000000Y-162030000D02*
X201970000Y-162000000D01*
X202000000Y-167000000D02*
X202000000Y-162030000D01*
%TO.N,Net-(D50-K)*%
X206970000Y-166850000D02*
X207000000Y-166880000D01*
X206970000Y-162000000D02*
X206970000Y-166850000D01*
%TO.N,CE*%
X219500000Y-78000000D02*
X219500000Y-72500000D01*
%TO.N,Net-(D51-K)*%
X212000000Y-162030000D02*
X211970000Y-162000000D01*
X212000000Y-166880000D02*
X212000000Y-162030000D01*
%TO.N,Net-(D52-A)*%
X220291000Y-99028700D02*
X221240000Y-98080000D01*
X220291000Y-109209000D02*
X220291000Y-99028700D01*
X208900000Y-122246000D02*
X208900000Y-120600000D01*
X208900000Y-120600000D02*
X220291000Y-109209000D01*
%TO.N,Net-(D52-K)*%
X216970000Y-162000000D02*
X216970000Y-166660000D01*
X216970000Y-166660000D02*
X217000000Y-166690000D01*
%TO.N,Net-(D53-K)*%
X222000000Y-166880000D02*
X222000000Y-162030000D01*
X222000000Y-162030000D02*
X221970000Y-162000000D01*
%TO.N,Net-(D54-A)*%
X160200000Y-125500000D02*
X157740000Y-125500000D01*
%TO.N,Net-(D54-K)*%
X162740000Y-125500000D02*
X164780000Y-125500000D01*
X164780000Y-125500000D02*
X169120000Y-129840000D01*
%TO.N,Net-(D55-A)*%
X157740000Y-130500000D02*
X159660000Y-130500000D01*
X159660000Y-130500000D02*
X160160000Y-130000000D01*
%TO.N,Net-(D56-A)*%
X160200000Y-134500000D02*
X157740000Y-134500000D01*
%TO.N,Net-(D56-K)*%
X162740000Y-134500000D02*
X168700000Y-134500000D01*
X168700000Y-134500000D02*
X169120000Y-134920000D01*
%TO.N,Net-(D57-A)*%
X157740000Y-139000000D02*
X160200000Y-139000000D01*
%TO.N,Net-(D57-K)*%
X167580000Y-139000000D02*
X169120000Y-137460000D01*
X162740000Y-139000000D02*
X167580000Y-139000000D01*
%TO.N,Net-(D58-K)*%
X162740000Y-143500000D02*
X165620000Y-143500000D01*
X165620000Y-143500000D02*
X169120000Y-140000000D01*
%TO.N,Net-(D58-A)*%
X160200000Y-143500000D02*
X157740000Y-143500000D01*
%TO.N,Net-(D59-A)*%
X187500000Y-102100000D02*
X186300000Y-102100000D01*
X179700000Y-142500000D02*
X179500000Y-142500000D01*
X186300000Y-102100000D02*
X184740000Y-100540000D01*
X181700000Y-144500000D02*
X179700000Y-142500000D01*
X179460000Y-142540000D02*
X176740000Y-142540000D01*
X188500000Y-144500000D02*
X181700000Y-144500000D01*
X179500000Y-142500000D02*
X179460000Y-142540000D01*
%TO.N,Net-(D59-K)*%
X182240000Y-142500000D02*
X184930000Y-142500000D01*
%TO.N,Net-(D60-A)*%
X192000000Y-140500000D02*
X193000000Y-140500000D01*
X179700000Y-137500000D02*
X182019000Y-139819000D01*
X193200000Y-140700000D02*
X196000000Y-140700000D01*
X193509000Y-114509000D02*
X193509000Y-104991000D01*
X190100000Y-138039000D02*
X190100000Y-131500000D01*
X176740000Y-140000000D02*
X179240000Y-137500000D01*
X179240000Y-137500000D02*
X179700000Y-137500000D01*
X193509000Y-104991000D02*
X194000000Y-104500000D01*
X188319000Y-139819000D02*
X190100000Y-138039000D01*
X193000000Y-140500000D02*
X193200000Y-140700000D01*
X182019000Y-139819000D02*
X188319000Y-139819000D01*
%TO.N,Net-(D60-K)*%
X184930000Y-137500000D02*
X182240000Y-137500000D01*
%TO.N,Net-(D61-K)*%
X182240000Y-132500000D02*
X184930000Y-132500000D01*
%TO.N,Net-(D61-A)*%
X179700000Y-134500000D02*
X179700000Y-132500000D01*
X176740000Y-137460000D02*
X179700000Y-134500000D01*
X195586000Y-138160000D02*
X191926000Y-134500000D01*
X196000000Y-138160000D02*
X195586000Y-138160000D01*
%TO.N,Net-(D62-K)*%
X303270000Y-188500000D02*
X303270000Y-192340000D01*
X303270000Y-192340000D02*
X303310000Y-192380000D01*
%TO.N,BUS_0*%
X305810000Y-182120000D02*
X305190000Y-181500000D01*
X305810000Y-188500000D02*
X305810000Y-182120000D01*
%TO.N,Net-(D63-K)*%
X308310000Y-192690000D02*
X308310000Y-188540000D01*
X308310000Y-188540000D02*
X308270000Y-188500000D01*
%TO.N,BUS_1*%
X111500000Y-93620000D02*
X109240000Y-95880000D01*
X266500000Y-109500000D02*
X265080000Y-109500000D01*
X267000000Y-106738000D02*
X267000000Y-109000000D01*
X265080000Y-109500000D02*
X262080000Y-106500000D01*
X112000000Y-93000000D02*
X111500000Y-93500000D01*
X111500000Y-93500000D02*
X111500000Y-93620000D01*
X310810000Y-188500000D02*
X310810000Y-178880000D01*
X267000000Y-109000000D02*
X266500000Y-109500000D01*
X261320000Y-68500000D02*
X259320000Y-66500000D01*
X259320000Y-66500000D02*
X259000000Y-66500000D01*
X310810000Y-178880000D02*
X311190000Y-178500000D01*
%TO.N,Net-(D64-K)*%
X313270000Y-188500000D02*
X313270000Y-192650000D01*
X313270000Y-192650000D02*
X313310000Y-192690000D01*
%TO.N,BUS_2*%
X126568000Y-92067800D02*
X114432000Y-92067800D01*
X260500000Y-66000000D02*
X260399000Y-65899000D01*
X305500000Y-108000000D02*
X305640000Y-107860000D01*
X161818000Y-78000000D02*
X160000000Y-78000000D01*
X165000000Y-76301000D02*
X163517000Y-76301000D01*
X258399000Y-66251100D02*
X258399000Y-68119000D01*
X215000000Y-53000000D02*
X214500000Y-53000000D01*
X315810000Y-188500000D02*
X315810000Y-182120000D01*
X258399000Y-68119000D02*
X258780000Y-68500000D01*
X163517000Y-76301000D02*
X161818000Y-78000000D01*
X114432000Y-92067800D02*
X112500000Y-94000000D01*
X314500000Y-70000000D02*
X308040000Y-70000000D01*
X258751000Y-65899000D02*
X258399000Y-66251100D01*
X305640000Y-104360000D02*
X306000000Y-104000000D01*
X305640000Y-107860000D02*
X305640000Y-106000000D01*
X260399000Y-65899000D02*
X258751000Y-65899000D01*
X100073000Y-76927200D02*
X100073000Y-79072800D01*
X293500000Y-144320000D02*
X293500000Y-138500000D01*
X308040000Y-70000000D02*
X306540000Y-68500000D01*
X107000000Y-95580000D02*
X106700000Y-95880000D01*
X100073000Y-79072800D02*
X100500000Y-79500000D01*
X216500000Y-51500000D02*
X215000000Y-53000000D01*
X107000000Y-94000000D02*
X107000000Y-95580000D01*
X293500000Y-138500000D02*
X294000000Y-138000000D01*
X289700000Y-148120000D02*
X293500000Y-144320000D01*
X305640000Y-106000000D02*
X305640000Y-104360000D01*
X315810000Y-182120000D02*
X315190000Y-181500000D01*
%TO.N,Net-(D65-K)*%
X318310000Y-188540000D02*
X318270000Y-188500000D01*
X318310000Y-192690000D02*
X318310000Y-188540000D01*
%TO.N,BUS_3*%
X320810000Y-188500000D02*
X320810000Y-184620000D01*
X320810000Y-184620000D02*
X320690000Y-184500000D01*
%TO.N,Net-(D66-K)*%
X323270000Y-188500000D02*
X323270000Y-192840000D01*
X323270000Y-192840000D02*
X323310000Y-192880000D01*
%TO.N,Net-(D67-K)*%
X328310000Y-188540000D02*
X328270000Y-188500000D01*
X328310000Y-192690000D02*
X328310000Y-188540000D01*
%TO.N,Net-(D68-K)*%
X333270000Y-192650000D02*
X333310000Y-192690000D01*
X333270000Y-188500000D02*
X333270000Y-192650000D01*
%TO.N,Net-(D69-K)*%
X338310000Y-192380000D02*
X338310000Y-188540000D01*
X338310000Y-188540000D02*
X338270000Y-188500000D01*
%TO.N,IR_7*%
X92040000Y-144120000D02*
X94975300Y-141185000D01*
X168557000Y-131601000D02*
X169370000Y-130789000D01*
X73500000Y-151620000D02*
X66120000Y-144240000D01*
X155962000Y-131601000D02*
X168557000Y-131601000D01*
X86960000Y-151620000D02*
X73500000Y-151620000D01*
X94975300Y-141185000D02*
X146378000Y-141185000D01*
X169370000Y-130789000D02*
X193211000Y-130789000D01*
X92040000Y-146540000D02*
X92040000Y-144120000D01*
X193211000Y-130789000D02*
X196000000Y-128000000D01*
X86960000Y-151620000D02*
X92040000Y-146540000D01*
X146378000Y-141185000D02*
X155962000Y-131601000D01*
%TO.N,Net-(D112-K)*%
X86960000Y-154160000D02*
X86960000Y-157810000D01*
%TO.N,Net-(D113-K)*%
X93960000Y-157810000D02*
X93960000Y-154160000D01*
%TO.N,IR_6*%
X100714000Y-141786000D02*
X96914300Y-141786000D01*
X96914300Y-141786000D02*
X94580000Y-144120000D01*
X93960000Y-151620000D02*
X93960000Y-144740000D01*
X93960000Y-144740000D02*
X94580000Y-144120000D01*
%TO.N,IR_5*%
X100960000Y-151620000D02*
X97120000Y-147780000D01*
X97120000Y-147780000D02*
X97120000Y-144120000D01*
%TO.N,Net-(D114-K)*%
X100960000Y-154160000D02*
X100960000Y-157620000D01*
%TO.N,Net-(D115-K)*%
X107960000Y-157810000D02*
X107960000Y-154160000D01*
%TO.N,IR_4*%
X107960000Y-151620000D02*
X100460000Y-144120000D01*
X100460000Y-144120000D02*
X99660000Y-144120000D01*
X200000000Y-122500000D02*
X200000000Y-121000000D01*
%TO.N,Net-(D116-K)*%
X114960000Y-154160000D02*
X114960000Y-157810000D01*
%TO.N,Net-(D116-A)*%
X114960000Y-151620000D02*
X122340000Y-144240000D01*
X122340000Y-144240000D02*
X122760000Y-144240000D01*
%TO.N,Net-(D117-K)*%
X121960000Y-157500000D02*
X121960000Y-154160000D01*
%TO.N,Net-(D117-A)*%
X121960000Y-151620000D02*
X121960000Y-147580000D01*
X121960000Y-147580000D02*
X125300000Y-144240000D01*
%TO.N,Net-(D118-A)*%
X128960000Y-145360000D02*
X127840000Y-144240000D01*
X128960000Y-151620000D02*
X128960000Y-145360000D01*
%TO.N,Net-(D118-K)*%
X128960000Y-154160000D02*
X128960000Y-157500000D01*
%TO.N,Net-(D119-A)*%
X135960000Y-151620000D02*
X130380000Y-146040000D01*
X130380000Y-146040000D02*
X130380000Y-144240000D01*
%TO.N,Net-(D119-K)*%
X135960000Y-157500000D02*
X135960000Y-154160000D01*
%TO.N,Net-(J1-CC2)*%
X257600000Y-201630000D02*
X257600000Y-195100000D01*
X257600000Y-195100000D02*
X257000000Y-194500000D01*
%TO.N,Net-(J1-CC1)*%
X256400000Y-198900000D02*
X254000000Y-196500000D01*
X256400000Y-201630000D02*
X256400000Y-198900000D01*
%TO.N,Net-(U1-DIS)*%
X44430000Y-30695000D02*
X44430000Y-31500000D01*
X44310000Y-32650000D02*
X42460000Y-34500000D01*
X44310000Y-30575000D02*
X44430000Y-30695000D01*
X44310000Y-30575000D02*
X44310000Y-32650000D01*
X44310000Y-28500000D02*
X44310000Y-30575000D01*
%TO.N,Net-(U2-TR)*%
X64000000Y-40690000D02*
X61000000Y-37690000D01*
X65845000Y-40690000D02*
X64000000Y-40690000D01*
X61000000Y-37000000D02*
X54500000Y-37000000D01*
X68730000Y-37805000D02*
X65845000Y-40690000D01*
X61000000Y-37690000D02*
X61000000Y-37000000D01*
%TO.N,Net-(SW2-A)*%
X90000000Y-32040000D02*
X94965000Y-32040000D01*
X97810000Y-34885000D02*
X97730000Y-34805000D01*
X94965000Y-32040000D02*
X97730000Y-34805000D01*
X97810000Y-39500000D02*
X97810000Y-34885000D01*
%TO.N,Net-(SW7-A)*%
X283500000Y-178460000D02*
X287840000Y-178460000D01*
X287840000Y-178460000D02*
X287880000Y-178500000D01*
%TO.N,Net-(U24-I0d)*%
X147365000Y-76500000D02*
X149800000Y-78935000D01*
X146500000Y-76500000D02*
X147365000Y-76500000D01*
%TO.N,Net-(U24-I0a)*%
X81121000Y-94779000D02*
X84000000Y-91900000D01*
X131742000Y-88242000D02*
X132000000Y-88500000D01*
X110242000Y-88242000D02*
X131742000Y-88242000D01*
X110000000Y-88000000D02*
X110242000Y-88242000D01*
X49580000Y-95880000D02*
X50681000Y-94779000D01*
X50681000Y-94779000D02*
X81121000Y-94779000D01*
%TO.N,Net-(U24-I0c)*%
X137000000Y-81000000D02*
X137101000Y-80899000D01*
X140216000Y-80899000D02*
X142180000Y-78935000D01*
X137101000Y-80899000D02*
X140216000Y-80899000D01*
%TO.N,Net-(U24-I0b)*%
X47040000Y-95880000D02*
X50019000Y-92901000D01*
X50019000Y-92901000D02*
X82099000Y-92901000D01*
X99899000Y-91101000D02*
X113625000Y-91101000D01*
X115625000Y-89101000D02*
X145655000Y-89101000D01*
X82099000Y-92901000D02*
X82500000Y-92500000D01*
X113625000Y-91101000D02*
X115625000Y-89101000D01*
X99000000Y-92000000D02*
X99899000Y-91101000D01*
X145655000Y-89101000D02*
X146500000Y-88256000D01*
%TO.N,Net-(U51-I0c)*%
X116790000Y-79120000D02*
X116790000Y-72210000D01*
X116790000Y-72210000D02*
X117000000Y-72000000D01*
X117000000Y-72000000D02*
X117000000Y-65500000D01*
%TO.N,Net-(U4-Pad9)*%
X134195000Y-33500000D02*
X162840000Y-33500000D01*
X129494000Y-38201000D02*
X134195000Y-33500000D01*
X162840000Y-33500000D02*
X167460000Y-28880000D01*
%TO.N,Net-(U4-Pad4)*%
X147500000Y-30581000D02*
X147500000Y-29380000D01*
X147500000Y-29380000D02*
X148000000Y-28880000D01*
%TO.N,Net-(U4-Pad10)*%
X123401000Y-40401000D02*
X131399000Y-40401000D01*
X131399000Y-40401000D02*
X135300000Y-36500000D01*
X119380000Y-36380000D02*
X123401000Y-40401000D01*
%TO.N,Net-(U24-Za)*%
X106853700Y-80967900D02*
X107607000Y-81721200D01*
X107607000Y-81721200D02*
X114163500Y-81721200D01*
X116432700Y-81605500D02*
X117416300Y-82589100D01*
X114163500Y-81721200D02*
X114279200Y-81605500D01*
X104409200Y-80967900D02*
X106853700Y-80967900D01*
X114279200Y-81605500D02*
X116432700Y-81605500D01*
%TO.N,~{CLK}*%
X179000000Y-91061700D02*
X184990000Y-97051300D01*
X173902000Y-80980000D02*
X179000000Y-86077900D01*
X172000000Y-75900000D02*
X173902000Y-77802100D01*
X186331000Y-97051300D02*
X192360000Y-103080000D01*
X179000000Y-86077900D02*
X179000000Y-91061700D01*
X173902000Y-77802100D02*
X173902000Y-80980000D01*
X184990000Y-97051300D02*
X186331000Y-97051300D01*
%TO.N,Net-(U52-Zc)*%
X164500000Y-72000000D02*
X165905000Y-72000000D01*
X165905000Y-72000000D02*
X172720000Y-78815000D01*
%TO.N,Net-(U21-D0)*%
X75434700Y-101605300D02*
X73540000Y-103500000D01*
X92960000Y-90000000D02*
X89821300Y-93138700D01*
X79794900Y-101605300D02*
X75434700Y-101605300D01*
X89821300Y-93138700D02*
X88261500Y-93138700D01*
X88261500Y-93138700D02*
X79794900Y-101605300D01*
%TO.N,Net-(U52-Zb)*%
X176500000Y-82729400D02*
X178135000Y-84364700D01*
X172000000Y-68571300D02*
X172000000Y-73997900D01*
X172000000Y-73997900D02*
X176500000Y-78497900D01*
X176500000Y-78497900D02*
X176500000Y-82729400D01*
%TO.N,CLR*%
X99479000Y-80851500D02*
X99479000Y-84238000D01*
X279300000Y-106000000D02*
X281901000Y-103399000D01*
X299866000Y-106000000D02*
X300560000Y-106000000D01*
X99660000Y-136500000D02*
X100799000Y-137639000D01*
X99479000Y-84238000D02*
X99741000Y-84500000D01*
X300500000Y-69460000D02*
X301460000Y-68500000D01*
X101500000Y-130000000D02*
X99660000Y-131840000D01*
X281901000Y-103399000D02*
X297265000Y-103399000D01*
X120220000Y-136620000D02*
X122340000Y-134500000D01*
X274000000Y-110701000D02*
X274201000Y-110500000D01*
X101564000Y-92435700D02*
X100481000Y-93519200D01*
X100799000Y-137639000D02*
X119201000Y-137639000D01*
X274201000Y-110500000D02*
X274800000Y-110500000D01*
X100481000Y-93519200D02*
X100481000Y-98019200D01*
X119201000Y-137639000D02*
X120220000Y-136620000D01*
X297265000Y-103399000D02*
X299866000Y-106000000D01*
X99741000Y-80589500D02*
X99479000Y-80851500D01*
X274800000Y-110500000D02*
X279300000Y-106000000D01*
X122340000Y-134500000D02*
X131000000Y-134500000D01*
X100481000Y-98019200D02*
X100000000Y-98500000D01*
X300500000Y-71900000D02*
X300500000Y-69460000D01*
X99660000Y-131840000D02*
X99660000Y-136500000D01*
%TO.N,~{BI}*%
X246000000Y-122000000D02*
X247000000Y-121000000D01*
X246000000Y-122246000D02*
X246000000Y-122000000D01*
%TO.N,Net-(U10-Pad4)*%
X383350000Y-118890000D02*
X375730000Y-111270000D01*
%TO.N,Net-(U12-D1)*%
X379000000Y-113000000D02*
X380000000Y-112000000D01*
%TO.N,Net-(U10-Pad2)*%
X366050000Y-104450000D02*
X360230000Y-104450000D01*
X367500000Y-103000000D02*
X366050000Y-104450000D01*
%TO.N,Net-(D19-A)*%
X389620000Y-77500000D02*
X393477000Y-81356800D01*
X337230000Y-110070000D02*
X338331000Y-108969000D01*
X366901000Y-110479000D02*
X367850000Y-109530000D01*
X359837000Y-110479000D02*
X366901000Y-110479000D01*
X358327000Y-108969000D02*
X359837000Y-110479000D01*
X338331000Y-108969000D02*
X358327000Y-108969000D01*
X393477000Y-81356800D02*
X396440000Y-81356800D01*
%TO.N,~{FI}*%
X351500000Y-80500000D02*
X354000000Y-80500000D01*
%TO.N,Net-(U13-B2)*%
X334000000Y-93000000D02*
X332584000Y-94415700D01*
X334000000Y-87400000D02*
X334000000Y-93000000D01*
%TO.N,Net-(U13-B1)*%
X326686000Y-130751000D02*
X328329000Y-129108000D01*
X325129000Y-142751000D02*
X325129000Y-131396000D01*
X318730000Y-149150000D02*
X325129000Y-142751000D01*
X328329000Y-129108000D02*
X328329000Y-109171000D01*
X328329000Y-109171000D02*
X329826000Y-107674000D01*
X335000000Y-91340000D02*
X337110000Y-89230000D01*
X325774000Y-130751000D02*
X326686000Y-130751000D01*
X335000000Y-91500000D02*
X335000000Y-91340000D01*
X325129000Y-131396000D02*
X325774000Y-130751000D01*
%TO.N,Net-(U13-B3)*%
X341000000Y-82800000D02*
X344730000Y-79070000D01*
X341000000Y-91500000D02*
X341000000Y-82800000D01*
%TO.N,/MAR/PROG*%
X66740000Y-52240000D02*
X66740000Y-50620000D01*
X111710000Y-86740000D02*
X112811000Y-87841000D01*
X112811000Y-87841000D02*
X135814000Y-87841000D01*
X94399000Y-67399000D02*
X81899000Y-67399000D01*
X138201000Y-87656000D02*
X161339000Y-87656000D01*
X161339000Y-87656000D02*
X162560000Y-86435000D01*
X135814000Y-87841000D02*
X137100000Y-86555000D01*
X81899000Y-67399000D02*
X66740000Y-52240000D01*
X95000000Y-68000000D02*
X94399000Y-67399000D01*
X137100000Y-86555000D02*
X138201000Y-87656000D01*
%TO.N,BUS_4*%
X325810000Y-188500000D02*
X325810000Y-181620000D01*
X290000000Y-109500000D02*
X289460000Y-108960000D01*
X305049000Y-71000000D02*
X305549000Y-71500000D01*
X154102000Y-83101800D02*
X151602000Y-83101800D01*
X289460000Y-108960000D02*
X289460000Y-106000000D01*
X107000000Y-93000000D02*
X105000000Y-93000000D01*
X255960000Y-108000000D02*
X254460000Y-106500000D01*
X325810000Y-181620000D02*
X325190000Y-181000000D01*
X151602000Y-83101800D02*
X151500000Y-83000000D01*
X286401000Y-69639200D02*
X287660000Y-68380000D01*
X259500000Y-108000000D02*
X255960000Y-108000000D01*
X382000000Y-72000000D02*
X382000000Y-69880000D01*
X253700000Y-68500000D02*
X254839000Y-69639200D01*
X105000000Y-93000000D02*
X102120000Y-95880000D01*
X108000000Y-92000000D02*
X107000000Y-93000000D01*
X102120000Y-95880000D02*
X101620000Y-95880000D01*
X254839000Y-69639200D02*
X286401000Y-69639200D01*
X304349000Y-71000000D02*
X305049000Y-71000000D01*
%TO.N,BUS_6*%
X284380000Y-109620000D02*
X284000000Y-110000000D01*
X306900000Y-72500000D02*
X310672000Y-72500000D01*
X376500000Y-72000000D02*
X376920000Y-71580000D01*
X376500000Y-72500000D02*
X376500000Y-72000000D01*
X195500000Y-73499000D02*
X195500000Y-76501000D01*
X284380000Y-106000000D02*
X284380000Y-109620000D01*
X137000000Y-93000000D02*
X134500000Y-93000000D01*
X104740000Y-134661000D02*
X104740000Y-136500000D01*
X335810000Y-188500000D02*
X335810000Y-181380000D01*
X376920000Y-71580000D02*
X376920000Y-69880000D01*
X101500000Y-131421000D02*
X104740000Y-134661000D01*
X255054000Y-65445700D02*
X252554000Y-65445700D01*
X252554000Y-65445700D02*
X251500000Y-66500000D01*
X195500000Y-76501000D02*
X194500000Y-77501000D01*
X335810000Y-181380000D02*
X336190000Y-181000000D01*
%TO.N,~{MI}*%
X150069000Y-71068700D02*
X124409000Y-71068700D01*
X158102000Y-79101800D02*
X150069000Y-71068700D01*
X115840000Y-62500000D02*
X111000000Y-62500000D01*
X124409000Y-71068700D02*
X115840000Y-62500000D01*
%TO.N,BUS_7*%
X281500000Y-110000000D02*
X281840000Y-109660000D01*
X147000000Y-91000000D02*
X144500000Y-91000000D01*
X102000000Y-134500000D02*
X102200000Y-134700000D01*
X374000000Y-73100000D02*
X374380000Y-72720000D01*
X340810000Y-184190000D02*
X341000000Y-184000000D01*
X102200000Y-134700000D02*
X102200000Y-136500000D01*
X374380000Y-72720000D02*
X374380000Y-69880000D01*
X281840000Y-109660000D02*
X281840000Y-106000000D01*
X99500000Y-94500000D02*
X95380000Y-94500000D01*
X95380000Y-94500000D02*
X94000000Y-95880000D01*
X340810000Y-188500000D02*
X340810000Y-184190000D01*
X306900000Y-74000000D02*
X310672000Y-74000000D01*
%TO.N,Net-(U51-Zc)*%
X97511500Y-79988500D02*
X100138557Y-79988500D01*
X100251057Y-80101000D02*
X103274829Y-80101000D01*
X67920000Y-90500000D02*
X73420000Y-85000000D01*
X107476829Y-75899000D02*
X110124793Y-75899000D01*
X110124793Y-75899000D02*
X111225793Y-77000000D01*
X96500000Y-81000000D02*
X97511500Y-79988500D01*
X100138557Y-79988500D02*
X100251057Y-80101000D01*
X111225793Y-77000000D02*
X114500000Y-77000000D01*
X114500000Y-77000000D02*
X115500000Y-76000000D01*
X73420000Y-85000000D02*
X90500000Y-85000000D01*
X103274829Y-80101000D02*
X107476829Y-75899000D01*
%TO.N,Net-(U24-Zb)*%
X128415500Y-84384900D02*
X127280500Y-85519900D01*
X127280500Y-85519900D02*
X108405000Y-85519900D01*
X142927700Y-84384900D02*
X128415500Y-84384900D01*
X158109700Y-84775300D02*
X143318100Y-84775300D01*
X107195800Y-85170200D02*
X106846100Y-85519900D01*
X143318100Y-84775300D02*
X142927700Y-84384900D01*
X108405000Y-85519900D02*
X108055300Y-85170200D01*
X108055300Y-85170200D02*
X107195800Y-85170200D01*
X158260600Y-84624400D02*
X158109700Y-84775300D01*
%TO.N,Net-(U21-D1)*%
X89776200Y-94740800D02*
X87379200Y-94740800D01*
X94061000Y-89881900D02*
X94061000Y-90456100D01*
X108500000Y-76500000D02*
X107443000Y-76500000D01*
X96191900Y-88899000D02*
X95043900Y-88899000D01*
X107443000Y-76500000D02*
X102000000Y-81942900D01*
X94061000Y-90456100D02*
X89776200Y-94740800D01*
X95043900Y-88899000D02*
X94061000Y-89881900D01*
X102000000Y-81942900D02*
X102000000Y-83090900D01*
X87379200Y-94740800D02*
X78620000Y-103500000D01*
X102000000Y-83090900D02*
X96191900Y-88899000D01*
%TO.N,Net-(U52-I0c)*%
X159500000Y-85000000D02*
X161455000Y-85000000D01*
X161455000Y-85000000D02*
X167640000Y-78815000D01*
X92000000Y-101500000D02*
X93500000Y-101500000D01*
%TO.N,Net-(U24-Zc)*%
X113067200Y-83819300D02*
X114679200Y-82207300D01*
X105351700Y-83819300D02*
X113067200Y-83819300D01*
%TO.N,Net-(U21-D2)*%
X100049000Y-75000000D02*
X94399000Y-80649700D01*
X94399000Y-82641000D02*
X81160000Y-95880000D01*
X94399000Y-80649700D02*
X94399000Y-82641000D01*
%TO.N,Net-(U24-Zd)*%
X133800000Y-81100000D02*
X134500000Y-80400000D01*
X109000000Y-81100000D02*
X133800000Y-81100000D01*
%TO.N,Net-(U23-D0)*%
X108500000Y-99290800D02*
X112068000Y-99290800D01*
X106000000Y-94000000D02*
X105561000Y-94439200D01*
X105561000Y-96351900D02*
X108500000Y-99290800D01*
X117500000Y-101000000D02*
X124000000Y-101000000D01*
X105561000Y-94439200D02*
X105561000Y-96351900D01*
%TO.N,~{RO}*%
X119050000Y-102000000D02*
X112850000Y-102000000D01*
X129500000Y-101000000D02*
X128500000Y-102000000D01*
X119950000Y-102000000D02*
X119749000Y-102201000D01*
X112850000Y-102000000D02*
X112649000Y-102201000D01*
X112649000Y-102201000D02*
X112151000Y-102201000D01*
X119251000Y-102201000D02*
X119050000Y-102000000D01*
X112151000Y-102201000D02*
X111950000Y-102000000D01*
X111950000Y-102000000D02*
X97580000Y-102000000D01*
X119749000Y-102201000D02*
X119251000Y-102201000D01*
X97580000Y-102000000D02*
X91460000Y-95880000D01*
X128500000Y-102000000D02*
X119950000Y-102000000D01*
%TO.N,~{CLR}*%
X229187000Y-62028400D02*
X242139000Y-74980800D01*
X229187000Y-56366800D02*
X229187000Y-62028400D01*
X228237700Y-57316200D02*
X229186800Y-57316200D01*
X227171000Y-58382900D02*
X229187000Y-56366800D01*
X253321000Y-106028000D02*
X253321000Y-118971000D01*
X95960000Y-70770000D02*
X98500000Y-73310000D01*
X95960000Y-65690000D02*
X96908700Y-64741300D01*
X95960000Y-65690000D02*
X95960000Y-70770000D01*
X96908700Y-64741300D02*
X105171000Y-64741300D01*
X253321000Y-118971000D02*
X273321000Y-138971000D01*
X273321000Y-138971000D02*
X273321000Y-146981000D01*
X273321000Y-146981000D02*
X274460000Y-148120000D01*
X111411000Y-60399000D02*
X225155000Y-60399000D01*
X106120000Y-65690000D02*
X111411000Y-60399000D01*
X225155000Y-60399000D02*
X227171000Y-58382900D01*
X242139000Y-74980800D02*
X242139000Y-94846500D01*
X93420000Y-65690000D02*
X95960000Y-65690000D01*
X227171000Y-58382900D02*
X228237700Y-57316200D01*
X229186800Y-56366800D02*
X229186800Y-57316200D01*
X105171000Y-64741300D02*
X106120000Y-65690000D01*
X242139000Y-94846500D02*
X253321000Y-106028000D01*
%TO.N,Net-(U42-O5)*%
X135420000Y-93600000D02*
X125068000Y-93600000D01*
X169120000Y-127300000D02*
X135420000Y-93600000D01*
%TO.N,Net-(U26-Pad6)*%
X150000000Y-94500000D02*
X158500000Y-103000000D01*
X158500000Y-103000000D02*
X168620000Y-103000000D01*
%TO.N,Net-(U51-I1c)*%
X100298000Y-74399000D02*
X97049000Y-74399000D01*
X100049000Y-76000000D02*
X100650000Y-75399000D01*
X108800000Y-80221000D02*
X106789000Y-78210700D01*
X97049000Y-74399000D02*
X95960000Y-73310000D01*
X119330000Y-79120000D02*
X118229000Y-80221000D01*
X118229000Y-80221000D02*
X108800000Y-80221000D01*
X100650000Y-74751100D02*
X100298000Y-74399000D01*
X100650000Y-75399000D02*
X100650000Y-74751100D01*
%TO.N,~{IO}*%
X123000000Y-116500000D02*
X123500000Y-116500000D01*
X166539000Y-77361000D02*
X168000000Y-75900000D01*
X121925000Y-117575000D02*
X123000000Y-116500000D01*
X164500000Y-81000000D02*
X166539000Y-78961000D01*
X166539000Y-78961000D02*
X166539000Y-77361000D01*
%TO.N,~{AI}*%
X184000000Y-65500000D02*
X184675000Y-66175100D01*
X251848000Y-64651600D02*
X254958000Y-64651600D01*
X290000000Y-66359800D02*
X290200000Y-66559800D01*
X250936000Y-65564300D02*
X251848000Y-64651600D01*
X290200000Y-66559800D02*
X290200000Y-68380000D01*
X224400000Y-66000000D02*
X226000000Y-66000000D01*
X304000000Y-69648900D02*
X306500000Y-69648900D01*
X183500000Y-65500000D02*
X184000000Y-65500000D01*
%TO.N,~{AO}*%
X179540000Y-63500000D02*
X178540000Y-62500000D01*
X180500000Y-63500000D02*
X179540000Y-63500000D01*
%TO.N,~{J}*%
X221240000Y-100620000D02*
X222500000Y-99360000D01*
X222500000Y-99360000D02*
X222500000Y-61000000D01*
%TO.N,Net-(U32A-~{Q})*%
X248274000Y-155000000D02*
X263913000Y-170639000D01*
X251601000Y-142599000D02*
X255200000Y-139000000D01*
X251601000Y-151359000D02*
X251601000Y-142599000D01*
X255200000Y-139000000D02*
X247580000Y-131380000D01*
X247960000Y-155000000D02*
X251601000Y-151359000D01*
X247960000Y-155000000D02*
X248274000Y-155000000D01*
X292319000Y-170639000D02*
X293420000Y-171740000D01*
X263913000Y-170639000D02*
X292319000Y-170639000D01*
%TO.N,Net-(U32B-~{Q})*%
X257740000Y-131380000D02*
X256639000Y-132481000D01*
X256681000Y-148819000D02*
X250500000Y-155000000D01*
X256681000Y-146924000D02*
X256681000Y-148819000D01*
X256639000Y-146882000D02*
X256681000Y-146924000D01*
X256639000Y-132481000D02*
X256639000Y-146882000D01*
%TO.N,Net-(U33A-O1)*%
X356358000Y-152898000D02*
X293009000Y-152898000D01*
X360460000Y-157000000D02*
X356358000Y-152898000D01*
%TO.N,Net-(U33A-O2)*%
X268140000Y-154823000D02*
X287092000Y-154823000D01*
X259221000Y-156101000D02*
X266862000Y-156101000D01*
X258120000Y-155000000D02*
X259221000Y-156101000D01*
X346410000Y-172240000D02*
X346410000Y-157000000D01*
X266862000Y-156101000D02*
X268140000Y-154823000D01*
%TO.N,Net-(U52-I0b)*%
X57200000Y-95880000D02*
X58320000Y-97000000D01*
X169053000Y-90102000D02*
X172720000Y-86435000D01*
X123669000Y-90668800D02*
X128833000Y-90668800D01*
X134653000Y-89502000D02*
X135326000Y-90174300D01*
X128833000Y-90668800D02*
X130000000Y-89502000D01*
X81600000Y-97000000D02*
X82500000Y-97900000D01*
X145000000Y-90102000D02*
X169053000Y-90102000D01*
X123000000Y-90000000D02*
X123669000Y-90668800D01*
X58320000Y-97000000D02*
X81600000Y-97000000D01*
X130000000Y-89502000D02*
X134653000Y-89502000D01*
%TO.N,Net-(U33A-O0)*%
X253040000Y-155000000D02*
X254141000Y-153899000D01*
X254141000Y-153899000D02*
X289699000Y-153899000D01*
X289699000Y-153899000D02*
X289896000Y-154096000D01*
X332360000Y-157000000D02*
X332360000Y-172240000D01*
X292583000Y-154271000D02*
X329631000Y-154271000D01*
X329631000Y-154271000D02*
X332360000Y-157000000D01*
%TO.N,Net-(U34-F)*%
X273100000Y-156500000D02*
X274701000Y-158101000D01*
X274701000Y-158101000D02*
X314669000Y-158101000D01*
X328719000Y-158101000D02*
X316871000Y-158101000D01*
X316871000Y-158101000D02*
X315770000Y-157000000D01*
X314669000Y-158101000D02*
X315770000Y-157000000D01*
X329820000Y-157000000D02*
X328719000Y-158101000D01*
%TO.N,Net-(U34-E)*%
X284298000Y-170238000D02*
X270560000Y-156500000D01*
X311228000Y-170238000D02*
X284298000Y-170238000D01*
X313230000Y-172240000D02*
X311228000Y-170238000D01*
%TO.N,Net-(U34-D)*%
X315770000Y-172240000D02*
X317530000Y-174000000D01*
X268020000Y-171740000D02*
X270379000Y-174099000D01*
X270379000Y-174099000D02*
X313911000Y-174099000D01*
X344971000Y-173341000D02*
X343870000Y-172240000D01*
X356819000Y-173341000D02*
X344971000Y-173341000D01*
X357920000Y-172240000D02*
X356819000Y-173341000D01*
X328060000Y-174000000D02*
X329820000Y-172240000D01*
X317530000Y-174000000D02*
X328060000Y-174000000D01*
X313911000Y-174099000D02*
X315770000Y-172240000D01*
%TO.N,Net-(U34-G)*%
X312629000Y-157601000D02*
X276741000Y-157601000D01*
X276741000Y-157601000D02*
X275640000Y-156500000D01*
X313230000Y-157000000D02*
X312629000Y-157601000D01*
%TO.N,Net-(U34-A)*%
X313000000Y-161500000D02*
X311500000Y-161500000D01*
X348950000Y-157000000D02*
X347849000Y-155899000D01*
X361899000Y-158101000D02*
X350051000Y-158101000D01*
X347849000Y-155899000D02*
X336001000Y-155899000D01*
X336001000Y-155899000D02*
X334900000Y-157000000D01*
X363000000Y-157000000D02*
X361899000Y-158101000D01*
X315000000Y-159500000D02*
X313000000Y-161500000D01*
X350051000Y-158101000D02*
X348950000Y-157000000D01*
%TO.N,Net-(U38-Q7)*%
X283481000Y-146981000D02*
X283481000Y-150006000D01*
X286971000Y-153496000D02*
X290496000Y-153496000D01*
X283481000Y-150006000D02*
X286971000Y-153496000D01*
X277000000Y-140500000D02*
X283481000Y-146981000D01*
%TO.N,Net-(U38-Q6)*%
X288299000Y-149138000D02*
X288299000Y-144179000D01*
X289161000Y-150000000D02*
X288299000Y-149138000D01*
X288299000Y-144179000D02*
X284620000Y-140500000D01*
%TO.N,Net-(U38-Q4)*%
X293379000Y-145008000D02*
X294780000Y-143607000D01*
X293379000Y-151461000D02*
X293379000Y-145008000D01*
X288340000Y-156500000D02*
X293379000Y-151461000D01*
X294780000Y-143607000D02*
X294780000Y-140500000D01*
%TO.N,Net-(U52-I0a)*%
X161508000Y-85601000D02*
X161775000Y-85334000D01*
X131250000Y-85600000D02*
X131601000Y-85248900D01*
X163999000Y-85334000D02*
X165100000Y-86435000D01*
X128500000Y-85600000D02*
X131250000Y-85600000D01*
X158899000Y-85248900D02*
X159251000Y-85601000D01*
X161775000Y-85334000D02*
X163999000Y-85334000D01*
X159251000Y-85601000D02*
X161508000Y-85601000D01*
X131601000Y-85248900D02*
X158899000Y-85248900D01*
%TO.N,Net-(U23-D1)*%
X104000000Y-84000000D02*
X103000000Y-84000000D01*
X109000000Y-89000000D02*
X104000000Y-84000000D01*
%TO.N,Net-(U23-D3)*%
X106327900Y-99250000D02*
X99054700Y-99250000D01*
X99054700Y-99250000D02*
X98930300Y-99374400D01*
X118193400Y-98226200D02*
X117250000Y-99169600D01*
X117250000Y-99169600D02*
X117146200Y-99169600D01*
%TO.N,Net-(U52-Zd)*%
X149168700Y-71668700D02*
X150500000Y-73000000D01*
X140000000Y-71668700D02*
X149168700Y-71668700D01*
%TO.N,Net-(U21-\u002AO2)*%
X97726100Y-68899700D02*
X114359600Y-68899700D01*
X114359600Y-68899700D02*
X114706600Y-68552700D01*
%TO.N,Net-(U21-\u002AO1)*%
X101315057Y-91834700D02*
X102834700Y-91834700D01*
X102834700Y-91834700D02*
X103000000Y-92000000D01*
X93127927Y-92601000D02*
X100548757Y-92601000D01*
X70845800Y-99262300D02*
X69797300Y-99262300D01*
X108000000Y-83000000D02*
X111000000Y-83000000D01*
X73753500Y-102170000D02*
X70845800Y-99262300D01*
X111000000Y-83000000D02*
X111500000Y-82500000D01*
X90059200Y-99840800D02*
X90059200Y-95669727D01*
X100548757Y-92601000D02*
X101315057Y-91834700D01*
X89500000Y-100400000D02*
X90059200Y-99840800D01*
X90059200Y-95669727D02*
X93127927Y-92601000D01*
%TO.N,Net-(U21-\u002AO3)*%
X132297400Y-69171300D02*
X131000000Y-70468700D01*
X130000000Y-71668700D02*
X124567960Y-77100740D01*
X124567960Y-77100740D02*
X118100740Y-77100740D01*
X89900000Y-88100000D02*
X84000000Y-94000000D01*
X90500000Y-88100000D02*
X89900000Y-88100000D01*
X144128700Y-69171300D02*
X132297400Y-69171300D01*
X150800000Y-62500000D02*
X144128700Y-69171300D01*
%TO.N,Net-(U23-\u002AO1)*%
X141000000Y-95100000D02*
X141000000Y-92500000D01*
X149254000Y-89502000D02*
X150500000Y-88256000D01*
X141000000Y-92500000D02*
X143998000Y-89502000D01*
X143998000Y-89502000D02*
X149254000Y-89502000D01*
X159000000Y-79053500D02*
X159000000Y-76301000D01*
X158053000Y-80000000D02*
X159000000Y-79053500D01*
X158000000Y-80000000D02*
X158053000Y-80000000D01*
%TO.N,Net-(U18-I0b)*%
X38580000Y-50620000D02*
X40700000Y-48500000D01*
X54460000Y-48500000D02*
X56580000Y-50620000D01*
X40700000Y-48500000D02*
X54460000Y-48500000D01*
%TD*%
M02*
