%TF.GenerationSoftware,KiCad,Pcbnew,9.0.6*%
%TF.CreationDate,2025-12-09T11:29:59-06:00*%
%TF.ProjectId,8-Bit-PC,382d4269-742d-4504-932e-6b696361645f,2*%
%TF.SameCoordinates,Original*%
%TF.FileFunction,Copper,L4,Inr*%
%TF.FilePolarity,Positive*%
%FSLAX46Y46*%
G04 Gerber Fmt 4.6, Leading zero omitted, Abs format (unit mm)*
G04 Created by KiCad (PCBNEW 9.0.6) date 2025-12-09 11:29:59*
%MOMM*%
%LPD*%
G01*
G04 APERTURE LIST*
G04 Aperture macros list*
%AMRoundRect*
0 Rectangle with rounded corners*
0 $1 Rounding radius*
0 $2 $3 $4 $5 $6 $7 $8 $9 X,Y pos of 4 corners*
0 Add a 4 corners polygon primitive as box body*
4,1,4,$2,$3,$4,$5,$6,$7,$8,$9,$2,$3,0*
0 Add four circle primitives for the rounded corners*
1,1,$1+$1,$2,$3*
1,1,$1+$1,$4,$5*
1,1,$1+$1,$6,$7*
1,1,$1+$1,$8,$9*
0 Add four rect primitives between the rounded corners*
20,1,$1+$1,$2,$3,$4,$5,0*
20,1,$1+$1,$4,$5,$6,$7,0*
20,1,$1+$1,$6,$7,$8,$9,0*
20,1,$1+$1,$8,$9,$2,$3,0*%
G04 Aperture macros list end*
%TA.AperFunction,ComponentPad*%
%ADD10C,1.200000*%
%TD*%
%TA.AperFunction,ComponentPad*%
%ADD11R,1.800000X1.800000*%
%TD*%
%TA.AperFunction,ComponentPad*%
%ADD12C,1.800000*%
%TD*%
%TA.AperFunction,ComponentPad*%
%ADD13C,1.600000*%
%TD*%
%TA.AperFunction,ComponentPad*%
%ADD14R,1.295400X1.295400*%
%TD*%
%TA.AperFunction,ComponentPad*%
%ADD15C,1.295400*%
%TD*%
%TA.AperFunction,ComponentPad*%
%ADD16R,1.676400X1.676400*%
%TD*%
%TA.AperFunction,ComponentPad*%
%ADD17C,1.676400*%
%TD*%
%TA.AperFunction,ComponentPad*%
%ADD18R,1.500000X1.500000*%
%TD*%
%TA.AperFunction,ComponentPad*%
%ADD19R,1.600000X1.600000*%
%TD*%
%TA.AperFunction,ComponentPad*%
%ADD20C,2.000000*%
%TD*%
%TA.AperFunction,ComponentPad*%
%ADD21RoundRect,0.250000X0.550000X-0.550000X0.550000X0.550000X-0.550000X0.550000X-0.550000X-0.550000X0*%
%TD*%
%TA.AperFunction,ComponentPad*%
%ADD22RoundRect,0.250000X-0.550000X-0.550000X0.550000X-0.550000X0.550000X0.550000X-0.550000X0.550000X0*%
%TD*%
%TA.AperFunction,ComponentPad*%
%ADD23O,3.240000X2.720000*%
%TD*%
%TA.AperFunction,ComponentPad*%
%ADD24O,1.000000X2.200000*%
%TD*%
%TA.AperFunction,ComponentPad*%
%ADD25C,0.900000*%
%TD*%
%TA.AperFunction,ComponentPad*%
%ADD26RoundRect,0.250000X-0.550000X0.550000X-0.550000X-0.550000X0.550000X-0.550000X0.550000X0.550000X0*%
%TD*%
%TA.AperFunction,ViaPad*%
%ADD27C,0.600000*%
%TD*%
%TA.AperFunction,Conductor*%
%ADD28C,0.200000*%
%TD*%
G04 APERTURE END LIST*
D10*
%TO.N,VCC*%
%TO.C,C72*%
X117460000Y-133620000D03*
%TO.N,GND*%
X117460000Y-131620000D03*
%TD*%
D11*
%TO.N,Net-(D2-K)*%
%TO.C,D2*%
X280000000Y-83540000D03*
D12*
%TO.N,/ALU/A_7*%
X280000000Y-81000000D03*
%TD*%
D13*
%TO.N,VCC*%
%TO.C,R5*%
X90190000Y-39500000D03*
%TO.N,Net-(SW2-A)*%
X97810000Y-39500000D03*
%TD*%
D14*
%TO.N,GND*%
%TO.C,U49*%
X274960000Y-76000000D03*
D15*
X277500000Y-76000000D03*
%TO.N,/ALU/A_7*%
X280040000Y-76000000D03*
%TO.N,/ALU/A_6*%
X282580000Y-76000000D03*
%TO.N,/ALU/A_5*%
X285120000Y-76000000D03*
%TO.N,/ALU/A_4*%
X287660000Y-76000000D03*
%TO.N,CLK*%
X290200000Y-76000000D03*
%TO.N,GND*%
X292740000Y-76000000D03*
%TO.N,~{AI}*%
X292740000Y-68380000D03*
X290200000Y-68380000D03*
%TO.N,BUS_4*%
X287660000Y-68380000D03*
%TO.N,BUS_5*%
X285120000Y-68380000D03*
%TO.N,BUS_6*%
X282580000Y-68380000D03*
%TO.N,BUS_7*%
X280040000Y-68380000D03*
%TO.N,CLR*%
X277500000Y-68380000D03*
%TO.N,VCC*%
X274960000Y-68380000D03*
%TD*%
D13*
%TO.N,GND*%
%TO.C,C1*%
X49500000Y-30500000D03*
%TO.N,Net-(U1-CV)*%
X47000000Y-30500000D03*
%TD*%
%TO.N,Net-(D116-K)*%
%TO.C,R87*%
X114960000Y-157810000D03*
%TO.N,GND*%
X114960000Y-165430000D03*
%TD*%
D10*
%TO.N,GND*%
%TO.C,C25*%
X95500000Y-22000000D03*
%TO.N,VCC*%
X95500000Y-24000000D03*
%TD*%
%TO.N,GND*%
%TO.C,C54*%
X403897700Y-70925700D03*
%TO.N,VCC*%
X403897700Y-72925700D03*
%TD*%
%TO.N,VCC*%
%TO.C,C71*%
X96960000Y-133120000D03*
%TO.N,GND*%
X96960000Y-131120000D03*
%TD*%
%TO.N,VCC*%
%TO.C,C44*%
X86500000Y-106500000D03*
%TO.N,GND*%
X86500000Y-108500000D03*
%TD*%
D11*
%TO.N,Net-(D33-K)*%
%TO.C,D33*%
X117500000Y-116540000D03*
D12*
%TO.N,Net-(D33-A)*%
X117500000Y-114000000D03*
%TD*%
D10*
%TO.N,VCC*%
%TO.C,C59*%
X274000000Y-137000000D03*
%TO.N,GND*%
X274000000Y-135000000D03*
%TD*%
D13*
%TO.N,Net-(D65-K)*%
%TO.C,R68*%
X318310000Y-192690000D03*
%TO.N,GND*%
X318310000Y-200310000D03*
%TD*%
D11*
%TO.N,Net-(D35-K)*%
%TO.C,D35*%
X251186800Y-46126800D03*
D12*
%TO.N,Net-(D35-A)*%
X248646800Y-46126800D03*
%TD*%
D11*
%TO.N,Net-(D21-K)*%
%TO.C,D21*%
X59030000Y-66620000D03*
D12*
%TO.N,/MAR/A2*%
X59030000Y-64080000D03*
%TD*%
D13*
%TO.N,Net-(D44-K)*%
%TO.C,R46*%
X177000000Y-167000000D03*
%TO.N,GND*%
X177000000Y-174620000D03*
%TD*%
%TO.N,Net-(D41-K)*%
%TO.C,R43*%
X162000000Y-167000000D03*
%TO.N,GND*%
X162000000Y-174620000D03*
%TD*%
D11*
%TO.N,Net-(D36-K)*%
%TO.C,D36*%
X251186800Y-50626800D03*
D12*
%TO.N,Net-(D36-A)*%
X248646800Y-50626800D03*
%TD*%
D11*
%TO.N,Net-(D26-K)*%
%TO.C,D26*%
X86000000Y-116540000D03*
D12*
%TO.N,Net-(D26-A)*%
X86000000Y-114000000D03*
%TD*%
D13*
%TO.N,VCC*%
%TO.C,R19*%
X21000000Y-43310000D03*
%TO.N,Net-(D25-A)*%
X21000000Y-50930000D03*
%TD*%
D10*
%TO.N,VCC*%
%TO.C,C23*%
X329230000Y-117190000D03*
%TO.N,GND*%
X331230000Y-117190000D03*
%TD*%
D14*
%TO.N,GND*%
%TO.C,U119*%
X117680000Y-144240000D03*
D15*
X120220000Y-144240000D03*
%TO.N,Net-(D116-A)*%
X122760000Y-144240000D03*
%TO.N,Net-(D117-A)*%
X125300000Y-144240000D03*
%TO.N,Net-(D118-A)*%
X127840000Y-144240000D03*
%TO.N,Net-(D119-A)*%
X130380000Y-144240000D03*
%TO.N,CLK*%
X132920000Y-144240000D03*
%TO.N,GND*%
X135460000Y-144240000D03*
%TO.N,~{II}*%
X135460000Y-136620000D03*
X132920000Y-136620000D03*
%TO.N,BUS_0*%
X130380000Y-136620000D03*
%TO.N,BUS_1*%
X127840000Y-136620000D03*
%TO.N,BUS_2*%
X125300000Y-136620000D03*
%TO.N,BUS_3*%
X122760000Y-136620000D03*
%TO.N,CLR*%
X120220000Y-136620000D03*
%TO.N,VCC*%
X117680000Y-136620000D03*
%TD*%
D11*
%TO.N,Net-(D25-K)*%
%TO.C,D25*%
X21000000Y-56620000D03*
D12*
%TO.N,Net-(D25-A)*%
X21000000Y-54080000D03*
%TD*%
D13*
%TO.N,Net-(D2-K)*%
%TO.C,R99*%
X280000000Y-86190000D03*
%TO.N,GND*%
X280000000Y-93810000D03*
%TD*%
D10*
%TO.N,VCC*%
%TO.C,C31*%
X69500000Y-61000000D03*
%TO.N,GND*%
X71500000Y-61000000D03*
%TD*%
%TO.N,VCC*%
%TO.C,C55*%
X246186800Y-29126800D03*
%TO.N,GND*%
X248186800Y-29126800D03*
%TD*%
D13*
%TO.N,Net-(D28-K)*%
%TO.C,R26*%
X95000000Y-119000000D03*
%TO.N,GND*%
X95000000Y-126620000D03*
%TD*%
D11*
%TO.N,Net-(D40-K)*%
%TO.C,D40*%
X156970000Y-162000000D03*
D12*
%TO.N,RI*%
X159510000Y-162000000D03*
%TD*%
D11*
%TO.N,Net-(D53-K)*%
%TO.C,D53*%
X221970000Y-162000000D03*
D12*
%TO.N,Net-(D53-A)*%
X224510000Y-162000000D03*
%TD*%
D14*
%TO.N,Net-(U10-Pad2)*%
%TO.C,U11*%
X360230000Y-104450000D03*
D15*
%TO.N,Net-(D11-A)*%
X360230000Y-106990000D03*
%TO.N,Net-(D12-A)*%
X360230000Y-109530000D03*
%TO.N,Net-(U10-Pad1)*%
X360230000Y-112070000D03*
%TO.N,Net-(D13-A)*%
X360230000Y-114610000D03*
%TO.N,Net-(D15-A)*%
X360230000Y-117150000D03*
%TO.N,GND*%
X360230000Y-119690000D03*
%TO.N,Net-(D16-A)*%
X367850000Y-119690000D03*
%TO.N,Net-(D17-A)*%
X367850000Y-117150000D03*
%TO.N,Net-(U10-Pad10)*%
X367850000Y-114610000D03*
%TO.N,Net-(D18-A)*%
X367850000Y-112070000D03*
%TO.N,Net-(D19-A)*%
X367850000Y-109530000D03*
%TO.N,Net-(U10-Pad9)*%
X367850000Y-106990000D03*
%TO.N,VCC*%
X367850000Y-104450000D03*
%TD*%
D13*
%TO.N,Net-(D115-K)*%
%TO.C,R86*%
X107960000Y-157810000D03*
%TO.N,GND*%
X107960000Y-165430000D03*
%TD*%
D11*
%TO.N,Net-(D026-K)*%
%TO.C,D026*%
X298760000Y-119700000D03*
D12*
%TO.N,/ALU/B_3*%
X298760000Y-117160000D03*
%TD*%
D16*
%TO.N,~{CLR}*%
%TO.C,U38*%
X274460000Y-148120000D03*
D17*
%TO.N,Net-(U38-Q0)*%
X277000000Y-148120000D03*
%TO.N,BUS_0*%
X279540000Y-148120000D03*
%TO.N,BUS_1*%
X282080000Y-148120000D03*
%TO.N,Net-(U38-Q1)*%
X284620000Y-148120000D03*
%TO.N,Net-(U38-Q2)*%
X287160000Y-148120000D03*
%TO.N,BUS_2*%
X289700000Y-148120000D03*
%TO.N,BUS_3*%
X292240000Y-148120000D03*
%TO.N,Net-(U38-Q3)*%
X294780000Y-148120000D03*
%TO.N,GND*%
X297320000Y-148120000D03*
%TO.N,Net-(U38-Cp)*%
X297320000Y-140500000D03*
%TO.N,Net-(U38-Q4)*%
X294780000Y-140500000D03*
%TO.N,BUS_4*%
X292240000Y-140500000D03*
%TO.N,BUS_5*%
X289700000Y-140500000D03*
%TO.N,Net-(U38-Q5)*%
X287160000Y-140500000D03*
%TO.N,Net-(U38-Q6)*%
X284620000Y-140500000D03*
%TO.N,BUS_6*%
X282080000Y-140500000D03*
%TO.N,BUS_7*%
X279540000Y-140500000D03*
%TO.N,Net-(U38-Q7)*%
X277000000Y-140500000D03*
%TO.N,VCC*%
X274460000Y-140500000D03*
%TD*%
D11*
%TO.N,Net-(D59-K)*%
%TO.C,D59*%
X182240000Y-142500000D03*
D12*
%TO.N,Net-(D59-A)*%
X179700000Y-142500000D03*
%TD*%
D10*
%TO.N,VCC*%
%TO.C,C63*%
X179120000Y-102540000D03*
%TO.N,GND*%
X181120000Y-102540000D03*
%TD*%
%TO.N,VCC*%
%TO.C,C60*%
X242500000Y-128500000D03*
%TO.N,GND*%
X242500000Y-126500000D03*
%TD*%
D13*
%TO.N,Net-(U31-THR)*%
%TO.C,R38*%
X241500000Y-153310000D03*
%TO.N,Net-(U31-DIS)*%
X241500000Y-145690000D03*
%TD*%
%TO.N,Net-(D58-A)*%
%TO.C,R56*%
X157740000Y-143500000D03*
%TO.N,VCC*%
X150120000Y-143500000D03*
%TD*%
D18*
%TO.N,/MAR/PROG*%
%TO.C,SW4*%
X16500000Y-53080000D03*
D13*
%TO.N,GND*%
X16500000Y-50540000D03*
%TO.N,Net-(D25-K)*%
X16500000Y-55620000D03*
%TD*%
D11*
%TO.N,Net-(D31-K)*%
%TO.C,D31*%
X108500000Y-116540000D03*
D12*
%TO.N,Net-(D31-A)*%
X108500000Y-114000000D03*
%TD*%
D19*
%TO.N,Net-(U34-E)*%
%TO.C,U35*%
X327280000Y-172240000D03*
D13*
%TO.N,Net-(U34-D)*%
X329820000Y-172240000D03*
%TO.N,Net-(U33A-O0)*%
X332360000Y-172240000D03*
%TO.N,Net-(U34-C)*%
X334900000Y-172240000D03*
%TO.N,Net-(U34-DP)*%
X337440000Y-172240000D03*
%TO.N,Net-(U34-B)*%
X337440000Y-157000000D03*
%TO.N,Net-(U34-A)*%
X334900000Y-157000000D03*
%TO.N,Net-(U33A-O0)*%
X332360000Y-157000000D03*
%TO.N,Net-(U34-F)*%
X329820000Y-157000000D03*
%TO.N,Net-(U34-G)*%
X327280000Y-157000000D03*
%TD*%
D20*
%TO.N,GND*%
%TO.C,SW6*%
X121500000Y-65500000D03*
X121500000Y-72000000D03*
%TO.N,Net-(U51-I0c)*%
X117000000Y-65500000D03*
X117000000Y-72000000D03*
%TD*%
D10*
%TO.N,VCC*%
%TO.C,C50*%
X115000000Y-93000000D03*
%TO.N,GND*%
X115000000Y-91000000D03*
%TD*%
D13*
%TO.N,Net-(D63-K)*%
%TO.C,R66*%
X308310000Y-192690000D03*
%TO.N,GND*%
X308310000Y-200310000D03*
%TD*%
%TO.N,Net-(D47-K)*%
%TO.C,R49*%
X192000000Y-167000000D03*
%TO.N,GND*%
X192000000Y-174620000D03*
%TD*%
D10*
%TO.N,VCC*%
%TO.C,C53*%
X111500000Y-76000000D03*
%TO.N,GND*%
X111500000Y-74000000D03*
%TD*%
D13*
%TO.N,Net-(J1-CC2)*%
%TO.C,R81*%
X257000000Y-194500000D03*
%TO.N,GND*%
X257000000Y-186880000D03*
%TD*%
D10*
%TO.N,VCC*%
%TO.C,C41*%
X298260000Y-103120000D03*
%TO.N,GND*%
X298260000Y-101120000D03*
%TD*%
D13*
%TO.N,Net-(D9-K)*%
%TO.C,R106*%
X311500000Y-86000000D03*
%TO.N,GND*%
X311500000Y-93620000D03*
%TD*%
D10*
%TO.N,GND*%
%TO.C,C38*%
X275000000Y-63500000D03*
%TO.N,VCC*%
X275000000Y-65500000D03*
%TD*%
D13*
%TO.N,Net-(D42-K)*%
%TO.C,R44*%
X167000000Y-167000000D03*
%TO.N,GND*%
X167000000Y-174620000D03*
%TD*%
D11*
%TO.N,Net-(D29-K)*%
%TO.C,D29*%
X99500000Y-116540000D03*
D12*
%TO.N,Net-(D29-A)*%
X99500000Y-114000000D03*
%TD*%
D11*
%TO.N,Net-(D42-K)*%
%TO.C,D42*%
X166970000Y-162000000D03*
D12*
%TO.N,Net-(D42-A)*%
X169510000Y-162000000D03*
%TD*%
D14*
%TO.N,Net-(U41-~{MR})*%
%TO.C,U41*%
X192360000Y-105620000D03*
D15*
%TO.N,~{CLK}*%
X192360000Y-103080000D03*
%TO.N,unconnected-(U41-D0-Pad3)*%
X192360000Y-100540000D03*
%TO.N,unconnected-(U41-D1-Pad4)*%
X192360000Y-98000000D03*
%TO.N,unconnected-(U41-D2-Pad5)*%
X192360000Y-95460000D03*
%TO.N,unconnected-(U41-D3-Pad6)*%
X192360000Y-92920000D03*
%TO.N,VCC*%
X192360000Y-90380000D03*
%TO.N,GND*%
X192360000Y-87840000D03*
%TO.N,VCC*%
X184740000Y-87840000D03*
X184740000Y-90380000D03*
%TO.N,unconnected-(U41-Q3-Pad11)*%
X184740000Y-92920000D03*
%TO.N,Net-(D61-A)*%
X184740000Y-95460000D03*
%TO.N,Net-(D60-A)*%
X184740000Y-98000000D03*
%TO.N,Net-(D59-A)*%
X184740000Y-100540000D03*
%TO.N,unconnected-(U41-TC-Pad15)*%
X184740000Y-103080000D03*
%TO.N,VCC*%
X184740000Y-105620000D03*
%TD*%
D11*
%TO.N,Net-(D45-K)*%
%TO.C,D45*%
X181970000Y-162000000D03*
D12*
%TO.N,Net-(D45-A)*%
X184510000Y-162000000D03*
%TD*%
D13*
%TO.N,Net-(D112-K)*%
%TO.C,R83*%
X86960000Y-157810000D03*
%TO.N,GND*%
X86960000Y-165430000D03*
%TD*%
D11*
%TO.N,Net-(D57-K)*%
%TO.C,D57*%
X162740000Y-139000000D03*
D12*
%TO.N,Net-(D57-A)*%
X160200000Y-139000000D03*
%TD*%
D13*
%TO.N,Net-(D19-K)*%
%TO.C,R17*%
X396120000Y-86380000D03*
%TO.N,GND*%
X396120000Y-94000000D03*
%TD*%
%TO.N,GND*%
%TO.C,C6*%
X126000000Y-23000000D03*
%TO.N,VCC*%
X126000000Y-20500000D03*
%TD*%
D19*
%TO.N,Net-(U34-E)*%
%TO.C,U37*%
X355380000Y-172240000D03*
D13*
%TO.N,Net-(U34-D)*%
X357920000Y-172240000D03*
%TO.N,Net-(U33A-O1)*%
X360460000Y-172240000D03*
%TO.N,Net-(U34-C)*%
X363000000Y-172240000D03*
%TO.N,Net-(U34-DP)*%
X365540000Y-172240000D03*
%TO.N,Net-(U34-B)*%
X365540000Y-157000000D03*
%TO.N,Net-(U34-A)*%
X363000000Y-157000000D03*
%TO.N,Net-(U33A-O1)*%
X360460000Y-157000000D03*
%TO.N,Net-(U34-F)*%
X357920000Y-157000000D03*
%TO.N,Net-(U34-G)*%
X355380000Y-157000000D03*
%TD*%
D10*
%TO.N,VCC*%
%TO.C,C74*%
X251000000Y-199000000D03*
%TO.N,GND*%
X249000000Y-199000000D03*
%TD*%
D13*
%TO.N,Net-(D27-K)*%
%TO.C,R25*%
X90500000Y-119190000D03*
%TO.N,GND*%
X90500000Y-126810000D03*
%TD*%
D10*
%TO.N,GND*%
%TO.C,C34*%
X172500000Y-42000000D03*
%TO.N,VCC*%
X172500000Y-40000000D03*
%TD*%
D21*
%TO.N,/MAR/A0*%
%TO.C,U21*%
X65920000Y-103500000D03*
D13*
%TO.N,GND*%
X68460000Y-103500000D03*
%TO.N,Net-(U21-\u002AWE)*%
X71000000Y-103500000D03*
%TO.N,Net-(U21-D0)*%
X73540000Y-103500000D03*
%TO.N,Net-(U21-\u002AO0)*%
X76080000Y-103500000D03*
%TO.N,Net-(U21-D1)*%
X78620000Y-103500000D03*
%TO.N,Net-(U21-\u002AO1)*%
X81160000Y-103500000D03*
%TO.N,GND*%
X83700000Y-103500000D03*
%TO.N,Net-(U21-\u002AO2)*%
X83700000Y-95880000D03*
%TO.N,Net-(U21-D2)*%
X81160000Y-95880000D03*
%TO.N,Net-(U21-\u002AO3)*%
X78620000Y-95880000D03*
%TO.N,Net-(U21-D3)*%
X76080000Y-95880000D03*
%TO.N,/MAR/A3*%
X73540000Y-95880000D03*
%TO.N,/MAR/A2*%
X71000000Y-95880000D03*
%TO.N,/MAR/A1*%
X68460000Y-95880000D03*
%TO.N,VCC*%
X65920000Y-95880000D03*
%TD*%
D21*
%TO.N,Net-(U18-I0d)*%
%TO.C,SW3*%
X33500000Y-58240000D03*
D13*
%TO.N,Net-(U18-I0c)*%
X36040000Y-58240000D03*
%TO.N,GND*%
X38580000Y-58240000D03*
X41120000Y-58240000D03*
%TO.N,Net-(U18-I0a)*%
X41120000Y-50620000D03*
%TO.N,Net-(U18-I0b)*%
X38580000Y-50620000D03*
%TO.N,GND*%
X36040000Y-50620000D03*
X33500000Y-50620000D03*
%TD*%
D21*
%TO.N,GND*%
%TO.C,U3*%
X95190000Y-34805000D03*
D13*
%TO.N,Net-(SW2-A)*%
X97730000Y-34805000D03*
%TO.N,Net-(U3-Q)*%
X100270000Y-34805000D03*
%TO.N,Net-(SW2-C)*%
X102810000Y-34805000D03*
%TO.N,Net-(U3-CV)*%
X102810000Y-27185000D03*
%TO.N,GND*%
X100270000Y-27185000D03*
%TO.N,unconnected-(U3-DIS-Pad7)*%
X97730000Y-27185000D03*
%TO.N,VCC*%
X95190000Y-27185000D03*
%TD*%
%TO.N,Net-(D028-K)*%
%TO.C,R97*%
X307760000Y-122120000D03*
%TO.N,GND*%
X307760000Y-129740000D03*
%TD*%
%TO.N,VCC*%
%TO.C,R1*%
X36690000Y-28500000D03*
%TO.N,Net-(U1-DIS)*%
X44310000Y-28500000D03*
%TD*%
D16*
%TO.N,VCC*%
%TO.C,U25*%
X88920000Y-103500000D03*
D17*
%TO.N,Net-(D26-A)*%
X91460000Y-103500000D03*
%TO.N,Net-(D27-A)*%
X94000000Y-103500000D03*
%TO.N,Net-(D28-A)*%
X96540000Y-103500000D03*
%TO.N,Net-(D29-A)*%
X99080000Y-103500000D03*
%TO.N,Net-(D30-A)*%
X101620000Y-103500000D03*
%TO.N,Net-(D31-A)*%
X104160000Y-103500000D03*
%TO.N,Net-(D32-A)*%
X106700000Y-103500000D03*
%TO.N,Net-(D33-A)*%
X109240000Y-103500000D03*
%TO.N,GND*%
X111780000Y-103500000D03*
%TO.N,BUS_0*%
X111780000Y-95880000D03*
%TO.N,BUS_1*%
X109240000Y-95880000D03*
%TO.N,BUS_2*%
X106700000Y-95880000D03*
%TO.N,BUS_3*%
X104160000Y-95880000D03*
%TO.N,BUS_4*%
X101620000Y-95880000D03*
%TO.N,BUS_5*%
X99080000Y-95880000D03*
%TO.N,BUS_6*%
X96540000Y-95880000D03*
%TO.N,BUS_7*%
X94000000Y-95880000D03*
%TO.N,~{RO}*%
X91460000Y-95880000D03*
%TO.N,VCC*%
X88920000Y-95880000D03*
%TD*%
D11*
%TO.N,Net-(D54-K)*%
%TO.C,D54*%
X162740000Y-125500000D03*
D12*
%TO.N,Net-(D54-A)*%
X160200000Y-125500000D03*
%TD*%
D13*
%TO.N,Net-(D69-K)*%
%TO.C,R72*%
X338310000Y-192380000D03*
%TO.N,GND*%
X338310000Y-200000000D03*
%TD*%
%TO.N,Net-(D50-K)*%
%TO.C,R52*%
X207000000Y-166880000D03*
%TO.N,GND*%
X207000000Y-174500000D03*
%TD*%
D10*
%TO.N,GND*%
%TO.C,C46*%
X241760000Y-119120000D03*
%TO.N,VCC*%
X241760000Y-117120000D03*
%TD*%
D11*
%TO.N,Net-(D116-K)*%
%TO.C,D116*%
X114960000Y-154160000D03*
D12*
%TO.N,Net-(D116-A)*%
X114960000Y-151620000D03*
%TD*%
D10*
%TO.N,GND*%
%TO.C,C35*%
X241000000Y-81500000D03*
%TO.N,VCC*%
X241000000Y-79500000D03*
%TD*%
D13*
%TO.N,BUS_5*%
%TO.C,R75*%
X330190000Y-178000000D03*
%TO.N,GND*%
X337810000Y-178000000D03*
%TD*%
D22*
%TO.N,Net-(D18-A)*%
%TO.C,U14*%
X337230000Y-102450000D03*
D13*
%TO.N,Net-(U14-B2)*%
X337230000Y-104990000D03*
%TO.N,/ALU/A_1*%
X337230000Y-107530000D03*
%TO.N,Net-(D19-A)*%
X337230000Y-110070000D03*
%TO.N,/ALU/A_0*%
X337230000Y-112610000D03*
%TO.N,Net-(U14-B1)*%
X337230000Y-115150000D03*
%TO.N,SU*%
X337230000Y-117690000D03*
%TO.N,GND*%
X337230000Y-120230000D03*
%TO.N,Net-(U13-C0)*%
X344850000Y-120230000D03*
%TO.N,Net-(D16-A)*%
X344850000Y-117690000D03*
%TO.N,Net-(U14-B4)*%
X344850000Y-115150000D03*
%TO.N,/ALU/A_3*%
X344850000Y-112610000D03*
%TO.N,Net-(D17-A)*%
X344850000Y-110070000D03*
%TO.N,/ALU/A_2*%
X344850000Y-107530000D03*
%TO.N,Net-(U14-B3)*%
X344850000Y-104990000D03*
%TO.N,VCC*%
X344850000Y-102450000D03*
%TD*%
D10*
%TO.N,VCC*%
%TO.C,C56*%
X218566800Y-56326800D03*
%TO.N,GND*%
X216566800Y-56326800D03*
%TD*%
D13*
%TO.N,Net-(D15-K)*%
%TO.C,R13*%
X374620000Y-86380000D03*
%TO.N,GND*%
X374620000Y-94000000D03*
%TD*%
D14*
%TO.N,GND*%
%TO.C,U9*%
X298020000Y-113620000D03*
D15*
X300560000Y-113620000D03*
%TO.N,/ALU/B_3*%
X303100000Y-113620000D03*
%TO.N,/ALU/B_2*%
X305640000Y-113620000D03*
%TO.N,/ALU/B_1*%
X308180000Y-113620000D03*
%TO.N,/ALU/B_0*%
X310720000Y-113620000D03*
%TO.N,CLK*%
X313260000Y-113620000D03*
%TO.N,GND*%
X315800000Y-113620000D03*
%TO.N,~{BI}*%
X315800000Y-106000000D03*
X313260000Y-106000000D03*
%TO.N,BUS_0*%
X310720000Y-106000000D03*
%TO.N,BUS_1*%
X308180000Y-106000000D03*
%TO.N,BUS_2*%
X305640000Y-106000000D03*
%TO.N,BUS_3*%
X303100000Y-106000000D03*
%TO.N,CLR*%
X300560000Y-106000000D03*
%TO.N,VCC*%
X298020000Y-106000000D03*
%TD*%
D10*
%TO.N,VCC*%
%TO.C,C61*%
X246500000Y-144380000D03*
%TO.N,GND*%
X246500000Y-142380000D03*
%TD*%
D11*
%TO.N,Net-(D13-K)*%
%TO.C,D13*%
X369060000Y-83920000D03*
D12*
%TO.N,Net-(D13-A)*%
X369060000Y-81380000D03*
%TD*%
D13*
%TO.N,BUS_4*%
%TO.C,R76*%
X325190000Y-181000000D03*
%TO.N,GND*%
X332810000Y-181000000D03*
%TD*%
D16*
%TO.N,VCC*%
%TO.C,U7*%
X241760000Y-114120000D03*
D17*
%TO.N,/ALU/B_4*%
X244300000Y-114120000D03*
%TO.N,/ALU/B_5*%
X246840000Y-114120000D03*
%TO.N,/ALU/B_6*%
X249380000Y-114120000D03*
%TO.N,/ALU/B_7*%
X251920000Y-114120000D03*
%TO.N,/ALU/B_0*%
X254460000Y-114120000D03*
%TO.N,/ALU/B_1*%
X257000000Y-114120000D03*
%TO.N,/ALU/B_2*%
X259540000Y-114120000D03*
%TO.N,/ALU/B_3*%
X262080000Y-114120000D03*
%TO.N,GND*%
X264620000Y-114120000D03*
%TO.N,BUS_0*%
X264620000Y-106500000D03*
%TO.N,BUS_1*%
X262080000Y-106500000D03*
%TO.N,BUS_2*%
X259540000Y-106500000D03*
%TO.N,BUS_3*%
X257000000Y-106500000D03*
%TO.N,BUS_4*%
X254460000Y-106500000D03*
%TO.N,BUS_5*%
X251920000Y-106500000D03*
%TO.N,BUS_6*%
X249380000Y-106500000D03*
%TO.N,BUS_7*%
X246840000Y-106500000D03*
%TO.N,VCC*%
X244300000Y-106500000D03*
X241760000Y-106500000D03*
%TD*%
D11*
%TO.N,Net-(D9-K)*%
%TO.C,D9*%
X311500000Y-83540000D03*
D12*
%TO.N,/ALU/A_0*%
X311500000Y-81000000D03*
%TD*%
D11*
%TO.N,Net-(D46-K)*%
%TO.C,D46*%
X186970000Y-162000000D03*
D12*
%TO.N,Net-(D46-A)*%
X189510000Y-162000000D03*
%TD*%
D13*
%TO.N,Net-(D117-K)*%
%TO.C,R88*%
X121960000Y-157500000D03*
%TO.N,GND*%
X121960000Y-165120000D03*
%TD*%
D11*
%TO.N,Net-(D52-K)*%
%TO.C,D52*%
X216970000Y-162000000D03*
D12*
%TO.N,Net-(D52-A)*%
X219510000Y-162000000D03*
%TD*%
D13*
%TO.N,Net-(J1-CC1)*%
%TO.C,R82*%
X254000000Y-196500000D03*
%TO.N,GND*%
X254000000Y-188880000D03*
%TD*%
%TO.N,BUS_1*%
%TO.C,R79*%
X311190000Y-178500000D03*
%TO.N,GND*%
X318810000Y-178500000D03*
%TD*%
D10*
%TO.N,VCC*%
%TO.C,C58*%
X232500000Y-140000000D03*
%TO.N,GND*%
X232500000Y-138000000D03*
%TD*%
%TO.N,VCC*%
%TO.C,C43*%
X276760000Y-103120000D03*
%TO.N,GND*%
X276760000Y-101120000D03*
%TD*%
D13*
%TO.N,Net-(D45-K)*%
%TO.C,R47*%
X182000000Y-167000000D03*
%TO.N,GND*%
X182000000Y-174620000D03*
%TD*%
%TO.N,Net-(D4-K)*%
%TO.C,R101*%
X289000000Y-86000000D03*
%TO.N,GND*%
X289000000Y-93620000D03*
%TD*%
D11*
%TO.N,Net-(D32-K)*%
%TO.C,D32*%
X113000000Y-116540000D03*
D12*
%TO.N,Net-(D32-A)*%
X113000000Y-114000000D03*
%TD*%
D11*
%TO.N,Net-(D58-K)*%
%TO.C,D58*%
X162740000Y-143500000D03*
D12*
%TO.N,Net-(D58-A)*%
X160200000Y-143500000D03*
%TD*%
D13*
%TO.N,Net-(D22-K)*%
%TO.C,R22*%
X53400000Y-70620000D03*
%TO.N,GND*%
X53400000Y-78240000D03*
%TD*%
D11*
%TO.N,/MAR/PROG*%
%TO.C,D24*%
X27500000Y-56620000D03*
D12*
%TO.N,Net-(D24-A)*%
X27500000Y-54080000D03*
%TD*%
D13*
%TO.N,Net-(D46-K)*%
%TO.C,R48*%
X187000000Y-167000000D03*
%TO.N,GND*%
X187000000Y-174620000D03*
%TD*%
D11*
%TO.N,Net-(D027-K)*%
%TO.C,D027*%
X303260000Y-119700000D03*
D12*
%TO.N,/ALU/B_2*%
X303260000Y-117160000D03*
%TD*%
D11*
%TO.N,Net-(D20-K)*%
%TO.C,D20*%
X64500000Y-66620000D03*
D12*
%TO.N,/MAR/A3*%
X64500000Y-64080000D03*
%TD*%
D11*
%TO.N,Net-(D8-K)*%
%TO.C,D8*%
X307000000Y-83540000D03*
D12*
%TO.N,/ALU/A_1*%
X307000000Y-81000000D03*
%TD*%
D13*
%TO.N,Net-(D7-K)*%
%TO.C,R104*%
X302500000Y-86000000D03*
%TO.N,GND*%
X302500000Y-93620000D03*
%TD*%
D10*
%TO.N,VCC*%
%TO.C,C8*%
X251500000Y-95000000D03*
%TO.N,GND*%
X253500000Y-95000000D03*
%TD*%
D23*
%TO.N,*%
%TO.C,RV1*%
X27275000Y-29200000D03*
X27275000Y-38800000D03*
D11*
%TO.N,Net-(U1-THR)*%
X19775000Y-31500000D03*
D12*
%TO.N,Net-(R2-Pad2)*%
X19775000Y-34000000D03*
%TO.N,unconnected-(RV1-Pad3)*%
X19775000Y-36500000D03*
%TD*%
D22*
%TO.N,GND*%
%TO.C,U31*%
X224880000Y-143380000D03*
D13*
%TO.N,Net-(U31-THR)*%
X224880000Y-145920000D03*
%TO.N,Net-(U31-Q)*%
X224880000Y-148460000D03*
%TO.N,unconnected-(U31-R-Pad4)*%
X224880000Y-151000000D03*
%TO.N,Net-(U31-CV)*%
X232500000Y-151000000D03*
%TO.N,Net-(U31-THR)*%
X232500000Y-148460000D03*
%TO.N,Net-(U31-DIS)*%
X232500000Y-145920000D03*
%TO.N,VCC*%
X232500000Y-143380000D03*
%TD*%
D10*
%TO.N,VCC*%
%TO.C,C37*%
X91000000Y-63000000D03*
%TO.N,GND*%
X91000000Y-61000000D03*
%TD*%
%TO.N,VCC*%
%TO.C,C49*%
X347730000Y-76190000D03*
%TO.N,GND*%
X349730000Y-76190000D03*
%TD*%
D13*
%TO.N,VCC*%
%TO.C,R3*%
X64000000Y-48310000D03*
%TO.N,Net-(U2-TR)*%
X64000000Y-40690000D03*
%TD*%
D11*
%TO.N,Net-(D118-K)*%
%TO.C,D118*%
X128960000Y-154160000D03*
D12*
%TO.N,Net-(D118-A)*%
X128960000Y-151620000D03*
%TD*%
D13*
%TO.N,Net-(D60-K)*%
%TO.C,R62*%
X184930000Y-137500000D03*
%TO.N,GND*%
X192550000Y-137500000D03*
%TD*%
D11*
%TO.N,Net-(D022-K)*%
%TO.C,D022*%
X280760000Y-119660000D03*
D12*
%TO.N,/ALU/B_7*%
X280760000Y-117120000D03*
%TD*%
D16*
%TO.N,VCC*%
%TO.C,U117*%
X55960000Y-144240000D03*
D17*
%TO.N,IR_4*%
X58500000Y-144240000D03*
%TO.N,IR_5*%
X61040000Y-144240000D03*
%TO.N,IR_6*%
X63580000Y-144240000D03*
%TO.N,IR_7*%
X66120000Y-144240000D03*
%TO.N,Net-(D119-A)*%
X68660000Y-144240000D03*
%TO.N,Net-(D118-A)*%
X71200000Y-144240000D03*
%TO.N,Net-(D117-A)*%
X73740000Y-144240000D03*
%TO.N,Net-(D116-A)*%
X76280000Y-144240000D03*
%TO.N,GND*%
X78820000Y-144240000D03*
%TO.N,BUS_0*%
X78820000Y-136620000D03*
%TO.N,BUS_1*%
X76280000Y-136620000D03*
%TO.N,BUS_2*%
X73740000Y-136620000D03*
%TO.N,BUS_3*%
X71200000Y-136620000D03*
%TO.N,BUS_4*%
X68660000Y-136620000D03*
%TO.N,BUS_5*%
X66120000Y-136620000D03*
%TO.N,BUS_6*%
X63580000Y-136620000D03*
%TO.N,BUS_7*%
X61040000Y-136620000D03*
%TO.N,~{IO}*%
X58500000Y-136620000D03*
%TO.N,VCC*%
X55960000Y-136620000D03*
%TD*%
D13*
%TO.N,Net-(D1-K)*%
%TO.C,R7*%
X148000000Y-49190000D03*
%TO.N,GND*%
X148000000Y-56810000D03*
%TD*%
D10*
%TO.N,Net-(U31-THR)*%
%TO.C,C16*%
X236000000Y-148000000D03*
%TO.N,GND*%
X238000000Y-148000000D03*
%TD*%
D13*
%TO.N,GND*%
%TO.C,R35*%
X261496800Y-50626800D03*
%TO.N,Net-(D36-K)*%
X253876800Y-50626800D03*
%TD*%
D11*
%TO.N,Net-(D41-K)*%
%TO.C,D41*%
X161970000Y-162000000D03*
D12*
%TO.N,Net-(D41-A)*%
X164510000Y-162000000D03*
%TD*%
D13*
%TO.N,Net-(D114-K)*%
%TO.C,R85*%
X100960000Y-157620000D03*
%TO.N,GND*%
X100960000Y-165240000D03*
%TD*%
D11*
%TO.N,Net-(D62-K)*%
%TO.C,D62*%
X303270000Y-188500000D03*
D12*
%TO.N,BUS_0*%
X305810000Y-188500000D03*
%TD*%
D11*
%TO.N,Net-(D025-K)*%
%TO.C,D025*%
X294260000Y-119700000D03*
D12*
%TO.N,/ALU/B_4*%
X294260000Y-117160000D03*
%TD*%
D10*
%TO.N,CLK*%
%TO.C,C14*%
X89500000Y-78500000D03*
%TO.N,Net-(C14-Pad2)*%
X89500000Y-76500000D03*
%TD*%
D14*
%TO.N,OI*%
%TO.C,U39*%
X240380000Y-160960000D03*
D15*
%TO.N,CLK*%
X240380000Y-163500000D03*
%TO.N,Net-(U38-Cp)*%
X240380000Y-166040000D03*
%TO.N,unconnected-(U39-Pad4)*%
X240380000Y-168580000D03*
%TO.N,unconnected-(U39-Pad5)*%
X240380000Y-171120000D03*
%TO.N,unconnected-(U39-Pad6)*%
X240380000Y-173660000D03*
%TO.N,GND*%
X240380000Y-176200000D03*
%TO.N,unconnected-(U39-Pad8)*%
X248000000Y-176200000D03*
%TO.N,unconnected-(U39-Pad9)*%
X248000000Y-173660000D03*
%TO.N,unconnected-(U39-Pad10)*%
X248000000Y-171120000D03*
%TO.N,unconnected-(U39-Pad11)*%
X248000000Y-168580000D03*
%TO.N,unconnected-(U39-Pad12)*%
X248000000Y-166040000D03*
%TO.N,unconnected-(U39-Pad13)*%
X248000000Y-163500000D03*
%TO.N,VCC*%
X248000000Y-160960000D03*
%TD*%
D11*
%TO.N,Net-(D18-K)*%
%TO.C,D18*%
X390970000Y-83896800D03*
D12*
%TO.N,Net-(D18-A)*%
X390970000Y-81356800D03*
%TD*%
D19*
%TO.N,Net-(U34-E)*%
%TO.C,U36*%
X341330000Y-172240000D03*
D13*
%TO.N,Net-(U34-D)*%
X343870000Y-172240000D03*
%TO.N,Net-(U33A-O2)*%
X346410000Y-172240000D03*
%TO.N,Net-(U34-C)*%
X348950000Y-172240000D03*
%TO.N,Net-(U34-DP)*%
X351490000Y-172240000D03*
%TO.N,Net-(U34-B)*%
X351490000Y-157000000D03*
%TO.N,Net-(U34-A)*%
X348950000Y-157000000D03*
%TO.N,Net-(U33A-O2)*%
X346410000Y-157000000D03*
%TO.N,Net-(U34-F)*%
X343870000Y-157000000D03*
%TO.N,Net-(U34-G)*%
X341330000Y-157000000D03*
%TD*%
D10*
%TO.N,VCC*%
%TO.C,C29*%
X383230000Y-99990000D03*
%TO.N,GND*%
X383230000Y-97990000D03*
%TD*%
D13*
%TO.N,GND*%
%TO.C,C2*%
X80000000Y-34500000D03*
%TO.N,Net-(U2-CV)*%
X77500000Y-34500000D03*
%TD*%
%TO.N,Net-(R64-Pad1)*%
%TO.C,R64*%
X103500000Y-62500000D03*
%TO.N,GND*%
X103500000Y-54880000D03*
%TD*%
D10*
%TO.N,GND*%
%TO.C,C33*%
X153000000Y-41500000D03*
%TO.N,VCC*%
X153000000Y-39500000D03*
%TD*%
D11*
%TO.N,Net-(D11-K)*%
%TO.C,D11*%
X358120000Y-83920000D03*
D12*
%TO.N,Net-(D11-A)*%
X358120000Y-81380000D03*
%TD*%
D11*
%TO.N,Net-(D17-K)*%
%TO.C,D17*%
X385500000Y-83896800D03*
D12*
%TO.N,Net-(D17-A)*%
X385500000Y-81356800D03*
%TD*%
D13*
%TO.N,GND*%
%TO.C,C3*%
X80000000Y-29000000D03*
%TO.N,Net-(U2-DIS)*%
X77500000Y-29000000D03*
%TD*%
D10*
%TO.N,VCC*%
%TO.C,C32*%
X129500000Y-39500000D03*
%TO.N,GND*%
X129500000Y-41500000D03*
%TD*%
D13*
%TO.N,Net-(D43-K)*%
%TO.C,R45*%
X172000000Y-167000000D03*
%TO.N,GND*%
X172000000Y-174620000D03*
%TD*%
D11*
%TO.N,Net-(D27-K)*%
%TO.C,D27*%
X90500000Y-116540000D03*
D12*
%TO.N,Net-(D27-A)*%
X90500000Y-114000000D03*
%TD*%
D13*
%TO.N,GND*%
%TO.C,R10*%
X412230000Y-98810000D03*
%TO.N,Net-(D10-K)*%
X412230000Y-91190000D03*
%TD*%
D10*
%TO.N,VCC*%
%TO.C,C20*%
X187500000Y-75000000D03*
%TO.N,GND*%
X189500000Y-75000000D03*
%TD*%
D21*
%TO.N,/MAR/A0*%
%TO.C,U23*%
X116460000Y-103620000D03*
D13*
%TO.N,GND*%
X119000000Y-103620000D03*
%TO.N,Net-(U21-\u002AWE)*%
X121540000Y-103620000D03*
%TO.N,Net-(U23-D0)*%
X124080000Y-103620000D03*
%TO.N,Net-(U23-\u002AO0)*%
X126620000Y-103620000D03*
%TO.N,Net-(U23-D1)*%
X129160000Y-103620000D03*
%TO.N,Net-(U23-\u002AO1)*%
X131700000Y-103620000D03*
%TO.N,GND*%
X134240000Y-103620000D03*
%TO.N,Net-(U23-\u002AO2)*%
X134240000Y-96000000D03*
%TO.N,Net-(U23-D2)*%
X131700000Y-96000000D03*
%TO.N,Net-(U23-\u002AO3)*%
X129160000Y-96000000D03*
%TO.N,Net-(U23-D3)*%
X126620000Y-96000000D03*
%TO.N,/MAR/A3*%
X124080000Y-96000000D03*
%TO.N,/MAR/A2*%
X121540000Y-96000000D03*
%TO.N,/MAR/A1*%
X119000000Y-96000000D03*
%TO.N,VCC*%
X116460000Y-96000000D03*
%TD*%
%TO.N,Net-(D5-K)*%
%TO.C,R102*%
X293500000Y-86000000D03*
%TO.N,GND*%
X293500000Y-93620000D03*
%TD*%
D21*
%TO.N,Net-(U51-Zc)*%
%TO.C,U20*%
X67920000Y-90500000D03*
D13*
%TO.N,Net-(U21-\u002AWE)*%
X70460000Y-90500000D03*
%TO.N,Net-(U24-Zb)*%
X73000000Y-90500000D03*
%TO.N,Net-(U23-D3)*%
X75540000Y-90500000D03*
%TO.N,Net-(U24-Za)*%
X78080000Y-90500000D03*
%TO.N,Net-(U23-D2)*%
X80620000Y-90500000D03*
%TO.N,GND*%
X83160000Y-90500000D03*
%TO.N,Net-(U21-D3)*%
X83160000Y-82880000D03*
%TO.N,Net-(U52-Zd)*%
X80620000Y-82880000D03*
%TO.N,N/C*%
X78080000Y-82880000D03*
X75540000Y-82880000D03*
%TO.N,Net-(U23-D0)*%
X73000000Y-82880000D03*
%TO.N,Net-(U24-Zd)*%
X70460000Y-82880000D03*
%TO.N,VCC*%
X67920000Y-82880000D03*
%TD*%
D24*
%TO.N,GND*%
%TO.C,J1*%
X252680000Y-201370000D03*
X261320000Y-201370000D03*
D25*
%TO.N,Net-(J1-CC1)*%
X256400000Y-201630000D03*
%TO.N,VCC*%
X255200000Y-201630000D03*
%TO.N,GND*%
X254000000Y-201630000D03*
%TO.N,Net-(J1-CC2)*%
X257600000Y-201630000D03*
%TO.N,VCC*%
X258800000Y-201630000D03*
%TO.N,GND*%
X260000000Y-201630000D03*
%TD*%
D13*
%TO.N,Net-(C14-Pad2)*%
%TO.C,R32*%
X94000000Y-77000000D03*
%TO.N,GND*%
X101620000Y-77000000D03*
%TD*%
D11*
%TO.N,Net-(D69-K)*%
%TO.C,D69*%
X338270000Y-188500000D03*
D12*
%TO.N,BUS_7*%
X340810000Y-188500000D03*
%TD*%
D13*
%TO.N,Net-(D52-K)*%
%TO.C,R54*%
X217000000Y-166690000D03*
%TO.N,GND*%
X217000000Y-174310000D03*
%TD*%
D11*
%TO.N,Net-(D49-K)*%
%TO.C,D49*%
X201970000Y-162000000D03*
D12*
%TO.N,OI*%
X204510000Y-162000000D03*
%TD*%
D20*
%TO.N,GND*%
%TO.C,SW1*%
X54500000Y-32500000D03*
X61000000Y-32500000D03*
%TO.N,Net-(U2-TR)*%
X54500000Y-37000000D03*
X61000000Y-37000000D03*
%TD*%
D11*
%TO.N,Net-(D119-K)*%
%TO.C,D119*%
X135960000Y-154160000D03*
D12*
%TO.N,Net-(D119-A)*%
X135960000Y-151620000D03*
%TD*%
D21*
%TO.N,Net-(U52-Za)*%
%TO.C,U22*%
X90420000Y-90000000D03*
D13*
%TO.N,Net-(U21-D0)*%
X92960000Y-90000000D03*
%TO.N,unconnected-(U22-Pad3)*%
X95500000Y-90000000D03*
%TO.N,unconnected-(U22-Pad4)*%
X98040000Y-90000000D03*
%TO.N,unconnected-(U22-Pad5)*%
X100580000Y-90000000D03*
%TO.N,unconnected-(U22-Pad6)*%
X103120000Y-90000000D03*
%TO.N,GND*%
X105660000Y-90000000D03*
%TO.N,unconnected-(U22-Pad8)*%
X105660000Y-82380000D03*
%TO.N,unconnected-(U22-Pad9)*%
X103120000Y-82380000D03*
%TO.N,Net-(U23-D1)*%
X100580000Y-82380000D03*
%TO.N,Net-(U24-Zc)*%
X98040000Y-82380000D03*
%TO.N,unconnected-(U22-Pad12)*%
X95500000Y-82380000D03*
%TO.N,unconnected-(U22-Pad13)*%
X92960000Y-82380000D03*
%TO.N,VCC*%
X90420000Y-82380000D03*
%TD*%
D14*
%TO.N,/MAR/PROG*%
%TO.C,U18*%
X66740000Y-50620000D03*
D15*
%TO.N,Net-(U18-I0a)*%
X64200000Y-50620000D03*
%TO.N,Net-(U18-I1a)*%
X61660000Y-50620000D03*
%TO.N,/MAR/A3*%
X59120000Y-50620000D03*
%TO.N,Net-(U18-I0b)*%
X56580000Y-50620000D03*
%TO.N,Net-(U18-I1b)*%
X54040000Y-50620000D03*
%TO.N,/MAR/A2*%
X51500000Y-50620000D03*
%TO.N,GND*%
X48960000Y-50620000D03*
%TO.N,/MAR/A1*%
X48960000Y-58240000D03*
%TO.N,Net-(U18-I1c)*%
X51500000Y-58240000D03*
%TO.N,Net-(U18-I0c)*%
X54040000Y-58240000D03*
%TO.N,/MAR/A0*%
X56580000Y-58240000D03*
%TO.N,Net-(U18-I1d)*%
X59120000Y-58240000D03*
%TO.N,Net-(U18-I0d)*%
X61660000Y-58240000D03*
%TO.N,GND*%
X64200000Y-58240000D03*
%TO.N,VCC*%
X66740000Y-58240000D03*
%TD*%
D11*
%TO.N,Net-(D50-K)*%
%TO.C,D50*%
X206970000Y-162000000D03*
D12*
%TO.N,CE*%
X209510000Y-162000000D03*
%TD*%
D10*
%TO.N,VCC*%
%TO.C,C24*%
X66000000Y-27000000D03*
%TO.N,GND*%
X66000000Y-25000000D03*
%TD*%
%TO.N,VCC*%
%TO.C,C42*%
X64000000Y-83000000D03*
%TO.N,GND*%
X62000000Y-83000000D03*
%TD*%
%TO.N,GND*%
%TO.C,C28*%
X35500000Y-37000000D03*
%TO.N,VCC*%
X35500000Y-35000000D03*
%TD*%
%TO.N,VCC*%
%TO.C,C13*%
X76000000Y-68000000D03*
%TO.N,GND*%
X78000000Y-68000000D03*
%TD*%
%TO.N,VCC*%
%TO.C,C68*%
X214500000Y-120500000D03*
%TO.N,GND*%
X216500000Y-120500000D03*
%TD*%
D13*
%TO.N,Net-(D13-K)*%
%TO.C,R12*%
X369120000Y-86380000D03*
%TO.N,GND*%
X369120000Y-94000000D03*
%TD*%
D10*
%TO.N,VCC*%
%TO.C,C51*%
X81500000Y-76000000D03*
%TO.N,GND*%
X83500000Y-76000000D03*
%TD*%
D11*
%TO.N,Net-(D1-K)*%
%TO.C,D1*%
X148000000Y-45000000D03*
D12*
%TO.N,CLK*%
X148000000Y-42460000D03*
%TD*%
D13*
%TO.N,Net-(D57-A)*%
%TO.C,R57*%
X157740000Y-139000000D03*
%TO.N,VCC*%
X150120000Y-139000000D03*
%TD*%
%TO.N,VCC*%
%TO.C,R37*%
X242294900Y-143041000D03*
%TO.N,Net-(U31-DIS)*%
X234674900Y-143041000D03*
%TD*%
%TO.N,Net-(D025-K)*%
%TO.C,R94*%
X294260000Y-122120000D03*
%TO.N,GND*%
X294260000Y-129740000D03*
%TD*%
D11*
%TO.N,Net-(D19-K)*%
%TO.C,D19*%
X396440000Y-83896800D03*
D12*
%TO.N,Net-(D19-A)*%
X396440000Y-81356800D03*
%TD*%
D11*
%TO.N,Net-(D61-K)*%
%TO.C,D61*%
X182240000Y-132500000D03*
D12*
%TO.N,Net-(D61-A)*%
X179700000Y-132500000D03*
%TD*%
D13*
%TO.N,Net-(D26-K)*%
%TO.C,R24*%
X86000000Y-119190000D03*
%TO.N,GND*%
X86000000Y-126810000D03*
%TD*%
D10*
%TO.N,VCC*%
%TO.C,C48*%
X64500000Y-92000000D03*
%TO.N,GND*%
X62500000Y-92000000D03*
%TD*%
%TO.N,VCC*%
%TO.C,C75*%
X260000000Y-197000000D03*
%TO.N,GND*%
X262000000Y-197000000D03*
%TD*%
D11*
%TO.N,Net-(D34-K)*%
%TO.C,D34*%
X251186800Y-41626800D03*
D12*
%TO.N,Net-(D34-A)*%
X248646800Y-41626800D03*
%TD*%
D13*
%TO.N,Net-(D23-K)*%
%TO.C,R23*%
X48000000Y-70620000D03*
%TO.N,GND*%
X48000000Y-78240000D03*
%TD*%
D10*
%TO.N,VCC*%
%TO.C,C52*%
X347730000Y-102690000D03*
%TO.N,GND*%
X349730000Y-102690000D03*
%TD*%
D13*
%TO.N,Net-(D6-K)*%
%TO.C,R103*%
X298000000Y-86000000D03*
%TO.N,GND*%
X298000000Y-93620000D03*
%TD*%
D21*
%TO.N,/MAR/PROG*%
%TO.C,U52*%
X162560000Y-86435000D03*
D13*
%TO.N,Net-(U52-I0a)*%
X165100000Y-86435000D03*
%TO.N,BUS_7*%
X167640000Y-86435000D03*
%TO.N,Net-(U52-Za)*%
X170180000Y-86435000D03*
%TO.N,Net-(U52-I0b)*%
X172720000Y-86435000D03*
%TO.N,BUS_6*%
X175260000Y-86435000D03*
%TO.N,Net-(U52-Zb)*%
X177800000Y-86435000D03*
%TO.N,GND*%
X180340000Y-86435000D03*
%TO.N,Net-(U52-Zd)*%
X180340000Y-78815000D03*
%TO.N,BUS_4*%
X177800000Y-78815000D03*
%TO.N,Net-(U52-I0d)*%
X175260000Y-78815000D03*
%TO.N,Net-(U52-Zc)*%
X172720000Y-78815000D03*
%TO.N,BUS_5*%
X170180000Y-78815000D03*
%TO.N,Net-(U52-I0c)*%
X167640000Y-78815000D03*
%TO.N,GND*%
X165100000Y-78815000D03*
%TO.N,VCC*%
X162560000Y-78815000D03*
%TD*%
%TO.N,Net-(D68-K)*%
%TO.C,R71*%
X333310000Y-192690000D03*
%TO.N,GND*%
X333310000Y-200310000D03*
%TD*%
%TO.N,Net-(D54-A)*%
%TO.C,R60*%
X157740000Y-125500000D03*
%TO.N,VCC*%
X150120000Y-125500000D03*
%TD*%
D14*
%TO.N,Net-(U21-\u002AO0)*%
%TO.C,U27*%
X138100000Y-70120000D03*
D15*
%TO.N,Net-(D26-A)*%
X140640000Y-70120000D03*
%TO.N,Net-(U21-\u002AO1)*%
X143180000Y-70120000D03*
%TO.N,Net-(D27-A)*%
X145720000Y-70120000D03*
%TO.N,Net-(U21-\u002AO2)*%
X148260000Y-70120000D03*
%TO.N,Net-(D28-A)*%
X150800000Y-70120000D03*
%TO.N,GND*%
X153340000Y-70120000D03*
%TO.N,Net-(D29-A)*%
X153340000Y-62500000D03*
%TO.N,Net-(U21-\u002AO3)*%
X150800000Y-62500000D03*
%TO.N,Net-(D30-A)*%
X148260000Y-62500000D03*
%TO.N,Net-(U23-\u002AO3)*%
X145720000Y-62500000D03*
%TO.N,Net-(D31-A)*%
X143180000Y-62500000D03*
%TO.N,Net-(U23-\u002AO2)*%
X140640000Y-62500000D03*
%TO.N,VCC*%
X138100000Y-62500000D03*
%TD*%
D14*
%TO.N,Net-(C14-Pad2)*%
%TO.C,U26*%
X90880000Y-73310000D03*
D15*
%TO.N,RI*%
X93420000Y-73310000D03*
%TO.N,Net-(U51-I1c)*%
X95960000Y-73310000D03*
%TO.N,~{CLR}*%
X98500000Y-73310000D03*
%TO.N,Net-(U42-O5)*%
X101040000Y-73310000D03*
%TO.N,Net-(U26-Pad6)*%
X103580000Y-73310000D03*
%TO.N,GND*%
X106120000Y-73310000D03*
%TO.N,~{CLR}*%
X106120000Y-65690000D03*
%TO.N,Net-(R64-Pad1)*%
X103580000Y-65690000D03*
X101040000Y-65690000D03*
%TO.N,CLR*%
X98500000Y-65690000D03*
%TO.N,~{CLR}*%
X95960000Y-65690000D03*
X93420000Y-65690000D03*
%TO.N,VCC*%
X90880000Y-65690000D03*
%TD*%
D11*
%TO.N,Net-(D68-K)*%
%TO.C,D68*%
X333270000Y-188500000D03*
D12*
%TO.N,BUS_6*%
X335810000Y-188500000D03*
%TD*%
D13*
%TO.N,Net-(D49-K)*%
%TO.C,R51*%
X202000000Y-167000000D03*
%TO.N,GND*%
X202000000Y-174620000D03*
%TD*%
%TO.N,Net-(D20-K)*%
%TO.C,R20*%
X64500000Y-70310000D03*
%TO.N,GND*%
X64500000Y-77930000D03*
%TD*%
%TO.N,BUS_6*%
%TO.C,R74*%
X336190000Y-181000000D03*
%TO.N,GND*%
X343810000Y-181000000D03*
%TD*%
D21*
%TO.N,GND*%
%TO.C,U2*%
X66190000Y-37805000D03*
D13*
%TO.N,Net-(U2-TR)*%
X68730000Y-37805000D03*
%TO.N,Net-(U2-Q)*%
X71270000Y-37805000D03*
%TO.N,VCC*%
X73810000Y-37805000D03*
%TO.N,Net-(U2-CV)*%
X73810000Y-30185000D03*
%TO.N,Net-(U2-DIS)*%
X71270000Y-30185000D03*
X68730000Y-30185000D03*
%TO.N,VCC*%
X66190000Y-30185000D03*
%TD*%
D11*
%TO.N,Net-(D029-K)*%
%TO.C,D029*%
X312212400Y-119693700D03*
D12*
%TO.N,/ALU/B_0*%
X312212400Y-117153700D03*
%TD*%
D13*
%TO.N,Net-(D38-K)*%
%TO.C,R40*%
X147000000Y-167000000D03*
%TO.N,GND*%
X147000000Y-174620000D03*
%TD*%
%TO.N,Net-(D31-K)*%
%TO.C,R29*%
X108500000Y-119000000D03*
%TO.N,GND*%
X108500000Y-126620000D03*
%TD*%
D18*
%TO.N,Net-(SW2-A)*%
%TO.C,SW2*%
X90000000Y-32040000D03*
D13*
%TO.N,GND*%
X90000000Y-29500000D03*
%TO.N,Net-(SW2-C)*%
X90000000Y-34580000D03*
%TD*%
D26*
%TO.N,Net-(U3-Q)*%
%TO.C,U5*%
X150540000Y-28880000D03*
D13*
%TO.N,Net-(U4-Pad4)*%
X148000000Y-28880000D03*
%TO.N,Net-(U52-Zb)*%
X145460000Y-28880000D03*
%TO.N,Net-(U21-D1)*%
X142920000Y-28880000D03*
%TO.N,Net-(U52-Zc)*%
X140380000Y-28880000D03*
%TO.N,Net-(U21-D2)*%
X137840000Y-28880000D03*
%TO.N,GND*%
X135300000Y-28880000D03*
%TO.N,Net-(U4-Pad10)*%
X135300000Y-36500000D03*
%TO.N,HLT*%
X137840000Y-36500000D03*
%TO.N,N/C*%
X140380000Y-36500000D03*
X142920000Y-36500000D03*
%TO.N,~{CLK}*%
X145460000Y-36500000D03*
%TO.N,CLK*%
X148000000Y-36500000D03*
%TO.N,VCC*%
X150540000Y-36500000D03*
%TD*%
D10*
%TO.N,VCC*%
%TO.C,C118*%
X127000000Y-132500000D03*
%TO.N,GND*%
X127000000Y-130500000D03*
%TD*%
D13*
%TO.N,Net-(D67-K)*%
%TO.C,R70*%
X328310000Y-192690000D03*
%TO.N,GND*%
X328310000Y-200310000D03*
%TD*%
D10*
%TO.N,VCC*%
%TO.C,C10*%
X394730000Y-111690000D03*
%TO.N,GND*%
X396730000Y-111690000D03*
%TD*%
D11*
%TO.N,Net-(D28-K)*%
%TO.C,D28*%
X95000000Y-116540000D03*
D12*
%TO.N,Net-(D28-A)*%
X95000000Y-114000000D03*
%TD*%
D16*
%TO.N,VCC*%
%TO.C,U17*%
X369300000Y-77500000D03*
D17*
%TO.N,Net-(D11-A)*%
X371840000Y-77500000D03*
%TO.N,Net-(D12-A)*%
X374380000Y-77500000D03*
%TO.N,Net-(D13-A)*%
X376920000Y-77500000D03*
%TO.N,Net-(D15-A)*%
X379460000Y-77500000D03*
%TO.N,Net-(D16-A)*%
X382000000Y-77500000D03*
%TO.N,Net-(D17-A)*%
X384540000Y-77500000D03*
%TO.N,Net-(D18-A)*%
X387080000Y-77500000D03*
%TO.N,Net-(D19-A)*%
X389620000Y-77500000D03*
%TO.N,GND*%
X392160000Y-77500000D03*
%TO.N,BUS_0*%
X392160000Y-69880000D03*
%TO.N,BUS_1*%
X389620000Y-69880000D03*
%TO.N,BUS_2*%
X387080000Y-69880000D03*
%TO.N,BUS_3*%
X384540000Y-69880000D03*
%TO.N,BUS_4*%
X382000000Y-69880000D03*
%TO.N,BUS_5*%
X379460000Y-69880000D03*
%TO.N,BUS_6*%
X376920000Y-69880000D03*
%TO.N,BUS_7*%
X374380000Y-69880000D03*
%TO.N,~{EO}*%
X371840000Y-69880000D03*
%TO.N,VCC*%
X369300000Y-69880000D03*
%TD*%
D11*
%TO.N,Net-(D56-K)*%
%TO.C,D56*%
X162740000Y-134500000D03*
D12*
%TO.N,Net-(D56-A)*%
X160200000Y-134500000D03*
%TD*%
D11*
%TO.N,Net-(D47-K)*%
%TO.C,D47*%
X191970000Y-162000000D03*
D12*
%TO.N,SU*%
X194510000Y-162000000D03*
%TD*%
D14*
%TO.N,/ALU/B_5*%
%TO.C,U15*%
X318730000Y-136450000D03*
D15*
%TO.N,SU*%
X318730000Y-138990000D03*
%TO.N,Net-(U13-B2)*%
X318730000Y-141530000D03*
%TO.N,/ALU/B_4*%
X318730000Y-144070000D03*
%TO.N,SU*%
X318730000Y-146610000D03*
%TO.N,Net-(U13-B1)*%
X318730000Y-149150000D03*
%TO.N,GND*%
X318730000Y-151690000D03*
%TO.N,Net-(U13-B4)*%
X326350000Y-151690000D03*
%TO.N,/ALU/B_7*%
X326350000Y-149150000D03*
%TO.N,SU*%
X326350000Y-146610000D03*
%TO.N,Net-(U13-B3)*%
X326350000Y-144070000D03*
%TO.N,/ALU/B_6*%
X326350000Y-141530000D03*
%TO.N,SU*%
X326350000Y-138990000D03*
%TO.N,VCC*%
X326350000Y-136450000D03*
%TD*%
D10*
%TO.N,VCC*%
%TO.C,C12*%
X76000000Y-74000000D03*
%TO.N,GND*%
X78000000Y-74000000D03*
%TD*%
D22*
%TO.N,/ALU/B_1*%
%TO.C,U16*%
X318610000Y-116950000D03*
D13*
%TO.N,SU*%
X318610000Y-119490000D03*
%TO.N,Net-(U14-B3)*%
X318610000Y-122030000D03*
%TO.N,/ALU/B_0*%
X318610000Y-124570000D03*
%TO.N,SU*%
X318610000Y-127110000D03*
%TO.N,Net-(U14-B1)*%
X318610000Y-129650000D03*
%TO.N,GND*%
X318610000Y-132190000D03*
%TO.N,Net-(U14-B4)*%
X326230000Y-132190000D03*
%TO.N,/ALU/B_3*%
X326230000Y-129650000D03*
%TO.N,SU*%
X326230000Y-127110000D03*
%TO.N,Net-(U14-B2)*%
X326230000Y-124570000D03*
%TO.N,/ALU/B_2*%
X326230000Y-122030000D03*
%TO.N,SU*%
X326230000Y-119490000D03*
%TO.N,VCC*%
X326230000Y-116950000D03*
%TD*%
D10*
%TO.N,Net-(U31-CV)*%
%TO.C,C17*%
X236000000Y-153500000D03*
%TO.N,GND*%
X238000000Y-153500000D03*
%TD*%
D13*
%TO.N,Net-(D66-K)*%
%TO.C,R69*%
X323310000Y-192880000D03*
%TO.N,GND*%
X323310000Y-200500000D03*
%TD*%
D22*
%TO.N,Net-(U10-Pad1)*%
%TO.C,U10*%
X375730000Y-103650000D03*
D13*
%TO.N,Net-(U10-Pad2)*%
X375730000Y-106190000D03*
%TO.N,Net-(U10-Pad3)*%
X375730000Y-108730000D03*
%TO.N,Net-(U10-Pad4)*%
X375730000Y-111270000D03*
%TO.N,Net-(U10-Pad3)*%
X375730000Y-113810000D03*
%TO.N,Net-(U12-D1)*%
X375730000Y-116350000D03*
%TO.N,GND*%
X375730000Y-118890000D03*
%TO.N,Net-(U10-Pad4)*%
X383350000Y-118890000D03*
%TO.N,Net-(U10-Pad9)*%
X383350000Y-116350000D03*
%TO.N,Net-(U10-Pad10)*%
X383350000Y-113810000D03*
%TO.N,unconnected-(U10-Pad11)*%
X383350000Y-111270000D03*
%TO.N,unconnected-(U10-Pad12)*%
X383350000Y-108730000D03*
%TO.N,unconnected-(U10-Pad13)*%
X383350000Y-106190000D03*
%TO.N,VCC*%
X383350000Y-103650000D03*
%TD*%
%TO.N,Net-(D14-K)*%
%TO.C,R8*%
X407730000Y-91380000D03*
%TO.N,GND*%
X407730000Y-99000000D03*
%TD*%
D11*
%TO.N,Net-(D44-K)*%
%TO.C,D44*%
X176970000Y-162000000D03*
D12*
%TO.N,Net-(D44-A)*%
X179510000Y-162000000D03*
%TD*%
D13*
%TO.N,Net-(D64-K)*%
%TO.C,R67*%
X313310000Y-192690000D03*
%TO.N,GND*%
X313310000Y-200310000D03*
%TD*%
D11*
%TO.N,Net-(D60-K)*%
%TO.C,D60*%
X182240000Y-137500000D03*
D12*
%TO.N,Net-(D60-A)*%
X179700000Y-137500000D03*
%TD*%
D13*
%TO.N,GND*%
%TO.C,R33*%
X261306800Y-41626800D03*
%TO.N,Net-(D34-K)*%
X253686800Y-41626800D03*
%TD*%
D11*
%TO.N,Net-(D10-K)*%
%TO.C,D10*%
X412230000Y-88976900D03*
D12*
%TO.N,ZF*%
X412230000Y-86436900D03*
%TD*%
D11*
%TO.N,Net-(D14-K)*%
%TO.C,D14*%
X407753700Y-88960000D03*
D12*
%TO.N,CF*%
X407753700Y-86420000D03*
%TD*%
D14*
%TO.N,Net-(U26-Pad6)*%
%TO.C,U45*%
X168620000Y-103000000D03*
D15*
X168620000Y-105540000D03*
%TO.N,Net-(U41-~{MR})*%
X168620000Y-108080000D03*
%TO.N,N/C*%
X168620000Y-110620000D03*
X168620000Y-113160000D03*
X168620000Y-115700000D03*
%TO.N,GND*%
X168620000Y-118240000D03*
%TO.N,N/C*%
X176240000Y-118240000D03*
X176240000Y-115700000D03*
X176240000Y-113160000D03*
X176240000Y-110620000D03*
X176240000Y-108080000D03*
X176240000Y-105540000D03*
%TO.N,VCC*%
X176240000Y-103000000D03*
%TD*%
D13*
%TO.N,BUS_3*%
%TO.C,R77*%
X320690000Y-184500000D03*
%TO.N,GND*%
X328310000Y-184500000D03*
%TD*%
D14*
%TO.N,Net-(D39-A)*%
%TO.C,U46*%
X213620000Y-90460000D03*
D15*
%TO.N,~{MI}*%
X213620000Y-93000000D03*
%TO.N,Net-(D41-A)*%
X213620000Y-95540000D03*
%TO.N,~{RO}*%
X213620000Y-98080000D03*
%TO.N,Net-(D53-A)*%
X213620000Y-100620000D03*
%TO.N,~{FI}*%
X213620000Y-103160000D03*
%TO.N,GND*%
X213620000Y-105700000D03*
%TO.N,unconnected-(U46-Pad8)*%
X221240000Y-105700000D03*
%TO.N,unconnected-(U46-Pad9)*%
X221240000Y-103160000D03*
%TO.N,~{J}*%
X221240000Y-100620000D03*
%TO.N,Net-(D52-A)*%
X221240000Y-98080000D03*
%TO.N,~{CO}*%
X221240000Y-95540000D03*
%TO.N,Net-(D51-A)*%
X221240000Y-93000000D03*
%TO.N,VCC*%
X221240000Y-90460000D03*
%TD*%
D11*
%TO.N,Net-(D5-K)*%
%TO.C,D5*%
X293500000Y-83540000D03*
D12*
%TO.N,/ALU/A_4*%
X293500000Y-81000000D03*
%TD*%
D13*
%TO.N,Net-(U1-DIS)*%
%TO.C,R2*%
X44430000Y-31500000D03*
%TO.N,Net-(R2-Pad2)*%
X36810000Y-31500000D03*
%TD*%
D21*
%TO.N,GND*%
%TO.C,U33*%
X245420000Y-155000000D03*
D13*
%TO.N,Net-(U32A-~{Q})*%
X247960000Y-155000000D03*
%TO.N,Net-(U32B-~{Q})*%
X250500000Y-155000000D03*
%TO.N,Net-(U33A-O0)*%
X253040000Y-155000000D03*
%TO.N,Net-(U33A-O1)*%
X255580000Y-155000000D03*
%TO.N,Net-(U33A-O2)*%
X258120000Y-155000000D03*
%TO.N,Net-(U33A-O3)*%
X260660000Y-155000000D03*
%TO.N,GND*%
X263200000Y-155000000D03*
%TO.N,N/C*%
X263200000Y-147380000D03*
X260660000Y-147380000D03*
X258120000Y-147380000D03*
X255580000Y-147380000D03*
X253040000Y-147380000D03*
X250500000Y-147380000D03*
X247960000Y-147380000D03*
%TO.N,VCC*%
X245420000Y-147380000D03*
%TD*%
D10*
%TO.N,VCC*%
%TO.C,C19*%
X288980000Y-199800000D03*
%TO.N,GND*%
X290980000Y-199800000D03*
%TD*%
D11*
%TO.N,Net-(D38-K)*%
%TO.C,D38*%
X146970000Y-162000000D03*
D12*
%TO.N,HLT*%
X149510000Y-162000000D03*
%TD*%
D13*
%TO.N,Net-(D55-A)*%
%TO.C,R59*%
X157740000Y-130500000D03*
%TO.N,VCC*%
X150120000Y-130500000D03*
%TD*%
%TO.N,VCC*%
%TO.C,R18*%
X27500000Y-43120000D03*
%TO.N,Net-(D24-A)*%
X27500000Y-50740000D03*
%TD*%
D16*
%TO.N,GND*%
%TO.C,U29*%
X235500000Y-28960000D03*
D17*
%TO.N,unconnected-(U29-A0-Pad2)*%
X235500000Y-31500000D03*
%TO.N,unconnected-(U29-A1-Pad3)*%
X235500000Y-34040000D03*
%TO.N,unconnected-(U29-A2-Pad4)*%
X235500000Y-36580000D03*
%TO.N,unconnected-(U29-A3-Pad5)*%
X235500000Y-39120000D03*
%TO.N,BUS_3*%
X235500000Y-41660000D03*
%TO.N,BUS_2*%
X235500000Y-44200000D03*
%TO.N,BUS_1*%
X235500000Y-46740000D03*
%TO.N,BUS_0*%
X235500000Y-49280000D03*
%TO.N,GND*%
X235500000Y-51820000D03*
%TO.N,Net-(D37-A)*%
X243120000Y-51820000D03*
%TO.N,Net-(D36-A)*%
X243120000Y-49280000D03*
%TO.N,Net-(D35-A)*%
X243120000Y-46740000D03*
%TO.N,Net-(D34-A)*%
X243120000Y-44200000D03*
%TO.N,unconnected-(U29-B3-Pad15)*%
X243120000Y-41660000D03*
%TO.N,unconnected-(U29-B2-Pad16)*%
X243120000Y-39120000D03*
%TO.N,unconnected-(U29-B1-Pad17)*%
X243120000Y-36580000D03*
%TO.N,unconnected-(U29-B0-Pad18)*%
X243120000Y-34040000D03*
%TO.N,~{CO}*%
X243120000Y-31500000D03*
%TO.N,VCC*%
X243120000Y-28960000D03*
%TD*%
D11*
%TO.N,Net-(D024-K)*%
%TO.C,D024*%
X289760000Y-119700000D03*
D12*
%TO.N,/ALU/B_5*%
X289760000Y-117160000D03*
%TD*%
D13*
%TO.N,Net-(D56-A)*%
%TO.C,R58*%
X157740000Y-134500000D03*
%TO.N,VCC*%
X150120000Y-134500000D03*
%TD*%
D11*
%TO.N,Net-(D30-K)*%
%TO.C,D30*%
X104000000Y-116540000D03*
D12*
%TO.N,Net-(D30-A)*%
X104000000Y-114000000D03*
%TD*%
D10*
%TO.N,VCC*%
%TO.C,C62*%
X251000000Y-161000000D03*
%TO.N,GND*%
X253000000Y-161000000D03*
%TD*%
D13*
%TO.N,Net-(D61-K)*%
%TO.C,R63*%
X184930000Y-132500000D03*
%TO.N,GND*%
X192550000Y-132500000D03*
%TD*%
D10*
%TO.N,VCC*%
%TO.C,C22*%
X228000000Y-71000000D03*
%TO.N,GND*%
X230000000Y-71000000D03*
%TD*%
D11*
%TO.N,Net-(D4-K)*%
%TO.C,D4*%
X289000000Y-83540000D03*
D12*
%TO.N,/ALU/A_5*%
X289000000Y-81000000D03*
%TD*%
D13*
%TO.N,GND*%
%TO.C,C5*%
X119000000Y-23000000D03*
%TO.N,VCC*%
X119000000Y-20500000D03*
%TD*%
D16*
%TO.N,GND*%
%TO.C,U118*%
X86960000Y-144120000D03*
D17*
X89500000Y-144120000D03*
%TO.N,IR_7*%
X92040000Y-144120000D03*
%TO.N,IR_6*%
X94580000Y-144120000D03*
%TO.N,IR_5*%
X97120000Y-144120000D03*
%TO.N,IR_4*%
X99660000Y-144120000D03*
%TO.N,CLK*%
X102200000Y-144120000D03*
%TO.N,GND*%
X104740000Y-144120000D03*
%TO.N,~{II}*%
X107280000Y-144120000D03*
X109820000Y-144120000D03*
%TO.N,BUS_4*%
X109820000Y-136500000D03*
%TO.N,BUS_5*%
X107280000Y-136500000D03*
%TO.N,BUS_6*%
X104740000Y-136500000D03*
%TO.N,BUS_7*%
X102200000Y-136500000D03*
%TO.N,CLR*%
X99660000Y-136500000D03*
%TO.N,VCC*%
X97120000Y-136500000D03*
%TO.N,N/C*%
X94580000Y-136500000D03*
X92040000Y-136500000D03*
X89500000Y-136500000D03*
X86960000Y-136500000D03*
%TD*%
D10*
%TO.N,VCC*%
%TO.C,C9*%
X394730000Y-105140000D03*
%TO.N,GND*%
X396730000Y-105140000D03*
%TD*%
D14*
%TO.N,Net-(D46-A)*%
%TO.C,U47*%
X214740000Y-129960000D03*
D15*
%TO.N,~{EO}*%
X214740000Y-132500000D03*
%TO.N,Net-(D48-A)*%
X214740000Y-135040000D03*
%TO.N,~{BI}*%
X214740000Y-137580000D03*
%TO.N,unconnected-(U47-Pad5)*%
X214740000Y-140120000D03*
%TO.N,unconnected-(U47-Pad6)*%
X214740000Y-142660000D03*
%TO.N,GND*%
X214740000Y-145200000D03*
%TO.N,unconnected-(U47-Pad8)*%
X222360000Y-145200000D03*
%TO.N,unconnected-(U47-Pad9)*%
X222360000Y-142660000D03*
%TO.N,unconnected-(U47-Pad10)*%
X222360000Y-140120000D03*
%TO.N,unconnected-(U47-Pad11)*%
X222360000Y-137580000D03*
%TO.N,unconnected-(U47-Pad12)*%
X222360000Y-135040000D03*
%TO.N,unconnected-(U47-Pad13)*%
X222360000Y-132500000D03*
%TO.N,VCC*%
X222360000Y-129960000D03*
%TD*%
D11*
%TO.N,Net-(D64-K)*%
%TO.C,D64*%
X313270000Y-188500000D03*
D12*
%TO.N,BUS_2*%
X315810000Y-188500000D03*
%TD*%
D13*
%TO.N,VCC*%
%TO.C,R4*%
X79810000Y-24500000D03*
%TO.N,Net-(U2-DIS)*%
X72190000Y-24500000D03*
%TD*%
%TO.N,Net-(D029-K)*%
%TO.C,R98*%
X312260000Y-122120000D03*
%TO.N,GND*%
X312260000Y-129740000D03*
%TD*%
D10*
%TO.N,VCC*%
%TO.C,C66*%
X185240000Y-109000000D03*
%TO.N,GND*%
X185240000Y-111000000D03*
%TD*%
D13*
%TO.N,Net-(D16-K)*%
%TO.C,R14*%
X379970000Y-86380000D03*
%TO.N,GND*%
X379970000Y-94000000D03*
%TD*%
D11*
%TO.N,Net-(D028-K)*%
%TO.C,D028*%
X307760000Y-119700000D03*
D12*
%TO.N,/ALU/B_1*%
X307760000Y-117160000D03*
%TD*%
D11*
%TO.N,Net-(D16-K)*%
%TO.C,D16*%
X380030000Y-83896800D03*
D12*
%TO.N,Net-(D16-A)*%
X380030000Y-81356800D03*
%TD*%
D10*
%TO.N,VCC*%
%TO.C,C30*%
X365000000Y-76000000D03*
%TO.N,GND*%
X363000000Y-76000000D03*
%TD*%
D18*
%TO.N,Net-(SW7-A)*%
%TO.C,SW7*%
X283500000Y-178460000D03*
D13*
%TO.N,Net-(SW7-B)*%
X283500000Y-175920000D03*
%TO.N,VCC*%
X283500000Y-181000000D03*
%TD*%
%TO.N,VCC*%
%TO.C,R6*%
X110310000Y-39500000D03*
%TO.N,Net-(SW2-C)*%
X102690000Y-39500000D03*
%TD*%
%TO.N,Net-(D30-K)*%
%TO.C,R28*%
X104000000Y-119000000D03*
%TO.N,GND*%
X104000000Y-126620000D03*
%TD*%
D10*
%TO.N,Net-(U1-THR)*%
%TO.C,C7*%
X42500000Y-45000000D03*
%TO.N,GND*%
X42500000Y-47000000D03*
%TD*%
D13*
%TO.N,Net-(D33-K)*%
%TO.C,R31*%
X117500000Y-119000000D03*
%TO.N,GND*%
X117500000Y-126620000D03*
%TD*%
%TO.N,Net-(D8-K)*%
%TO.C,R105*%
X307000000Y-86000000D03*
%TO.N,GND*%
X307000000Y-93620000D03*
%TD*%
D10*
%TO.N,VCC*%
%TO.C,C39*%
X162500000Y-58500000D03*
%TO.N,GND*%
X160500000Y-58500000D03*
%TD*%
%TO.N,VCC*%
%TO.C,C47*%
X136500000Y-76000000D03*
%TO.N,GND*%
X136500000Y-74000000D03*
%TD*%
D14*
%TO.N,Net-(U23-\u002AO1)*%
%TO.C,U28*%
X163300000Y-70120000D03*
D15*
%TO.N,Net-(D32-A)*%
X165840000Y-70120000D03*
%TO.N,Net-(U23-\u002AO0)*%
X168380000Y-70120000D03*
%TO.N,Net-(D33-A)*%
X170920000Y-70120000D03*
%TO.N,Net-(D42-A)*%
X173460000Y-70120000D03*
%TO.N,~{IO}*%
X176000000Y-70120000D03*
%TO.N,GND*%
X178540000Y-70120000D03*
%TO.N,~{AO}*%
X178540000Y-62500000D03*
%TO.N,Net-(D45-A)*%
X176000000Y-62500000D03*
%TO.N,~{AI}*%
X173460000Y-62500000D03*
%TO.N,Net-(D44-A)*%
X170920000Y-62500000D03*
%TO.N,~{II}*%
X168380000Y-62500000D03*
%TO.N,Net-(D43-A)*%
X165840000Y-62500000D03*
%TO.N,VCC*%
X163300000Y-62500000D03*
%TD*%
D10*
%TO.N,VCC*%
%TO.C,C26*%
X329230000Y-136690000D03*
%TO.N,GND*%
X331230000Y-136690000D03*
%TD*%
D22*
%TO.N,Net-(D13-A)*%
%TO.C,U13*%
X337110000Y-76530000D03*
D13*
%TO.N,Net-(U13-B2)*%
X337110000Y-79070000D03*
%TO.N,/ALU/A_5*%
X337110000Y-81610000D03*
%TO.N,Net-(D15-A)*%
X337110000Y-84150000D03*
%TO.N,/ALU/A_4*%
X337110000Y-86690000D03*
%TO.N,Net-(U13-B1)*%
X337110000Y-89230000D03*
%TO.N,Net-(U13-C0)*%
X337110000Y-91770000D03*
%TO.N,GND*%
X337110000Y-94310000D03*
%TO.N,Net-(U12-D0)*%
X344730000Y-94310000D03*
%TO.N,Net-(D11-A)*%
X344730000Y-91770000D03*
%TO.N,Net-(U13-B4)*%
X344730000Y-89230000D03*
%TO.N,/ALU/A_7*%
X344730000Y-86690000D03*
%TO.N,Net-(D12-A)*%
X344730000Y-84150000D03*
%TO.N,/ALU/A_6*%
X344730000Y-81610000D03*
%TO.N,Net-(U13-B3)*%
X344730000Y-79070000D03*
%TO.N,VCC*%
X344730000Y-76530000D03*
%TD*%
D11*
%TO.N,Net-(D113-K)*%
%TO.C,D113*%
X93960000Y-154160000D03*
D12*
%TO.N,IR_6*%
X93960000Y-151620000D03*
%TD*%
D13*
%TO.N,Net-(D118-K)*%
%TO.C,R89*%
X128960000Y-157500000D03*
%TO.N,GND*%
X128960000Y-165120000D03*
%TD*%
D11*
%TO.N,Net-(D117-K)*%
%TO.C,D117*%
X121960000Y-154160000D03*
D12*
%TO.N,Net-(D117-A)*%
X121960000Y-151620000D03*
%TD*%
D14*
%TO.N,GND*%
%TO.C,U19*%
X92080000Y-50500000D03*
D15*
X89540000Y-50500000D03*
%TO.N,Net-(U18-I1a)*%
X87000000Y-50500000D03*
%TO.N,Net-(U18-I1b)*%
X84460000Y-50500000D03*
%TO.N,Net-(U18-I1c)*%
X81920000Y-50500000D03*
%TO.N,Net-(U18-I1d)*%
X79380000Y-50500000D03*
%TO.N,CLK*%
X76840000Y-50500000D03*
%TO.N,GND*%
X74300000Y-50500000D03*
%TO.N,~{MI}*%
X74300000Y-58120000D03*
X76840000Y-58120000D03*
%TO.N,BUS_0*%
X79380000Y-58120000D03*
%TO.N,BUS_1*%
X81920000Y-58120000D03*
%TO.N,BUS_2*%
X84460000Y-58120000D03*
%TO.N,BUS_3*%
X87000000Y-58120000D03*
%TO.N,CLR*%
X89540000Y-58120000D03*
%TO.N,VCC*%
X92080000Y-58120000D03*
%TD*%
D13*
%TO.N,Net-(D48-K)*%
%TO.C,R50*%
X197000000Y-167000000D03*
%TO.N,GND*%
X197000000Y-174620000D03*
%TD*%
D11*
%TO.N,Net-(D51-K)*%
%TO.C,D51*%
X211970000Y-162000000D03*
D12*
%TO.N,Net-(D51-A)*%
X214510000Y-162000000D03*
%TD*%
D13*
%TO.N,Net-(D51-K)*%
%TO.C,R53*%
X212000000Y-166880000D03*
%TO.N,GND*%
X212000000Y-174500000D03*
%TD*%
D10*
%TO.N,VCC*%
%TO.C,C18*%
X288980000Y-193250000D03*
%TO.N,GND*%
X290980000Y-193250000D03*
%TD*%
D13*
%TO.N,Net-(D026-K)*%
%TO.C,R95*%
X298760000Y-122000000D03*
%TO.N,GND*%
X298760000Y-129620000D03*
%TD*%
D11*
%TO.N,Net-(D023-K)*%
%TO.C,D023*%
X285260000Y-119700000D03*
D12*
%TO.N,/ALU/B_6*%
X285260000Y-117160000D03*
%TD*%
D13*
%TO.N,Net-(D11-K)*%
%TO.C,R9*%
X358120000Y-86570000D03*
%TO.N,GND*%
X358120000Y-94190000D03*
%TD*%
D10*
%TO.N,VCC*%
%TO.C,C21*%
X187500000Y-81550000D03*
%TO.N,GND*%
X189500000Y-81550000D03*
%TD*%
D13*
%TO.N,Net-(D12-K)*%
%TO.C,R11*%
X363620000Y-86380000D03*
%TO.N,GND*%
X363620000Y-94000000D03*
%TD*%
%TO.N,GND*%
%TO.C,R36*%
X261686800Y-55126800D03*
%TO.N,Net-(D37-K)*%
X254066800Y-55126800D03*
%TD*%
D10*
%TO.N,VCC*%
%TO.C,C70*%
X225240000Y-129500000D03*
%TO.N,GND*%
X227240000Y-129500000D03*
%TD*%
D13*
%TO.N,Net-(D027-K)*%
%TO.C,R96*%
X303260000Y-122120000D03*
%TO.N,GND*%
X303260000Y-129740000D03*
%TD*%
D10*
%TO.N,VCC*%
%TO.C,C73*%
X55460000Y-147620000D03*
%TO.N,GND*%
X55460000Y-149620000D03*
%TD*%
D22*
%TO.N,N/C*%
%TO.C,U44*%
X196000000Y-120380000D03*
D13*
%TO.N,GND*%
X196000000Y-122920000D03*
%TO.N,VCC*%
X196000000Y-125460000D03*
%TO.N,IR_7*%
X196000000Y-128000000D03*
%TO.N,IR_6*%
X196000000Y-130540000D03*
%TO.N,IR_5*%
X196000000Y-133080000D03*
%TO.N,IR_4*%
X196000000Y-135620000D03*
%TO.N,Net-(D61-A)*%
X196000000Y-138160000D03*
%TO.N,Net-(D60-A)*%
X196000000Y-140700000D03*
%TO.N,Net-(D59-A)*%
X196000000Y-143240000D03*
%TO.N,Net-(D53-A)*%
X196000000Y-145780000D03*
%TO.N,Net-(D52-A)*%
X196000000Y-148320000D03*
%TO.N,Net-(D51-A)*%
X196000000Y-150860000D03*
%TO.N,GND*%
X196000000Y-153400000D03*
%TO.N,CE*%
X211240000Y-153400000D03*
%TO.N,OI*%
X211240000Y-150860000D03*
%TO.N,Net-(D48-A)*%
X211240000Y-148320000D03*
%TO.N,SU*%
X211240000Y-145780000D03*
%TO.N,Net-(D46-A)*%
X211240000Y-143240000D03*
%TO.N,GND*%
X211240000Y-140700000D03*
X211240000Y-138160000D03*
X211240000Y-135620000D03*
X211240000Y-133080000D03*
%TO.N,ZF*%
X211240000Y-130540000D03*
%TO.N,CF*%
X211240000Y-128000000D03*
%TO.N,N/C*%
X211240000Y-125460000D03*
%TO.N,VCC*%
X211240000Y-122920000D03*
X211240000Y-120380000D03*
%TD*%
D10*
%TO.N,VCC*%
%TO.C,C36*%
X95500000Y-58000000D03*
%TO.N,GND*%
X97500000Y-58000000D03*
%TD*%
D11*
%TO.N,Net-(D23-K)*%
%TO.C,D23*%
X48090000Y-66620000D03*
D12*
%TO.N,/MAR/A0*%
X48090000Y-64080000D03*
%TD*%
D11*
%TO.N,Net-(D12-K)*%
%TO.C,D12*%
X363590000Y-83920000D03*
D12*
%TO.N,Net-(D12-A)*%
X363590000Y-81380000D03*
%TD*%
D21*
%TO.N,Net-(U31-Q)*%
%TO.C,U32*%
X242500000Y-139000000D03*
D13*
%TO.N,VCC*%
X245040000Y-139000000D03*
X247580000Y-139000000D03*
X250120000Y-139000000D03*
X252660000Y-139000000D03*
%TO.N,Net-(U32A-~{Q})*%
X255200000Y-139000000D03*
%TO.N,VCC*%
X257740000Y-139000000D03*
X260280000Y-139000000D03*
X260280000Y-131380000D03*
%TO.N,Net-(U32B-~{Q})*%
X257740000Y-131380000D03*
%TO.N,unconnected-(U32B-Q-Pad11)*%
X255200000Y-131380000D03*
%TO.N,VCC*%
X252660000Y-131380000D03*
%TO.N,GND*%
X250120000Y-131380000D03*
%TO.N,Net-(U32A-~{Q})*%
X247580000Y-131380000D03*
%TO.N,unconnected-(U32A-Q-Pad15)*%
X245040000Y-131380000D03*
%TO.N,VCC*%
X242500000Y-131380000D03*
%TD*%
%TO.N,Net-(D024-K)*%
%TO.C,R93*%
X289760000Y-122120000D03*
%TO.N,GND*%
X289760000Y-129740000D03*
%TD*%
D21*
%TO.N,/MAR/PROG*%
%TO.C,U24*%
X137100000Y-86555000D03*
D13*
%TO.N,Net-(U24-I0a)*%
X139640000Y-86555000D03*
%TO.N,BUS_3*%
X142180000Y-86555000D03*
%TO.N,Net-(U24-Za)*%
X144720000Y-86555000D03*
%TO.N,Net-(U24-I0b)*%
X147260000Y-86555000D03*
%TO.N,BUS_2*%
X149800000Y-86555000D03*
%TO.N,Net-(U24-Zb)*%
X152340000Y-86555000D03*
%TO.N,GND*%
X154880000Y-86555000D03*
%TO.N,Net-(U24-Zd)*%
X154880000Y-78935000D03*
%TO.N,BUS_0*%
X152340000Y-78935000D03*
%TO.N,Net-(U24-I0d)*%
X149800000Y-78935000D03*
%TO.N,Net-(U24-Zc)*%
X147260000Y-78935000D03*
%TO.N,BUS_1*%
X144720000Y-78935000D03*
%TO.N,Net-(U24-I0c)*%
X142180000Y-78935000D03*
%TO.N,GND*%
X139640000Y-78935000D03*
%TO.N,VCC*%
X137100000Y-78935000D03*
%TD*%
D11*
%TO.N,Net-(D66-K)*%
%TO.C,D66*%
X323270000Y-188500000D03*
D12*
%TO.N,BUS_4*%
X325810000Y-188500000D03*
%TD*%
D11*
%TO.N,Net-(D63-K)*%
%TO.C,D63*%
X308270000Y-188500000D03*
D12*
%TO.N,BUS_1*%
X310810000Y-188500000D03*
%TD*%
D21*
%TO.N,GND*%
%TO.C,U12*%
X403840000Y-83495000D03*
D13*
X406380000Y-83495000D03*
%TO.N,CF*%
X408920000Y-83495000D03*
%TO.N,ZF*%
X411460000Y-83495000D03*
%TO.N,unconnected-(U12-Q2-Pad5)*%
X414000000Y-83495000D03*
%TO.N,unconnected-(U12-Q3-Pad6)*%
X416540000Y-83495000D03*
%TO.N,CLK*%
X419080000Y-83495000D03*
%TO.N,GND*%
X421620000Y-83495000D03*
%TO.N,~{FI}*%
X421620000Y-75875000D03*
X419080000Y-75875000D03*
%TO.N,unconnected-(U12-D3-Pad11)*%
X416540000Y-75875000D03*
%TO.N,unconnected-(U12-D2-Pad12)*%
X414000000Y-75875000D03*
%TO.N,Net-(U12-D1)*%
X411460000Y-75875000D03*
%TO.N,Net-(U12-D0)*%
X408920000Y-75875000D03*
%TO.N,CLR*%
X406380000Y-75875000D03*
%TO.N,VCC*%
X403840000Y-75875000D03*
%TD*%
%TO.N,Net-(D119-K)*%
%TO.C,R90*%
X135960000Y-157500000D03*
%TO.N,GND*%
X135960000Y-165120000D03*
%TD*%
D22*
%TO.N,N/C*%
%TO.C,U43*%
X196000000Y-82380000D03*
D13*
%TO.N,GND*%
X196000000Y-84920000D03*
X196000000Y-87460000D03*
%TO.N,IR_7*%
X196000000Y-90000000D03*
%TO.N,IR_6*%
X196000000Y-92540000D03*
%TO.N,IR_5*%
X196000000Y-95080000D03*
%TO.N,IR_4*%
X196000000Y-97620000D03*
%TO.N,Net-(D61-A)*%
X196000000Y-100160000D03*
%TO.N,Net-(D60-A)*%
X196000000Y-102700000D03*
%TO.N,Net-(D59-A)*%
X196000000Y-105240000D03*
%TO.N,Net-(D45-A)*%
X196000000Y-107780000D03*
%TO.N,Net-(D44-A)*%
X196000000Y-110320000D03*
%TO.N,Net-(D43-A)*%
X196000000Y-112860000D03*
%TO.N,GND*%
X196000000Y-115400000D03*
%TO.N,Net-(D42-A)*%
X211240000Y-115400000D03*
%TO.N,Net-(D41-A)*%
X211240000Y-112860000D03*
%TO.N,RI*%
X211240000Y-110320000D03*
%TO.N,Net-(D39-A)*%
X211240000Y-107780000D03*
%TO.N,HLT*%
X211240000Y-105240000D03*
%TO.N,GND*%
X211240000Y-102700000D03*
X211240000Y-100160000D03*
X211240000Y-97620000D03*
X211240000Y-95080000D03*
%TO.N,ZF*%
X211240000Y-92540000D03*
%TO.N,CF*%
X211240000Y-90000000D03*
%TO.N,N/C*%
X211240000Y-87460000D03*
%TO.N,VCC*%
X211240000Y-84920000D03*
X211240000Y-82380000D03*
%TD*%
%TO.N,Net-(D62-K)*%
%TO.C,R65*%
X303310000Y-192380000D03*
%TO.N,GND*%
X303310000Y-200000000D03*
%TD*%
D11*
%TO.N,Net-(D39-K)*%
%TO.C,D39*%
X151970000Y-162000000D03*
D12*
%TO.N,Net-(D39-A)*%
X154510000Y-162000000D03*
%TD*%
D11*
%TO.N,Net-(D43-K)*%
%TO.C,D43*%
X171970000Y-162000000D03*
D12*
%TO.N,Net-(D43-A)*%
X174510000Y-162000000D03*
%TD*%
D13*
%TO.N,Net-(D023-K)*%
%TO.C,R92*%
X285260000Y-122120000D03*
%TO.N,GND*%
X285260000Y-129740000D03*
%TD*%
D11*
%TO.N,Net-(D55-K)*%
%TO.C,D55*%
X162700000Y-130000000D03*
D12*
%TO.N,Net-(D55-A)*%
X160160000Y-130000000D03*
%TD*%
D26*
%TO.N,Net-(U4-Pad3)*%
%TO.C,U6*%
X172540000Y-28880000D03*
D13*
%TO.N,Net-(U4-Pad6)*%
X170000000Y-28880000D03*
%TO.N,Net-(U4-Pad9)*%
X167460000Y-28880000D03*
%TO.N,unconnected-(U6-Pad4)*%
X164920000Y-28880000D03*
%TO.N,unconnected-(U6-Pad5)*%
X162380000Y-28880000D03*
%TO.N,unconnected-(U6-Pad6)*%
X159840000Y-28880000D03*
%TO.N,GND*%
X157300000Y-28880000D03*
%TO.N,unconnected-(U6-Pad8)*%
X157300000Y-36500000D03*
%TO.N,unconnected-(U6-Pad9)*%
X159840000Y-36500000D03*
%TO.N,unconnected-(U6-Pad10)*%
X162380000Y-36500000D03*
%TO.N,unconnected-(U6-Pad11)*%
X164920000Y-36500000D03*
%TO.N,unconnected-(U6-Pad12)*%
X167460000Y-36500000D03*
%TO.N,unconnected-(U6-Pad13)*%
X170000000Y-36500000D03*
%TO.N,VCC*%
X172540000Y-36500000D03*
%TD*%
D10*
%TO.N,VCC*%
%TO.C,C27*%
X367730000Y-99990000D03*
%TO.N,GND*%
X367730000Y-97990000D03*
%TD*%
D13*
%TO.N,Net-(D21-K)*%
%TO.C,R21*%
X59000000Y-70620000D03*
%TO.N,GND*%
X59000000Y-78240000D03*
%TD*%
%TO.N,GND*%
%TO.C,C4*%
X108500000Y-27000000D03*
%TO.N,Net-(U3-CV)*%
X106000000Y-27000000D03*
%TD*%
%TO.N,Net-(D40-K)*%
%TO.C,R42*%
X157000000Y-167000000D03*
%TO.N,GND*%
X157000000Y-174620000D03*
%TD*%
D26*
%TO.N,N/C*%
%TO.C,U40*%
X301040000Y-156500000D03*
D13*
%TO.N,GND*%
X298500000Y-156500000D03*
%TO.N,Net-(U38-Q7)*%
X295960000Y-156500000D03*
%TO.N,Net-(U38-Q6)*%
X293420000Y-156500000D03*
%TO.N,Net-(U38-Q5)*%
X290880000Y-156500000D03*
%TO.N,Net-(U38-Q4)*%
X288340000Y-156500000D03*
%TO.N,Net-(U38-Q3)*%
X285800000Y-156500000D03*
%TO.N,Net-(U38-Q2)*%
X283260000Y-156500000D03*
%TO.N,Net-(U38-Q1)*%
X280720000Y-156500000D03*
%TO.N,Net-(U38-Q0)*%
X278180000Y-156500000D03*
%TO.N,Net-(U34-G)*%
X275640000Y-156500000D03*
%TO.N,Net-(U34-F)*%
X273100000Y-156500000D03*
%TO.N,Net-(U34-E)*%
X270560000Y-156500000D03*
%TO.N,GND*%
X268020000Y-156500000D03*
%TO.N,Net-(U34-D)*%
X268020000Y-171740000D03*
%TO.N,Net-(U34-C)*%
X270560000Y-171740000D03*
%TO.N,Net-(U34-B)*%
X273100000Y-171740000D03*
%TO.N,Net-(U34-A)*%
X275640000Y-171740000D03*
%TO.N,Net-(U34-DP)*%
X278180000Y-171740000D03*
%TO.N,GND*%
X280720000Y-171740000D03*
%TO.N,Net-(SW7-B)*%
X283260000Y-171740000D03*
%TO.N,GND*%
X285800000Y-171740000D03*
X288340000Y-171740000D03*
%TO.N,Net-(U32B-~{Q})*%
X290880000Y-171740000D03*
%TO.N,Net-(U32A-~{Q})*%
X293420000Y-171740000D03*
%TO.N,N/C*%
X295960000Y-171740000D03*
%TO.N,VCC*%
X298500000Y-171740000D03*
X301040000Y-171740000D03*
%TD*%
D10*
%TO.N,VCC*%
%TO.C,C65*%
X224500000Y-90500000D03*
%TO.N,GND*%
X226500000Y-90500000D03*
%TD*%
D13*
%TO.N,Net-(D022-K)*%
%TO.C,R91*%
X280760000Y-122310000D03*
%TO.N,GND*%
X280760000Y-129930000D03*
%TD*%
D10*
%TO.N,VCC*%
%TO.C,C45*%
X162500000Y-76000000D03*
%TO.N,GND*%
X162500000Y-74000000D03*
%TD*%
D13*
%TO.N,Net-(D39-K)*%
%TO.C,R41*%
X152000000Y-167000000D03*
%TO.N,GND*%
X152000000Y-174620000D03*
%TD*%
%TO.N,Net-(D32-K)*%
%TO.C,R30*%
X113000000Y-119000000D03*
%TO.N,GND*%
X113000000Y-126620000D03*
%TD*%
D11*
%TO.N,Net-(D114-K)*%
%TO.C,D114*%
X100960000Y-154160000D03*
D12*
%TO.N,IR_5*%
X100960000Y-151620000D03*
%TD*%
D21*
%TO.N,/MAR/PROG*%
%TO.C,U51*%
X111710000Y-86740000D03*
D13*
%TO.N,unconnected-(U51-I0a-Pad2)*%
X114250000Y-86740000D03*
%TO.N,unconnected-(U51-I1a-Pad3)*%
X116790000Y-86740000D03*
%TO.N,unconnected-(U51-Za-Pad4)*%
X119330000Y-86740000D03*
%TO.N,unconnected-(U51-I0b-Pad5)*%
X121870000Y-86740000D03*
%TO.N,unconnected-(U51-I1b-Pad6)*%
X124410000Y-86740000D03*
%TO.N,unconnected-(U51-Zb-Pad7)*%
X126950000Y-86740000D03*
%TO.N,GND*%
X129490000Y-86740000D03*
%TO.N,unconnected-(U51-Zd-Pad9)*%
X129490000Y-79120000D03*
%TO.N,unconnected-(U51-I1d-Pad10)*%
X126950000Y-79120000D03*
%TO.N,unconnected-(U51-I0d-Pad11)*%
X124410000Y-79120000D03*
%TO.N,Net-(U51-Zc)*%
X121870000Y-79120000D03*
%TO.N,Net-(U51-I1c)*%
X119330000Y-79120000D03*
%TO.N,Net-(U51-I0c)*%
X116790000Y-79120000D03*
%TO.N,GND*%
X114250000Y-79120000D03*
%TO.N,VCC*%
X111710000Y-79120000D03*
%TD*%
D10*
%TO.N,VCC*%
%TO.C,C15*%
X230566800Y-24326800D03*
%TO.N,GND*%
X232566800Y-24326800D03*
%TD*%
D13*
%TO.N,GND*%
%TO.C,R16*%
X391120000Y-94000000D03*
%TO.N,Net-(D18-K)*%
X391120000Y-86380000D03*
%TD*%
D10*
%TO.N,VCC*%
%TO.C,C67*%
X169240000Y-146000000D03*
%TO.N,GND*%
X169240000Y-148000000D03*
%TD*%
D13*
%TO.N,GND*%
%TO.C,R34*%
X261496800Y-46126800D03*
%TO.N,Net-(D35-K)*%
X253876800Y-46126800D03*
%TD*%
D14*
%TO.N,~{CLR}*%
%TO.C,U30*%
X229186800Y-56366800D03*
D15*
%TO.N,CLK*%
X229186800Y-53826800D03*
%TO.N,BUS_0*%
X229186800Y-51286800D03*
%TO.N,BUS_1*%
X229186800Y-48746800D03*
%TO.N,BUS_2*%
X229186800Y-46206800D03*
%TO.N,BUS_3*%
X229186800Y-43666800D03*
%TO.N,CE*%
X229186800Y-41126800D03*
%TO.N,GND*%
X229186800Y-38586800D03*
%TO.N,~{J}*%
X221566800Y-38586800D03*
%TO.N,CE*%
X221566800Y-41126800D03*
%TO.N,Net-(D34-A)*%
X221566800Y-43666800D03*
%TO.N,Net-(D35-A)*%
X221566800Y-46206800D03*
%TO.N,Net-(D36-A)*%
X221566800Y-48746800D03*
%TO.N,Net-(D37-A)*%
X221566800Y-51286800D03*
%TO.N,unconnected-(U30-TC-Pad15)*%
X221566800Y-53826800D03*
%TO.N,VCC*%
X221566800Y-56366800D03*
%TD*%
D11*
%TO.N,Net-(D112-K)*%
%TO.C,D112*%
X86960000Y-154160000D03*
D12*
%TO.N,IR_7*%
X86960000Y-151620000D03*
%TD*%
D11*
%TO.N,Net-(D15-K)*%
%TO.C,D15*%
X374560000Y-83896800D03*
D12*
%TO.N,Net-(D15-A)*%
X374560000Y-81356800D03*
%TD*%
D11*
%TO.N,Net-(D48-K)*%
%TO.C,D48*%
X196970000Y-162000000D03*
D12*
%TO.N,Net-(D48-A)*%
X199510000Y-162000000D03*
%TD*%
D13*
%TO.N,BUS_2*%
%TO.C,R78*%
X315190000Y-181500000D03*
%TO.N,GND*%
X322810000Y-181500000D03*
%TD*%
D21*
%TO.N,Net-(U24-I0d)*%
%TO.C,SW5*%
X41960000Y-103500000D03*
D13*
%TO.N,Net-(U24-I0c)*%
X44500000Y-103500000D03*
%TO.N,GND*%
X47040000Y-103500000D03*
X49580000Y-103500000D03*
%TO.N,Net-(U52-I0d)*%
X52120000Y-103500000D03*
%TO.N,Net-(U52-I0c)*%
X54660000Y-103500000D03*
%TO.N,GND*%
X57200000Y-103500000D03*
X59740000Y-103500000D03*
%TO.N,Net-(U52-I0a)*%
X59740000Y-95880000D03*
%TO.N,Net-(U52-I0b)*%
X57200000Y-95880000D03*
%TO.N,GND*%
X54660000Y-95880000D03*
X52120000Y-95880000D03*
%TO.N,Net-(U24-I0a)*%
X49580000Y-95880000D03*
%TO.N,Net-(U24-I0b)*%
X47040000Y-95880000D03*
%TO.N,GND*%
X44500000Y-95880000D03*
X41960000Y-95880000D03*
%TD*%
D11*
%TO.N,Net-(D6-K)*%
%TO.C,D6*%
X298000000Y-83540000D03*
D12*
%TO.N,/ALU/A_3*%
X298000000Y-81000000D03*
%TD*%
D19*
%TO.N,Net-(U34-E)*%
%TO.C,U34*%
X313230000Y-172240000D03*
D13*
%TO.N,Net-(U34-D)*%
X315770000Y-172240000D03*
%TO.N,Net-(U33A-O3)*%
X318310000Y-172240000D03*
%TO.N,Net-(U34-C)*%
X320850000Y-172240000D03*
%TO.N,Net-(U34-DP)*%
X323390000Y-172240000D03*
%TO.N,Net-(U34-B)*%
X323390000Y-157000000D03*
%TO.N,Net-(U34-A)*%
X320850000Y-157000000D03*
%TO.N,Net-(U33A-O3)*%
X318310000Y-157000000D03*
%TO.N,Net-(U34-F)*%
X315770000Y-157000000D03*
%TO.N,Net-(U34-G)*%
X313230000Y-157000000D03*
%TD*%
D10*
%TO.N,GND*%
%TO.C,C40*%
X299000000Y-63500000D03*
%TO.N,VCC*%
X299000000Y-65500000D03*
%TD*%
D11*
%TO.N,Net-(D7-K)*%
%TO.C,D7*%
X302500000Y-83540000D03*
D12*
%TO.N,/ALU/A_2*%
X302500000Y-81000000D03*
%TD*%
D13*
%TO.N,Net-(D113-K)*%
%TO.C,R84*%
X93960000Y-157810000D03*
%TO.N,GND*%
X93960000Y-165430000D03*
%TD*%
D11*
%TO.N,Net-(D3-K)*%
%TO.C,D3*%
X284500000Y-83540000D03*
D12*
%TO.N,/ALU/A_6*%
X284500000Y-81000000D03*
%TD*%
D14*
%TO.N,Net-(D59-A)*%
%TO.C,U42*%
X176740000Y-142540000D03*
D15*
%TO.N,Net-(D60-A)*%
X176740000Y-140000000D03*
%TO.N,Net-(D61-A)*%
X176740000Y-137460000D03*
%TO.N,GND*%
X176740000Y-134920000D03*
X176740000Y-132380000D03*
%TO.N,VCC*%
X176740000Y-129840000D03*
%TO.N,unconnected-(U42-O7-Pad7)*%
X176740000Y-127300000D03*
%TO.N,GND*%
X176740000Y-124760000D03*
%TO.N,unconnected-(U42-O6-Pad9)*%
X169120000Y-124760000D03*
%TO.N,Net-(U42-O5)*%
X169120000Y-127300000D03*
%TO.N,Net-(D54-K)*%
X169120000Y-129840000D03*
%TO.N,Net-(D55-K)*%
X169120000Y-132380000D03*
%TO.N,Net-(D56-K)*%
X169120000Y-134920000D03*
%TO.N,Net-(D57-K)*%
X169120000Y-137460000D03*
%TO.N,Net-(D58-K)*%
X169120000Y-140000000D03*
%TO.N,VCC*%
X169120000Y-142540000D03*
%TD*%
D13*
%TO.N,Net-(D29-K)*%
%TO.C,R27*%
X99500000Y-119000000D03*
%TO.N,GND*%
X99500000Y-126620000D03*
%TD*%
%TO.N,Net-(SW7-A)*%
%TO.C,R39*%
X287880000Y-178500000D03*
%TO.N,GND*%
X295500000Y-178500000D03*
%TD*%
D11*
%TO.N,Net-(D115-K)*%
%TO.C,D115*%
X107960000Y-154160000D03*
D12*
%TO.N,IR_4*%
X107960000Y-151620000D03*
%TD*%
D13*
%TO.N,Net-(D53-K)*%
%TO.C,R55*%
X222000000Y-166880000D03*
%TO.N,GND*%
X222000000Y-174500000D03*
%TD*%
D16*
%TO.N,VCC*%
%TO.C,U48*%
X241000000Y-76120000D03*
D17*
%TO.N,/ALU/A_4*%
X243540000Y-76120000D03*
%TO.N,/ALU/A_5*%
X246080000Y-76120000D03*
%TO.N,/ALU/A_6*%
X248620000Y-76120000D03*
%TO.N,/ALU/A_7*%
X251160000Y-76120000D03*
%TO.N,/ALU/A_0*%
X253700000Y-76120000D03*
%TO.N,/ALU/A_1*%
X256240000Y-76120000D03*
%TO.N,/ALU/A_2*%
X258780000Y-76120000D03*
%TO.N,/ALU/A_3*%
X261320000Y-76120000D03*
%TO.N,GND*%
X263860000Y-76120000D03*
%TO.N,BUS_0*%
X263860000Y-68500000D03*
%TO.N,BUS_1*%
X261320000Y-68500000D03*
%TO.N,BUS_2*%
X258780000Y-68500000D03*
%TO.N,BUS_3*%
X256240000Y-68500000D03*
%TO.N,BUS_4*%
X253700000Y-68500000D03*
%TO.N,BUS_5*%
X251160000Y-68500000D03*
%TO.N,BUS_6*%
X248620000Y-68500000D03*
%TO.N,BUS_7*%
X246080000Y-68500000D03*
%TO.N,~{AO}*%
X243540000Y-68500000D03*
%TO.N,VCC*%
X241000000Y-68500000D03*
%TD*%
D11*
%TO.N,Net-(D37-K)*%
%TO.C,D37*%
X251186800Y-55126800D03*
D12*
%TO.N,Net-(D37-A)*%
X248646800Y-55126800D03*
%TD*%
D13*
%TO.N,Net-(D59-K)*%
%TO.C,R61*%
X184930000Y-142500000D03*
%TO.N,GND*%
X192550000Y-142500000D03*
%TD*%
D26*
%TO.N,Net-(U1-Q)*%
%TO.C,U4*%
X129540000Y-28760000D03*
D13*
%TO.N,Net-(U3-Q)*%
X127000000Y-28760000D03*
%TO.N,Net-(U4-Pad3)*%
X124460000Y-28760000D03*
%TO.N,Net-(U4-Pad4)*%
X121920000Y-28760000D03*
%TO.N,Net-(U2-Q)*%
X119380000Y-28760000D03*
%TO.N,Net-(U4-Pad6)*%
X116840000Y-28760000D03*
%TO.N,GND*%
X114300000Y-28760000D03*
%TO.N,CLK*%
X114300000Y-36380000D03*
%TO.N,Net-(U4-Pad9)*%
X116840000Y-36380000D03*
%TO.N,Net-(U4-Pad10)*%
X119380000Y-36380000D03*
%TO.N,unconnected-(U4-Pad11)*%
X121920000Y-36380000D03*
%TO.N,unconnected-(U4-Pad12)*%
X124460000Y-36380000D03*
%TO.N,unconnected-(U4-Pad13)*%
X127000000Y-36380000D03*
%TO.N,VCC*%
X129540000Y-36380000D03*
%TD*%
%TO.N,BUS_7*%
%TO.C,R73*%
X341000000Y-184000000D03*
%TO.N,GND*%
X348620000Y-184000000D03*
%TD*%
D11*
%TO.N,Net-(D65-K)*%
%TO.C,D65*%
X318270000Y-188500000D03*
D12*
%TO.N,BUS_3*%
X320810000Y-188500000D03*
%TD*%
D13*
%TO.N,Net-(D3-K)*%
%TO.C,R100*%
X284500000Y-86000000D03*
%TO.N,GND*%
X284500000Y-93620000D03*
%TD*%
%TO.N,Net-(D17-K)*%
%TO.C,R15*%
X385620000Y-86380000D03*
%TO.N,GND*%
X385620000Y-94000000D03*
%TD*%
D11*
%TO.N,Net-(D67-K)*%
%TO.C,D67*%
X328270000Y-188500000D03*
D12*
%TO.N,BUS_5*%
X330810000Y-188500000D03*
%TD*%
D13*
%TO.N,BUS_0*%
%TO.C,R80*%
X305190000Y-181500000D03*
%TO.N,GND*%
X312810000Y-181500000D03*
%TD*%
D11*
%TO.N,Net-(D22-K)*%
%TO.C,D22*%
X53560000Y-66620000D03*
D12*
%TO.N,/MAR/A1*%
X53560000Y-64080000D03*
%TD*%
D10*
%TO.N,VCC*%
%TO.C,C11*%
X16000000Y-64000000D03*
%TO.N,GND*%
X18000000Y-64000000D03*
%TD*%
D14*
%TO.N,GND*%
%TO.C,U50*%
X298920000Y-76120000D03*
D15*
X301460000Y-76120000D03*
%TO.N,/ALU/A_3*%
X304000000Y-76120000D03*
%TO.N,/ALU/A_2*%
X306540000Y-76120000D03*
%TO.N,/ALU/A_1*%
X309080000Y-76120000D03*
%TO.N,/ALU/A_0*%
X311620000Y-76120000D03*
%TO.N,CLK*%
X314160000Y-76120000D03*
%TO.N,GND*%
X316700000Y-76120000D03*
%TO.N,~{AI}*%
X316700000Y-68500000D03*
X314160000Y-68500000D03*
%TO.N,BUS_0*%
X311620000Y-68500000D03*
%TO.N,BUS_1*%
X309080000Y-68500000D03*
%TO.N,BUS_2*%
X306540000Y-68500000D03*
%TO.N,BUS_3*%
X304000000Y-68500000D03*
%TO.N,CLR*%
X301460000Y-68500000D03*
%TO.N,VCC*%
X298920000Y-68500000D03*
%TD*%
D10*
%TO.N,VCC*%
%TO.C,C57*%
X301000000Y-175000000D03*
%TO.N,GND*%
X301000000Y-177000000D03*
%TD*%
%TO.N,VCC*%
%TO.C,C64*%
X138000000Y-58500000D03*
%TO.N,GND*%
X138000000Y-56500000D03*
%TD*%
%TO.N,VCC*%
%TO.C,C69*%
X214500000Y-82500000D03*
%TO.N,GND*%
X216500000Y-82500000D03*
%TD*%
D14*
%TO.N,GND*%
%TO.C,U8*%
X276760000Y-113620000D03*
D15*
X279300000Y-113620000D03*
%TO.N,/ALU/B_7*%
X281840000Y-113620000D03*
%TO.N,/ALU/B_6*%
X284380000Y-113620000D03*
%TO.N,/ALU/B_5*%
X286920000Y-113620000D03*
%TO.N,/ALU/B_4*%
X289460000Y-113620000D03*
%TO.N,CLK*%
X292000000Y-113620000D03*
%TO.N,GND*%
X294540000Y-113620000D03*
%TO.N,~{BI}*%
X294540000Y-106000000D03*
X292000000Y-106000000D03*
%TO.N,BUS_4*%
X289460000Y-106000000D03*
%TO.N,BUS_5*%
X286920000Y-106000000D03*
%TO.N,BUS_6*%
X284380000Y-106000000D03*
%TO.N,BUS_7*%
X281840000Y-106000000D03*
%TO.N,CLR*%
X279300000Y-106000000D03*
%TO.N,VCC*%
X276760000Y-106000000D03*
%TD*%
D21*
%TO.N,GND*%
%TO.C,U1*%
X39920000Y-42120000D03*
D13*
%TO.N,Net-(U1-THR)*%
X42460000Y-42120000D03*
%TO.N,Net-(U1-Q)*%
X45000000Y-42120000D03*
%TO.N,VCC*%
X47540000Y-42120000D03*
%TO.N,Net-(U1-CV)*%
X47540000Y-34500000D03*
%TO.N,Net-(U1-THR)*%
X45000000Y-34500000D03*
%TO.N,Net-(U1-DIS)*%
X42460000Y-34500000D03*
%TO.N,VCC*%
X39920000Y-34500000D03*
%TD*%
D27*
%TO.N,GND*%
X52000000Y-189000000D03*
X228500000Y-193000000D03*
X352500000Y-24500000D03*
X61000000Y-110500000D03*
X352500000Y-26500000D03*
X158942000Y-190808000D03*
X227329000Y-194500000D03*
X299500000Y-35500000D03*
X416500000Y-192000000D03*
X157942000Y-190808000D03*
X415500000Y-194000000D03*
X418000000Y-126500000D03*
X60000000Y-111500000D03*
X396000000Y-43000000D03*
X37000000Y-74000000D03*
X299500000Y-34500000D03*
X394000000Y-43000000D03*
X53000000Y-189000000D03*
X186000000Y-26500000D03*
X228500000Y-194500000D03*
X416500000Y-194000000D03*
X417000000Y-128500000D03*
X36000000Y-74000000D03*
X350500000Y-26500000D03*
X394000000Y-42000000D03*
X366000000Y-196000000D03*
X37000000Y-76000000D03*
X61000000Y-109500000D03*
X415500000Y-193000000D03*
X60000000Y-109500000D03*
X185000000Y-26500000D03*
X54000000Y-189000000D03*
X59000000Y-110500000D03*
X228500000Y-191617000D03*
X367000000Y-198000000D03*
X419000000Y-127500000D03*
X395000000Y-44000000D03*
X300500000Y-35500000D03*
X59000000Y-111500000D03*
X298500000Y-34500000D03*
X397276000Y-157132000D03*
X226000000Y-191617000D03*
X226000000Y-193000000D03*
X186000000Y-27500000D03*
X414500000Y-194000000D03*
X366000000Y-197000000D03*
X184000000Y-28500000D03*
X36000000Y-75000000D03*
X37000000Y-75000000D03*
X397276000Y-156132000D03*
X395276000Y-156132000D03*
X419000000Y-126500000D03*
X418000000Y-127500000D03*
X395276000Y-157132000D03*
X227329000Y-191617000D03*
X61000000Y-111500000D03*
X53000000Y-187000000D03*
X352500000Y-25500000D03*
X395276000Y-158132000D03*
X418000000Y-128500000D03*
X365000000Y-197000000D03*
X367000000Y-196000000D03*
X299500000Y-36500000D03*
X414500000Y-193000000D03*
X38000000Y-74000000D03*
X156942000Y-191808000D03*
X156942000Y-190808000D03*
X300500000Y-36500000D03*
X415500000Y-192000000D03*
X158942000Y-189808000D03*
X54000000Y-187000000D03*
X156942000Y-189808000D03*
X351500000Y-25500000D03*
X396276000Y-156132000D03*
X36000000Y-76000000D03*
X367000000Y-197000000D03*
X365000000Y-196000000D03*
X53000000Y-188000000D03*
X396000000Y-44000000D03*
X396000000Y-42000000D03*
X298500000Y-35500000D03*
X185000000Y-28500000D03*
X227329000Y-193000000D03*
X38000000Y-75000000D03*
X226000000Y-194500000D03*
X351500000Y-26500000D03*
X395000000Y-43000000D03*
X396276000Y-157132000D03*
X184000000Y-27500000D03*
X157942000Y-191808000D03*
X397276000Y-158132000D03*
X417000000Y-126500000D03*
X185000000Y-27500000D03*
X54000000Y-188000000D03*
X158942000Y-191808000D03*
X350500000Y-25500000D03*
X350500000Y-24500000D03*
X416500000Y-193000000D03*
X300500000Y-34500000D03*
X184000000Y-26500000D03*
X396276000Y-158132000D03*
X298500000Y-36500000D03*
X419000000Y-128500000D03*
X394000000Y-44000000D03*
X186000000Y-28500000D03*
X366000000Y-198000000D03*
X365000000Y-198000000D03*
X395000000Y-42000000D03*
X417000000Y-127500000D03*
X157942000Y-189808000D03*
X60000000Y-110500000D03*
X414500000Y-192000000D03*
X351500000Y-24500000D03*
X59000000Y-109500000D03*
X52000000Y-187000000D03*
X52000000Y-188000000D03*
X38000000Y-76000000D03*
%TO.N,VCC*%
X379691000Y-181626000D03*
X407500000Y-148000000D03*
X57500000Y-163000000D03*
X36000000Y-19500000D03*
X411000000Y-56000000D03*
X136500000Y-113500000D03*
X337000000Y-26000000D03*
X135500000Y-115500000D03*
X411000000Y-54000000D03*
X409500000Y-148000000D03*
X337000000Y-24000000D03*
X380691000Y-182626000D03*
X232500000Y-109000000D03*
X66500000Y-117000000D03*
X66500000Y-116000000D03*
X413000000Y-54000000D03*
X58500000Y-163000000D03*
X215500000Y-32000000D03*
X136500000Y-114500000D03*
X27676100Y-99124200D03*
X231500000Y-110000000D03*
X136500000Y-115500000D03*
X408500000Y-149000000D03*
X66500000Y-115000000D03*
X232500000Y-99500000D03*
X216500000Y-31000000D03*
X233500000Y-98500000D03*
X27676100Y-100124000D03*
X411000000Y-55000000D03*
X57500000Y-165000000D03*
X26676100Y-99124200D03*
X338000000Y-24000000D03*
X134500000Y-113500000D03*
X338000000Y-25000000D03*
X135500000Y-113500000D03*
X232500000Y-98500000D03*
X378691000Y-180626000D03*
X57500000Y-164000000D03*
X232500000Y-97500000D03*
X409500000Y-149000000D03*
X412000000Y-56000000D03*
X339000000Y-26000000D03*
X230500000Y-110000000D03*
X134500000Y-114500000D03*
X37000000Y-21500000D03*
X36000000Y-20500000D03*
X214500000Y-31000000D03*
X339000000Y-25000000D03*
X36000000Y-21500000D03*
X59500000Y-163000000D03*
X412000000Y-54000000D03*
X412000000Y-55000000D03*
X380691000Y-180626000D03*
X380691000Y-181626000D03*
X408500000Y-150000000D03*
X68500000Y-116000000D03*
X233500000Y-99500000D03*
X407500000Y-150000000D03*
X234500000Y-97500000D03*
X37000000Y-19500000D03*
X215500000Y-31000000D03*
X216500000Y-33000000D03*
X58500000Y-164000000D03*
X67500000Y-116000000D03*
X135500000Y-114500000D03*
X413000000Y-56000000D03*
X37000000Y-20500000D03*
X38000000Y-21500000D03*
X38000000Y-20500000D03*
X379691000Y-180626000D03*
X232500000Y-110000000D03*
X27676100Y-101124000D03*
X337000000Y-25000000D03*
X26676100Y-100124000D03*
X409500000Y-150000000D03*
X231500000Y-109000000D03*
X234500000Y-98500000D03*
X134500000Y-115500000D03*
X38000000Y-19500000D03*
X59500000Y-164000000D03*
X25676100Y-100124000D03*
X25676100Y-99124200D03*
X338000000Y-26000000D03*
X25676100Y-101124000D03*
X26676100Y-101124000D03*
X67500000Y-115000000D03*
X216500000Y-32000000D03*
X232500000Y-108000000D03*
X215500000Y-33000000D03*
X407500000Y-149000000D03*
X233500000Y-97500000D03*
X68500000Y-115000000D03*
X234500000Y-99500000D03*
X231500000Y-108000000D03*
X378691000Y-182626000D03*
X230500000Y-108000000D03*
X214500000Y-32000000D03*
X58500000Y-165000000D03*
X379691000Y-182626000D03*
X68500000Y-117000000D03*
X59500000Y-165000000D03*
X408500000Y-148000000D03*
X67500000Y-117000000D03*
X339000000Y-24000000D03*
X413000000Y-55000000D03*
X230500000Y-109000000D03*
X214500000Y-33000000D03*
X378691000Y-181626000D03*
%TO.N,BUS_5*%
X258000000Y-70239200D03*
X103500000Y-97500000D03*
X113500000Y-94000000D03*
X126500000Y-90000000D03*
X108084000Y-133916000D03*
X113600000Y-95500000D03*
X150500000Y-84000000D03*
X245561000Y-74099000D03*
X103486000Y-131014000D03*
X153102000Y-84101800D03*
X128568000Y-90067800D03*
X102000000Y-97500000D03*
X104500000Y-130000000D03*
X287000000Y-109500000D03*
%TO.N,CLK*%
X292177000Y-77977200D03*
X292500000Y-104000000D03*
X93000000Y-127500000D03*
X269500000Y-139500000D03*
X271500000Y-138000000D03*
X214000000Y-51000000D03*
X304000000Y-112000000D03*
X93500000Y-139000000D03*
X271500000Y-71500000D03*
X93500000Y-68000000D03*
X98701600Y-49551300D03*
X246000000Y-61000000D03*
X90500000Y-70500000D03*
X306443000Y-77977200D03*
%TO.N,/ALU/A_7*%
X309472000Y-88000000D03*
X322000000Y-88000000D03*
X259000000Y-72500000D03*
%TO.N,/ALU/A_6*%
X250000000Y-74000000D03*
X270000000Y-74000000D03*
X316500000Y-80500000D03*
%TO.N,/ALU/A_5*%
X310900000Y-79000000D03*
%TO.N,/ALU/A_4*%
X287000000Y-73400000D03*
X306000000Y-82000000D03*
%TO.N,/ALU/A_3*%
X328153000Y-93153400D03*
X296000000Y-77377200D03*
X326927000Y-91927200D03*
%TO.N,/ALU/A_2*%
X264500000Y-79500000D03*
%TO.N,/ALU/A_1*%
X328500000Y-105500000D03*
%TO.N,ZF*%
X312500000Y-91100000D03*
X353000000Y-90100000D03*
X402000000Y-88081000D03*
X348066000Y-89900000D03*
X254000000Y-91500000D03*
X209500000Y-121000000D03*
X209000000Y-105840000D03*
X371000000Y-88500000D03*
X266058000Y-91500000D03*
X280500000Y-91300000D03*
X376500000Y-88500000D03*
X209000000Y-104500000D03*
%TO.N,Net-(D12-A)*%
X359281000Y-85688700D03*
%TO.N,Net-(D13-A)*%
X342538000Y-78569000D03*
%TO.N,CF*%
X389305000Y-87071000D03*
X280500000Y-90500000D03*
X247400000Y-90500000D03*
X366000000Y-89500000D03*
X367500000Y-89500000D03*
X220100000Y-91500000D03*
X266058000Y-90500000D03*
X311000000Y-90500000D03*
X347500000Y-90500000D03*
X386806000Y-87071000D03*
X350500000Y-90500000D03*
%TO.N,Net-(D15-A)*%
X372500000Y-88500000D03*
X353500000Y-92000000D03*
X350000000Y-88000000D03*
%TO.N,Net-(D17-A)*%
X374000000Y-96500000D03*
X375229000Y-96500000D03*
%TO.N,Net-(D18-A)*%
X340400000Y-104591000D03*
X364094000Y-111594000D03*
%TO.N,/MAR/A3*%
X111500000Y-100400000D03*
%TO.N,/MAR/A2*%
X96000000Y-99500000D03*
%TO.N,/MAR/A1*%
X112400000Y-98500000D03*
X92000000Y-98000000D03*
%TO.N,/ALU/B_7*%
X309500000Y-135850000D03*
X290364000Y-125136000D03*
X299400000Y-128488000D03*
X264272000Y-117161000D03*
X284500000Y-123500000D03*
%TO.N,/MAR/A0*%
X92260800Y-109000000D03*
X112400000Y-105000000D03*
%TO.N,/ALU/B_6*%
X271165000Y-111555000D03*
X273000000Y-113500000D03*
%TO.N,/ALU/B_5*%
X272000000Y-117761000D03*
X263000000Y-118500000D03*
X286500000Y-115359000D03*
%TO.N,/ALU/B_4*%
X302500000Y-124500000D03*
X269525000Y-116025000D03*
X263000000Y-116000000D03*
%TO.N,Net-(D26-A)*%
X95739200Y-102100000D03*
X120000000Y-84400000D03*
X105026243Y-96900000D03*
X110500000Y-89500000D03*
X134000000Y-72500000D03*
X104674265Y-94174265D03*
X128000000Y-80400000D03*
%TO.N,/ALU/B_2*%
X306500000Y-115500000D03*
X287785000Y-118285000D03*
X312000000Y-115500000D03*
%TO.N,Net-(D27-A)*%
X112041300Y-69851900D03*
X81370800Y-74703200D03*
X78102500Y-97804400D03*
X96591000Y-70496000D03*
X91512500Y-75046900D03*
%TO.N,/ALU/B_1*%
X270500000Y-112000000D03*
X303500000Y-110200000D03*
X291500000Y-110900000D03*
%TO.N,Net-(D28-A)*%
X132983200Y-90251000D03*
X124450100Y-99576400D03*
X123646300Y-114228300D03*
X133000000Y-80400000D03*
X133963700Y-75496100D03*
X134570065Y-85929935D03*
%TO.N,Net-(D29-A)*%
X120431091Y-90584478D03*
X132500000Y-79500000D03*
X127500000Y-84081000D03*
X149500000Y-66500000D03*
%TO.N,/ALU/B_0*%
X272522000Y-110955000D03*
X303500000Y-111000000D03*
%TO.N,Net-(D30-A)*%
X106840300Y-111475400D03*
X150366100Y-93715900D03*
X123636400Y-111266200D03*
X122955600Y-100045300D03*
X138826200Y-95630400D03*
X128111200Y-100111500D03*
%TO.N,Net-(D31-A)*%
X134500000Y-70468700D03*
X121771845Y-90228134D03*
X119500000Y-99500000D03*
X121500000Y-93400000D03*
X107080000Y-106420000D03*
X125500000Y-80400000D03*
X113900000Y-106500000D03*
%TO.N,Net-(D32-A)*%
X137246000Y-90397600D03*
X116500000Y-109000000D03*
X137000000Y-94000000D03*
X113000000Y-109800000D03*
X156000000Y-76000000D03*
X142500000Y-82400000D03*
%TO.N,Net-(D33-A)*%
X159326000Y-81174300D03*
X137573000Y-96601900D03*
X165500000Y-74500000D03*
X117500000Y-111760000D03*
%TO.N,HLT*%
X175000000Y-74000000D03*
X188500000Y-85500000D03*
%TO.N,Net-(D39-A)*%
X215000000Y-92500000D03*
X192000000Y-124500000D03*
%TO.N,RI*%
X193500000Y-129000000D03*
X133500000Y-106000000D03*
X116500000Y-92699000D03*
X116500000Y-91000000D03*
X166500000Y-132201000D03*
X202000000Y-123500000D03*
X178255000Y-143255000D03*
X120200000Y-95499000D03*
%TO.N,Net-(D41-A)*%
X193000000Y-134500000D03*
%TO.N,Net-(D42-A)*%
X208000000Y-124000000D03*
X188500000Y-142000000D03*
X200500000Y-99500000D03*
X193000000Y-139500000D03*
%TO.N,Net-(D43-A)*%
X182000000Y-86500000D03*
X189500000Y-135500000D03*
X194299000Y-112870000D03*
%TO.N,Net-(D44-A)*%
X185000000Y-84734000D03*
X184215000Y-80284700D03*
X177500000Y-71500000D03*
X191326000Y-120826000D03*
%TO.N,Net-(D45-A)*%
X185500000Y-83500000D03*
X185000000Y-81000000D03*
%TO.N,Net-(D46-A)*%
X202809000Y-151460000D03*
%TO.N,SU*%
X302000000Y-146000000D03*
X290500000Y-146000000D03*
%TO.N,Net-(D48-A)*%
X204000000Y-155000000D03*
%TO.N,CE*%
X225000000Y-49000000D03*
X219500000Y-72500000D03*
X219500000Y-78000000D03*
%TO.N,Net-(D51-A)*%
X212000000Y-158500000D03*
%TO.N,Net-(D52-A)*%
X203000000Y-152500000D03*
X208900000Y-122246000D03*
%TO.N,Net-(D53-A)*%
X204603000Y-145780000D03*
%TO.N,Net-(D59-A)*%
X187500000Y-102100000D03*
X188500000Y-144500000D03*
%TO.N,Net-(D60-A)*%
X194000000Y-104500000D03*
X193509000Y-114509000D03*
X188319000Y-139819000D03*
X190100000Y-131500000D03*
X192000000Y-140500000D03*
%TO.N,Net-(D61-A)*%
X186476000Y-125676000D03*
X191926000Y-134500000D03*
X188900000Y-132000000D03*
X188000000Y-128500000D03*
%TO.N,BUS_1*%
X259000000Y-66500000D03*
X112000000Y-93000000D03*
X267000000Y-106738000D03*
X266500000Y-109500000D03*
%TO.N,BUS_2*%
X314500000Y-70000000D03*
X160000000Y-78000000D03*
X126568000Y-92067800D03*
X112500000Y-94000000D03*
X214500000Y-53000000D03*
X165000000Y-76301000D03*
X107000000Y-94000000D03*
X216500000Y-51500000D03*
X294000000Y-138000000D03*
X305500000Y-108000000D03*
X100073000Y-76927200D03*
X100500000Y-79500000D03*
X260500000Y-66000000D03*
X306000000Y-104000000D03*
%TO.N,IR_6*%
X199100000Y-113051000D03*
X193000000Y-121000000D03*
X100714000Y-141786000D03*
%TO.N,IR_5*%
X123496000Y-147004000D03*
X176000000Y-133500000D03*
X198500000Y-101500000D03*
X198500000Y-116000000D03*
%TO.N,IR_4*%
X200000000Y-121000000D03*
X133500000Y-147500000D03*
X124000000Y-147900000D03*
X200000000Y-122500000D03*
%TO.N,Net-(U24-I0d)*%
X146500000Y-76500000D03*
X101466000Y-94034300D03*
X109500000Y-93000000D03*
X110250000Y-90401471D03*
%TO.N,Net-(U24-I0a)*%
X132000000Y-88500000D03*
X96500000Y-91900000D03*
X84000000Y-91900000D03*
X110000000Y-88000000D03*
X104500000Y-88500000D03*
%TO.N,Net-(U24-I0c)*%
X104250000Y-91999000D03*
X110000000Y-88800003D03*
X113961000Y-84539300D03*
X137000000Y-81000000D03*
X98000000Y-91500000D03*
X69000000Y-98000000D03*
%TO.N,Net-(U24-I0b)*%
X82500000Y-92500000D03*
X99000000Y-92000000D03*
X146500000Y-88256000D03*
%TO.N,Net-(U4-Pad9)*%
X129494000Y-38201000D03*
%TO.N,Net-(U4-Pad4)*%
X147500000Y-30581000D03*
%TO.N,Net-(U24-Za)*%
X144395600Y-81435100D03*
X104409200Y-80967900D03*
X98128600Y-80834200D03*
X117416300Y-82589100D03*
%TO.N,~{CLK}*%
X164500000Y-61000000D03*
X172000000Y-75900000D03*
X167000000Y-68500000D03*
%TO.N,Net-(U52-Zc)*%
X164500000Y-72000000D03*
%TO.N,Net-(U23-D2)*%
X106324700Y-108269500D03*
X94829800Y-91236800D03*
%TO.N,Net-(U52-Zb)*%
X178135000Y-84364700D03*
X172000000Y-68571300D03*
%TO.N,CLR*%
X99741000Y-80589500D03*
X319000000Y-74600000D03*
X287000000Y-71000000D03*
X101500000Y-130000000D03*
X99741000Y-84500000D03*
X300500000Y-71900000D03*
X131000000Y-134500000D03*
X211534000Y-121646000D03*
X100000000Y-98500000D03*
X101564000Y-92435700D03*
X274000000Y-110701000D03*
%TO.N,~{BI}*%
X246000000Y-122246000D03*
X272176000Y-111676000D03*
X247000000Y-121000000D03*
%TO.N,Net-(U12-D1)*%
X379000000Y-113000000D03*
X380000000Y-112000000D03*
%TO.N,Net-(U10-Pad2)*%
X367500000Y-103000000D03*
%TO.N,~{FI}*%
X351500000Y-80500000D03*
X354000000Y-80500000D03*
%TO.N,Net-(U13-B2)*%
X332584000Y-94415700D03*
X334000000Y-87400000D03*
%TO.N,Net-(U13-B1)*%
X335000000Y-91500000D03*
X329826000Y-107674000D03*
%TO.N,Net-(U13-B3)*%
X341000000Y-91500000D03*
%TO.N,Net-(U14-B2)*%
X334000000Y-112109000D03*
%TO.N,/MAR/PROG*%
X95000000Y-68000000D03*
%TO.N,BUS_4*%
X305549000Y-71500000D03*
X151500000Y-83000000D03*
X290000000Y-109500000D03*
X259500000Y-108000000D03*
X108000000Y-92000000D03*
X154102000Y-83101800D03*
X382000000Y-72000000D03*
X304349000Y-71000000D03*
%TO.N,BUS_6*%
X134500000Y-93000000D03*
X284000000Y-110000000D03*
X376500000Y-72500000D03*
X101500000Y-131421000D03*
X195500000Y-73499000D03*
X283000000Y-71000000D03*
X306900000Y-72500000D03*
X137000000Y-93000000D03*
X243621000Y-73499000D03*
X310672000Y-72500000D03*
X118000000Y-93000000D03*
X194500000Y-77501000D03*
X251500000Y-66500000D03*
X255054000Y-65445700D03*
%TO.N,~{MI}*%
X168000000Y-82000000D03*
X111000000Y-62500000D03*
X158102000Y-79101800D03*
%TO.N,BUS_7*%
X374000000Y-73100000D03*
X99500000Y-94500000D03*
X267500000Y-69039200D03*
X127500000Y-91467800D03*
X144500000Y-91000000D03*
X306900000Y-74000000D03*
X280500000Y-71000000D03*
X97000000Y-128500000D03*
X281500000Y-110000000D03*
X102000000Y-134500000D03*
X147000000Y-91000000D03*
X310672000Y-74000000D03*
%TO.N,Net-(U51-Zc)*%
X96500000Y-81000000D03*
X115500000Y-76000000D03*
X90500000Y-85000000D03*
%TO.N,Net-(U24-Zb)*%
X106846100Y-85519900D03*
X158260600Y-84624400D03*
X97614600Y-86337700D03*
%TO.N,Net-(U21-D1)*%
X108500000Y-76500000D03*
%TO.N,Net-(U52-I0c)*%
X136307000Y-93600000D03*
X93500000Y-101500000D03*
X119500000Y-101600000D03*
X92000000Y-101500000D03*
X159500000Y-85000000D03*
X112400000Y-101600000D03*
X141500000Y-90400000D03*
%TO.N,Net-(U24-Zc)*%
X114679200Y-82207300D03*
X105351700Y-83819300D03*
%TO.N,Net-(U21-D2)*%
X100049000Y-75000000D03*
%TO.N,Net-(U24-Zd)*%
X109000000Y-81100000D03*
X134500000Y-80400000D03*
X103000000Y-79500000D03*
%TO.N,Net-(U23-D0)*%
X117500000Y-101000000D03*
X106000000Y-94000000D03*
X102500000Y-87500000D03*
X112068000Y-99290800D03*
X124000000Y-101000000D03*
%TO.N,Net-(U52-Za)*%
X132414900Y-82816800D03*
X107806100Y-85771900D03*
X118446400Y-82816000D03*
X112196000Y-84724200D03*
X134924300Y-87132700D03*
X141987800Y-88329700D03*
%TO.N,~{RO}*%
X129500000Y-101000000D03*
X195500000Y-101500000D03*
%TO.N,Net-(U42-O5)*%
X125068000Y-93600000D03*
%TO.N,Net-(U26-Pad6)*%
X150000000Y-94500000D03*
X131000000Y-85000000D03*
%TO.N,Net-(U51-I1c)*%
X100049000Y-76000000D03*
X106789000Y-78210700D03*
%TO.N,~{IO}*%
X164500000Y-81000000D03*
X168000000Y-75900000D03*
X123500000Y-116500000D03*
X121925000Y-117575000D03*
%TO.N,~{AI}*%
X306500000Y-69648900D03*
X224400000Y-66000000D03*
X290000000Y-66359800D03*
X183500000Y-65500000D03*
X184675000Y-66175100D03*
X250936000Y-65564300D03*
X226000000Y-66000000D03*
X304000000Y-69648900D03*
X254958000Y-64651600D03*
%TO.N,~{AO}*%
X188500000Y-67000000D03*
X210500000Y-71000000D03*
X180500000Y-63500000D03*
%TO.N,Net-(U52-I0d)*%
X114000000Y-97000000D03*
X145651000Y-88256000D03*
X174500000Y-84000000D03*
X130000000Y-90400000D03*
X92000000Y-100500000D03*
%TO.N,~{J}*%
X222500000Y-61000000D03*
X223500000Y-51000000D03*
X223000000Y-43500000D03*
%TO.N,Net-(U33A-O1)*%
X293009000Y-152898000D03*
X283000000Y-153000000D03*
%TO.N,Net-(U33A-O2)*%
X287092000Y-154823000D03*
X295500000Y-155000000D03*
%TO.N,Net-(U33A-O3)*%
X265156000Y-158656000D03*
%TO.N,Net-(U52-I0b)*%
X135326000Y-90174300D03*
X82500000Y-97900000D03*
X108000000Y-96900000D03*
X98540800Y-97299000D03*
X145000000Y-90102000D03*
X123000000Y-90000000D03*
%TO.N,Net-(U33A-O0)*%
X292583000Y-154271000D03*
X289896000Y-154096000D03*
%TO.N,Net-(U34-C)*%
X320500000Y-174600000D03*
%TO.N,Net-(U34-A)*%
X315000000Y-159500000D03*
X311500000Y-161500000D03*
%TO.N,Net-(U38-Q7)*%
X290496000Y-153496000D03*
%TO.N,Net-(U38-Q6)*%
X289161000Y-150000000D03*
%TO.N,Net-(U52-I0a)*%
X113000000Y-89000000D03*
X98000000Y-93299000D03*
X128500000Y-85600000D03*
%TO.N,Net-(U23-D1)*%
X108054000Y-93644700D03*
X109000000Y-89000000D03*
X103000000Y-84000000D03*
X114500000Y-95500000D03*
%TO.N,Net-(U14-B3)*%
X342500000Y-107000000D03*
%TO.N,Net-(U23-D3)*%
X106327900Y-99250000D03*
X118193400Y-98226200D03*
X117146200Y-99169600D03*
X79174300Y-91415700D03*
X81318900Y-97808700D03*
X91406500Y-102130900D03*
X98930300Y-99374400D03*
%TO.N,Net-(U21-\u002AWE)*%
X66056000Y-102149500D03*
X93964300Y-111648100D03*
X67042200Y-94039000D03*
X106742400Y-107374600D03*
%TO.N,Net-(U52-Zd)*%
X157000000Y-73500000D03*
X140000000Y-71668700D03*
X110004315Y-71504315D03*
X173175315Y-74324685D03*
X168500000Y-73500000D03*
X82599800Y-71844600D03*
X92920535Y-70920535D03*
X150500000Y-73000000D03*
%TO.N,Net-(U21-\u002AO2)*%
X114706600Y-68552700D03*
X97726100Y-68899700D03*
X87593600Y-77084600D03*
%TO.N,Net-(U21-\u002AO1)*%
X69797300Y-99262300D03*
X108000000Y-83000000D03*
X109000000Y-87400000D03*
X103000000Y-92000000D03*
X73753500Y-102170000D03*
X89500000Y-100400000D03*
X111500000Y-82500000D03*
%TO.N,Net-(U21-\u002AO0)*%
X119988900Y-53963100D03*
X79328800Y-56801100D03*
X78933200Y-93944200D03*
%TO.N,Net-(U21-\u002AO3)*%
X130000000Y-71668700D03*
X109559265Y-78440735D03*
X118100740Y-77100740D03*
X90500000Y-88100000D03*
X84000000Y-94000000D03*
X131000000Y-70468700D03*
X105674265Y-84825735D03*
%TO.N,Net-(U23-\u002AO2)*%
X128709200Y-97320800D03*
%TO.N,Net-(U23-\u002AO3)*%
X138000000Y-81500000D03*
X133500000Y-88500000D03*
%TO.N,Net-(U23-\u002AO1)*%
X158000000Y-80000000D03*
X150500000Y-88256000D03*
X159000000Y-76301000D03*
X141000000Y-95100000D03*
%TO.N,Net-(U23-\u002AO0)*%
X133500000Y-99000000D03*
X160000000Y-76301000D03*
X141600000Y-93900000D03*
%TO.N,Net-(U18-I1d)*%
X77232700Y-56957900D03*
%TD*%
D28*
%TO.N,BUS_5*%
X105299000Y-131131000D02*
X108084000Y-133916000D01*
X113600000Y-95671100D02*
X111771000Y-97500000D01*
X134636000Y-84000000D02*
X128568000Y-90067800D01*
X102479000Y-132021000D02*
X70719000Y-132021000D01*
X251160000Y-68500000D02*
X245561000Y-74099000D01*
X105299000Y-130799000D02*
X105299000Y-131131000D01*
X286069000Y-67431300D02*
X377011000Y-67431300D01*
X103486000Y-131014000D02*
X102479000Y-132021000D01*
X288511000Y-111011000D02*
X287000000Y-109500000D01*
X288511000Y-139311000D02*
X288511000Y-111011000D01*
X286920000Y-106000000D02*
X286272000Y-105352000D01*
X150500000Y-84000000D02*
X134636000Y-84000000D01*
X153102000Y-83251800D02*
X153102000Y-84101800D01*
X113600000Y-95500000D02*
X113600000Y-95671100D01*
X286272000Y-105352000D02*
X286272000Y-69532300D01*
X111771000Y-97500000D02*
X103500000Y-97500000D01*
X170180000Y-78815000D02*
X166495000Y-82500000D01*
X105299000Y-130799000D02*
X104500000Y-130000000D01*
X285120000Y-68380000D02*
X286069000Y-67431300D01*
X245561000Y-74099000D02*
X178081000Y-74099000D01*
X153854000Y-82500000D02*
X153102000Y-83251800D01*
X166495000Y-82500000D02*
X153854000Y-82500000D01*
X171281000Y-79916000D02*
X170180000Y-78815000D01*
X377011000Y-67431300D02*
X379460000Y-69880000D01*
X70719000Y-132021000D02*
X66120000Y-136620000D01*
X103500000Y-97500000D02*
X105299000Y-99299200D01*
X173821000Y-79271100D02*
X173176000Y-79916000D01*
X173176000Y-79916000D02*
X171281000Y-79916000D01*
X283261000Y-70239200D02*
X258000000Y-70239200D01*
X105299000Y-131131000D02*
X105299000Y-130799000D01*
X289700000Y-140500000D02*
X288511000Y-139311000D01*
X178081000Y-74099000D02*
X173821000Y-78358900D01*
X286272000Y-69532300D02*
X285120000Y-68380000D01*
X173821000Y-78358900D02*
X173821000Y-79271100D01*
X105299000Y-99299200D02*
X105299000Y-130799000D01*
X285120000Y-68380000D02*
X283261000Y-70239200D01*
%TO.N,CLK*%
X306443000Y-77977200D02*
X312303000Y-77977200D01*
X312303000Y-77977200D02*
X314160000Y-76120000D01*
%TO.N,Net-(U31-THR)*%
X235540000Y-148460000D02*
X236000000Y-148000000D01*
X232500000Y-148460000D02*
X235540000Y-148460000D01*
%TO.N,/ALU/A_7*%
X276540000Y-72500000D02*
X259000000Y-72500000D01*
X280040000Y-76000000D02*
X276540000Y-72500000D01*
%TO.N,/ALU/A_4*%
X332759000Y-82339000D02*
X337110000Y-86690000D01*
X306339000Y-82339000D02*
X332759000Y-82339000D01*
X306000000Y-82000000D02*
X306339000Y-82339000D01*
%TO.N,ZF*%
X209500000Y-121000000D02*
X209500000Y-128800000D01*
X280300000Y-91500000D02*
X280500000Y-91300000D01*
X220797000Y-92101000D02*
X221398000Y-91500000D01*
X312931000Y-90669000D02*
X346481000Y-90669000D01*
X312500000Y-91100000D02*
X312931000Y-90669000D01*
X209500000Y-128800000D02*
X211240000Y-130540000D01*
X211240000Y-92540000D02*
X212040000Y-91740000D01*
X221398000Y-91500000D02*
X254000000Y-91500000D01*
X212040000Y-91740000D02*
X219490000Y-91740000D01*
X369400000Y-90100000D02*
X371000000Y-88500000D01*
X211240000Y-92540000D02*
X209000000Y-94780000D01*
X347250000Y-89900000D02*
X348066000Y-89900000D01*
X401581000Y-88500000D02*
X402000000Y-88081000D01*
X376500000Y-88500000D02*
X401581000Y-88500000D01*
X353000000Y-90100000D02*
X369400000Y-90100000D01*
X266058000Y-91500000D02*
X280300000Y-91500000D01*
X209000000Y-94780000D02*
X209000000Y-104500000D01*
X346481000Y-90669000D02*
X347250000Y-89900000D01*
X219851000Y-92101000D02*
X220797000Y-92101000D01*
X219490000Y-91740000D02*
X219851000Y-92101000D01*
%TO.N,Net-(D12-A)*%
X359062000Y-85469000D02*
X346049000Y-85469000D01*
X346049000Y-85469000D02*
X344730000Y-84150000D01*
X359281000Y-85688700D02*
X359062000Y-85469000D01*
%TO.N,Net-(D15-A)*%
X360230000Y-117150000D02*
X366829000Y-110551000D01*
X353500000Y-92000000D02*
X364658000Y-92000000D01*
X364658000Y-92000000D02*
X366829000Y-94171000D01*
X366829000Y-110551000D02*
X366829000Y-94171000D01*
X366829000Y-94171000D02*
X372500000Y-88500000D01*
%TO.N,Net-(D18-A)*%
X355449000Y-106091000D02*
X360358000Y-111000000D01*
X341900000Y-106091000D02*
X355449000Y-106091000D01*
X363500000Y-111000000D02*
X364094000Y-111594000D01*
X360358000Y-111000000D02*
X363500000Y-111000000D01*
X340400000Y-104591000D02*
X341900000Y-106091000D01*
%TO.N,/MAR/A0*%
X61099000Y-76599000D02*
X61099000Y-98679000D01*
X61099000Y-98679000D02*
X65920000Y-103500000D01*
X48090000Y-64080000D02*
X48580000Y-64080000D01*
X50740000Y-64080000D02*
X48090000Y-64080000D01*
X48580000Y-64080000D02*
X61099000Y-76599000D01*
X56580000Y-58240000D02*
X50740000Y-64080000D01*
%TO.N,/ALU/B_6*%
X255861000Y-114592000D02*
X255861000Y-113648000D01*
X258110000Y-111399000D02*
X271009000Y-111399000D01*
X271009000Y-111399000D02*
X271165000Y-111555000D01*
X250519000Y-115259000D02*
X255193000Y-115259000D01*
X255861000Y-113648000D02*
X258110000Y-111399000D01*
X249380000Y-114120000D02*
X250519000Y-115259000D01*
X255193000Y-115259000D02*
X255861000Y-114592000D01*
%TO.N,/ALU/B_4*%
X318730000Y-143154000D02*
X302500000Y-126924000D01*
X302500000Y-126924000D02*
X302500000Y-124500000D01*
X318730000Y-144070000D02*
X318730000Y-143154000D01*
%TO.N,Net-(D27-A)*%
X92845000Y-104655000D02*
X83238100Y-104655000D01*
X144752900Y-69152900D02*
X115348100Y-69152900D01*
X82430000Y-102131900D02*
X78102500Y-97804400D01*
X145720000Y-70120000D02*
X144752900Y-69152900D01*
X83238100Y-104655000D02*
X82430000Y-103846900D01*
X114649100Y-69851900D02*
X112041300Y-69851900D01*
X82430000Y-103846900D02*
X82430000Y-102131900D01*
X91168800Y-74703200D02*
X91512500Y-75046900D01*
X94000000Y-103500000D02*
X92845000Y-104655000D01*
X115348100Y-69152900D02*
X114649100Y-69851900D01*
X81370800Y-74703200D02*
X91168800Y-74703200D01*
%TO.N,/ALU/B_1*%
X259120000Y-112000000D02*
X270500000Y-112000000D01*
X303500000Y-110200000D02*
X304760000Y-110200000D01*
X304760000Y-110200000D02*
X308180000Y-113620000D01*
X257000000Y-114120000D02*
X259120000Y-112000000D01*
%TO.N,Net-(D28-A)*%
X131399000Y-88748943D02*
X132901057Y-90251000D01*
X133963700Y-75496100D02*
X134459800Y-75000000D01*
X132901057Y-90251000D02*
X132983200Y-90251000D01*
X134459800Y-75000000D02*
X145920000Y-75000000D01*
X134570065Y-85929935D02*
X133720122Y-85929935D01*
X145920000Y-75000000D02*
X150800000Y-70120000D01*
X131399000Y-88251057D02*
X131399000Y-88748943D01*
X133720122Y-85929935D02*
X131399000Y-88251057D01*
%TO.N,/ALU/B_0*%
X257625000Y-110955000D02*
X272522000Y-110955000D01*
X254460000Y-114120000D02*
X257625000Y-110955000D01*
%TO.N,Net-(D30-A)*%
X138916700Y-95720900D02*
X138826200Y-95630400D01*
X106840300Y-111475400D02*
X107157400Y-111158300D01*
X107157400Y-111158300D02*
X123528500Y-111158300D01*
X123636400Y-111266200D02*
X123528500Y-111158300D01*
X142446700Y-95720900D02*
X138916700Y-95720900D01*
X105914400Y-111475400D02*
X106840300Y-111475400D01*
X150366100Y-93715900D02*
X144451700Y-93715900D01*
X123528500Y-111158300D02*
X123636400Y-111266200D01*
X123528500Y-111158300D02*
X123636400Y-111266200D01*
X144451700Y-93715900D02*
X142446700Y-95720900D01*
X123108100Y-100197800D02*
X122955600Y-100045300D01*
X106840300Y-111475400D02*
X105914400Y-111475400D01*
X128111200Y-100111500D02*
X128024900Y-100197800D01*
X128024900Y-100197800D02*
X123108100Y-100197800D01*
%TO.N,Net-(D31-A)*%
X125849000Y-78663950D02*
X125849000Y-80051000D01*
X134500000Y-70468700D02*
X134044250Y-70468700D01*
X113900000Y-106500000D02*
X107160000Y-106500000D01*
X134044250Y-70468700D02*
X125849000Y-78663950D01*
X125849000Y-80051000D02*
X125500000Y-80400000D01*
%TO.N,HLT*%
X164891000Y-62391300D02*
X164891000Y-62893000D01*
X137840000Y-37340000D02*
X162051000Y-61551300D01*
X177689000Y-132813000D02*
X177689000Y-135313000D01*
X176490000Y-136511000D02*
X174593000Y-136511000D01*
X169513000Y-141591000D02*
X168727000Y-141591000D01*
X177689000Y-135313000D02*
X176490000Y-136511000D01*
X174593000Y-136511000D02*
X169513000Y-141591000D01*
X164891000Y-62893000D02*
X171170000Y-69171300D01*
X211240000Y-105240000D02*
X207760000Y-105240000D01*
X181701000Y-131299000D02*
X179203000Y-131299000D01*
X175000000Y-70318300D02*
X175000000Y-74000000D01*
X137840000Y-36500000D02*
X137840000Y-37340000D01*
X164051000Y-61551300D02*
X164891000Y-62391300D01*
X171170000Y-69171300D02*
X173853000Y-69171300D01*
X173853000Y-69171300D02*
X175000000Y-70318300D01*
X162051000Y-61551300D02*
X164051000Y-61551300D01*
X149510000Y-160808000D02*
X149510000Y-162000000D01*
X179203000Y-131299000D02*
X177689000Y-132813000D01*
X207760000Y-105240000D02*
X181701000Y-131299000D01*
X168727000Y-141591000D02*
X149510000Y-160808000D01*
%TO.N,Net-(D39-A)*%
X211240000Y-107780000D02*
X212341000Y-106679000D01*
X168867000Y-146901000D02*
X170395000Y-146901000D01*
X212341000Y-95477300D02*
X213870000Y-93948700D01*
X181799000Y-133701000D02*
X183441000Y-133701000D01*
X212341000Y-106679000D02*
X212341000Y-95477300D01*
X214013000Y-93948700D02*
X215000000Y-92961700D01*
X170395000Y-146901000D02*
X176347000Y-140949000D01*
X213870000Y-93948700D02*
X214013000Y-93948700D01*
X183441000Y-133701000D02*
X183441000Y-132059000D01*
X177133000Y-140949000D02*
X177689000Y-140393000D01*
X177689000Y-140393000D02*
X177689000Y-137811000D01*
X215000000Y-92961700D02*
X215000000Y-92500000D01*
X177689000Y-137811000D02*
X181799000Y-133701000D01*
X183441000Y-132059000D02*
X191000000Y-124500000D01*
X154510000Y-162000000D02*
X154510000Y-161258000D01*
X154510000Y-161258000D02*
X168867000Y-146901000D01*
X191000000Y-124500000D02*
X192000000Y-124500000D01*
X176347000Y-140949000D02*
X177133000Y-140949000D01*
%TO.N,RI*%
X178499000Y-142003000D02*
X181039000Y-139463000D01*
X184525000Y-139463000D02*
X191449000Y-132538000D01*
X191449000Y-132538000D02*
X191449000Y-131051000D01*
X166500000Y-131398000D02*
X161803000Y-126701000D01*
X191449000Y-131051000D02*
X193500000Y-129000000D01*
X159510000Y-162000000D02*
X178255000Y-143255000D01*
X202000000Y-123500000D02*
X202000000Y-119560000D01*
X166500000Y-132201000D02*
X166500000Y-131398000D01*
X161803000Y-126701000D02*
X154201000Y-126701000D01*
X178499000Y-143011000D02*
X178499000Y-142003000D01*
X178255000Y-143255000D02*
X178499000Y-143011000D01*
X154201000Y-126701000D02*
X133500000Y-106000000D01*
X202000000Y-119560000D02*
X211240000Y-110320000D01*
X181039000Y-139463000D02*
X184525000Y-139463000D01*
%TO.N,Net-(D42-A)*%
X188500000Y-143010000D02*
X188500000Y-142000000D01*
X169510000Y-162000000D02*
X188500000Y-143010000D01*
%TO.N,Net-(D43-A)*%
X194299000Y-112870000D02*
X195990000Y-112870000D01*
X174510000Y-162000000D02*
X189500000Y-147010000D01*
X195990000Y-112870000D02*
X196000000Y-112860000D01*
X185689000Y-94424400D02*
X184903000Y-94424400D01*
X184903000Y-94424400D02*
X182000000Y-91521700D01*
X194299000Y-112870000D02*
X185689000Y-104259000D01*
X185689000Y-104259000D02*
X185689000Y-94424400D01*
X189500000Y-147010000D02*
X189500000Y-135500000D01*
X182000000Y-91521700D02*
X182000000Y-86500000D01*
%TO.N,Net-(D44-A)*%
X177500000Y-69080000D02*
X177500000Y-71500000D01*
X170920000Y-62500000D02*
X177500000Y-69080000D01*
%TO.N,Net-(D45-A)*%
X191431000Y-89431300D02*
X185500000Y-83500000D01*
X194749000Y-91427300D02*
X192753000Y-89431300D01*
X196000000Y-107780000D02*
X194749000Y-106529000D01*
X192753000Y-89431300D02*
X191431000Y-89431300D01*
X194749000Y-106529000D02*
X194749000Y-91427300D01*
%TO.N,SU*%
X318730000Y-138990000D02*
X326350000Y-138990000D01*
X327331000Y-120591000D02*
X326230000Y-119490000D01*
X327331000Y-126009000D02*
X327331000Y-120591000D01*
X318730000Y-138990000D02*
X317509000Y-137769000D01*
X212481000Y-147021000D02*
X244222000Y-147021000D01*
X319679000Y-145661000D02*
X319679000Y-139939000D01*
X317509000Y-128211000D02*
X318610000Y-127110000D01*
X326230000Y-119490000D02*
X335430000Y-119490000D01*
X302000000Y-146000000D02*
X302610000Y-146610000D01*
X326230000Y-127110000D02*
X327331000Y-126009000D01*
X211240000Y-145780000D02*
X212481000Y-147021000D01*
X318610000Y-127110000D02*
X319711000Y-126009000D01*
X245243000Y-146000000D02*
X290500000Y-146000000D01*
X318730000Y-146610000D02*
X326350000Y-146610000D01*
X302610000Y-146610000D02*
X318730000Y-146610000D01*
X244222000Y-147021000D02*
X245243000Y-146000000D01*
X318730000Y-146610000D02*
X319679000Y-145661000D01*
X319711000Y-126009000D02*
X319711000Y-120591000D01*
X318610000Y-127110000D02*
X326230000Y-127110000D01*
X319711000Y-120591000D02*
X318610000Y-119490000D01*
X319679000Y-139939000D02*
X318730000Y-138990000D01*
X335430000Y-119490000D02*
X337230000Y-117690000D01*
X317509000Y-137769000D02*
X317509000Y-128211000D01*
%TO.N,OI*%
X225168000Y-160960000D02*
X240380000Y-160960000D01*
X211240000Y-150860000D02*
X215068000Y-150860000D01*
X215068000Y-150860000D02*
X225168000Y-160960000D01*
%TO.N,CE*%
X219500000Y-72500000D02*
X225000000Y-67000000D01*
X225000000Y-67000000D02*
X225000000Y-49000000D01*
%TO.N,Net-(D51-A)*%
X212000000Y-158500000D02*
X204360000Y-150860000D01*
X214569000Y-99671300D02*
X214569000Y-115081000D01*
X197101000Y-132549000D02*
X197101000Y-149759000D01*
X204360000Y-150860000D02*
X196000000Y-150860000D01*
X197101000Y-149759000D02*
X196000000Y-150860000D01*
X214569000Y-115081000D02*
X197101000Y-132549000D01*
X221240000Y-93000000D02*
X214569000Y-99671300D01*
%TO.N,Net-(D52-A)*%
X218309000Y-160799000D02*
X219510000Y-162000000D01*
X203000000Y-152500000D02*
X211299000Y-160799000D01*
X211299000Y-160799000D02*
X218309000Y-160799000D01*
%TO.N,Net-(D61-A)*%
X188900000Y-132000000D02*
X188000000Y-131100000D01*
X188000000Y-131100000D02*
X188000000Y-128500000D01*
%TO.N,BUS_2*%
X101681000Y-80681000D02*
X101681000Y-84463900D01*
X107000000Y-89782900D02*
X107000000Y-94000000D01*
X101681000Y-84463900D02*
X107000000Y-89782900D01*
X100500000Y-79500000D02*
X101681000Y-80681000D01*
%TO.N,BUS_3*%
X231194000Y-41660000D02*
X229187000Y-43666800D01*
X292240000Y-148120000D02*
X301509000Y-138851000D01*
X132801000Y-95699000D02*
X132801000Y-123425000D01*
X134134000Y-94601000D02*
X133899000Y-94601000D01*
X229187000Y-43666800D02*
X229186900Y-43666900D01*
X122760000Y-133466000D02*
X122760000Y-136620000D01*
X94368700Y-70520400D02*
X87000000Y-63151700D01*
X229186800Y-43666800D02*
X229186900Y-43666900D01*
X133899000Y-94601000D02*
X132801000Y-95699000D01*
X149918000Y-85454000D02*
X143281000Y-85454000D01*
X94368700Y-73191700D02*
X94368700Y-70520400D01*
X301509000Y-138851000D02*
X301509000Y-107591000D01*
X383401000Y-71019200D02*
X384540000Y-69880000D01*
X257000000Y-106500000D02*
X257379000Y-106121000D01*
X257379000Y-106121000D02*
X257379000Y-69639200D01*
X304949000Y-104151000D02*
X304949000Y-69449100D01*
X259399000Y-108899000D02*
X257000000Y-106500000D01*
X304949000Y-69449100D02*
X306519000Y-71019200D01*
X304000000Y-68500000D02*
X304949000Y-69449100D01*
X134134000Y-94601000D02*
X133899000Y-94601000D01*
X257379000Y-69639200D02*
X256240000Y-68500000D01*
X301509000Y-107591000D02*
X303100000Y-106000000D01*
X304949000Y-69448700D02*
X304000000Y-68500000D01*
X223158000Y-49695500D02*
X200306000Y-49695500D01*
X87000000Y-63151700D02*
X87000000Y-58120000D01*
X256240000Y-68500000D02*
X241981000Y-54240800D01*
X235500000Y-41660000D02*
X231194000Y-41660000D01*
X132801000Y-123425000D02*
X122760000Y-133466000D01*
X142180000Y-86555000D02*
X134134000Y-94601000D01*
X306519000Y-71019200D02*
X383401000Y-71019200D01*
X303100000Y-106000000D02*
X304949000Y-104151000D01*
X300201000Y-108899000D02*
X259399000Y-108899000D01*
X72339200Y-137759000D02*
X71200000Y-136620000D01*
X241981000Y-48140800D02*
X235500000Y-41660000D01*
X99141000Y-77964000D02*
X94368700Y-73191700D01*
X301509000Y-107591000D02*
X300201000Y-108899000D01*
X229186900Y-43666900D02*
X223158000Y-49695500D01*
X172603000Y-77399000D02*
X157973000Y-77399000D01*
X133899000Y-94601000D02*
X105439000Y-94601000D01*
X99141000Y-90861000D02*
X99141000Y-77964000D01*
X200306000Y-49695500D02*
X172603000Y-77399000D01*
X303100000Y-106000000D02*
X301509000Y-107591000D01*
X104160000Y-95880000D02*
X99141000Y-90861000D01*
X157973000Y-77399000D02*
X149918000Y-85454000D01*
X143281000Y-85454000D02*
X142180000Y-86555000D01*
X121621000Y-137759000D02*
X72339200Y-137759000D01*
X304949000Y-69449100D02*
X304949000Y-69448700D01*
X241981000Y-54240800D02*
X241981000Y-48140800D01*
X122760000Y-136620000D02*
X121621000Y-137759000D01*
X105439000Y-94601000D02*
X104160000Y-95880000D01*
%TO.N,IR_6*%
X199101000Y-113050000D02*
X199100000Y-113051000D01*
X199101000Y-95641000D02*
X199101000Y-113050000D01*
X193000000Y-127540000D02*
X196000000Y-130540000D01*
X193000000Y-121000000D02*
X193000000Y-127540000D01*
X196000000Y-92540000D02*
X199101000Y-95641000D01*
%TO.N,IR_5*%
X123496000Y-147004000D02*
X123601000Y-146899000D01*
X198500000Y-101500000D02*
X198500000Y-97580000D01*
X171091000Y-138409000D02*
X176000000Y-133500000D01*
X198500000Y-130580000D02*
X198500000Y-116000000D01*
X100960000Y-151620000D02*
X99759000Y-150419000D01*
X67219000Y-150419000D02*
X61040000Y-144240000D01*
X168171000Y-139607000D02*
X169370000Y-138409000D01*
X99759000Y-150419000D02*
X67219000Y-150419000D01*
X169370000Y-138409000D02*
X171091000Y-138409000D01*
X198500000Y-97580000D02*
X196000000Y-95080000D01*
X196000000Y-133080000D02*
X198500000Y-130580000D01*
X168171000Y-140471000D02*
X168171000Y-139607000D01*
X123601000Y-146899000D02*
X161743000Y-146899000D01*
X161743000Y-146899000D02*
X168171000Y-140471000D01*
%TO.N,Net-(D117-A)*%
X73740000Y-144240000D02*
X79518000Y-150018000D01*
X120358000Y-150018000D02*
X121960000Y-151620000D01*
X79518000Y-150018000D02*
X120358000Y-150018000D01*
%TO.N,Net-(U31-DIS)*%
X232730000Y-145690000D02*
X232500000Y-145920000D01*
X241500000Y-145690000D02*
X232730000Y-145690000D01*
%TO.N,Net-(R64-Pad1)*%
X103580000Y-65580000D02*
X103500000Y-65500000D01*
X103500000Y-65500000D02*
X103500000Y-62500000D01*
X103580000Y-65690000D02*
X103580000Y-65580000D01*
X101040000Y-65690000D02*
X103580000Y-65690000D01*
%TO.N,Net-(U24-I0d)*%
X89289900Y-93899000D02*
X101330000Y-93899000D01*
X41960000Y-103500000D02*
X43061000Y-104601000D01*
X67021000Y-103382000D02*
X73421900Y-96981000D01*
X101330000Y-93899000D02*
X101466000Y-94034300D01*
X67021000Y-104285000D02*
X67021000Y-103382000D01*
X66705200Y-104601000D02*
X67021000Y-104285000D01*
X86207900Y-96981000D02*
X89289900Y-93899000D01*
X43061000Y-104601000D02*
X66705200Y-104601000D01*
X73421900Y-96981000D02*
X86207900Y-96981000D01*
%TO.N,Net-(U24-I0a)*%
X132000000Y-88500000D02*
X132601000Y-89101000D01*
X84000000Y-91900000D02*
X96500000Y-91900000D01*
X132601000Y-89101000D02*
X137094000Y-89101000D01*
X137094000Y-89101000D02*
X139640000Y-86555000D01*
%TO.N,Net-(U24-I0c)*%
X96399000Y-93101000D02*
X98000000Y-91500000D01*
X69000000Y-98000000D02*
X70500000Y-98000000D01*
X70500000Y-98000000D02*
X72439000Y-96061000D01*
X72439000Y-95423900D02*
X74761900Y-93101000D01*
X111545097Y-88800003D02*
X113149000Y-87196100D01*
X110000000Y-88800003D02*
X111545097Y-88800003D01*
X113149000Y-87196100D02*
X113149000Y-85351000D01*
X113149000Y-85351000D02*
X113961000Y-84539300D01*
X72439000Y-96061000D02*
X72439000Y-95423900D01*
X74761900Y-93101000D02*
X96399000Y-93101000D01*
%TO.N,Net-(U1-Q)*%
X62566100Y-35906000D02*
X103266000Y-35906000D01*
X60461100Y-33801000D02*
X62566100Y-35906000D01*
X103911000Y-35261100D02*
X123039000Y-35261100D01*
X53319000Y-33801000D02*
X60461100Y-33801000D01*
X45000000Y-42120000D02*
X53319000Y-33801000D01*
X103266000Y-35906000D02*
X103911000Y-35261100D01*
X123039000Y-35261100D02*
X129540000Y-28760000D01*
%TO.N,Net-(U3-Q)*%
X122056000Y-33704000D02*
X101371000Y-33704000D01*
X101371000Y-33704000D02*
X100270000Y-34805000D01*
X128101000Y-27659000D02*
X149319000Y-27659000D01*
X127000000Y-28760000D02*
X122056000Y-33704000D01*
X149319000Y-27659000D02*
X150540000Y-28880000D01*
X127000000Y-28760000D02*
X128101000Y-27659000D01*
%TO.N,Net-(U4-Pad9)*%
X118661000Y-38201000D02*
X129494000Y-38201000D01*
X116840000Y-36380000D02*
X118661000Y-38201000D01*
%TO.N,Net-(U24-Za)*%
X81322500Y-87257500D02*
X97576000Y-87257500D01*
X98296000Y-86537500D02*
X98296000Y-84194000D01*
X118197300Y-82214300D02*
X117824300Y-82587300D01*
X96938300Y-81825200D02*
X97929300Y-80834200D01*
X117824300Y-82587400D02*
X117418000Y-82587400D01*
X144395600Y-81435100D02*
X142464700Y-81435100D01*
X117824300Y-82587300D02*
X117824300Y-82587400D01*
X78080000Y-90500000D02*
X81322500Y-87257500D01*
X96938300Y-82836300D02*
X96938300Y-81825200D01*
X97929300Y-80834200D02*
X98128600Y-80834200D01*
X117418000Y-82587400D02*
X117416300Y-82589100D01*
X98296000Y-84194000D02*
X96938300Y-82836300D01*
X141685500Y-82214300D02*
X118197300Y-82214300D01*
X142464700Y-81435100D02*
X141685500Y-82214300D01*
X97576000Y-87257500D02*
X98296000Y-86537500D01*
%TO.N,~{CLK}*%
X164500000Y-55540000D02*
X164500000Y-61000000D01*
X145460000Y-36500000D02*
X164500000Y-55540000D01*
X167000000Y-68500000D02*
X167000000Y-70900000D01*
X167000000Y-70900000D02*
X172000000Y-75900000D01*
%TO.N,Net-(U23-D2)*%
X80620000Y-90500000D02*
X81763500Y-89356500D01*
X86611000Y-91236800D02*
X94829800Y-91236800D01*
X81763500Y-89356500D02*
X84730700Y-89356500D01*
X126079300Y-108269500D02*
X106324700Y-108269500D01*
X84730700Y-89356500D02*
X86611000Y-91236800D01*
X130430100Y-97269900D02*
X130430100Y-103918700D01*
X131700000Y-96000000D02*
X130430100Y-97269900D01*
X130430100Y-103918700D02*
X126079300Y-108269500D01*
%TO.N,Net-(U52-Zb)*%
X145460000Y-28880000D02*
X145460000Y-32403000D01*
X169971000Y-66542600D02*
X172000000Y-68571300D01*
X149101000Y-39573900D02*
X169971000Y-60444200D01*
X149101000Y-36043900D02*
X149101000Y-39573900D01*
X145460000Y-32403000D02*
X149101000Y-36043900D01*
X169971000Y-60444200D02*
X169971000Y-66542600D01*
%TO.N,CLR*%
X300560000Y-106000000D02*
X300500000Y-105940000D01*
X89540000Y-58120000D02*
X90488700Y-59068700D01*
X319000000Y-74600000D02*
X405105000Y-74600000D01*
X99741000Y-77996900D02*
X99741000Y-80589500D01*
X98500000Y-65690000D02*
X99448700Y-66638700D01*
X99448700Y-66638700D02*
X99448700Y-77704600D01*
X405105000Y-74600000D02*
X406380000Y-75875000D01*
X100219000Y-113021000D02*
X101500000Y-114302000D01*
X101500000Y-114302000D02*
X101500000Y-130000000D01*
X287900000Y-71900000D02*
X287000000Y-71000000D01*
X101681000Y-92319000D02*
X101564000Y-92435700D01*
X99741000Y-84500000D02*
X101681000Y-86440000D01*
X101681000Y-86440000D02*
X101681000Y-92319000D01*
X91878700Y-59068700D02*
X98500000Y-65690000D01*
X300500000Y-71900000D02*
X287900000Y-71900000D01*
X300500000Y-105940000D02*
X300500000Y-71900000D01*
X100000000Y-98500000D02*
X100219000Y-98719200D01*
X99448700Y-77704600D02*
X99741000Y-77996900D01*
X100219000Y-98719200D02*
X100219000Y-113021000D01*
X263055000Y-121646000D02*
X274000000Y-110701000D01*
X211534000Y-121646000D02*
X263055000Y-121646000D01*
X90488700Y-59068700D02*
X91878700Y-59068700D01*
%TO.N,~{BI}*%
X313260000Y-106000000D02*
X315800000Y-106000000D01*
X218871000Y-133449000D02*
X234277000Y-133449000D01*
X262852000Y-121000000D02*
X272176000Y-111676000D01*
X247000000Y-121000000D02*
X262852000Y-121000000D01*
X214740000Y-137580000D02*
X218871000Y-133449000D01*
X292000000Y-106000000D02*
X294540000Y-106000000D01*
X245479000Y-122246000D02*
X246000000Y-122246000D01*
X234277000Y-133449000D02*
X245479000Y-122246000D01*
%TO.N,Net-(U10-Pad9)*%
X383350000Y-116350000D02*
X377169000Y-110169000D01*
X377169000Y-110169000D02*
X371029000Y-110169000D01*
X371029000Y-110169000D02*
X367850000Y-106990000D01*
%TO.N,Net-(U12-D1)*%
X375730000Y-116350000D02*
X379000000Y-113080000D01*
X407819000Y-79516000D02*
X411460000Y-75875000D01*
X407819000Y-83858100D02*
X407819000Y-79516000D01*
X382894000Y-107629000D02*
X384048000Y-107629000D01*
X380000000Y-112000000D02*
X380000000Y-110523000D01*
X379000000Y-113080000D02*
X379000000Y-113000000D01*
X384048000Y-107629000D02*
X407819000Y-83858100D01*
X380000000Y-110523000D02*
X382894000Y-107629000D01*
%TO.N,Net-(U10-Pad2)*%
X375730000Y-106190000D02*
X372540000Y-103000000D01*
X372540000Y-103000000D02*
X367500000Y-103000000D01*
%TO.N,Net-(U12-D0)*%
X408920000Y-75875000D02*
X397124000Y-87671000D01*
X351369000Y-87671000D02*
X344730000Y-94310000D01*
X397124000Y-87671000D02*
X351369000Y-87671000D01*
%TO.N,Net-(U13-C0)*%
X344850000Y-120230000D02*
X338331000Y-113711000D01*
X338331000Y-92991000D02*
X337110000Y-91770000D01*
X338331000Y-113711000D02*
X338331000Y-92991000D01*
%TO.N,Net-(U13-B1)*%
X335000000Y-102500000D02*
X335000000Y-91500000D01*
X329826000Y-107674000D02*
X335000000Y-102500000D01*
%TO.N,Net-(U14-B2)*%
X334000000Y-108220000D02*
X337230000Y-104990000D01*
X334000000Y-112109000D02*
X334000000Y-108220000D01*
%TO.N,BUS_4*%
X289460000Y-106000000D02*
X287460000Y-108000000D01*
X290280000Y-71000000D02*
X304349000Y-71000000D01*
X155000000Y-84000000D02*
X154102000Y-83101800D01*
X254460000Y-106500000D02*
X254839000Y-106121000D01*
X102759000Y-97019200D02*
X102759000Y-129439000D01*
X108681000Y-135361000D02*
X109820000Y-136500000D01*
X292240000Y-140500000D02*
X292240000Y-115740000D01*
X109820000Y-136500000D02*
X108681000Y-135361000D01*
X253700000Y-68500000D02*
X247219000Y-74980800D01*
X125787000Y-92000000D02*
X108000000Y-92000000D01*
X102759000Y-129439000D02*
X108681000Y-135361000D01*
X290409000Y-109909000D02*
X290000000Y-109500000D01*
X287660000Y-68380000D02*
X290280000Y-71000000D01*
X305549000Y-71500000D02*
X381500000Y-71500000D01*
X178901000Y-77714000D02*
X177800000Y-78815000D01*
X172615000Y-84000000D02*
X155000000Y-84000000D01*
X190793000Y-74980800D02*
X188060000Y-77714000D01*
X290409000Y-113909000D02*
X290409000Y-109909000D01*
X247219000Y-74980800D02*
X190793000Y-74980800D01*
X134787000Y-83000000D02*
X125787000Y-92000000D01*
X69919200Y-135361000D02*
X68660000Y-136620000D01*
X101620000Y-95880000D02*
X102759000Y-97019200D01*
X108681000Y-135361000D02*
X69919200Y-135361000D01*
X381500000Y-71500000D02*
X382000000Y-72000000D01*
X254839000Y-69639200D02*
X253700000Y-68500000D01*
X151500000Y-83000000D02*
X134787000Y-83000000D01*
X287460000Y-108000000D02*
X259500000Y-108000000D01*
X188060000Y-77714000D02*
X178901000Y-77714000D01*
X177800000Y-78815000D02*
X172615000Y-84000000D01*
X292240000Y-115740000D02*
X290409000Y-113909000D01*
X254839000Y-106121000D02*
X254839000Y-69639200D01*
%TO.N,BUS_6*%
X175260000Y-86435000D02*
X168695000Y-93000000D01*
X97940800Y-127862000D02*
X100297900Y-130219000D01*
X134500000Y-93000000D02*
X134000000Y-92500000D01*
X118500000Y-92500000D02*
X118000000Y-93000000D01*
X97940800Y-97280800D02*
X97940800Y-127862000D01*
X101500000Y-131421000D02*
X100298000Y-130219000D01*
X126150257Y-92500000D02*
X118500000Y-92500000D01*
X284000000Y-110000000D02*
X282789000Y-111211000D01*
X284380000Y-106000000D02*
X283299000Y-104919000D01*
X282789000Y-111211000D02*
X282789000Y-139791000D01*
X126319057Y-92668800D02*
X126150257Y-92500000D01*
X282789000Y-139791000D02*
X282080000Y-140500000D01*
X283529000Y-71528700D02*
X283000000Y-71000000D01*
X126816943Y-92668800D02*
X126319057Y-92668800D01*
X168695000Y-93000000D02*
X137000000Y-93000000D01*
X283529000Y-76393000D02*
X283529000Y-71528700D01*
X96540000Y-95880000D02*
X97940800Y-97280800D01*
X281561000Y-67360800D02*
X256969000Y-67360800D01*
X283299000Y-104919000D02*
X283299000Y-76622700D01*
X100298000Y-130219000D02*
X100297900Y-130219000D01*
X256969000Y-67360800D02*
X255054000Y-65445700D01*
X194500000Y-77501000D02*
X190275000Y-77501000D01*
X250620000Y-66500000D02*
X248620000Y-68500000D01*
X126985743Y-92500000D02*
X126816943Y-92668800D01*
X243621000Y-73499000D02*
X195500000Y-73499000D01*
X251500000Y-66500000D02*
X250620000Y-66500000D01*
X182442000Y-85334000D02*
X176361000Y-85334000D01*
X100297900Y-130219000D02*
X69981000Y-130219000D01*
X176361000Y-85334000D02*
X175260000Y-86435000D01*
X69981000Y-130219000D02*
X63580000Y-136620000D01*
X282580000Y-68380000D02*
X281561000Y-67360800D01*
X190275000Y-77501000D02*
X182442000Y-85334000D01*
X283299000Y-76622700D02*
X283529000Y-76393000D01*
X248620000Y-68500000D02*
X243621000Y-73499000D01*
X134000000Y-92500000D02*
X126985743Y-92500000D01*
X100297900Y-130219000D02*
X101500000Y-131421000D01*
%TO.N,BUS_7*%
X97000000Y-114302000D02*
X97000000Y-128500000D01*
X95139200Y-112441000D02*
X97000000Y-114302000D01*
X281840000Y-106000000D02*
X281840000Y-76601700D01*
X281840000Y-76601700D02*
X281000000Y-75761700D01*
X278351000Y-113149000D02*
X281399000Y-110101000D01*
X280040000Y-68380000D02*
X279091000Y-69328700D01*
X281500000Y-110000000D02*
X281399000Y-110101000D01*
X281000000Y-75761700D02*
X281000000Y-71500000D01*
X95139200Y-97019200D02*
X95139200Y-112441000D01*
X278351000Y-139311000D02*
X278351000Y-113149000D01*
X281000000Y-71500000D02*
X280500000Y-71000000D01*
X281399000Y-110101000D02*
X281500000Y-110000000D01*
X94000000Y-95880000D02*
X95139200Y-97019200D01*
X250441000Y-110101000D02*
X246840000Y-106500000D01*
X281399000Y-110101000D02*
X250441000Y-110101000D01*
X279091000Y-69328700D02*
X267790000Y-69328700D01*
X267790000Y-69328700D02*
X267500000Y-69039200D01*
X279540000Y-140500000D02*
X278351000Y-139311000D01*
%TO.N,Net-(U24-Zb)*%
X152340000Y-86555000D02*
X154270600Y-84624400D01*
X154270600Y-84624400D02*
X158260600Y-84624400D01*
X73000000Y-90500000D02*
X77162300Y-86337700D01*
X77162300Y-86337700D02*
X97614600Y-86337700D01*
%TO.N,Net-(U21-D1)*%
X136401000Y-35399000D02*
X136401000Y-44259100D01*
X142920000Y-28880000D02*
X136401000Y-35399000D01*
X108500000Y-72160100D02*
X108500000Y-76500000D01*
X136401000Y-44259100D02*
X108500000Y-72160100D01*
%TO.N,Net-(U52-I0c)*%
X156845000Y-87655000D02*
X159500000Y-85000000D01*
X112400000Y-101600000D02*
X119500000Y-101600000D01*
X141500000Y-90400000D02*
X144245000Y-87655000D01*
X144245000Y-87655000D02*
X156845000Y-87655000D01*
%TO.N,Net-(U24-Zc)*%
X145805300Y-80389700D02*
X135475100Y-80389700D01*
X134052200Y-81812600D02*
X115073900Y-81812600D01*
X135475100Y-80389700D02*
X134052200Y-81812600D01*
X147260000Y-78935000D02*
X145805300Y-80389700D01*
X115073900Y-81812600D02*
X114679200Y-82207300D01*
%TO.N,Net-(U21-D2)*%
X137840000Y-28880000D02*
X137840000Y-30011400D01*
X130500000Y-44405700D02*
X101989000Y-72917000D01*
X137840000Y-30011400D02*
X130500000Y-37351400D01*
X101989000Y-73703000D02*
X100692000Y-75000000D01*
X101989000Y-72917000D02*
X101989000Y-73703000D01*
X100692000Y-75000000D02*
X100049000Y-75000000D01*
X130500000Y-37351400D02*
X130500000Y-44405700D01*
%TO.N,Net-(U24-Zd)*%
X103000000Y-79500000D02*
X107400000Y-79500000D01*
X107400000Y-79500000D02*
X109000000Y-81100000D01*
%TO.N,Net-(U23-D0)*%
X104559000Y-91458100D02*
X106000000Y-92899100D01*
X115791000Y-99290800D02*
X117500000Y-101000000D01*
X104559000Y-89559000D02*
X104559000Y-91458100D01*
X112068000Y-99290800D02*
X115791000Y-99290800D01*
X102500000Y-87500000D02*
X104559000Y-89559000D01*
X106000000Y-92899100D02*
X106000000Y-94000000D01*
%TO.N,Net-(U52-Za)*%
X141307100Y-88329700D02*
X141987800Y-88329700D01*
X118446400Y-82816000D02*
X118447200Y-82816800D01*
X118447200Y-82816800D02*
X132414900Y-82816800D01*
X107806100Y-85771900D02*
X108853800Y-84724200D01*
X141799700Y-91601700D02*
X140898300Y-90700300D01*
X108853800Y-84724200D02*
X112196000Y-84724200D01*
X141987800Y-88329700D02*
X141307100Y-88329700D01*
X165013300Y-91601700D02*
X141799700Y-91601700D01*
X140898300Y-90700300D02*
X140898300Y-89419200D01*
X170180000Y-86435000D02*
X165013300Y-91601700D01*
X140898300Y-89419200D02*
X141987800Y-88329700D01*
%TO.N,Net-(U26-Pad6)*%
X168620000Y-103000000D02*
X168620000Y-105540000D01*
X103580000Y-73310000D02*
X115270000Y-85000000D01*
X115270000Y-85000000D02*
X131000000Y-85000000D01*
%TO.N,Net-(U51-I1c)*%
X106789000Y-78210700D02*
X104478000Y-75899000D01*
X100150000Y-75899000D02*
X100049000Y-76000000D01*
X104478000Y-75899000D02*
X100150000Y-75899000D01*
%TO.N,~{AI}*%
X306500000Y-69648900D02*
X313011000Y-69648900D01*
X313011000Y-69648900D02*
X314160000Y-68500000D01*
X173460000Y-62500000D02*
X176460000Y-65500000D01*
X292740000Y-68380000D02*
X294009000Y-69648900D01*
X250500000Y-66000000D02*
X250936000Y-65564300D01*
X288239000Y-64599000D02*
X290000000Y-66359800D01*
X176460000Y-65500000D02*
X183500000Y-65500000D01*
X184675000Y-66175100D02*
X224225000Y-66175100D01*
X294009000Y-69648900D02*
X304000000Y-69648900D01*
X254958000Y-64651600D02*
X255010000Y-64599000D01*
X224225000Y-66175100D02*
X224400000Y-66000000D01*
X290200000Y-68380000D02*
X292740000Y-68380000D01*
X314160000Y-68500000D02*
X316700000Y-68500000D01*
X255010000Y-64599000D02*
X288239000Y-64599000D01*
X226000000Y-66000000D02*
X250500000Y-66000000D01*
%TO.N,~{AO}*%
X192500000Y-71000000D02*
X188500000Y-67000000D01*
X210500000Y-71000000D02*
X192500000Y-71000000D01*
%TO.N,Net-(U52-I0d)*%
X145651000Y-88256000D02*
X146252000Y-88857000D01*
X158252000Y-88857000D02*
X162708000Y-84401000D01*
X146252000Y-88857000D02*
X158252000Y-88857000D01*
X174099000Y-84401000D02*
X174500000Y-84000000D01*
X162708000Y-84401000D02*
X174099000Y-84401000D01*
%TO.N,~{J}*%
X221566800Y-38586800D02*
X221567000Y-38586800D01*
X223500000Y-60000000D02*
X223500000Y-51000000D01*
X223000000Y-43500000D02*
X223000000Y-40020000D01*
X223000000Y-40020000D02*
X221567000Y-38586800D01*
X222500000Y-61000000D02*
X223500000Y-60000000D01*
%TO.N,Net-(U33A-O2)*%
X344410000Y-155000000D02*
X346410000Y-157000000D01*
X295500000Y-155000000D02*
X344410000Y-155000000D01*
%TO.N,Net-(U33A-O3)*%
X301726000Y-157700000D02*
X266111000Y-157700000D01*
X266111000Y-157700000D02*
X265156000Y-158656000D01*
X303527000Y-155899000D02*
X301726000Y-157700000D01*
X317209000Y-155899000D02*
X303527000Y-155899000D01*
X318310000Y-157000000D02*
X317209000Y-155899000D01*
%TO.N,Net-(U33A-O0)*%
X289896000Y-154096000D02*
X292408000Y-154096000D01*
X292408000Y-154096000D02*
X292583000Y-154271000D01*
%TO.N,Net-(U34-G)*%
X354279000Y-158101000D02*
X342431000Y-158101000D01*
X355380000Y-157000000D02*
X354279000Y-158101000D01*
X342431000Y-158101000D02*
X341330000Y-157000000D01*
%TO.N,Net-(U34-C)*%
X347849000Y-171139000D02*
X348950000Y-172240000D01*
X350051000Y-171139000D02*
X361899000Y-171139000D01*
X320850000Y-172240000D02*
X321951000Y-171139000D01*
X361899000Y-171139000D02*
X363000000Y-172240000D01*
X333799000Y-171139000D02*
X334900000Y-172240000D01*
X270560000Y-171740000D02*
X272820000Y-174000000D01*
X272820000Y-174000000D02*
X319900000Y-174000000D01*
X348950000Y-172240000D02*
X350051000Y-171139000D01*
X321951000Y-171139000D02*
X333799000Y-171139000D01*
X336001000Y-171139000D02*
X347849000Y-171139000D01*
X334900000Y-172240000D02*
X336001000Y-171139000D01*
X319900000Y-174000000D02*
X320500000Y-174600000D01*
%TO.N,Net-(U34-DP)*%
X323390000Y-172240000D02*
X322130000Y-173500000D01*
X322130000Y-173500000D02*
X279940000Y-173500000D01*
X324491000Y-173341000D02*
X323390000Y-172240000D01*
X337440000Y-172240000D02*
X336339000Y-173341000D01*
X336339000Y-173341000D02*
X324491000Y-173341000D01*
X279940000Y-173500000D02*
X278180000Y-171740000D01*
%TO.N,Net-(U34-A)*%
X285880000Y-161500000D02*
X275640000Y-171740000D01*
X311500000Y-161500000D02*
X285880000Y-161500000D01*
%TO.N,Net-(U34-B)*%
X286739000Y-158101000D02*
X273100000Y-171740000D01*
X323390000Y-157000000D02*
X322289000Y-158101000D01*
X322289000Y-158101000D02*
X286739000Y-158101000D01*
%TO.N,Net-(U38-Q2)*%
X287160000Y-152600000D02*
X283260000Y-156500000D01*
X287160000Y-148120000D02*
X287160000Y-152600000D01*
%TO.N,Net-(U38-Cp)*%
X273704000Y-149259000D02*
X280241000Y-149259000D01*
X260798000Y-162165000D02*
X273704000Y-149259000D01*
X280941000Y-147648000D02*
X281988000Y-146601000D01*
X291219000Y-146601000D02*
X297320000Y-140500000D01*
X244255000Y-162165000D02*
X260798000Y-162165000D01*
X280941000Y-148559000D02*
X280941000Y-147648000D01*
X281988000Y-146601000D02*
X291219000Y-146601000D01*
X240380000Y-166040000D02*
X244255000Y-162165000D01*
X280241000Y-149259000D02*
X280941000Y-148559000D01*
%TO.N,Net-(U38-Q7)*%
X292956000Y-153496000D02*
X295960000Y-156500000D01*
X290496000Y-153496000D02*
X292956000Y-153496000D01*
%TO.N,Net-(U38-Q3)*%
X286400000Y-156500000D02*
X285800000Y-156500000D01*
X294780000Y-148120000D02*
X286400000Y-156500000D01*
%TO.N,Net-(U38-Q1)*%
X284620000Y-148120000D02*
X284620000Y-152600000D01*
X284620000Y-152600000D02*
X280720000Y-156500000D01*
%TO.N,Net-(U52-I0a)*%
X128051000Y-86049000D02*
X128500000Y-85600000D01*
X128051000Y-87196100D02*
X128051000Y-86049000D01*
X113000000Y-89000000D02*
X126247000Y-89000000D01*
X126247000Y-89000000D02*
X128051000Y-87196100D01*
%TO.N,Net-(U23-D1)*%
X128059000Y-102519000D02*
X121422000Y-102519000D01*
X121422000Y-102519000D02*
X114500000Y-95597100D01*
X114500000Y-95597100D02*
X114500000Y-95500000D01*
X129160000Y-103620000D02*
X128059000Y-102519000D01*
%TO.N,Net-(U23-D3)*%
X117146200Y-99169600D02*
X115798400Y-97821800D01*
X91406500Y-102130900D02*
X85641100Y-102130900D01*
X112122400Y-97821800D02*
X110694200Y-99250000D01*
X110694200Y-99250000D02*
X106327900Y-99250000D01*
X76691200Y-91651200D02*
X75540000Y-90500000D01*
X126620000Y-96000000D02*
X124393800Y-98226200D01*
X79174300Y-91415700D02*
X78938800Y-91651200D01*
X85641100Y-102130900D02*
X81318900Y-97808700D01*
X78938800Y-91651200D02*
X76691200Y-91651200D01*
X124393800Y-98226200D02*
X118193400Y-98226200D01*
X115798400Y-97821800D02*
X112122400Y-97821800D01*
%TO.N,Net-(U21-\u002AWE)*%
X117785400Y-107374600D02*
X121540000Y-103620000D01*
X106742400Y-107374600D02*
X117785400Y-107374600D01*
X70460000Y-90500000D02*
X67042200Y-93917800D01*
X67042200Y-93917800D02*
X67042200Y-94039000D01*
X71000000Y-103500000D02*
X79148100Y-111648100D01*
X79148100Y-111648100D02*
X93964300Y-111648100D01*
%TO.N,Net-(U52-Zd)*%
X93313000Y-71313000D02*
X92920535Y-70920535D01*
X157000000Y-73500000D02*
X157500000Y-73000000D01*
X82599800Y-71844600D02*
X93313000Y-71844600D01*
X168000000Y-73000000D02*
X168500000Y-73500000D01*
X157500000Y-73000000D02*
X168000000Y-73000000D01*
X93313000Y-71844600D02*
X93313000Y-71313000D01*
%TO.N,Net-(U21-\u002AO2)*%
X146692700Y-68552700D02*
X148260000Y-70120000D01*
X114706600Y-68552700D02*
X146692700Y-68552700D01*
%TO.N,Net-(U21-\u002AO1)*%
X79830000Y-102170000D02*
X73753500Y-102170000D01*
X81160000Y-103500000D02*
X79830000Y-102170000D01*
%TO.N,Net-(U21-\u002AO0)*%
X79328800Y-56801100D02*
X117150900Y-56801100D01*
X117150900Y-56801100D02*
X119988900Y-53963100D01*
%TO.N,Net-(U23-\u002AO0)*%
X138600000Y-93900000D02*
X133500000Y-99000000D01*
X141600000Y-93900000D02*
X138600000Y-93900000D01*
%TO.N,Net-(U18-I1a)*%
X87000000Y-50500000D02*
X85639400Y-49139400D01*
X62738900Y-49541100D02*
X61660000Y-50620000D01*
X73385800Y-49139400D02*
X73150400Y-49374800D01*
X72984100Y-49541100D02*
X62738900Y-49541100D01*
X85639400Y-49139400D02*
X73385800Y-49139400D01*
X73150400Y-49374800D02*
X72984100Y-49541100D01*
X73150400Y-49374800D02*
X72984100Y-49541100D01*
%TO.N,Net-(U18-I1b)*%
X71661300Y-51632100D02*
X55052100Y-51632100D01*
X55052100Y-51632100D02*
X54040000Y-50620000D01*
X84460000Y-50500000D02*
X83501100Y-49541100D01*
X83501100Y-49541100D02*
X73752300Y-49541100D01*
X73752300Y-49541100D02*
X71661300Y-51632100D01*
%TO.N,Net-(U18-I1c)*%
X55077100Y-54662900D02*
X51500000Y-58240000D01*
X55077100Y-54662800D02*
X55077100Y-54662900D01*
X81920000Y-50500000D02*
X77757200Y-54662800D01*
X77757200Y-54662800D02*
X55077100Y-54662800D01*
%TO.N,Net-(U18-I1d)*%
X60402100Y-56957900D02*
X77232700Y-56957900D01*
X59120000Y-58240000D02*
X60402100Y-56957900D01*
%TD*%
M02*
