M48
; DRILL file {KiCad 9.0.6} date 2025-12-09T11:30:10-0600
; FORMAT={-:-/ absolute / metric / decimal}
; #@! TF.CreationDate,2025-12-09T11:30:10-06:00
; #@! TF.GenerationSoftware,Kicad,Pcbnew,9.0.6
; #@! TF.FileFunction,Plated,1,6,PTH
FMAT,2
METRIC
; #@! TA.AperFunction,Plated,PTH,ViaDrill
T1C0.300
; #@! TA.AperFunction,Plated,PTH,ComponentDrill
T2C0.600
; #@! TA.AperFunction,Plated,PTH,ComponentDrill
T3C0.600
; #@! TA.AperFunction,Plated,PTH,ComponentDrill
T4C0.787
; #@! TA.AperFunction,Plated,PTH,ComponentDrill
T5C0.800
; #@! TA.AperFunction,Plated,PTH,ComponentDrill
T6C0.900
; #@! TA.AperFunction,Plated,PTH,ComponentDrill
T7C1.000
; #@! TA.AperFunction,Plated,PTH,ComponentDrill
T8C1.100
; #@! TA.AperFunction,Plated,PTH,ComponentDrill
T9C1.118
%
G90
G05
T1
X25.676Y-99.124
X25.676Y-100.124
X25.676Y-101.124
X26.676Y-99.124
X26.676Y-100.124
X26.676Y-101.124
X27.676Y-99.124
X27.676Y-100.124
X27.676Y-101.124
X36.0Y-19.5
X36.0Y-20.5
X36.0Y-21.5
X36.0Y-74.0
X36.0Y-75.0
X36.0Y-76.0
X37.0Y-19.5
X37.0Y-20.5
X37.0Y-21.5
X37.0Y-74.0
X37.0Y-75.0
X37.0Y-76.0
X38.0Y-19.5
X38.0Y-20.5
X38.0Y-21.5
X38.0Y-74.0
X38.0Y-75.0
X38.0Y-76.0
X52.0Y-187.0
X52.0Y-188.0
X52.0Y-189.0
X53.0Y-187.0
X53.0Y-188.0
X53.0Y-189.0
X54.0Y-187.0
X54.0Y-188.0
X54.0Y-189.0
X57.5Y-163.0
X57.5Y-164.0
X57.5Y-165.0
X58.5Y-163.0
X58.5Y-164.0
X58.5Y-165.0
X59.0Y-109.5
X59.0Y-110.5
X59.0Y-111.5
X59.5Y-163.0
X59.5Y-164.0
X59.5Y-165.0
X60.0Y-109.5
X60.0Y-110.5
X60.0Y-111.5
X61.0Y-109.5
X61.0Y-110.5
X61.0Y-111.5
X66.056Y-102.149
X66.5Y-115.0
X66.5Y-116.0
X66.5Y-117.0
X67.042Y-94.039
X67.5Y-115.0
X67.5Y-116.0
X67.5Y-117.0
X68.5Y-115.0
X68.5Y-116.0
X68.5Y-117.0
X69.0Y-98.0
X69.797Y-99.262
X73.754Y-102.17
X77.233Y-56.958
X78.102Y-97.804
X78.933Y-93.944
X79.174Y-91.416
X79.329Y-56.801
X81.319Y-97.809
X81.371Y-74.703
X82.5Y-92.5
X82.5Y-97.9
X82.6Y-71.845
X84.0Y-91.9
X84.0Y-94.0
X87.594Y-77.085
X89.5Y-100.4
X90.5Y-70.5
X90.5Y-85.0
X90.5Y-88.1
X91.406Y-102.131
X91.513Y-75.047
X92.0Y-98.0
X92.0Y-100.5
X92.0Y-101.5
X92.261Y-109.0
X92.921Y-70.921
X93.0Y-127.5
X93.5Y-68.0
X93.5Y-101.5
X93.5Y-139.0
X93.964Y-111.648
X94.83Y-91.237
X95.0Y-68.0
X95.739Y-102.1
X96.0Y-99.5
X96.5Y-81.0
X96.5Y-91.9
X96.591Y-70.496
X97.0Y-128.5
X97.615Y-86.338
X97.726Y-68.9
X98.0Y-91.5
X98.0Y-93.299
X98.129Y-80.834
X98.541Y-97.299
X98.702Y-49.551
X98.93Y-99.374
X99.0Y-92.0
X99.5Y-94.5
X99.741Y-80.59
X99.741Y-84.5
X100.0Y-98.5
X100.049Y-75.0
X100.049Y-76.0
X100.073Y-76.927
X100.5Y-79.5
X100.714Y-141.786
X101.466Y-94.034
X101.5Y-130.0
X101.5Y-131.421
X101.564Y-92.436
X102.0Y-97.5
X102.0Y-134.5
X102.5Y-87.5
X103.0Y-79.5
X103.0Y-84.0
X103.0Y-92.0
X103.486Y-131.014
X103.5Y-97.5
X104.25Y-91.999
X104.409Y-80.968
X104.5Y-88.5
X104.5Y-130.0
X104.674Y-94.174
X105.026Y-96.9
X105.352Y-83.819
X105.674Y-84.826
X106.0Y-94.0
X106.325Y-108.269
X106.328Y-99.25
X106.742Y-107.375
X106.789Y-78.211
X106.84Y-111.475
X106.846Y-85.52
X107.0Y-94.0
X107.08Y-106.42
X107.806Y-85.772
X108.0Y-83.0
X108.0Y-92.0
X108.0Y-96.9
X108.054Y-93.645
X108.084Y-133.916
X108.5Y-76.5
X109.0Y-81.1
X109.0Y-87.4
X109.0Y-89.0
X109.5Y-93.0
X109.559Y-78.441
X110.0Y-88.0
X110.0Y-88.8
X110.004Y-71.504
X110.25Y-90.401
X110.5Y-89.5
X111.0Y-62.5
X111.5Y-82.5
X111.5Y-100.4
X112.0Y-93.0
X112.041Y-69.852
X112.068Y-99.291
X112.196Y-84.724
X112.4Y-98.5
X112.4Y-101.6
X112.4Y-105.0
X112.5Y-94.0
X113.0Y-89.0
X113.0Y-109.8
X113.5Y-94.0
X113.6Y-95.5
X113.9Y-106.5
X113.961Y-84.539
X114.0Y-97.0
X114.5Y-95.5
X114.679Y-82.207
X114.707Y-68.553
X115.5Y-76.0
X116.5Y-91.0
X116.5Y-92.699
X116.5Y-109.0
X117.146Y-99.17
X117.416Y-82.589
X117.5Y-101.0
X117.5Y-111.76
X118.0Y-93.0
X118.101Y-77.101
X118.193Y-98.226
X118.446Y-82.816
X119.5Y-99.5
X119.5Y-101.6
X119.989Y-53.963
X120.0Y-84.4
X120.2Y-95.499
X120.431Y-90.584
X121.5Y-93.4
X121.772Y-90.228
X121.925Y-117.575
X122.956Y-100.045
X123.0Y-90.0
X123.496Y-147.004
X123.5Y-116.5
X123.636Y-111.266
X123.646Y-114.228
X124.0Y-101.0
X124.0Y-147.9
X124.45Y-99.576
X125.068Y-93.6
X125.5Y-80.4
X126.5Y-90.0
X126.568Y-92.068
X127.5Y-84.081
X127.5Y-91.468
X128.0Y-80.4
X128.111Y-100.111
X128.5Y-85.6
X128.568Y-90.068
X128.709Y-97.321
X129.494Y-38.201
X129.5Y-101.0
X130.0Y-71.669
X130.0Y-90.4
X131.0Y-70.469
X131.0Y-85.0
X131.0Y-134.5
X132.0Y-88.5
X132.415Y-82.817
X132.5Y-79.5
X132.983Y-90.251
X133.0Y-80.4
X133.5Y-88.5
X133.5Y-99.0
X133.5Y-106.0
X133.5Y-147.5
X133.964Y-75.496
X134.0Y-72.5
X134.5Y-70.469
X134.5Y-80.4
X134.5Y-93.0
X134.5Y-113.5
X134.5Y-114.5
X134.5Y-115.5
X134.57Y-85.93
X134.924Y-87.133
X135.326Y-90.174
X135.5Y-113.5
X135.5Y-114.5
X135.5Y-115.5
X136.307Y-93.6
X136.5Y-113.5
X136.5Y-114.5
X136.5Y-115.5
X137.0Y-81.0
X137.0Y-93.0
X137.0Y-94.0
X137.246Y-90.398
X137.573Y-96.602
X138.0Y-81.5
X138.826Y-95.63
X140.0Y-71.669
X141.0Y-95.1
X141.5Y-90.4
X141.6Y-93.9
X141.988Y-88.33
X142.5Y-82.4
X144.396Y-81.435
X144.5Y-91.0
X145.0Y-90.102
X145.651Y-88.256
X146.5Y-76.5
X146.5Y-88.256
X147.0Y-91.0
X147.5Y-30.581
X149.5Y-66.5
X150.0Y-94.5
X150.366Y-93.716
X150.5Y-73.0
X150.5Y-84.0
X150.5Y-88.256
X151.5Y-83.0
X153.102Y-84.102
X154.102Y-83.102
X156.0Y-76.0
X156.942Y-189.808
X156.942Y-190.808
X156.942Y-191.808
X157.0Y-73.5
X157.942Y-189.808
X157.942Y-190.808
X157.942Y-191.808
X158.0Y-80.0
X158.102Y-79.102
X158.261Y-84.624
X158.942Y-189.808
X158.942Y-190.808
X158.942Y-191.808
X159.0Y-76.301
X159.326Y-81.174
X159.5Y-85.0
X160.0Y-76.301
X160.0Y-78.0
X164.5Y-61.0
X164.5Y-72.0
X164.5Y-81.0
X165.0Y-76.301
X165.5Y-74.5
X166.5Y-132.201
X167.0Y-68.5
X168.0Y-75.9
X168.0Y-82.0
X168.5Y-73.5
X172.0Y-68.571
X172.0Y-75.9
X173.175Y-74.325
X174.5Y-84.0
X175.0Y-74.0
X176.0Y-133.5
X177.5Y-71.5
X178.135Y-84.365
X178.255Y-143.255
X180.5Y-63.5
X182.0Y-86.5
X183.5Y-65.5
X184.0Y-26.5
X184.0Y-27.5
X184.0Y-28.5
X184.215Y-80.285
X184.675Y-66.175
X185.0Y-26.5
X185.0Y-27.5
X185.0Y-28.5
X185.0Y-81.0
X185.0Y-84.734
X185.5Y-83.5
X186.0Y-26.5
X186.0Y-27.5
X186.0Y-28.5
X186.476Y-125.676
X187.5Y-102.1
X188.0Y-128.5
X188.319Y-139.819
X188.5Y-67.0
X188.5Y-85.5
X188.5Y-142.0
X188.5Y-144.5
X188.9Y-132.0
X189.5Y-135.5
X190.1Y-131.5
X191.326Y-120.826
X191.926Y-134.5
X192.0Y-124.5
X192.0Y-140.5
X193.0Y-121.0
X193.0Y-134.5
X193.0Y-139.5
X193.5Y-129.0
X193.509Y-114.509
X194.0Y-104.5
X194.299Y-112.87
X194.5Y-77.501
X195.5Y-73.499
X195.5Y-101.5
X198.5Y-101.5
X198.5Y-116.0
X199.1Y-113.051
X200.0Y-121.0
X200.0Y-122.5
X200.5Y-99.5
X202.0Y-123.5
X202.809Y-151.46
X203.0Y-152.5
X204.0Y-155.0
X204.603Y-145.78
X208.0Y-124.0
X208.9Y-122.246
X209.0Y-104.5
X209.0Y-105.84
X209.5Y-121.0
X210.5Y-71.0
X211.534Y-121.646
X212.0Y-158.5
X214.0Y-51.0
X214.5Y-31.0
X214.5Y-32.0
X214.5Y-33.0
X214.5Y-53.0
X215.0Y-92.5
X215.5Y-31.0
X215.5Y-32.0
X215.5Y-33.0
X216.5Y-31.0
X216.5Y-32.0
X216.5Y-33.0
X216.5Y-51.5
X219.5Y-72.5
X219.5Y-78.0
X220.1Y-91.5
X222.5Y-61.0
X223.0Y-43.5
X223.5Y-51.0
X224.4Y-66.0
X225.0Y-49.0
X226.0Y-66.0
X226.0Y-191.617
X226.0Y-193.0
X226.0Y-194.5
X227.329Y-191.617
X227.329Y-193.0
X227.329Y-194.5
X228.5Y-191.617
X228.5Y-193.0
X228.5Y-194.5
X230.5Y-108.0
X230.5Y-109.0
X230.5Y-110.0
X231.5Y-108.0
X231.5Y-109.0
X231.5Y-110.0
X232.5Y-97.5
X232.5Y-98.5
X232.5Y-99.5
X232.5Y-108.0
X232.5Y-109.0
X232.5Y-110.0
X233.5Y-97.5
X233.5Y-98.5
X233.5Y-99.5
X234.5Y-97.5
X234.5Y-98.5
X234.5Y-99.5
X243.621Y-73.499
X245.561Y-74.099
X246.0Y-61.0
X246.0Y-122.246
X247.0Y-121.0
X247.4Y-90.5
X250.0Y-74.0
X250.936Y-65.564
X251.5Y-66.5
X254.0Y-91.5
X254.958Y-64.652
X255.054Y-65.446
X258.0Y-70.239
X259.0Y-66.5
X259.0Y-72.5
X259.5Y-108.0
X260.5Y-66.0
X263.0Y-116.0
X263.0Y-118.5
X264.272Y-117.161
X264.5Y-79.5
X265.156Y-158.656
X266.058Y-90.5
X266.058Y-91.5
X266.5Y-109.5
X267.0Y-106.738
X267.5Y-69.039
X269.5Y-139.5
X269.525Y-116.025
X270.0Y-74.0
X270.5Y-112.0
X271.165Y-111.555
X271.5Y-71.5
X271.5Y-138.0
X272.0Y-117.761
X272.176Y-111.676
X272.522Y-110.955
X273.0Y-113.5
X274.0Y-110.701
X280.5Y-71.0
X280.5Y-90.5
X280.5Y-91.3
X281.5Y-110.0
X283.0Y-71.0
X283.0Y-153.0
X284.0Y-110.0
X284.5Y-123.5
X286.5Y-115.359
X287.0Y-71.0
X287.0Y-73.4
X287.0Y-109.5
X287.092Y-154.823
X287.785Y-118.285
X289.161Y-150.0
X289.896Y-154.096
X290.0Y-66.36
X290.0Y-109.5
X290.364Y-125.136
X290.496Y-153.496
X290.5Y-146.0
X291.5Y-110.9
X292.177Y-77.977
X292.5Y-104.0
X292.583Y-154.271
X293.009Y-152.898
X294.0Y-138.0
X295.5Y-155.0
X296.0Y-77.377
X298.5Y-34.5
X298.5Y-35.5
X298.5Y-36.5
X299.4Y-128.488
X299.5Y-34.5
X299.5Y-35.5
X299.5Y-36.5
X300.5Y-34.5
X300.5Y-35.5
X300.5Y-36.5
X300.5Y-71.9
X302.0Y-146.0
X302.5Y-124.5
X303.5Y-110.2
X303.5Y-111.0
X304.0Y-69.649
X304.0Y-112.0
X304.349Y-71.0
X305.5Y-108.0
X305.549Y-71.5
X306.0Y-82.0
X306.0Y-104.0
X306.443Y-77.977
X306.5Y-69.649
X306.5Y-115.5
X306.9Y-72.5
X306.9Y-74.0
X309.472Y-88.0
X309.5Y-135.85
X310.672Y-72.5
X310.672Y-74.0
X310.9Y-79.0
X311.0Y-90.5
X311.5Y-161.5
X312.0Y-115.5
X312.5Y-91.1
X314.5Y-70.0
X315.0Y-159.5
X316.5Y-80.5
X319.0Y-74.6
X320.5Y-174.6
X322.0Y-88.0
X326.927Y-91.927
X328.153Y-93.153
X328.5Y-105.5
X329.826Y-107.674
X332.584Y-94.416
X334.0Y-87.4
X334.0Y-112.109
X335.0Y-91.5
X337.0Y-24.0
X337.0Y-25.0
X337.0Y-26.0
X338.0Y-24.0
X338.0Y-25.0
X338.0Y-26.0
X339.0Y-24.0
X339.0Y-25.0
X339.0Y-26.0
X340.4Y-104.591
X341.0Y-91.5
X342.5Y-107.0
X342.538Y-78.569
X347.5Y-90.5
X348.066Y-89.9
X350.0Y-88.0
X350.5Y-24.5
X350.5Y-25.5
X350.5Y-26.5
X350.5Y-90.5
X351.5Y-24.5
X351.5Y-25.5
X351.5Y-26.5
X351.5Y-80.5
X352.5Y-24.5
X352.5Y-25.5
X352.5Y-26.5
X353.0Y-90.1
X353.5Y-92.0
X354.0Y-80.5
X359.281Y-85.689
X364.094Y-111.594
X365.0Y-196.0
X365.0Y-197.0
X365.0Y-198.0
X366.0Y-89.5
X366.0Y-196.0
X366.0Y-197.0
X366.0Y-198.0
X367.0Y-196.0
X367.0Y-197.0
X367.0Y-198.0
X367.5Y-89.5
X367.5Y-103.0
X371.0Y-88.5
X372.5Y-88.5
X374.0Y-73.1
X374.0Y-96.5
X375.229Y-96.5
X376.5Y-72.5
X376.5Y-88.5
X378.691Y-180.626
X378.691Y-181.626
X378.691Y-182.626
X379.0Y-113.0
X379.691Y-180.626
X379.691Y-181.626
X379.691Y-182.626
X380.0Y-112.0
X380.691Y-180.626
X380.691Y-181.626
X380.691Y-182.626
X382.0Y-72.0
X386.806Y-87.071
X389.305Y-87.071
X394.0Y-42.0
X394.0Y-43.0
X394.0Y-44.0
X395.0Y-42.0
X395.0Y-43.0
X395.0Y-44.0
X395.276Y-156.132
X395.276Y-157.132
X395.276Y-158.132
X396.0Y-42.0
X396.0Y-43.0
X396.0Y-44.0
X396.276Y-156.132
X396.276Y-157.132
X396.276Y-158.132
X397.276Y-156.132
X397.276Y-157.132
X397.276Y-158.132
X402.0Y-88.081
X407.5Y-148.0
X407.5Y-149.0
X407.5Y-150.0
X408.5Y-148.0
X408.5Y-149.0
X408.5Y-150.0
X409.5Y-148.0
X409.5Y-149.0
X409.5Y-150.0
X411.0Y-54.0
X411.0Y-55.0
X411.0Y-56.0
X412.0Y-54.0
X412.0Y-55.0
X412.0Y-56.0
X413.0Y-54.0
X413.0Y-55.0
X413.0Y-56.0
X414.5Y-192.0
X414.5Y-193.0
X414.5Y-194.0
X415.5Y-192.0
X415.5Y-193.0
X415.5Y-194.0
X416.5Y-192.0
X416.5Y-193.0
X416.5Y-194.0
X417.0Y-126.5
X417.0Y-127.5
X417.0Y-128.5
X418.0Y-126.5
X418.0Y-127.5
X418.0Y-128.5
X419.0Y-126.5
X419.0Y-127.5
X419.0Y-128.5
T2
X254.0Y-201.63
X255.2Y-201.63
X256.4Y-201.63
X257.6Y-201.63
X258.8Y-201.63
X260.0Y-201.63
T3
X16.0Y-64.0
X18.0Y-64.0
X35.5Y-35.0
X35.5Y-37.0
X42.5Y-45.0
X42.5Y-47.0
X55.46Y-147.62
X55.46Y-149.62
X62.0Y-83.0
X62.5Y-92.0
X64.0Y-83.0
X64.5Y-92.0
X66.0Y-25.0
X66.0Y-27.0
X69.5Y-61.0
X71.5Y-61.0
X76.0Y-68.0
X76.0Y-74.0
X78.0Y-68.0
X78.0Y-74.0
X81.5Y-76.0
X83.5Y-76.0
X86.5Y-106.5
X86.5Y-108.5
X89.5Y-76.5
X89.5Y-78.5
X91.0Y-61.0
X91.0Y-63.0
X95.5Y-22.0
X95.5Y-24.0
X95.5Y-58.0
X96.96Y-131.12
X96.96Y-133.12
X97.5Y-58.0
X111.5Y-74.0
X111.5Y-76.0
X115.0Y-91.0
X115.0Y-93.0
X117.46Y-131.62
X117.46Y-133.62
X127.0Y-130.5
X127.0Y-132.5
X129.5Y-39.5
X129.5Y-41.5
X136.5Y-74.0
X136.5Y-76.0
X138.0Y-56.5
X138.0Y-58.5
X153.0Y-39.5
X153.0Y-41.5
X160.5Y-58.5
X162.5Y-58.5
X162.5Y-74.0
X162.5Y-76.0
X169.24Y-146.0
X169.24Y-148.0
X172.5Y-40.0
X172.5Y-42.0
X179.12Y-102.54
X181.12Y-102.54
X185.24Y-109.0
X185.24Y-111.0
X187.5Y-75.0
X187.5Y-81.55
X189.5Y-75.0
X189.5Y-81.55
X214.5Y-82.5
X214.5Y-120.5
X216.5Y-82.5
X216.5Y-120.5
X216.567Y-56.327
X218.567Y-56.327
X224.5Y-90.5
X225.24Y-129.5
X226.5Y-90.5
X227.24Y-129.5
X228.0Y-71.0
X230.0Y-71.0
X230.567Y-24.327
X232.5Y-138.0
X232.5Y-140.0
X232.567Y-24.327
X236.0Y-148.0
X236.0Y-153.5
X238.0Y-148.0
X238.0Y-153.5
X241.0Y-79.5
X241.0Y-81.5
X241.76Y-117.12
X241.76Y-119.12
X242.5Y-126.5
X242.5Y-128.5
X246.187Y-29.127
X246.5Y-142.38
X246.5Y-144.38
X248.187Y-29.127
X249.0Y-199.0
X251.0Y-161.0
X251.0Y-199.0
X251.5Y-95.0
X253.0Y-161.0
X253.5Y-95.0
X260.0Y-197.0
X262.0Y-197.0
X274.0Y-135.0
X274.0Y-137.0
X275.0Y-63.5
X275.0Y-65.5
X276.76Y-101.12
X276.76Y-103.12
X288.98Y-193.25
X288.98Y-199.8
X290.98Y-193.25
X290.98Y-199.8
X298.26Y-101.12
X298.26Y-103.12
X299.0Y-63.5
X299.0Y-65.5
X301.0Y-175.0
X301.0Y-177.0
X329.23Y-117.19
X329.23Y-136.69
X331.23Y-117.19
X331.23Y-136.69
X347.73Y-76.19
X347.73Y-102.69
X349.73Y-76.19
X349.73Y-102.69
X363.0Y-76.0
X365.0Y-76.0
X367.73Y-97.99
X367.73Y-99.99
X383.23Y-97.99
X383.23Y-99.99
X394.73Y-105.14
X394.73Y-111.69
X396.73Y-105.14
X396.73Y-111.69
X403.898Y-70.926
X403.898Y-72.926
T4
X48.96Y-50.62
X48.96Y-58.24
X51.5Y-50.62
X51.5Y-58.24
X54.04Y-50.62
X54.04Y-58.24
X56.58Y-50.62
X56.58Y-58.24
X59.12Y-50.62
X59.12Y-58.24
X61.66Y-50.62
X61.66Y-58.24
X64.2Y-50.62
X64.2Y-58.24
X66.74Y-50.62
X66.74Y-58.24
X74.3Y-50.5
X74.3Y-58.12
X76.84Y-50.5
X76.84Y-58.12
X79.38Y-50.5
X79.38Y-58.12
X81.92Y-50.5
X81.92Y-58.12
X84.46Y-50.5
X84.46Y-58.12
X87.0Y-50.5
X87.0Y-58.12
X89.54Y-50.5
X89.54Y-58.12
X90.88Y-65.69
X90.88Y-73.31
X92.08Y-50.5
X92.08Y-58.12
X93.42Y-65.69
X93.42Y-73.31
X95.96Y-65.69
X95.96Y-73.31
X98.5Y-65.69
X98.5Y-73.31
X101.04Y-65.69
X101.04Y-73.31
X103.58Y-65.69
X103.58Y-73.31
X106.12Y-65.69
X106.12Y-73.31
X117.68Y-136.62
X117.68Y-144.24
X120.22Y-136.62
X120.22Y-144.24
X122.76Y-136.62
X122.76Y-144.24
X125.3Y-136.62
X125.3Y-144.24
X127.84Y-136.62
X127.84Y-144.24
X130.38Y-136.62
X130.38Y-144.24
X132.92Y-136.62
X132.92Y-144.24
X135.46Y-136.62
X135.46Y-144.24
X138.1Y-62.5
X138.1Y-70.12
X140.64Y-62.5
X140.64Y-70.12
X143.18Y-62.5
X143.18Y-70.12
X145.72Y-62.5
X145.72Y-70.12
X148.26Y-62.5
X148.26Y-70.12
X150.8Y-62.5
X150.8Y-70.12
X153.34Y-62.5
X153.34Y-70.12
X163.3Y-62.5
X163.3Y-70.12
X165.84Y-62.5
X165.84Y-70.12
X168.38Y-62.5
X168.38Y-70.12
X168.62Y-103.0
X168.62Y-105.54
X168.62Y-108.08
X168.62Y-110.62
X168.62Y-113.16
X168.62Y-115.7
X168.62Y-118.24
X169.12Y-124.76
X169.12Y-127.3
X169.12Y-129.84
X169.12Y-132.38
X169.12Y-134.92
X169.12Y-137.46
X169.12Y-140.0
X169.12Y-142.54
X170.92Y-62.5
X170.92Y-70.12
X173.46Y-62.5
X173.46Y-70.12
X176.0Y-62.5
X176.0Y-70.12
X176.24Y-103.0
X176.24Y-105.54
X176.24Y-108.08
X176.24Y-110.62
X176.24Y-113.16
X176.24Y-115.7
X176.24Y-118.24
X176.74Y-124.76
X176.74Y-127.3
X176.74Y-129.84
X176.74Y-132.38
X176.74Y-134.92
X176.74Y-137.46
X176.74Y-140.0
X176.74Y-142.54
X178.54Y-62.5
X178.54Y-70.12
X184.74Y-87.84
X184.74Y-90.38
X184.74Y-92.92
X184.74Y-95.46
X184.74Y-98.0
X184.74Y-100.54
X184.74Y-103.08
X184.74Y-105.62
X192.36Y-87.84
X192.36Y-90.38
X192.36Y-92.92
X192.36Y-95.46
X192.36Y-98.0
X192.36Y-100.54
X192.36Y-103.08
X192.36Y-105.62
X213.62Y-90.46
X213.62Y-93.0
X213.62Y-95.54
X213.62Y-98.08
X213.62Y-100.62
X213.62Y-103.16
X213.62Y-105.7
X214.74Y-129.96
X214.74Y-132.5
X214.74Y-135.04
X214.74Y-137.58
X214.74Y-140.12
X214.74Y-142.66
X214.74Y-145.2
X221.24Y-90.46
X221.24Y-93.0
X221.24Y-95.54
X221.24Y-98.08
X221.24Y-100.62
X221.24Y-103.16
X221.24Y-105.7
X221.567Y-38.587
X221.567Y-41.127
X221.567Y-43.667
X221.567Y-46.207
X221.567Y-48.747
X221.567Y-51.287
X221.567Y-53.827
X221.567Y-56.367
X222.36Y-129.96
X222.36Y-132.5
X222.36Y-135.04
X222.36Y-137.58
X222.36Y-140.12
X222.36Y-142.66
X222.36Y-145.2
X229.187Y-38.587
X229.187Y-41.127
X229.187Y-43.667
X229.187Y-46.207
X229.187Y-48.747
X229.187Y-51.287
X229.187Y-53.827
X229.187Y-56.367
X240.38Y-160.96
X240.38Y-163.5
X240.38Y-166.04
X240.38Y-168.58
X240.38Y-171.12
X240.38Y-173.66
X240.38Y-176.2
X248.0Y-160.96
X248.0Y-163.5
X248.0Y-166.04
X248.0Y-168.58
X248.0Y-171.12
X248.0Y-173.66
X248.0Y-176.2
X274.96Y-68.38
X274.96Y-76.0
X276.76Y-106.0
X276.76Y-113.62
X277.5Y-68.38
X277.5Y-76.0
X279.3Y-106.0
X279.3Y-113.62
X280.04Y-68.38
X280.04Y-76.0
X281.84Y-106.0
X281.84Y-113.62
X282.58Y-68.38
X282.58Y-76.0
X284.38Y-106.0
X284.38Y-113.62
X285.12Y-68.38
X285.12Y-76.0
X286.92Y-106.0
X286.92Y-113.62
X287.66Y-68.38
X287.66Y-76.0
X289.46Y-106.0
X289.46Y-113.62
X290.2Y-68.38
X290.2Y-76.0
X292.0Y-106.0
X292.0Y-113.62
X292.74Y-68.38
X292.74Y-76.0
X294.54Y-106.0
X294.54Y-113.62
X298.02Y-106.0
X298.02Y-113.62
X298.92Y-68.5
X298.92Y-76.12
X300.56Y-106.0
X300.56Y-113.62
X301.46Y-68.5
X301.46Y-76.12
X303.1Y-106.0
X303.1Y-113.62
X304.0Y-68.5
X304.0Y-76.12
X305.64Y-106.0
X305.64Y-113.62
X306.54Y-68.5
X306.54Y-76.12
X308.18Y-106.0
X308.18Y-113.62
X309.08Y-68.5
X309.08Y-76.12
X310.72Y-106.0
X310.72Y-113.62
X311.62Y-68.5
X311.62Y-76.12
X313.26Y-106.0
X313.26Y-113.62
X314.16Y-68.5
X314.16Y-76.12
X315.8Y-106.0
X315.8Y-113.62
X316.7Y-68.5
X316.7Y-76.12
X318.73Y-136.45
X318.73Y-138.99
X318.73Y-141.53
X318.73Y-144.07
X318.73Y-146.61
X318.73Y-149.15
X318.73Y-151.69
X326.35Y-136.45
X326.35Y-138.99
X326.35Y-141.53
X326.35Y-144.07
X326.35Y-146.61
X326.35Y-149.15
X326.35Y-151.69
X360.23Y-104.45
X360.23Y-106.99
X360.23Y-109.53
X360.23Y-112.07
X360.23Y-114.61
X360.23Y-117.15
X360.23Y-119.69
X367.85Y-104.45
X367.85Y-106.99
X367.85Y-109.53
X367.85Y-112.07
X367.85Y-114.61
X367.85Y-117.15
X367.85Y-119.69
T5
X16.5Y-50.54
X16.5Y-53.08
X16.5Y-55.62
X21.0Y-43.31
X21.0Y-50.93
X27.5Y-43.12
X27.5Y-50.74
X33.5Y-50.62
X33.5Y-58.24
X36.04Y-50.62
X36.04Y-58.24
X36.69Y-28.5
X36.81Y-31.5
X38.58Y-50.62
X38.58Y-58.24
X39.92Y-34.5
X39.92Y-42.12
X41.12Y-50.62
X41.12Y-58.24
X41.96Y-95.88
X41.96Y-103.5
X42.46Y-34.5
X42.46Y-42.12
X44.31Y-28.5
X44.43Y-31.5
X44.5Y-95.88
X44.5Y-103.5
X45.0Y-34.5
X45.0Y-42.12
X47.0Y-30.5
X47.04Y-95.88
X47.04Y-103.5
X47.54Y-34.5
X47.54Y-42.12
X48.0Y-70.62
X48.0Y-78.24
X49.5Y-30.5
X49.58Y-95.88
X49.58Y-103.5
X52.12Y-95.88
X52.12Y-103.5
X53.4Y-70.62
X53.4Y-78.24
X54.66Y-95.88
X54.66Y-103.5
X57.2Y-95.88
X57.2Y-103.5
X59.0Y-70.62
X59.0Y-78.24
X59.74Y-95.88
X59.74Y-103.5
X64.0Y-40.69
X64.0Y-48.31
X64.5Y-70.31
X64.5Y-77.93
X65.92Y-95.88
X65.92Y-103.5
X66.19Y-30.185
X66.19Y-37.805
X67.92Y-82.88
X67.92Y-90.5
X68.46Y-95.88
X68.46Y-103.5
X68.73Y-30.185
X68.73Y-37.805
X70.46Y-82.88
X70.46Y-90.5
X71.0Y-95.88
X71.0Y-103.5
X71.27Y-30.185
X71.27Y-37.805
X72.19Y-24.5
X73.0Y-82.88
X73.0Y-90.5
X73.54Y-95.88
X73.54Y-103.5
X73.81Y-30.185
X73.81Y-37.805
X75.54Y-82.88
X75.54Y-90.5
X76.08Y-95.88
X76.08Y-103.5
X77.5Y-29.0
X77.5Y-34.5
X78.08Y-82.88
X78.08Y-90.5
X78.62Y-95.88
X78.62Y-103.5
X79.81Y-24.5
X80.0Y-29.0
X80.0Y-34.5
X80.62Y-82.88
X80.62Y-90.5
X81.16Y-95.88
X81.16Y-103.5
X83.16Y-82.88
X83.16Y-90.5
X83.7Y-95.88
X83.7Y-103.5
X86.0Y-119.19
X86.0Y-126.81
X86.96Y-157.81
X86.96Y-165.43
X90.0Y-29.5
X90.0Y-32.04
X90.0Y-34.58
X90.19Y-39.5
X90.42Y-82.38
X90.42Y-90.0
X90.5Y-119.19
X90.5Y-126.81
X92.96Y-82.38
X92.96Y-90.0
X93.96Y-157.81
X93.96Y-165.43
X94.0Y-77.0
X95.0Y-119.0
X95.0Y-126.62
X95.19Y-27.185
X95.19Y-34.805
X95.5Y-82.38
X95.5Y-90.0
X97.73Y-27.185
X97.73Y-34.805
X97.81Y-39.5
X98.04Y-82.38
X98.04Y-90.0
X99.5Y-119.0
X99.5Y-126.62
X100.27Y-27.185
X100.27Y-34.805
X100.58Y-82.38
X100.58Y-90.0
X100.96Y-157.62
X100.96Y-165.24
X101.62Y-77.0
X102.69Y-39.5
X102.81Y-27.185
X102.81Y-34.805
X103.12Y-82.38
X103.12Y-90.0
X103.5Y-54.88
X103.5Y-62.5
X104.0Y-119.0
X104.0Y-126.62
X105.66Y-82.38
X105.66Y-90.0
X106.0Y-27.0
X107.96Y-157.81
X107.96Y-165.43
X108.5Y-27.0
X108.5Y-119.0
X108.5Y-126.62
X110.31Y-39.5
X111.71Y-79.12
X111.71Y-86.74
X113.0Y-119.0
X113.0Y-126.62
X114.25Y-79.12
X114.25Y-86.74
X114.3Y-28.76
X114.3Y-36.38
X114.96Y-157.81
X114.96Y-165.43
X116.46Y-96.0
X116.46Y-103.62
X116.79Y-79.12
X116.79Y-86.74
X116.84Y-28.76
X116.84Y-36.38
X117.5Y-119.0
X117.5Y-126.62
X119.0Y-20.5
X119.0Y-23.0
X119.0Y-96.0
X119.0Y-103.62
X119.33Y-79.12
X119.33Y-86.74
X119.38Y-28.76
X119.38Y-36.38
X121.54Y-96.0
X121.54Y-103.62
X121.87Y-79.12
X121.87Y-86.74
X121.92Y-28.76
X121.92Y-36.38
X121.96Y-157.5
X121.96Y-165.12
X124.08Y-96.0
X124.08Y-103.62
X124.41Y-79.12
X124.41Y-86.74
X124.46Y-28.76
X124.46Y-36.38
X126.0Y-20.5
X126.0Y-23.0
X126.62Y-96.0
X126.62Y-103.62
X126.95Y-79.12
X126.95Y-86.74
X127.0Y-28.76
X127.0Y-36.38
X128.96Y-157.5
X128.96Y-165.12
X129.16Y-96.0
X129.16Y-103.62
X129.49Y-79.12
X129.49Y-86.74
X129.54Y-28.76
X129.54Y-36.38
X131.7Y-96.0
X131.7Y-103.62
X134.24Y-96.0
X134.24Y-103.62
X135.3Y-28.88
X135.3Y-36.5
X135.96Y-157.5
X135.96Y-165.12
X137.1Y-78.935
X137.1Y-86.555
X137.84Y-28.88
X137.84Y-36.5
X139.64Y-78.935
X139.64Y-86.555
X140.38Y-28.88
X140.38Y-36.5
X142.18Y-78.935
X142.18Y-86.555
X142.92Y-28.88
X142.92Y-36.5
X144.72Y-78.935
X144.72Y-86.555
X145.46Y-28.88
X145.46Y-36.5
X147.0Y-167.0
X147.0Y-174.62
X147.26Y-78.935
X147.26Y-86.555
X148.0Y-28.88
X148.0Y-36.5
X148.0Y-49.19
X148.0Y-56.81
X149.8Y-78.935
X149.8Y-86.555
X150.12Y-125.5
X150.12Y-130.5
X150.12Y-134.5
X150.12Y-139.0
X150.12Y-143.5
X150.54Y-28.88
X150.54Y-36.5
X152.0Y-167.0
X152.0Y-174.62
X152.34Y-78.935
X152.34Y-86.555
X154.88Y-78.935
X154.88Y-86.555
X157.0Y-167.0
X157.0Y-174.62
X157.3Y-28.88
X157.3Y-36.5
X157.74Y-125.5
X157.74Y-130.5
X157.74Y-134.5
X157.74Y-139.0
X157.74Y-143.5
X159.84Y-28.88
X159.84Y-36.5
X162.0Y-167.0
X162.0Y-174.62
X162.38Y-28.88
X162.38Y-36.5
X162.56Y-78.815
X162.56Y-86.435
X164.92Y-28.88
X164.92Y-36.5
X165.1Y-78.815
X165.1Y-86.435
X167.0Y-167.0
X167.0Y-174.62
X167.46Y-28.88
X167.46Y-36.5
X167.64Y-78.815
X167.64Y-86.435
X170.0Y-28.88
X170.0Y-36.5
X170.18Y-78.815
X170.18Y-86.435
X172.0Y-167.0
X172.0Y-174.62
X172.54Y-28.88
X172.54Y-36.5
X172.72Y-78.815
X172.72Y-86.435
X175.26Y-78.815
X175.26Y-86.435
X177.0Y-167.0
X177.0Y-174.62
X177.8Y-78.815
X177.8Y-86.435
X180.34Y-78.815
X180.34Y-86.435
X182.0Y-167.0
X182.0Y-174.62
X184.93Y-132.5
X184.93Y-137.5
X184.93Y-142.5
X187.0Y-167.0
X187.0Y-174.62
X192.0Y-167.0
X192.0Y-174.62
X192.55Y-132.5
X192.55Y-137.5
X192.55Y-142.5
X196.0Y-82.38
X196.0Y-84.92
X196.0Y-87.46
X196.0Y-90.0
X196.0Y-92.54
X196.0Y-95.08
X196.0Y-97.62
X196.0Y-100.16
X196.0Y-102.7
X196.0Y-105.24
X196.0Y-107.78
X196.0Y-110.32
X196.0Y-112.86
X196.0Y-115.4
X196.0Y-120.38
X196.0Y-122.92
X196.0Y-125.46
X196.0Y-128.0
X196.0Y-130.54
X196.0Y-133.08
X196.0Y-135.62
X196.0Y-138.16
X196.0Y-140.7
X196.0Y-143.24
X196.0Y-145.78
X196.0Y-148.32
X196.0Y-150.86
X196.0Y-153.4
X197.0Y-167.0
X197.0Y-174.62
X202.0Y-167.0
X202.0Y-174.62
X207.0Y-166.88
X207.0Y-174.5
X211.24Y-82.38
X211.24Y-84.92
X211.24Y-87.46
X211.24Y-90.0
X211.24Y-92.54
X211.24Y-95.08
X211.24Y-97.62
X211.24Y-100.16
X211.24Y-102.7
X211.24Y-105.24
X211.24Y-107.78
X211.24Y-110.32
X211.24Y-112.86
X211.24Y-115.4
X211.24Y-120.38
X211.24Y-122.92
X211.24Y-125.46
X211.24Y-128.0
X211.24Y-130.54
X211.24Y-133.08
X211.24Y-135.62
X211.24Y-138.16
X211.24Y-140.7
X211.24Y-143.24
X211.24Y-145.78
X211.24Y-148.32
X211.24Y-150.86
X211.24Y-153.4
X212.0Y-166.88
X212.0Y-174.5
X217.0Y-166.69
X217.0Y-174.31
X222.0Y-166.88
X222.0Y-174.5
X224.88Y-143.38
X224.88Y-145.92
X224.88Y-148.46
X224.88Y-151.0
X232.5Y-143.38
X232.5Y-145.92
X232.5Y-148.46
X232.5Y-151.0
X234.675Y-143.041
X241.5Y-145.69
X241.5Y-153.31
X242.295Y-143.041
X242.5Y-131.38
X242.5Y-139.0
X245.04Y-131.38
X245.04Y-139.0
X245.42Y-147.38
X245.42Y-155.0
X247.58Y-131.38
X247.58Y-139.0
X247.96Y-147.38
X247.96Y-155.0
X250.12Y-131.38
X250.12Y-139.0
X250.5Y-147.38
X250.5Y-155.0
X252.66Y-131.38
X252.66Y-139.0
X253.04Y-147.38
X253.04Y-155.0
X253.687Y-41.627
X253.877Y-46.127
X253.877Y-50.627
X254.0Y-188.88
X254.0Y-196.5
X254.067Y-55.127
X255.2Y-131.38
X255.2Y-139.0
X255.58Y-147.38
X255.58Y-155.0
X257.0Y-186.88
X257.0Y-194.5
X257.74Y-131.38
X257.74Y-139.0
X258.12Y-147.38
X258.12Y-155.0
X260.28Y-131.38
X260.28Y-139.0
X260.66Y-147.38
X260.66Y-155.0
X261.307Y-41.627
X261.497Y-46.127
X261.497Y-50.627
X261.687Y-55.127
X263.2Y-147.38
X263.2Y-155.0
X268.02Y-156.5
X268.02Y-171.74
X270.56Y-156.5
X270.56Y-171.74
X273.1Y-156.5
X273.1Y-171.74
X275.64Y-156.5
X275.64Y-171.74
X278.18Y-156.5
X278.18Y-171.74
X280.0Y-86.19
X280.0Y-93.81
X280.72Y-156.5
X280.72Y-171.74
X280.76Y-122.31
X280.76Y-129.93
X283.26Y-156.5
X283.26Y-171.74
X283.5Y-175.92
X283.5Y-178.46
X283.5Y-181.0
X284.5Y-86.0
X284.5Y-93.62
X285.26Y-122.12
X285.26Y-129.74
X285.8Y-156.5
X285.8Y-171.74
X287.88Y-178.5
X288.34Y-156.5
X288.34Y-171.74
X289.0Y-86.0
X289.0Y-93.62
X289.76Y-122.12
X289.76Y-129.74
X290.88Y-156.5
X290.88Y-171.74
X293.42Y-156.5
X293.42Y-171.74
X293.5Y-86.0
X293.5Y-93.62
X294.26Y-122.12
X294.26Y-129.74
X295.5Y-178.5
X295.96Y-156.5
X295.96Y-171.74
X298.0Y-86.0
X298.0Y-93.62
X298.5Y-156.5
X298.5Y-171.74
X298.76Y-122.0
X298.76Y-129.62
X301.04Y-156.5
X301.04Y-171.74
X302.5Y-86.0
X302.5Y-93.62
X303.26Y-122.12
X303.26Y-129.74
X303.31Y-192.38
X303.31Y-200.0
X305.19Y-181.5
X307.0Y-86.0
X307.0Y-93.62
X307.76Y-122.12
X307.76Y-129.74
X308.31Y-192.69
X308.31Y-200.31
X311.19Y-178.5
X311.5Y-86.0
X311.5Y-93.62
X312.26Y-122.12
X312.26Y-129.74
X312.81Y-181.5
X313.23Y-157.0
X313.23Y-172.24
X313.31Y-192.69
X313.31Y-200.31
X315.19Y-181.5
X315.77Y-157.0
X315.77Y-172.24
X318.31Y-157.0
X318.31Y-172.24
X318.31Y-192.69
X318.31Y-200.31
X318.61Y-116.95
X318.61Y-119.49
X318.61Y-122.03
X318.61Y-124.57
X318.61Y-127.11
X318.61Y-129.65
X318.61Y-132.19
X318.81Y-178.5
X320.69Y-184.5
X320.85Y-157.0
X320.85Y-172.24
X322.81Y-181.5
X323.31Y-192.88
X323.31Y-200.5
X323.39Y-157.0
X323.39Y-172.24
X325.19Y-181.0
X326.23Y-116.95
X326.23Y-119.49
X326.23Y-122.03
X326.23Y-124.57
X326.23Y-127.11
X326.23Y-129.65
X326.23Y-132.19
X327.28Y-157.0
X327.28Y-172.24
X328.31Y-184.5
X328.31Y-192.69
X328.31Y-200.31
X329.82Y-157.0
X329.82Y-172.24
X330.19Y-178.0
X332.36Y-157.0
X332.36Y-172.24
X332.81Y-181.0
X333.31Y-192.69
X333.31Y-200.31
X334.9Y-157.0
X334.9Y-172.24
X336.19Y-181.0
X337.11Y-76.53
X337.11Y-79.07
X337.11Y-81.61
X337.11Y-84.15
X337.11Y-86.69
X337.11Y-89.23
X337.11Y-91.77
X337.11Y-94.31
X337.23Y-102.45
X337.23Y-104.99
X337.23Y-107.53
X337.23Y-110.07
X337.23Y-112.61
X337.23Y-115.15
X337.23Y-117.69
X337.23Y-120.23
X337.44Y-157.0
X337.44Y-172.24
X337.81Y-178.0
X338.31Y-192.38
X338.31Y-200.0
X341.0Y-184.0
X341.33Y-157.0
X341.33Y-172.24
X343.81Y-181.0
X343.87Y-157.0
X343.87Y-172.24
X344.73Y-76.53
X344.73Y-79.07
X344.73Y-81.61
X344.73Y-84.15
X344.73Y-86.69
X344.73Y-89.23
X344.73Y-91.77
X344.73Y-94.31
X344.85Y-102.45
X344.85Y-104.99
X344.85Y-107.53
X344.85Y-110.07
X344.85Y-112.61
X344.85Y-115.15
X344.85Y-117.69
X344.85Y-120.23
X346.41Y-157.0
X346.41Y-172.24
X348.62Y-184.0
X348.95Y-157.0
X348.95Y-172.24
X351.49Y-157.0
X351.49Y-172.24
X355.38Y-157.0
X355.38Y-172.24
X357.92Y-157.0
X357.92Y-172.24
X358.12Y-86.57
X358.12Y-94.19
X360.46Y-157.0
X360.46Y-172.24
X363.0Y-157.0
X363.0Y-172.24
X363.62Y-86.38
X363.62Y-94.0
X365.54Y-157.0
X365.54Y-172.24
X369.12Y-86.38
X369.12Y-94.0
X374.62Y-86.38
X374.62Y-94.0
X375.73Y-103.65
X375.73Y-106.19
X375.73Y-108.73
X375.73Y-111.27
X375.73Y-113.81
X375.73Y-116.35
X375.73Y-118.89
X379.97Y-86.38
X379.97Y-94.0
X383.35Y-103.65
X383.35Y-106.19
X383.35Y-108.73
X383.35Y-111.27
X383.35Y-113.81
X383.35Y-116.35
X383.35Y-118.89
X385.62Y-86.38
X385.62Y-94.0
X391.12Y-86.38
X391.12Y-94.0
X396.12Y-86.38
X396.12Y-94.0
X403.84Y-75.875
X403.84Y-83.495
X406.38Y-75.875
X406.38Y-83.495
X407.73Y-91.38
X407.73Y-99.0
X408.92Y-75.875
X408.92Y-83.495
X411.46Y-75.875
X411.46Y-83.495
X412.23Y-91.19
X412.23Y-98.81
X414.0Y-75.875
X414.0Y-83.495
X416.54Y-75.875
X416.54Y-83.495
X419.08Y-75.875
X419.08Y-83.495
X421.62Y-75.875
X421.62Y-83.495
T6
X21.0Y-54.08
X21.0Y-56.62
X27.5Y-54.08
X27.5Y-56.62
X48.09Y-64.08
X48.09Y-66.62
X53.56Y-64.08
X53.56Y-66.62
X59.03Y-64.08
X59.03Y-66.62
X64.5Y-64.08
X64.5Y-66.62
X86.0Y-114.0
X86.0Y-116.54
X86.96Y-151.62
X86.96Y-154.16
X90.5Y-114.0
X90.5Y-116.54
X93.96Y-151.62
X93.96Y-154.16
X95.0Y-114.0
X95.0Y-116.54
X99.5Y-114.0
X99.5Y-116.54
X100.96Y-151.62
X100.96Y-154.16
X104.0Y-114.0
X104.0Y-116.54
X107.96Y-151.62
X107.96Y-154.16
X108.5Y-114.0
X108.5Y-116.54
X113.0Y-114.0
X113.0Y-116.54
X114.96Y-151.62
X114.96Y-154.16
X117.5Y-114.0
X117.5Y-116.54
X121.96Y-151.62
X121.96Y-154.16
X128.96Y-151.62
X128.96Y-154.16
X135.96Y-151.62
X135.96Y-154.16
X146.97Y-162.0
X148.0Y-42.46
X148.0Y-45.0
X149.51Y-162.0
X151.97Y-162.0
X154.51Y-162.0
X156.97Y-162.0
X159.51Y-162.0
X160.16Y-130.0
X160.2Y-125.5
X160.2Y-134.5
X160.2Y-139.0
X160.2Y-143.5
X161.97Y-162.0
X162.7Y-130.0
X162.74Y-125.5
X162.74Y-134.5
X162.74Y-139.0
X162.74Y-143.5
X164.51Y-162.0
X166.97Y-162.0
X169.51Y-162.0
X171.97Y-162.0
X174.51Y-162.0
X176.97Y-162.0
X179.51Y-162.0
X179.7Y-132.5
X179.7Y-137.5
X179.7Y-142.5
X181.97Y-162.0
X182.24Y-132.5
X182.24Y-137.5
X182.24Y-142.5
X184.51Y-162.0
X186.97Y-162.0
X189.51Y-162.0
X191.97Y-162.0
X194.51Y-162.0
X196.97Y-162.0
X199.51Y-162.0
X201.97Y-162.0
X204.51Y-162.0
X206.97Y-162.0
X209.51Y-162.0
X211.97Y-162.0
X214.51Y-162.0
X216.97Y-162.0
X219.51Y-162.0
X221.97Y-162.0
X224.51Y-162.0
X248.647Y-41.627
X248.647Y-46.127
X248.647Y-50.627
X248.647Y-55.127
X251.187Y-41.627
X251.187Y-46.127
X251.187Y-50.627
X251.187Y-55.127
X280.0Y-81.0
X280.0Y-83.54
X280.76Y-117.12
X280.76Y-119.66
X284.5Y-81.0
X284.5Y-83.54
X285.26Y-117.16
X285.26Y-119.7
X289.0Y-81.0
X289.0Y-83.54
X289.76Y-117.16
X289.76Y-119.7
X293.5Y-81.0
X293.5Y-83.54
X294.26Y-117.16
X294.26Y-119.7
X298.0Y-81.0
X298.0Y-83.54
X298.76Y-117.16
X298.76Y-119.7
X302.5Y-81.0
X302.5Y-83.54
X303.26Y-117.16
X303.26Y-119.7
X303.27Y-188.5
X305.81Y-188.5
X307.0Y-81.0
X307.0Y-83.54
X307.76Y-117.16
X307.76Y-119.7
X308.27Y-188.5
X310.81Y-188.5
X311.5Y-81.0
X311.5Y-83.54
X312.212Y-117.154
X312.212Y-119.694
X313.27Y-188.5
X315.81Y-188.5
X318.27Y-188.5
X320.81Y-188.5
X323.27Y-188.5
X325.81Y-188.5
X328.27Y-188.5
X330.81Y-188.5
X333.27Y-188.5
X335.81Y-188.5
X338.27Y-188.5
X340.81Y-188.5
X358.12Y-81.38
X358.12Y-83.92
X363.59Y-81.38
X363.59Y-83.92
X369.06Y-81.38
X369.06Y-83.92
X374.56Y-81.357
X374.56Y-83.897
X380.03Y-81.357
X380.03Y-83.897
X385.5Y-81.357
X385.5Y-83.897
X390.97Y-81.357
X390.97Y-83.897
X396.44Y-81.357
X396.44Y-83.897
X407.754Y-86.42
X407.754Y-88.96
X412.23Y-86.437
X412.23Y-88.977
T7
X19.775Y-31.5
X19.775Y-34.0
X19.775Y-36.5
T8
X54.5Y-32.5
X54.5Y-37.0
X61.0Y-32.5
X61.0Y-37.0
X117.0Y-65.5
X117.0Y-72.0
X121.5Y-65.5
X121.5Y-72.0
T9
X55.96Y-136.62
X55.96Y-144.24
X58.5Y-136.62
X58.5Y-144.24
X61.04Y-136.62
X61.04Y-144.24
X63.58Y-136.62
X63.58Y-144.24
X66.12Y-136.62
X66.12Y-144.24
X68.66Y-136.62
X68.66Y-144.24
X71.2Y-136.62
X71.2Y-144.24
X73.74Y-136.62
X73.74Y-144.24
X76.28Y-136.62
X76.28Y-144.24
X78.82Y-136.62
X78.82Y-144.24
X86.96Y-136.5
X86.96Y-144.12
X88.92Y-95.88
X88.92Y-103.5
X89.5Y-136.5
X89.5Y-144.12
X91.46Y-95.88
X91.46Y-103.5
X92.04Y-136.5
X92.04Y-144.12
X94.0Y-95.88
X94.0Y-103.5
X94.58Y-136.5
X94.58Y-144.12
X96.54Y-95.88
X96.54Y-103.5
X97.12Y-136.5
X97.12Y-144.12
X99.08Y-95.88
X99.08Y-103.5
X99.66Y-136.5
X99.66Y-144.12
X101.62Y-95.88
X101.62Y-103.5
X102.2Y-136.5
X102.2Y-144.12
X104.16Y-95.88
X104.16Y-103.5
X104.74Y-136.5
X104.74Y-144.12
X106.7Y-95.88
X106.7Y-103.5
X107.28Y-136.5
X107.28Y-144.12
X109.24Y-95.88
X109.24Y-103.5
X109.82Y-136.5
X109.82Y-144.12
X111.78Y-95.88
X111.78Y-103.5
X235.5Y-28.96
X235.5Y-31.5
X235.5Y-34.04
X235.5Y-36.58
X235.5Y-39.12
X235.5Y-41.66
X235.5Y-44.2
X235.5Y-46.74
X235.5Y-49.28
X235.5Y-51.82
X241.0Y-68.5
X241.0Y-76.12
X241.76Y-106.5
X241.76Y-114.12
X243.12Y-28.96
X243.12Y-31.5
X243.12Y-34.04
X243.12Y-36.58
X243.12Y-39.12
X243.12Y-41.66
X243.12Y-44.2
X243.12Y-46.74
X243.12Y-49.28
X243.12Y-51.82
X243.54Y-68.5
X243.54Y-76.12
X244.3Y-106.5
X244.3Y-114.12
X246.08Y-68.5
X246.08Y-76.12
X246.84Y-106.5
X246.84Y-114.12
X248.62Y-68.5
X248.62Y-76.12
X249.38Y-106.5
X249.38Y-114.12
X251.16Y-68.5
X251.16Y-76.12
X251.92Y-106.5
X251.92Y-114.12
X253.7Y-68.5
X253.7Y-76.12
X254.46Y-106.5
X254.46Y-114.12
X256.24Y-68.5
X256.24Y-76.12
X257.0Y-106.5
X257.0Y-114.12
X258.78Y-68.5
X258.78Y-76.12
X259.54Y-106.5
X259.54Y-114.12
X261.32Y-68.5
X261.32Y-76.12
X262.08Y-106.5
X262.08Y-114.12
X263.86Y-68.5
X263.86Y-76.12
X264.62Y-106.5
X264.62Y-114.12
X274.46Y-140.5
X274.46Y-148.12
X277.0Y-140.5
X277.0Y-148.12
X279.54Y-140.5
X279.54Y-148.12
X282.08Y-140.5
X282.08Y-148.12
X284.62Y-140.5
X284.62Y-148.12
X287.16Y-140.5
X287.16Y-148.12
X289.7Y-140.5
X289.7Y-148.12
X292.24Y-140.5
X292.24Y-148.12
X294.78Y-140.5
X294.78Y-148.12
X297.32Y-140.5
X297.32Y-148.12
X369.3Y-69.88
X369.3Y-77.5
X371.84Y-69.88
X371.84Y-77.5
X374.38Y-69.88
X374.38Y-77.5
X376.92Y-69.88
X376.92Y-77.5
X379.46Y-69.88
X379.46Y-77.5
X382.0Y-69.88
X382.0Y-77.5
X384.54Y-69.88
X384.54Y-77.5
X387.08Y-69.88
X387.08Y-77.5
X389.62Y-69.88
X389.62Y-77.5
X392.16Y-69.88
X392.16Y-77.5
T2
G00X252.68Y-200.77
M15
G01X252.68Y-201.97
M16
G05
G00X261.32Y-200.77
M15
G01X261.32Y-201.97
M16
G05
T8
G00X26.925Y-29.2
M15
G01X27.625Y-29.2
M16
G05
G00X26.925Y-38.8
M15
G01X27.625Y-38.8
M16
G05
M30
