%TF.GenerationSoftware,KiCad,Pcbnew,9.0.4-1.fc42app3*%
%TF.CreationDate,2025-11-06T21:39:45-06:00*%
%TF.ProjectId,8-Bit-PC,382d4269-742d-4504-932e-6b696361645f,1*%
%TF.SameCoordinates,Original*%
%TF.FileFunction,Copper,L2,Inr*%
%TF.FilePolarity,Positive*%
%FSLAX46Y46*%
G04 Gerber Fmt 4.6, Leading zero omitted, Abs format (unit mm)*
G04 Created by KiCad (PCBNEW 9.0.4-1.fc42app3) date 2025-11-06 21:39:45*
%MOMM*%
%LPD*%
G01*
G04 APERTURE LIST*
G04 Aperture macros list*
%AMRoundRect*
0 Rectangle with rounded corners*
0 $1 Rounding radius*
0 $2 $3 $4 $5 $6 $7 $8 $9 X,Y pos of 4 corners*
0 Add a 4 corners polygon primitive as box body*
4,1,4,$2,$3,$4,$5,$6,$7,$8,$9,$2,$3,0*
0 Add four circle primitives for the rounded corners*
1,1,$1+$1,$2,$3*
1,1,$1+$1,$4,$5*
1,1,$1+$1,$6,$7*
1,1,$1+$1,$8,$9*
0 Add four rect primitives between the rounded corners*
20,1,$1+$1,$2,$3,$4,$5,0*
20,1,$1+$1,$4,$5,$6,$7,0*
20,1,$1+$1,$6,$7,$8,$9,0*
20,1,$1+$1,$8,$9,$2,$3,0*%
G04 Aperture macros list end*
%TA.AperFunction,ComponentPad*%
%ADD10C,1.600000*%
%TD*%
%TA.AperFunction,ComponentPad*%
%ADD11RoundRect,0.250000X-0.550000X-0.550000X0.550000X-0.550000X0.550000X0.550000X-0.550000X0.550000X0*%
%TD*%
%TA.AperFunction,ComponentPad*%
%ADD12C,1.200000*%
%TD*%
%TA.AperFunction,ComponentPad*%
%ADD13R,1.295400X1.295400*%
%TD*%
%TA.AperFunction,ComponentPad*%
%ADD14C,1.295400*%
%TD*%
%TA.AperFunction,ComponentPad*%
%ADD15R,1.800000X1.800000*%
%TD*%
%TA.AperFunction,ComponentPad*%
%ADD16C,1.800000*%
%TD*%
%TA.AperFunction,ComponentPad*%
%ADD17R,1.378000X1.378000*%
%TD*%
%TA.AperFunction,ComponentPad*%
%ADD18C,1.378000*%
%TD*%
%TA.AperFunction,ComponentPad*%
%ADD19C,2.000000*%
%TD*%
%TA.AperFunction,ComponentPad*%
%ADD20R,1.600000X1.600000*%
%TD*%
%TA.AperFunction,ComponentPad*%
%ADD21RoundRect,0.250000X0.550000X0.550000X-0.550000X0.550000X-0.550000X-0.550000X0.550000X-0.550000X0*%
%TD*%
%TA.AperFunction,ComponentPad*%
%ADD22R,1.676400X1.676400*%
%TD*%
%TA.AperFunction,ComponentPad*%
%ADD23C,1.676400*%
%TD*%
%TA.AperFunction,ComponentPad*%
%ADD24O,2.200000X3.500000*%
%TD*%
%TA.AperFunction,ComponentPad*%
%ADD25R,1.500000X2.500000*%
%TD*%
%TA.AperFunction,ComponentPad*%
%ADD26O,1.500000X2.500000*%
%TD*%
%TA.AperFunction,HeatsinkPad*%
%ADD27O,1.700000X1.000000*%
%TD*%
%TA.AperFunction,ComponentPad*%
%ADD28O,3.240000X2.720000*%
%TD*%
%TA.AperFunction,ComponentPad*%
%ADD29RoundRect,0.250000X0.550000X-0.550000X0.550000X0.550000X-0.550000X0.550000X-0.550000X-0.550000X0*%
%TD*%
%TA.AperFunction,ComponentPad*%
%ADD30RoundRect,0.250000X-0.550000X0.550000X-0.550000X-0.550000X0.550000X-0.550000X0.550000X0.550000X0*%
%TD*%
%TA.AperFunction,ComponentPad*%
%ADD31O,3.500000X2.200000*%
%TD*%
%TA.AperFunction,ComponentPad*%
%ADD32R,2.500000X1.500000*%
%TD*%
%TA.AperFunction,ComponentPad*%
%ADD33O,2.500000X1.500000*%
%TD*%
%TA.AperFunction,ViaPad*%
%ADD34C,0.600000*%
%TD*%
%TA.AperFunction,Conductor*%
%ADD35C,0.200000*%
%TD*%
G04 APERTURE END LIST*
D10*
%TO.N,Net-(D16-K)*%
%TO.C,R14*%
X266917100Y-109792300D03*
%TO.N,GND*%
X266917100Y-117412300D03*
%TD*%
D11*
%TO.N,Net-(U3-Q)*%
%TO.C,U5*%
X253130000Y-125790000D03*
D10*
%TO.N,Net-(U4-Pad4)*%
X253130000Y-128330000D03*
%TO.N,Net-(U52-Zb)*%
X253130000Y-130870000D03*
%TO.N,Net-(U21-D1)*%
X253130000Y-133410000D03*
%TO.N,Net-(U52-Zc)*%
X253130000Y-135950000D03*
%TO.N,Net-(U21-D2)*%
X253130000Y-138490000D03*
%TO.N,GND*%
X253130000Y-141030000D03*
%TO.N,Net-(U4-Pad10)*%
X260750000Y-141030000D03*
%TO.N,HLT*%
X260750000Y-138490000D03*
%TO.N,Net-(U23-D1)*%
X260750000Y-135950000D03*
%TO.N,Net-(U24-Zc)*%
X260750000Y-133410000D03*
%TO.N,~{CLK}*%
X260750000Y-130870000D03*
%TO.N,CLK*%
X260750000Y-128330000D03*
%TO.N,VCC*%
X260750000Y-125790000D03*
%TD*%
D12*
%TO.N,VCC*%
%TO.C,C8*%
X333040000Y-86300000D03*
%TO.N,GND*%
X333040000Y-88300000D03*
%TD*%
D10*
%TO.N,GND*%
%TO.C,C3*%
X275567100Y-149662300D03*
%TO.N,Net-(U2-DIS)*%
X278067100Y-149662300D03*
%TD*%
%TO.N,Net-(D025-K)*%
%TO.C,R94*%
X319460000Y-72670000D03*
%TO.N,GND*%
X319460000Y-65050000D03*
%TD*%
D11*
%TO.N,/MAR/PROG*%
%TO.C,U52*%
X205977100Y-125657300D03*
D10*
%TO.N,Net-(U52-I0a)*%
X205977100Y-128197300D03*
%TO.N,BUS_7*%
X205977100Y-130737300D03*
%TO.N,Net-(U52-Za)*%
X205977100Y-133277300D03*
%TO.N,Net-(U52-I0b)*%
X205977100Y-135817300D03*
%TO.N,BUS_6*%
X205977100Y-138357300D03*
%TO.N,Net-(U52-Zb)*%
X205977100Y-140897300D03*
%TO.N,GND*%
X205977100Y-143437300D03*
%TO.N,Net-(U52-Zd)*%
X213597100Y-143437300D03*
%TO.N,BUS_4*%
X213597100Y-140897300D03*
%TO.N,Net-(U52-I0d)*%
X213597100Y-138357300D03*
%TO.N,Net-(U52-Zc)*%
X213597100Y-135817300D03*
%TO.N,BUS_5*%
X213597100Y-133277300D03*
%TO.N,Net-(U52-I0c)*%
X213597100Y-130737300D03*
%TO.N,GND*%
X213597100Y-128197300D03*
%TO.N,VCC*%
X213597100Y-125657300D03*
%TD*%
%TO.N,Net-(D112-K)*%
%TO.C,R83*%
X157500000Y-34920000D03*
%TO.N,GND*%
X157500000Y-27300000D03*
%TD*%
%TO.N,Net-(D116-K)*%
%TO.C,R87*%
X177500000Y-34920000D03*
%TO.N,GND*%
X177500000Y-27300000D03*
%TD*%
D13*
%TO.N,GND*%
%TO.C,U8*%
X310870000Y-93930000D03*
D14*
X308330000Y-93930000D03*
%TO.N,/ALU/B_7*%
X305790000Y-93930000D03*
%TO.N,/ALU/B_6*%
X303250000Y-93930000D03*
%TO.N,/ALU/B_5*%
X300710000Y-93930000D03*
%TO.N,/ALU/B_4*%
X298170000Y-93930000D03*
%TO.N,CLK*%
X295630000Y-93930000D03*
%TO.N,GND*%
X293090000Y-93930000D03*
%TO.N,~{BI}*%
X293090000Y-101550000D03*
X295630000Y-101550000D03*
%TO.N,BUS_4*%
X298170000Y-101550000D03*
%TO.N,BUS_5*%
X300710000Y-101550000D03*
%TO.N,BUS_6*%
X303250000Y-101550000D03*
%TO.N,BUS_7*%
X305790000Y-101550000D03*
%TO.N,CLR*%
X308330000Y-101550000D03*
%TO.N,VCC*%
X310870000Y-101550000D03*
%TD*%
D11*
%TO.N,Net-(U51-Zc)*%
%TO.C,U20*%
X227527100Y-125667300D03*
D10*
%TO.N,Net-(U21-\u002AWE)*%
X227527100Y-128207300D03*
%TO.N,Net-(U24-Zb)*%
X227527100Y-130747300D03*
%TO.N,Net-(U23-D3)*%
X227527100Y-133287300D03*
%TO.N,Net-(U24-Za)*%
X227527100Y-135827300D03*
%TO.N,Net-(U23-D2)*%
X227527100Y-138367300D03*
%TO.N,GND*%
X227527100Y-140907300D03*
%TO.N,Net-(U21-D3)*%
X235147100Y-140907300D03*
%TO.N,Net-(U52-Zd)*%
X235147100Y-138367300D03*
%TO.N,N/C*%
X235147100Y-135827300D03*
X235147100Y-133287300D03*
%TO.N,Net-(U23-D0)*%
X235147100Y-130747300D03*
%TO.N,Net-(U24-Zd)*%
X235147100Y-128207300D03*
%TO.N,VCC*%
X235147100Y-125667300D03*
%TD*%
D13*
%TO.N,Net-(U41-~{MR})*%
%TO.C,U41*%
X84032100Y-51252300D03*
D14*
%TO.N,~{CLK}*%
X84032100Y-48712300D03*
%TO.N,unconnected-(U41-D0-Pad3)*%
X84032100Y-46172300D03*
%TO.N,unconnected-(U41-D1-Pad4)*%
X84032100Y-43632300D03*
%TO.N,unconnected-(U41-D2-Pad5)*%
X84032100Y-41092300D03*
%TO.N,unconnected-(U41-D3-Pad6)*%
X84032100Y-38552300D03*
%TO.N,VCC*%
X84032100Y-36012300D03*
%TO.N,GND*%
X84032100Y-33472300D03*
%TO.N,VCC*%
X76412100Y-33472300D03*
X76412100Y-36012300D03*
%TO.N,unconnected-(U41-Q3-Pad11)*%
X76412100Y-38552300D03*
%TO.N,Net-(D61-A)*%
X76412100Y-41092300D03*
%TO.N,Net-(D60-A)*%
X76412100Y-43632300D03*
%TO.N,Net-(D59-A)*%
X76412100Y-46172300D03*
%TO.N,unconnected-(U41-TC-Pad15)*%
X76412100Y-48712300D03*
%TO.N,VCC*%
X76412100Y-51252300D03*
%TD*%
D12*
%TO.N,VCC*%
%TO.C,C11*%
X249000000Y-42420000D03*
%TO.N,GND*%
X251000000Y-42420000D03*
%TD*%
D15*
%TO.N,Net-(D31-K)*%
%TO.C,D31*%
X205080000Y-161420000D03*
D16*
%TO.N,Net-(D31-A)*%
X207620000Y-161420000D03*
%TD*%
D15*
%TO.N,Net-(D116-K)*%
%TO.C,D116*%
X177460000Y-39920000D03*
D16*
%TO.N,Net-(D116-A)*%
X180000000Y-39920000D03*
%TD*%
D10*
%TO.N,Net-(C14-Pad2)*%
%TO.C,R32*%
X202817100Y-99912300D03*
%TO.N,GND*%
X195197100Y-99912300D03*
%TD*%
D11*
%TO.N,Net-(U4-Pad3)*%
%TO.C,U6*%
X312620000Y-141580000D03*
D10*
%TO.N,Net-(U4-Pad6)*%
X312620000Y-144120000D03*
%TO.N,Net-(U4-Pad9)*%
X312620000Y-146660000D03*
%TO.N,unconnected-(U6-Pad4)*%
X312620000Y-149200000D03*
%TO.N,unconnected-(U6-Pad5)*%
X312620000Y-151740000D03*
%TO.N,unconnected-(U6-Pad6)*%
X312620000Y-154280000D03*
%TO.N,GND*%
X312620000Y-156820000D03*
%TO.N,unconnected-(U6-Pad8)*%
X320240000Y-156820000D03*
%TO.N,unconnected-(U6-Pad9)*%
X320240000Y-154280000D03*
%TO.N,unconnected-(U6-Pad10)*%
X320240000Y-151740000D03*
%TO.N,unconnected-(U6-Pad11)*%
X320240000Y-149200000D03*
%TO.N,unconnected-(U6-Pad12)*%
X320240000Y-146660000D03*
%TO.N,unconnected-(U6-Pad13)*%
X320240000Y-144120000D03*
%TO.N,VCC*%
X320240000Y-141580000D03*
%TD*%
D15*
%TO.N,Net-(D57-K)*%
%TO.C,D57*%
X108902100Y-103552300D03*
D16*
%TO.N,Net-(D57-A)*%
X111442100Y-103552300D03*
%TD*%
D15*
%TO.N,Net-(D53-K)*%
%TO.C,D53*%
X117787100Y-122412300D03*
D16*
%TO.N,Net-(D53-A)*%
X120327100Y-122412300D03*
%TD*%
D10*
%TO.N,Net-(D17-K)*%
%TO.C,R15*%
X271717100Y-109602300D03*
%TO.N,GND*%
X271717100Y-117222300D03*
%TD*%
%TO.N,Net-(D15-K)*%
%TO.C,R13*%
X262167100Y-109542300D03*
%TO.N,GND*%
X262167100Y-117162300D03*
%TD*%
D15*
%TO.N,Net-(D112-K)*%
%TO.C,D112*%
X157500000Y-39920000D03*
D16*
%TO.N,IR_7*%
X160040000Y-39920000D03*
%TD*%
D10*
%TO.N,GND*%
%TO.C,R16*%
X276917100Y-117352300D03*
%TO.N,Net-(D18-K)*%
X276917100Y-109732300D03*
%TD*%
D15*
%TO.N,Net-(D14-K)*%
%TO.C,D14*%
X259460000Y-53920000D03*
D16*
%TO.N,CF*%
X262000000Y-53920000D03*
%TD*%
D10*
%TO.N,VCC*%
%TO.C,R3*%
X275507100Y-139162300D03*
%TO.N,Net-(U2-TR)*%
X283127100Y-139162300D03*
%TD*%
%TO.N,Net-(D62-K)*%
%TO.C,R65*%
X53667700Y-106657100D03*
%TO.N,GND*%
X46047700Y-106657100D03*
%TD*%
%TO.N,Net-(D20-K)*%
%TO.C,R20*%
X222197100Y-47272300D03*
%TO.N,GND*%
X222197100Y-54892300D03*
%TD*%
D15*
%TO.N,Net-(D69-K)*%
%TO.C,D69*%
X58500000Y-71650000D03*
D16*
%TO.N,BUS_7*%
X58500000Y-69110000D03*
%TD*%
D15*
%TO.N,Net-(D13-K)*%
%TO.C,D13*%
X257242100Y-103852300D03*
D16*
%TO.N,Net-(D13-A)*%
X259782100Y-103852300D03*
%TD*%
D10*
%TO.N,Net-(D028-K)*%
%TO.C,R97*%
X304460000Y-72670000D03*
%TO.N,GND*%
X304460000Y-65050000D03*
%TD*%
D17*
%TO.N,N/C*%
%TO.C,U43*%
X89442550Y-32020000D03*
D18*
%TO.N,GND*%
X89442550Y-34560000D03*
X89442550Y-37100000D03*
%TO.N,IR_7*%
X89442550Y-39640000D03*
%TO.N,IR_6*%
X89442550Y-42180000D03*
%TO.N,IR_5*%
X89442550Y-44720000D03*
%TO.N,IR_4*%
X89442550Y-47260000D03*
%TO.N,Net-(D61-A)*%
X89442550Y-49800000D03*
%TO.N,Net-(D60-A)*%
X89442550Y-52340000D03*
%TO.N,Net-(D59-A)*%
X89442550Y-54880000D03*
%TO.N,Net-(D45-A)*%
X89442550Y-57420000D03*
%TO.N,Net-(D44-A)*%
X89442550Y-59960000D03*
%TO.N,Net-(D43-A)*%
X89442550Y-62500000D03*
%TO.N,GND*%
X89442550Y-65040000D03*
%TO.N,Net-(D42-A)*%
X105000050Y-65040000D03*
%TO.N,Net-(D41-A)*%
X105000050Y-62500000D03*
%TO.N,RI*%
X105000050Y-59960000D03*
%TO.N,Net-(D39-A)*%
X105000050Y-57420000D03*
%TO.N,HLT*%
X105000050Y-54880000D03*
%TO.N,GND*%
X105000050Y-52340000D03*
X105000050Y-49800000D03*
X105000050Y-47260000D03*
X105000050Y-44720000D03*
%TO.N,ZF*%
X105000050Y-42180000D03*
%TO.N,CF*%
X105000050Y-39640000D03*
%TO.N,N/C*%
X105000050Y-37100000D03*
%TO.N,VCC*%
X105000050Y-34560000D03*
X105000050Y-32020000D03*
%TD*%
D15*
%TO.N,Net-(D17-K)*%
%TO.C,D17*%
X271842100Y-103852300D03*
D16*
%TO.N,Net-(D17-A)*%
X274382100Y-103852300D03*
%TD*%
D15*
%TO.N,Net-(D59-K)*%
%TO.C,D59*%
X102902100Y-86552300D03*
D16*
%TO.N,Net-(D59-A)*%
X105442100Y-86552300D03*
%TD*%
D15*
%TO.N,Net-(D115-K)*%
%TO.C,D115*%
X172460000Y-39920000D03*
D16*
%TO.N,IR_4*%
X175000000Y-39920000D03*
%TD*%
D19*
%TO.N,GND*%
%TO.C,SW6*%
X248817100Y-149927300D03*
X242317100Y-149927300D03*
%TO.N,Net-(U51-I0c)*%
X248817100Y-145427300D03*
X242317100Y-145427300D03*
%TD*%
D15*
%TO.N,Net-(D30-K)*%
%TO.C,D30*%
X200120000Y-161420000D03*
D16*
%TO.N,Net-(D30-A)*%
X202660000Y-161420000D03*
%TD*%
D11*
%TO.N,Net-(U31-Q)*%
%TO.C,U32*%
X130383900Y-134069100D03*
D10*
%TO.N,VCC*%
X130383900Y-136609100D03*
X130383900Y-139149100D03*
X130383900Y-141689100D03*
X130383900Y-144229100D03*
%TO.N,Net-(U32A-~{Q})*%
X130383900Y-146769100D03*
%TO.N,VCC*%
X130383900Y-149309100D03*
X130383900Y-151849100D03*
X138003900Y-151849100D03*
%TO.N,Net-(U32B-~{Q})*%
X138003900Y-149309100D03*
%TO.N,unconnected-(U32B-Q-Pad11)*%
X138003900Y-146769100D03*
%TO.N,VCC*%
X138003900Y-144229100D03*
%TO.N,GND*%
X138003900Y-141689100D03*
%TO.N,Net-(U32A-~{Q})*%
X138003900Y-139149100D03*
%TO.N,unconnected-(U32A-Q-Pad15)*%
X138003900Y-136609100D03*
%TO.N,VCC*%
X138003900Y-134069100D03*
%TD*%
D15*
%TO.N,Net-(D50-K)*%
%TO.C,D50*%
X102277100Y-122412300D03*
D16*
%TO.N,CE*%
X104817100Y-122412300D03*
%TD*%
D20*
%TO.N,Net-(U34-E)*%
%TO.C,U35*%
X81636400Y-145879100D03*
D10*
%TO.N,Net-(U34-D)*%
X84176400Y-145879100D03*
%TO.N,Net-(U33A-O0)*%
X86716400Y-145879100D03*
%TO.N,Net-(U34-C)*%
X89256400Y-145879100D03*
%TO.N,Net-(U34-DP)*%
X91796400Y-145879100D03*
%TO.N,Net-(U34-B)*%
X91796400Y-130639100D03*
%TO.N,Net-(U34-A)*%
X89256400Y-130639100D03*
%TO.N,Net-(U33A-O0)*%
X86716400Y-130639100D03*
%TO.N,Net-(U34-F)*%
X84176400Y-130639100D03*
%TO.N,Net-(U34-G)*%
X81636400Y-130639100D03*
%TD*%
D15*
%TO.N,Net-(D11-K)*%
%TO.C,D11*%
X247477100Y-103852300D03*
D16*
%TO.N,Net-(D11-A)*%
X250017100Y-103852300D03*
%TD*%
D15*
%TO.N,Net-(D25-K)*%
%TO.C,D25*%
X248710000Y-23500000D03*
D16*
%TO.N,Net-(D25-A)*%
X251250000Y-23500000D03*
%TD*%
D10*
%TO.N,Net-(D57-A)*%
%TO.C,R57*%
X111412100Y-98552300D03*
%TO.N,VCC*%
X111412100Y-90932300D03*
%TD*%
D11*
%TO.N,GND*%
%TO.C,U33*%
X141163900Y-134069100D03*
D10*
%TO.N,Net-(U32A-~{Q})*%
X141163900Y-136609100D03*
%TO.N,Net-(U32B-~{Q})*%
X141163900Y-139149100D03*
%TO.N,Net-(U33A-O0)*%
X141163900Y-141689100D03*
%TO.N,Net-(U33A-O1)*%
X141163900Y-144229100D03*
%TO.N,Net-(U33A-O2)*%
X141163900Y-146769100D03*
%TO.N,Net-(U33A-O3)*%
X141163900Y-149309100D03*
%TO.N,GND*%
X141163900Y-151849100D03*
%TO.N,N/C*%
X148783900Y-151849100D03*
X148783900Y-149309100D03*
X148783900Y-146769100D03*
X148783900Y-144229100D03*
X148783900Y-141689100D03*
X148783900Y-139149100D03*
X148783900Y-136609100D03*
%TO.N,VCC*%
X148783900Y-134069100D03*
%TD*%
D15*
%TO.N,Net-(D38-K)*%
%TO.C,D38*%
X42227100Y-122412300D03*
D16*
%TO.N,HLT*%
X44767100Y-122412300D03*
%TD*%
D10*
%TO.N,Net-(D69-K)*%
%TO.C,R72*%
X53667700Y-71657100D03*
%TO.N,GND*%
X46047700Y-71657100D03*
%TD*%
D12*
%TO.N,VCC*%
%TO.C,C18*%
X148666400Y-120379100D03*
%TO.N,GND*%
X146666400Y-120379100D03*
%TD*%
D15*
%TO.N,Net-(D42-K)*%
%TO.C,D42*%
X62227100Y-122412300D03*
D16*
%TO.N,Net-(D42-A)*%
X64767100Y-122412300D03*
%TD*%
D15*
%TO.N,Net-(D8-K)*%
%TO.C,D8*%
X231587100Y-81162300D03*
D16*
%TO.N,/ALU/A_1*%
X229047100Y-81162300D03*
%TD*%
D10*
%TO.N,Net-(D50-K)*%
%TO.C,R52*%
X102317100Y-117412300D03*
%TO.N,GND*%
X102317100Y-109792300D03*
%TD*%
%TO.N,Net-(D118-K)*%
%TO.C,R89*%
X187500000Y-34790000D03*
%TO.N,GND*%
X187500000Y-27170000D03*
%TD*%
%TO.N,Net-(D33-K)*%
%TO.C,R31*%
X215120000Y-166300000D03*
%TO.N,GND*%
X215120000Y-173920000D03*
%TD*%
%TO.N,VCC*%
%TO.C,R5*%
X292567100Y-157472300D03*
%TO.N,Net-(SW2-A)*%
X292567100Y-149852300D03*
%TD*%
D15*
%TO.N,Net-(D022-K)*%
%TO.C,D022*%
X334460000Y-78920000D03*
D16*
%TO.N,/ALU/B_7*%
X337000000Y-78920000D03*
%TD*%
D10*
%TO.N,Net-(D119-K)*%
%TO.C,R90*%
X192500000Y-34920000D03*
%TO.N,GND*%
X192500000Y-27300000D03*
%TD*%
D12*
%TO.N,VCC*%
%TO.C,C10*%
X255993900Y-82749100D03*
%TO.N,GND*%
X257993900Y-82749100D03*
%TD*%
%TO.N,Net-(U1-THR)*%
%TO.C,C7*%
X317605000Y-107040000D03*
%TO.N,GND*%
X315605000Y-107040000D03*
%TD*%
D15*
%TO.N,Net-(D54-K)*%
%TO.C,D54*%
X90872100Y-103552300D03*
D16*
%TO.N,Net-(D54-A)*%
X93412100Y-103552300D03*
%TD*%
D10*
%TO.N,BUS_6*%
%TO.C,R74*%
X63325000Y-92640000D03*
%TO.N,GND*%
X70945000Y-92640000D03*
%TD*%
D15*
%TO.N,Net-(D44-K)*%
%TO.C,D44*%
X72277100Y-122412300D03*
D16*
%TO.N,Net-(D44-A)*%
X74817100Y-122412300D03*
%TD*%
D15*
%TO.N,Net-(D48-K)*%
%TO.C,D48*%
X92277100Y-122412300D03*
D16*
%TO.N,Net-(D48-A)*%
X94817100Y-122412300D03*
%TD*%
D21*
%TO.N,Net-(U24-I0d)*%
%TO.C,SW5*%
X176817100Y-143412300D03*
D10*
%TO.N,Net-(U24-I0c)*%
X176817100Y-140872300D03*
%TO.N,GND*%
X176817100Y-138332300D03*
X176817100Y-135792300D03*
%TO.N,Net-(U52-I0d)*%
X176817100Y-133252300D03*
%TO.N,Net-(U52-I0c)*%
X176817100Y-130712300D03*
%TO.N,GND*%
X176817100Y-128172300D03*
X176817100Y-125632300D03*
%TO.N,Net-(U52-I0a)*%
X169197100Y-125632300D03*
%TO.N,Net-(U52-I0b)*%
X169197100Y-128172300D03*
%TO.N,GND*%
X169197100Y-130712300D03*
X169197100Y-133252300D03*
%TO.N,Net-(U24-I0a)*%
X169197100Y-135792300D03*
%TO.N,Net-(U24-I0b)*%
X169197100Y-138332300D03*
%TO.N,GND*%
X169197100Y-140872300D03*
X169197100Y-143412300D03*
%TD*%
D22*
%TO.N,GND*%
%TO.C,U29*%
X143430000Y-66740000D03*
D23*
%TO.N,unconnected-(U29-A0-Pad2)*%
X143430000Y-69280000D03*
%TO.N,unconnected-(U29-A1-Pad3)*%
X143430000Y-71820000D03*
%TO.N,unconnected-(U29-A2-Pad4)*%
X143430000Y-74360000D03*
%TO.N,unconnected-(U29-A3-Pad5)*%
X143430000Y-76900000D03*
%TO.N,BUS_3*%
X143430000Y-79440000D03*
%TO.N,BUS_2*%
X143430000Y-81980000D03*
%TO.N,BUS_1*%
X143430000Y-84520000D03*
%TO.N,BUS_0*%
X143430000Y-87060000D03*
%TO.N,GND*%
X143430000Y-89600000D03*
%TO.N,Net-(D37-A)*%
X151050000Y-89600000D03*
%TO.N,Net-(D36-A)*%
X151050000Y-87060000D03*
%TO.N,Net-(D35-A)*%
X151050000Y-84520000D03*
%TO.N,Net-(D34-A)*%
X151050000Y-81980000D03*
%TO.N,unconnected-(U29-B3-Pad15)*%
X151050000Y-79440000D03*
%TO.N,unconnected-(U29-B2-Pad16)*%
X151050000Y-76900000D03*
%TO.N,unconnected-(U29-B1-Pad17)*%
X151050000Y-74360000D03*
%TO.N,unconnected-(U29-B0-Pad18)*%
X151050000Y-71820000D03*
%TO.N,~{CO}*%
X151050000Y-69280000D03*
%TO.N,VCC*%
X151050000Y-66740000D03*
%TD*%
D10*
%TO.N,Net-(SW7-A)*%
%TO.C,R39*%
X109356400Y-150879100D03*
%TO.N,GND*%
X116976400Y-150879100D03*
%TD*%
D15*
%TO.N,Net-(D10-K)*%
%TO.C,D10*%
X259460000Y-58420000D03*
D16*
%TO.N,ZF*%
X262000000Y-58420000D03*
%TD*%
D15*
%TO.N,Net-(D028-K)*%
%TO.C,D028*%
X304440000Y-78920000D03*
D16*
%TO.N,/ALU/B_1*%
X306980000Y-78920000D03*
%TD*%
D10*
%TO.N,Net-(D42-K)*%
%TO.C,R44*%
X62317100Y-117412300D03*
%TO.N,GND*%
X62317100Y-109792300D03*
%TD*%
D15*
%TO.N,Net-(D20-K)*%
%TO.C,D20*%
X222397100Y-42332300D03*
D16*
%TO.N,/MAR/A3*%
X224937100Y-42332300D03*
%TD*%
D21*
%TO.N,Net-(U52-Za)*%
%TO.C,U22*%
X202437100Y-142152300D03*
D10*
%TO.N,Net-(U21-D0)*%
X202437100Y-139612300D03*
%TO.N,unconnected-(U22-Pad3)*%
X202437100Y-137072300D03*
%TO.N,unconnected-(U22-Pad4)*%
X202437100Y-134532300D03*
%TO.N,unconnected-(U22-Pad5)*%
X202437100Y-131992300D03*
%TO.N,unconnected-(U22-Pad6)*%
X202437100Y-129452300D03*
%TO.N,GND*%
X202437100Y-126912300D03*
%TO.N,unconnected-(U22-Pad8)*%
X194817100Y-126912300D03*
%TO.N,unconnected-(U22-Pad9)*%
X194817100Y-129452300D03*
%TO.N,unconnected-(U22-Pad10)*%
X194817100Y-131992300D03*
%TO.N,unconnected-(U22-Pad11)*%
X194817100Y-134532300D03*
%TO.N,unconnected-(U22-Pad12)*%
X194817100Y-137072300D03*
%TO.N,unconnected-(U22-Pad13)*%
X194817100Y-139612300D03*
%TO.N,VCC*%
X194817100Y-142152300D03*
%TD*%
%TO.N,Net-(D66-K)*%
%TO.C,R69*%
X53667700Y-86157100D03*
%TO.N,GND*%
X46047700Y-86157100D03*
%TD*%
%TO.N,Net-(D26-K)*%
%TO.C,R24*%
X180120000Y-166300000D03*
%TO.N,GND*%
X180120000Y-173920000D03*
%TD*%
%TO.N,VCC*%
%TO.C,R6*%
X296317100Y-147222300D03*
%TO.N,Net-(SW2-C)*%
X296317100Y-139602300D03*
%TD*%
D15*
%TO.N,Net-(D025-K)*%
%TO.C,D025*%
X319420000Y-78920000D03*
D16*
%TO.N,/ALU/B_4*%
X321960000Y-78920000D03*
%TD*%
D20*
%TO.N,Net-(U34-E)*%
%TO.C,U37*%
X109736400Y-145879100D03*
D10*
%TO.N,Net-(U34-D)*%
X112276400Y-145879100D03*
%TO.N,Net-(U33A-O1)*%
X114816400Y-145879100D03*
%TO.N,Net-(U34-C)*%
X117356400Y-145879100D03*
%TO.N,Net-(U34-DP)*%
X119896400Y-145879100D03*
%TO.N,Net-(U34-B)*%
X119896400Y-130639100D03*
%TO.N,Net-(U34-A)*%
X117356400Y-130639100D03*
%TO.N,Net-(U33A-O1)*%
X114816400Y-130639100D03*
%TO.N,Net-(U34-F)*%
X112276400Y-130639100D03*
%TO.N,Net-(U34-G)*%
X109736400Y-130639100D03*
%TD*%
D15*
%TO.N,Net-(D68-K)*%
%TO.C,D68*%
X58500000Y-76650000D03*
D16*
%TO.N,BUS_6*%
X58500000Y-74110000D03*
%TD*%
D10*
%TO.N,Net-(D19-K)*%
%TO.C,R17*%
X281917100Y-109602300D03*
%TO.N,GND*%
X281917100Y-117222300D03*
%TD*%
%TO.N,Net-(D68-K)*%
%TO.C,R71*%
X53667700Y-77157100D03*
%TO.N,GND*%
X46047700Y-77157100D03*
%TD*%
%TO.N,VCC*%
%TO.C,R19*%
X251250000Y-35750000D03*
%TO.N,Net-(D25-A)*%
X251250000Y-28130000D03*
%TD*%
D12*
%TO.N,Net-(U31-CV)*%
%TO.C,C17*%
X124166400Y-159879100D03*
%TO.N,GND*%
X122166400Y-159879100D03*
%TD*%
D15*
%TO.N,Net-(D114-K)*%
%TO.C,D114*%
X167480000Y-39920000D03*
D16*
%TO.N,IR_5*%
X170020000Y-39920000D03*
%TD*%
D12*
%TO.N,VCC*%
%TO.C,C13*%
X237977100Y-112097300D03*
%TO.N,GND*%
X239977100Y-112097300D03*
%TD*%
D10*
%TO.N,VCC*%
%TO.C,R37*%
X162666400Y-134689100D03*
%TO.N,Net-(U31-DIS)*%
X162666400Y-127069100D03*
%TD*%
%TO.N,GND*%
%TO.C,R33*%
X157990000Y-91790000D03*
%TO.N,Net-(D34-K)*%
X157990000Y-84170000D03*
%TD*%
%TO.N,Net-(D60-K)*%
%TO.C,R62*%
X108912100Y-81552300D03*
%TO.N,GND*%
X108912100Y-73932300D03*
%TD*%
D15*
%TO.N,Net-(D61-K)*%
%TO.C,D61*%
X114922100Y-86552300D03*
D16*
%TO.N,Net-(D61-A)*%
X117462100Y-86552300D03*
%TD*%
D15*
%TO.N,Net-(D21-K)*%
%TO.C,D21*%
X228407100Y-42332300D03*
D16*
%TO.N,/MAR/A2*%
X230947100Y-42332300D03*
%TD*%
D11*
%TO.N,Net-(D13-A)*%
%TO.C,U13*%
X276940000Y-45670000D03*
D10*
%TO.N,Net-(U13-B2)*%
X276940000Y-48210000D03*
%TO.N,/ALU/A_5*%
X276940000Y-50750000D03*
%TO.N,Net-(D15-A)*%
X276940000Y-53290000D03*
%TO.N,/ALU/A_4*%
X276940000Y-55830000D03*
%TO.N,Net-(U13-B1)*%
X276940000Y-58370000D03*
%TO.N,Net-(U13-C0)*%
X276940000Y-60910000D03*
%TO.N,GND*%
X276940000Y-63450000D03*
%TO.N,Net-(U12-D0)*%
X284560000Y-63450000D03*
%TO.N,Net-(D11-A)*%
X284560000Y-60910000D03*
%TO.N,Net-(U13-B4)*%
X284560000Y-58370000D03*
%TO.N,/ALU/A_7*%
X284560000Y-55830000D03*
%TO.N,Net-(D12-A)*%
X284560000Y-53290000D03*
%TO.N,/ALU/A_6*%
X284560000Y-50750000D03*
%TO.N,Net-(U13-B3)*%
X284560000Y-48210000D03*
%TO.N,VCC*%
X284560000Y-45670000D03*
%TD*%
%TO.N,Net-(D022-K)*%
%TO.C,R91*%
X334460000Y-72670000D03*
%TO.N,GND*%
X334460000Y-65050000D03*
%TD*%
%TO.N,Net-(D45-K)*%
%TO.C,R47*%
X77317100Y-117412300D03*
%TO.N,GND*%
X77317100Y-109792300D03*
%TD*%
%TO.N,Net-(J1-CC2)*%
%TO.C,R81*%
X30380000Y-112420000D03*
%TO.N,GND*%
X38000000Y-112420000D03*
%TD*%
D15*
%TO.N,Net-(D027-K)*%
%TO.C,D027*%
X309440000Y-78920000D03*
D16*
%TO.N,/ALU/B_2*%
X311980000Y-78920000D03*
%TD*%
D10*
%TO.N,Net-(D54-A)*%
%TO.C,R60*%
X93412100Y-98672300D03*
%TO.N,VCC*%
X93412100Y-91052300D03*
%TD*%
D11*
%TO.N,/MAR/PROG*%
%TO.C,U24*%
X184417100Y-125657300D03*
D10*
%TO.N,Net-(U24-I0a)*%
X184417100Y-128197300D03*
%TO.N,BUS_3*%
X184417100Y-130737300D03*
%TO.N,Net-(U24-Za)*%
X184417100Y-133277300D03*
%TO.N,Net-(U24-I0b)*%
X184417100Y-135817300D03*
%TO.N,BUS_2*%
X184417100Y-138357300D03*
%TO.N,Net-(U24-Zb)*%
X184417100Y-140897300D03*
%TO.N,GND*%
X184417100Y-143437300D03*
%TO.N,Net-(U24-Zd)*%
X192037100Y-143437300D03*
%TO.N,BUS_0*%
X192037100Y-140897300D03*
%TO.N,Net-(U24-I0d)*%
X192037100Y-138357300D03*
%TO.N,Net-(U24-Zc)*%
X192037100Y-135817300D03*
%TO.N,BUS_1*%
X192037100Y-133277300D03*
%TO.N,Net-(U24-I0c)*%
X192037100Y-130737300D03*
%TO.N,GND*%
X192037100Y-128197300D03*
%TO.N,VCC*%
X192037100Y-125657300D03*
%TD*%
D15*
%TO.N,Net-(D27-K)*%
%TO.C,D27*%
X185130000Y-161420000D03*
D16*
%TO.N,Net-(D27-A)*%
X187670000Y-161420000D03*
%TD*%
D10*
%TO.N,VCC*%
%TO.C,R1*%
X293007100Y-127412300D03*
%TO.N,Net-(U1-DIS)*%
X300627100Y-127412300D03*
%TD*%
%TO.N,VCC*%
%TO.C,R4*%
X282067100Y-157532300D03*
%TO.N,Net-(U2-DIS)*%
X282067100Y-149912300D03*
%TD*%
D15*
%TO.N,Net-(D29-K)*%
%TO.C,D29*%
X195120000Y-161420000D03*
D16*
%TO.N,Net-(D29-A)*%
X197660000Y-161420000D03*
%TD*%
D10*
%TO.N,Net-(D67-K)*%
%TO.C,R70*%
X53667700Y-81657100D03*
%TO.N,GND*%
X46047700Y-81657100D03*
%TD*%
D15*
%TO.N,Net-(D22-K)*%
%TO.C,D22*%
X234417100Y-42332300D03*
D16*
%TO.N,/MAR/A1*%
X236957100Y-42332300D03*
%TD*%
D10*
%TO.N,GND*%
%TO.C,R35*%
X170240000Y-91790000D03*
%TO.N,Net-(D36-K)*%
X170240000Y-84170000D03*
%TD*%
D15*
%TO.N,Net-(D56-K)*%
%TO.C,D56*%
X102892100Y-103552300D03*
D16*
%TO.N,Net-(D56-A)*%
X105432100Y-103552300D03*
%TD*%
D13*
%TO.N,~{CLR}*%
%TO.C,U30*%
X176740000Y-66300000D03*
D14*
%TO.N,CLK*%
X174200000Y-66300000D03*
%TO.N,BUS_0*%
X171660000Y-66300000D03*
%TO.N,BUS_1*%
X169120000Y-66300000D03*
%TO.N,BUS_2*%
X166580000Y-66300000D03*
%TO.N,BUS_3*%
X164040000Y-66300000D03*
%TO.N,CE*%
X161500000Y-66300000D03*
%TO.N,GND*%
X158960000Y-66300000D03*
%TO.N,~{J}*%
X158960000Y-73920000D03*
%TO.N,CE*%
X161500000Y-73920000D03*
%TO.N,Net-(D34-A)*%
X164040000Y-73920000D03*
%TO.N,Net-(D35-A)*%
X166580000Y-73920000D03*
%TO.N,Net-(D36-A)*%
X169120000Y-73920000D03*
%TO.N,Net-(D37-A)*%
X171660000Y-73920000D03*
%TO.N,unconnected-(U30-TC-Pad15)*%
X174200000Y-73920000D03*
%TO.N,VCC*%
X176740000Y-73920000D03*
%TD*%
D15*
%TO.N,Net-(D41-K)*%
%TO.C,D41*%
X57227100Y-122412300D03*
D16*
%TO.N,Net-(D41-A)*%
X59767100Y-122412300D03*
%TD*%
D15*
%TO.N,Net-(D46-K)*%
%TO.C,D46*%
X82277100Y-122412300D03*
D16*
%TO.N,Net-(D46-A)*%
X84817100Y-122412300D03*
%TD*%
D10*
%TO.N,GND*%
%TO.C,R36*%
X175990000Y-91790000D03*
%TO.N,Net-(D37-K)*%
X175990000Y-84170000D03*
%TD*%
%TO.N,Net-(D53-K)*%
%TO.C,R55*%
X117817100Y-117412300D03*
%TO.N,GND*%
X117817100Y-109792300D03*
%TD*%
D13*
%TO.N,GND*%
%TO.C,U19*%
X269000000Y-23180000D03*
D14*
X269000000Y-25720000D03*
%TO.N,/MAR/PROG*%
X269000000Y-28260000D03*
X269000000Y-30800000D03*
X269000000Y-33340000D03*
X269000000Y-35880000D03*
%TO.N,CLK*%
X269000000Y-38420000D03*
%TO.N,GND*%
X269000000Y-40960000D03*
%TO.N,~{MI}*%
X276620000Y-40960000D03*
X276620000Y-38420000D03*
%TO.N,BUS_0*%
X276620000Y-35880000D03*
%TO.N,BUS_1*%
X276620000Y-33340000D03*
%TO.N,BUS_2*%
X276620000Y-30800000D03*
%TO.N,BUS_3*%
X276620000Y-28260000D03*
%TO.N,CLR*%
X276620000Y-25720000D03*
%TO.N,VCC*%
X276620000Y-23180000D03*
%TD*%
D12*
%TO.N,VCC*%
%TO.C,C118*%
X199817100Y-54712300D03*
%TO.N,GND*%
X201817100Y-54712300D03*
%TD*%
D11*
%TO.N,Net-(U10-Pad1)*%
%TO.C,U10*%
X298500000Y-45680000D03*
D10*
%TO.N,Net-(U10-Pad2)*%
X298500000Y-48220000D03*
%TO.N,Net-(U10-Pad3)*%
X298500000Y-50760000D03*
%TO.N,Net-(U10-Pad4)*%
X298500000Y-53300000D03*
%TO.N,Net-(U10-Pad3)*%
X298500000Y-55840000D03*
%TO.N,Net-(U12-D1)*%
X298500000Y-58380000D03*
%TO.N,GND*%
X298500000Y-60920000D03*
%TO.N,Net-(U10-Pad4)*%
X306120000Y-60920000D03*
%TO.N,Net-(U10-Pad9)*%
X306120000Y-58380000D03*
%TO.N,Net-(U10-Pad10)*%
X306120000Y-55840000D03*
%TO.N,unconnected-(U10-Pad11)*%
X306120000Y-53300000D03*
%TO.N,unconnected-(U10-Pad12)*%
X306120000Y-50760000D03*
%TO.N,unconnected-(U10-Pad13)*%
X306120000Y-48220000D03*
%TO.N,VCC*%
X306120000Y-45680000D03*
%TD*%
D24*
%TO.N,*%
%TO.C,SW7*%
X109166400Y-158879100D03*
X117366400Y-158879100D03*
D25*
%TO.N,Net-(SW7-A)*%
X111266400Y-158879100D03*
D26*
%TO.N,Net-(SW7-B)*%
X113266400Y-158879100D03*
%TO.N,VCC*%
X115266400Y-158879100D03*
%TD*%
D10*
%TO.N,Net-(D117-K)*%
%TO.C,R88*%
X182500000Y-34920000D03*
%TO.N,GND*%
X182500000Y-27300000D03*
%TD*%
D13*
%TO.N,Net-(U10-Pad2)*%
%TO.C,U11*%
X266848400Y-70180000D03*
D14*
%TO.N,Net-(D11-A)*%
X266848400Y-72720000D03*
%TO.N,Net-(D12-A)*%
X266848400Y-75260000D03*
%TO.N,Net-(U10-Pad1)*%
X266848400Y-77800000D03*
%TO.N,Net-(D13-A)*%
X266848400Y-80340000D03*
%TO.N,Net-(D15-A)*%
X266848400Y-82880000D03*
%TO.N,GND*%
X266848400Y-85420000D03*
%TO.N,Net-(D16-A)*%
X274468400Y-85420000D03*
%TO.N,Net-(D17-A)*%
X274468400Y-82880000D03*
%TO.N,Net-(U10-Pad10)*%
X274468400Y-80340000D03*
%TO.N,Net-(D18-A)*%
X274468400Y-77800000D03*
%TO.N,Net-(D19-A)*%
X274468400Y-75260000D03*
%TO.N,Net-(U10-Pad9)*%
X274468400Y-72720000D03*
%TO.N,VCC*%
X274468400Y-70180000D03*
%TD*%
D19*
%TO.N,GND*%
%TO.C,SW1*%
X283067100Y-131162300D03*
X289567100Y-131162300D03*
%TO.N,Net-(U2-TR)*%
X283067100Y-135662300D03*
X289567100Y-135662300D03*
%TD*%
D15*
%TO.N,Net-(D28-K)*%
%TO.C,D28*%
X190120000Y-161420000D03*
D16*
%TO.N,Net-(D28-A)*%
X192660000Y-161420000D03*
%TD*%
D10*
%TO.N,Net-(D56-A)*%
%TO.C,R58*%
X105412100Y-98862300D03*
%TO.N,VCC*%
X105412100Y-91242300D03*
%TD*%
%TO.N,Net-(D55-A)*%
%TO.C,R59*%
X99912100Y-98672300D03*
%TO.N,VCC*%
X99912100Y-91052300D03*
%TD*%
%TO.N,Net-(U1-DIS)*%
%TO.C,R2*%
X309545000Y-111540000D03*
%TO.N,Net-(R2-Pad2)*%
X317165000Y-111540000D03*
%TD*%
D15*
%TO.N,Net-(D40-K)*%
%TO.C,D40*%
X52227100Y-122412300D03*
D16*
%TO.N,RI*%
X54767100Y-122412300D03*
%TD*%
D10*
%TO.N,GND*%
%TO.C,C4*%
X293317100Y-134162300D03*
%TO.N,Net-(U3-CV)*%
X293317100Y-136662300D03*
%TD*%
%TO.N,Net-(D024-K)*%
%TO.C,R93*%
X324210000Y-72730000D03*
%TO.N,GND*%
X324210000Y-65110000D03*
%TD*%
D15*
%TO.N,Net-(D2-K)*%
%TO.C,D2*%
X201507100Y-81162300D03*
D16*
%TO.N,/ALU/A_7*%
X198967100Y-81162300D03*
%TD*%
D10*
%TO.N,Net-(D115-K)*%
%TO.C,R86*%
X172500000Y-34920000D03*
%TO.N,GND*%
X172500000Y-27300000D03*
%TD*%
D15*
%TO.N,Net-(D47-K)*%
%TO.C,D47*%
X87277100Y-122412300D03*
D16*
%TO.N,SU*%
X89817100Y-122412300D03*
%TD*%
D20*
%TO.N,Net-(U34-E)*%
%TO.C,U34*%
X67586400Y-145879100D03*
D10*
%TO.N,Net-(U34-D)*%
X70126400Y-145879100D03*
%TO.N,Net-(U33A-O3)*%
X72666400Y-145879100D03*
%TO.N,Net-(U34-C)*%
X75206400Y-145879100D03*
%TO.N,Net-(U34-DP)*%
X77746400Y-145879100D03*
%TO.N,Net-(U34-B)*%
X77746400Y-130639100D03*
%TO.N,Net-(U34-A)*%
X75206400Y-130639100D03*
%TO.N,Net-(U33A-O3)*%
X72666400Y-130639100D03*
%TO.N,Net-(U34-F)*%
X70126400Y-130639100D03*
%TO.N,Net-(U34-G)*%
X67586400Y-130639100D03*
%TD*%
D22*
%TO.N,VCC*%
%TO.C,U25*%
X187760000Y-153920000D03*
D23*
%TO.N,Net-(D26-A)*%
X190300000Y-153920000D03*
%TO.N,Net-(D27-A)*%
X192840000Y-153920000D03*
%TO.N,Net-(D28-A)*%
X195380000Y-153920000D03*
%TO.N,Net-(D29-A)*%
X197920000Y-153920000D03*
%TO.N,Net-(D30-A)*%
X200460000Y-153920000D03*
%TO.N,Net-(D31-A)*%
X203000000Y-153920000D03*
%TO.N,Net-(D32-A)*%
X205540000Y-153920000D03*
%TO.N,Net-(D33-A)*%
X208080000Y-153920000D03*
%TO.N,GND*%
X210620000Y-153920000D03*
%TO.N,BUS_0*%
X210620000Y-146300000D03*
%TO.N,BUS_1*%
X208080000Y-146300000D03*
%TO.N,BUS_2*%
X205540000Y-146300000D03*
%TO.N,BUS_3*%
X203000000Y-146300000D03*
%TO.N,BUS_4*%
X200460000Y-146300000D03*
%TO.N,BUS_5*%
X197920000Y-146300000D03*
%TO.N,BUS_6*%
X195380000Y-146300000D03*
%TO.N,BUS_7*%
X192840000Y-146300000D03*
%TO.N,~{RO}*%
X190300000Y-146300000D03*
%TO.N,VCC*%
X187760000Y-146300000D03*
%TD*%
D15*
%TO.N,Net-(D026-K)*%
%TO.C,D026*%
X314460000Y-78920000D03*
D16*
%TO.N,/ALU/B_3*%
X317000000Y-78920000D03*
%TD*%
D10*
%TO.N,Net-(D029-K)*%
%TO.C,R98*%
X299460000Y-72670000D03*
%TO.N,GND*%
X299460000Y-65050000D03*
%TD*%
%TO.N,GND*%
%TO.C,R34*%
X163990000Y-91790000D03*
%TO.N,Net-(D35-K)*%
X163990000Y-84170000D03*
%TD*%
%TO.N,Net-(D5-K)*%
%TO.C,R102*%
X216567100Y-85662300D03*
%TO.N,GND*%
X216567100Y-93282300D03*
%TD*%
D22*
%TO.N,VCC*%
%TO.C,U48*%
X205957100Y-72282300D03*
D23*
%TO.N,/ALU/A_4*%
X208497100Y-72282300D03*
%TO.N,/ALU/A_5*%
X211037100Y-72282300D03*
%TO.N,/ALU/A_6*%
X213577100Y-72282300D03*
%TO.N,/ALU/A_7*%
X216117100Y-72282300D03*
%TO.N,/ALU/A_0*%
X218657100Y-72282300D03*
%TO.N,/ALU/A_1*%
X221197100Y-72282300D03*
%TO.N,/ALU/A_2*%
X223737100Y-72282300D03*
%TO.N,/ALU/A_3*%
X226277100Y-72282300D03*
%TO.N,GND*%
X228817100Y-72282300D03*
%TO.N,BUS_0*%
X228817100Y-64662300D03*
%TO.N,BUS_1*%
X226277100Y-64662300D03*
%TO.N,BUS_2*%
X223737100Y-64662300D03*
%TO.N,BUS_3*%
X221197100Y-64662300D03*
%TO.N,BUS_4*%
X218657100Y-64662300D03*
%TO.N,BUS_5*%
X216117100Y-64662300D03*
%TO.N,BUS_6*%
X213577100Y-64662300D03*
%TO.N,BUS_7*%
X211037100Y-64662300D03*
%TO.N,~{AO}*%
X208497100Y-64662300D03*
%TO.N,VCC*%
X205957100Y-64662300D03*
%TD*%
D15*
%TO.N,Net-(D029-K)*%
%TO.C,D029*%
X299440000Y-78920000D03*
D16*
%TO.N,/ALU/B_0*%
X301980000Y-78920000D03*
%TD*%
D10*
%TO.N,Net-(D30-K)*%
%TO.C,R28*%
X200620000Y-166300000D03*
%TO.N,GND*%
X200620000Y-173920000D03*
%TD*%
D13*
%TO.N,Net-(C14-Pad2)*%
%TO.C,U26*%
X205461600Y-105325000D03*
D14*
%TO.N,RI*%
X205461600Y-107865000D03*
%TO.N,Net-(U51-I1c)*%
X205461600Y-110405000D03*
%TO.N,~{CLR}*%
X205461600Y-112945000D03*
%TO.N,Net-(U42-O5)*%
X205461600Y-115485000D03*
%TO.N,Net-(U26-Pad6)*%
X205461600Y-118025000D03*
%TO.N,GND*%
X205461600Y-120565000D03*
%TO.N,~{CLR}*%
X213081600Y-120565000D03*
%TO.N,Net-(R64-Pad1)*%
X213081600Y-118025000D03*
X213081600Y-115485000D03*
%TO.N,CLR*%
X213081600Y-112945000D03*
%TO.N,~{CLR}*%
X213081600Y-110405000D03*
X213081600Y-107865000D03*
%TO.N,VCC*%
X213081600Y-105325000D03*
%TD*%
D15*
%TO.N,Net-(D1-K)*%
%TO.C,D1*%
X271297100Y-134912300D03*
D16*
%TO.N,CLK*%
X273837100Y-134912300D03*
%TD*%
D15*
%TO.N,Net-(D9-K)*%
%TO.C,D9*%
X236587100Y-81162300D03*
D16*
%TO.N,/ALU/A_0*%
X234047100Y-81162300D03*
%TD*%
D15*
%TO.N,Net-(D113-K)*%
%TO.C,D113*%
X162480000Y-39920000D03*
D16*
%TO.N,IR_6*%
X165020000Y-39920000D03*
%TD*%
D22*
%TO.N,VCC*%
%TO.C,U17*%
X252737100Y-98412300D03*
D23*
%TO.N,Net-(D11-A)*%
X255277100Y-98412300D03*
%TO.N,Net-(D12-A)*%
X257817100Y-98412300D03*
%TO.N,Net-(D13-A)*%
X260357100Y-98412300D03*
%TO.N,Net-(D15-A)*%
X262897100Y-98412300D03*
%TO.N,Net-(D16-A)*%
X265437100Y-98412300D03*
%TO.N,Net-(D17-A)*%
X267977100Y-98412300D03*
%TO.N,Net-(D18-A)*%
X270517100Y-98412300D03*
%TO.N,Net-(D19-A)*%
X273057100Y-98412300D03*
%TO.N,GND*%
X275597100Y-98412300D03*
%TO.N,BUS_0*%
X275597100Y-90792300D03*
%TO.N,BUS_1*%
X273057100Y-90792300D03*
%TO.N,BUS_2*%
X270517100Y-90792300D03*
%TO.N,BUS_3*%
X267977100Y-90792300D03*
%TO.N,BUS_4*%
X265437100Y-90792300D03*
%TO.N,BUS_5*%
X262897100Y-90792300D03*
%TO.N,BUS_6*%
X260357100Y-90792300D03*
%TO.N,BUS_7*%
X257817100Y-90792300D03*
%TO.N,~{EO}*%
X255277100Y-90792300D03*
%TO.N,VCC*%
X252737100Y-90792300D03*
%TD*%
D12*
%TO.N,VCC*%
%TO.C,C22*%
X202067100Y-74282300D03*
%TO.N,GND*%
X200067100Y-74282300D03*
%TD*%
D13*
%TO.N,/MAR/PROG*%
%TO.C,U18*%
X219800000Y-36540000D03*
D14*
X222340000Y-36540000D03*
X224880000Y-36540000D03*
%TO.N,/MAR/A3*%
X227420000Y-36540000D03*
%TO.N,/MAR/PROG*%
X229960000Y-36540000D03*
X232500000Y-36540000D03*
%TO.N,/MAR/A2*%
X235040000Y-36540000D03*
%TO.N,GND*%
X237580000Y-36540000D03*
%TO.N,/MAR/A1*%
X237580000Y-28920000D03*
%TO.N,/MAR/PROG*%
X235040000Y-28920000D03*
X232500000Y-28920000D03*
%TO.N,/MAR/A0*%
X229960000Y-28920000D03*
%TO.N,/MAR/PROG*%
X227420000Y-28920000D03*
X224880000Y-28920000D03*
%TO.N,GND*%
X222340000Y-28920000D03*
%TO.N,VCC*%
X219800000Y-28920000D03*
%TD*%
D10*
%TO.N,VCC*%
%TO.C,R18*%
X243250000Y-35750000D03*
%TO.N,Net-(D24-A)*%
X243250000Y-28130000D03*
%TD*%
%TO.N,Net-(D4-K)*%
%TO.C,R101*%
X211567100Y-85662300D03*
%TO.N,GND*%
X211567100Y-93282300D03*
%TD*%
D12*
%TO.N,VCC*%
%TO.C,C12*%
X237977100Y-105547300D03*
%TO.N,GND*%
X239977100Y-105547300D03*
%TD*%
D15*
%TO.N,Net-(D5-K)*%
%TO.C,D5*%
X216567100Y-81162300D03*
D16*
%TO.N,/ALU/A_4*%
X214027100Y-81162300D03*
%TD*%
D10*
%TO.N,Net-(D49-K)*%
%TO.C,R51*%
X97817100Y-117412300D03*
%TO.N,GND*%
X97817100Y-109792300D03*
%TD*%
%TO.N,Net-(D52-K)*%
%TO.C,R54*%
X112817100Y-117532300D03*
%TO.N,GND*%
X112817100Y-109912300D03*
%TD*%
%TO.N,GND*%
%TO.C,C1*%
X304067100Y-119162300D03*
%TO.N,Net-(U1-CV)*%
X304067100Y-121662300D03*
%TD*%
D19*
%TO.N,Net-(R64-Pad1)*%
%TO.C,SW8*%
X85250000Y-70250000D03*
X91750000Y-70250000D03*
%TO.N,VCC*%
X85250000Y-74750000D03*
X91750000Y-74750000D03*
%TD*%
D10*
%TO.N,Net-(D27-K)*%
%TO.C,R25*%
X185120000Y-166300000D03*
%TO.N,GND*%
X185120000Y-173920000D03*
%TD*%
D11*
%TO.N,/MAR/PROG*%
%TO.C,SW3*%
X256880000Y-32630000D03*
D10*
X256880000Y-35170000D03*
%TO.N,GND*%
X256880000Y-37710000D03*
X256880000Y-40250000D03*
%TO.N,/MAR/PROG*%
X264500000Y-40250000D03*
X264500000Y-37710000D03*
%TO.N,GND*%
X264500000Y-35170000D03*
X264500000Y-32630000D03*
%TD*%
D15*
%TO.N,Net-(D39-K)*%
%TO.C,D39*%
X47237100Y-122412300D03*
D16*
%TO.N,Net-(D39-A)*%
X49777100Y-122412300D03*
%TD*%
D10*
%TO.N,Net-(D44-K)*%
%TO.C,R46*%
X72317100Y-117412300D03*
%TO.N,GND*%
X72317100Y-109792300D03*
%TD*%
%TO.N,Net-(D6-K)*%
%TO.C,R103*%
X221567100Y-85662300D03*
%TO.N,GND*%
X221567100Y-93282300D03*
%TD*%
%TO.N,Net-(D32-K)*%
%TO.C,R30*%
X210120000Y-166110000D03*
%TO.N,GND*%
X210120000Y-173730000D03*
%TD*%
%TO.N,Net-(D48-K)*%
%TO.C,R50*%
X92317100Y-117412300D03*
%TO.N,GND*%
X92317100Y-109792300D03*
%TD*%
D24*
%TO.N,*%
%TO.C,SW4*%
X263100000Y-23500000D03*
X254900000Y-23500000D03*
D25*
%TO.N,/MAR/PROG*%
X261000000Y-23500000D03*
D26*
%TO.N,GND*%
X259000000Y-23500000D03*
%TO.N,Net-(D25-K)*%
X257000000Y-23500000D03*
%TD*%
D13*
%TO.N,Net-(U23-\u002AO1)*%
%TO.C,U28*%
X226613200Y-105325000D03*
D14*
%TO.N,Net-(D32-A)*%
X226613200Y-107865000D03*
%TO.N,Net-(U23-\u002AO0)*%
X226613200Y-110405000D03*
%TO.N,Net-(D33-A)*%
X226613200Y-112945000D03*
%TO.N,Net-(D42-A)*%
X226613200Y-115485000D03*
%TO.N,~{IO}*%
X226613200Y-118025000D03*
%TO.N,GND*%
X226613200Y-120565000D03*
%TO.N,~{AO}*%
X234233200Y-120565000D03*
%TO.N,Net-(D45-A)*%
X234233200Y-118025000D03*
%TO.N,~{AI}*%
X234233200Y-115485000D03*
%TO.N,Net-(D44-A)*%
X234233200Y-112945000D03*
%TO.N,~{II}*%
X234233200Y-110405000D03*
%TO.N,Net-(D43-A)*%
X234233200Y-107865000D03*
%TO.N,VCC*%
X234233200Y-105325000D03*
%TD*%
D22*
%TO.N,VCC*%
%TO.C,U117*%
X168570000Y-52730000D03*
D23*
%TO.N,IR_4*%
X171110000Y-52730000D03*
%TO.N,IR_5*%
X173650000Y-52730000D03*
%TO.N,IR_6*%
X176190000Y-52730000D03*
%TO.N,IR_7*%
X178730000Y-52730000D03*
%TO.N,Net-(D119-A)*%
X181270000Y-52730000D03*
%TO.N,Net-(D118-A)*%
X183810000Y-52730000D03*
%TO.N,Net-(D117-A)*%
X186350000Y-52730000D03*
%TO.N,Net-(D116-A)*%
X188890000Y-52730000D03*
%TO.N,GND*%
X191430000Y-52730000D03*
%TO.N,BUS_0*%
X191430000Y-45110000D03*
%TO.N,BUS_1*%
X188890000Y-45110000D03*
%TO.N,BUS_2*%
X186350000Y-45110000D03*
%TO.N,BUS_3*%
X183810000Y-45110000D03*
%TO.N,BUS_4*%
X181270000Y-45110000D03*
%TO.N,BUS_5*%
X178730000Y-45110000D03*
%TO.N,BUS_6*%
X176190000Y-45110000D03*
%TO.N,BUS_7*%
X173650000Y-45110000D03*
%TO.N,~{IO}*%
X171110000Y-45110000D03*
%TO.N,VCC*%
X168570000Y-45110000D03*
%TD*%
D10*
%TO.N,Net-(D9-K)*%
%TO.C,R106*%
X236817100Y-85912300D03*
%TO.N,GND*%
X236817100Y-93532300D03*
%TD*%
%TO.N,Net-(D023-K)*%
%TO.C,R92*%
X329460000Y-72730000D03*
%TO.N,GND*%
X329460000Y-65110000D03*
%TD*%
D15*
%TO.N,Net-(D60-K)*%
%TO.C,D60*%
X108912100Y-86552300D03*
D16*
%TO.N,Net-(D60-A)*%
X111452100Y-86552300D03*
%TD*%
D13*
%TO.N,/ALU/B_5*%
%TO.C,U15*%
X277424200Y-70180000D03*
D14*
%TO.N,SU*%
X277424200Y-72720000D03*
%TO.N,Net-(U13-B2)*%
X277424200Y-75260000D03*
%TO.N,/ALU/B_4*%
X277424200Y-77800000D03*
%TO.N,SU*%
X277424200Y-80340000D03*
%TO.N,Net-(U13-B1)*%
X277424200Y-82880000D03*
%TO.N,GND*%
X277424200Y-85420000D03*
%TO.N,Net-(U13-B4)*%
X285044200Y-85420000D03*
%TO.N,/ALU/B_7*%
X285044200Y-82880000D03*
%TO.N,SU*%
X285044200Y-80340000D03*
%TO.N,Net-(U13-B3)*%
X285044200Y-77800000D03*
%TO.N,/ALU/B_6*%
X285044200Y-75260000D03*
%TO.N,SU*%
X285044200Y-72720000D03*
%TO.N,VCC*%
X285044200Y-70180000D03*
%TD*%
D15*
%TO.N,Net-(D16-K)*%
%TO.C,D16*%
X266967100Y-103852300D03*
D16*
%TO.N,Net-(D16-A)*%
X269507100Y-103852300D03*
%TD*%
D10*
%TO.N,Net-(D2-K)*%
%TO.C,R99*%
X201567100Y-85662300D03*
%TO.N,GND*%
X201567100Y-93282300D03*
%TD*%
D15*
%TO.N,Net-(D18-K)*%
%TO.C,D18*%
X276717100Y-103852300D03*
D16*
%TO.N,Net-(D18-A)*%
X279257100Y-103852300D03*
%TD*%
D10*
%TO.N,Net-(D28-K)*%
%TO.C,R26*%
X190120000Y-166110000D03*
%TO.N,GND*%
X190120000Y-173730000D03*
%TD*%
D13*
%TO.N,Net-(D39-A)*%
%TO.C,U46*%
X132792100Y-31392300D03*
D14*
%TO.N,~{MI}*%
X132792100Y-33932300D03*
%TO.N,Net-(D41-A)*%
X132792100Y-36472300D03*
%TO.N,~{RO}*%
X132792100Y-39012300D03*
%TO.N,Net-(D53-A)*%
X132792100Y-41552300D03*
%TO.N,~{FI}*%
X132792100Y-44092300D03*
%TO.N,GND*%
X132792100Y-46632300D03*
%TO.N,unconnected-(U46-Pad8)*%
X140412100Y-46632300D03*
%TO.N,unconnected-(U46-Pad9)*%
X140412100Y-44092300D03*
%TO.N,~{J}*%
X140412100Y-41552300D03*
%TO.N,Net-(D52-A)*%
X140412100Y-39012300D03*
%TO.N,~{CO}*%
X140412100Y-36472300D03*
%TO.N,Net-(D51-A)*%
X140412100Y-33932300D03*
%TO.N,VCC*%
X140412100Y-31392300D03*
%TD*%
D10*
%TO.N,Net-(D43-K)*%
%TO.C,R45*%
X67317100Y-117412300D03*
%TO.N,GND*%
X67317100Y-109792300D03*
%TD*%
D15*
%TO.N,Net-(D64-K)*%
%TO.C,D64*%
X58500000Y-96690000D03*
D16*
%TO.N,BUS_2*%
X58500000Y-94150000D03*
%TD*%
D15*
%TO.N,Net-(D3-K)*%
%TO.C,D3*%
X206547100Y-81162300D03*
D16*
%TO.N,/ALU/A_6*%
X204007100Y-81162300D03*
%TD*%
D10*
%TO.N,Net-(D65-K)*%
%TO.C,R68*%
X53547700Y-91657100D03*
%TO.N,GND*%
X45927700Y-91657100D03*
%TD*%
D15*
%TO.N,Net-(D65-K)*%
%TO.C,D65*%
X58500000Y-91690000D03*
D16*
%TO.N,BUS_3*%
X58500000Y-89150000D03*
%TD*%
D22*
%TO.N,VCC*%
%TO.C,U7*%
X324650000Y-83680000D03*
D23*
%TO.N,/ALU/B_4*%
X322110000Y-83680000D03*
%TO.N,/ALU/B_5*%
X319570000Y-83680000D03*
%TO.N,/ALU/B_6*%
X317030000Y-83680000D03*
%TO.N,/ALU/B_7*%
X314490000Y-83680000D03*
%TO.N,/ALU/B_0*%
X311950000Y-83680000D03*
%TO.N,/ALU/B_1*%
X309410000Y-83680000D03*
%TO.N,/ALU/B_2*%
X306870000Y-83680000D03*
%TO.N,/ALU/B_3*%
X304330000Y-83680000D03*
%TO.N,GND*%
X301790000Y-83680000D03*
%TO.N,BUS_0*%
X301790000Y-91300000D03*
%TO.N,BUS_1*%
X304330000Y-91300000D03*
%TO.N,BUS_2*%
X306870000Y-91300000D03*
%TO.N,BUS_3*%
X309410000Y-91300000D03*
%TO.N,BUS_4*%
X311950000Y-91300000D03*
%TO.N,BUS_5*%
X314490000Y-91300000D03*
%TO.N,BUS_6*%
X317030000Y-91300000D03*
%TO.N,BUS_7*%
X319570000Y-91300000D03*
%TO.N,VCC*%
X322110000Y-91300000D03*
X324650000Y-91300000D03*
%TD*%
D15*
%TO.N,Net-(D35-K)*%
%TO.C,D35*%
X163960000Y-79420000D03*
D16*
%TO.N,Net-(D35-A)*%
X166500000Y-79420000D03*
%TD*%
D13*
%TO.N,GND*%
%TO.C,U9*%
X332580000Y-93800000D03*
D14*
X330040000Y-93800000D03*
%TO.N,/ALU/B_3*%
X327500000Y-93800000D03*
%TO.N,/ALU/B_2*%
X324960000Y-93800000D03*
%TO.N,/ALU/B_1*%
X322420000Y-93800000D03*
%TO.N,/ALU/B_0*%
X319880000Y-93800000D03*
%TO.N,CLK*%
X317340000Y-93800000D03*
%TO.N,GND*%
X314800000Y-93800000D03*
%TO.N,~{BI}*%
X314800000Y-101420000D03*
X317340000Y-101420000D03*
%TO.N,BUS_0*%
X319880000Y-101420000D03*
%TO.N,BUS_1*%
X322420000Y-101420000D03*
%TO.N,BUS_2*%
X324960000Y-101420000D03*
%TO.N,BUS_3*%
X327500000Y-101420000D03*
%TO.N,CLR*%
X330040000Y-101420000D03*
%TO.N,VCC*%
X332580000Y-101420000D03*
%TD*%
D15*
%TO.N,Net-(D49-K)*%
%TO.C,D49*%
X97277100Y-122412300D03*
D16*
%TO.N,OI*%
X99817100Y-122412300D03*
%TD*%
D15*
%TO.N,Net-(D119-K)*%
%TO.C,D119*%
X192460000Y-39920000D03*
D16*
%TO.N,Net-(D119-A)*%
X195000000Y-39920000D03*
%TD*%
D10*
%TO.N,BUS_7*%
%TO.C,R73*%
X63087900Y-88287700D03*
%TO.N,GND*%
X70707900Y-88287700D03*
%TD*%
%TO.N,Net-(U31-THR)*%
%TO.C,R38*%
X155666400Y-124379100D03*
%TO.N,Net-(U31-DIS)*%
X163286400Y-124379100D03*
%TD*%
D15*
%TO.N,Net-(D023-K)*%
%TO.C,D023*%
X329500000Y-78880000D03*
D16*
%TO.N,/ALU/B_6*%
X332040000Y-78880000D03*
%TD*%
D15*
%TO.N,Net-(D34-K)*%
%TO.C,D34*%
X157950000Y-79420000D03*
D16*
%TO.N,Net-(D34-A)*%
X160490000Y-79420000D03*
%TD*%
D12*
%TO.N,Net-(U31-THR)*%
%TO.C,C16*%
X155666400Y-119379100D03*
%TO.N,GND*%
X155666400Y-117379100D03*
%TD*%
D10*
%TO.N,Net-(D11-K)*%
%TO.C,R9*%
X247417100Y-109602300D03*
%TO.N,GND*%
X247417100Y-117222300D03*
%TD*%
D15*
%TO.N,Net-(D117-K)*%
%TO.C,D117*%
X182460000Y-39920000D03*
D16*
%TO.N,Net-(D117-A)*%
X185000000Y-39920000D03*
%TD*%
D13*
%TO.N,GND*%
%TO.C,U50*%
X246567100Y-79112300D03*
D14*
X246567100Y-76572300D03*
%TO.N,/ALU/A_3*%
X246567100Y-74032300D03*
%TO.N,/ALU/A_2*%
X246567100Y-71492300D03*
%TO.N,/ALU/A_1*%
X246567100Y-68952300D03*
%TO.N,/ALU/A_0*%
X246567100Y-66412300D03*
%TO.N,CLK*%
X246567100Y-63872300D03*
%TO.N,GND*%
X246567100Y-61332300D03*
%TO.N,~{AI}*%
X238947100Y-61332300D03*
X238947100Y-63872300D03*
%TO.N,BUS_0*%
X238947100Y-66412300D03*
%TO.N,BUS_1*%
X238947100Y-68952300D03*
%TO.N,BUS_2*%
X238947100Y-71492300D03*
%TO.N,BUS_3*%
X238947100Y-74032300D03*
%TO.N,CLR*%
X238947100Y-76572300D03*
%TO.N,VCC*%
X238947100Y-79112300D03*
%TD*%
D15*
%TO.N,/MAR/PROG*%
%TO.C,D24*%
X241230000Y-23500000D03*
D16*
%TO.N,Net-(D24-A)*%
X243770000Y-23500000D03*
%TD*%
D10*
%TO.N,Net-(D31-K)*%
%TO.C,R29*%
X205120000Y-166300000D03*
%TO.N,GND*%
X205120000Y-173920000D03*
%TD*%
%TO.N,Net-(D59-K)*%
%TO.C,R61*%
X102912100Y-81552300D03*
%TO.N,GND*%
X102912100Y-73932300D03*
%TD*%
%TO.N,Net-(D026-K)*%
%TO.C,R95*%
X314460000Y-72670000D03*
%TO.N,GND*%
X314460000Y-65050000D03*
%TD*%
D12*
%TO.N,VCC*%
%TO.C,C19*%
X147666400Y-126379100D03*
%TO.N,GND*%
X145666400Y-126379100D03*
%TD*%
D10*
%TO.N,Net-(D1-K)*%
%TO.C,R7*%
X271317100Y-139602300D03*
%TO.N,GND*%
X271317100Y-147222300D03*
%TD*%
D15*
%TO.N,Net-(D67-K)*%
%TO.C,D67*%
X58500000Y-81690000D03*
D16*
%TO.N,BUS_5*%
X58500000Y-79150000D03*
%TD*%
D15*
%TO.N,Net-(D26-K)*%
%TO.C,D26*%
X180080000Y-161420000D03*
D16*
%TO.N,Net-(D26-A)*%
X182620000Y-161420000D03*
%TD*%
D12*
%TO.N,VCC*%
%TO.C,C21*%
X80612100Y-63342300D03*
%TO.N,GND*%
X82612100Y-63342300D03*
%TD*%
D10*
%TO.N,Net-(D29-K)*%
%TO.C,R27*%
X195120000Y-166110000D03*
%TO.N,GND*%
X195120000Y-173730000D03*
%TD*%
%TO.N,Net-(D3-K)*%
%TO.C,R100*%
X206567100Y-85662300D03*
%TO.N,GND*%
X206567100Y-93282300D03*
%TD*%
D15*
%TO.N,Net-(D58-K)*%
%TO.C,D58*%
X114912100Y-103552300D03*
D16*
%TO.N,Net-(D58-A)*%
X117452100Y-103552300D03*
%TD*%
D10*
%TO.N,Net-(D41-K)*%
%TO.C,R43*%
X57317100Y-117412300D03*
%TO.N,GND*%
X57317100Y-109792300D03*
%TD*%
D15*
%TO.N,Net-(D66-K)*%
%TO.C,D66*%
X58500000Y-86650000D03*
D16*
%TO.N,BUS_4*%
X58500000Y-84110000D03*
%TD*%
D15*
%TO.N,Net-(D23-K)*%
%TO.C,D23*%
X240427100Y-42332300D03*
D16*
%TO.N,/MAR/A0*%
X242967100Y-42332300D03*
%TD*%
D12*
%TO.N,VCC*%
%TO.C,C20*%
X80612100Y-56792300D03*
%TO.N,GND*%
X82612100Y-56792300D03*
%TD*%
D10*
%TO.N,Net-(D39-K)*%
%TO.C,R41*%
X47317100Y-117412300D03*
%TO.N,GND*%
X47317100Y-109792300D03*
%TD*%
%TO.N,Net-(D46-K)*%
%TO.C,R48*%
X82317100Y-117412300D03*
%TO.N,GND*%
X82317100Y-109792300D03*
%TD*%
%TO.N,GND*%
%TO.C,C2*%
X275567100Y-154412300D03*
%TO.N,Net-(U2-CV)*%
X278067100Y-154412300D03*
%TD*%
D20*
%TO.N,Net-(U34-E)*%
%TO.C,U36*%
X95686400Y-145879100D03*
D10*
%TO.N,Net-(U34-D)*%
X98226400Y-145879100D03*
%TO.N,Net-(U33A-O2)*%
X100766400Y-145879100D03*
%TO.N,Net-(U34-C)*%
X103306400Y-145879100D03*
%TO.N,Net-(U34-DP)*%
X105846400Y-145879100D03*
%TO.N,Net-(U34-B)*%
X105846400Y-130639100D03*
%TO.N,Net-(U34-A)*%
X103306400Y-130639100D03*
%TO.N,Net-(U33A-O2)*%
X100766400Y-130639100D03*
%TO.N,Net-(U34-F)*%
X98226400Y-130639100D03*
%TO.N,Net-(U34-G)*%
X95686400Y-130639100D03*
%TD*%
D15*
%TO.N,Net-(D37-K)*%
%TO.C,D37*%
X175980000Y-79420000D03*
D16*
%TO.N,Net-(D37-A)*%
X178520000Y-79420000D03*
%TD*%
D11*
%TO.N,GND*%
%TO.C,U12*%
X266160000Y-45670000D03*
D10*
X266160000Y-48210000D03*
%TO.N,CF*%
X266160000Y-50750000D03*
%TO.N,ZF*%
X266160000Y-53290000D03*
%TO.N,unconnected-(U12-Q2-Pad5)*%
X266160000Y-55830000D03*
%TO.N,unconnected-(U12-Q3-Pad6)*%
X266160000Y-58370000D03*
%TO.N,CLK*%
X266160000Y-60910000D03*
%TO.N,GND*%
X266160000Y-63450000D03*
%TO.N,~{FI}*%
X273780000Y-63450000D03*
X273780000Y-60910000D03*
%TO.N,unconnected-(U12-D3-Pad11)*%
X273780000Y-58370000D03*
%TO.N,unconnected-(U12-D2-Pad12)*%
X273780000Y-55830000D03*
%TO.N,Net-(U12-D1)*%
X273780000Y-53290000D03*
%TO.N,Net-(U12-D0)*%
X273780000Y-50750000D03*
%TO.N,CLR*%
X273780000Y-48210000D03*
%TO.N,VCC*%
X273780000Y-45670000D03*
%TD*%
D27*
%TO.N,GND*%
%TO.C,J1*%
X24320000Y-106350000D03*
X20520000Y-106350000D03*
X24320000Y-114990000D03*
X20520000Y-114990000D03*
%TD*%
D13*
%TO.N,OI*%
%TO.C,U39*%
X155676800Y-96506800D03*
D14*
%TO.N,CLK*%
X155676800Y-99046800D03*
%TO.N,Net-(U38-Cp)*%
X155676800Y-101586800D03*
%TO.N,N/C*%
X155676800Y-104126800D03*
X155676800Y-106666800D03*
X155676800Y-109206800D03*
%TO.N,GND*%
X155676800Y-111746800D03*
%TO.N,N/C*%
X163296800Y-111746800D03*
X163296800Y-109206800D03*
X163296800Y-106666800D03*
X163296800Y-104126800D03*
X163296800Y-101586800D03*
X163296800Y-99046800D03*
%TO.N,VCC*%
X163296800Y-96506800D03*
%TD*%
D10*
%TO.N,Net-(D63-K)*%
%TO.C,R66*%
X53667700Y-102157100D03*
%TO.N,GND*%
X46047700Y-102157100D03*
%TD*%
D15*
%TO.N,Net-(D32-K)*%
%TO.C,D32*%
X210120000Y-161420000D03*
D16*
%TO.N,Net-(D32-A)*%
X212660000Y-161420000D03*
%TD*%
D10*
%TO.N,Net-(D13-K)*%
%TO.C,R12*%
X257167100Y-109542300D03*
%TO.N,GND*%
X257167100Y-117162300D03*
%TD*%
D13*
%TO.N,Net-(D59-A)*%
%TO.C,U42*%
X74120000Y-89100000D03*
D14*
%TO.N,Net-(D60-A)*%
X74120000Y-91640000D03*
%TO.N,Net-(D61-A)*%
X74120000Y-94180000D03*
%TO.N,GND*%
X74120000Y-96720000D03*
X74120000Y-99260000D03*
%TO.N,VCC*%
X74120000Y-101800000D03*
%TO.N,unconnected-(U42-O7-Pad7)*%
X74120000Y-104340000D03*
%TO.N,GND*%
X74120000Y-106880000D03*
%TO.N,unconnected-(U42-O6-Pad9)*%
X81740000Y-106880000D03*
%TO.N,Net-(U42-O5)*%
X81740000Y-104340000D03*
%TO.N,Net-(D54-K)*%
X81740000Y-101800000D03*
%TO.N,Net-(D55-K)*%
X81740000Y-99260000D03*
%TO.N,Net-(D56-K)*%
X81740000Y-96720000D03*
%TO.N,Net-(D57-K)*%
X81740000Y-94180000D03*
%TO.N,Net-(D58-K)*%
X81740000Y-91640000D03*
%TO.N,VCC*%
X81740000Y-89100000D03*
%TD*%
D10*
%TO.N,Net-(D23-K)*%
%TO.C,R23*%
X240647100Y-47272300D03*
%TO.N,GND*%
X240647100Y-54892300D03*
%TD*%
D22*
%TO.N,GND*%
%TO.C,U118*%
X184000000Y-55420000D03*
D23*
X181460000Y-55420000D03*
%TO.N,IR_7*%
X178920000Y-55420000D03*
%TO.N,IR_6*%
X176380000Y-55420000D03*
%TO.N,IR_5*%
X173840000Y-55420000D03*
%TO.N,IR_4*%
X171300000Y-55420000D03*
%TO.N,CLK*%
X168760000Y-55420000D03*
%TO.N,GND*%
X166220000Y-55420000D03*
%TO.N,~{II}*%
X163680000Y-55420000D03*
X161140000Y-55420000D03*
%TO.N,BUS_4*%
X161140000Y-63040000D03*
%TO.N,BUS_5*%
X163680000Y-63040000D03*
%TO.N,BUS_6*%
X166220000Y-63040000D03*
%TO.N,BUS_7*%
X168760000Y-63040000D03*
%TO.N,CLR*%
X171300000Y-63040000D03*
%TO.N,VCC*%
X173840000Y-63040000D03*
%TO.N,N/C*%
X176380000Y-63040000D03*
X178920000Y-63040000D03*
X181460000Y-63040000D03*
X184000000Y-63040000D03*
%TD*%
D15*
%TO.N,Net-(D62-K)*%
%TO.C,D62*%
X58500000Y-106690000D03*
D16*
%TO.N,BUS_0*%
X58500000Y-104150000D03*
%TD*%
D15*
%TO.N,Net-(D15-K)*%
%TO.C,D15*%
X262087100Y-103852300D03*
D16*
%TO.N,Net-(D15-A)*%
X264627100Y-103852300D03*
%TD*%
D10*
%TO.N,Net-(D14-K)*%
%TO.C,R8*%
X256750000Y-53980000D03*
%TO.N,GND*%
X256750000Y-46360000D03*
%TD*%
D15*
%TO.N,Net-(D63-K)*%
%TO.C,D63*%
X58500000Y-101690000D03*
D16*
%TO.N,BUS_1*%
X58500000Y-99150000D03*
%TD*%
D13*
%TO.N,Net-(U21-\u002AO0)*%
%TO.C,U27*%
X216037400Y-105325000D03*
D14*
%TO.N,Net-(D26-A)*%
X216037400Y-107865000D03*
%TO.N,Net-(U21-\u002AO1)*%
X216037400Y-110405000D03*
%TO.N,Net-(D27-A)*%
X216037400Y-112945000D03*
%TO.N,Net-(U21-\u002AO2)*%
X216037400Y-115485000D03*
%TO.N,Net-(D28-A)*%
X216037400Y-118025000D03*
%TO.N,GND*%
X216037400Y-120565000D03*
%TO.N,Net-(D29-A)*%
X223657400Y-120565000D03*
%TO.N,Net-(U21-\u002AO3)*%
X223657400Y-118025000D03*
%TO.N,Net-(D30-A)*%
X223657400Y-115485000D03*
%TO.N,Net-(U23-\u002AO3)*%
X223657400Y-112945000D03*
%TO.N,Net-(D31-A)*%
X223657400Y-110405000D03*
%TO.N,Net-(U23-\u002AO2)*%
X223657400Y-107865000D03*
%TO.N,VCC*%
X223657400Y-105325000D03*
%TD*%
D11*
%TO.N,Net-(D18-A)*%
%TO.C,U14*%
X287720000Y-45670000D03*
D10*
%TO.N,Net-(U14-B2)*%
X287720000Y-48210000D03*
%TO.N,/ALU/A_1*%
X287720000Y-50750000D03*
%TO.N,Net-(D19-A)*%
X287720000Y-53290000D03*
%TO.N,/ALU/A_0*%
X287720000Y-55830000D03*
%TO.N,Net-(U14-B1)*%
X287720000Y-58370000D03*
%TO.N,SU*%
X287720000Y-60910000D03*
%TO.N,GND*%
X287720000Y-63450000D03*
%TO.N,Net-(U13-C0)*%
X295340000Y-63450000D03*
%TO.N,Net-(D16-A)*%
X295340000Y-60910000D03*
%TO.N,Net-(U14-B4)*%
X295340000Y-58370000D03*
%TO.N,/ALU/A_3*%
X295340000Y-55830000D03*
%TO.N,Net-(D17-A)*%
X295340000Y-53290000D03*
%TO.N,/ALU/A_2*%
X295340000Y-50750000D03*
%TO.N,Net-(U14-B3)*%
X295340000Y-48210000D03*
%TO.N,VCC*%
X295340000Y-45670000D03*
%TD*%
%TO.N,Net-(D113-K)*%
%TO.C,R84*%
X162500000Y-34920000D03*
%TO.N,GND*%
X162500000Y-27300000D03*
%TD*%
%TO.N,Net-(D51-K)*%
%TO.C,R53*%
X107817100Y-117532300D03*
%TO.N,GND*%
X107817100Y-109912300D03*
%TD*%
D15*
%TO.N,Net-(D7-K)*%
%TO.C,D7*%
X226587100Y-81162300D03*
D16*
%TO.N,/ALU/A_2*%
X224047100Y-81162300D03*
%TD*%
D15*
%TO.N,Net-(D55-K)*%
%TO.C,D55*%
X96882100Y-103552300D03*
D16*
%TO.N,Net-(D55-A)*%
X99422100Y-103552300D03*
%TD*%
D15*
%TO.N,Net-(D19-K)*%
%TO.C,D19*%
X281877100Y-103852300D03*
D16*
%TO.N,Net-(D19-A)*%
X284417100Y-103852300D03*
%TD*%
D10*
%TO.N,Net-(D8-K)*%
%TO.C,R105*%
X231567100Y-85662300D03*
%TO.N,GND*%
X231567100Y-93282300D03*
%TD*%
D28*
%TO.N,*%
%TO.C,RV1*%
X328275000Y-106700000D03*
X328275000Y-116300000D03*
D15*
%TO.N,Net-(U1-THR)*%
X320775000Y-109000000D03*
D16*
%TO.N,Net-(R2-Pad2)*%
X320775000Y-111500000D03*
%TO.N,unconnected-(RV1-Pad3)*%
X320775000Y-114000000D03*
%TD*%
D13*
%TO.N,Net-(D46-A)*%
%TO.C,U47*%
X132912100Y-51812300D03*
D14*
%TO.N,~{EO}*%
X132912100Y-54352300D03*
%TO.N,Net-(D48-A)*%
X132912100Y-56892300D03*
%TO.N,~{BI}*%
X132912100Y-59432300D03*
%TO.N,unconnected-(U47-Pad5)*%
X132912100Y-61972300D03*
%TO.N,unconnected-(U47-Pad6)*%
X132912100Y-64512300D03*
%TO.N,GND*%
X132912100Y-67052300D03*
%TO.N,unconnected-(U47-Pad8)*%
X140532100Y-67052300D03*
%TO.N,unconnected-(U47-Pad9)*%
X140532100Y-64512300D03*
%TO.N,unconnected-(U47-Pad10)*%
X140532100Y-61972300D03*
%TO.N,unconnected-(U47-Pad11)*%
X140532100Y-59432300D03*
%TO.N,unconnected-(U47-Pad12)*%
X140532100Y-56892300D03*
%TO.N,unconnected-(U47-Pad13)*%
X140532100Y-54352300D03*
%TO.N,VCC*%
X140532100Y-51812300D03*
%TD*%
D10*
%TO.N,Net-(D7-K)*%
%TO.C,R104*%
X226567100Y-85662300D03*
%TO.N,GND*%
X226567100Y-93282300D03*
%TD*%
%TO.N,Net-(R64-Pad1)*%
%TO.C,R64*%
X85912100Y-66552300D03*
%TO.N,GND*%
X85912100Y-58932300D03*
%TD*%
%TO.N,Net-(D38-K)*%
%TO.C,R40*%
X42317100Y-117412300D03*
%TO.N,GND*%
X42317100Y-109792300D03*
%TD*%
%TO.N,Net-(D114-K)*%
%TO.C,R85*%
X167500000Y-34920000D03*
%TO.N,GND*%
X167500000Y-27300000D03*
%TD*%
D12*
%TO.N,VCC*%
%TO.C,C15*%
X153490000Y-60920000D03*
%TO.N,GND*%
X155490000Y-60920000D03*
%TD*%
D15*
%TO.N,Net-(D12-K)*%
%TO.C,D12*%
X252367100Y-103852300D03*
D16*
%TO.N,Net-(D12-A)*%
X254907100Y-103852300D03*
%TD*%
D29*
%TO.N,/ALU/B_1*%
%TO.C,U16*%
X289380000Y-112805000D03*
D10*
%TO.N,SU*%
X291920000Y-112805000D03*
%TO.N,Net-(U14-B3)*%
X294460000Y-112805000D03*
%TO.N,/ALU/B_0*%
X297000000Y-112805000D03*
%TO.N,SU*%
X299540000Y-112805000D03*
%TO.N,Net-(U14-B1)*%
X302080000Y-112805000D03*
%TO.N,GND*%
X304620000Y-112805000D03*
%TO.N,Net-(U14-B4)*%
X304620000Y-105185000D03*
%TO.N,/ALU/B_3*%
X302080000Y-105185000D03*
%TO.N,SU*%
X299540000Y-105185000D03*
%TO.N,Net-(U14-B2)*%
X297000000Y-105185000D03*
%TO.N,/ALU/B_2*%
X294460000Y-105185000D03*
%TO.N,SU*%
X291920000Y-105185000D03*
%TO.N,VCC*%
X289380000Y-105185000D03*
%TD*%
D17*
%TO.N,N/C*%
%TO.C,U44*%
X108442550Y-32060000D03*
D18*
%TO.N,GND*%
X108442550Y-34600000D03*
%TO.N,VCC*%
X108442550Y-37140000D03*
%TO.N,IR_7*%
X108442550Y-39680000D03*
%TO.N,IR_6*%
X108442550Y-42220000D03*
%TO.N,IR_5*%
X108442550Y-44760000D03*
%TO.N,IR_4*%
X108442550Y-47300000D03*
%TO.N,Net-(D61-A)*%
X108442550Y-49840000D03*
%TO.N,Net-(D60-A)*%
X108442550Y-52380000D03*
%TO.N,Net-(D59-A)*%
X108442550Y-54920000D03*
%TO.N,Net-(D53-A)*%
X108442550Y-57460000D03*
%TO.N,Net-(D52-A)*%
X108442550Y-60000000D03*
%TO.N,Net-(D51-A)*%
X108442550Y-62540000D03*
%TO.N,GND*%
X108442550Y-65080000D03*
%TO.N,CE*%
X124000050Y-65080000D03*
%TO.N,OI*%
X124000050Y-62540000D03*
%TO.N,Net-(D48-A)*%
X124000050Y-60000000D03*
%TO.N,SU*%
X124000050Y-57460000D03*
%TO.N,Net-(D46-A)*%
X124000050Y-54920000D03*
%TO.N,GND*%
X124000050Y-52380000D03*
X124000050Y-49840000D03*
X124000050Y-47300000D03*
X124000050Y-44760000D03*
%TO.N,ZF*%
X124000050Y-42220000D03*
%TO.N,CF*%
X124000050Y-39680000D03*
%TO.N,N/C*%
X124000050Y-37140000D03*
%TO.N,VCC*%
X124000050Y-34600000D03*
X124000050Y-32060000D03*
%TD*%
D15*
%TO.N,Net-(D45-K)*%
%TO.C,D45*%
X77277100Y-122412300D03*
D16*
%TO.N,Net-(D45-A)*%
X79817100Y-122412300D03*
%TD*%
D15*
%TO.N,Net-(D118-K)*%
%TO.C,D118*%
X187460000Y-39920000D03*
D16*
%TO.N,Net-(D118-A)*%
X190000000Y-39920000D03*
%TD*%
D15*
%TO.N,Net-(D36-K)*%
%TO.C,D36*%
X169970000Y-79420000D03*
D16*
%TO.N,Net-(D36-A)*%
X172510000Y-79420000D03*
%TD*%
D13*
%TO.N,GND*%
%TO.C,U119*%
X212817100Y-53912300D03*
D14*
X212817100Y-51372300D03*
%TO.N,Net-(D116-A)*%
X212817100Y-48832300D03*
%TO.N,Net-(D117-A)*%
X212817100Y-46292300D03*
%TO.N,Net-(D118-A)*%
X212817100Y-43752300D03*
%TO.N,Net-(D119-A)*%
X212817100Y-41212300D03*
%TO.N,CLK*%
X212817100Y-38672300D03*
%TO.N,GND*%
X212817100Y-36132300D03*
%TO.N,~{II}*%
X205197100Y-36132300D03*
X205197100Y-38672300D03*
%TO.N,BUS_0*%
X205197100Y-41212300D03*
%TO.N,BUS_1*%
X205197100Y-43752300D03*
%TO.N,BUS_2*%
X205197100Y-46292300D03*
%TO.N,BUS_3*%
X205197100Y-48832300D03*
%TO.N,CLR*%
X205197100Y-51372300D03*
%TO.N,VCC*%
X205197100Y-53912300D03*
%TD*%
D10*
%TO.N,Net-(D027-K)*%
%TO.C,R96*%
X309460000Y-72730000D03*
%TO.N,GND*%
X309460000Y-65110000D03*
%TD*%
%TO.N,Net-(D64-K)*%
%TO.C,R67*%
X53667700Y-96657100D03*
%TO.N,GND*%
X46047700Y-96657100D03*
%TD*%
%TO.N,BUS_5*%
%TO.C,R75*%
X63325000Y-96690000D03*
%TO.N,GND*%
X70945000Y-96690000D03*
%TD*%
D15*
%TO.N,Net-(D6-K)*%
%TO.C,D6*%
X221587100Y-81162300D03*
D16*
%TO.N,/ALU/A_3*%
X219047100Y-81162300D03*
%TD*%
D10*
%TO.N,GND*%
%TO.C,R10*%
X256750000Y-66170000D03*
%TO.N,Net-(D10-K)*%
X256750000Y-58550000D03*
%TD*%
%TO.N,Net-(D22-K)*%
%TO.C,R22*%
X234397100Y-47272300D03*
%TO.N,GND*%
X234397100Y-54892300D03*
%TD*%
%TO.N,Net-(J1-CC1)*%
%TO.C,R82*%
X30374400Y-109375000D03*
%TO.N,GND*%
X37994400Y-109375000D03*
%TD*%
%TO.N,GND*%
%TO.C,C5*%
X301067100Y-135962300D03*
%TO.N,VCC*%
X298567100Y-135962300D03*
%TD*%
D15*
%TO.N,Net-(D52-K)*%
%TO.C,D52*%
X112777100Y-122412300D03*
D16*
%TO.N,Net-(D52-A)*%
X115317100Y-122412300D03*
%TD*%
D15*
%TO.N,Net-(D43-K)*%
%TO.C,D43*%
X67227100Y-122412300D03*
D16*
%TO.N,Net-(D43-A)*%
X69767100Y-122412300D03*
%TD*%
D13*
%TO.N,Net-(U26-Pad6)*%
%TO.C,U45*%
X74000000Y-70180000D03*
D14*
X74000000Y-72720000D03*
%TO.N,Net-(U41-~{MR})*%
X74000000Y-75260000D03*
%TO.N,N/C*%
X74000000Y-77800000D03*
X74000000Y-80340000D03*
X74000000Y-82880000D03*
%TO.N,GND*%
X74000000Y-85420000D03*
%TO.N,N/C*%
X81620000Y-85420000D03*
X81620000Y-82880000D03*
X81620000Y-80340000D03*
X81620000Y-77800000D03*
X81620000Y-75260000D03*
X81620000Y-72720000D03*
%TO.N,VCC*%
X81620000Y-70180000D03*
%TD*%
D12*
%TO.N,CLK*%
%TO.C,C14*%
X265000000Y-128580000D03*
%TO.N,Net-(C14-Pad2)*%
X265000000Y-130580000D03*
%TD*%
D10*
%TO.N,Net-(D47-K)*%
%TO.C,R49*%
X87317100Y-117412300D03*
%TO.N,GND*%
X87317100Y-109792300D03*
%TD*%
D15*
%TO.N,Net-(D33-K)*%
%TO.C,D33*%
X215120000Y-161420000D03*
D16*
%TO.N,Net-(D33-A)*%
X217660000Y-161420000D03*
%TD*%
D10*
%TO.N,GND*%
%TO.C,C6*%
X301067100Y-131912300D03*
%TO.N,VCC*%
X298567100Y-131912300D03*
%TD*%
D17*
%TO.N,N/C*%
%TO.C,U40*%
X126166450Y-95979100D03*
D18*
%TO.N,GND*%
X126166450Y-98519100D03*
%TO.N,Net-(U38-Q7)*%
X126166450Y-101059100D03*
%TO.N,Net-(U38-Q6)*%
X126166450Y-103599100D03*
%TO.N,Net-(U38-Q5)*%
X126166450Y-106139100D03*
%TO.N,Net-(U38-Q4)*%
X126166450Y-108679100D03*
%TO.N,Net-(U38-Q3)*%
X126166450Y-111219100D03*
%TO.N,Net-(U38-Q2)*%
X126166450Y-113759100D03*
%TO.N,Net-(U38-Q1)*%
X126166450Y-116299100D03*
%TO.N,Net-(U38-Q0)*%
X126166450Y-118839100D03*
%TO.N,Net-(U34-G)*%
X126166450Y-121379100D03*
%TO.N,Net-(U34-F)*%
X126166450Y-123919100D03*
%TO.N,Net-(U34-E)*%
X126166450Y-126459100D03*
%TO.N,GND*%
X126166450Y-128999100D03*
%TO.N,Net-(U34-D)*%
X141723950Y-128999100D03*
%TO.N,Net-(U34-C)*%
X141723950Y-126459100D03*
%TO.N,Net-(U34-B)*%
X141723950Y-123919100D03*
%TO.N,Net-(U34-A)*%
X141723950Y-121379100D03*
%TO.N,Net-(U34-DP)*%
X141723950Y-118839100D03*
%TO.N,GND*%
X141723950Y-116299100D03*
%TO.N,Net-(SW7-B)*%
X141723950Y-113759100D03*
%TO.N,GND*%
X141723950Y-111219100D03*
X141723950Y-108679100D03*
%TO.N,Net-(U32B-~{Q})*%
X141723950Y-106139100D03*
%TO.N,Net-(U32A-~{Q})*%
X141723950Y-103599100D03*
%TO.N,N/C*%
X141723950Y-101059100D03*
%TO.N,VCC*%
X141723950Y-98519100D03*
X141723950Y-95979100D03*
%TD*%
D11*
%TO.N,/MAR/PROG*%
%TO.C,U51*%
X241697100Y-124172300D03*
D10*
%TO.N,unconnected-(U51-I0a-Pad2)*%
X241697100Y-126712300D03*
%TO.N,unconnected-(U51-I1a-Pad3)*%
X241697100Y-129252300D03*
%TO.N,unconnected-(U51-Za-Pad4)*%
X241697100Y-131792300D03*
%TO.N,unconnected-(U51-I0b-Pad5)*%
X241697100Y-134332300D03*
%TO.N,unconnected-(U51-I1b-Pad6)*%
X241697100Y-136872300D03*
%TO.N,unconnected-(U51-Zb-Pad7)*%
X241697100Y-139412300D03*
%TO.N,GND*%
X241697100Y-141952300D03*
%TO.N,unconnected-(U51-Zd-Pad9)*%
X249317100Y-141952300D03*
%TO.N,unconnected-(U51-I1d-Pad10)*%
X249317100Y-139412300D03*
%TO.N,unconnected-(U51-I0d-Pad11)*%
X249317100Y-136872300D03*
%TO.N,Net-(U51-Zc)*%
X249317100Y-134332300D03*
%TO.N,Net-(U51-I1c)*%
X249317100Y-131792300D03*
%TO.N,Net-(U51-I0c)*%
X249317100Y-129252300D03*
%TO.N,GND*%
X249317100Y-126712300D03*
%TO.N,VCC*%
X249317100Y-124172300D03*
%TD*%
D30*
%TO.N,Net-(U1-Q)*%
%TO.C,U4*%
X289437100Y-120607300D03*
D10*
%TO.N,Net-(U3-Q)*%
X286897100Y-120607300D03*
%TO.N,Net-(U4-Pad3)*%
X284357100Y-120607300D03*
%TO.N,Net-(U4-Pad4)*%
X281817100Y-120607300D03*
%TO.N,Net-(U2-Q)*%
X279277100Y-120607300D03*
%TO.N,Net-(U4-Pad6)*%
X276737100Y-120607300D03*
%TO.N,GND*%
X274197100Y-120607300D03*
%TO.N,CLK*%
X274197100Y-128227300D03*
%TO.N,Net-(U4-Pad9)*%
X276737100Y-128227300D03*
%TO.N,Net-(U4-Pad10)*%
X279277100Y-128227300D03*
%TO.N,unconnected-(U4-Pad11)*%
X281817100Y-128227300D03*
%TO.N,unconnected-(U4-Pad12)*%
X284357100Y-128227300D03*
%TO.N,unconnected-(U4-Pad13)*%
X286897100Y-128227300D03*
%TO.N,VCC*%
X289437100Y-128227300D03*
%TD*%
D22*
%TO.N,~{CLR}*%
%TO.C,U38*%
X151697100Y-134632300D03*
D23*
%TO.N,Net-(U38-Q0)*%
X151697100Y-137172300D03*
%TO.N,BUS_0*%
X151697100Y-139712300D03*
%TO.N,BUS_1*%
X151697100Y-142252300D03*
%TO.N,Net-(U38-Q1)*%
X151697100Y-144792300D03*
%TO.N,Net-(U38-Q2)*%
X151697100Y-147332300D03*
%TO.N,BUS_2*%
X151697100Y-149872300D03*
%TO.N,BUS_3*%
X151697100Y-152412300D03*
%TO.N,Net-(U38-Q3)*%
X151697100Y-154952300D03*
%TO.N,GND*%
X151697100Y-157492300D03*
%TO.N,Net-(U38-Cp)*%
X159317100Y-157492300D03*
%TO.N,Net-(U38-Q4)*%
X159317100Y-154952300D03*
%TO.N,BUS_4*%
X159317100Y-152412300D03*
%TO.N,BUS_5*%
X159317100Y-149872300D03*
%TO.N,Net-(U38-Q5)*%
X159317100Y-147332300D03*
%TO.N,Net-(U38-Q6)*%
X159317100Y-144792300D03*
%TO.N,BUS_6*%
X159317100Y-142252300D03*
%TO.N,BUS_7*%
X159317100Y-139712300D03*
%TO.N,Net-(U38-Q7)*%
X159317100Y-137172300D03*
%TO.N,VCC*%
X159317100Y-134632300D03*
%TD*%
D13*
%TO.N,GND*%
%TO.C,U49*%
X196627100Y-79672300D03*
D14*
X196627100Y-77132300D03*
%TO.N,/ALU/A_7*%
X196627100Y-74592300D03*
%TO.N,/ALU/A_6*%
X196627100Y-72052300D03*
%TO.N,/ALU/A_5*%
X196627100Y-69512300D03*
%TO.N,/ALU/A_4*%
X196627100Y-66972300D03*
%TO.N,CLK*%
X196627100Y-64432300D03*
%TO.N,GND*%
X196627100Y-61892300D03*
%TO.N,~{AI}*%
X189007100Y-61892300D03*
X189007100Y-64432300D03*
%TO.N,BUS_4*%
X189007100Y-66972300D03*
%TO.N,BUS_5*%
X189007100Y-69512300D03*
%TO.N,BUS_6*%
X189007100Y-72052300D03*
%TO.N,BUS_7*%
X189007100Y-74592300D03*
%TO.N,CLR*%
X189007100Y-77132300D03*
%TO.N,VCC*%
X189007100Y-79672300D03*
%TD*%
D10*
%TO.N,Net-(D40-K)*%
%TO.C,R42*%
X52317100Y-117412300D03*
%TO.N,GND*%
X52317100Y-109792300D03*
%TD*%
D12*
%TO.N,VCC*%
%TO.C,C9*%
X255993900Y-76199100D03*
%TO.N,GND*%
X257993900Y-76199100D03*
%TD*%
D10*
%TO.N,Net-(D21-K)*%
%TO.C,R21*%
X228647100Y-47332300D03*
%TO.N,GND*%
X228647100Y-54952300D03*
%TD*%
D15*
%TO.N,Net-(D51-K)*%
%TO.C,D51*%
X107607100Y-122412300D03*
D16*
%TO.N,Net-(D51-A)*%
X110147100Y-122412300D03*
%TD*%
D10*
%TO.N,Net-(D61-K)*%
%TO.C,R63*%
X114912100Y-81552300D03*
%TO.N,GND*%
X114912100Y-73932300D03*
%TD*%
%TO.N,BUS_4*%
%TO.C,R76*%
X63397900Y-100787700D03*
%TO.N,GND*%
X71017900Y-100787700D03*
%TD*%
%TO.N,Net-(D12-K)*%
%TO.C,R11*%
X252167100Y-109542300D03*
%TO.N,GND*%
X252167100Y-117162300D03*
%TD*%
D15*
%TO.N,Net-(D024-K)*%
%TO.C,D024*%
X324420000Y-78920000D03*
D16*
%TO.N,/ALU/B_5*%
X326960000Y-78920000D03*
%TD*%
D10*
%TO.N,Net-(D58-A)*%
%TO.C,R56*%
X117412100Y-98552300D03*
%TO.N,VCC*%
X117412100Y-90932300D03*
%TD*%
D15*
%TO.N,Net-(D4-K)*%
%TO.C,D4*%
X211567100Y-81162300D03*
D16*
%TO.N,/ALU/A_5*%
X209027100Y-81162300D03*
%TD*%
D31*
%TO.N,*%
%TO.C,SW2*%
X302797500Y-155100000D03*
X302797500Y-146900000D03*
D32*
%TO.N,Net-(SW2-A)*%
X302797500Y-153000000D03*
D33*
%TO.N,GND*%
X302797500Y-151000000D03*
%TO.N,Net-(SW2-C)*%
X302797500Y-149000000D03*
%TD*%
D10*
%TO.N,BUS_1*%
%TO.C,R79*%
X53547700Y-99157100D03*
%TO.N,GND*%
X45927700Y-99157100D03*
%TD*%
%TO.N,BUS_0*%
%TO.C,R80*%
X53667700Y-104657100D03*
%TO.N,GND*%
X46047700Y-104657100D03*
%TD*%
%TO.N,BUS_3*%
%TO.C,R77*%
X53667700Y-89157100D03*
%TO.N,GND*%
X46047700Y-89157100D03*
%TD*%
%TO.N,BUS_2*%
%TO.C,R78*%
X53667700Y-94157100D03*
%TO.N,GND*%
X46047700Y-94157100D03*
%TD*%
D34*
%TO.N,Net-(U21-\u002AWE)*%
X194483516Y-115968542D03*
%TO.N,Net-(U23-D0)*%
X197400000Y-117001000D03*
%TO.N,Net-(U23-\u002AO0)*%
X195556000Y-110535000D03*
X194849000Y-120128000D03*
%TO.N,Net-(U23-\u002AO1)*%
X198734000Y-105380000D03*
X194854100Y-120939000D03*
%TO.N,Net-(U23-\u002AO3)*%
X202595000Y-118357000D03*
X207238000Y-116880000D03*
%TO.N,Net-(U23-\u002AO2)*%
X221826000Y-120907000D03*
X202903000Y-121194000D03*
%TO.N,Net-(U21-\u002AO3)*%
X190077000Y-119160000D03*
%TO.N,Net-(U21-\u002AO0)*%
X186162000Y-118057000D03*
%TO.N,Net-(U21-\u002AO1)*%
X185962000Y-120913000D03*
%TO.N,Net-(U21-\u002AO2)*%
X194498400Y-115023417D03*
X194058000Y-122162000D03*
%TO.N,Net-(U21-\u002AWE)*%
X192636000Y-123800000D03*
X190317000Y-115494000D03*
%TO.N,Net-(U23-D3)*%
X199398000Y-118233000D03*
X207130000Y-132359000D03*
%TO.N,Net-(U14-B3)*%
X292886000Y-63416500D03*
%TO.N,Net-(U23-D1)*%
X194622000Y-118387000D03*
%TO.N,Net-(U38-Q4)*%
X128661000Y-152958000D03*
%TO.N,Net-(U38-Q5)*%
X133250700Y-141032000D03*
%TO.N,Net-(U38-Q6)*%
X155157000Y-105397000D03*
%TO.N,Net-(U38-Q1)*%
X149878000Y-120401000D03*
%TO.N,Net-(U38-Q3)*%
X127428000Y-153682000D03*
%TO.N,Net-(U38-Q7)*%
X155858000Y-102857000D03*
%TO.N,Net-(U38-Q0)*%
X147798000Y-121278000D03*
%TO.N,Net-(U34-C)*%
X118546000Y-129126000D03*
%TO.N,Net-(U34-D)*%
X115309000Y-132558000D03*
%TO.N,Net-(U52-I0b)*%
X200385000Y-131788000D03*
%TO.N,Net-(U31-Q)*%
X128594000Y-154563000D03*
%TO.N,~{AO}*%
X236986000Y-67047300D03*
%TO.N,~{AI}*%
X231852000Y-62719000D03*
%TO.N,~{II}*%
X166071000Y-38288700D03*
X233308000Y-90983900D03*
X203828000Y-57383900D03*
X227005000Y-57822800D03*
%TO.N,~{IO}*%
X191805000Y-50124400D03*
X230394000Y-51412300D03*
%TO.N,Net-(U51-I1c)*%
X242216000Y-110489000D03*
%TO.N,Net-(U26-Pad6)*%
X202792000Y-70525700D03*
%TO.N,Net-(U42-O5)*%
X203176000Y-113399000D03*
X139287000Y-109890000D03*
%TO.N,~{CLR}*%
X188062000Y-111166000D03*
X151712000Y-116600000D03*
X178250200Y-114084500D03*
%TO.N,~{RO}*%
X145281000Y-144032000D03*
%TO.N,Net-(U23-D0)*%
X197889000Y-130082000D03*
X211500300Y-131562600D03*
%TO.N,Net-(U24-Zd)*%
X204569000Y-129467000D03*
%TO.N,Net-(U21-D2)*%
X189820000Y-123708000D03*
X248101000Y-122782000D03*
%TO.N,Net-(U24-Zc)*%
X217194000Y-137089000D03*
X198062000Y-136389000D03*
%TO.N,Net-(U21-D1)*%
X186194000Y-119660000D03*
X246328000Y-118276000D03*
%TO.N,Net-(U24-Zb)*%
X196124000Y-137505000D03*
%TO.N,BUS_7*%
X208835000Y-73630400D03*
X184245000Y-64748600D03*
X211537000Y-90741800D03*
%TO.N,BUS_6*%
X204792000Y-66933600D03*
X210259000Y-94476900D03*
X213142000Y-90562700D03*
%TO.N,BUS_4*%
X294001000Y-92442700D03*
X221010000Y-88563100D03*
X185193000Y-61968500D03*
X64659700Y-63402900D03*
%TO.N,~{EO}*%
X252691000Y-57609100D03*
%TO.N,~{FI}*%
X136289000Y-61180500D03*
%TO.N,Net-(D19-A)*%
X288425000Y-73016500D03*
%TO.N,Net-(U10-Pad2)*%
X268339000Y-50227500D03*
%TO.N,Net-(U10-Pad10)*%
X300158000Y-75975500D03*
%TO.N,Net-(U10-Pad1)*%
X274949000Y-47352100D03*
%TO.N,~{BI}*%
X133268000Y-94190200D03*
%TO.N,CLR*%
X238193000Y-50356500D03*
%TO.N,Net-(U21-D3)*%
X189963000Y-118007800D03*
X207914000Y-143562700D03*
%TO.N,Net-(U23-D2)*%
X226064100Y-125253700D03*
%TO.N,Net-(U21-D0)*%
X185956000Y-117207000D03*
%TO.N,~{CLK}*%
X242089000Y-55046900D03*
X245833300Y-57898600D03*
%TO.N,Net-(U4-Pad6)*%
X285629000Y-141685000D03*
%TO.N,Net-(U4-Pad9)*%
X279267000Y-144133000D03*
%TO.N,Net-(U4-Pad3)*%
X286474000Y-141025000D03*
%TO.N,Net-(U3-Q)*%
X289606000Y-143293000D03*
%TO.N,Net-(U2-Q)*%
X281272000Y-140428000D03*
%TO.N,Net-(SW7-B)*%
X125148000Y-115060000D03*
%TO.N,Net-(U24-I0d)*%
X182047000Y-140798000D03*
%TO.N,Net-(R64-Pad1)*%
X100297000Y-94132100D03*
X209586000Y-97378300D03*
%TO.N,Net-(U31-DIS)*%
X127268000Y-152411000D03*
X160050000Y-153785000D03*
%TO.N,Net-(U1-DIS)*%
X301029000Y-119814000D03*
%TO.N,Net-(D119-A)*%
X193326000Y-52528200D03*
%TO.N,IR_5*%
X173131000Y-48324000D03*
%TO.N,IR_7*%
X176656000Y-41383500D03*
%TO.N,BUS_3*%
X161732000Y-77729000D03*
X244189000Y-87624000D03*
X167597000Y-48883000D03*
X181247000Y-151092000D03*
X280534000Y-87640000D03*
%TO.N,BUS_2*%
X280155000Y-89116300D03*
X187271000Y-63767900D03*
X160702000Y-80839200D03*
X280030000Y-68788800D03*
%TO.N,BUS_1*%
X147453000Y-67904500D03*
X275816000Y-69712700D03*
X178929000Y-142117000D03*
X187242000Y-143496000D03*
X178979000Y-67963700D03*
X190051000Y-65767900D03*
%TO.N,BUS_0*%
X226205000Y-46385500D03*
X279404000Y-67053900D03*
X243489000Y-67098500D03*
X168871000Y-85475200D03*
%TO.N,Net-(D61-A)*%
X75447900Y-49840000D03*
%TO.N,Net-(D59-A)*%
X91331400Y-86974400D03*
%TO.N,Net-(D53-A)*%
X109972000Y-42104200D03*
%TO.N,Net-(D52-A)*%
X135102000Y-58289600D03*
%TO.N,Net-(D51-A)*%
X133039000Y-60702300D03*
%TO.N,CE*%
X106085000Y-69476400D03*
%TO.N,OI*%
X142803000Y-96698100D03*
X143727000Y-114351000D03*
%TO.N,Net-(D48-A)*%
X100323000Y-64884100D03*
%TO.N,SU*%
X97325800Y-58221500D03*
%TO.N,Net-(D46-A)*%
X91480800Y-58208300D03*
%TO.N,Net-(D44-A)*%
X76076900Y-115678000D03*
%TO.N,Net-(D43-A)*%
X74665000Y-103212000D03*
%TO.N,Net-(D42-A)*%
X101999000Y-119963000D03*
%TO.N,Net-(D41-A)*%
X95372200Y-120041000D03*
X121303000Y-60635000D03*
%TO.N,RI*%
X58362200Y-66914500D03*
X56026900Y-108896000D03*
%TO.N,Net-(D39-A)*%
X107408000Y-38154300D03*
X103709000Y-120553000D03*
%TO.N,HLT*%
X55365000Y-55262500D03*
X250154000Y-57609100D03*
%TO.N,Net-(D30-A)*%
X223208000Y-149950000D03*
%TO.N,/ALU/B_0*%
X299426000Y-97344600D03*
%TO.N,Net-(D29-A)*%
X220699000Y-152910000D03*
%TO.N,/ALU/B_1*%
X289142000Y-83758700D03*
%TO.N,Net-(D27-A)*%
X214066000Y-152793000D03*
%TO.N,/ALU/B_2*%
X295115000Y-87536800D03*
%TO.N,Net-(D26-A)*%
X212969000Y-151198000D03*
%TO.N,/ALU/B_4*%
X300294000Y-90997500D03*
%TO.N,/ALU/B_5*%
X304288000Y-87671700D03*
X283152000Y-87637700D03*
%TO.N,/ALU/B_6*%
X301869000Y-76088000D03*
X305687000Y-85524300D03*
%TO.N,/MAR/A0*%
X190777000Y-110535000D03*
X242202000Y-108176000D03*
%TO.N,/ALU/B_7*%
X306541000Y-81776300D03*
%TO.N,/MAR/A1*%
X218505000Y-113600000D03*
X200156000Y-114210000D03*
X194133000Y-113432000D03*
%TO.N,/MAR/A2*%
X194468000Y-116794000D03*
X199776000Y-116104000D03*
X233252000Y-111341000D03*
%TO.N,/MAR/A3*%
X210862000Y-43827100D03*
X204452000Y-84852500D03*
X202772000Y-116895000D03*
X194234000Y-117601000D03*
%TO.N,Net-(D17-A)*%
X298281000Y-81405700D03*
%TO.N,Net-(D16-A)*%
X271057000Y-84820800D03*
X275120000Y-60275500D03*
%TO.N,Net-(D15-A)*%
X274893000Y-57331700D03*
%TO.N,CF*%
X126499000Y-50590700D03*
%TO.N,Net-(D13-A)*%
X274713000Y-54557600D03*
%TO.N,Net-(D12-A)*%
X282678000Y-73355000D03*
%TO.N,Net-(D11-A)*%
X268949000Y-64317800D03*
%TO.N,/ALU/A_0*%
X282976000Y-59564100D03*
%TO.N,/ALU/A_1*%
X286874000Y-64934500D03*
%TO.N,/ALU/A_2*%
X291414600Y-60806000D03*
X291323100Y-67098500D03*
X248034700Y-69444400D03*
%TO.N,/ALU/A_3*%
X293268000Y-64185100D03*
X292704000Y-69839500D03*
%TO.N,/ALU/A_4*%
X271015000Y-55070500D03*
X211004400Y-57472800D03*
%TO.N,/ALU/A_5*%
X213547000Y-55626000D03*
%TO.N,/ALU/A_6*%
X216182000Y-57559400D03*
%TO.N,Net-(U31-THR)*%
X126033000Y-130202000D03*
X122293000Y-152389000D03*
%TO.N,CLK*%
X281241000Y-95777600D03*
X282076000Y-64151600D03*
%TO.N,Net-(C14-Pad2)*%
X263111000Y-106742000D03*
%TO.N,BUS_5*%
X207837000Y-132970000D03*
X162218000Y-76778700D03*
X162243000Y-70057500D03*
X304115000Y-96706200D03*
X217807000Y-87876600D03*
X211547000Y-87876600D03*
X165746000Y-43433300D03*
%TO.N,Net-(U1-THR)*%
X296276000Y-119777000D03*
%TO.N,VCC*%
X284500000Y-149000000D03*
X26500000Y-112000000D03*
X27500000Y-108000000D03*
X298000000Y-119000000D03*
X294000000Y-123500000D03*
X288000000Y-147500000D03*
X284500000Y-145000000D03*
X278000000Y-142500000D03*
X204000000Y-116000000D03*
X191000000Y-114000000D03*
X127500000Y-151000000D03*
%TO.N,Net-(U2-CV)*%
X279659000Y-147142000D03*
%TO.N,GND*%
X294000000Y-148000000D03*
X26000000Y-114000000D03*
X292500000Y-118500000D03*
X119000000Y-151000000D03*
X285000000Y-140500000D03*
%TD*%
D35*
%TO.N,Net-(U21-\u002AWE)*%
X192636000Y-117812000D02*
X192636000Y-116035874D01*
X192636000Y-116035874D02*
X194249457Y-114422417D01*
X194249457Y-114422417D02*
X194747343Y-114422417D01*
X194747343Y-114422417D02*
X195099400Y-114774474D01*
X195099400Y-114774474D02*
X195099400Y-115352658D01*
X195099400Y-115352658D02*
X194483516Y-115968542D01*
%TO.N,Net-(U21-\u002AO2)*%
X193598000Y-115902000D02*
X193598000Y-121702000D01*
X194498400Y-115023417D02*
X193866817Y-115655000D01*
X193866817Y-115655000D02*
X193845000Y-115655000D01*
X193845000Y-115655000D02*
X193598000Y-115902000D01*
X193598000Y-121702000D02*
X194058000Y-122162000D01*
%TO.N,Net-(U23-\u002AO2)*%
X221826000Y-109697000D02*
X221826000Y-120907000D01*
X223657000Y-107865000D02*
X221826000Y-109697000D01*
X223657400Y-107865000D02*
X223657000Y-107865000D01*
%TO.N,Net-(U21-\u002AWE)*%
X192636000Y-117812000D02*
X190317000Y-115494000D01*
X192636000Y-123800000D02*
X192636000Y-117812000D01*
%TO.N,Net-(U14-B3)*%
X293190000Y-111535000D02*
X294460000Y-112805000D01*
X293190000Y-103038000D02*
X293190000Y-111535000D01*
X292101000Y-101949000D02*
X293190000Y-103038000D01*
X292101000Y-64201300D02*
X292101000Y-101949000D01*
X292886000Y-63416500D02*
X292101000Y-64201300D01*
%TO.N,Net-(U41-~{MR})*%
X74949400Y-74310600D02*
X74000000Y-75260000D01*
X74949400Y-61165700D02*
X74949400Y-74310600D01*
X83913400Y-52201700D02*
X74949400Y-61165700D01*
X84032100Y-52201700D02*
X83913400Y-52201700D01*
X84032100Y-51252300D02*
X84032100Y-52201700D01*
%TO.N,Net-(U38-Q0)*%
X150130000Y-123609000D02*
X147798000Y-121278000D01*
X150130000Y-135605000D02*
X150130000Y-123609000D01*
X151697000Y-137172000D02*
X150130000Y-135605000D01*
X151697000Y-137172200D02*
X151697000Y-137172000D01*
X151697100Y-137172300D02*
X151697000Y-137172200D01*
%TO.N,Net-(U34-DP)*%
X140848600Y-119714500D02*
X141724000Y-118839100D01*
X140848500Y-119714500D02*
X140848600Y-119714500D01*
X140848500Y-119714500D02*
X141724000Y-118839000D01*
X119896400Y-139867900D02*
X119896400Y-145879100D01*
X119896000Y-139867500D02*
X119896400Y-139867900D01*
X119896000Y-145879000D02*
X119896000Y-139867500D01*
X132834000Y-127729000D02*
X140848500Y-119714500D01*
X126023000Y-127729000D02*
X132834000Y-127729000D01*
X119896000Y-133856000D02*
X126023000Y-127729000D01*
X119896000Y-139867500D02*
X119896000Y-133856000D01*
%TO.N,Net-(U34-C)*%
X117356400Y-145878600D02*
X117356400Y-145879100D01*
X117951000Y-145284000D02*
X117356400Y-145878600D01*
X118546000Y-144689000D02*
X117951000Y-145284000D01*
X118546000Y-129126000D02*
X118546000Y-144689000D01*
X117951000Y-145284000D02*
X117356000Y-145879000D01*
%TO.N,Net-(U34-D)*%
X112276000Y-135590000D02*
X112276000Y-145879000D01*
X115309000Y-132558000D02*
X112276000Y-135590000D01*
X112276100Y-145879100D02*
X112276000Y-145879000D01*
X112276400Y-145879100D02*
X112276100Y-145879100D01*
%TO.N,Net-(U33A-O0)*%
X86716400Y-130639000D02*
X86716400Y-145879000D01*
X86716400Y-145879100D02*
X86716400Y-145879000D01*
%TO.N,Net-(U33A-O3)*%
X72666400Y-130639000D02*
X72666400Y-145879000D01*
X72666400Y-145879100D02*
X72666400Y-145879000D01*
%TO.N,Net-(U33A-O2)*%
X100766000Y-130639500D02*
X100766400Y-130639100D01*
X100766000Y-138259000D02*
X100766000Y-130639500D01*
X100766000Y-130639000D02*
X100766000Y-138259000D01*
X100766400Y-145429400D02*
X100766400Y-145879100D01*
X100766000Y-145429000D02*
X100766400Y-145429400D01*
X100766000Y-138259000D02*
X100766000Y-145429000D01*
X100766000Y-145429000D02*
X100766000Y-145879000D01*
%TO.N,~{AI}*%
X189007100Y-61892300D02*
X189007000Y-61892300D01*
X189007100Y-63162400D02*
X189007100Y-64432300D01*
X189007000Y-63162300D02*
X189007100Y-63162400D01*
X189007000Y-61892300D02*
X189007000Y-63162300D01*
X189007000Y-63162300D02*
X189007000Y-64432300D01*
X238947100Y-61332300D02*
X238947000Y-61332300D01*
X238947100Y-62602400D02*
X238947100Y-63872300D01*
X238947000Y-62602300D02*
X238947100Y-62602400D01*
X238947000Y-61332300D02*
X238947000Y-62602300D01*
X238947000Y-62602300D02*
X238947000Y-63872300D01*
%TO.N,~{II}*%
X227817000Y-85493300D02*
X233308000Y-90983900D01*
X227817000Y-76300300D02*
X227817000Y-85493300D01*
X227660000Y-76143300D02*
X227817000Y-76300300D01*
X227660000Y-58478100D02*
X227660000Y-76143300D01*
X227005000Y-57822800D02*
X227660000Y-58478100D01*
X205197100Y-36132300D02*
X205197000Y-36132300D01*
X205197100Y-38298500D02*
X205197100Y-38672300D01*
X205197000Y-38298400D02*
X205197100Y-38298500D01*
X205197000Y-38672300D02*
X205197000Y-38298400D01*
X205197000Y-38298400D02*
X205197000Y-36132300D01*
%TO.N,Net-(U26-Pad6)*%
X74000000Y-72720000D02*
X74000000Y-70180000D01*
%TO.N,~{CLR}*%
X213081600Y-120565000D02*
X213082000Y-120565000D01*
X213081600Y-108238400D02*
X213081600Y-107865000D01*
X213082000Y-108238800D02*
X213081600Y-108238400D01*
X213082000Y-107865000D02*
X213082000Y-108238800D01*
X213081600Y-110031500D02*
X213081600Y-110405000D01*
X213082000Y-110031100D02*
X213081600Y-110031500D01*
X213082000Y-108238800D02*
X213082000Y-110031100D01*
X214034000Y-119612000D02*
X213082000Y-120565000D01*
X214034000Y-111358000D02*
X214034000Y-119612000D01*
X213082000Y-110405000D02*
X214034000Y-111358000D01*
X213082000Y-110031100D02*
X213082000Y-110405000D01*
X176740000Y-71333300D02*
X176740000Y-66300000D01*
X179811600Y-74404900D02*
X176740000Y-71333300D01*
X179811600Y-112523100D02*
X179811600Y-74404900D01*
X178250200Y-114084500D02*
X179811600Y-112523100D01*
%TO.N,Net-(U52-Za)*%
X202437100Y-142152100D02*
X202437000Y-142152000D01*
X202437100Y-142152300D02*
X202437100Y-142152100D01*
X205977100Y-133277300D02*
X205976900Y-133277100D01*
X205977000Y-133277000D02*
X205976900Y-133277100D01*
X204016000Y-140574000D02*
X202437000Y-142152000D01*
X204016000Y-135239000D02*
X204016000Y-140574000D01*
X205976900Y-133277100D02*
X204016000Y-135239000D01*
%TO.N,Net-(U24-Zd)*%
X192037000Y-143357000D02*
X192037000Y-143437000D01*
X194512000Y-140882000D02*
X192037000Y-143357000D01*
X195127000Y-140882000D02*
X194512000Y-140882000D01*
X197186000Y-138823000D02*
X195127000Y-140882000D01*
X197186000Y-136415000D02*
X197186000Y-138823000D01*
X201281000Y-132320000D02*
X197186000Y-136415000D01*
X201281000Y-131534000D02*
X201281000Y-132320000D01*
X201924000Y-130891000D02*
X201281000Y-131534000D01*
X203146000Y-130891000D02*
X201924000Y-130891000D01*
X204569000Y-129467000D02*
X203146000Y-130891000D01*
X192037000Y-143437200D02*
X192037000Y-143437000D01*
X192037100Y-143437300D02*
X192037000Y-143437200D01*
%TO.N,Net-(U21-D2)*%
X248101000Y-124538000D02*
X248101000Y-122782000D01*
X248837000Y-125274000D02*
X248101000Y-124538000D01*
X249476000Y-125274000D02*
X248837000Y-125274000D01*
X252028000Y-127826000D02*
X249476000Y-125274000D01*
X252028000Y-137388000D02*
X252028000Y-127826000D01*
X253130000Y-138490000D02*
X252028000Y-137388000D01*
%TO.N,BUS_7*%
X209767000Y-65932300D02*
X211037000Y-64662300D01*
X209767000Y-72698300D02*
X209767000Y-65932300D01*
X208835000Y-73630400D02*
X209767000Y-72698300D01*
X210297000Y-75092600D02*
X208835000Y-73630400D01*
X210297000Y-89501900D02*
X210297000Y-75092600D01*
X211537000Y-90741800D02*
X210297000Y-89501900D01*
X205366400Y-131348000D02*
X205977100Y-130737300D01*
X205366000Y-131348000D02*
X205366400Y-131348000D01*
X203452000Y-133262000D02*
X205366000Y-131348000D01*
X202110000Y-133262000D02*
X203452000Y-133262000D01*
X197823000Y-137549000D02*
X202110000Y-133262000D01*
X197823000Y-141317000D02*
X197823000Y-137549000D01*
X192840000Y-146300000D02*
X197823000Y-141317000D01*
X205366000Y-131348000D02*
X205977000Y-130737000D01*
X211037100Y-64662300D02*
X211037000Y-64662300D01*
X184245000Y-69829800D02*
X184245000Y-64748600D01*
X189007000Y-74592300D02*
X184245000Y-69829800D01*
X189007100Y-74592300D02*
X189007000Y-74592300D01*
%TO.N,~{MI}*%
X276620000Y-38420000D02*
X276620000Y-40960000D01*
%TO.N,BUS_6*%
X213577000Y-65230300D02*
X213577000Y-64662300D01*
X212430000Y-66377800D02*
X213577000Y-65230300D01*
X212430000Y-76416500D02*
X212430000Y-66377800D01*
X212797000Y-76784000D02*
X212430000Y-76416500D01*
X212797000Y-90218300D02*
X212797000Y-76784000D01*
X213142000Y-90562700D02*
X212797000Y-90218300D01*
X213577100Y-64662300D02*
X213577000Y-64662300D01*
X205588500Y-138745900D02*
X205977100Y-138357300D01*
X205588100Y-138745900D02*
X205588500Y-138745900D01*
X205977000Y-138357000D02*
X205588100Y-138745900D01*
X197944000Y-143736000D02*
X195380000Y-146300000D01*
X202776000Y-143736000D02*
X197944000Y-143736000D01*
X204534000Y-141979000D02*
X202776000Y-143736000D01*
X204417000Y-141862000D02*
X204534000Y-141979000D01*
X204417000Y-139917000D02*
X204417000Y-141862000D01*
X205588100Y-138745900D02*
X204417000Y-139917000D01*
%TO.N,BUS_4*%
X294681000Y-93122100D02*
X294001000Y-92442700D01*
X294681000Y-98060600D02*
X294681000Y-93122100D01*
X298170000Y-101550000D02*
X294681000Y-98060600D01*
X63397900Y-100787700D02*
X63398000Y-100787800D01*
X63397900Y-100788000D02*
X63398000Y-100787800D01*
X64659700Y-99525900D02*
X64659700Y-63402900D01*
X63398000Y-100787800D02*
X64659700Y-99525900D01*
%TO.N,/MAR/PROG*%
X269000000Y-35880000D02*
X269000000Y-33340000D01*
X264500000Y-40250000D02*
X264500000Y-37710000D01*
X269000000Y-30800000D02*
X269000000Y-33340000D01*
X256880000Y-35170000D02*
X256880000Y-32630000D01*
X240028000Y-23931700D02*
X235040000Y-28920000D01*
X240028000Y-23500000D02*
X240028000Y-23931700D01*
X241230000Y-23500000D02*
X240028000Y-23500000D01*
X269000000Y-28260000D02*
X269000000Y-30800000D01*
%TO.N,Net-(U10-Pad3)*%
X297330000Y-51929800D02*
X298500000Y-50760000D01*
X297330000Y-54670200D02*
X297330000Y-51929800D01*
X298500000Y-55840000D02*
X297330000Y-54670200D01*
%TO.N,Net-(U10-Pad4)*%
X298500000Y-53300000D02*
X306120000Y-60920000D01*
%TO.N,CLR*%
X273780000Y-47670000D02*
X273780000Y-48210000D01*
X275020000Y-46430200D02*
X273780000Y-47670000D01*
X275020000Y-27320200D02*
X275020000Y-46430200D01*
X276620000Y-25720000D02*
X275020000Y-27320200D01*
%TO.N,~{CLK}*%
X244940700Y-57898600D02*
X242089000Y-55046900D01*
X245833300Y-57898600D02*
X244940700Y-57898600D01*
%TO.N,Net-(U4-Pad9)*%
X279267000Y-130758000D02*
X277496000Y-128986300D01*
X279267000Y-144133000D02*
X279267000Y-130758000D01*
X276737200Y-128227300D02*
X276737100Y-128227300D01*
X276737200Y-128227500D02*
X276737200Y-128227300D01*
X277496000Y-128986300D02*
X276737200Y-128227500D01*
X277496000Y-128986300D02*
X276737000Y-128227000D01*
%TO.N,Net-(U2-Q)*%
X279277300Y-120607300D02*
X279277100Y-120607300D01*
X279666000Y-120996000D02*
X279277300Y-120607300D01*
X280547000Y-121877000D02*
X279666000Y-120996000D01*
X280547000Y-139702000D02*
X280547000Y-121877000D01*
X281272000Y-140428000D02*
X280547000Y-139702000D01*
X279666000Y-120996000D02*
X279277000Y-120607000D01*
%TO.N,Net-(U51-I0c)*%
X248817000Y-145427200D02*
X248817000Y-145427000D01*
X248817100Y-145427300D02*
X248817000Y-145427200D01*
X249317100Y-129252300D02*
X249316900Y-129252100D01*
X249317000Y-129252000D02*
X249316900Y-129252100D01*
X248183000Y-144793000D02*
X248817000Y-145427000D01*
X248183000Y-130387000D02*
X248183000Y-144793000D01*
X249316900Y-129252100D02*
X248183000Y-130387000D01*
%TO.N,Net-(SW2-C)*%
X302798000Y-149000000D02*
X302797500Y-149000000D01*
X296317100Y-139602300D02*
X296317000Y-139602300D01*
X296317000Y-144071000D02*
X296317000Y-139602300D01*
X301246000Y-149000000D02*
X296317000Y-144071000D01*
X302797500Y-149000000D02*
X301246000Y-149000000D01*
X296317000Y-139602300D02*
X296317000Y-139602000D01*
%TO.N,Net-(R64-Pad1)*%
X85250000Y-67214400D02*
X85250000Y-70250000D01*
X85912100Y-66552300D02*
X85250000Y-67214400D01*
X98317100Y-92152500D02*
X100297000Y-94132100D01*
X98317100Y-76817100D02*
X98317100Y-92152500D01*
X91750000Y-70250000D02*
X98317100Y-76817100D01*
X213081600Y-116754600D02*
X213081600Y-115485000D01*
X213082000Y-116755000D02*
X213081600Y-116754600D01*
X213082000Y-115485000D02*
X213082000Y-116755000D01*
X213082000Y-116755000D02*
X213082000Y-118025000D01*
X213081600Y-118025000D02*
X213082000Y-118025000D01*
%TO.N,Net-(SW7-A)*%
X109356400Y-150879400D02*
X109356400Y-150879100D01*
X109745000Y-151268000D02*
X109356400Y-150879400D01*
X111266000Y-152789000D02*
X109745000Y-151268000D01*
X111266000Y-158879000D02*
X111266000Y-152789000D01*
X109745000Y-151268000D02*
X109356000Y-150879000D01*
X111266000Y-158879100D02*
X111266000Y-158879000D01*
X111266400Y-158879100D02*
X111266000Y-158879100D01*
%TO.N,Net-(U31-DIS)*%
X162976500Y-124689000D02*
X163286400Y-124379100D01*
X162976000Y-124689000D02*
X162976500Y-124689000D01*
X163286000Y-124379000D02*
X162976000Y-124689000D01*
X162666200Y-127068800D02*
X162666000Y-127068800D01*
X162666200Y-127068900D02*
X162666200Y-127068800D01*
X162666400Y-127069100D02*
X162666200Y-127068900D01*
X162666000Y-124999000D02*
X162666000Y-127068800D01*
X162976000Y-124689000D02*
X162666000Y-124999000D01*
X161047000Y-152788000D02*
X160050000Y-153785000D01*
X161047000Y-128688000D02*
X161047000Y-152788000D01*
X162666000Y-127069000D02*
X161047000Y-128688000D01*
X162666000Y-127068800D02*
X162666000Y-127069000D01*
%TO.N,Net-(U1-DIS)*%
X300627100Y-123814100D02*
X300627100Y-127412300D01*
X300627000Y-123814000D02*
X300627100Y-123814100D01*
X300627000Y-127412000D02*
X300627000Y-123814000D01*
X300627000Y-120216000D02*
X301029000Y-119814000D01*
X300627000Y-123814000D02*
X300627000Y-120216000D01*
%TO.N,Net-(D119-K)*%
X192460000Y-34960000D02*
X192500000Y-34920000D01*
X192460000Y-39920000D02*
X192460000Y-34960000D01*
%TO.N,Net-(D119-A)*%
X193326000Y-41593900D02*
X195000000Y-39920000D01*
X193326000Y-52528200D02*
X193326000Y-41593900D01*
%TO.N,Net-(D118-K)*%
X187460000Y-34830000D02*
X187460000Y-39920000D01*
X187500000Y-34790000D02*
X187460000Y-34830000D01*
%TO.N,Net-(D117-K)*%
X182460000Y-34960000D02*
X182460000Y-39920000D01*
X182500000Y-34920000D02*
X182460000Y-34960000D01*
%TO.N,Net-(D116-A)*%
X182540000Y-42460000D02*
X180000000Y-39920000D01*
X182540000Y-46380000D02*
X182540000Y-42460000D01*
X188890000Y-52730000D02*
X182540000Y-46380000D01*
%TO.N,Net-(D116-K)*%
X177460000Y-34960000D02*
X177460000Y-39920000D01*
X177500000Y-34920000D02*
X177460000Y-34960000D01*
%TO.N,IR_4*%
X171300000Y-52920000D02*
X171300000Y-55420000D01*
X171110000Y-52730000D02*
X171300000Y-52920000D01*
%TO.N,Net-(D115-K)*%
X172460000Y-34960000D02*
X172500000Y-34920000D01*
X172460000Y-39920000D02*
X172460000Y-34960000D01*
%TO.N,Net-(D114-K)*%
X167480000Y-34940000D02*
X167480000Y-39920000D01*
X167500000Y-34920000D02*
X167480000Y-34940000D01*
%TO.N,IR_5*%
X173840000Y-52920000D02*
X173840000Y-55420000D01*
X173650000Y-52730000D02*
X173840000Y-52920000D01*
X172380000Y-47573000D02*
X173131000Y-48324000D01*
X172380000Y-42280000D02*
X172380000Y-47573000D01*
X170020000Y-39920000D02*
X172380000Y-42280000D01*
%TO.N,IR_6*%
X176190000Y-55230000D02*
X176190000Y-52730000D01*
X176380000Y-55420000D02*
X176190000Y-55230000D01*
X170632000Y-47171900D02*
X176190000Y-52730000D01*
X168634000Y-47171900D02*
X170632000Y-47171900D01*
X165020000Y-43558000D02*
X168634000Y-47171900D01*
X165020000Y-39920000D02*
X165020000Y-43558000D01*
%TO.N,Net-(D113-K)*%
X162480000Y-34940000D02*
X162480000Y-39920000D01*
X162500000Y-34920000D02*
X162480000Y-34940000D01*
%TO.N,IR_7*%
X178730000Y-55230000D02*
X178730000Y-52730000D01*
X178920000Y-55420000D02*
X178730000Y-55230000D01*
X177330000Y-51329900D02*
X178730000Y-52730000D01*
X177330000Y-42057600D02*
X177330000Y-51329900D01*
X176656000Y-41383500D02*
X177330000Y-42057600D01*
%TO.N,BUS_2*%
X160808000Y-80839200D02*
X160702000Y-80839200D01*
X161692000Y-79955300D02*
X160808000Y-80839200D01*
X161692000Y-79397300D02*
X161692000Y-79955300D01*
X165241000Y-75848400D02*
X161692000Y-79397300D01*
X165241000Y-67639400D02*
X165241000Y-75848400D01*
X166580000Y-66300000D02*
X165241000Y-67639400D01*
X187283000Y-135492000D02*
X184417000Y-138357000D01*
X187283000Y-98066500D02*
X187283000Y-135492000D01*
X189980000Y-95369000D02*
X187283000Y-98066500D01*
X189980000Y-74185800D02*
X189980000Y-95369000D01*
X189117000Y-73322300D02*
X189980000Y-74185800D01*
X188900000Y-73322300D02*
X189117000Y-73322300D01*
X187271000Y-71692900D02*
X188900000Y-73322300D01*
X187271000Y-63767900D02*
X187271000Y-71692900D01*
X184417100Y-138357100D02*
X184417000Y-138357000D01*
X184417100Y-138357300D02*
X184417100Y-138357100D01*
%TO.N,BUS_1*%
X191648500Y-133665900D02*
X192037100Y-133277300D01*
X191648100Y-133665900D02*
X191648500Y-133665900D01*
X190597000Y-134717000D02*
X191648100Y-133665900D01*
X190597000Y-140140000D02*
X190597000Y-134717000D01*
X187242000Y-143496000D02*
X190597000Y-140140000D01*
X191648100Y-133665900D02*
X192037000Y-133277000D01*
%TO.N,BUS_0*%
X168768000Y-85372700D02*
X168871000Y-85475200D01*
X168768000Y-76775200D02*
X168768000Y-85372700D01*
X170069000Y-75474100D02*
X168768000Y-76775200D01*
X170069000Y-67890600D02*
X170069000Y-75474100D01*
X171660000Y-66300000D02*
X170069000Y-67890600D01*
%TO.N,Net-(D61-K)*%
X114922100Y-86552300D02*
X114922000Y-86552300D01*
X114912100Y-81552400D02*
X114912100Y-81552300D01*
X114917000Y-81557300D02*
X114912100Y-81552400D01*
X114922000Y-81562300D02*
X114917000Y-81557300D01*
X114922000Y-86552300D02*
X114922000Y-81562300D01*
X114917000Y-81557300D02*
X114912000Y-81552300D01*
%TO.N,Net-(D60-K)*%
X108912100Y-81552300D02*
X108912000Y-81552300D01*
X108912100Y-86052400D02*
X108912100Y-86552300D01*
X108912000Y-86052300D02*
X108912100Y-86052400D01*
X108912000Y-81552300D02*
X108912000Y-86052300D01*
X108912000Y-86052300D02*
X108912000Y-86552300D01*
%TO.N,Net-(D60-A)*%
X87168700Y-50066100D02*
X89442600Y-52340000D01*
X82845900Y-50066100D02*
X87168700Y-50066100D01*
X76412100Y-43632300D02*
X82845900Y-50066100D01*
%TO.N,Net-(D59-K)*%
X102912100Y-81552300D02*
X102912000Y-81552300D01*
X102902100Y-86052400D02*
X102902100Y-86552300D01*
X102902000Y-86052300D02*
X102902100Y-86052400D01*
X102902000Y-81562300D02*
X102902000Y-86052300D01*
X102912000Y-81552300D02*
X102902000Y-81562300D01*
X102902000Y-86052300D02*
X102902000Y-86552300D01*
%TO.N,Net-(D58-A)*%
X117452000Y-103552300D02*
X117452000Y-103552000D01*
X117452100Y-103552300D02*
X117452000Y-103552300D01*
X117432000Y-98572200D02*
X117432000Y-98572300D01*
X117412100Y-98552300D02*
X117432000Y-98572200D01*
X117452000Y-98592300D02*
X117432000Y-98572300D01*
X117452000Y-103552000D02*
X117452000Y-98592300D01*
X117432000Y-98572300D02*
X117412000Y-98552300D01*
%TO.N,Net-(D57-A)*%
X111442000Y-103552300D02*
X111442000Y-103552000D01*
X111442100Y-103552300D02*
X111442000Y-103552300D01*
X111427000Y-98567200D02*
X111427000Y-98567300D01*
X111412100Y-98552300D02*
X111427000Y-98567200D01*
X111442000Y-98582300D02*
X111427000Y-98567300D01*
X111442000Y-103552000D02*
X111442000Y-98582300D01*
X111427000Y-98567300D02*
X111412000Y-98552300D01*
%TO.N,Net-(D56-A)*%
X105412100Y-98862400D02*
X105412100Y-98862300D01*
X105422000Y-98872300D02*
X105412100Y-98862400D01*
X105432000Y-98882300D02*
X105422000Y-98872300D01*
X105432000Y-103552000D02*
X105432000Y-98882300D01*
X105422000Y-98872300D02*
X105412000Y-98862300D01*
X105432000Y-103552300D02*
X105432000Y-103552000D01*
X105432100Y-103552300D02*
X105432000Y-103552300D01*
%TO.N,Net-(D55-A)*%
X99422100Y-99162300D02*
X99422100Y-103552000D01*
X99912100Y-98672300D02*
X99422100Y-99162300D01*
X99422100Y-103552300D02*
X99422100Y-103552000D01*
%TO.N,Net-(D53-K)*%
X117787100Y-119927100D02*
X117787100Y-122412300D01*
X117787000Y-119927000D02*
X117787100Y-119927100D01*
X117787000Y-119927000D02*
X117787000Y-122412000D01*
X117802400Y-117427000D02*
X117817100Y-117412300D01*
X117802000Y-117427000D02*
X117802400Y-117427000D01*
X117817000Y-117412000D02*
X117802000Y-117427000D01*
X117787000Y-117442000D02*
X117787000Y-119927000D01*
X117802000Y-117427000D02*
X117787000Y-117442000D01*
%TO.N,Net-(D53-A)*%
X109972000Y-55930200D02*
X109972000Y-42104200D01*
X108443000Y-57460000D02*
X109972000Y-55930200D01*
X108442600Y-57460000D02*
X108443000Y-57460000D01*
%TO.N,Net-(D52-K)*%
X112777000Y-122412200D02*
X112777000Y-122412000D01*
X112777100Y-122412300D02*
X112777000Y-122412200D01*
X112816700Y-117532300D02*
X112817100Y-117532300D01*
X112797000Y-117552000D02*
X112816700Y-117532300D01*
X112817000Y-117532000D02*
X112797000Y-117552000D01*
X112777000Y-117572000D02*
X112777000Y-122412000D01*
X112797000Y-117552000D02*
X112777000Y-117572000D01*
%TO.N,Net-(D52-A)*%
X135102000Y-44321900D02*
X135102000Y-58289600D01*
X140412000Y-39012300D02*
X135102000Y-44321900D01*
X140412100Y-39012300D02*
X140412000Y-39012300D01*
%TO.N,Net-(D51-A)*%
X133550200Y-60702300D02*
X133039000Y-60702300D01*
X135703700Y-58548800D02*
X133550200Y-60702300D01*
X135703700Y-44869700D02*
X135703700Y-58548800D01*
X140611700Y-39961700D02*
X135703700Y-44869700D01*
X140805400Y-39961700D02*
X140611700Y-39961700D01*
X141361500Y-39405600D02*
X140805400Y-39961700D01*
X141361500Y-38619000D02*
X141361500Y-39405600D01*
X140805400Y-38062900D02*
X141361500Y-38619000D01*
X140553400Y-38062900D02*
X140805400Y-38062900D01*
X139449300Y-36958800D02*
X140553400Y-38062900D01*
X139449300Y-34895100D02*
X139449300Y-36958800D01*
X140412100Y-33932300D02*
X139449300Y-34895100D01*
%TO.N,Net-(D51-K)*%
X107607100Y-120077100D02*
X107607100Y-122412300D01*
X107607000Y-120077000D02*
X107607100Y-120077100D01*
X107607000Y-122412000D02*
X107607000Y-120077000D01*
X107607000Y-117742000D02*
X107817000Y-117532000D01*
X107607000Y-120077000D02*
X107607000Y-117742000D01*
X107817000Y-117532200D02*
X107817000Y-117532000D01*
X107817100Y-117532300D02*
X107817000Y-117532200D01*
%TO.N,CE*%
X161500000Y-73920000D02*
X161500000Y-66300000D01*
%TO.N,Net-(D50-K)*%
X102458800Y-117554000D02*
X102317100Y-117412300D01*
X102459000Y-117554000D02*
X102458800Y-117554000D01*
X102601000Y-117696000D02*
X102459000Y-117554000D01*
X102601000Y-120887000D02*
X102601000Y-117696000D01*
X102277000Y-121211000D02*
X102601000Y-120887000D01*
X102277000Y-122412000D02*
X102277000Y-121211000D01*
X102459000Y-117554000D02*
X102317000Y-117412000D01*
X102277000Y-122412300D02*
X102277000Y-122412000D01*
X102277100Y-122412300D02*
X102277000Y-122412300D01*
%TO.N,OI*%
X124000000Y-62540000D02*
X124000100Y-62540000D01*
X142803000Y-95480500D02*
X142803000Y-96698100D01*
X128967000Y-81643700D02*
X142803000Y-95480500D01*
X128967000Y-67506500D02*
X128967000Y-81643700D01*
X124000100Y-62540000D02*
X128967000Y-67506500D01*
%TO.N,Net-(D49-K)*%
X97817000Y-117412200D02*
X97817000Y-117412100D01*
X97817100Y-117412300D02*
X97817000Y-117412200D01*
X97277100Y-117952000D02*
X97817000Y-117412100D01*
X97277100Y-122412000D02*
X97277100Y-117952000D01*
X97817000Y-117412100D02*
X97817100Y-117412000D01*
X97277100Y-122412300D02*
X97277100Y-122412000D01*
%TO.N,Net-(D48-K)*%
X92277100Y-122412300D02*
X92277100Y-122412000D01*
X92297400Y-117432000D02*
X92317100Y-117412300D01*
X92297100Y-117432000D02*
X92297400Y-117432000D01*
X92317100Y-117412000D02*
X92297100Y-117432000D01*
X92277100Y-117452000D02*
X92277100Y-122412000D01*
X92297100Y-117432000D02*
X92277100Y-117452000D01*
%TO.N,SU*%
X299540000Y-105185000D02*
X299540000Y-112805000D01*
X291920000Y-112805000D02*
X291920000Y-105185000D01*
X290551000Y-103816000D02*
X291920000Y-105185000D01*
X290551000Y-86018500D02*
X290551000Y-103816000D01*
X285044000Y-80511500D02*
X290551000Y-86018500D01*
X285044000Y-80340000D02*
X285044000Y-80511500D01*
X285044200Y-80340000D02*
X285044000Y-80340000D01*
X277424200Y-72720000D02*
X277424000Y-72720000D01*
X277424200Y-80340000D02*
X277424000Y-80340000D01*
X276472000Y-79387500D02*
X277424000Y-80340000D01*
X276472000Y-73672500D02*
X276472000Y-79387500D01*
X277424000Y-72720000D02*
X276472000Y-73672500D01*
%TO.N,Net-(D47-K)*%
X87277100Y-122412300D02*
X87277100Y-122412000D01*
X87317000Y-117412200D02*
X87317000Y-117412100D01*
X87317100Y-117412300D02*
X87317000Y-117412200D01*
X87317100Y-117412000D02*
X87317000Y-117412100D01*
X87277100Y-117452000D02*
X87277100Y-122412000D01*
X87317000Y-117412100D02*
X87277100Y-117452000D01*
%TO.N,Net-(D46-K)*%
X82277100Y-122412300D02*
X82277100Y-122412000D01*
X82317000Y-117412200D02*
X82317000Y-117412100D01*
X82317100Y-117412300D02*
X82317000Y-117412200D01*
X82317100Y-117412000D02*
X82317000Y-117412100D01*
X82277100Y-117452000D02*
X82277100Y-122412000D01*
X82317000Y-117412100D02*
X82277100Y-117452000D01*
%TO.N,Net-(D45-K)*%
X77317000Y-117412200D02*
X77317000Y-117412100D01*
X77317100Y-117412300D02*
X77317000Y-117412200D01*
X77317100Y-117412000D02*
X77317000Y-117412100D01*
X77277100Y-117452000D02*
X77277100Y-122412000D01*
X77317000Y-117412100D02*
X77277100Y-117452000D01*
X77277100Y-122412300D02*
X77277100Y-122412000D01*
%TO.N,Net-(D44-K)*%
X72316800Y-117412300D02*
X72297000Y-117432100D01*
X72317100Y-117412300D02*
X72316800Y-117412300D01*
X72277100Y-117452000D02*
X72297000Y-117432100D01*
X72277100Y-122412000D02*
X72277100Y-117452000D01*
X72297000Y-117432100D02*
X72317100Y-117412000D01*
X72277100Y-122412300D02*
X72277100Y-122412000D01*
%TO.N,Net-(D43-K)*%
X67317000Y-117412200D02*
X67317000Y-117412100D01*
X67317100Y-117412300D02*
X67317000Y-117412200D01*
X67227100Y-117502000D02*
X67317000Y-117412100D01*
X67227100Y-122412000D02*
X67227100Y-117502000D01*
X67317000Y-117412100D02*
X67317100Y-117412000D01*
X67227100Y-122412300D02*
X67227100Y-122412000D01*
%TO.N,Net-(D42-K)*%
X62316800Y-117412300D02*
X62272000Y-117457100D01*
X62317100Y-117412300D02*
X62316800Y-117412300D01*
X62227100Y-117502000D02*
X62272000Y-117457100D01*
X62227100Y-122412000D02*
X62227100Y-117502000D01*
X62272000Y-117457100D02*
X62317100Y-117412000D01*
X62227100Y-122412300D02*
X62227100Y-122412000D01*
%TO.N,Net-(D41-K)*%
X57227100Y-122412300D02*
X57227100Y-122412000D01*
X57316800Y-117412300D02*
X57272000Y-117457100D01*
X57317100Y-117412300D02*
X57316800Y-117412300D01*
X57227100Y-117502000D02*
X57272000Y-117457100D01*
X57227100Y-122412000D02*
X57227100Y-117502000D01*
X57272000Y-117457100D02*
X57317100Y-117412000D01*
%TO.N,Net-(D40-K)*%
X52317000Y-117412200D02*
X52317000Y-117412100D01*
X52317100Y-117412300D02*
X52317000Y-117412200D01*
X52317100Y-117412000D02*
X52317000Y-117412100D01*
X52227100Y-117502000D02*
X52227100Y-122412000D01*
X52317000Y-117412100D02*
X52227100Y-117502000D01*
X52227100Y-122412300D02*
X52227100Y-122412000D01*
%TO.N,Net-(D39-K)*%
X47237100Y-122412300D02*
X47237100Y-122412000D01*
X47277400Y-117452000D02*
X47317100Y-117412300D01*
X47277100Y-117452000D02*
X47277400Y-117452000D01*
X47317100Y-117412000D02*
X47277100Y-117452000D01*
X47237100Y-117492000D02*
X47237100Y-122412000D01*
X47277100Y-117452000D02*
X47237100Y-117492000D01*
%TO.N,Net-(D38-K)*%
X42317000Y-117412200D02*
X42317000Y-117412100D01*
X42317100Y-117412300D02*
X42317000Y-117412200D01*
X42227100Y-117502000D02*
X42317000Y-117412100D01*
X42227100Y-122412000D02*
X42227100Y-117502000D01*
X42317000Y-117412100D02*
X42317100Y-117412000D01*
X42227100Y-122412300D02*
X42227100Y-122412000D01*
%TO.N,Net-(D37-A)*%
X174085000Y-76344600D02*
X171660000Y-73920000D01*
X175445000Y-76344600D02*
X174085000Y-76344600D01*
X178520000Y-79420000D02*
X175445000Y-76344600D01*
%TO.N,Net-(D37-K)*%
X175980000Y-84160000D02*
X175990000Y-84170000D01*
X175980000Y-79420000D02*
X175980000Y-84160000D01*
%TO.N,Net-(D36-K)*%
X169970000Y-83900000D02*
X169970000Y-79420000D01*
X170240000Y-84170000D02*
X169970000Y-83900000D01*
%TO.N,Net-(D35-K)*%
X163960000Y-84140000D02*
X163960000Y-79420000D01*
X163990000Y-84170000D02*
X163960000Y-84140000D01*
%TO.N,Net-(D35-A)*%
X166580000Y-79340000D02*
X166500000Y-79420000D01*
X166580000Y-73920000D02*
X166580000Y-79340000D01*
%TO.N,Net-(D34-K)*%
X157950000Y-84130000D02*
X157990000Y-84170000D01*
X157950000Y-79420000D02*
X157950000Y-84130000D01*
%TO.N,Net-(D33-A)*%
X213890000Y-159730000D02*
X208080000Y-153920000D01*
X213890000Y-162456000D02*
X213890000Y-159730000D01*
X214061000Y-162627000D02*
X213890000Y-162456000D01*
X216453000Y-162627000D02*
X214061000Y-162627000D01*
X217660000Y-161420000D02*
X216453000Y-162627000D01*
%TO.N,Net-(D32-A)*%
X205540000Y-154300000D02*
X205540000Y-153920000D01*
X212660000Y-161420000D02*
X205540000Y-154300000D01*
%TO.N,Net-(D31-A)*%
X207620000Y-158540000D02*
X207620000Y-161420000D01*
X203000000Y-153920000D02*
X207620000Y-158540000D01*
%TO.N,Net-(D30-A)*%
X202660000Y-156120000D02*
X200460000Y-153920000D01*
X202660000Y-161420000D02*
X202660000Y-156120000D01*
%TO.N,Net-(D029-K)*%
X299440000Y-72690000D02*
X299440000Y-78920000D01*
X299460000Y-72670000D02*
X299440000Y-72690000D01*
%TO.N,/ALU/B_0*%
X311950000Y-84848100D02*
X311950000Y-84848000D01*
X312242000Y-84848100D02*
X311950000Y-84848100D01*
X318300000Y-90906100D02*
X312242000Y-84848100D01*
X318300000Y-92220000D02*
X318300000Y-90906100D01*
X319880000Y-93800000D02*
X318300000Y-92220000D01*
X301980000Y-80380900D02*
X301980000Y-78920000D01*
X303903000Y-82303700D02*
X301980000Y-80380900D01*
X304566000Y-82303700D02*
X303903000Y-82303700D01*
X305470000Y-83207800D02*
X304566000Y-82303700D01*
X305470000Y-83962300D02*
X305470000Y-83207800D01*
X306356000Y-84848000D02*
X305470000Y-83962300D01*
X311950000Y-84848000D02*
X306356000Y-84848000D01*
X311950000Y-83680000D02*
X311950000Y-84848000D01*
X298270000Y-111535000D02*
X297000000Y-112805000D01*
X298270000Y-103705000D02*
X298270000Y-111535000D01*
X299426000Y-102549000D02*
X298270000Y-103705000D01*
X299426000Y-97344600D02*
X299426000Y-102549000D01*
%TO.N,Net-(D28-A)*%
X192660000Y-156640000D02*
X195380000Y-153920000D01*
X192660000Y-161420000D02*
X192660000Y-156640000D01*
%TO.N,Net-(D028-K)*%
X304440000Y-72690000D02*
X304460000Y-72670000D01*
X304440000Y-78920000D02*
X304440000Y-72690000D01*
%TO.N,Net-(D27-A)*%
X187670000Y-159090000D02*
X192840000Y-153920000D01*
X187670000Y-161420000D02*
X187670000Y-159090000D01*
%TO.N,/ALU/B_2*%
X307220000Y-83680000D02*
X306870000Y-83680000D01*
X311980000Y-78920000D02*
X307220000Y-83680000D01*
X323368000Y-92207900D02*
X324960000Y-93800000D01*
X323368000Y-90875300D02*
X323368000Y-92207900D01*
X321593000Y-89100600D02*
X323368000Y-90875300D01*
X320832000Y-89100600D02*
X321593000Y-89100600D01*
X315760000Y-84028500D02*
X320832000Y-89100600D01*
X315760000Y-82700000D02*
X315760000Y-84028500D01*
X311980000Y-78920000D02*
X315760000Y-82700000D01*
%TO.N,Net-(D027-K)*%
X309440000Y-72750000D02*
X309460000Y-72730000D01*
X309440000Y-78920000D02*
X309440000Y-72750000D01*
%TO.N,Net-(D026-K)*%
X314460000Y-78920000D02*
X314460000Y-72670000D01*
%TO.N,Net-(D26-A)*%
X190120000Y-153920000D02*
X190300000Y-153920000D01*
X182620000Y-161420000D02*
X190120000Y-153920000D01*
%TO.N,/ALU/B_4*%
X321960000Y-83530000D02*
X322110000Y-83680000D01*
X321960000Y-78920000D02*
X321960000Y-83530000D01*
X298170000Y-93121800D02*
X300294000Y-90997500D01*
X298170000Y-93930000D02*
X298170000Y-93121800D01*
%TO.N,Net-(D025-K)*%
X319420000Y-72710000D02*
X319420000Y-78920000D01*
X319460000Y-72670000D02*
X319420000Y-72710000D01*
%TO.N,Net-(D25-A)*%
X251250000Y-28130000D02*
X251250000Y-23500000D01*
%TO.N,Net-(D024-K)*%
X324420000Y-72940000D02*
X324420000Y-78920000D01*
X324210000Y-72730000D02*
X324420000Y-72940000D01*
%TO.N,/ALU/B_5*%
X320760000Y-84869900D02*
X319570000Y-83680000D01*
X325565000Y-84869900D02*
X320760000Y-84869900D01*
X326960000Y-83475200D02*
X325565000Y-84869900D01*
X326960000Y-78920000D02*
X326960000Y-83475200D01*
X300848000Y-93930000D02*
X300710000Y-93930000D01*
X303060000Y-91717700D02*
X300848000Y-93930000D01*
X303060000Y-88899600D02*
X303060000Y-91717700D01*
X304288000Y-87671700D02*
X303060000Y-88899600D01*
X283152000Y-76857400D02*
X283152000Y-87637700D01*
X277424000Y-71129400D02*
X283152000Y-76857400D01*
X277424000Y-70180000D02*
X277424000Y-71129400D01*
X277424200Y-70180000D02*
X277424000Y-70180000D01*
%TO.N,Net-(D24-A)*%
X243770000Y-27610000D02*
X243250000Y-28130000D01*
X243770000Y-23500000D02*
X243770000Y-27610000D01*
%TO.N,Net-(D023-K)*%
X329500000Y-72770000D02*
X329460000Y-72730000D01*
X329500000Y-78880000D02*
X329500000Y-72770000D01*
%TO.N,Net-(D23-K)*%
X240427000Y-47052300D02*
X240647000Y-47272300D01*
X240427000Y-42332300D02*
X240427000Y-47052300D01*
X240427100Y-42332300D02*
X240427000Y-42332300D01*
X240647100Y-47272300D02*
X240647000Y-47272300D01*
%TO.N,Net-(D022-K)*%
X334460000Y-72670000D02*
X334460000Y-78920000D01*
%TO.N,Net-(D22-K)*%
X234397100Y-47272200D02*
X234397100Y-47272300D01*
X234407000Y-47262300D02*
X234397100Y-47272200D01*
X234397000Y-47272300D02*
X234407000Y-47262300D01*
X234417100Y-44792200D02*
X234417100Y-42332300D01*
X234417000Y-44792300D02*
X234417100Y-44792200D01*
X234417000Y-47252300D02*
X234417000Y-44792300D01*
X234407000Y-47262300D02*
X234417000Y-47252300D01*
X234417000Y-44792300D02*
X234417000Y-42332300D01*
%TO.N,Net-(D21-K)*%
X228407000Y-47092300D02*
X228407000Y-42332300D01*
X228647000Y-47332300D02*
X228407000Y-47092300D01*
X228407100Y-42332300D02*
X228407000Y-42332300D01*
X228647100Y-47332300D02*
X228647000Y-47332300D01*
%TO.N,Net-(D20-K)*%
X222397100Y-42332300D02*
X222397000Y-42332300D01*
X222197100Y-47272200D02*
X222197100Y-47272300D01*
X222297000Y-47172300D02*
X222197100Y-47272200D01*
X222197000Y-47272300D02*
X222297000Y-47172300D01*
X222397000Y-47072300D02*
X222397000Y-42332300D01*
X222297000Y-47172300D02*
X222397000Y-47072300D01*
%TO.N,/MAR/A3*%
X205277000Y-84027200D02*
X204452000Y-84852500D01*
X205277000Y-78440500D02*
X205277000Y-84027200D01*
X207331000Y-76386400D02*
X205277000Y-78440500D01*
X207331000Y-47358000D02*
X207331000Y-76386400D01*
X210862000Y-43827100D02*
X207331000Y-47358000D01*
X227420000Y-39849400D02*
X224937100Y-42332300D01*
X227420000Y-36540000D02*
X227420000Y-39849400D01*
X224937100Y-42332300D02*
X224937000Y-42332300D01*
%TO.N,Net-(D19-K)*%
X281877100Y-106706900D02*
X281877100Y-103852300D01*
X281877000Y-106707000D02*
X281877100Y-106706900D01*
X281877000Y-109562000D02*
X281877000Y-106707000D01*
X281917000Y-109602000D02*
X281877000Y-109562000D01*
X281877000Y-106707000D02*
X281877000Y-103852000D01*
X281917000Y-109602200D02*
X281917000Y-109602000D01*
X281917100Y-109602300D02*
X281917000Y-109602200D01*
%TO.N,Net-(D18-K)*%
X276717000Y-103852300D02*
X276717100Y-103852300D01*
X276717000Y-104352100D02*
X276717000Y-103852300D01*
X276717000Y-109532000D02*
X276717000Y-104352100D01*
X276917000Y-109732000D02*
X276717000Y-109532000D01*
X276717000Y-104352100D02*
X276717000Y-103852000D01*
X276917000Y-109732300D02*
X276917000Y-109732000D01*
X276917100Y-109732300D02*
X276917000Y-109732300D01*
%TO.N,Net-(D17-A)*%
X267977000Y-98412300D02*
X267977100Y-98412300D01*
X272971000Y-102441000D02*
X274382000Y-103852000D01*
X272006000Y-102441000D02*
X272971000Y-102441000D01*
X267977100Y-98412300D02*
X272006000Y-102441000D01*
X274382000Y-103852200D02*
X274382000Y-103852000D01*
X274382100Y-103852300D02*
X274382000Y-103852200D01*
%TO.N,Net-(D17-K)*%
X271717000Y-109602200D02*
X271717000Y-109602000D01*
X271717100Y-109602300D02*
X271717000Y-109602200D01*
X271842000Y-103852300D02*
X271842100Y-103852300D01*
X271842000Y-104352100D02*
X271842000Y-103852300D01*
X271842000Y-103852000D02*
X271842000Y-104352100D01*
X271842000Y-109477000D02*
X271717000Y-109602000D01*
X271842000Y-104352100D02*
X271842000Y-109477000D01*
%TO.N,Net-(D16-A)*%
X269507000Y-103852200D02*
X269507000Y-103852000D01*
X269507100Y-103852300D02*
X269507000Y-103852200D01*
X265437000Y-98412300D02*
X265437100Y-98412300D01*
X269507000Y-102482000D02*
X269507000Y-103852000D01*
X265437100Y-98412300D02*
X269507000Y-102482000D01*
%TO.N,Net-(D16-K)*%
X266917000Y-109792200D02*
X266917000Y-109792000D01*
X266917100Y-109792300D02*
X266917000Y-109792200D01*
X266967000Y-105054000D02*
X266967100Y-105054000D01*
X266967000Y-106797000D02*
X266967000Y-105054000D01*
X266967000Y-103852000D02*
X266967000Y-106797000D01*
X266967000Y-109742000D02*
X266917000Y-109792000D01*
X266967000Y-106797000D02*
X266967000Y-109742000D01*
X266967100Y-103852300D02*
X266967100Y-105054000D01*
%TO.N,Net-(D15-A)*%
X274893000Y-55337000D02*
X276940000Y-53290000D01*
X274893000Y-57331700D02*
X274893000Y-55337000D01*
X264627000Y-103852200D02*
X264627000Y-103852000D01*
X264627100Y-103852300D02*
X264627000Y-103852200D01*
X262897100Y-100267000D02*
X262897100Y-98412300D01*
X262897000Y-100267100D02*
X262897100Y-100267000D01*
X262897000Y-98412300D02*
X262897000Y-100267100D01*
X262897000Y-102122000D02*
X264627000Y-103852000D01*
X262897000Y-100267100D02*
X262897000Y-102122000D01*
%TO.N,Net-(D15-K)*%
X262087100Y-105096900D02*
X262087100Y-103852300D01*
X262087000Y-105097000D02*
X262087100Y-105096900D01*
X262087000Y-103852000D02*
X262087000Y-105097000D01*
X262087000Y-109462000D02*
X262167000Y-109542000D01*
X262087000Y-105097000D02*
X262087000Y-109462000D01*
X262167100Y-109542100D02*
X262167100Y-109542300D01*
X262167000Y-109542000D02*
X262167100Y-109542100D01*
%TO.N,CF*%
X262990000Y-53920000D02*
X262000000Y-53920000D01*
X266160000Y-50750000D02*
X262990000Y-53920000D01*
%TO.N,Net-(D13-A)*%
X259782000Y-98987300D02*
X259782000Y-103852000D01*
X260357000Y-98412300D02*
X259782000Y-98987300D01*
X276940000Y-46284800D02*
X276940000Y-45670000D01*
X274886000Y-48338700D02*
X276940000Y-46284800D01*
X274886000Y-54384600D02*
X274886000Y-48338700D01*
X274713000Y-54557600D02*
X274886000Y-54384600D01*
X260357100Y-98412300D02*
X260357000Y-98412300D01*
X259782000Y-103852300D02*
X259782000Y-103852000D01*
X259782100Y-103852300D02*
X259782000Y-103852300D01*
%TO.N,Net-(D13-K)*%
X257167000Y-109542200D02*
X257167000Y-109542000D01*
X257167100Y-109542300D02*
X257167000Y-109542200D01*
X257242000Y-103852300D02*
X257242100Y-103852300D01*
X257242000Y-104352100D02*
X257242000Y-103852300D01*
X257242000Y-103852000D02*
X257242000Y-104352100D01*
X257242000Y-109467000D02*
X257167000Y-109542000D01*
X257242000Y-104352100D02*
X257242000Y-109467000D01*
%TO.N,Net-(D12-K)*%
X252167000Y-109542200D02*
X252167000Y-109542000D01*
X252167100Y-109542300D02*
X252167000Y-109542200D01*
X252367000Y-103852300D02*
X252367100Y-103852300D01*
X252367000Y-104352100D02*
X252367000Y-103852300D01*
X252367000Y-109342000D02*
X252367000Y-104352100D01*
X252167000Y-109542000D02*
X252367000Y-109342000D01*
X252367000Y-104352100D02*
X252367000Y-103852000D01*
%TO.N,Net-(D12-A)*%
X254907000Y-103852200D02*
X254907000Y-103852000D01*
X254907100Y-103852300D02*
X254907000Y-103852200D01*
X254907000Y-101322000D02*
X257817000Y-98412300D01*
X254907000Y-103852000D02*
X254907000Y-101322000D01*
X257817100Y-98412300D02*
X257817000Y-98412300D01*
%TO.N,Net-(D11-A)*%
X255277000Y-98592300D02*
X255277000Y-98412300D01*
X250017000Y-103852000D02*
X255277000Y-98592300D01*
X255277100Y-98412300D02*
X255277000Y-98412300D01*
X250017000Y-103852200D02*
X250017000Y-103852000D01*
X250017100Y-103852300D02*
X250017000Y-103852200D01*
%TO.N,Net-(D11-K)*%
X247477000Y-103852300D02*
X247477100Y-103852300D01*
X247477000Y-104352100D02*
X247477000Y-103852300D01*
X247477000Y-103852000D02*
X247477000Y-104352100D01*
X247446900Y-109572500D02*
X247446900Y-109572100D01*
X247417100Y-109602300D02*
X247446900Y-109572500D01*
X247477000Y-109542000D02*
X247446900Y-109572100D01*
X247477000Y-104352100D02*
X247477000Y-109542000D01*
X247446900Y-109572100D02*
X247417000Y-109602000D01*
%TO.N,ZF*%
X262000000Y-57450000D02*
X262000000Y-58420000D01*
X266160000Y-53290000D02*
X262000000Y-57450000D01*
%TO.N,/ALU/A_0*%
X282976000Y-58354400D02*
X282976000Y-59564100D01*
X284399000Y-56931700D02*
X282976000Y-58354400D01*
X286618000Y-56931700D02*
X284399000Y-56931700D01*
X287720000Y-55830000D02*
X286618000Y-56931700D01*
X234047100Y-80626100D02*
X234047100Y-81162300D01*
X234047000Y-80626000D02*
X234047100Y-80626100D01*
X234047000Y-81162300D02*
X234047000Y-80626000D01*
X244975000Y-68004400D02*
X246567000Y-66412300D01*
X244975000Y-69384400D02*
X244975000Y-68004400D01*
X239057000Y-75302300D02*
X244975000Y-69384400D01*
X238835000Y-75302300D02*
X239057000Y-75302300D01*
X234047000Y-80089800D02*
X238835000Y-75302300D01*
X234047000Y-80626000D02*
X234047000Y-80089800D01*
X246567100Y-66412300D02*
X246567000Y-66412300D01*
%TO.N,Net-(D8-K)*%
X231567100Y-85662200D02*
X231567100Y-85662300D01*
X231577000Y-85652300D02*
X231567100Y-85662200D01*
X231567000Y-85662300D02*
X231577000Y-85652300D01*
X231587100Y-83402200D02*
X231587100Y-81162300D01*
X231587000Y-83402300D02*
X231587100Y-83402200D01*
X231587000Y-85642300D02*
X231587000Y-83402300D01*
X231577000Y-85652300D02*
X231587000Y-85642300D01*
X231587000Y-83402300D02*
X231587000Y-81162300D01*
%TO.N,/ALU/A_2*%
X291414600Y-54675400D02*
X291414600Y-60806000D01*
X295340000Y-50750000D02*
X291414600Y-54675400D01*
%TO.N,Net-(D7-K)*%
X226587100Y-81162300D02*
X226587000Y-81162300D01*
X226567100Y-85662200D02*
X226567100Y-85662300D01*
X226577000Y-85652300D02*
X226567100Y-85662200D01*
X226567000Y-85662300D02*
X226577000Y-85652300D01*
X226587000Y-85642300D02*
X226587000Y-81162300D01*
X226577000Y-85652300D02*
X226587000Y-85642300D01*
%TO.N,/ALU/A_3*%
X293268000Y-69275400D02*
X292704000Y-69839500D01*
X293268000Y-64185100D02*
X293268000Y-69275400D01*
%TO.N,Net-(D6-K)*%
X221567100Y-85662200D02*
X221567100Y-85662300D01*
X221577000Y-85652300D02*
X221567100Y-85662200D01*
X221567000Y-85662300D02*
X221577000Y-85652300D01*
X221587000Y-85642300D02*
X221587000Y-81162300D01*
X221577000Y-85652300D02*
X221587000Y-85642300D01*
X221587100Y-81162300D02*
X221587000Y-81162300D01*
%TO.N,Net-(D5-K)*%
X216567100Y-85662300D02*
X216567000Y-85662300D01*
X216567100Y-83412200D02*
X216567100Y-81162300D01*
X216567000Y-83412300D02*
X216567100Y-83412200D01*
X216567000Y-85662300D02*
X216567000Y-83412300D01*
X216567000Y-83412300D02*
X216567000Y-81162300D01*
%TO.N,/ALU/A_4*%
X208497100Y-66561100D02*
X208497100Y-72282300D01*
X209637000Y-65421200D02*
X208497100Y-66561100D01*
X209637000Y-58840200D02*
X209637000Y-65421200D01*
X211004400Y-57472800D02*
X209637000Y-58840200D01*
%TO.N,Net-(D4-K)*%
X211567100Y-81162300D02*
X211567000Y-81162300D01*
X211567100Y-83412400D02*
X211567100Y-85662300D01*
X211567000Y-83412300D02*
X211567100Y-83412400D01*
X211567000Y-81162300D02*
X211567000Y-83412300D01*
X211567000Y-83412300D02*
X211567000Y-85662300D01*
%TO.N,/ALU/A_5*%
X211037100Y-69671700D02*
X211037100Y-72282300D01*
X211037000Y-69671600D02*
X211037100Y-69671700D01*
X211037000Y-67060900D02*
X211037000Y-69671600D01*
X212388000Y-65709700D02*
X211037000Y-67060900D01*
X212388000Y-56784600D02*
X212388000Y-65709700D01*
X213547000Y-55626000D02*
X212388000Y-56784600D01*
X211037000Y-69671600D02*
X211037000Y-72282300D01*
%TO.N,/ALU/A_6*%
X213577100Y-72282200D02*
X213577100Y-72282300D01*
X214212000Y-71647300D02*
X213577100Y-72282200D01*
X214847000Y-71012300D02*
X214212000Y-71647300D01*
X214847000Y-58894000D02*
X214847000Y-71012300D01*
X216182000Y-57559400D02*
X214847000Y-58894000D01*
X214212000Y-71647300D02*
X213577000Y-72282300D01*
%TO.N,Net-(D3-K)*%
X206557100Y-85652300D02*
X206567100Y-85662300D01*
X206557000Y-85652300D02*
X206557100Y-85652300D01*
X206567000Y-85662300D02*
X206557000Y-85652300D01*
X206547000Y-85642300D02*
X206547000Y-81162300D01*
X206557000Y-85652300D02*
X206547000Y-85642300D01*
X206547100Y-81162300D02*
X206547000Y-81162300D01*
%TO.N,Net-(D2-K)*%
X201507000Y-85602300D02*
X201507000Y-81162300D01*
X201567000Y-85662300D02*
X201507000Y-85602300D01*
X201507100Y-81162300D02*
X201507000Y-81162300D01*
X201567100Y-85662300D02*
X201567000Y-85662300D01*
%TO.N,Net-(D1-K)*%
X271297100Y-134912300D02*
X271297100Y-136114000D01*
X271317000Y-139602200D02*
X271317000Y-139602000D01*
X271317100Y-139602300D02*
X271317000Y-139602200D01*
X271297000Y-134912000D02*
X271297000Y-136114000D01*
X271297000Y-139582000D02*
X271317000Y-139602000D01*
X271297000Y-136114000D02*
X271297000Y-139582000D01*
X271297000Y-136114000D02*
X271297100Y-136114000D01*
%TO.N,Net-(U31-THR)*%
X155666000Y-124379100D02*
X155666000Y-124379000D01*
X155666400Y-124379100D02*
X155666000Y-124379100D01*
X155666000Y-119379500D02*
X155666400Y-119379100D01*
X155666000Y-119729000D02*
X155666000Y-119379500D01*
X155666000Y-124379000D02*
X155666000Y-119729000D01*
X155666000Y-119729000D02*
X155666000Y-119379000D01*
%TO.N,BUS_5*%
X59839800Y-80489800D02*
X58500000Y-79150000D01*
X59839900Y-80489800D02*
X59839800Y-80489800D01*
X59839900Y-93204900D02*
X59839900Y-80489800D01*
X63325000Y-96690000D02*
X59839900Y-93204900D01*
X162473000Y-70057500D02*
X162243000Y-70057500D01*
X162473000Y-64246700D02*
X163680000Y-63040000D01*
X162473000Y-70057500D02*
X162473000Y-64246700D01*
X207837000Y-138087000D02*
X207837000Y-132970000D01*
X206214000Y-139710000D02*
X207837000Y-138087000D01*
X205607000Y-139710000D02*
X206214000Y-139710000D01*
X204819000Y-140497000D02*
X205607000Y-139710000D01*
X204819000Y-141696000D02*
X204819000Y-140497000D01*
X204960000Y-141838000D02*
X204819000Y-141696000D01*
X204960000Y-142121000D02*
X204960000Y-141838000D01*
X202389000Y-144692000D02*
X204960000Y-142121000D01*
X199528000Y-144692000D02*
X202389000Y-144692000D01*
X197920000Y-146300000D02*
X199528000Y-144692000D01*
X162473000Y-76523700D02*
X162473000Y-70057500D01*
X162218000Y-76778700D02*
X162473000Y-76523700D01*
%TO.N,VCC*%
X105000100Y-32020000D02*
X105000100Y-34560000D01*
X237977000Y-112097200D02*
X237977000Y-112097000D01*
X237977100Y-112097300D02*
X237977000Y-112097200D01*
X130383900Y-151849100D02*
X130383900Y-149309100D01*
X237977100Y-105897000D02*
X237977100Y-105547300D01*
X237977000Y-105897100D02*
X237977100Y-105897000D01*
X237977000Y-112097000D02*
X237977000Y-105897100D01*
X237977000Y-105897100D02*
X237977000Y-105547000D01*
%TO.N,GND*%
X334460000Y-65050000D02*
X299460000Y-65050000D01*
X215120000Y-173920000D02*
X180120000Y-173920000D01*
X89442600Y-37100000D02*
X89442600Y-34560000D01*
X27000000Y-114990000D02*
X26990000Y-114990000D01*
X124000000Y-47300000D02*
X124000000Y-44760000D01*
X26990000Y-114990000D02*
X26000000Y-114000000D01*
X309840000Y-112805000D02*
X315605000Y-107040000D01*
X304620000Y-112805000D02*
X309840000Y-112805000D01*
X176817000Y-125632000D02*
X176817000Y-128172000D01*
X264500000Y-30220000D02*
X269000000Y-25720000D01*
X264500000Y-32630000D02*
X264500000Y-30220000D01*
X308330000Y-93930000D02*
X310870000Y-93930000D01*
X171737000Y-128172000D02*
X169197000Y-130712000D01*
X176817000Y-128172000D02*
X171737000Y-128172000D01*
X332580000Y-93800000D02*
X330040000Y-93800000D01*
X246567000Y-79112300D02*
X246567000Y-76572300D01*
X252810000Y-42420000D02*
X256750000Y-46360000D01*
X251000000Y-42420000D02*
X252810000Y-42420000D01*
X72317100Y-108683000D02*
X72317100Y-109792000D01*
X74120000Y-106880000D02*
X72317100Y-108683000D01*
X200067000Y-65332300D02*
X196627000Y-61892300D01*
X200067000Y-74282300D02*
X200067000Y-65332300D01*
X175990000Y-91790000D02*
X157990000Y-91790000D01*
X42317100Y-109792000D02*
X72317100Y-109792000D01*
X116976000Y-154689000D02*
X122166000Y-159879000D01*
X116976000Y-150879000D02*
X116976000Y-154689000D01*
X256880000Y-37710000D02*
X256880000Y-40250000D01*
X259470000Y-63450000D02*
X256750000Y-66170000D01*
X266160000Y-63450000D02*
X259470000Y-63450000D01*
X192500000Y-27300000D02*
X157500000Y-27300000D01*
X189000000Y-131234000D02*
X192037000Y-128197000D01*
X189000000Y-138854000D02*
X189000000Y-131234000D01*
X184417000Y-143437000D02*
X189000000Y-138854000D01*
X73575600Y-85420000D02*
X74000000Y-85420000D01*
X70707900Y-88287700D02*
X73575600Y-85420000D01*
X35430000Y-114990000D02*
X27000000Y-114990000D01*
X38000000Y-112420000D02*
X35430000Y-114990000D01*
X199477000Y-74282300D02*
X200067000Y-74282300D01*
X196627000Y-77132300D02*
X199477000Y-74282300D01*
X148170000Y-62000000D02*
X143430000Y-66740000D01*
X154410000Y-62000000D02*
X148170000Y-62000000D01*
X155490000Y-60920000D02*
X154410000Y-62000000D01*
X266160000Y-43800000D02*
X269000000Y-40960000D01*
X266160000Y-45670000D02*
X266160000Y-43800000D01*
X237574000Y-114500000D02*
X239977000Y-112097000D01*
X232678000Y-114500000D02*
X237574000Y-114500000D01*
X226613000Y-120565000D02*
X232678000Y-114500000D01*
X253170000Y-40250000D02*
X251000000Y-42420000D01*
X256880000Y-40250000D02*
X253170000Y-40250000D01*
X302127000Y-117222000D02*
X304067000Y-119162000D01*
X291500000Y-117222000D02*
X302127000Y-117222000D01*
X289159000Y-62011000D02*
X287720000Y-63450000D01*
X297409000Y-62011000D02*
X289159000Y-62011000D01*
X298500000Y-60920000D02*
X297409000Y-62011000D01*
X212312000Y-126912000D02*
X213597000Y-128197000D01*
X202437000Y-126912000D02*
X212312000Y-126912000D01*
X84752100Y-58932300D02*
X82612100Y-56792300D01*
X85912100Y-58932300D02*
X84752100Y-58932300D01*
X74120000Y-99260000D02*
X74120000Y-96720000D01*
X111300000Y-65080000D02*
X124000000Y-52380000D01*
X108443000Y-65080000D02*
X111300000Y-65080000D01*
X188740000Y-55420000D02*
X184000000Y-55420000D01*
X191430000Y-52730000D02*
X188740000Y-55420000D01*
X299460000Y-61880000D02*
X298500000Y-60920000D01*
X299460000Y-65050000D02*
X299460000Y-61880000D01*
X146807000Y-157492000D02*
X141164000Y-151849000D01*
X151697000Y-157492000D02*
X146807000Y-157492000D01*
X266160000Y-48210000D02*
X266160000Y-45670000D01*
X291500000Y-117500000D02*
X292500000Y-118500000D01*
X291500000Y-117222000D02*
X291500000Y-117500000D01*
X196627000Y-88342300D02*
X196627000Y-79672300D01*
X201567000Y-93282300D02*
X196627000Y-88342300D01*
X278041000Y-62349000D02*
X276940000Y-63450000D01*
X286619000Y-62349000D02*
X278041000Y-62349000D01*
X287720000Y-63450000D02*
X286619000Y-62349000D01*
X307889000Y-93930000D02*
X308330000Y-93930000D01*
X305731000Y-91771900D02*
X307889000Y-93930000D01*
X305731000Y-87620800D02*
X305731000Y-91771900D01*
X301790000Y-83680000D02*
X305731000Y-87620800D01*
X160720000Y-60920000D02*
X155490000Y-60920000D01*
X166220000Y-55420000D02*
X160720000Y-60920000D01*
X85912100Y-60042300D02*
X85912100Y-58932300D01*
X82612100Y-63342300D02*
X85912100Y-60042300D01*
X195197000Y-99652300D02*
X195197000Y-99912300D01*
X201567000Y-93282300D02*
X195197000Y-99652300D01*
X108912000Y-65549600D02*
X108443000Y-65080000D01*
X108912000Y-73932300D02*
X108912000Y-65549600D01*
X230909000Y-29868700D02*
X237580000Y-36540000D01*
X223289000Y-29868700D02*
X230909000Y-29868700D01*
X222340000Y-28920000D02*
X223289000Y-29868700D01*
X181460000Y-55420000D02*
X184000000Y-55420000D01*
X72592300Y-100788000D02*
X74120000Y-99260000D01*
X71017900Y-100788000D02*
X72592300Y-100788000D01*
X145620000Y-91790000D02*
X143430000Y-89600000D01*
X157990000Y-91790000D02*
X145620000Y-91790000D01*
X143430000Y-106973000D02*
X141724000Y-108679000D01*
X143430000Y-89600000D02*
X143430000Y-106973000D01*
X239977000Y-112097000D02*
X239977000Y-105547000D01*
X269000000Y-25720000D02*
X269000000Y-23180000D01*
X299267000Y-134162000D02*
X293317000Y-134162000D01*
X301067000Y-135962000D02*
X299267000Y-134162000D01*
X293090000Y-92380000D02*
X301790000Y-83680000D01*
X293090000Y-93930000D02*
X293090000Y-92380000D01*
X158960000Y-64390000D02*
X155490000Y-60920000D01*
X158960000Y-66300000D02*
X158960000Y-64390000D01*
X97062600Y-44720000D02*
X89442600Y-37100000D01*
X105000000Y-44720000D02*
X97062600Y-44720000D01*
X70975000Y-96720000D02*
X70945000Y-96690000D01*
X74120000Y-96720000D02*
X70975000Y-96720000D01*
X245102000Y-117222000D02*
X247417000Y-117222000D01*
X239977000Y-112097000D02*
X245102000Y-117222000D01*
X139105000Y-142790000D02*
X138004000Y-141689000D01*
X139105000Y-149790000D02*
X139105000Y-142790000D01*
X141164000Y-151849000D02*
X139105000Y-149790000D01*
X85119800Y-34560000D02*
X84032100Y-33472300D01*
X89442600Y-34560000D02*
X85119800Y-34560000D01*
X71017900Y-103778000D02*
X71017900Y-100788000D01*
X74120000Y-106880000D02*
X71017900Y-103778000D01*
X277424000Y-96585200D02*
X277424000Y-85420000D01*
X275597000Y-98412300D02*
X277424000Y-96585200D01*
X38411700Y-109792000D02*
X37994400Y-109375000D01*
X42317100Y-109792000D02*
X38411700Y-109792000D01*
X84309800Y-65040000D02*
X82612100Y-63342300D01*
X89442600Y-65040000D02*
X84309800Y-65040000D01*
X167359000Y-56559200D02*
X166220000Y-55420000D01*
X180321000Y-56559200D02*
X167359000Y-56559200D01*
X181460000Y-55420000D02*
X180321000Y-56559200D01*
X264500000Y-35170000D02*
X264500000Y-32630000D01*
X250080000Y-41500000D02*
X251000000Y-42420000D01*
X247443000Y-41500000D02*
X250080000Y-41500000D01*
X242483000Y-36540000D02*
X247443000Y-41500000D01*
X237580000Y-36540000D02*
X242483000Y-36540000D01*
X304067000Y-113358000D02*
X304620000Y-112805000D01*
X304067000Y-119162000D02*
X304067000Y-113358000D01*
X141724000Y-108679000D02*
X141724000Y-111219000D01*
X259420000Y-35170000D02*
X256880000Y-37710000D01*
X264500000Y-35170000D02*
X259420000Y-35170000D01*
X259000000Y-27130000D02*
X259000000Y-23500000D01*
X264500000Y-32630000D02*
X259000000Y-27130000D01*
X77032300Y-109792000D02*
X74120000Y-106880000D01*
X77317100Y-109792000D02*
X77032300Y-109792000D01*
X332580000Y-88760000D02*
X333040000Y-88300000D01*
X332580000Y-93800000D02*
X332580000Y-88760000D01*
X201336000Y-125811000D02*
X202437000Y-126912000D01*
X194361000Y-125811000D02*
X201336000Y-125811000D01*
X192037000Y-128135000D02*
X194361000Y-125811000D01*
X192037000Y-128197000D02*
X192037000Y-128135000D01*
X196627000Y-79672300D02*
X196627000Y-77132300D01*
X203985000Y-27300000D02*
X192500000Y-27300000D01*
X212817000Y-36132300D02*
X203985000Y-27300000D01*
X267797000Y-86368700D02*
X266848000Y-85420000D01*
X276476000Y-86368700D02*
X267797000Y-86368700D01*
X277424000Y-85420000D02*
X276476000Y-86368700D01*
X267261000Y-62349000D02*
X266160000Y-63450000D01*
X275839000Y-62349000D02*
X267261000Y-62349000D01*
X276940000Y-63450000D02*
X275839000Y-62349000D01*
X265601000Y-36271000D02*
X264500000Y-35170000D01*
X265601000Y-37561000D02*
X265601000Y-36271000D01*
X269000000Y-40960000D02*
X265601000Y-37561000D01*
X168125000Y-173920000D02*
X151697000Y-157492000D01*
X180120000Y-173920000D02*
X168125000Y-173920000D01*
X300779000Y-82669000D02*
X301790000Y-83680000D01*
X300779000Y-66369000D02*
X300779000Y-82669000D01*
X299460000Y-65050000D02*
X300779000Y-66369000D01*
X37994400Y-112414000D02*
X38000000Y-112420000D01*
X37994400Y-109375000D02*
X37994400Y-112414000D01*
X46047700Y-81657100D02*
X46047700Y-86157100D01*
X82317100Y-109792000D02*
X82287500Y-109792000D01*
X241670000Y-141980000D02*
X241669000Y-141980000D01*
X241697000Y-141952000D02*
X241670000Y-141980000D01*
X46047700Y-91777100D02*
X46047700Y-94157100D01*
X45927700Y-91657100D02*
X46047700Y-91777100D01*
X46047700Y-71657100D02*
X46047700Y-94157100D01*
X275567000Y-152037000D02*
X275567000Y-154412000D01*
X46047700Y-106657000D02*
X46047700Y-104657000D01*
X220661000Y-93282300D02*
X220411000Y-93532300D01*
X221567000Y-93282300D02*
X220661000Y-93282300D01*
X236817000Y-93532300D02*
X220411000Y-93532300D01*
X272957000Y-118462000D02*
X271717000Y-117222000D01*
X271717000Y-117222000D02*
X272957000Y-118462000D01*
X274197000Y-119702000D02*
X274197000Y-120607000D01*
X272957000Y-118462000D02*
X274197000Y-119702000D01*
X42912500Y-109792000D02*
X42317100Y-109792000D01*
X46047700Y-106657000D02*
X42912500Y-109792000D01*
X46047700Y-104657000D02*
X46047700Y-106657000D01*
X46047700Y-94157100D02*
X46047700Y-104657000D01*
X256750000Y-74955200D02*
X257093000Y-75298100D01*
X256750000Y-66170000D02*
X256750000Y-74955200D01*
X257093000Y-75298100D02*
X257994000Y-76199100D01*
X247841000Y-75298100D02*
X257093000Y-75298100D01*
X246567000Y-76572300D02*
X247841000Y-75298100D01*
X117097000Y-151000000D02*
X119000000Y-151000000D01*
X116976000Y-150879000D02*
X117097000Y-151000000D01*
X316205000Y-95205000D02*
X316000000Y-95000000D01*
X316205000Y-106440000D02*
X316205000Y-95205000D01*
X315605000Y-107040000D02*
X316205000Y-106440000D01*
X316000000Y-95000000D02*
X314800000Y-93800000D01*
X328840000Y-95000000D02*
X316000000Y-95000000D01*
X330040000Y-93800000D02*
X328840000Y-95000000D01*
X316000000Y-95000000D02*
X314800000Y-93800000D01*
X70945000Y-96690000D02*
X70945000Y-92640000D01*
X70945000Y-88524800D02*
X70707900Y-88287700D01*
X70945000Y-92640000D02*
X70945000Y-88524800D01*
X314570000Y-93930000D02*
X310870000Y-93930000D01*
X314700000Y-93800000D02*
X314570000Y-93930000D01*
X314800000Y-93800000D02*
X314700000Y-93800000D01*
X310870000Y-93930000D02*
X308330000Y-93930000D01*
X196627000Y-61892300D02*
X196627000Y-59902300D01*
X196627000Y-57927100D02*
X191430000Y-52730000D01*
X196627000Y-59902300D02*
X196627000Y-57927100D01*
X114912000Y-73932300D02*
X108912000Y-73932300D01*
X267602000Y-117222000D02*
X271717000Y-117222000D01*
X267412000Y-117412000D02*
X267602000Y-117222000D01*
X266917000Y-117412000D02*
X267412000Y-117412000D01*
X271717000Y-117222000D02*
X291500000Y-117222000D01*
X266667000Y-117162000D02*
X266917000Y-117412000D01*
X247782000Y-117162000D02*
X266667000Y-117162000D01*
X247722000Y-117222000D02*
X247782000Y-117162000D01*
X247417000Y-117222000D02*
X247722000Y-117222000D01*
X289567000Y-131162000D02*
X290317000Y-131162000D01*
X293317000Y-134162000D02*
X290317000Y-131162000D01*
X107453000Y-54792500D02*
X105000000Y-52340000D01*
X107453000Y-64090000D02*
X107453000Y-54792500D01*
X108443000Y-65080000D02*
X107453000Y-64090000D01*
X105000000Y-52340000D02*
X105000000Y-49800000D01*
X257093000Y-75298100D02*
X257994000Y-76199000D01*
X257994000Y-76199000D02*
X257994000Y-76199100D01*
X257994000Y-76199100D02*
X257994000Y-76199000D01*
X212817000Y-53912300D02*
X212817000Y-51372300D01*
X213766000Y-37081000D02*
X212817000Y-36132300D01*
X213766000Y-50423600D02*
X213766000Y-37081000D01*
X212817000Y-51372300D02*
X213766000Y-50423600D01*
X302966000Y-130013000D02*
X301067000Y-131912000D01*
X302966000Y-120263000D02*
X302966000Y-130013000D01*
X304067000Y-119162000D02*
X302966000Y-120263000D01*
X301067000Y-131912000D02*
X301067000Y-135962000D01*
X174277000Y-133252000D02*
X176817000Y-135792000D01*
X169197000Y-133252000D02*
X174277000Y-133252000D01*
X176817000Y-135792000D02*
X176817000Y-138332000D01*
X108443000Y-34600000D02*
X108443000Y-34600200D01*
X106500000Y-36542600D02*
X108443000Y-34600200D01*
X106500000Y-43220100D02*
X106500000Y-36542600D01*
X105000000Y-44720000D02*
X106500000Y-43220100D01*
X108443000Y-34600200D02*
X108443000Y-34600000D01*
X229402000Y-55707800D02*
X229402000Y-54892300D01*
X229956000Y-56261500D02*
X229402000Y-55707800D01*
X229956000Y-71143100D02*
X229956000Y-56261500D01*
X228817000Y-72282300D02*
X229956000Y-71143100D01*
X211567000Y-93282300D02*
X211567000Y-93532300D01*
X220411000Y-93532300D02*
X211567000Y-93532300D01*
X124000000Y-49840000D02*
X124000000Y-49848600D01*
X124000000Y-52380000D02*
X124000000Y-47300000D01*
X105000000Y-47895000D02*
X105000000Y-47260000D01*
X105000000Y-52340000D02*
X105000000Y-44720000D01*
X27000000Y-114990000D02*
X26990000Y-114990000D01*
X26990000Y-114990000D02*
X24320000Y-114990000D01*
X196627000Y-61892300D02*
X196627000Y-59902300D01*
X196627000Y-59902300D02*
X201817000Y-54712300D01*
X213597000Y-128197200D02*
X213597000Y-128197000D01*
X213597100Y-128197300D02*
X213597000Y-128197200D01*
X169197000Y-133252200D02*
X169197000Y-133252000D01*
X169197100Y-133252300D02*
X169197000Y-133252200D01*
X141724000Y-111219100D02*
X141724000Y-111219000D01*
X141163900Y-151849100D02*
X141164000Y-151849000D01*
X226613200Y-120565000D02*
X226613000Y-120565000D01*
X105000100Y-47260000D02*
X105000000Y-47260000D01*
X82317100Y-109792300D02*
X82317100Y-109792000D01*
X200067100Y-74282300D02*
X200067000Y-74282300D01*
X71017900Y-100787700D02*
X71017900Y-100788000D01*
X105000100Y-49800000D02*
X105000000Y-49800000D01*
X195197100Y-99912300D02*
X195197000Y-99912300D01*
X202437000Y-126912200D02*
X202437000Y-126912000D01*
X202437100Y-126912300D02*
X202437000Y-126912200D01*
X277424200Y-85420000D02*
X277424000Y-85420000D01*
X72317100Y-109792300D02*
X72317100Y-109792000D01*
X176817000Y-128172200D02*
X176817000Y-128172000D01*
X176817100Y-128172300D02*
X176817000Y-128172200D01*
X266848400Y-85420000D02*
X266848000Y-85420000D01*
X266917000Y-117412200D02*
X266917000Y-117412000D01*
X266917100Y-117412300D02*
X266917000Y-117412200D01*
X124000100Y-44760000D02*
X124000000Y-44760000D01*
X293317000Y-134162200D02*
X293317000Y-134162000D01*
X293317100Y-134162300D02*
X293317000Y-134162200D01*
X275597100Y-98412300D02*
X275597000Y-98412300D01*
X124000100Y-49840000D02*
X124000000Y-49840000D01*
X77317100Y-109792300D02*
X77317100Y-109792000D01*
X184417000Y-143437200D02*
X184417000Y-143437000D01*
X184417100Y-143437300D02*
X184417000Y-143437200D01*
X228817100Y-72282300D02*
X228817000Y-72282300D01*
X275567000Y-154412200D02*
X275567000Y-154412000D01*
X275567100Y-154412300D02*
X275567000Y-154412200D01*
X212817100Y-53912300D02*
X212817000Y-53912300D01*
X216037200Y-120565200D02*
X216037000Y-120565200D01*
X216037400Y-120565000D02*
X216037200Y-120565200D01*
X216037000Y-120565000D02*
X216037000Y-120565200D01*
X216986000Y-121514000D02*
X216037000Y-120565000D01*
X225664000Y-121514000D02*
X216986000Y-121514000D01*
X226613000Y-120565000D02*
X225664000Y-121514000D01*
X216037000Y-125757000D02*
X213597000Y-128197000D01*
X216037000Y-120565200D02*
X216037000Y-125757000D01*
X192037000Y-128197200D02*
X192037000Y-128197000D01*
X192037100Y-128197300D02*
X192037000Y-128197200D01*
X169197000Y-143412300D02*
X169197000Y-143412000D01*
X169197100Y-143412300D02*
X169197000Y-143412300D01*
X108442600Y-65080000D02*
X108443000Y-65080000D01*
X132792100Y-46632300D02*
X132792000Y-46632300D01*
X196627100Y-77132300D02*
X196627000Y-77132300D01*
X239977000Y-112097200D02*
X239977000Y-112097000D01*
X239977100Y-112097300D02*
X239977000Y-112097200D01*
X274197000Y-120607200D02*
X274197000Y-120607000D01*
X274197100Y-120607300D02*
X274197000Y-120607200D01*
X146666200Y-120378900D02*
X146666200Y-120378800D01*
X146666400Y-120379100D02*
X146666200Y-120378900D01*
X146666000Y-120379000D02*
X146666200Y-120378800D01*
X105000100Y-44720000D02*
X105000000Y-44720000D01*
X301067000Y-131912300D02*
X301067000Y-131912000D01*
X301067100Y-131912300D02*
X301067000Y-131912300D01*
X241697000Y-141952200D02*
X241697000Y-141952000D01*
X241697100Y-141952300D02*
X241697000Y-141952200D01*
X141724100Y-116299000D02*
X141724100Y-116298900D01*
X141724000Y-116299100D02*
X141724100Y-116299000D01*
X142714000Y-115309000D02*
X141724100Y-116298900D01*
X142714000Y-112209000D02*
X142714000Y-115309000D01*
X141724000Y-111219000D02*
X142714000Y-112209000D01*
X145804000Y-120379000D02*
X146666000Y-120379000D01*
X141724000Y-116299000D02*
X145804000Y-120379000D01*
X141724100Y-116298900D02*
X141724000Y-116299000D01*
X301067000Y-135962300D02*
X301067000Y-135962000D01*
X301067100Y-135962300D02*
X301067000Y-135962300D01*
X122166100Y-159879100D02*
X122166000Y-159879000D01*
X122166400Y-159879100D02*
X122166100Y-159879100D01*
X246567100Y-79112300D02*
X246567000Y-79112300D01*
X212817100Y-51372300D02*
X212817000Y-51372300D01*
X257993900Y-76199100D02*
X257994000Y-76199100D01*
X211567100Y-93282300D02*
X211567000Y-93282300D01*
X105000100Y-52340000D02*
X105000000Y-52340000D01*
X42317100Y-109792300D02*
X42317100Y-109792000D01*
X275567000Y-149662300D02*
X275567000Y-149662200D01*
X275567100Y-149662300D02*
X275567000Y-149662300D01*
X275567000Y-149662000D02*
X275567000Y-149662200D01*
X275567000Y-149662200D02*
X275567000Y-152037000D01*
X275567000Y-152037000D02*
X275567000Y-149662200D01*
X275567000Y-149662200D02*
X275567000Y-149662000D01*
X221567100Y-93282300D02*
X221567000Y-93282300D01*
X108442600Y-34600000D02*
X108443000Y-34600000D01*
X242317200Y-149927200D02*
X242317200Y-149927000D01*
X242317100Y-149927300D02*
X242317200Y-149927200D01*
X242317000Y-149927000D02*
X242317200Y-149927000D01*
X240897000Y-148507000D02*
X242317000Y-149927000D01*
X240897000Y-142752000D02*
X240897000Y-148507000D01*
X240647000Y-54892300D02*
X228707100Y-54892300D01*
X228707100Y-54892300D02*
X228647100Y-54952300D01*
X271317400Y-147222000D02*
X271317100Y-147222300D01*
X271767100Y-147222000D02*
X271317400Y-147222000D01*
X271317000Y-147222000D02*
X271767100Y-147222000D01*
X273127000Y-147222000D02*
X275567000Y-149662000D01*
X271767100Y-147222000D02*
X273127000Y-147222000D01*
X46047700Y-106657100D02*
X46047700Y-106657000D01*
X246567100Y-76572300D02*
X246567000Y-76572300D01*
X196627100Y-79672300D02*
X196627000Y-79672300D01*
X151697000Y-157492200D02*
X151697000Y-157492000D01*
X151697100Y-157492300D02*
X151697000Y-157492200D01*
X176817000Y-135792300D02*
X176817000Y-135792000D01*
X176817100Y-135792300D02*
X176817000Y-135792300D01*
X196627100Y-61892300D02*
X196627000Y-61892300D01*
X247417000Y-117222300D02*
X247417000Y-117222000D01*
X247417100Y-117222300D02*
X247417000Y-117222300D01*
X227527100Y-140907300D02*
X227527200Y-140907200D01*
X228707100Y-54892300D02*
X222197100Y-54892300D01*
X213797000Y-54892300D02*
X212817000Y-53912300D01*
X222197100Y-54892300D02*
X213797000Y-54892300D01*
X290317000Y-131162000D02*
X289567000Y-131162000D01*
X82317100Y-109792000D02*
X82287500Y-109792000D01*
X82287500Y-109792000D02*
X77317100Y-109792000D01*
X229372000Y-142752000D02*
X227527200Y-140907200D01*
X240897000Y-142752000D02*
X229372000Y-142752000D01*
X227527200Y-140907200D02*
X227527000Y-140907000D01*
X108912000Y-73932300D02*
X102912100Y-73932300D01*
X98334900Y-73932300D02*
X89442600Y-65040000D01*
X102912100Y-73932300D02*
X98334900Y-73932300D01*
X212817000Y-36132300D02*
X212817100Y-36132300D01*
X215128000Y-36132300D02*
X222340000Y-28920000D01*
X212817100Y-36132300D02*
X215128000Y-36132300D01*
X124000000Y-47300000D02*
X124000100Y-47300000D01*
X132124000Y-47300000D02*
X132792000Y-46632300D01*
X124000100Y-47300000D02*
X132124000Y-47300000D01*
X297000000Y-151000000D02*
X302797500Y-151000000D01*
X294000000Y-148000000D02*
X297000000Y-151000000D01*
X306800000Y-151000000D02*
X312620000Y-156820000D01*
X302797500Y-151000000D02*
X306800000Y-151000000D01*
X246567000Y-61332300D02*
X246567100Y-61332300D01*
X246567000Y-60812300D02*
X246567000Y-61332300D01*
X240647000Y-54892300D02*
X246567000Y-60812300D01*
X251912000Y-61332300D02*
X256750000Y-66170000D01*
X246567100Y-61332300D02*
X251912000Y-61332300D01*
X139500000Y-135733000D02*
X141163900Y-134069100D01*
X139500000Y-140193000D02*
X139500000Y-135733000D01*
X138004000Y-141689000D02*
X139500000Y-140193000D01*
X141163900Y-134069100D02*
X141164000Y-134069000D01*
X138004000Y-141689000D02*
X138003900Y-141689100D01*
X241697000Y-141952000D02*
X241669000Y-141980000D01*
X241669000Y-141980000D02*
X240897000Y-142752000D01*
X205977000Y-143437200D02*
X205977000Y-143437000D01*
X205977100Y-143437300D02*
X205977000Y-143437200D01*
X209000000Y-140414000D02*
X205977000Y-143437000D01*
X209000000Y-132794000D02*
X209000000Y-140414000D01*
X213597000Y-128197000D02*
X209000000Y-132794000D01*
X206777000Y-150077000D02*
X210620000Y-153920000D01*
X206777000Y-144237000D02*
X206777000Y-150077000D01*
X205977000Y-143437000D02*
X206777000Y-144237000D01*
X126166500Y-98519100D02*
X126166000Y-98519100D01*
X136326000Y-108679000D02*
X126166000Y-98519100D01*
X141724000Y-108679000D02*
X136326000Y-108679000D01*
X117817000Y-109792000D02*
X82317100Y-109792000D01*
X117817000Y-106868000D02*
X117817000Y-109792000D01*
X126166000Y-98519100D02*
X117817000Y-106868000D01*
X169197000Y-130712300D02*
X169197000Y-130712200D01*
X169197100Y-130712300D02*
X169197000Y-130712300D01*
X169197000Y-130712000D02*
X169197000Y-130712200D01*
X169197000Y-130712200D02*
X169197000Y-133252000D01*
X248817100Y-149927300D02*
X248817100Y-149926900D01*
X145666400Y-126379100D02*
X145666000Y-126379100D01*
X132912100Y-67052300D02*
X132912000Y-67052300D01*
X124000100Y-52380000D02*
X124000000Y-52380000D01*
X257993900Y-82749100D02*
X257994000Y-82749000D01*
X304067000Y-119162200D02*
X304067000Y-119162000D01*
X304067100Y-119162300D02*
X304067000Y-119162200D01*
X240647100Y-54892300D02*
X240647100Y-54892200D01*
X249317100Y-126712300D02*
X249317200Y-126712200D01*
X201567100Y-93282300D02*
X201567000Y-93282300D01*
X155666400Y-117379100D02*
X155666400Y-117379000D01*
X283067100Y-131162300D02*
X283067100Y-131162000D01*
X176817100Y-138332300D02*
X176817100Y-138332000D01*
X169197000Y-140872300D02*
X169197000Y-140872000D01*
X169197100Y-140872300D02*
X169197000Y-140872300D01*
X169197000Y-143412000D02*
X169197000Y-140872000D01*
X174277000Y-140872000D02*
X176817000Y-138332000D01*
X169197000Y-140872000D02*
X174277000Y-140872000D01*
X285000000Y-133095000D02*
X285000000Y-140500000D01*
X283067000Y-131162000D02*
X285000000Y-133095000D01*
X283067100Y-131162000D02*
X283067000Y-131162000D01*
X248817000Y-149927000D02*
X248817100Y-149926900D01*
X242317200Y-149927000D02*
X248817000Y-149927000D01*
X253130000Y-145614000D02*
X253130000Y-141030000D01*
X248817100Y-149926900D02*
X253130000Y-145614000D01*
X149666000Y-117379000D02*
X155666400Y-117379000D01*
X146666200Y-120378800D02*
X149666000Y-117379000D01*
X168096000Y-129611000D02*
X169197000Y-130712000D01*
X168096000Y-126088000D02*
X168096000Y-129611000D01*
X159387000Y-117379000D02*
X168096000Y-126088000D01*
X155666400Y-117379000D02*
X159387000Y-117379000D01*
X250500000Y-127895000D02*
X249317200Y-126712200D01*
X250500000Y-138400000D02*
X250500000Y-127895000D01*
X253130000Y-141030000D02*
X250500000Y-138400000D01*
X247417000Y-124812000D02*
X247417000Y-117222000D01*
X249317200Y-126712200D02*
X247417000Y-124812000D01*
X145666000Y-129567000D02*
X145666000Y-126379100D01*
X141164000Y-134069000D02*
X145666000Y-129567000D01*
X145666000Y-121379000D02*
X146666000Y-120379000D01*
X145666000Y-126379100D02*
X145666000Y-121379000D01*
X176817000Y-138332000D02*
X176817100Y-138332000D01*
X181937000Y-143437000D02*
X184417000Y-143437000D01*
X176832000Y-138332000D02*
X181937000Y-143437000D01*
X176817100Y-138332000D02*
X176832000Y-138332000D01*
X133861000Y-66103600D02*
X132912000Y-67052300D01*
X142794000Y-66103600D02*
X133861000Y-66103600D01*
X143430000Y-66740000D02*
X142794000Y-66103600D01*
X125500000Y-53879900D02*
X124000000Y-52380000D01*
X125500000Y-59640200D02*
X125500000Y-53879900D01*
X132912000Y-67052300D02*
X125500000Y-59640200D01*
X257994000Y-82749100D02*
X257994000Y-82749000D01*
X260665000Y-85420000D02*
X257994000Y-82749100D01*
X266848000Y-85420000D02*
X260665000Y-85420000D01*
X257994000Y-82749000D02*
X257994000Y-76199100D01*
X251000000Y-44539400D02*
X240647100Y-54892200D01*
X251000000Y-42420000D02*
X251000000Y-44539400D01*
X240647100Y-54892200D02*
X240647000Y-54892300D01*
X141724000Y-108679100D02*
X141724000Y-108679000D01*
X116976200Y-150878900D02*
X116976200Y-150878800D01*
X116976400Y-150879100D02*
X116976200Y-150878900D01*
X122525000Y-145330000D02*
X116976200Y-150878800D01*
X134363000Y-145330000D02*
X122525000Y-145330000D01*
X138003900Y-141689100D02*
X134363000Y-145330000D01*
X116976200Y-150878800D02*
X116976000Y-150879000D01*
X206567100Y-93282300D02*
X206567100Y-93532300D01*
X211567000Y-93532300D02*
X206567100Y-93532300D01*
X201817000Y-93532300D02*
X201567000Y-93282300D01*
X206567100Y-93532300D02*
X201817000Y-93532300D01*
X205461600Y-120565000D02*
X205461800Y-120565200D01*
X202437000Y-123590000D02*
X205461800Y-120565200D01*
X202437000Y-126912000D02*
X202437000Y-123590000D01*
X205461800Y-120565200D02*
X205462000Y-120565000D01*
X126166500Y-128999100D02*
X126166500Y-128999000D01*
X136094000Y-128999000D02*
X126166500Y-128999000D01*
X141164000Y-134069000D02*
X136094000Y-128999000D01*
X126166500Y-128999000D02*
X126166000Y-128999000D01*
X288460800Y-131162300D02*
X288460500Y-131162000D01*
X289567100Y-131162300D02*
X288460800Y-131162300D01*
X289567000Y-131162000D02*
X288460500Y-131162000D01*
X288460500Y-131162000D02*
X283067100Y-131162000D01*
X228647000Y-54952500D02*
X229302000Y-55606900D01*
X228647000Y-54952300D02*
X228647000Y-54952500D01*
X229302000Y-55606900D02*
X228647000Y-54952300D01*
X229402000Y-55707800D02*
X229302000Y-55606900D01*
%TD*%
M02*
