%TF.GenerationSoftware,KiCad,Pcbnew,9.0.4-1.fc42app3*%
%TF.CreationDate,2025-11-06T21:39:47-06:00*%
%TF.ProjectId,8-Bit-PC,382d4269-742d-4504-932e-6b696361645f,1*%
%TF.SameCoordinates,Original*%
%TF.FileFunction,Legend,Bot*%
%TF.FilePolarity,Positive*%
%FSLAX46Y46*%
G04 Gerber Fmt 4.6, Leading zero omitted, Abs format (unit mm)*
G04 Created by KiCad (PCBNEW 9.0.4-1.fc42app3) date 2025-11-06 21:39:47*
%MOMM*%
%LPD*%
G01*
G04 APERTURE LIST*
%ADD10C,0.150000*%
%ADD11C,0.120000*%
G04 APERTURE END LIST*
D10*
X50380557Y-97241919D02*
X50713890Y-96765728D01*
X50951985Y-97241919D02*
X50951985Y-96241919D01*
X50951985Y-96241919D02*
X50571033Y-96241919D01*
X50571033Y-96241919D02*
X50475795Y-96289538D01*
X50475795Y-96289538D02*
X50428176Y-96337157D01*
X50428176Y-96337157D02*
X50380557Y-96432395D01*
X50380557Y-96432395D02*
X50380557Y-96575252D01*
X50380557Y-96575252D02*
X50428176Y-96670490D01*
X50428176Y-96670490D02*
X50475795Y-96718109D01*
X50475795Y-96718109D02*
X50571033Y-96765728D01*
X50571033Y-96765728D02*
X50951985Y-96765728D01*
X50047223Y-96241919D02*
X49380557Y-96241919D01*
X49380557Y-96241919D02*
X49809128Y-97241919D01*
X48951985Y-97241919D02*
X48761509Y-97241919D01*
X48761509Y-97241919D02*
X48666271Y-97194300D01*
X48666271Y-97194300D02*
X48618652Y-97146680D01*
X48618652Y-97146680D02*
X48523414Y-97003823D01*
X48523414Y-97003823D02*
X48475795Y-96813347D01*
X48475795Y-96813347D02*
X48475795Y-96432395D01*
X48475795Y-96432395D02*
X48523414Y-96337157D01*
X48523414Y-96337157D02*
X48571033Y-96289538D01*
X48571033Y-96289538D02*
X48666271Y-96241919D01*
X48666271Y-96241919D02*
X48856747Y-96241919D01*
X48856747Y-96241919D02*
X48951985Y-96289538D01*
X48951985Y-96289538D02*
X48999604Y-96337157D01*
X48999604Y-96337157D02*
X49047223Y-96432395D01*
X49047223Y-96432395D02*
X49047223Y-96670490D01*
X49047223Y-96670490D02*
X48999604Y-96765728D01*
X48999604Y-96765728D02*
X48951985Y-96813347D01*
X48951985Y-96813347D02*
X48856747Y-96860966D01*
X48856747Y-96860966D02*
X48666271Y-96860966D01*
X48666271Y-96860966D02*
X48571033Y-96813347D01*
X48571033Y-96813347D02*
X48523414Y-96765728D01*
X48523414Y-96765728D02*
X48475795Y-96670490D01*
X50500557Y-102741919D02*
X50833890Y-102265728D01*
X51071985Y-102741919D02*
X51071985Y-101741919D01*
X51071985Y-101741919D02*
X50691033Y-101741919D01*
X50691033Y-101741919D02*
X50595795Y-101789538D01*
X50595795Y-101789538D02*
X50548176Y-101837157D01*
X50548176Y-101837157D02*
X50500557Y-101932395D01*
X50500557Y-101932395D02*
X50500557Y-102075252D01*
X50500557Y-102075252D02*
X50548176Y-102170490D01*
X50548176Y-102170490D02*
X50595795Y-102218109D01*
X50595795Y-102218109D02*
X50691033Y-102265728D01*
X50691033Y-102265728D02*
X51071985Y-102265728D01*
X49929128Y-102170490D02*
X50024366Y-102122871D01*
X50024366Y-102122871D02*
X50071985Y-102075252D01*
X50071985Y-102075252D02*
X50119604Y-101980014D01*
X50119604Y-101980014D02*
X50119604Y-101932395D01*
X50119604Y-101932395D02*
X50071985Y-101837157D01*
X50071985Y-101837157D02*
X50024366Y-101789538D01*
X50024366Y-101789538D02*
X49929128Y-101741919D01*
X49929128Y-101741919D02*
X49738652Y-101741919D01*
X49738652Y-101741919D02*
X49643414Y-101789538D01*
X49643414Y-101789538D02*
X49595795Y-101837157D01*
X49595795Y-101837157D02*
X49548176Y-101932395D01*
X49548176Y-101932395D02*
X49548176Y-101980014D01*
X49548176Y-101980014D02*
X49595795Y-102075252D01*
X49595795Y-102075252D02*
X49643414Y-102122871D01*
X49643414Y-102122871D02*
X49738652Y-102170490D01*
X49738652Y-102170490D02*
X49929128Y-102170490D01*
X49929128Y-102170490D02*
X50024366Y-102218109D01*
X50024366Y-102218109D02*
X50071985Y-102265728D01*
X50071985Y-102265728D02*
X50119604Y-102360966D01*
X50119604Y-102360966D02*
X50119604Y-102551442D01*
X50119604Y-102551442D02*
X50071985Y-102646680D01*
X50071985Y-102646680D02*
X50024366Y-102694300D01*
X50024366Y-102694300D02*
X49929128Y-102741919D01*
X49929128Y-102741919D02*
X49738652Y-102741919D01*
X49738652Y-102741919D02*
X49643414Y-102694300D01*
X49643414Y-102694300D02*
X49595795Y-102646680D01*
X49595795Y-102646680D02*
X49548176Y-102551442D01*
X49548176Y-102551442D02*
X49548176Y-102360966D01*
X49548176Y-102360966D02*
X49595795Y-102265728D01*
X49595795Y-102265728D02*
X49643414Y-102218109D01*
X49643414Y-102218109D02*
X49738652Y-102170490D01*
X48929128Y-101741919D02*
X48833890Y-101741919D01*
X48833890Y-101741919D02*
X48738652Y-101789538D01*
X48738652Y-101789538D02*
X48691033Y-101837157D01*
X48691033Y-101837157D02*
X48643414Y-101932395D01*
X48643414Y-101932395D02*
X48595795Y-102122871D01*
X48595795Y-102122871D02*
X48595795Y-102360966D01*
X48595795Y-102360966D02*
X48643414Y-102551442D01*
X48643414Y-102551442D02*
X48691033Y-102646680D01*
X48691033Y-102646680D02*
X48738652Y-102694300D01*
X48738652Y-102694300D02*
X48833890Y-102741919D01*
X48833890Y-102741919D02*
X48929128Y-102741919D01*
X48929128Y-102741919D02*
X49024366Y-102694300D01*
X49024366Y-102694300D02*
X49071985Y-102646680D01*
X49071985Y-102646680D02*
X49119604Y-102551442D01*
X49119604Y-102551442D02*
X49167223Y-102360966D01*
X49167223Y-102360966D02*
X49167223Y-102122871D01*
X49167223Y-102122871D02*
X49119604Y-101932395D01*
X49119604Y-101932395D02*
X49071985Y-101837157D01*
X49071985Y-101837157D02*
X49024366Y-101789538D01*
X49024366Y-101789538D02*
X48929128Y-101741919D01*
X50500557Y-87241919D02*
X50833890Y-86765728D01*
X51071985Y-87241919D02*
X51071985Y-86241919D01*
X51071985Y-86241919D02*
X50691033Y-86241919D01*
X50691033Y-86241919D02*
X50595795Y-86289538D01*
X50595795Y-86289538D02*
X50548176Y-86337157D01*
X50548176Y-86337157D02*
X50500557Y-86432395D01*
X50500557Y-86432395D02*
X50500557Y-86575252D01*
X50500557Y-86575252D02*
X50548176Y-86670490D01*
X50548176Y-86670490D02*
X50595795Y-86718109D01*
X50595795Y-86718109D02*
X50691033Y-86765728D01*
X50691033Y-86765728D02*
X51071985Y-86765728D01*
X50167223Y-86241919D02*
X49500557Y-86241919D01*
X49500557Y-86241919D02*
X49929128Y-87241919D01*
X49214842Y-86241919D02*
X48548176Y-86241919D01*
X48548176Y-86241919D02*
X48976747Y-87241919D01*
X50500557Y-92241919D02*
X50833890Y-91765728D01*
X51071985Y-92241919D02*
X51071985Y-91241919D01*
X51071985Y-91241919D02*
X50691033Y-91241919D01*
X50691033Y-91241919D02*
X50595795Y-91289538D01*
X50595795Y-91289538D02*
X50548176Y-91337157D01*
X50548176Y-91337157D02*
X50500557Y-91432395D01*
X50500557Y-91432395D02*
X50500557Y-91575252D01*
X50500557Y-91575252D02*
X50548176Y-91670490D01*
X50548176Y-91670490D02*
X50595795Y-91718109D01*
X50595795Y-91718109D02*
X50691033Y-91765728D01*
X50691033Y-91765728D02*
X51071985Y-91765728D01*
X50167223Y-91241919D02*
X49500557Y-91241919D01*
X49500557Y-91241919D02*
X49929128Y-92241919D01*
X48976747Y-91670490D02*
X49071985Y-91622871D01*
X49071985Y-91622871D02*
X49119604Y-91575252D01*
X49119604Y-91575252D02*
X49167223Y-91480014D01*
X49167223Y-91480014D02*
X49167223Y-91432395D01*
X49167223Y-91432395D02*
X49119604Y-91337157D01*
X49119604Y-91337157D02*
X49071985Y-91289538D01*
X49071985Y-91289538D02*
X48976747Y-91241919D01*
X48976747Y-91241919D02*
X48786271Y-91241919D01*
X48786271Y-91241919D02*
X48691033Y-91289538D01*
X48691033Y-91289538D02*
X48643414Y-91337157D01*
X48643414Y-91337157D02*
X48595795Y-91432395D01*
X48595795Y-91432395D02*
X48595795Y-91480014D01*
X48595795Y-91480014D02*
X48643414Y-91575252D01*
X48643414Y-91575252D02*
X48691033Y-91622871D01*
X48691033Y-91622871D02*
X48786271Y-91670490D01*
X48786271Y-91670490D02*
X48976747Y-91670490D01*
X48976747Y-91670490D02*
X49071985Y-91718109D01*
X49071985Y-91718109D02*
X49119604Y-91765728D01*
X49119604Y-91765728D02*
X49167223Y-91860966D01*
X49167223Y-91860966D02*
X49167223Y-92051442D01*
X49167223Y-92051442D02*
X49119604Y-92146680D01*
X49119604Y-92146680D02*
X49071985Y-92194300D01*
X49071985Y-92194300D02*
X48976747Y-92241919D01*
X48976747Y-92241919D02*
X48786271Y-92241919D01*
X48786271Y-92241919D02*
X48691033Y-92194300D01*
X48691033Y-92194300D02*
X48643414Y-92146680D01*
X48643414Y-92146680D02*
X48595795Y-92051442D01*
X48595795Y-92051442D02*
X48595795Y-91860966D01*
X48595795Y-91860966D02*
X48643414Y-91765728D01*
X48643414Y-91765728D02*
X48691033Y-91718109D01*
X48691033Y-91718109D02*
X48786271Y-91670490D01*
D11*
%TO.C,R79*%
X46467700Y-97787100D02*
X46467700Y-98117100D01*
X46467700Y-100527100D02*
X46467700Y-100197100D01*
X53007700Y-97787100D02*
X46467700Y-97787100D01*
X53007700Y-98117100D02*
X53007700Y-97787100D01*
X53007700Y-100197100D02*
X53007700Y-100527100D01*
X53007700Y-100527100D02*
X46467700Y-100527100D01*
%TO.C,R80*%
X46587700Y-103287100D02*
X46587700Y-103617100D01*
X46587700Y-106027100D02*
X46587700Y-105697100D01*
X53127700Y-103287100D02*
X46587700Y-103287100D01*
X53127700Y-103617100D02*
X53127700Y-103287100D01*
X53127700Y-105697100D02*
X53127700Y-106027100D01*
X53127700Y-106027100D02*
X46587700Y-106027100D01*
%TO.C,R77*%
X46587700Y-87787100D02*
X46587700Y-88117100D01*
X46587700Y-90527100D02*
X46587700Y-90197100D01*
X53127700Y-87787100D02*
X46587700Y-87787100D01*
X53127700Y-88117100D02*
X53127700Y-87787100D01*
X53127700Y-90197100D02*
X53127700Y-90527100D01*
X53127700Y-90527100D02*
X46587700Y-90527100D01*
%TO.C,R78*%
X46587700Y-92787100D02*
X46587700Y-93117100D01*
X46587700Y-95527100D02*
X46587700Y-95197100D01*
X53127700Y-92787100D02*
X46587700Y-92787100D01*
X53127700Y-93117100D02*
X53127700Y-92787100D01*
X53127700Y-95197100D02*
X53127700Y-95527100D01*
X53127700Y-95527100D02*
X46587700Y-95527100D01*
%TD*%
M02*
