%TF.GenerationSoftware,KiCad,Pcbnew,9.0.4-1.fc42app3*%
%TF.CreationDate,2025-11-06T21:39:46-06:00*%
%TF.ProjectId,8-Bit-PC,382d4269-742d-4504-932e-6b696361645f,1*%
%TF.SameCoordinates,Original*%
%TF.FileFunction,Copper,L5,Inr*%
%TF.FilePolarity,Positive*%
%FSLAX46Y46*%
G04 Gerber Fmt 4.6, Leading zero omitted, Abs format (unit mm)*
G04 Created by KiCad (PCBNEW 9.0.4-1.fc42app3) date 2025-11-06 21:39:46*
%MOMM*%
%LPD*%
G01*
G04 APERTURE LIST*
G04 Aperture macros list*
%AMRoundRect*
0 Rectangle with rounded corners*
0 $1 Rounding radius*
0 $2 $3 $4 $5 $6 $7 $8 $9 X,Y pos of 4 corners*
0 Add a 4 corners polygon primitive as box body*
4,1,4,$2,$3,$4,$5,$6,$7,$8,$9,$2,$3,0*
0 Add four circle primitives for the rounded corners*
1,1,$1+$1,$2,$3*
1,1,$1+$1,$4,$5*
1,1,$1+$1,$6,$7*
1,1,$1+$1,$8,$9*
0 Add four rect primitives between the rounded corners*
20,1,$1+$1,$2,$3,$4,$5,0*
20,1,$1+$1,$4,$5,$6,$7,0*
20,1,$1+$1,$6,$7,$8,$9,0*
20,1,$1+$1,$8,$9,$2,$3,0*%
G04 Aperture macros list end*
%TA.AperFunction,ComponentPad*%
%ADD10C,1.600000*%
%TD*%
%TA.AperFunction,ComponentPad*%
%ADD11RoundRect,0.250000X-0.550000X-0.550000X0.550000X-0.550000X0.550000X0.550000X-0.550000X0.550000X0*%
%TD*%
%TA.AperFunction,ComponentPad*%
%ADD12C,1.200000*%
%TD*%
%TA.AperFunction,ComponentPad*%
%ADD13R,1.295400X1.295400*%
%TD*%
%TA.AperFunction,ComponentPad*%
%ADD14C,1.295400*%
%TD*%
%TA.AperFunction,ComponentPad*%
%ADD15R,1.800000X1.800000*%
%TD*%
%TA.AperFunction,ComponentPad*%
%ADD16C,1.800000*%
%TD*%
%TA.AperFunction,ComponentPad*%
%ADD17R,1.378000X1.378000*%
%TD*%
%TA.AperFunction,ComponentPad*%
%ADD18C,1.378000*%
%TD*%
%TA.AperFunction,ComponentPad*%
%ADD19C,2.000000*%
%TD*%
%TA.AperFunction,ComponentPad*%
%ADD20R,1.600000X1.600000*%
%TD*%
%TA.AperFunction,ComponentPad*%
%ADD21RoundRect,0.250000X0.550000X0.550000X-0.550000X0.550000X-0.550000X-0.550000X0.550000X-0.550000X0*%
%TD*%
%TA.AperFunction,ComponentPad*%
%ADD22R,1.676400X1.676400*%
%TD*%
%TA.AperFunction,ComponentPad*%
%ADD23C,1.676400*%
%TD*%
%TA.AperFunction,ComponentPad*%
%ADD24O,2.200000X3.500000*%
%TD*%
%TA.AperFunction,ComponentPad*%
%ADD25R,1.500000X2.500000*%
%TD*%
%TA.AperFunction,ComponentPad*%
%ADD26O,1.500000X2.500000*%
%TD*%
%TA.AperFunction,HeatsinkPad*%
%ADD27O,1.700000X1.000000*%
%TD*%
%TA.AperFunction,ComponentPad*%
%ADD28O,3.240000X2.720000*%
%TD*%
%TA.AperFunction,ComponentPad*%
%ADD29RoundRect,0.250000X0.550000X-0.550000X0.550000X0.550000X-0.550000X0.550000X-0.550000X-0.550000X0*%
%TD*%
%TA.AperFunction,ComponentPad*%
%ADD30RoundRect,0.250000X-0.550000X0.550000X-0.550000X-0.550000X0.550000X-0.550000X0.550000X0.550000X0*%
%TD*%
%TA.AperFunction,ComponentPad*%
%ADD31O,3.500000X2.200000*%
%TD*%
%TA.AperFunction,ComponentPad*%
%ADD32R,2.500000X1.500000*%
%TD*%
%TA.AperFunction,ComponentPad*%
%ADD33O,2.500000X1.500000*%
%TD*%
%TA.AperFunction,ViaPad*%
%ADD34C,0.600000*%
%TD*%
%TA.AperFunction,Conductor*%
%ADD35C,0.200000*%
%TD*%
G04 APERTURE END LIST*
D10*
%TO.N,Net-(D16-K)*%
%TO.C,R14*%
X266917100Y-109792300D03*
%TO.N,GND*%
X266917100Y-117412300D03*
%TD*%
D11*
%TO.N,Net-(U3-Q)*%
%TO.C,U5*%
X253130000Y-125790000D03*
D10*
%TO.N,Net-(U4-Pad4)*%
X253130000Y-128330000D03*
%TO.N,Net-(U52-Zb)*%
X253130000Y-130870000D03*
%TO.N,Net-(U21-D1)*%
X253130000Y-133410000D03*
%TO.N,Net-(U52-Zc)*%
X253130000Y-135950000D03*
%TO.N,Net-(U21-D2)*%
X253130000Y-138490000D03*
%TO.N,GND*%
X253130000Y-141030000D03*
%TO.N,Net-(U4-Pad10)*%
X260750000Y-141030000D03*
%TO.N,HLT*%
X260750000Y-138490000D03*
%TO.N,Net-(U23-D1)*%
X260750000Y-135950000D03*
%TO.N,Net-(U24-Zc)*%
X260750000Y-133410000D03*
%TO.N,~{CLK}*%
X260750000Y-130870000D03*
%TO.N,CLK*%
X260750000Y-128330000D03*
%TO.N,VCC*%
X260750000Y-125790000D03*
%TD*%
D12*
%TO.N,VCC*%
%TO.C,C8*%
X333040000Y-86300000D03*
%TO.N,GND*%
X333040000Y-88300000D03*
%TD*%
D10*
%TO.N,GND*%
%TO.C,C3*%
X275567100Y-149662300D03*
%TO.N,Net-(U2-DIS)*%
X278067100Y-149662300D03*
%TD*%
%TO.N,Net-(D025-K)*%
%TO.C,R94*%
X319460000Y-72670000D03*
%TO.N,GND*%
X319460000Y-65050000D03*
%TD*%
D11*
%TO.N,/MAR/PROG*%
%TO.C,U52*%
X205977100Y-125657300D03*
D10*
%TO.N,Net-(U52-I0a)*%
X205977100Y-128197300D03*
%TO.N,BUS_7*%
X205977100Y-130737300D03*
%TO.N,Net-(U52-Za)*%
X205977100Y-133277300D03*
%TO.N,Net-(U52-I0b)*%
X205977100Y-135817300D03*
%TO.N,BUS_6*%
X205977100Y-138357300D03*
%TO.N,Net-(U52-Zb)*%
X205977100Y-140897300D03*
%TO.N,GND*%
X205977100Y-143437300D03*
%TO.N,Net-(U52-Zd)*%
X213597100Y-143437300D03*
%TO.N,BUS_4*%
X213597100Y-140897300D03*
%TO.N,Net-(U52-I0d)*%
X213597100Y-138357300D03*
%TO.N,Net-(U52-Zc)*%
X213597100Y-135817300D03*
%TO.N,BUS_5*%
X213597100Y-133277300D03*
%TO.N,Net-(U52-I0c)*%
X213597100Y-130737300D03*
%TO.N,GND*%
X213597100Y-128197300D03*
%TO.N,VCC*%
X213597100Y-125657300D03*
%TD*%
%TO.N,Net-(D112-K)*%
%TO.C,R83*%
X157500000Y-34920000D03*
%TO.N,GND*%
X157500000Y-27300000D03*
%TD*%
%TO.N,Net-(D116-K)*%
%TO.C,R87*%
X177500000Y-34920000D03*
%TO.N,GND*%
X177500000Y-27300000D03*
%TD*%
D13*
%TO.N,GND*%
%TO.C,U8*%
X310870000Y-93930000D03*
D14*
X308330000Y-93930000D03*
%TO.N,/ALU/B_7*%
X305790000Y-93930000D03*
%TO.N,/ALU/B_6*%
X303250000Y-93930000D03*
%TO.N,/ALU/B_5*%
X300710000Y-93930000D03*
%TO.N,/ALU/B_4*%
X298170000Y-93930000D03*
%TO.N,CLK*%
X295630000Y-93930000D03*
%TO.N,GND*%
X293090000Y-93930000D03*
%TO.N,~{BI}*%
X293090000Y-101550000D03*
X295630000Y-101550000D03*
%TO.N,BUS_4*%
X298170000Y-101550000D03*
%TO.N,BUS_5*%
X300710000Y-101550000D03*
%TO.N,BUS_6*%
X303250000Y-101550000D03*
%TO.N,BUS_7*%
X305790000Y-101550000D03*
%TO.N,CLR*%
X308330000Y-101550000D03*
%TO.N,VCC*%
X310870000Y-101550000D03*
%TD*%
D11*
%TO.N,Net-(U51-Zc)*%
%TO.C,U20*%
X227527100Y-125667300D03*
D10*
%TO.N,Net-(U21-\u002AWE)*%
X227527100Y-128207300D03*
%TO.N,Net-(U24-Zb)*%
X227527100Y-130747300D03*
%TO.N,Net-(U23-D3)*%
X227527100Y-133287300D03*
%TO.N,Net-(U24-Za)*%
X227527100Y-135827300D03*
%TO.N,Net-(U23-D2)*%
X227527100Y-138367300D03*
%TO.N,GND*%
X227527100Y-140907300D03*
%TO.N,Net-(U21-D3)*%
X235147100Y-140907300D03*
%TO.N,Net-(U52-Zd)*%
X235147100Y-138367300D03*
%TO.N,N/C*%
X235147100Y-135827300D03*
X235147100Y-133287300D03*
%TO.N,Net-(U23-D0)*%
X235147100Y-130747300D03*
%TO.N,Net-(U24-Zd)*%
X235147100Y-128207300D03*
%TO.N,VCC*%
X235147100Y-125667300D03*
%TD*%
D13*
%TO.N,Net-(U41-~{MR})*%
%TO.C,U41*%
X84032100Y-51252300D03*
D14*
%TO.N,~{CLK}*%
X84032100Y-48712300D03*
%TO.N,unconnected-(U41-D0-Pad3)*%
X84032100Y-46172300D03*
%TO.N,unconnected-(U41-D1-Pad4)*%
X84032100Y-43632300D03*
%TO.N,unconnected-(U41-D2-Pad5)*%
X84032100Y-41092300D03*
%TO.N,unconnected-(U41-D3-Pad6)*%
X84032100Y-38552300D03*
%TO.N,VCC*%
X84032100Y-36012300D03*
%TO.N,GND*%
X84032100Y-33472300D03*
%TO.N,VCC*%
X76412100Y-33472300D03*
X76412100Y-36012300D03*
%TO.N,unconnected-(U41-Q3-Pad11)*%
X76412100Y-38552300D03*
%TO.N,Net-(D61-A)*%
X76412100Y-41092300D03*
%TO.N,Net-(D60-A)*%
X76412100Y-43632300D03*
%TO.N,Net-(D59-A)*%
X76412100Y-46172300D03*
%TO.N,unconnected-(U41-TC-Pad15)*%
X76412100Y-48712300D03*
%TO.N,VCC*%
X76412100Y-51252300D03*
%TD*%
D12*
%TO.N,VCC*%
%TO.C,C11*%
X249000000Y-42420000D03*
%TO.N,GND*%
X251000000Y-42420000D03*
%TD*%
D15*
%TO.N,Net-(D31-K)*%
%TO.C,D31*%
X205080000Y-161420000D03*
D16*
%TO.N,Net-(D31-A)*%
X207620000Y-161420000D03*
%TD*%
D15*
%TO.N,Net-(D116-K)*%
%TO.C,D116*%
X177460000Y-39920000D03*
D16*
%TO.N,Net-(D116-A)*%
X180000000Y-39920000D03*
%TD*%
D10*
%TO.N,Net-(C14-Pad2)*%
%TO.C,R32*%
X202817100Y-99912300D03*
%TO.N,GND*%
X195197100Y-99912300D03*
%TD*%
D11*
%TO.N,Net-(U4-Pad3)*%
%TO.C,U6*%
X312620000Y-141580000D03*
D10*
%TO.N,Net-(U4-Pad6)*%
X312620000Y-144120000D03*
%TO.N,Net-(U4-Pad9)*%
X312620000Y-146660000D03*
%TO.N,unconnected-(U6-Pad4)*%
X312620000Y-149200000D03*
%TO.N,unconnected-(U6-Pad5)*%
X312620000Y-151740000D03*
%TO.N,unconnected-(U6-Pad6)*%
X312620000Y-154280000D03*
%TO.N,GND*%
X312620000Y-156820000D03*
%TO.N,unconnected-(U6-Pad8)*%
X320240000Y-156820000D03*
%TO.N,unconnected-(U6-Pad9)*%
X320240000Y-154280000D03*
%TO.N,unconnected-(U6-Pad10)*%
X320240000Y-151740000D03*
%TO.N,unconnected-(U6-Pad11)*%
X320240000Y-149200000D03*
%TO.N,unconnected-(U6-Pad12)*%
X320240000Y-146660000D03*
%TO.N,unconnected-(U6-Pad13)*%
X320240000Y-144120000D03*
%TO.N,VCC*%
X320240000Y-141580000D03*
%TD*%
D15*
%TO.N,Net-(D57-K)*%
%TO.C,D57*%
X108902100Y-103552300D03*
D16*
%TO.N,Net-(D57-A)*%
X111442100Y-103552300D03*
%TD*%
D15*
%TO.N,Net-(D53-K)*%
%TO.C,D53*%
X117787100Y-122412300D03*
D16*
%TO.N,Net-(D53-A)*%
X120327100Y-122412300D03*
%TD*%
D10*
%TO.N,Net-(D17-K)*%
%TO.C,R15*%
X271717100Y-109602300D03*
%TO.N,GND*%
X271717100Y-117222300D03*
%TD*%
%TO.N,Net-(D15-K)*%
%TO.C,R13*%
X262167100Y-109542300D03*
%TO.N,GND*%
X262167100Y-117162300D03*
%TD*%
D15*
%TO.N,Net-(D112-K)*%
%TO.C,D112*%
X157500000Y-39920000D03*
D16*
%TO.N,IR_7*%
X160040000Y-39920000D03*
%TD*%
D10*
%TO.N,GND*%
%TO.C,R16*%
X276917100Y-117352300D03*
%TO.N,Net-(D18-K)*%
X276917100Y-109732300D03*
%TD*%
D15*
%TO.N,Net-(D14-K)*%
%TO.C,D14*%
X259460000Y-53920000D03*
D16*
%TO.N,CF*%
X262000000Y-53920000D03*
%TD*%
D10*
%TO.N,VCC*%
%TO.C,R3*%
X275507100Y-139162300D03*
%TO.N,Net-(U2-TR)*%
X283127100Y-139162300D03*
%TD*%
%TO.N,Net-(D62-K)*%
%TO.C,R65*%
X53667700Y-106657100D03*
%TO.N,GND*%
X46047700Y-106657100D03*
%TD*%
%TO.N,Net-(D20-K)*%
%TO.C,R20*%
X222197100Y-47272300D03*
%TO.N,GND*%
X222197100Y-54892300D03*
%TD*%
D15*
%TO.N,Net-(D69-K)*%
%TO.C,D69*%
X58500000Y-71650000D03*
D16*
%TO.N,BUS_7*%
X58500000Y-69110000D03*
%TD*%
D15*
%TO.N,Net-(D13-K)*%
%TO.C,D13*%
X257242100Y-103852300D03*
D16*
%TO.N,Net-(D13-A)*%
X259782100Y-103852300D03*
%TD*%
D10*
%TO.N,Net-(D028-K)*%
%TO.C,R97*%
X304460000Y-72670000D03*
%TO.N,GND*%
X304460000Y-65050000D03*
%TD*%
D17*
%TO.N,N/C*%
%TO.C,U43*%
X89442550Y-32020000D03*
D18*
%TO.N,GND*%
X89442550Y-34560000D03*
X89442550Y-37100000D03*
%TO.N,IR_7*%
X89442550Y-39640000D03*
%TO.N,IR_6*%
X89442550Y-42180000D03*
%TO.N,IR_5*%
X89442550Y-44720000D03*
%TO.N,IR_4*%
X89442550Y-47260000D03*
%TO.N,Net-(D61-A)*%
X89442550Y-49800000D03*
%TO.N,Net-(D60-A)*%
X89442550Y-52340000D03*
%TO.N,Net-(D59-A)*%
X89442550Y-54880000D03*
%TO.N,Net-(D45-A)*%
X89442550Y-57420000D03*
%TO.N,Net-(D44-A)*%
X89442550Y-59960000D03*
%TO.N,Net-(D43-A)*%
X89442550Y-62500000D03*
%TO.N,GND*%
X89442550Y-65040000D03*
%TO.N,Net-(D42-A)*%
X105000050Y-65040000D03*
%TO.N,Net-(D41-A)*%
X105000050Y-62500000D03*
%TO.N,RI*%
X105000050Y-59960000D03*
%TO.N,Net-(D39-A)*%
X105000050Y-57420000D03*
%TO.N,HLT*%
X105000050Y-54880000D03*
%TO.N,GND*%
X105000050Y-52340000D03*
X105000050Y-49800000D03*
X105000050Y-47260000D03*
X105000050Y-44720000D03*
%TO.N,ZF*%
X105000050Y-42180000D03*
%TO.N,CF*%
X105000050Y-39640000D03*
%TO.N,N/C*%
X105000050Y-37100000D03*
%TO.N,VCC*%
X105000050Y-34560000D03*
X105000050Y-32020000D03*
%TD*%
D15*
%TO.N,Net-(D17-K)*%
%TO.C,D17*%
X271842100Y-103852300D03*
D16*
%TO.N,Net-(D17-A)*%
X274382100Y-103852300D03*
%TD*%
D15*
%TO.N,Net-(D59-K)*%
%TO.C,D59*%
X102902100Y-86552300D03*
D16*
%TO.N,Net-(D59-A)*%
X105442100Y-86552300D03*
%TD*%
D15*
%TO.N,Net-(D115-K)*%
%TO.C,D115*%
X172460000Y-39920000D03*
D16*
%TO.N,IR_4*%
X175000000Y-39920000D03*
%TD*%
D19*
%TO.N,GND*%
%TO.C,SW6*%
X248817100Y-149927300D03*
X242317100Y-149927300D03*
%TO.N,Net-(U51-I0c)*%
X248817100Y-145427300D03*
X242317100Y-145427300D03*
%TD*%
D15*
%TO.N,Net-(D30-K)*%
%TO.C,D30*%
X200120000Y-161420000D03*
D16*
%TO.N,Net-(D30-A)*%
X202660000Y-161420000D03*
%TD*%
D11*
%TO.N,Net-(U31-Q)*%
%TO.C,U32*%
X130383900Y-134069100D03*
D10*
%TO.N,VCC*%
X130383900Y-136609100D03*
X130383900Y-139149100D03*
X130383900Y-141689100D03*
X130383900Y-144229100D03*
%TO.N,Net-(U32A-~{Q})*%
X130383900Y-146769100D03*
%TO.N,VCC*%
X130383900Y-149309100D03*
X130383900Y-151849100D03*
X138003900Y-151849100D03*
%TO.N,Net-(U32B-~{Q})*%
X138003900Y-149309100D03*
%TO.N,unconnected-(U32B-Q-Pad11)*%
X138003900Y-146769100D03*
%TO.N,VCC*%
X138003900Y-144229100D03*
%TO.N,GND*%
X138003900Y-141689100D03*
%TO.N,Net-(U32A-~{Q})*%
X138003900Y-139149100D03*
%TO.N,unconnected-(U32A-Q-Pad15)*%
X138003900Y-136609100D03*
%TO.N,VCC*%
X138003900Y-134069100D03*
%TD*%
D15*
%TO.N,Net-(D50-K)*%
%TO.C,D50*%
X102277100Y-122412300D03*
D16*
%TO.N,CE*%
X104817100Y-122412300D03*
%TD*%
D20*
%TO.N,Net-(U34-E)*%
%TO.C,U35*%
X81636400Y-145879100D03*
D10*
%TO.N,Net-(U34-D)*%
X84176400Y-145879100D03*
%TO.N,Net-(U33A-O0)*%
X86716400Y-145879100D03*
%TO.N,Net-(U34-C)*%
X89256400Y-145879100D03*
%TO.N,Net-(U34-DP)*%
X91796400Y-145879100D03*
%TO.N,Net-(U34-B)*%
X91796400Y-130639100D03*
%TO.N,Net-(U34-A)*%
X89256400Y-130639100D03*
%TO.N,Net-(U33A-O0)*%
X86716400Y-130639100D03*
%TO.N,Net-(U34-F)*%
X84176400Y-130639100D03*
%TO.N,Net-(U34-G)*%
X81636400Y-130639100D03*
%TD*%
D15*
%TO.N,Net-(D11-K)*%
%TO.C,D11*%
X247477100Y-103852300D03*
D16*
%TO.N,Net-(D11-A)*%
X250017100Y-103852300D03*
%TD*%
D15*
%TO.N,Net-(D25-K)*%
%TO.C,D25*%
X248710000Y-23500000D03*
D16*
%TO.N,Net-(D25-A)*%
X251250000Y-23500000D03*
%TD*%
D10*
%TO.N,Net-(D57-A)*%
%TO.C,R57*%
X111412100Y-98552300D03*
%TO.N,VCC*%
X111412100Y-90932300D03*
%TD*%
D11*
%TO.N,GND*%
%TO.C,U33*%
X141163900Y-134069100D03*
D10*
%TO.N,Net-(U32A-~{Q})*%
X141163900Y-136609100D03*
%TO.N,Net-(U32B-~{Q})*%
X141163900Y-139149100D03*
%TO.N,Net-(U33A-O0)*%
X141163900Y-141689100D03*
%TO.N,Net-(U33A-O1)*%
X141163900Y-144229100D03*
%TO.N,Net-(U33A-O2)*%
X141163900Y-146769100D03*
%TO.N,Net-(U33A-O3)*%
X141163900Y-149309100D03*
%TO.N,GND*%
X141163900Y-151849100D03*
%TO.N,N/C*%
X148783900Y-151849100D03*
X148783900Y-149309100D03*
X148783900Y-146769100D03*
X148783900Y-144229100D03*
X148783900Y-141689100D03*
X148783900Y-139149100D03*
X148783900Y-136609100D03*
%TO.N,VCC*%
X148783900Y-134069100D03*
%TD*%
D15*
%TO.N,Net-(D38-K)*%
%TO.C,D38*%
X42227100Y-122412300D03*
D16*
%TO.N,HLT*%
X44767100Y-122412300D03*
%TD*%
D10*
%TO.N,Net-(D69-K)*%
%TO.C,R72*%
X53667700Y-71657100D03*
%TO.N,GND*%
X46047700Y-71657100D03*
%TD*%
D12*
%TO.N,VCC*%
%TO.C,C18*%
X148666400Y-120379100D03*
%TO.N,GND*%
X146666400Y-120379100D03*
%TD*%
D15*
%TO.N,Net-(D42-K)*%
%TO.C,D42*%
X62227100Y-122412300D03*
D16*
%TO.N,Net-(D42-A)*%
X64767100Y-122412300D03*
%TD*%
D15*
%TO.N,Net-(D8-K)*%
%TO.C,D8*%
X231587100Y-81162300D03*
D16*
%TO.N,/ALU/A_1*%
X229047100Y-81162300D03*
%TD*%
D10*
%TO.N,Net-(D50-K)*%
%TO.C,R52*%
X102317100Y-117412300D03*
%TO.N,GND*%
X102317100Y-109792300D03*
%TD*%
%TO.N,Net-(D118-K)*%
%TO.C,R89*%
X187500000Y-34790000D03*
%TO.N,GND*%
X187500000Y-27170000D03*
%TD*%
%TO.N,Net-(D33-K)*%
%TO.C,R31*%
X215120000Y-166300000D03*
%TO.N,GND*%
X215120000Y-173920000D03*
%TD*%
%TO.N,VCC*%
%TO.C,R5*%
X292567100Y-157472300D03*
%TO.N,Net-(SW2-A)*%
X292567100Y-149852300D03*
%TD*%
D15*
%TO.N,Net-(D022-K)*%
%TO.C,D022*%
X334460000Y-78920000D03*
D16*
%TO.N,/ALU/B_7*%
X337000000Y-78920000D03*
%TD*%
D10*
%TO.N,Net-(D119-K)*%
%TO.C,R90*%
X192500000Y-34920000D03*
%TO.N,GND*%
X192500000Y-27300000D03*
%TD*%
D12*
%TO.N,VCC*%
%TO.C,C10*%
X255993900Y-82749100D03*
%TO.N,GND*%
X257993900Y-82749100D03*
%TD*%
%TO.N,Net-(U1-THR)*%
%TO.C,C7*%
X317605000Y-107040000D03*
%TO.N,GND*%
X315605000Y-107040000D03*
%TD*%
D15*
%TO.N,Net-(D54-K)*%
%TO.C,D54*%
X90872100Y-103552300D03*
D16*
%TO.N,Net-(D54-A)*%
X93412100Y-103552300D03*
%TD*%
D10*
%TO.N,BUS_6*%
%TO.C,R74*%
X63325000Y-92640000D03*
%TO.N,GND*%
X70945000Y-92640000D03*
%TD*%
D15*
%TO.N,Net-(D44-K)*%
%TO.C,D44*%
X72277100Y-122412300D03*
D16*
%TO.N,Net-(D44-A)*%
X74817100Y-122412300D03*
%TD*%
D15*
%TO.N,Net-(D48-K)*%
%TO.C,D48*%
X92277100Y-122412300D03*
D16*
%TO.N,Net-(D48-A)*%
X94817100Y-122412300D03*
%TD*%
D21*
%TO.N,Net-(U24-I0d)*%
%TO.C,SW5*%
X176817100Y-143412300D03*
D10*
%TO.N,Net-(U24-I0c)*%
X176817100Y-140872300D03*
%TO.N,GND*%
X176817100Y-138332300D03*
X176817100Y-135792300D03*
%TO.N,Net-(U52-I0d)*%
X176817100Y-133252300D03*
%TO.N,Net-(U52-I0c)*%
X176817100Y-130712300D03*
%TO.N,GND*%
X176817100Y-128172300D03*
X176817100Y-125632300D03*
%TO.N,Net-(U52-I0a)*%
X169197100Y-125632300D03*
%TO.N,Net-(U52-I0b)*%
X169197100Y-128172300D03*
%TO.N,GND*%
X169197100Y-130712300D03*
X169197100Y-133252300D03*
%TO.N,Net-(U24-I0a)*%
X169197100Y-135792300D03*
%TO.N,Net-(U24-I0b)*%
X169197100Y-138332300D03*
%TO.N,GND*%
X169197100Y-140872300D03*
X169197100Y-143412300D03*
%TD*%
D22*
%TO.N,GND*%
%TO.C,U29*%
X143430000Y-66740000D03*
D23*
%TO.N,unconnected-(U29-A0-Pad2)*%
X143430000Y-69280000D03*
%TO.N,unconnected-(U29-A1-Pad3)*%
X143430000Y-71820000D03*
%TO.N,unconnected-(U29-A2-Pad4)*%
X143430000Y-74360000D03*
%TO.N,unconnected-(U29-A3-Pad5)*%
X143430000Y-76900000D03*
%TO.N,BUS_3*%
X143430000Y-79440000D03*
%TO.N,BUS_2*%
X143430000Y-81980000D03*
%TO.N,BUS_1*%
X143430000Y-84520000D03*
%TO.N,BUS_0*%
X143430000Y-87060000D03*
%TO.N,GND*%
X143430000Y-89600000D03*
%TO.N,Net-(D37-A)*%
X151050000Y-89600000D03*
%TO.N,Net-(D36-A)*%
X151050000Y-87060000D03*
%TO.N,Net-(D35-A)*%
X151050000Y-84520000D03*
%TO.N,Net-(D34-A)*%
X151050000Y-81980000D03*
%TO.N,unconnected-(U29-B3-Pad15)*%
X151050000Y-79440000D03*
%TO.N,unconnected-(U29-B2-Pad16)*%
X151050000Y-76900000D03*
%TO.N,unconnected-(U29-B1-Pad17)*%
X151050000Y-74360000D03*
%TO.N,unconnected-(U29-B0-Pad18)*%
X151050000Y-71820000D03*
%TO.N,~{CO}*%
X151050000Y-69280000D03*
%TO.N,VCC*%
X151050000Y-66740000D03*
%TD*%
D10*
%TO.N,Net-(SW7-A)*%
%TO.C,R39*%
X109356400Y-150879100D03*
%TO.N,GND*%
X116976400Y-150879100D03*
%TD*%
D15*
%TO.N,Net-(D10-K)*%
%TO.C,D10*%
X259460000Y-58420000D03*
D16*
%TO.N,ZF*%
X262000000Y-58420000D03*
%TD*%
D15*
%TO.N,Net-(D028-K)*%
%TO.C,D028*%
X304440000Y-78920000D03*
D16*
%TO.N,/ALU/B_1*%
X306980000Y-78920000D03*
%TD*%
D10*
%TO.N,Net-(D42-K)*%
%TO.C,R44*%
X62317100Y-117412300D03*
%TO.N,GND*%
X62317100Y-109792300D03*
%TD*%
D15*
%TO.N,Net-(D20-K)*%
%TO.C,D20*%
X222397100Y-42332300D03*
D16*
%TO.N,/MAR/A3*%
X224937100Y-42332300D03*
%TD*%
D21*
%TO.N,Net-(U52-Za)*%
%TO.C,U22*%
X202437100Y-142152300D03*
D10*
%TO.N,Net-(U21-D0)*%
X202437100Y-139612300D03*
%TO.N,unconnected-(U22-Pad3)*%
X202437100Y-137072300D03*
%TO.N,unconnected-(U22-Pad4)*%
X202437100Y-134532300D03*
%TO.N,unconnected-(U22-Pad5)*%
X202437100Y-131992300D03*
%TO.N,unconnected-(U22-Pad6)*%
X202437100Y-129452300D03*
%TO.N,GND*%
X202437100Y-126912300D03*
%TO.N,unconnected-(U22-Pad8)*%
X194817100Y-126912300D03*
%TO.N,unconnected-(U22-Pad9)*%
X194817100Y-129452300D03*
%TO.N,unconnected-(U22-Pad10)*%
X194817100Y-131992300D03*
%TO.N,unconnected-(U22-Pad11)*%
X194817100Y-134532300D03*
%TO.N,unconnected-(U22-Pad12)*%
X194817100Y-137072300D03*
%TO.N,unconnected-(U22-Pad13)*%
X194817100Y-139612300D03*
%TO.N,VCC*%
X194817100Y-142152300D03*
%TD*%
%TO.N,Net-(D66-K)*%
%TO.C,R69*%
X53667700Y-86157100D03*
%TO.N,GND*%
X46047700Y-86157100D03*
%TD*%
%TO.N,Net-(D26-K)*%
%TO.C,R24*%
X180120000Y-166300000D03*
%TO.N,GND*%
X180120000Y-173920000D03*
%TD*%
%TO.N,VCC*%
%TO.C,R6*%
X296317100Y-147222300D03*
%TO.N,Net-(SW2-C)*%
X296317100Y-139602300D03*
%TD*%
D15*
%TO.N,Net-(D025-K)*%
%TO.C,D025*%
X319420000Y-78920000D03*
D16*
%TO.N,/ALU/B_4*%
X321960000Y-78920000D03*
%TD*%
D20*
%TO.N,Net-(U34-E)*%
%TO.C,U37*%
X109736400Y-145879100D03*
D10*
%TO.N,Net-(U34-D)*%
X112276400Y-145879100D03*
%TO.N,Net-(U33A-O1)*%
X114816400Y-145879100D03*
%TO.N,Net-(U34-C)*%
X117356400Y-145879100D03*
%TO.N,Net-(U34-DP)*%
X119896400Y-145879100D03*
%TO.N,Net-(U34-B)*%
X119896400Y-130639100D03*
%TO.N,Net-(U34-A)*%
X117356400Y-130639100D03*
%TO.N,Net-(U33A-O1)*%
X114816400Y-130639100D03*
%TO.N,Net-(U34-F)*%
X112276400Y-130639100D03*
%TO.N,Net-(U34-G)*%
X109736400Y-130639100D03*
%TD*%
D15*
%TO.N,Net-(D68-K)*%
%TO.C,D68*%
X58500000Y-76650000D03*
D16*
%TO.N,BUS_6*%
X58500000Y-74110000D03*
%TD*%
D10*
%TO.N,Net-(D19-K)*%
%TO.C,R17*%
X281917100Y-109602300D03*
%TO.N,GND*%
X281917100Y-117222300D03*
%TD*%
%TO.N,Net-(D68-K)*%
%TO.C,R71*%
X53667700Y-77157100D03*
%TO.N,GND*%
X46047700Y-77157100D03*
%TD*%
%TO.N,VCC*%
%TO.C,R19*%
X251250000Y-35750000D03*
%TO.N,Net-(D25-A)*%
X251250000Y-28130000D03*
%TD*%
D12*
%TO.N,Net-(U31-CV)*%
%TO.C,C17*%
X124166400Y-159879100D03*
%TO.N,GND*%
X122166400Y-159879100D03*
%TD*%
D15*
%TO.N,Net-(D114-K)*%
%TO.C,D114*%
X167480000Y-39920000D03*
D16*
%TO.N,IR_5*%
X170020000Y-39920000D03*
%TD*%
D12*
%TO.N,VCC*%
%TO.C,C13*%
X237977100Y-112097300D03*
%TO.N,GND*%
X239977100Y-112097300D03*
%TD*%
D10*
%TO.N,VCC*%
%TO.C,R37*%
X162666400Y-134689100D03*
%TO.N,Net-(U31-DIS)*%
X162666400Y-127069100D03*
%TD*%
%TO.N,GND*%
%TO.C,R33*%
X157990000Y-91790000D03*
%TO.N,Net-(D34-K)*%
X157990000Y-84170000D03*
%TD*%
%TO.N,Net-(D60-K)*%
%TO.C,R62*%
X108912100Y-81552300D03*
%TO.N,GND*%
X108912100Y-73932300D03*
%TD*%
D15*
%TO.N,Net-(D61-K)*%
%TO.C,D61*%
X114922100Y-86552300D03*
D16*
%TO.N,Net-(D61-A)*%
X117462100Y-86552300D03*
%TD*%
D15*
%TO.N,Net-(D21-K)*%
%TO.C,D21*%
X228407100Y-42332300D03*
D16*
%TO.N,/MAR/A2*%
X230947100Y-42332300D03*
%TD*%
D11*
%TO.N,Net-(D13-A)*%
%TO.C,U13*%
X276940000Y-45670000D03*
D10*
%TO.N,Net-(U13-B2)*%
X276940000Y-48210000D03*
%TO.N,/ALU/A_5*%
X276940000Y-50750000D03*
%TO.N,Net-(D15-A)*%
X276940000Y-53290000D03*
%TO.N,/ALU/A_4*%
X276940000Y-55830000D03*
%TO.N,Net-(U13-B1)*%
X276940000Y-58370000D03*
%TO.N,Net-(U13-C0)*%
X276940000Y-60910000D03*
%TO.N,GND*%
X276940000Y-63450000D03*
%TO.N,Net-(U12-D0)*%
X284560000Y-63450000D03*
%TO.N,Net-(D11-A)*%
X284560000Y-60910000D03*
%TO.N,Net-(U13-B4)*%
X284560000Y-58370000D03*
%TO.N,/ALU/A_7*%
X284560000Y-55830000D03*
%TO.N,Net-(D12-A)*%
X284560000Y-53290000D03*
%TO.N,/ALU/A_6*%
X284560000Y-50750000D03*
%TO.N,Net-(U13-B3)*%
X284560000Y-48210000D03*
%TO.N,VCC*%
X284560000Y-45670000D03*
%TD*%
%TO.N,Net-(D022-K)*%
%TO.C,R91*%
X334460000Y-72670000D03*
%TO.N,GND*%
X334460000Y-65050000D03*
%TD*%
%TO.N,Net-(D45-K)*%
%TO.C,R47*%
X77317100Y-117412300D03*
%TO.N,GND*%
X77317100Y-109792300D03*
%TD*%
%TO.N,Net-(J1-CC2)*%
%TO.C,R81*%
X30380000Y-112420000D03*
%TO.N,GND*%
X38000000Y-112420000D03*
%TD*%
D15*
%TO.N,Net-(D027-K)*%
%TO.C,D027*%
X309440000Y-78920000D03*
D16*
%TO.N,/ALU/B_2*%
X311980000Y-78920000D03*
%TD*%
D10*
%TO.N,Net-(D54-A)*%
%TO.C,R60*%
X93412100Y-98672300D03*
%TO.N,VCC*%
X93412100Y-91052300D03*
%TD*%
D11*
%TO.N,/MAR/PROG*%
%TO.C,U24*%
X184417100Y-125657300D03*
D10*
%TO.N,Net-(U24-I0a)*%
X184417100Y-128197300D03*
%TO.N,BUS_3*%
X184417100Y-130737300D03*
%TO.N,Net-(U24-Za)*%
X184417100Y-133277300D03*
%TO.N,Net-(U24-I0b)*%
X184417100Y-135817300D03*
%TO.N,BUS_2*%
X184417100Y-138357300D03*
%TO.N,Net-(U24-Zb)*%
X184417100Y-140897300D03*
%TO.N,GND*%
X184417100Y-143437300D03*
%TO.N,Net-(U24-Zd)*%
X192037100Y-143437300D03*
%TO.N,BUS_0*%
X192037100Y-140897300D03*
%TO.N,Net-(U24-I0d)*%
X192037100Y-138357300D03*
%TO.N,Net-(U24-Zc)*%
X192037100Y-135817300D03*
%TO.N,BUS_1*%
X192037100Y-133277300D03*
%TO.N,Net-(U24-I0c)*%
X192037100Y-130737300D03*
%TO.N,GND*%
X192037100Y-128197300D03*
%TO.N,VCC*%
X192037100Y-125657300D03*
%TD*%
D15*
%TO.N,Net-(D27-K)*%
%TO.C,D27*%
X185130000Y-161420000D03*
D16*
%TO.N,Net-(D27-A)*%
X187670000Y-161420000D03*
%TD*%
D10*
%TO.N,VCC*%
%TO.C,R1*%
X293007100Y-127412300D03*
%TO.N,Net-(U1-DIS)*%
X300627100Y-127412300D03*
%TD*%
%TO.N,VCC*%
%TO.C,R4*%
X282067100Y-157532300D03*
%TO.N,Net-(U2-DIS)*%
X282067100Y-149912300D03*
%TD*%
D15*
%TO.N,Net-(D29-K)*%
%TO.C,D29*%
X195120000Y-161420000D03*
D16*
%TO.N,Net-(D29-A)*%
X197660000Y-161420000D03*
%TD*%
D10*
%TO.N,Net-(D67-K)*%
%TO.C,R70*%
X53667700Y-81657100D03*
%TO.N,GND*%
X46047700Y-81657100D03*
%TD*%
D15*
%TO.N,Net-(D22-K)*%
%TO.C,D22*%
X234417100Y-42332300D03*
D16*
%TO.N,/MAR/A1*%
X236957100Y-42332300D03*
%TD*%
D10*
%TO.N,GND*%
%TO.C,R35*%
X170240000Y-91790000D03*
%TO.N,Net-(D36-K)*%
X170240000Y-84170000D03*
%TD*%
D15*
%TO.N,Net-(D56-K)*%
%TO.C,D56*%
X102892100Y-103552300D03*
D16*
%TO.N,Net-(D56-A)*%
X105432100Y-103552300D03*
%TD*%
D13*
%TO.N,~{CLR}*%
%TO.C,U30*%
X176740000Y-66300000D03*
D14*
%TO.N,CLK*%
X174200000Y-66300000D03*
%TO.N,BUS_0*%
X171660000Y-66300000D03*
%TO.N,BUS_1*%
X169120000Y-66300000D03*
%TO.N,BUS_2*%
X166580000Y-66300000D03*
%TO.N,BUS_3*%
X164040000Y-66300000D03*
%TO.N,CE*%
X161500000Y-66300000D03*
%TO.N,GND*%
X158960000Y-66300000D03*
%TO.N,~{J}*%
X158960000Y-73920000D03*
%TO.N,CE*%
X161500000Y-73920000D03*
%TO.N,Net-(D34-A)*%
X164040000Y-73920000D03*
%TO.N,Net-(D35-A)*%
X166580000Y-73920000D03*
%TO.N,Net-(D36-A)*%
X169120000Y-73920000D03*
%TO.N,Net-(D37-A)*%
X171660000Y-73920000D03*
%TO.N,unconnected-(U30-TC-Pad15)*%
X174200000Y-73920000D03*
%TO.N,VCC*%
X176740000Y-73920000D03*
%TD*%
D15*
%TO.N,Net-(D41-K)*%
%TO.C,D41*%
X57227100Y-122412300D03*
D16*
%TO.N,Net-(D41-A)*%
X59767100Y-122412300D03*
%TD*%
D15*
%TO.N,Net-(D46-K)*%
%TO.C,D46*%
X82277100Y-122412300D03*
D16*
%TO.N,Net-(D46-A)*%
X84817100Y-122412300D03*
%TD*%
D10*
%TO.N,GND*%
%TO.C,R36*%
X175990000Y-91790000D03*
%TO.N,Net-(D37-K)*%
X175990000Y-84170000D03*
%TD*%
%TO.N,Net-(D53-K)*%
%TO.C,R55*%
X117817100Y-117412300D03*
%TO.N,GND*%
X117817100Y-109792300D03*
%TD*%
D13*
%TO.N,GND*%
%TO.C,U19*%
X269000000Y-23180000D03*
D14*
X269000000Y-25720000D03*
%TO.N,/MAR/PROG*%
X269000000Y-28260000D03*
X269000000Y-30800000D03*
X269000000Y-33340000D03*
X269000000Y-35880000D03*
%TO.N,CLK*%
X269000000Y-38420000D03*
%TO.N,GND*%
X269000000Y-40960000D03*
%TO.N,~{MI}*%
X276620000Y-40960000D03*
X276620000Y-38420000D03*
%TO.N,BUS_0*%
X276620000Y-35880000D03*
%TO.N,BUS_1*%
X276620000Y-33340000D03*
%TO.N,BUS_2*%
X276620000Y-30800000D03*
%TO.N,BUS_3*%
X276620000Y-28260000D03*
%TO.N,CLR*%
X276620000Y-25720000D03*
%TO.N,VCC*%
X276620000Y-23180000D03*
%TD*%
D12*
%TO.N,VCC*%
%TO.C,C118*%
X199817100Y-54712300D03*
%TO.N,GND*%
X201817100Y-54712300D03*
%TD*%
D11*
%TO.N,Net-(U10-Pad1)*%
%TO.C,U10*%
X298500000Y-45680000D03*
D10*
%TO.N,Net-(U10-Pad2)*%
X298500000Y-48220000D03*
%TO.N,Net-(U10-Pad3)*%
X298500000Y-50760000D03*
%TO.N,Net-(U10-Pad4)*%
X298500000Y-53300000D03*
%TO.N,Net-(U10-Pad3)*%
X298500000Y-55840000D03*
%TO.N,Net-(U12-D1)*%
X298500000Y-58380000D03*
%TO.N,GND*%
X298500000Y-60920000D03*
%TO.N,Net-(U10-Pad4)*%
X306120000Y-60920000D03*
%TO.N,Net-(U10-Pad9)*%
X306120000Y-58380000D03*
%TO.N,Net-(U10-Pad10)*%
X306120000Y-55840000D03*
%TO.N,unconnected-(U10-Pad11)*%
X306120000Y-53300000D03*
%TO.N,unconnected-(U10-Pad12)*%
X306120000Y-50760000D03*
%TO.N,unconnected-(U10-Pad13)*%
X306120000Y-48220000D03*
%TO.N,VCC*%
X306120000Y-45680000D03*
%TD*%
D24*
%TO.N,*%
%TO.C,SW7*%
X109166400Y-158879100D03*
X117366400Y-158879100D03*
D25*
%TO.N,Net-(SW7-A)*%
X111266400Y-158879100D03*
D26*
%TO.N,Net-(SW7-B)*%
X113266400Y-158879100D03*
%TO.N,VCC*%
X115266400Y-158879100D03*
%TD*%
D10*
%TO.N,Net-(D117-K)*%
%TO.C,R88*%
X182500000Y-34920000D03*
%TO.N,GND*%
X182500000Y-27300000D03*
%TD*%
D13*
%TO.N,Net-(U10-Pad2)*%
%TO.C,U11*%
X266848400Y-70180000D03*
D14*
%TO.N,Net-(D11-A)*%
X266848400Y-72720000D03*
%TO.N,Net-(D12-A)*%
X266848400Y-75260000D03*
%TO.N,Net-(U10-Pad1)*%
X266848400Y-77800000D03*
%TO.N,Net-(D13-A)*%
X266848400Y-80340000D03*
%TO.N,Net-(D15-A)*%
X266848400Y-82880000D03*
%TO.N,GND*%
X266848400Y-85420000D03*
%TO.N,Net-(D16-A)*%
X274468400Y-85420000D03*
%TO.N,Net-(D17-A)*%
X274468400Y-82880000D03*
%TO.N,Net-(U10-Pad10)*%
X274468400Y-80340000D03*
%TO.N,Net-(D18-A)*%
X274468400Y-77800000D03*
%TO.N,Net-(D19-A)*%
X274468400Y-75260000D03*
%TO.N,Net-(U10-Pad9)*%
X274468400Y-72720000D03*
%TO.N,VCC*%
X274468400Y-70180000D03*
%TD*%
D19*
%TO.N,GND*%
%TO.C,SW1*%
X283067100Y-131162300D03*
X289567100Y-131162300D03*
%TO.N,Net-(U2-TR)*%
X283067100Y-135662300D03*
X289567100Y-135662300D03*
%TD*%
D15*
%TO.N,Net-(D28-K)*%
%TO.C,D28*%
X190120000Y-161420000D03*
D16*
%TO.N,Net-(D28-A)*%
X192660000Y-161420000D03*
%TD*%
D10*
%TO.N,Net-(D56-A)*%
%TO.C,R58*%
X105412100Y-98862300D03*
%TO.N,VCC*%
X105412100Y-91242300D03*
%TD*%
%TO.N,Net-(D55-A)*%
%TO.C,R59*%
X99912100Y-98672300D03*
%TO.N,VCC*%
X99912100Y-91052300D03*
%TD*%
%TO.N,Net-(U1-DIS)*%
%TO.C,R2*%
X309545000Y-111540000D03*
%TO.N,Net-(R2-Pad2)*%
X317165000Y-111540000D03*
%TD*%
D15*
%TO.N,Net-(D40-K)*%
%TO.C,D40*%
X52227100Y-122412300D03*
D16*
%TO.N,RI*%
X54767100Y-122412300D03*
%TD*%
D10*
%TO.N,GND*%
%TO.C,C4*%
X293317100Y-134162300D03*
%TO.N,Net-(U3-CV)*%
X293317100Y-136662300D03*
%TD*%
%TO.N,Net-(D024-K)*%
%TO.C,R93*%
X324210000Y-72730000D03*
%TO.N,GND*%
X324210000Y-65110000D03*
%TD*%
D15*
%TO.N,Net-(D2-K)*%
%TO.C,D2*%
X201507100Y-81162300D03*
D16*
%TO.N,/ALU/A_7*%
X198967100Y-81162300D03*
%TD*%
D10*
%TO.N,Net-(D115-K)*%
%TO.C,R86*%
X172500000Y-34920000D03*
%TO.N,GND*%
X172500000Y-27300000D03*
%TD*%
D15*
%TO.N,Net-(D47-K)*%
%TO.C,D47*%
X87277100Y-122412300D03*
D16*
%TO.N,SU*%
X89817100Y-122412300D03*
%TD*%
D20*
%TO.N,Net-(U34-E)*%
%TO.C,U34*%
X67586400Y-145879100D03*
D10*
%TO.N,Net-(U34-D)*%
X70126400Y-145879100D03*
%TO.N,Net-(U33A-O3)*%
X72666400Y-145879100D03*
%TO.N,Net-(U34-C)*%
X75206400Y-145879100D03*
%TO.N,Net-(U34-DP)*%
X77746400Y-145879100D03*
%TO.N,Net-(U34-B)*%
X77746400Y-130639100D03*
%TO.N,Net-(U34-A)*%
X75206400Y-130639100D03*
%TO.N,Net-(U33A-O3)*%
X72666400Y-130639100D03*
%TO.N,Net-(U34-F)*%
X70126400Y-130639100D03*
%TO.N,Net-(U34-G)*%
X67586400Y-130639100D03*
%TD*%
D22*
%TO.N,VCC*%
%TO.C,U25*%
X187760000Y-153920000D03*
D23*
%TO.N,Net-(D26-A)*%
X190300000Y-153920000D03*
%TO.N,Net-(D27-A)*%
X192840000Y-153920000D03*
%TO.N,Net-(D28-A)*%
X195380000Y-153920000D03*
%TO.N,Net-(D29-A)*%
X197920000Y-153920000D03*
%TO.N,Net-(D30-A)*%
X200460000Y-153920000D03*
%TO.N,Net-(D31-A)*%
X203000000Y-153920000D03*
%TO.N,Net-(D32-A)*%
X205540000Y-153920000D03*
%TO.N,Net-(D33-A)*%
X208080000Y-153920000D03*
%TO.N,GND*%
X210620000Y-153920000D03*
%TO.N,BUS_0*%
X210620000Y-146300000D03*
%TO.N,BUS_1*%
X208080000Y-146300000D03*
%TO.N,BUS_2*%
X205540000Y-146300000D03*
%TO.N,BUS_3*%
X203000000Y-146300000D03*
%TO.N,BUS_4*%
X200460000Y-146300000D03*
%TO.N,BUS_5*%
X197920000Y-146300000D03*
%TO.N,BUS_6*%
X195380000Y-146300000D03*
%TO.N,BUS_7*%
X192840000Y-146300000D03*
%TO.N,~{RO}*%
X190300000Y-146300000D03*
%TO.N,VCC*%
X187760000Y-146300000D03*
%TD*%
D15*
%TO.N,Net-(D026-K)*%
%TO.C,D026*%
X314460000Y-78920000D03*
D16*
%TO.N,/ALU/B_3*%
X317000000Y-78920000D03*
%TD*%
D10*
%TO.N,Net-(D029-K)*%
%TO.C,R98*%
X299460000Y-72670000D03*
%TO.N,GND*%
X299460000Y-65050000D03*
%TD*%
%TO.N,GND*%
%TO.C,R34*%
X163990000Y-91790000D03*
%TO.N,Net-(D35-K)*%
X163990000Y-84170000D03*
%TD*%
%TO.N,Net-(D5-K)*%
%TO.C,R102*%
X216567100Y-85662300D03*
%TO.N,GND*%
X216567100Y-93282300D03*
%TD*%
D22*
%TO.N,VCC*%
%TO.C,U48*%
X205957100Y-72282300D03*
D23*
%TO.N,/ALU/A_4*%
X208497100Y-72282300D03*
%TO.N,/ALU/A_5*%
X211037100Y-72282300D03*
%TO.N,/ALU/A_6*%
X213577100Y-72282300D03*
%TO.N,/ALU/A_7*%
X216117100Y-72282300D03*
%TO.N,/ALU/A_0*%
X218657100Y-72282300D03*
%TO.N,/ALU/A_1*%
X221197100Y-72282300D03*
%TO.N,/ALU/A_2*%
X223737100Y-72282300D03*
%TO.N,/ALU/A_3*%
X226277100Y-72282300D03*
%TO.N,GND*%
X228817100Y-72282300D03*
%TO.N,BUS_0*%
X228817100Y-64662300D03*
%TO.N,BUS_1*%
X226277100Y-64662300D03*
%TO.N,BUS_2*%
X223737100Y-64662300D03*
%TO.N,BUS_3*%
X221197100Y-64662300D03*
%TO.N,BUS_4*%
X218657100Y-64662300D03*
%TO.N,BUS_5*%
X216117100Y-64662300D03*
%TO.N,BUS_6*%
X213577100Y-64662300D03*
%TO.N,BUS_7*%
X211037100Y-64662300D03*
%TO.N,~{AO}*%
X208497100Y-64662300D03*
%TO.N,VCC*%
X205957100Y-64662300D03*
%TD*%
D15*
%TO.N,Net-(D029-K)*%
%TO.C,D029*%
X299440000Y-78920000D03*
D16*
%TO.N,/ALU/B_0*%
X301980000Y-78920000D03*
%TD*%
D10*
%TO.N,Net-(D30-K)*%
%TO.C,R28*%
X200620000Y-166300000D03*
%TO.N,GND*%
X200620000Y-173920000D03*
%TD*%
D13*
%TO.N,Net-(C14-Pad2)*%
%TO.C,U26*%
X205461600Y-105325000D03*
D14*
%TO.N,RI*%
X205461600Y-107865000D03*
%TO.N,Net-(U51-I1c)*%
X205461600Y-110405000D03*
%TO.N,~{CLR}*%
X205461600Y-112945000D03*
%TO.N,Net-(U42-O5)*%
X205461600Y-115485000D03*
%TO.N,Net-(U26-Pad6)*%
X205461600Y-118025000D03*
%TO.N,GND*%
X205461600Y-120565000D03*
%TO.N,~{CLR}*%
X213081600Y-120565000D03*
%TO.N,Net-(R64-Pad1)*%
X213081600Y-118025000D03*
X213081600Y-115485000D03*
%TO.N,CLR*%
X213081600Y-112945000D03*
%TO.N,~{CLR}*%
X213081600Y-110405000D03*
X213081600Y-107865000D03*
%TO.N,VCC*%
X213081600Y-105325000D03*
%TD*%
D15*
%TO.N,Net-(D1-K)*%
%TO.C,D1*%
X271297100Y-134912300D03*
D16*
%TO.N,CLK*%
X273837100Y-134912300D03*
%TD*%
D15*
%TO.N,Net-(D9-K)*%
%TO.C,D9*%
X236587100Y-81162300D03*
D16*
%TO.N,/ALU/A_0*%
X234047100Y-81162300D03*
%TD*%
D15*
%TO.N,Net-(D113-K)*%
%TO.C,D113*%
X162480000Y-39920000D03*
D16*
%TO.N,IR_6*%
X165020000Y-39920000D03*
%TD*%
D22*
%TO.N,VCC*%
%TO.C,U17*%
X252737100Y-98412300D03*
D23*
%TO.N,Net-(D11-A)*%
X255277100Y-98412300D03*
%TO.N,Net-(D12-A)*%
X257817100Y-98412300D03*
%TO.N,Net-(D13-A)*%
X260357100Y-98412300D03*
%TO.N,Net-(D15-A)*%
X262897100Y-98412300D03*
%TO.N,Net-(D16-A)*%
X265437100Y-98412300D03*
%TO.N,Net-(D17-A)*%
X267977100Y-98412300D03*
%TO.N,Net-(D18-A)*%
X270517100Y-98412300D03*
%TO.N,Net-(D19-A)*%
X273057100Y-98412300D03*
%TO.N,GND*%
X275597100Y-98412300D03*
%TO.N,BUS_0*%
X275597100Y-90792300D03*
%TO.N,BUS_1*%
X273057100Y-90792300D03*
%TO.N,BUS_2*%
X270517100Y-90792300D03*
%TO.N,BUS_3*%
X267977100Y-90792300D03*
%TO.N,BUS_4*%
X265437100Y-90792300D03*
%TO.N,BUS_5*%
X262897100Y-90792300D03*
%TO.N,BUS_6*%
X260357100Y-90792300D03*
%TO.N,BUS_7*%
X257817100Y-90792300D03*
%TO.N,~{EO}*%
X255277100Y-90792300D03*
%TO.N,VCC*%
X252737100Y-90792300D03*
%TD*%
D12*
%TO.N,VCC*%
%TO.C,C22*%
X202067100Y-74282300D03*
%TO.N,GND*%
X200067100Y-74282300D03*
%TD*%
D13*
%TO.N,/MAR/PROG*%
%TO.C,U18*%
X219800000Y-36540000D03*
D14*
X222340000Y-36540000D03*
X224880000Y-36540000D03*
%TO.N,/MAR/A3*%
X227420000Y-36540000D03*
%TO.N,/MAR/PROG*%
X229960000Y-36540000D03*
X232500000Y-36540000D03*
%TO.N,/MAR/A2*%
X235040000Y-36540000D03*
%TO.N,GND*%
X237580000Y-36540000D03*
%TO.N,/MAR/A1*%
X237580000Y-28920000D03*
%TO.N,/MAR/PROG*%
X235040000Y-28920000D03*
X232500000Y-28920000D03*
%TO.N,/MAR/A0*%
X229960000Y-28920000D03*
%TO.N,/MAR/PROG*%
X227420000Y-28920000D03*
X224880000Y-28920000D03*
%TO.N,GND*%
X222340000Y-28920000D03*
%TO.N,VCC*%
X219800000Y-28920000D03*
%TD*%
D10*
%TO.N,VCC*%
%TO.C,R18*%
X243250000Y-35750000D03*
%TO.N,Net-(D24-A)*%
X243250000Y-28130000D03*
%TD*%
%TO.N,Net-(D4-K)*%
%TO.C,R101*%
X211567100Y-85662300D03*
%TO.N,GND*%
X211567100Y-93282300D03*
%TD*%
D12*
%TO.N,VCC*%
%TO.C,C12*%
X237977100Y-105547300D03*
%TO.N,GND*%
X239977100Y-105547300D03*
%TD*%
D15*
%TO.N,Net-(D5-K)*%
%TO.C,D5*%
X216567100Y-81162300D03*
D16*
%TO.N,/ALU/A_4*%
X214027100Y-81162300D03*
%TD*%
D10*
%TO.N,Net-(D49-K)*%
%TO.C,R51*%
X97817100Y-117412300D03*
%TO.N,GND*%
X97817100Y-109792300D03*
%TD*%
%TO.N,Net-(D52-K)*%
%TO.C,R54*%
X112817100Y-117532300D03*
%TO.N,GND*%
X112817100Y-109912300D03*
%TD*%
%TO.N,GND*%
%TO.C,C1*%
X304067100Y-119162300D03*
%TO.N,Net-(U1-CV)*%
X304067100Y-121662300D03*
%TD*%
D19*
%TO.N,Net-(R64-Pad1)*%
%TO.C,SW8*%
X85250000Y-70250000D03*
X91750000Y-70250000D03*
%TO.N,VCC*%
X85250000Y-74750000D03*
X91750000Y-74750000D03*
%TD*%
D10*
%TO.N,Net-(D27-K)*%
%TO.C,R25*%
X185120000Y-166300000D03*
%TO.N,GND*%
X185120000Y-173920000D03*
%TD*%
D11*
%TO.N,/MAR/PROG*%
%TO.C,SW3*%
X256880000Y-32630000D03*
D10*
X256880000Y-35170000D03*
%TO.N,GND*%
X256880000Y-37710000D03*
X256880000Y-40250000D03*
%TO.N,/MAR/PROG*%
X264500000Y-40250000D03*
X264500000Y-37710000D03*
%TO.N,GND*%
X264500000Y-35170000D03*
X264500000Y-32630000D03*
%TD*%
D15*
%TO.N,Net-(D39-K)*%
%TO.C,D39*%
X47237100Y-122412300D03*
D16*
%TO.N,Net-(D39-A)*%
X49777100Y-122412300D03*
%TD*%
D10*
%TO.N,Net-(D44-K)*%
%TO.C,R46*%
X72317100Y-117412300D03*
%TO.N,GND*%
X72317100Y-109792300D03*
%TD*%
%TO.N,Net-(D6-K)*%
%TO.C,R103*%
X221567100Y-85662300D03*
%TO.N,GND*%
X221567100Y-93282300D03*
%TD*%
%TO.N,Net-(D32-K)*%
%TO.C,R30*%
X210120000Y-166110000D03*
%TO.N,GND*%
X210120000Y-173730000D03*
%TD*%
%TO.N,Net-(D48-K)*%
%TO.C,R50*%
X92317100Y-117412300D03*
%TO.N,GND*%
X92317100Y-109792300D03*
%TD*%
D24*
%TO.N,*%
%TO.C,SW4*%
X263100000Y-23500000D03*
X254900000Y-23500000D03*
D25*
%TO.N,/MAR/PROG*%
X261000000Y-23500000D03*
D26*
%TO.N,GND*%
X259000000Y-23500000D03*
%TO.N,Net-(D25-K)*%
X257000000Y-23500000D03*
%TD*%
D13*
%TO.N,Net-(U23-\u002AO1)*%
%TO.C,U28*%
X226613200Y-105325000D03*
D14*
%TO.N,Net-(D32-A)*%
X226613200Y-107865000D03*
%TO.N,Net-(U23-\u002AO0)*%
X226613200Y-110405000D03*
%TO.N,Net-(D33-A)*%
X226613200Y-112945000D03*
%TO.N,Net-(D42-A)*%
X226613200Y-115485000D03*
%TO.N,~{IO}*%
X226613200Y-118025000D03*
%TO.N,GND*%
X226613200Y-120565000D03*
%TO.N,~{AO}*%
X234233200Y-120565000D03*
%TO.N,Net-(D45-A)*%
X234233200Y-118025000D03*
%TO.N,~{AI}*%
X234233200Y-115485000D03*
%TO.N,Net-(D44-A)*%
X234233200Y-112945000D03*
%TO.N,~{II}*%
X234233200Y-110405000D03*
%TO.N,Net-(D43-A)*%
X234233200Y-107865000D03*
%TO.N,VCC*%
X234233200Y-105325000D03*
%TD*%
D22*
%TO.N,VCC*%
%TO.C,U117*%
X168570000Y-52730000D03*
D23*
%TO.N,IR_4*%
X171110000Y-52730000D03*
%TO.N,IR_5*%
X173650000Y-52730000D03*
%TO.N,IR_6*%
X176190000Y-52730000D03*
%TO.N,IR_7*%
X178730000Y-52730000D03*
%TO.N,Net-(D119-A)*%
X181270000Y-52730000D03*
%TO.N,Net-(D118-A)*%
X183810000Y-52730000D03*
%TO.N,Net-(D117-A)*%
X186350000Y-52730000D03*
%TO.N,Net-(D116-A)*%
X188890000Y-52730000D03*
%TO.N,GND*%
X191430000Y-52730000D03*
%TO.N,BUS_0*%
X191430000Y-45110000D03*
%TO.N,BUS_1*%
X188890000Y-45110000D03*
%TO.N,BUS_2*%
X186350000Y-45110000D03*
%TO.N,BUS_3*%
X183810000Y-45110000D03*
%TO.N,BUS_4*%
X181270000Y-45110000D03*
%TO.N,BUS_5*%
X178730000Y-45110000D03*
%TO.N,BUS_6*%
X176190000Y-45110000D03*
%TO.N,BUS_7*%
X173650000Y-45110000D03*
%TO.N,~{IO}*%
X171110000Y-45110000D03*
%TO.N,VCC*%
X168570000Y-45110000D03*
%TD*%
D10*
%TO.N,Net-(D9-K)*%
%TO.C,R106*%
X236817100Y-85912300D03*
%TO.N,GND*%
X236817100Y-93532300D03*
%TD*%
%TO.N,Net-(D023-K)*%
%TO.C,R92*%
X329460000Y-72730000D03*
%TO.N,GND*%
X329460000Y-65110000D03*
%TD*%
D15*
%TO.N,Net-(D60-K)*%
%TO.C,D60*%
X108912100Y-86552300D03*
D16*
%TO.N,Net-(D60-A)*%
X111452100Y-86552300D03*
%TD*%
D13*
%TO.N,/ALU/B_5*%
%TO.C,U15*%
X277424200Y-70180000D03*
D14*
%TO.N,SU*%
X277424200Y-72720000D03*
%TO.N,Net-(U13-B2)*%
X277424200Y-75260000D03*
%TO.N,/ALU/B_4*%
X277424200Y-77800000D03*
%TO.N,SU*%
X277424200Y-80340000D03*
%TO.N,Net-(U13-B1)*%
X277424200Y-82880000D03*
%TO.N,GND*%
X277424200Y-85420000D03*
%TO.N,Net-(U13-B4)*%
X285044200Y-85420000D03*
%TO.N,/ALU/B_7*%
X285044200Y-82880000D03*
%TO.N,SU*%
X285044200Y-80340000D03*
%TO.N,Net-(U13-B3)*%
X285044200Y-77800000D03*
%TO.N,/ALU/B_6*%
X285044200Y-75260000D03*
%TO.N,SU*%
X285044200Y-72720000D03*
%TO.N,VCC*%
X285044200Y-70180000D03*
%TD*%
D15*
%TO.N,Net-(D16-K)*%
%TO.C,D16*%
X266967100Y-103852300D03*
D16*
%TO.N,Net-(D16-A)*%
X269507100Y-103852300D03*
%TD*%
D10*
%TO.N,Net-(D2-K)*%
%TO.C,R99*%
X201567100Y-85662300D03*
%TO.N,GND*%
X201567100Y-93282300D03*
%TD*%
D15*
%TO.N,Net-(D18-K)*%
%TO.C,D18*%
X276717100Y-103852300D03*
D16*
%TO.N,Net-(D18-A)*%
X279257100Y-103852300D03*
%TD*%
D10*
%TO.N,Net-(D28-K)*%
%TO.C,R26*%
X190120000Y-166110000D03*
%TO.N,GND*%
X190120000Y-173730000D03*
%TD*%
D13*
%TO.N,Net-(D39-A)*%
%TO.C,U46*%
X132792100Y-31392300D03*
D14*
%TO.N,~{MI}*%
X132792100Y-33932300D03*
%TO.N,Net-(D41-A)*%
X132792100Y-36472300D03*
%TO.N,~{RO}*%
X132792100Y-39012300D03*
%TO.N,Net-(D53-A)*%
X132792100Y-41552300D03*
%TO.N,~{FI}*%
X132792100Y-44092300D03*
%TO.N,GND*%
X132792100Y-46632300D03*
%TO.N,unconnected-(U46-Pad8)*%
X140412100Y-46632300D03*
%TO.N,unconnected-(U46-Pad9)*%
X140412100Y-44092300D03*
%TO.N,~{J}*%
X140412100Y-41552300D03*
%TO.N,Net-(D52-A)*%
X140412100Y-39012300D03*
%TO.N,~{CO}*%
X140412100Y-36472300D03*
%TO.N,Net-(D51-A)*%
X140412100Y-33932300D03*
%TO.N,VCC*%
X140412100Y-31392300D03*
%TD*%
D10*
%TO.N,Net-(D43-K)*%
%TO.C,R45*%
X67317100Y-117412300D03*
%TO.N,GND*%
X67317100Y-109792300D03*
%TD*%
D15*
%TO.N,Net-(D64-K)*%
%TO.C,D64*%
X58500000Y-96690000D03*
D16*
%TO.N,BUS_2*%
X58500000Y-94150000D03*
%TD*%
D15*
%TO.N,Net-(D3-K)*%
%TO.C,D3*%
X206547100Y-81162300D03*
D16*
%TO.N,/ALU/A_6*%
X204007100Y-81162300D03*
%TD*%
D10*
%TO.N,Net-(D65-K)*%
%TO.C,R68*%
X53547700Y-91657100D03*
%TO.N,GND*%
X45927700Y-91657100D03*
%TD*%
D15*
%TO.N,Net-(D65-K)*%
%TO.C,D65*%
X58500000Y-91690000D03*
D16*
%TO.N,BUS_3*%
X58500000Y-89150000D03*
%TD*%
D22*
%TO.N,VCC*%
%TO.C,U7*%
X324650000Y-83680000D03*
D23*
%TO.N,/ALU/B_4*%
X322110000Y-83680000D03*
%TO.N,/ALU/B_5*%
X319570000Y-83680000D03*
%TO.N,/ALU/B_6*%
X317030000Y-83680000D03*
%TO.N,/ALU/B_7*%
X314490000Y-83680000D03*
%TO.N,/ALU/B_0*%
X311950000Y-83680000D03*
%TO.N,/ALU/B_1*%
X309410000Y-83680000D03*
%TO.N,/ALU/B_2*%
X306870000Y-83680000D03*
%TO.N,/ALU/B_3*%
X304330000Y-83680000D03*
%TO.N,GND*%
X301790000Y-83680000D03*
%TO.N,BUS_0*%
X301790000Y-91300000D03*
%TO.N,BUS_1*%
X304330000Y-91300000D03*
%TO.N,BUS_2*%
X306870000Y-91300000D03*
%TO.N,BUS_3*%
X309410000Y-91300000D03*
%TO.N,BUS_4*%
X311950000Y-91300000D03*
%TO.N,BUS_5*%
X314490000Y-91300000D03*
%TO.N,BUS_6*%
X317030000Y-91300000D03*
%TO.N,BUS_7*%
X319570000Y-91300000D03*
%TO.N,VCC*%
X322110000Y-91300000D03*
X324650000Y-91300000D03*
%TD*%
D15*
%TO.N,Net-(D35-K)*%
%TO.C,D35*%
X163960000Y-79420000D03*
D16*
%TO.N,Net-(D35-A)*%
X166500000Y-79420000D03*
%TD*%
D13*
%TO.N,GND*%
%TO.C,U9*%
X332580000Y-93800000D03*
D14*
X330040000Y-93800000D03*
%TO.N,/ALU/B_3*%
X327500000Y-93800000D03*
%TO.N,/ALU/B_2*%
X324960000Y-93800000D03*
%TO.N,/ALU/B_1*%
X322420000Y-93800000D03*
%TO.N,/ALU/B_0*%
X319880000Y-93800000D03*
%TO.N,CLK*%
X317340000Y-93800000D03*
%TO.N,GND*%
X314800000Y-93800000D03*
%TO.N,~{BI}*%
X314800000Y-101420000D03*
X317340000Y-101420000D03*
%TO.N,BUS_0*%
X319880000Y-101420000D03*
%TO.N,BUS_1*%
X322420000Y-101420000D03*
%TO.N,BUS_2*%
X324960000Y-101420000D03*
%TO.N,BUS_3*%
X327500000Y-101420000D03*
%TO.N,CLR*%
X330040000Y-101420000D03*
%TO.N,VCC*%
X332580000Y-101420000D03*
%TD*%
D15*
%TO.N,Net-(D49-K)*%
%TO.C,D49*%
X97277100Y-122412300D03*
D16*
%TO.N,OI*%
X99817100Y-122412300D03*
%TD*%
D15*
%TO.N,Net-(D119-K)*%
%TO.C,D119*%
X192460000Y-39920000D03*
D16*
%TO.N,Net-(D119-A)*%
X195000000Y-39920000D03*
%TD*%
D10*
%TO.N,BUS_7*%
%TO.C,R73*%
X63087900Y-88287700D03*
%TO.N,GND*%
X70707900Y-88287700D03*
%TD*%
%TO.N,Net-(U31-THR)*%
%TO.C,R38*%
X155666400Y-124379100D03*
%TO.N,Net-(U31-DIS)*%
X163286400Y-124379100D03*
%TD*%
D15*
%TO.N,Net-(D023-K)*%
%TO.C,D023*%
X329500000Y-78880000D03*
D16*
%TO.N,/ALU/B_6*%
X332040000Y-78880000D03*
%TD*%
D15*
%TO.N,Net-(D34-K)*%
%TO.C,D34*%
X157950000Y-79420000D03*
D16*
%TO.N,Net-(D34-A)*%
X160490000Y-79420000D03*
%TD*%
D12*
%TO.N,Net-(U31-THR)*%
%TO.C,C16*%
X155666400Y-119379100D03*
%TO.N,GND*%
X155666400Y-117379100D03*
%TD*%
D10*
%TO.N,Net-(D11-K)*%
%TO.C,R9*%
X247417100Y-109602300D03*
%TO.N,GND*%
X247417100Y-117222300D03*
%TD*%
D15*
%TO.N,Net-(D117-K)*%
%TO.C,D117*%
X182460000Y-39920000D03*
D16*
%TO.N,Net-(D117-A)*%
X185000000Y-39920000D03*
%TD*%
D13*
%TO.N,GND*%
%TO.C,U50*%
X246567100Y-79112300D03*
D14*
X246567100Y-76572300D03*
%TO.N,/ALU/A_3*%
X246567100Y-74032300D03*
%TO.N,/ALU/A_2*%
X246567100Y-71492300D03*
%TO.N,/ALU/A_1*%
X246567100Y-68952300D03*
%TO.N,/ALU/A_0*%
X246567100Y-66412300D03*
%TO.N,CLK*%
X246567100Y-63872300D03*
%TO.N,GND*%
X246567100Y-61332300D03*
%TO.N,~{AI}*%
X238947100Y-61332300D03*
X238947100Y-63872300D03*
%TO.N,BUS_0*%
X238947100Y-66412300D03*
%TO.N,BUS_1*%
X238947100Y-68952300D03*
%TO.N,BUS_2*%
X238947100Y-71492300D03*
%TO.N,BUS_3*%
X238947100Y-74032300D03*
%TO.N,CLR*%
X238947100Y-76572300D03*
%TO.N,VCC*%
X238947100Y-79112300D03*
%TD*%
D15*
%TO.N,/MAR/PROG*%
%TO.C,D24*%
X241230000Y-23500000D03*
D16*
%TO.N,Net-(D24-A)*%
X243770000Y-23500000D03*
%TD*%
D10*
%TO.N,Net-(D31-K)*%
%TO.C,R29*%
X205120000Y-166300000D03*
%TO.N,GND*%
X205120000Y-173920000D03*
%TD*%
%TO.N,Net-(D59-K)*%
%TO.C,R61*%
X102912100Y-81552300D03*
%TO.N,GND*%
X102912100Y-73932300D03*
%TD*%
%TO.N,Net-(D026-K)*%
%TO.C,R95*%
X314460000Y-72670000D03*
%TO.N,GND*%
X314460000Y-65050000D03*
%TD*%
D12*
%TO.N,VCC*%
%TO.C,C19*%
X147666400Y-126379100D03*
%TO.N,GND*%
X145666400Y-126379100D03*
%TD*%
D10*
%TO.N,Net-(D1-K)*%
%TO.C,R7*%
X271317100Y-139602300D03*
%TO.N,GND*%
X271317100Y-147222300D03*
%TD*%
D15*
%TO.N,Net-(D67-K)*%
%TO.C,D67*%
X58500000Y-81690000D03*
D16*
%TO.N,BUS_5*%
X58500000Y-79150000D03*
%TD*%
D15*
%TO.N,Net-(D26-K)*%
%TO.C,D26*%
X180080000Y-161420000D03*
D16*
%TO.N,Net-(D26-A)*%
X182620000Y-161420000D03*
%TD*%
D12*
%TO.N,VCC*%
%TO.C,C21*%
X80612100Y-63342300D03*
%TO.N,GND*%
X82612100Y-63342300D03*
%TD*%
D10*
%TO.N,Net-(D29-K)*%
%TO.C,R27*%
X195120000Y-166110000D03*
%TO.N,GND*%
X195120000Y-173730000D03*
%TD*%
%TO.N,Net-(D3-K)*%
%TO.C,R100*%
X206567100Y-85662300D03*
%TO.N,GND*%
X206567100Y-93282300D03*
%TD*%
D15*
%TO.N,Net-(D58-K)*%
%TO.C,D58*%
X114912100Y-103552300D03*
D16*
%TO.N,Net-(D58-A)*%
X117452100Y-103552300D03*
%TD*%
D10*
%TO.N,Net-(D41-K)*%
%TO.C,R43*%
X57317100Y-117412300D03*
%TO.N,GND*%
X57317100Y-109792300D03*
%TD*%
D15*
%TO.N,Net-(D66-K)*%
%TO.C,D66*%
X58500000Y-86650000D03*
D16*
%TO.N,BUS_4*%
X58500000Y-84110000D03*
%TD*%
D15*
%TO.N,Net-(D23-K)*%
%TO.C,D23*%
X240427100Y-42332300D03*
D16*
%TO.N,/MAR/A0*%
X242967100Y-42332300D03*
%TD*%
D12*
%TO.N,VCC*%
%TO.C,C20*%
X80612100Y-56792300D03*
%TO.N,GND*%
X82612100Y-56792300D03*
%TD*%
D10*
%TO.N,Net-(D39-K)*%
%TO.C,R41*%
X47317100Y-117412300D03*
%TO.N,GND*%
X47317100Y-109792300D03*
%TD*%
%TO.N,Net-(D46-K)*%
%TO.C,R48*%
X82317100Y-117412300D03*
%TO.N,GND*%
X82317100Y-109792300D03*
%TD*%
%TO.N,GND*%
%TO.C,C2*%
X275567100Y-154412300D03*
%TO.N,Net-(U2-CV)*%
X278067100Y-154412300D03*
%TD*%
D20*
%TO.N,Net-(U34-E)*%
%TO.C,U36*%
X95686400Y-145879100D03*
D10*
%TO.N,Net-(U34-D)*%
X98226400Y-145879100D03*
%TO.N,Net-(U33A-O2)*%
X100766400Y-145879100D03*
%TO.N,Net-(U34-C)*%
X103306400Y-145879100D03*
%TO.N,Net-(U34-DP)*%
X105846400Y-145879100D03*
%TO.N,Net-(U34-B)*%
X105846400Y-130639100D03*
%TO.N,Net-(U34-A)*%
X103306400Y-130639100D03*
%TO.N,Net-(U33A-O2)*%
X100766400Y-130639100D03*
%TO.N,Net-(U34-F)*%
X98226400Y-130639100D03*
%TO.N,Net-(U34-G)*%
X95686400Y-130639100D03*
%TD*%
D15*
%TO.N,Net-(D37-K)*%
%TO.C,D37*%
X175980000Y-79420000D03*
D16*
%TO.N,Net-(D37-A)*%
X178520000Y-79420000D03*
%TD*%
D11*
%TO.N,GND*%
%TO.C,U12*%
X266160000Y-45670000D03*
D10*
X266160000Y-48210000D03*
%TO.N,CF*%
X266160000Y-50750000D03*
%TO.N,ZF*%
X266160000Y-53290000D03*
%TO.N,unconnected-(U12-Q2-Pad5)*%
X266160000Y-55830000D03*
%TO.N,unconnected-(U12-Q3-Pad6)*%
X266160000Y-58370000D03*
%TO.N,CLK*%
X266160000Y-60910000D03*
%TO.N,GND*%
X266160000Y-63450000D03*
%TO.N,~{FI}*%
X273780000Y-63450000D03*
X273780000Y-60910000D03*
%TO.N,unconnected-(U12-D3-Pad11)*%
X273780000Y-58370000D03*
%TO.N,unconnected-(U12-D2-Pad12)*%
X273780000Y-55830000D03*
%TO.N,Net-(U12-D1)*%
X273780000Y-53290000D03*
%TO.N,Net-(U12-D0)*%
X273780000Y-50750000D03*
%TO.N,CLR*%
X273780000Y-48210000D03*
%TO.N,VCC*%
X273780000Y-45670000D03*
%TD*%
D27*
%TO.N,GND*%
%TO.C,J1*%
X24320000Y-106350000D03*
X20520000Y-106350000D03*
X24320000Y-114990000D03*
X20520000Y-114990000D03*
%TD*%
D13*
%TO.N,OI*%
%TO.C,U39*%
X155676800Y-96506800D03*
D14*
%TO.N,CLK*%
X155676800Y-99046800D03*
%TO.N,Net-(U38-Cp)*%
X155676800Y-101586800D03*
%TO.N,N/C*%
X155676800Y-104126800D03*
X155676800Y-106666800D03*
X155676800Y-109206800D03*
%TO.N,GND*%
X155676800Y-111746800D03*
%TO.N,N/C*%
X163296800Y-111746800D03*
X163296800Y-109206800D03*
X163296800Y-106666800D03*
X163296800Y-104126800D03*
X163296800Y-101586800D03*
X163296800Y-99046800D03*
%TO.N,VCC*%
X163296800Y-96506800D03*
%TD*%
D10*
%TO.N,Net-(D63-K)*%
%TO.C,R66*%
X53667700Y-102157100D03*
%TO.N,GND*%
X46047700Y-102157100D03*
%TD*%
D15*
%TO.N,Net-(D32-K)*%
%TO.C,D32*%
X210120000Y-161420000D03*
D16*
%TO.N,Net-(D32-A)*%
X212660000Y-161420000D03*
%TD*%
D10*
%TO.N,Net-(D13-K)*%
%TO.C,R12*%
X257167100Y-109542300D03*
%TO.N,GND*%
X257167100Y-117162300D03*
%TD*%
D13*
%TO.N,Net-(D59-A)*%
%TO.C,U42*%
X74120000Y-89100000D03*
D14*
%TO.N,Net-(D60-A)*%
X74120000Y-91640000D03*
%TO.N,Net-(D61-A)*%
X74120000Y-94180000D03*
%TO.N,GND*%
X74120000Y-96720000D03*
X74120000Y-99260000D03*
%TO.N,VCC*%
X74120000Y-101800000D03*
%TO.N,unconnected-(U42-O7-Pad7)*%
X74120000Y-104340000D03*
%TO.N,GND*%
X74120000Y-106880000D03*
%TO.N,unconnected-(U42-O6-Pad9)*%
X81740000Y-106880000D03*
%TO.N,Net-(U42-O5)*%
X81740000Y-104340000D03*
%TO.N,Net-(D54-K)*%
X81740000Y-101800000D03*
%TO.N,Net-(D55-K)*%
X81740000Y-99260000D03*
%TO.N,Net-(D56-K)*%
X81740000Y-96720000D03*
%TO.N,Net-(D57-K)*%
X81740000Y-94180000D03*
%TO.N,Net-(D58-K)*%
X81740000Y-91640000D03*
%TO.N,VCC*%
X81740000Y-89100000D03*
%TD*%
D10*
%TO.N,Net-(D23-K)*%
%TO.C,R23*%
X240647100Y-47272300D03*
%TO.N,GND*%
X240647100Y-54892300D03*
%TD*%
D22*
%TO.N,GND*%
%TO.C,U118*%
X184000000Y-55420000D03*
D23*
X181460000Y-55420000D03*
%TO.N,IR_7*%
X178920000Y-55420000D03*
%TO.N,IR_6*%
X176380000Y-55420000D03*
%TO.N,IR_5*%
X173840000Y-55420000D03*
%TO.N,IR_4*%
X171300000Y-55420000D03*
%TO.N,CLK*%
X168760000Y-55420000D03*
%TO.N,GND*%
X166220000Y-55420000D03*
%TO.N,~{II}*%
X163680000Y-55420000D03*
X161140000Y-55420000D03*
%TO.N,BUS_4*%
X161140000Y-63040000D03*
%TO.N,BUS_5*%
X163680000Y-63040000D03*
%TO.N,BUS_6*%
X166220000Y-63040000D03*
%TO.N,BUS_7*%
X168760000Y-63040000D03*
%TO.N,CLR*%
X171300000Y-63040000D03*
%TO.N,VCC*%
X173840000Y-63040000D03*
%TO.N,N/C*%
X176380000Y-63040000D03*
X178920000Y-63040000D03*
X181460000Y-63040000D03*
X184000000Y-63040000D03*
%TD*%
D15*
%TO.N,Net-(D62-K)*%
%TO.C,D62*%
X58500000Y-106690000D03*
D16*
%TO.N,BUS_0*%
X58500000Y-104150000D03*
%TD*%
D15*
%TO.N,Net-(D15-K)*%
%TO.C,D15*%
X262087100Y-103852300D03*
D16*
%TO.N,Net-(D15-A)*%
X264627100Y-103852300D03*
%TD*%
D10*
%TO.N,Net-(D14-K)*%
%TO.C,R8*%
X256750000Y-53980000D03*
%TO.N,GND*%
X256750000Y-46360000D03*
%TD*%
D15*
%TO.N,Net-(D63-K)*%
%TO.C,D63*%
X58500000Y-101690000D03*
D16*
%TO.N,BUS_1*%
X58500000Y-99150000D03*
%TD*%
D13*
%TO.N,Net-(U21-\u002AO0)*%
%TO.C,U27*%
X216037400Y-105325000D03*
D14*
%TO.N,Net-(D26-A)*%
X216037400Y-107865000D03*
%TO.N,Net-(U21-\u002AO1)*%
X216037400Y-110405000D03*
%TO.N,Net-(D27-A)*%
X216037400Y-112945000D03*
%TO.N,Net-(U21-\u002AO2)*%
X216037400Y-115485000D03*
%TO.N,Net-(D28-A)*%
X216037400Y-118025000D03*
%TO.N,GND*%
X216037400Y-120565000D03*
%TO.N,Net-(D29-A)*%
X223657400Y-120565000D03*
%TO.N,Net-(U21-\u002AO3)*%
X223657400Y-118025000D03*
%TO.N,Net-(D30-A)*%
X223657400Y-115485000D03*
%TO.N,Net-(U23-\u002AO3)*%
X223657400Y-112945000D03*
%TO.N,Net-(D31-A)*%
X223657400Y-110405000D03*
%TO.N,Net-(U23-\u002AO2)*%
X223657400Y-107865000D03*
%TO.N,VCC*%
X223657400Y-105325000D03*
%TD*%
D11*
%TO.N,Net-(D18-A)*%
%TO.C,U14*%
X287720000Y-45670000D03*
D10*
%TO.N,Net-(U14-B2)*%
X287720000Y-48210000D03*
%TO.N,/ALU/A_1*%
X287720000Y-50750000D03*
%TO.N,Net-(D19-A)*%
X287720000Y-53290000D03*
%TO.N,/ALU/A_0*%
X287720000Y-55830000D03*
%TO.N,Net-(U14-B1)*%
X287720000Y-58370000D03*
%TO.N,SU*%
X287720000Y-60910000D03*
%TO.N,GND*%
X287720000Y-63450000D03*
%TO.N,Net-(U13-C0)*%
X295340000Y-63450000D03*
%TO.N,Net-(D16-A)*%
X295340000Y-60910000D03*
%TO.N,Net-(U14-B4)*%
X295340000Y-58370000D03*
%TO.N,/ALU/A_3*%
X295340000Y-55830000D03*
%TO.N,Net-(D17-A)*%
X295340000Y-53290000D03*
%TO.N,/ALU/A_2*%
X295340000Y-50750000D03*
%TO.N,Net-(U14-B3)*%
X295340000Y-48210000D03*
%TO.N,VCC*%
X295340000Y-45670000D03*
%TD*%
%TO.N,Net-(D113-K)*%
%TO.C,R84*%
X162500000Y-34920000D03*
%TO.N,GND*%
X162500000Y-27300000D03*
%TD*%
%TO.N,Net-(D51-K)*%
%TO.C,R53*%
X107817100Y-117532300D03*
%TO.N,GND*%
X107817100Y-109912300D03*
%TD*%
D15*
%TO.N,Net-(D7-K)*%
%TO.C,D7*%
X226587100Y-81162300D03*
D16*
%TO.N,/ALU/A_2*%
X224047100Y-81162300D03*
%TD*%
D15*
%TO.N,Net-(D55-K)*%
%TO.C,D55*%
X96882100Y-103552300D03*
D16*
%TO.N,Net-(D55-A)*%
X99422100Y-103552300D03*
%TD*%
D15*
%TO.N,Net-(D19-K)*%
%TO.C,D19*%
X281877100Y-103852300D03*
D16*
%TO.N,Net-(D19-A)*%
X284417100Y-103852300D03*
%TD*%
D10*
%TO.N,Net-(D8-K)*%
%TO.C,R105*%
X231567100Y-85662300D03*
%TO.N,GND*%
X231567100Y-93282300D03*
%TD*%
D28*
%TO.N,*%
%TO.C,RV1*%
X328275000Y-106700000D03*
X328275000Y-116300000D03*
D15*
%TO.N,Net-(U1-THR)*%
X320775000Y-109000000D03*
D16*
%TO.N,Net-(R2-Pad2)*%
X320775000Y-111500000D03*
%TO.N,unconnected-(RV1-Pad3)*%
X320775000Y-114000000D03*
%TD*%
D13*
%TO.N,Net-(D46-A)*%
%TO.C,U47*%
X132912100Y-51812300D03*
D14*
%TO.N,~{EO}*%
X132912100Y-54352300D03*
%TO.N,Net-(D48-A)*%
X132912100Y-56892300D03*
%TO.N,~{BI}*%
X132912100Y-59432300D03*
%TO.N,unconnected-(U47-Pad5)*%
X132912100Y-61972300D03*
%TO.N,unconnected-(U47-Pad6)*%
X132912100Y-64512300D03*
%TO.N,GND*%
X132912100Y-67052300D03*
%TO.N,unconnected-(U47-Pad8)*%
X140532100Y-67052300D03*
%TO.N,unconnected-(U47-Pad9)*%
X140532100Y-64512300D03*
%TO.N,unconnected-(U47-Pad10)*%
X140532100Y-61972300D03*
%TO.N,unconnected-(U47-Pad11)*%
X140532100Y-59432300D03*
%TO.N,unconnected-(U47-Pad12)*%
X140532100Y-56892300D03*
%TO.N,unconnected-(U47-Pad13)*%
X140532100Y-54352300D03*
%TO.N,VCC*%
X140532100Y-51812300D03*
%TD*%
D10*
%TO.N,Net-(D7-K)*%
%TO.C,R104*%
X226567100Y-85662300D03*
%TO.N,GND*%
X226567100Y-93282300D03*
%TD*%
%TO.N,Net-(R64-Pad1)*%
%TO.C,R64*%
X85912100Y-66552300D03*
%TO.N,GND*%
X85912100Y-58932300D03*
%TD*%
%TO.N,Net-(D38-K)*%
%TO.C,R40*%
X42317100Y-117412300D03*
%TO.N,GND*%
X42317100Y-109792300D03*
%TD*%
%TO.N,Net-(D114-K)*%
%TO.C,R85*%
X167500000Y-34920000D03*
%TO.N,GND*%
X167500000Y-27300000D03*
%TD*%
D12*
%TO.N,VCC*%
%TO.C,C15*%
X153490000Y-60920000D03*
%TO.N,GND*%
X155490000Y-60920000D03*
%TD*%
D15*
%TO.N,Net-(D12-K)*%
%TO.C,D12*%
X252367100Y-103852300D03*
D16*
%TO.N,Net-(D12-A)*%
X254907100Y-103852300D03*
%TD*%
D29*
%TO.N,/ALU/B_1*%
%TO.C,U16*%
X289380000Y-112805000D03*
D10*
%TO.N,SU*%
X291920000Y-112805000D03*
%TO.N,Net-(U14-B3)*%
X294460000Y-112805000D03*
%TO.N,/ALU/B_0*%
X297000000Y-112805000D03*
%TO.N,SU*%
X299540000Y-112805000D03*
%TO.N,Net-(U14-B1)*%
X302080000Y-112805000D03*
%TO.N,GND*%
X304620000Y-112805000D03*
%TO.N,Net-(U14-B4)*%
X304620000Y-105185000D03*
%TO.N,/ALU/B_3*%
X302080000Y-105185000D03*
%TO.N,SU*%
X299540000Y-105185000D03*
%TO.N,Net-(U14-B2)*%
X297000000Y-105185000D03*
%TO.N,/ALU/B_2*%
X294460000Y-105185000D03*
%TO.N,SU*%
X291920000Y-105185000D03*
%TO.N,VCC*%
X289380000Y-105185000D03*
%TD*%
D17*
%TO.N,N/C*%
%TO.C,U44*%
X108442550Y-32060000D03*
D18*
%TO.N,GND*%
X108442550Y-34600000D03*
%TO.N,VCC*%
X108442550Y-37140000D03*
%TO.N,IR_7*%
X108442550Y-39680000D03*
%TO.N,IR_6*%
X108442550Y-42220000D03*
%TO.N,IR_5*%
X108442550Y-44760000D03*
%TO.N,IR_4*%
X108442550Y-47300000D03*
%TO.N,Net-(D61-A)*%
X108442550Y-49840000D03*
%TO.N,Net-(D60-A)*%
X108442550Y-52380000D03*
%TO.N,Net-(D59-A)*%
X108442550Y-54920000D03*
%TO.N,Net-(D53-A)*%
X108442550Y-57460000D03*
%TO.N,Net-(D52-A)*%
X108442550Y-60000000D03*
%TO.N,Net-(D51-A)*%
X108442550Y-62540000D03*
%TO.N,GND*%
X108442550Y-65080000D03*
%TO.N,CE*%
X124000050Y-65080000D03*
%TO.N,OI*%
X124000050Y-62540000D03*
%TO.N,Net-(D48-A)*%
X124000050Y-60000000D03*
%TO.N,SU*%
X124000050Y-57460000D03*
%TO.N,Net-(D46-A)*%
X124000050Y-54920000D03*
%TO.N,GND*%
X124000050Y-52380000D03*
X124000050Y-49840000D03*
X124000050Y-47300000D03*
X124000050Y-44760000D03*
%TO.N,ZF*%
X124000050Y-42220000D03*
%TO.N,CF*%
X124000050Y-39680000D03*
%TO.N,N/C*%
X124000050Y-37140000D03*
%TO.N,VCC*%
X124000050Y-34600000D03*
X124000050Y-32060000D03*
%TD*%
D15*
%TO.N,Net-(D45-K)*%
%TO.C,D45*%
X77277100Y-122412300D03*
D16*
%TO.N,Net-(D45-A)*%
X79817100Y-122412300D03*
%TD*%
D15*
%TO.N,Net-(D118-K)*%
%TO.C,D118*%
X187460000Y-39920000D03*
D16*
%TO.N,Net-(D118-A)*%
X190000000Y-39920000D03*
%TD*%
D15*
%TO.N,Net-(D36-K)*%
%TO.C,D36*%
X169970000Y-79420000D03*
D16*
%TO.N,Net-(D36-A)*%
X172510000Y-79420000D03*
%TD*%
D13*
%TO.N,GND*%
%TO.C,U119*%
X212817100Y-53912300D03*
D14*
X212817100Y-51372300D03*
%TO.N,Net-(D116-A)*%
X212817100Y-48832300D03*
%TO.N,Net-(D117-A)*%
X212817100Y-46292300D03*
%TO.N,Net-(D118-A)*%
X212817100Y-43752300D03*
%TO.N,Net-(D119-A)*%
X212817100Y-41212300D03*
%TO.N,CLK*%
X212817100Y-38672300D03*
%TO.N,GND*%
X212817100Y-36132300D03*
%TO.N,~{II}*%
X205197100Y-36132300D03*
X205197100Y-38672300D03*
%TO.N,BUS_0*%
X205197100Y-41212300D03*
%TO.N,BUS_1*%
X205197100Y-43752300D03*
%TO.N,BUS_2*%
X205197100Y-46292300D03*
%TO.N,BUS_3*%
X205197100Y-48832300D03*
%TO.N,CLR*%
X205197100Y-51372300D03*
%TO.N,VCC*%
X205197100Y-53912300D03*
%TD*%
D10*
%TO.N,Net-(D027-K)*%
%TO.C,R96*%
X309460000Y-72730000D03*
%TO.N,GND*%
X309460000Y-65110000D03*
%TD*%
%TO.N,Net-(D64-K)*%
%TO.C,R67*%
X53667700Y-96657100D03*
%TO.N,GND*%
X46047700Y-96657100D03*
%TD*%
%TO.N,BUS_5*%
%TO.C,R75*%
X63325000Y-96690000D03*
%TO.N,GND*%
X70945000Y-96690000D03*
%TD*%
D15*
%TO.N,Net-(D6-K)*%
%TO.C,D6*%
X221587100Y-81162300D03*
D16*
%TO.N,/ALU/A_3*%
X219047100Y-81162300D03*
%TD*%
D10*
%TO.N,GND*%
%TO.C,R10*%
X256750000Y-66170000D03*
%TO.N,Net-(D10-K)*%
X256750000Y-58550000D03*
%TD*%
%TO.N,Net-(D22-K)*%
%TO.C,R22*%
X234397100Y-47272300D03*
%TO.N,GND*%
X234397100Y-54892300D03*
%TD*%
%TO.N,Net-(J1-CC1)*%
%TO.C,R82*%
X30374400Y-109375000D03*
%TO.N,GND*%
X37994400Y-109375000D03*
%TD*%
%TO.N,GND*%
%TO.C,C5*%
X301067100Y-135962300D03*
%TO.N,VCC*%
X298567100Y-135962300D03*
%TD*%
D15*
%TO.N,Net-(D52-K)*%
%TO.C,D52*%
X112777100Y-122412300D03*
D16*
%TO.N,Net-(D52-A)*%
X115317100Y-122412300D03*
%TD*%
D15*
%TO.N,Net-(D43-K)*%
%TO.C,D43*%
X67227100Y-122412300D03*
D16*
%TO.N,Net-(D43-A)*%
X69767100Y-122412300D03*
%TD*%
D13*
%TO.N,Net-(U26-Pad6)*%
%TO.C,U45*%
X74000000Y-70180000D03*
D14*
X74000000Y-72720000D03*
%TO.N,Net-(U41-~{MR})*%
X74000000Y-75260000D03*
%TO.N,N/C*%
X74000000Y-77800000D03*
X74000000Y-80340000D03*
X74000000Y-82880000D03*
%TO.N,GND*%
X74000000Y-85420000D03*
%TO.N,N/C*%
X81620000Y-85420000D03*
X81620000Y-82880000D03*
X81620000Y-80340000D03*
X81620000Y-77800000D03*
X81620000Y-75260000D03*
X81620000Y-72720000D03*
%TO.N,VCC*%
X81620000Y-70180000D03*
%TD*%
D12*
%TO.N,CLK*%
%TO.C,C14*%
X265000000Y-128580000D03*
%TO.N,Net-(C14-Pad2)*%
X265000000Y-130580000D03*
%TD*%
D10*
%TO.N,Net-(D47-K)*%
%TO.C,R49*%
X87317100Y-117412300D03*
%TO.N,GND*%
X87317100Y-109792300D03*
%TD*%
D15*
%TO.N,Net-(D33-K)*%
%TO.C,D33*%
X215120000Y-161420000D03*
D16*
%TO.N,Net-(D33-A)*%
X217660000Y-161420000D03*
%TD*%
D10*
%TO.N,GND*%
%TO.C,C6*%
X301067100Y-131912300D03*
%TO.N,VCC*%
X298567100Y-131912300D03*
%TD*%
D17*
%TO.N,N/C*%
%TO.C,U40*%
X126166450Y-95979100D03*
D18*
%TO.N,GND*%
X126166450Y-98519100D03*
%TO.N,Net-(U38-Q7)*%
X126166450Y-101059100D03*
%TO.N,Net-(U38-Q6)*%
X126166450Y-103599100D03*
%TO.N,Net-(U38-Q5)*%
X126166450Y-106139100D03*
%TO.N,Net-(U38-Q4)*%
X126166450Y-108679100D03*
%TO.N,Net-(U38-Q3)*%
X126166450Y-111219100D03*
%TO.N,Net-(U38-Q2)*%
X126166450Y-113759100D03*
%TO.N,Net-(U38-Q1)*%
X126166450Y-116299100D03*
%TO.N,Net-(U38-Q0)*%
X126166450Y-118839100D03*
%TO.N,Net-(U34-G)*%
X126166450Y-121379100D03*
%TO.N,Net-(U34-F)*%
X126166450Y-123919100D03*
%TO.N,Net-(U34-E)*%
X126166450Y-126459100D03*
%TO.N,GND*%
X126166450Y-128999100D03*
%TO.N,Net-(U34-D)*%
X141723950Y-128999100D03*
%TO.N,Net-(U34-C)*%
X141723950Y-126459100D03*
%TO.N,Net-(U34-B)*%
X141723950Y-123919100D03*
%TO.N,Net-(U34-A)*%
X141723950Y-121379100D03*
%TO.N,Net-(U34-DP)*%
X141723950Y-118839100D03*
%TO.N,GND*%
X141723950Y-116299100D03*
%TO.N,Net-(SW7-B)*%
X141723950Y-113759100D03*
%TO.N,GND*%
X141723950Y-111219100D03*
X141723950Y-108679100D03*
%TO.N,Net-(U32B-~{Q})*%
X141723950Y-106139100D03*
%TO.N,Net-(U32A-~{Q})*%
X141723950Y-103599100D03*
%TO.N,N/C*%
X141723950Y-101059100D03*
%TO.N,VCC*%
X141723950Y-98519100D03*
X141723950Y-95979100D03*
%TD*%
D11*
%TO.N,/MAR/PROG*%
%TO.C,U51*%
X241697100Y-124172300D03*
D10*
%TO.N,unconnected-(U51-I0a-Pad2)*%
X241697100Y-126712300D03*
%TO.N,unconnected-(U51-I1a-Pad3)*%
X241697100Y-129252300D03*
%TO.N,unconnected-(U51-Za-Pad4)*%
X241697100Y-131792300D03*
%TO.N,unconnected-(U51-I0b-Pad5)*%
X241697100Y-134332300D03*
%TO.N,unconnected-(U51-I1b-Pad6)*%
X241697100Y-136872300D03*
%TO.N,unconnected-(U51-Zb-Pad7)*%
X241697100Y-139412300D03*
%TO.N,GND*%
X241697100Y-141952300D03*
%TO.N,unconnected-(U51-Zd-Pad9)*%
X249317100Y-141952300D03*
%TO.N,unconnected-(U51-I1d-Pad10)*%
X249317100Y-139412300D03*
%TO.N,unconnected-(U51-I0d-Pad11)*%
X249317100Y-136872300D03*
%TO.N,Net-(U51-Zc)*%
X249317100Y-134332300D03*
%TO.N,Net-(U51-I1c)*%
X249317100Y-131792300D03*
%TO.N,Net-(U51-I0c)*%
X249317100Y-129252300D03*
%TO.N,GND*%
X249317100Y-126712300D03*
%TO.N,VCC*%
X249317100Y-124172300D03*
%TD*%
D30*
%TO.N,Net-(U1-Q)*%
%TO.C,U4*%
X289437100Y-120607300D03*
D10*
%TO.N,Net-(U3-Q)*%
X286897100Y-120607300D03*
%TO.N,Net-(U4-Pad3)*%
X284357100Y-120607300D03*
%TO.N,Net-(U4-Pad4)*%
X281817100Y-120607300D03*
%TO.N,Net-(U2-Q)*%
X279277100Y-120607300D03*
%TO.N,Net-(U4-Pad6)*%
X276737100Y-120607300D03*
%TO.N,GND*%
X274197100Y-120607300D03*
%TO.N,CLK*%
X274197100Y-128227300D03*
%TO.N,Net-(U4-Pad9)*%
X276737100Y-128227300D03*
%TO.N,Net-(U4-Pad10)*%
X279277100Y-128227300D03*
%TO.N,unconnected-(U4-Pad11)*%
X281817100Y-128227300D03*
%TO.N,unconnected-(U4-Pad12)*%
X284357100Y-128227300D03*
%TO.N,unconnected-(U4-Pad13)*%
X286897100Y-128227300D03*
%TO.N,VCC*%
X289437100Y-128227300D03*
%TD*%
D22*
%TO.N,~{CLR}*%
%TO.C,U38*%
X151697100Y-134632300D03*
D23*
%TO.N,Net-(U38-Q0)*%
X151697100Y-137172300D03*
%TO.N,BUS_0*%
X151697100Y-139712300D03*
%TO.N,BUS_1*%
X151697100Y-142252300D03*
%TO.N,Net-(U38-Q1)*%
X151697100Y-144792300D03*
%TO.N,Net-(U38-Q2)*%
X151697100Y-147332300D03*
%TO.N,BUS_2*%
X151697100Y-149872300D03*
%TO.N,BUS_3*%
X151697100Y-152412300D03*
%TO.N,Net-(U38-Q3)*%
X151697100Y-154952300D03*
%TO.N,GND*%
X151697100Y-157492300D03*
%TO.N,Net-(U38-Cp)*%
X159317100Y-157492300D03*
%TO.N,Net-(U38-Q4)*%
X159317100Y-154952300D03*
%TO.N,BUS_4*%
X159317100Y-152412300D03*
%TO.N,BUS_5*%
X159317100Y-149872300D03*
%TO.N,Net-(U38-Q5)*%
X159317100Y-147332300D03*
%TO.N,Net-(U38-Q6)*%
X159317100Y-144792300D03*
%TO.N,BUS_6*%
X159317100Y-142252300D03*
%TO.N,BUS_7*%
X159317100Y-139712300D03*
%TO.N,Net-(U38-Q7)*%
X159317100Y-137172300D03*
%TO.N,VCC*%
X159317100Y-134632300D03*
%TD*%
D13*
%TO.N,GND*%
%TO.C,U49*%
X196627100Y-79672300D03*
D14*
X196627100Y-77132300D03*
%TO.N,/ALU/A_7*%
X196627100Y-74592300D03*
%TO.N,/ALU/A_6*%
X196627100Y-72052300D03*
%TO.N,/ALU/A_5*%
X196627100Y-69512300D03*
%TO.N,/ALU/A_4*%
X196627100Y-66972300D03*
%TO.N,CLK*%
X196627100Y-64432300D03*
%TO.N,GND*%
X196627100Y-61892300D03*
%TO.N,~{AI}*%
X189007100Y-61892300D03*
X189007100Y-64432300D03*
%TO.N,BUS_4*%
X189007100Y-66972300D03*
%TO.N,BUS_5*%
X189007100Y-69512300D03*
%TO.N,BUS_6*%
X189007100Y-72052300D03*
%TO.N,BUS_7*%
X189007100Y-74592300D03*
%TO.N,CLR*%
X189007100Y-77132300D03*
%TO.N,VCC*%
X189007100Y-79672300D03*
%TD*%
D10*
%TO.N,Net-(D40-K)*%
%TO.C,R42*%
X52317100Y-117412300D03*
%TO.N,GND*%
X52317100Y-109792300D03*
%TD*%
D12*
%TO.N,VCC*%
%TO.C,C9*%
X255993900Y-76199100D03*
%TO.N,GND*%
X257993900Y-76199100D03*
%TD*%
D10*
%TO.N,Net-(D21-K)*%
%TO.C,R21*%
X228647100Y-47332300D03*
%TO.N,GND*%
X228647100Y-54952300D03*
%TD*%
D15*
%TO.N,Net-(D51-K)*%
%TO.C,D51*%
X107607100Y-122412300D03*
D16*
%TO.N,Net-(D51-A)*%
X110147100Y-122412300D03*
%TD*%
D10*
%TO.N,Net-(D61-K)*%
%TO.C,R63*%
X114912100Y-81552300D03*
%TO.N,GND*%
X114912100Y-73932300D03*
%TD*%
%TO.N,BUS_4*%
%TO.C,R76*%
X63397900Y-100787700D03*
%TO.N,GND*%
X71017900Y-100787700D03*
%TD*%
%TO.N,Net-(D12-K)*%
%TO.C,R11*%
X252167100Y-109542300D03*
%TO.N,GND*%
X252167100Y-117162300D03*
%TD*%
D15*
%TO.N,Net-(D024-K)*%
%TO.C,D024*%
X324420000Y-78920000D03*
D16*
%TO.N,/ALU/B_5*%
X326960000Y-78920000D03*
%TD*%
D10*
%TO.N,Net-(D58-A)*%
%TO.C,R56*%
X117412100Y-98552300D03*
%TO.N,VCC*%
X117412100Y-90932300D03*
%TD*%
D15*
%TO.N,Net-(D4-K)*%
%TO.C,D4*%
X211567100Y-81162300D03*
D16*
%TO.N,/ALU/A_5*%
X209027100Y-81162300D03*
%TD*%
D31*
%TO.N,*%
%TO.C,SW2*%
X302797500Y-155100000D03*
X302797500Y-146900000D03*
D32*
%TO.N,Net-(SW2-A)*%
X302797500Y-153000000D03*
D33*
%TO.N,GND*%
X302797500Y-151000000D03*
%TO.N,Net-(SW2-C)*%
X302797500Y-149000000D03*
%TD*%
D10*
%TO.N,BUS_1*%
%TO.C,R79*%
X53547700Y-99157100D03*
%TO.N,GND*%
X45927700Y-99157100D03*
%TD*%
%TO.N,BUS_0*%
%TO.C,R80*%
X53667700Y-104657100D03*
%TO.N,GND*%
X46047700Y-104657100D03*
%TD*%
%TO.N,BUS_3*%
%TO.C,R77*%
X53667700Y-89157100D03*
%TO.N,GND*%
X46047700Y-89157100D03*
%TD*%
%TO.N,BUS_2*%
%TO.C,R78*%
X53667700Y-94157100D03*
%TO.N,GND*%
X46047700Y-94157100D03*
%TD*%
D34*
%TO.N,Net-(U21-\u002AWE)*%
X194483516Y-115968542D03*
%TO.N,Net-(U23-D0)*%
X197400000Y-117001000D03*
%TO.N,Net-(U23-\u002AO0)*%
X195556000Y-110535000D03*
X194849000Y-120128000D03*
%TO.N,Net-(U23-\u002AO1)*%
X198734000Y-105380000D03*
X194854100Y-120939000D03*
%TO.N,Net-(U23-\u002AO3)*%
X202595000Y-118357000D03*
X207238000Y-116880000D03*
%TO.N,Net-(U23-\u002AO2)*%
X221826000Y-120907000D03*
X202903000Y-121194000D03*
%TO.N,Net-(U21-\u002AO3)*%
X190077000Y-119160000D03*
%TO.N,Net-(U21-\u002AO0)*%
X186162000Y-118057000D03*
%TO.N,Net-(U21-\u002AO1)*%
X185962000Y-120913000D03*
%TO.N,Net-(U21-\u002AO2)*%
X194498400Y-115023417D03*
X194058000Y-122162000D03*
%TO.N,Net-(U21-\u002AWE)*%
X192636000Y-123800000D03*
X190317000Y-115494000D03*
%TO.N,Net-(U23-D3)*%
X199398000Y-118233000D03*
X207130000Y-132359000D03*
%TO.N,Net-(U14-B3)*%
X292886000Y-63416500D03*
%TO.N,Net-(U23-D1)*%
X194622000Y-118387000D03*
%TO.N,Net-(U38-Q4)*%
X128661000Y-152958000D03*
%TO.N,Net-(U38-Q5)*%
X133250700Y-141032000D03*
%TO.N,Net-(U38-Q6)*%
X155157000Y-105397000D03*
%TO.N,Net-(U38-Q1)*%
X149878000Y-120401000D03*
%TO.N,Net-(U38-Q3)*%
X127428000Y-153682000D03*
%TO.N,Net-(U38-Q7)*%
X155858000Y-102857000D03*
%TO.N,Net-(U38-Q0)*%
X147798000Y-121278000D03*
%TO.N,Net-(U34-C)*%
X118546000Y-129126000D03*
%TO.N,Net-(U34-D)*%
X115309000Y-132558000D03*
%TO.N,Net-(U52-I0b)*%
X200385000Y-131788000D03*
%TO.N,Net-(U31-Q)*%
X128594000Y-154563000D03*
%TO.N,~{AO}*%
X236986000Y-67047300D03*
%TO.N,~{AI}*%
X231852000Y-62719000D03*
%TO.N,~{II}*%
X166071000Y-38288700D03*
X233308000Y-90983900D03*
X203828000Y-57383900D03*
X227005000Y-57822800D03*
%TO.N,~{IO}*%
X191805000Y-50124400D03*
X230394000Y-51412300D03*
%TO.N,Net-(U51-I1c)*%
X242216000Y-110489000D03*
%TO.N,Net-(U26-Pad6)*%
X202792000Y-70525700D03*
%TO.N,Net-(U42-O5)*%
X203176000Y-113399000D03*
X139287000Y-109890000D03*
%TO.N,~{CLR}*%
X188062000Y-111166000D03*
X151712000Y-116600000D03*
X178250200Y-114084500D03*
%TO.N,~{RO}*%
X145281000Y-144032000D03*
%TO.N,Net-(U23-D0)*%
X197889000Y-130082000D03*
X211500300Y-131562600D03*
%TO.N,Net-(U24-Zd)*%
X204569000Y-129467000D03*
%TO.N,Net-(U21-D2)*%
X189820000Y-123708000D03*
X248101000Y-122782000D03*
%TO.N,Net-(U24-Zc)*%
X217194000Y-137089000D03*
X198062000Y-136389000D03*
%TO.N,Net-(U21-D1)*%
X186194000Y-119660000D03*
X246328000Y-118276000D03*
%TO.N,Net-(U24-Zb)*%
X196124000Y-137505000D03*
%TO.N,BUS_7*%
X208835000Y-73630400D03*
X184245000Y-64748600D03*
X211537000Y-90741800D03*
%TO.N,BUS_6*%
X204792000Y-66933600D03*
X210259000Y-94476900D03*
X213142000Y-90562700D03*
%TO.N,BUS_4*%
X294001000Y-92442700D03*
X221010000Y-88563100D03*
X185193000Y-61968500D03*
X64659700Y-63402900D03*
%TO.N,~{EO}*%
X252691000Y-57609100D03*
%TO.N,~{FI}*%
X136289000Y-61180500D03*
%TO.N,Net-(D19-A)*%
X288425000Y-73016500D03*
%TO.N,Net-(U10-Pad2)*%
X268339000Y-50227500D03*
%TO.N,Net-(U10-Pad10)*%
X300158000Y-75975500D03*
%TO.N,Net-(U10-Pad1)*%
X274949000Y-47352100D03*
%TO.N,~{BI}*%
X133268000Y-94190200D03*
%TO.N,CLR*%
X238193000Y-50356500D03*
%TO.N,Net-(U21-D3)*%
X189963000Y-118007800D03*
X207914000Y-143562700D03*
%TO.N,Net-(U23-D2)*%
X226064100Y-125253700D03*
%TO.N,Net-(U21-D0)*%
X185956000Y-117207000D03*
%TO.N,~{CLK}*%
X242089000Y-55046900D03*
X245833300Y-57898600D03*
%TO.N,Net-(U4-Pad6)*%
X285629000Y-141685000D03*
%TO.N,Net-(U4-Pad9)*%
X279267000Y-144133000D03*
%TO.N,Net-(U4-Pad3)*%
X286474000Y-141025000D03*
%TO.N,Net-(U3-Q)*%
X289606000Y-143293000D03*
%TO.N,Net-(U2-Q)*%
X281272000Y-140428000D03*
%TO.N,Net-(SW7-B)*%
X125148000Y-115060000D03*
%TO.N,Net-(U24-I0d)*%
X182047000Y-140798000D03*
%TO.N,Net-(R64-Pad1)*%
X100297000Y-94132100D03*
X209586000Y-97378300D03*
%TO.N,Net-(U31-DIS)*%
X127268000Y-152411000D03*
X160050000Y-153785000D03*
%TO.N,Net-(U1-DIS)*%
X301029000Y-119814000D03*
%TO.N,Net-(D119-A)*%
X193326000Y-52528200D03*
%TO.N,IR_5*%
X173131000Y-48324000D03*
%TO.N,IR_7*%
X176656000Y-41383500D03*
%TO.N,BUS_3*%
X161732000Y-77729000D03*
X244189000Y-87624000D03*
X167597000Y-48883000D03*
X181247000Y-151092000D03*
X280534000Y-87640000D03*
%TO.N,BUS_2*%
X280155000Y-89116300D03*
X187271000Y-63767900D03*
X160702000Y-80839200D03*
X280030000Y-68788800D03*
%TO.N,BUS_1*%
X147453000Y-67904500D03*
X275816000Y-69712700D03*
X178929000Y-142117000D03*
X187242000Y-143496000D03*
X178979000Y-67963700D03*
X190051000Y-65767900D03*
%TO.N,BUS_0*%
X226205000Y-46385500D03*
X279404000Y-67053900D03*
X243489000Y-67098500D03*
X168871000Y-85475200D03*
%TO.N,Net-(D61-A)*%
X75447900Y-49840000D03*
%TO.N,Net-(D59-A)*%
X91331400Y-86974400D03*
%TO.N,Net-(D53-A)*%
X109972000Y-42104200D03*
%TO.N,Net-(D52-A)*%
X135102000Y-58289600D03*
%TO.N,Net-(D51-A)*%
X133039000Y-60702300D03*
%TO.N,CE*%
X106085000Y-69476400D03*
%TO.N,OI*%
X142803000Y-96698100D03*
X143727000Y-114351000D03*
%TO.N,Net-(D48-A)*%
X100323000Y-64884100D03*
%TO.N,SU*%
X97325800Y-58221500D03*
%TO.N,Net-(D46-A)*%
X91480800Y-58208300D03*
%TO.N,Net-(D44-A)*%
X76076900Y-115678000D03*
%TO.N,Net-(D43-A)*%
X74665000Y-103212000D03*
%TO.N,Net-(D42-A)*%
X101999000Y-119963000D03*
%TO.N,Net-(D41-A)*%
X95372200Y-120041000D03*
X121303000Y-60635000D03*
%TO.N,RI*%
X58362200Y-66914500D03*
X56026900Y-108896000D03*
%TO.N,Net-(D39-A)*%
X107408000Y-38154300D03*
X103709000Y-120553000D03*
%TO.N,HLT*%
X55365000Y-55262500D03*
X250154000Y-57609100D03*
%TO.N,Net-(D30-A)*%
X223208000Y-149950000D03*
%TO.N,/ALU/B_0*%
X299426000Y-97344600D03*
%TO.N,Net-(D29-A)*%
X220699000Y-152910000D03*
%TO.N,/ALU/B_1*%
X289142000Y-83758700D03*
%TO.N,Net-(D27-A)*%
X214066000Y-152793000D03*
%TO.N,/ALU/B_2*%
X295115000Y-87536800D03*
%TO.N,Net-(D26-A)*%
X212969000Y-151198000D03*
%TO.N,/ALU/B_4*%
X300294000Y-90997500D03*
%TO.N,/ALU/B_5*%
X304288000Y-87671700D03*
X283152000Y-87637700D03*
%TO.N,/ALU/B_6*%
X301869000Y-76088000D03*
X305687000Y-85524300D03*
%TO.N,/MAR/A0*%
X190777000Y-110535000D03*
X242202000Y-108176000D03*
%TO.N,/ALU/B_7*%
X306541000Y-81776300D03*
%TO.N,/MAR/A1*%
X218505000Y-113600000D03*
X200156000Y-114210000D03*
X194133000Y-113432000D03*
%TO.N,/MAR/A2*%
X194468000Y-116794000D03*
X199776000Y-116104000D03*
X233252000Y-111341000D03*
%TO.N,/MAR/A3*%
X210862000Y-43827100D03*
X204452000Y-84852500D03*
X202772000Y-116895000D03*
X194234000Y-117601000D03*
%TO.N,Net-(D17-A)*%
X298281000Y-81405700D03*
%TO.N,Net-(D16-A)*%
X271057000Y-84820800D03*
X275120000Y-60275500D03*
%TO.N,Net-(D15-A)*%
X274893000Y-57331700D03*
%TO.N,CF*%
X126499000Y-50590700D03*
%TO.N,Net-(D13-A)*%
X274713000Y-54557600D03*
%TO.N,Net-(D12-A)*%
X282678000Y-73355000D03*
%TO.N,Net-(D11-A)*%
X268949000Y-64317800D03*
%TO.N,/ALU/A_0*%
X282976000Y-59564100D03*
%TO.N,/ALU/A_1*%
X286874000Y-64934500D03*
%TO.N,/ALU/A_2*%
X291414600Y-60806000D03*
X291323100Y-67098500D03*
X248034700Y-69444400D03*
%TO.N,/ALU/A_3*%
X293268000Y-64185100D03*
X292704000Y-69839500D03*
%TO.N,/ALU/A_4*%
X271015000Y-55070500D03*
X211004400Y-57472800D03*
%TO.N,/ALU/A_5*%
X213547000Y-55626000D03*
%TO.N,/ALU/A_6*%
X216182000Y-57559400D03*
%TO.N,Net-(U31-THR)*%
X126033000Y-130202000D03*
X122293000Y-152389000D03*
%TO.N,CLK*%
X281241000Y-95777600D03*
X282076000Y-64151600D03*
%TO.N,Net-(C14-Pad2)*%
X263111000Y-106742000D03*
%TO.N,BUS_5*%
X207837000Y-132970000D03*
X162218000Y-76778700D03*
X162243000Y-70057500D03*
X304115000Y-96706200D03*
X217807000Y-87876600D03*
X211547000Y-87876600D03*
X165746000Y-43433300D03*
%TO.N,Net-(U1-THR)*%
X296276000Y-119777000D03*
%TO.N,VCC*%
X284500000Y-149000000D03*
X26500000Y-112000000D03*
X27500000Y-108000000D03*
X298000000Y-119000000D03*
X294000000Y-123500000D03*
X288000000Y-147500000D03*
X284500000Y-145000000D03*
X278000000Y-142500000D03*
X204000000Y-116000000D03*
X191000000Y-114000000D03*
X127500000Y-151000000D03*
%TO.N,Net-(U2-CV)*%
X279659000Y-147142000D03*
%TO.N,GND*%
X294000000Y-148000000D03*
X26000000Y-114000000D03*
X292500000Y-118500000D03*
X119000000Y-151000000D03*
X285000000Y-140500000D03*
%TD*%
D35*
%TO.N,Net-(U23-\u002AO0)*%
X196638000Y-109452000D02*
X195556000Y-110535000D01*
X225661000Y-109452000D02*
X196638000Y-109452000D01*
X226613000Y-110405000D02*
X225661000Y-109452000D01*
X226613200Y-110405000D02*
X226613000Y-110405000D01*
%TO.N,Net-(U23-\u002AO3)*%
X219722000Y-116880000D02*
X207238000Y-116880000D01*
X223657000Y-112945000D02*
X219722000Y-116880000D01*
X223657400Y-112945000D02*
X223657000Y-112945000D01*
%TO.N,Net-(U21-\u002AO0)*%
X215088000Y-105325000D02*
X216037000Y-105325000D01*
X213640000Y-106773000D02*
X215088000Y-105325000D01*
X196758000Y-106773000D02*
X213640000Y-106773000D01*
X186558000Y-116973000D02*
X196758000Y-106773000D01*
X186558000Y-117662000D02*
X186558000Y-116973000D01*
X186162000Y-118057000D02*
X186558000Y-117662000D01*
X216037400Y-105325000D02*
X216037000Y-105325000D01*
%TO.N,Net-(U21-\u002AO1)*%
X214904000Y-111538000D02*
X216037000Y-110405000D01*
X192576000Y-111538000D02*
X214904000Y-111538000D01*
X189715000Y-114399000D02*
X192576000Y-111538000D01*
X189715000Y-117160000D02*
X189715000Y-114399000D01*
X185962000Y-120913000D02*
X189715000Y-117160000D01*
X216037400Y-110405000D02*
X216037000Y-110405000D01*
%TO.N,Net-(U21-\u002AWE)*%
X227527100Y-128207300D02*
X227526900Y-128207100D01*
X227527000Y-128207000D02*
X227526900Y-128207100D01*
X193342000Y-123800000D02*
X192636000Y-123800000D01*
X197724000Y-128182000D02*
X193342000Y-123800000D01*
X204198000Y-128182000D02*
X197724000Y-128182000D01*
X205361000Y-129346000D02*
X204198000Y-128182000D01*
X226388000Y-129346000D02*
X205361000Y-129346000D01*
X227526900Y-128207100D02*
X226388000Y-129346000D01*
%TO.N,Net-(U23-D1)*%
X254492000Y-129692000D02*
X260750000Y-135950000D01*
X250436000Y-129692000D02*
X254492000Y-129692000D01*
X249774000Y-130354000D02*
X250436000Y-129692000D01*
X238852000Y-130354000D02*
X249774000Y-130354000D01*
X235382000Y-126884000D02*
X238852000Y-130354000D01*
X213124000Y-126884000D02*
X235382000Y-126884000D01*
X208868000Y-122628000D02*
X213124000Y-126884000D01*
X198864000Y-122628000D02*
X208868000Y-122628000D01*
X194622000Y-118387000D02*
X198864000Y-122628000D01*
%TO.N,Net-(U38-Q4)*%
X157981000Y-153616000D02*
X159317000Y-154952000D01*
X129320000Y-153616000D02*
X157981000Y-153616000D01*
X128661000Y-152958000D02*
X129320000Y-153616000D01*
X159317000Y-154952200D02*
X159317000Y-154952000D01*
X159317100Y-154952300D02*
X159317000Y-154952200D01*
%TO.N,Net-(U38-Q5)*%
X135177800Y-142959100D02*
X133250700Y-141032000D01*
X150388900Y-142959100D02*
X135177800Y-142959100D01*
X150952100Y-143522300D02*
X150388900Y-142959100D01*
X155507100Y-143522300D02*
X150952100Y-143522300D01*
X159317100Y-147332300D02*
X155507100Y-143522300D01*
%TO.N,Net-(U38-Q0)*%
X126166500Y-118839500D02*
X126166500Y-118839100D01*
X126515800Y-119188800D02*
X126166500Y-118839500D01*
X127436000Y-120109000D02*
X126515800Y-119188800D01*
X143728000Y-120109000D02*
X127436000Y-120109000D01*
X144991000Y-121372000D02*
X143728000Y-120109000D01*
X147704000Y-121372000D02*
X144991000Y-121372000D01*
X147798000Y-121278000D02*
X147704000Y-121372000D01*
X126515800Y-119188800D02*
X126166000Y-118839000D01*
%TO.N,Net-(U34-B)*%
X105846000Y-129513000D02*
X105846000Y-130639000D01*
X117921000Y-129413000D02*
X117921000Y-129112000D01*
X119147000Y-130639000D02*
X117921000Y-129413000D01*
X119896000Y-130639000D02*
X119147000Y-130639000D01*
X106248000Y-129112000D02*
X105846000Y-129513000D01*
X117921000Y-129112000D02*
X106248000Y-129112000D01*
X117921000Y-128897000D02*
X117921000Y-129112000D01*
X121629000Y-125189000D02*
X117921000Y-128897000D01*
X140454000Y-125189000D02*
X121629000Y-125189000D01*
X141724000Y-123919000D02*
X140454000Y-125189000D01*
X92922300Y-129513000D02*
X105846000Y-129513000D01*
X91796400Y-130639000D02*
X92922300Y-129513000D01*
X91086500Y-130639000D02*
X91796400Y-130639000D01*
X89956400Y-131769000D02*
X91086500Y-130639000D01*
X88788900Y-131769000D02*
X89956400Y-131769000D01*
X88129100Y-131109000D02*
X88788900Y-131769000D01*
X88129100Y-130449000D02*
X88129100Y-131109000D01*
X87212200Y-129532000D02*
X88129100Y-130449000D01*
X78853000Y-129532000D02*
X87212200Y-129532000D01*
X77746400Y-130639000D02*
X78853000Y-129532000D01*
X141724000Y-123919100D02*
X141724000Y-123919000D01*
X119896100Y-130639100D02*
X119896000Y-130639000D01*
X119896400Y-130639100D02*
X119896100Y-130639100D01*
X91796400Y-130639100D02*
X91796400Y-130639000D01*
X77746400Y-130639000D02*
X77746400Y-130639100D01*
X105846000Y-130639100D02*
X105846000Y-130639000D01*
X105846400Y-130639100D02*
X105846000Y-130639100D01*
%TO.N,Net-(U34-A)*%
X75206400Y-130639000D02*
X75206400Y-130639100D01*
X117356100Y-130639100D02*
X117356000Y-130639000D01*
X117356400Y-130639100D02*
X117356100Y-130639100D01*
X103306400Y-130639400D02*
X103306400Y-130639100D01*
X103695000Y-131028000D02*
X103306400Y-130639400D01*
X104436000Y-131769000D02*
X103695000Y-131028000D01*
X106497000Y-131769000D02*
X104436000Y-131769000D01*
X108753000Y-129513000D02*
X106497000Y-131769000D01*
X116230000Y-129513000D02*
X108753000Y-129513000D01*
X117356000Y-130639000D02*
X116230000Y-129513000D01*
X103695000Y-131028000D02*
X103306000Y-130639000D01*
X76714700Y-129131000D02*
X75206400Y-130639000D01*
X87748100Y-129131000D02*
X76714700Y-129131000D01*
X89256400Y-130639000D02*
X87748100Y-129131000D01*
X89256400Y-130639100D02*
X89256400Y-130639000D01*
%TO.N,Net-(U34-DP)*%
X118795000Y-144777000D02*
X119896000Y-145879000D01*
X105846000Y-144777000D02*
X118795000Y-144777000D01*
X79272000Y-144354000D02*
X77746400Y-145879000D01*
X90270800Y-144354000D02*
X79272000Y-144354000D01*
X91796400Y-145879000D02*
X90270800Y-144354000D01*
X99699900Y-144376000D02*
X99464500Y-144611000D01*
X105445000Y-144376000D02*
X99699900Y-144376000D01*
X105846000Y-144777000D02*
X105445000Y-144376000D01*
X99464500Y-144611000D02*
X99299700Y-144776000D01*
X99464500Y-144611000D02*
X99299700Y-144776000D01*
X92899600Y-144776000D02*
X91796400Y-145879000D01*
X99299700Y-144776000D02*
X92899600Y-144776000D01*
X77746400Y-145879100D02*
X77746400Y-145879000D01*
X91796400Y-145879100D02*
X91796400Y-145879000D01*
X105846400Y-145429400D02*
X105846400Y-145879100D01*
X105846000Y-145429000D02*
X105846400Y-145429400D01*
X105846000Y-145879000D02*
X105846000Y-145429000D01*
X105846000Y-145429000D02*
X105846000Y-144777000D01*
X119896300Y-145879000D02*
X119896000Y-145879000D01*
X119896400Y-145879100D02*
X119896300Y-145879000D01*
%TO.N,Net-(U34-C)*%
X93098300Y-147202000D02*
X93263100Y-147038000D01*
X93098300Y-147202000D02*
X93263100Y-147038000D01*
X102148000Y-147038000D02*
X103306000Y-145879000D01*
X93263100Y-147038000D02*
X102148000Y-147038000D01*
X141002100Y-127181000D02*
X141724000Y-126459100D01*
X141002000Y-127181000D02*
X141002100Y-127181000D01*
X141724000Y-126459000D02*
X141002000Y-127181000D01*
X119769000Y-127903000D02*
X118546000Y-129126000D01*
X140280000Y-127903000D02*
X119769000Y-127903000D01*
X141002000Y-127181000D02*
X140280000Y-127903000D01*
X103306100Y-145879100D02*
X103306000Y-145879000D01*
X103306400Y-145879100D02*
X103306100Y-145879100D01*
X92862900Y-147438000D02*
X93098300Y-147202000D01*
X90815000Y-147438000D02*
X92862900Y-147438000D01*
X89256400Y-145879000D02*
X90815000Y-147438000D01*
X89256400Y-145879100D02*
X89256400Y-145879000D01*
X75206400Y-145879000D02*
X75206400Y-145879100D01*
X88154700Y-146981000D02*
X89256400Y-145879100D01*
X76308100Y-146981000D02*
X88154700Y-146981000D01*
X75206400Y-145879100D02*
X76308100Y-146981000D01*
%TO.N,Net-(U34-D)*%
X98226500Y-145879000D02*
X98226400Y-145879100D01*
X98595600Y-145879000D02*
X98226500Y-145879000D01*
X98595600Y-145879000D02*
X98226400Y-145879000D01*
X141724000Y-128999500D02*
X141724000Y-128999100D01*
X139945000Y-130778500D02*
X141724000Y-128999500D01*
X141724000Y-128999000D02*
X139945000Y-130778500D01*
X138166000Y-132558000D02*
X115309000Y-132558000D01*
X139945000Y-130778500D02*
X138166000Y-132558000D01*
X111722500Y-146433000D02*
X112276400Y-145879100D01*
X111722000Y-146433000D02*
X111722500Y-146433000D01*
X112276000Y-145879000D02*
X111722000Y-146433000D01*
X98964700Y-145879000D02*
X98595600Y-145879000D01*
X100066000Y-144777000D02*
X98964700Y-145879000D01*
X103849000Y-144777000D02*
X100066000Y-144777000D01*
X104576000Y-145505000D02*
X103849000Y-144777000D01*
X104576000Y-146233000D02*
X104576000Y-145505000D01*
X105330000Y-146987000D02*
X104576000Y-146233000D01*
X111168000Y-146987000D02*
X105330000Y-146987000D01*
X111722000Y-146433000D02*
X111168000Y-146987000D01*
%TO.N,Net-(U34-E)*%
X95686400Y-145879100D02*
X95686400Y-145879000D01*
X81636500Y-145879000D02*
X81636400Y-145879100D01*
X82086400Y-145879000D02*
X81636500Y-145879000D01*
X81636400Y-145879000D02*
X82086400Y-145879000D01*
X93653300Y-145879000D02*
X95686400Y-145879000D01*
X92546400Y-146986000D02*
X93653300Y-145879000D01*
X91345300Y-146986000D02*
X92546400Y-146986000D01*
X90694700Y-146335000D02*
X91345300Y-146986000D01*
X90694700Y-145702000D02*
X90694700Y-146335000D01*
X89747900Y-144755000D02*
X90694700Y-145702000D01*
X83666900Y-144755000D02*
X89747900Y-144755000D01*
X82738100Y-145684000D02*
X83666900Y-144755000D01*
X82738100Y-145879000D02*
X82738100Y-145684000D01*
X82086400Y-145879000D02*
X82738100Y-145879000D01*
%TO.N,Net-(U34-F)*%
X90558300Y-131936000D02*
X90723100Y-131771000D01*
X90558300Y-131936000D02*
X90723100Y-131771000D01*
X98226400Y-130639200D02*
X98226400Y-130639100D01*
X97660600Y-131205000D02*
X98226400Y-130639200D01*
X97094800Y-131771000D02*
X97660600Y-131205000D01*
X90723100Y-131771000D02*
X97094800Y-131771000D01*
X97660600Y-131205000D02*
X98226400Y-130639000D01*
X90322900Y-132171000D02*
X90558300Y-131936000D01*
X85708200Y-132171000D02*
X90322900Y-132171000D01*
X84176400Y-130639000D02*
X85708200Y-132171000D01*
X84176400Y-130639100D02*
X84176400Y-130639000D01*
X70126400Y-130639000D02*
X70126400Y-130639100D01*
X83074700Y-131741000D02*
X84176400Y-130639100D01*
X71228100Y-131741000D02*
X83074700Y-131741000D01*
X70126400Y-130639100D02*
X71228100Y-131741000D01*
%TO.N,~{AO}*%
X208497000Y-64662300D02*
X208497100Y-64662300D01*
X210882000Y-67047300D02*
X236986000Y-67047300D01*
X208497100Y-64662300D02*
X210882000Y-67047300D01*
%TO.N,~{II}*%
X205197100Y-38672100D02*
X205197100Y-38672300D01*
X205005500Y-38480500D02*
X205197100Y-38672100D01*
X204814000Y-38288700D02*
X205005500Y-38480500D01*
X166071000Y-38288700D02*
X204814000Y-38288700D01*
X205005500Y-38480500D02*
X205197000Y-38672300D01*
%TO.N,~{IO}*%
X176124000Y-50124400D02*
X191805000Y-50124400D01*
X171110000Y-45110000D02*
X176124000Y-50124400D01*
%TO.N,Net-(U42-O5)*%
X82169000Y-104769000D02*
X81740000Y-104340000D01*
X134166000Y-104769000D02*
X82169000Y-104769000D01*
X139287000Y-109890000D02*
X134166000Y-104769000D01*
%TO.N,~{CLR}*%
X178250200Y-113352200D02*
X178250200Y-114084500D01*
X177955000Y-113057000D02*
X178250200Y-113352200D01*
X155256000Y-113057000D02*
X177955000Y-113057000D01*
X151712000Y-116600000D02*
X155256000Y-113057000D01*
X186170000Y-113057000D02*
X188062000Y-111166000D01*
X177955000Y-113057000D02*
X186170000Y-113057000D01*
%TO.N,Net-(U23-D0)*%
X198413500Y-130606500D02*
X197889000Y-130082000D01*
X203657900Y-130606500D02*
X198413500Y-130606500D01*
X204891900Y-131840500D02*
X203657900Y-130606500D01*
X206557100Y-131840500D02*
X204891900Y-131840500D01*
X206835000Y-131562600D02*
X206557100Y-131840500D01*
X211500300Y-131562600D02*
X206835000Y-131562600D01*
%TO.N,Net-(U24-Zc)*%
X199847000Y-138174000D02*
X198062000Y-136389000D01*
X202894000Y-138174000D02*
X199847000Y-138174000D01*
X203978000Y-137089000D02*
X202894000Y-138174000D01*
X217194000Y-137089000D02*
X203978000Y-137089000D01*
%TO.N,Net-(U24-Zb)*%
X227526700Y-130747300D02*
X227527100Y-130747300D01*
X227138100Y-131135900D02*
X227526700Y-130747300D01*
X227527000Y-130747000D02*
X227138100Y-131135900D01*
X196124000Y-137476000D02*
X196124000Y-137505000D01*
X197813000Y-135788000D02*
X196124000Y-137476000D01*
X204449000Y-135788000D02*
X197813000Y-135788000D01*
X205521000Y-134716000D02*
X204449000Y-135788000D01*
X209631000Y-134716000D02*
X205521000Y-134716000D01*
X212339000Y-132007000D02*
X209631000Y-134716000D01*
X226267000Y-132007000D02*
X212339000Y-132007000D01*
X227138100Y-131135900D02*
X226267000Y-132007000D01*
%TO.N,BUS_7*%
X257817000Y-90792300D02*
X257817100Y-90792300D01*
X303572000Y-99332100D02*
X305790000Y-101550000D01*
X281190000Y-99332100D02*
X303572000Y-99332100D01*
X276736000Y-94877900D02*
X281190000Y-99332100D01*
X261903000Y-94877900D02*
X276736000Y-94877900D01*
X257817100Y-90792300D02*
X261903000Y-94877900D01*
%TO.N,BUS_6*%
X189007100Y-72052300D02*
X189007100Y-72052200D01*
X190277000Y-70782300D02*
X189007100Y-72052200D01*
X200943000Y-70782300D02*
X190277000Y-70782300D01*
X204792000Y-66933600D02*
X200943000Y-70782300D01*
X189007100Y-72052200D02*
X189007000Y-72052300D01*
%TO.N,BUS_4*%
X310807000Y-92442700D02*
X294001000Y-92442700D01*
X311950000Y-91300000D02*
X310807000Y-92442700D01*
X266238000Y-91593000D02*
X265437000Y-90792300D01*
X266237800Y-91593000D02*
X265437100Y-90792300D01*
X266238000Y-91593000D02*
X266237800Y-91593000D01*
X267088000Y-92442700D02*
X266238000Y-91593000D01*
X294001000Y-92442700D02*
X267088000Y-92442700D01*
X213596700Y-140897300D02*
X213597100Y-140897300D01*
X213208100Y-141285900D02*
X213596700Y-140897300D01*
X213597000Y-140897000D02*
X213208100Y-141285900D01*
X204593000Y-142167000D02*
X200460000Y-146300000D01*
X212327000Y-142167000D02*
X204593000Y-142167000D01*
X213208100Y-141285900D02*
X212327000Y-142167000D01*
%TO.N,/MAR/PROG*%
X267170000Y-37710000D02*
X269000000Y-35880000D01*
X264500000Y-37710000D02*
X267170000Y-37710000D01*
X259420000Y-37710000D02*
X264500000Y-37710000D01*
X256880000Y-35170000D02*
X259420000Y-37710000D01*
%TO.N,Net-(D19-A)*%
X274468400Y-75259600D02*
X274468400Y-75260000D01*
X274803200Y-74924800D02*
X274468400Y-75259600D01*
X275738000Y-73990000D02*
X274803200Y-74924800D01*
X287452000Y-73990000D02*
X275738000Y-73990000D01*
X288425000Y-73016500D02*
X287452000Y-73990000D01*
X274803200Y-74924800D02*
X274468000Y-75260000D01*
X273057100Y-98412300D02*
X273057000Y-98412300D01*
X274863000Y-100218000D02*
X273057100Y-98412300D01*
X280783000Y-100218000D02*
X274863000Y-100218000D01*
X284417000Y-103852000D02*
X280783000Y-100218000D01*
X284417100Y-103852100D02*
X284417100Y-103852300D01*
X284417000Y-103852000D02*
X284417100Y-103852100D01*
%TO.N,CLR*%
X238969000Y-49580200D02*
X238193000Y-50356500D01*
X272410000Y-49580200D02*
X238969000Y-49580200D01*
X273780000Y-48210000D02*
X272410000Y-49580200D01*
%TO.N,Net-(U52-Zb)*%
X254234000Y-131974000D02*
X253130000Y-130870000D01*
X254234000Y-136481000D02*
X254234000Y-131974000D01*
X253494000Y-137220000D02*
X254234000Y-136481000D01*
X251614000Y-137220000D02*
X253494000Y-137220000D01*
X250550000Y-138284000D02*
X251614000Y-137220000D01*
X241026000Y-138284000D02*
X250550000Y-138284000D01*
X239672000Y-139637000D02*
X241026000Y-138284000D01*
X207237000Y-139637000D02*
X239672000Y-139637000D01*
X205977000Y-140897000D02*
X207237000Y-139637000D01*
X205977000Y-140897200D02*
X205977000Y-140897000D01*
X205977100Y-140897300D02*
X205977000Y-140897200D01*
%TO.N,Net-(U21-D3)*%
X233755200Y-142299200D02*
X235147100Y-140907300D01*
X212769800Y-142299200D02*
X233755200Y-142299200D01*
X211506300Y-143562700D02*
X212769800Y-142299200D01*
X207914000Y-143562700D02*
X211506300Y-143562700D01*
%TO.N,Net-(U52-Zc)*%
X252782000Y-135602000D02*
X253130000Y-135950000D01*
X238828000Y-135602000D02*
X252782000Y-135602000D01*
X237934000Y-134709000D02*
X238828000Y-135602000D01*
X214706000Y-134709000D02*
X237934000Y-134709000D01*
X213597000Y-135817000D02*
X214706000Y-134709000D01*
X213597000Y-135817200D02*
X213597000Y-135817000D01*
X213597100Y-135817300D02*
X213597000Y-135817200D01*
%TO.N,Net-(SW7-B)*%
X141189600Y-114293500D02*
X141724000Y-113759100D01*
X141189500Y-114293500D02*
X141189600Y-114293500D01*
X141724000Y-113759000D02*
X141189500Y-114293500D01*
X125379000Y-114828000D02*
X125148000Y-115060000D01*
X140655000Y-114828000D02*
X125379000Y-114828000D01*
X141189500Y-114293500D02*
X140655000Y-114828000D01*
%TO.N,Net-(U24-I0b)*%
X183794900Y-136439500D02*
X184417100Y-135817300D01*
X183794500Y-136439500D02*
X183794900Y-136439500D01*
X184417000Y-135817000D02*
X183794500Y-136439500D01*
X169197100Y-138331900D02*
X169197100Y-138332300D01*
X169832000Y-137697000D02*
X169197100Y-138331900D01*
X170467000Y-137062000D02*
X169832000Y-137697000D01*
X183172000Y-137062000D02*
X170467000Y-137062000D01*
X183794500Y-136439500D02*
X183172000Y-137062000D01*
X169832000Y-137697000D02*
X169197000Y-138332000D01*
%TO.N,Net-(U24-I0a)*%
X183597300Y-129017100D02*
X184417100Y-128197300D01*
X183596900Y-129017100D02*
X183597300Y-129017100D01*
X184417000Y-128197000D02*
X183596900Y-129017100D01*
X169197100Y-135791900D02*
X169197100Y-135792300D01*
X170016900Y-134972100D02*
X169197100Y-135791900D01*
X173007000Y-131982000D02*
X170016900Y-134972100D01*
X180632000Y-131982000D02*
X173007000Y-131982000D01*
X183596900Y-129017100D02*
X180632000Y-131982000D01*
X170016900Y-134972100D02*
X169197000Y-135792000D01*
%TO.N,Net-(U24-I0d)*%
X192036800Y-138357000D02*
X192037100Y-138357300D01*
X191753000Y-138357000D02*
X192036800Y-138357000D01*
X192037000Y-138357000D02*
X191753000Y-138357000D01*
X183218000Y-139626000D02*
X182047000Y-140798000D01*
X190201000Y-139626000D02*
X183218000Y-139626000D01*
X191469000Y-138357000D02*
X190201000Y-139626000D01*
X191753000Y-138357000D02*
X191469000Y-138357000D01*
%TO.N,Net-(SW2-A)*%
X302798000Y-153000000D02*
X302797500Y-153000000D01*
X292567100Y-149852300D02*
X292567100Y-149852000D01*
X298098000Y-149852000D02*
X292567100Y-149852000D01*
X301246000Y-153000000D02*
X298098000Y-149852000D01*
X302797500Y-153000000D02*
X301246000Y-153000000D01*
X292567100Y-149852000D02*
X292567000Y-149852000D01*
%TO.N,Net-(D119-A)*%
X191960000Y-53894400D02*
X193326000Y-52528200D01*
X182434000Y-53894400D02*
X191960000Y-53894400D01*
X181270000Y-52730000D02*
X182434000Y-53894400D01*
%TO.N,Net-(D118-A)*%
X192562000Y-42482300D02*
X190000000Y-39920000D01*
X211547000Y-42482300D02*
X192562000Y-42482300D01*
X212817000Y-43752300D02*
X211547000Y-42482300D01*
X212817100Y-43752300D02*
X212817000Y-43752300D01*
%TO.N,Net-(D117-A)*%
X209975000Y-46292300D02*
X212817000Y-46292300D01*
X205942000Y-50325000D02*
X209975000Y-46292300D01*
X192455000Y-50325000D02*
X205942000Y-50325000D01*
X192455000Y-50325100D02*
X192455000Y-50325000D01*
X192054000Y-50726100D02*
X192455000Y-50325100D01*
X188354000Y-50726100D02*
X192054000Y-50726100D01*
X186350000Y-52730000D02*
X188354000Y-50726100D01*
X212817100Y-46292300D02*
X212817000Y-46292300D01*
%TO.N,IR_4*%
X108442600Y-47299700D02*
X108442600Y-47300000D01*
X107900500Y-46757600D02*
X108442600Y-47299700D01*
X108443000Y-47300000D02*
X107900500Y-46757600D01*
X90487400Y-46215200D02*
X89442600Y-47260000D01*
X107358000Y-46215200D02*
X90487400Y-46215200D01*
X107900500Y-46757600D02*
X107358000Y-46215200D01*
%TO.N,IR_5*%
X108442700Y-44760000D02*
X108442800Y-44760100D01*
X108442600Y-44760000D02*
X108442700Y-44760000D01*
X108443000Y-44760000D02*
X108442800Y-44760100D01*
X90480500Y-45757900D02*
X89442600Y-44720000D01*
X107445000Y-45757900D02*
X90480500Y-45757900D01*
X108442800Y-44760100D02*
X107445000Y-45757900D01*
%TO.N,IR_7*%
X161504000Y-41383500D02*
X160040000Y-39920000D01*
X176656000Y-41383500D02*
X161504000Y-41383500D01*
%TO.N,BUS_3*%
X144700000Y-78170000D02*
X143430000Y-79440000D01*
X161291000Y-78170000D02*
X144700000Y-78170000D01*
X161732000Y-77729000D02*
X161291000Y-78170000D01*
X151697100Y-152411900D02*
X151697100Y-152412300D01*
X152099400Y-152009600D02*
X151697100Y-152411900D01*
X153017000Y-151092000D02*
X152099400Y-152009600D01*
X181247000Y-151092000D02*
X153017000Y-151092000D01*
X152099400Y-152009600D02*
X151697000Y-152412000D01*
%TO.N,BUS_2*%
X144571000Y-80839200D02*
X143430000Y-81980000D01*
X160702000Y-80839200D02*
X144571000Y-80839200D01*
X187532000Y-46292300D02*
X186350000Y-45110000D01*
X205197000Y-46292300D02*
X187532000Y-46292300D01*
X205197100Y-46292300D02*
X205197000Y-46292300D01*
%TO.N,BUS_1*%
X181175000Y-65767900D02*
X190051000Y-65767900D01*
X178979000Y-67963700D02*
X181175000Y-65767900D01*
X151697100Y-142251900D02*
X151697100Y-142252300D01*
X152099400Y-141849600D02*
X151697100Y-142251900D01*
X151697000Y-142252000D02*
X152099400Y-141849600D01*
X168884000Y-142117000D02*
X178929000Y-142117000D01*
X167873000Y-141106000D02*
X168884000Y-142117000D01*
X152843000Y-141106000D02*
X167873000Y-141106000D01*
X152099400Y-141849600D02*
X152843000Y-141106000D01*
X244749000Y-68952300D02*
X238947100Y-68952300D01*
X245745000Y-67956700D02*
X244749000Y-68952300D01*
X274060000Y-67956700D02*
X245745000Y-67956700D01*
X275816000Y-69712700D02*
X274060000Y-67956700D01*
X238947100Y-68952300D02*
X238947000Y-68952300D01*
X190248000Y-43752300D02*
X205197000Y-43752300D01*
X188890000Y-45110000D02*
X190248000Y-43752300D01*
X205197100Y-43752300D02*
X205197000Y-43752300D01*
%TO.N,BUS_0*%
X57992900Y-104657000D02*
X58500000Y-104150000D01*
X53667700Y-104657000D02*
X57992900Y-104657000D01*
X243752000Y-67361700D02*
X243489000Y-67098500D01*
X279096000Y-67361700D02*
X243752000Y-67361700D01*
X279404000Y-67053900D02*
X279096000Y-67361700D01*
X53667700Y-104657100D02*
X53667700Y-104657000D01*
X276437000Y-91631800D02*
X275597100Y-90792300D01*
X301458000Y-91631800D02*
X276437000Y-91631800D01*
X301790000Y-91300000D02*
X301458000Y-91631800D01*
X275597100Y-90792300D02*
X275597000Y-90792300D01*
X238947100Y-66412300D02*
X238947000Y-66412300D01*
X228817100Y-64662400D02*
X228817100Y-64662300D01*
X229219400Y-65064700D02*
X228817100Y-64662400D01*
X228817000Y-64662300D02*
X229219400Y-65064700D01*
X230567000Y-66412300D02*
X238947000Y-66412300D01*
X229219400Y-65064700D02*
X230567000Y-66412300D01*
%TO.N,Net-(D59-A)*%
X104833100Y-87161300D02*
X105442100Y-86552300D01*
X104833000Y-87161300D02*
X104833100Y-87161300D01*
X104224000Y-87770300D02*
X104833000Y-87161300D01*
X92127300Y-87770300D02*
X104224000Y-87770300D01*
X91331400Y-86974400D02*
X92127300Y-87770300D01*
X104833000Y-87161300D02*
X105442000Y-86552300D01*
X108442700Y-54920000D02*
X108442800Y-54920100D01*
X108442600Y-54920000D02*
X108442700Y-54920000D01*
X108443000Y-54920000D02*
X108442800Y-54920100D01*
X90482000Y-55919400D02*
X89442600Y-54880000D01*
X107443000Y-55919400D02*
X90482000Y-55919400D01*
X108442800Y-54920100D02*
X107443000Y-55919400D01*
%TO.N,Net-(D58-K)*%
X114911800Y-103552000D02*
X114912100Y-103552300D01*
X114068000Y-103552000D02*
X114911800Y-103552000D01*
X113224000Y-103552000D02*
X114068000Y-103552000D01*
X102638000Y-92966100D02*
X113224000Y-103552000D01*
X83066100Y-92966100D02*
X102638000Y-92966100D01*
X81740000Y-91640000D02*
X83066100Y-92966100D01*
X114068000Y-103552000D02*
X114912000Y-103552000D01*
%TO.N,Net-(D57-K)*%
X107700000Y-103552000D02*
X108902000Y-103552000D01*
X98328100Y-94180000D02*
X107700000Y-103552000D01*
X81740000Y-94180000D02*
X98328100Y-94180000D01*
X108902100Y-103552000D02*
X108902000Y-103552000D01*
X108902100Y-103552300D02*
X108902100Y-103552000D01*
%TO.N,Net-(D56-K)*%
X102891800Y-103552000D02*
X102892100Y-103552300D01*
X102291000Y-103552000D02*
X102891800Y-103552000D01*
X102892000Y-103552000D02*
X102291000Y-103552000D01*
X94858100Y-96720000D02*
X81740000Y-96720000D01*
X101690000Y-103552000D02*
X94858100Y-96720000D01*
X102291000Y-103552000D02*
X101690000Y-103552000D01*
%TO.N,Net-(D54-K)*%
X87918100Y-101800000D02*
X81740000Y-101800000D01*
X89670400Y-103552000D02*
X87918100Y-101800000D01*
X90872100Y-103552000D02*
X89670400Y-103552000D01*
X90872100Y-103552300D02*
X90872100Y-103552000D01*
%TO.N,Net-(D51-A)*%
X108792200Y-62190400D02*
X108442600Y-62540000D01*
X108792600Y-62190400D02*
X108792200Y-62190400D01*
X109713000Y-61270000D02*
X108792600Y-62190400D01*
X131683000Y-61270000D02*
X109713000Y-61270000D01*
X132251000Y-60702300D02*
X131683000Y-61270000D01*
X133039000Y-60702300D02*
X132251000Y-60702300D01*
X108792600Y-62190400D02*
X108443000Y-62540000D01*
%TO.N,OI*%
X143422000Y-114351000D02*
X143727000Y-114351000D01*
X142464000Y-115308000D02*
X143422000Y-114351000D01*
X128558000Y-115308000D02*
X142464000Y-115308000D01*
X126577000Y-117290000D02*
X128558000Y-115308000D01*
X123775000Y-117290000D02*
X126577000Y-117290000D01*
X119909000Y-121155000D02*
X123775000Y-117290000D01*
X101074000Y-121155000D02*
X119909000Y-121155000D01*
X99817100Y-122412000D02*
X101074000Y-121155000D01*
X99817100Y-122412300D02*
X99817100Y-122412000D01*
X155677000Y-96506800D02*
X155676800Y-96506800D01*
X154536000Y-96698100D02*
X142803000Y-96698100D01*
X154727000Y-96506800D02*
X154536000Y-96698100D01*
X155676800Y-96506800D02*
X154727000Y-96506800D01*
%TO.N,Net-(D48-A)*%
X132912100Y-56892300D02*
X132912000Y-56892300D01*
X124000100Y-60000000D02*
X124000000Y-60000000D01*
X127108000Y-56892300D02*
X124000000Y-60000000D01*
X132912000Y-56892300D02*
X127108000Y-56892300D01*
X101716000Y-63490700D02*
X100323000Y-64884100D01*
X106030000Y-63490700D02*
X101716000Y-63490700D01*
X108010000Y-61510800D02*
X106030000Y-63490700D01*
X108555000Y-61510800D02*
X108010000Y-61510800D01*
X110065000Y-60000000D02*
X108555000Y-61510800D01*
X124000000Y-60000000D02*
X110065000Y-60000000D01*
%TO.N,SU*%
X298422000Y-104067000D02*
X299540000Y-105185000D01*
X293038000Y-104067000D02*
X298422000Y-104067000D01*
X291920000Y-105185000D02*
X293038000Y-104067000D01*
%TO.N,Net-(D46-A)*%
X132912100Y-51812300D02*
X132912000Y-51812300D01*
X124000000Y-54920000D02*
X124000100Y-54920000D01*
X127108000Y-51812300D02*
X132912000Y-51812300D01*
X124000100Y-54920000D02*
X127108000Y-51812300D01*
%TO.N,Net-(D39-A)*%
X103518000Y-120744000D02*
X103709000Y-120553000D01*
X51445400Y-120744000D02*
X103518000Y-120744000D01*
X49777100Y-122412000D02*
X51445400Y-120744000D01*
X49777100Y-122412300D02*
X49777100Y-122412000D01*
%TO.N,Net-(D37-A)*%
X168340000Y-89600000D02*
X178520000Y-79420000D01*
X151050000Y-89600000D02*
X168340000Y-89600000D01*
%TO.N,Net-(D36-A)*%
X164870000Y-87060000D02*
X151050000Y-87060000D01*
X172510000Y-79420000D02*
X164870000Y-87060000D01*
%TO.N,Net-(D35-A)*%
X164479000Y-81440900D02*
X166500000Y-79420000D01*
X154129000Y-81440900D02*
X164479000Y-81440900D01*
X151050000Y-84520000D02*
X154129000Y-81440900D01*
%TO.N,Net-(D30-A)*%
X204430000Y-149950000D02*
X200460000Y-153920000D01*
X223208000Y-149950000D02*
X204430000Y-149950000D01*
%TO.N,/ALU/B_1*%
X308265000Y-84825100D02*
X309410000Y-83680000D01*
X301323000Y-84825100D02*
X308265000Y-84825100D01*
X300257000Y-83758700D02*
X301323000Y-84825100D01*
X289142000Y-83758700D02*
X300257000Y-83758700D01*
%TO.N,/ALU/B_4*%
X319664000Y-86126000D02*
X322110000Y-83680000D01*
X301182000Y-86126000D02*
X319664000Y-86126000D01*
X301182000Y-90110200D02*
X301182000Y-86126000D01*
X300294000Y-90997500D02*
X301182000Y-90110200D01*
X277424200Y-77800000D02*
X277424100Y-77800100D01*
X277424000Y-77800000D02*
X277424100Y-77800100D01*
X299455000Y-84399200D02*
X301182000Y-86126000D01*
X284023000Y-84399200D02*
X299455000Y-84399200D01*
X277424100Y-77800100D02*
X284023000Y-84399200D01*
%TO.N,/ALU/B_7*%
X318048000Y-80121700D02*
X314490000Y-83680000D01*
X335798000Y-80121700D02*
X318048000Y-80121700D01*
X337000000Y-78920000D02*
X335798000Y-80121700D01*
X313308000Y-82497500D02*
X314490000Y-83680000D01*
X306541000Y-82497500D02*
X313308000Y-82497500D01*
X306541000Y-82497500D02*
X306541000Y-81776300D01*
X285044200Y-82880000D02*
X285044100Y-82879900D01*
X285044000Y-82880000D02*
X285044100Y-82879900D01*
X285427000Y-82497500D02*
X306541000Y-82497500D01*
X285044100Y-82879900D02*
X285427000Y-82497500D01*
%TO.N,/MAR/A1*%
X217895000Y-114210000D02*
X200156000Y-114210000D01*
X218505000Y-113600000D02*
X217895000Y-114210000D01*
%TO.N,/MAR/A2*%
X199523000Y-115851000D02*
X199776000Y-116104000D01*
X199523000Y-113937000D02*
X199523000Y-115851000D01*
X201507000Y-111953000D02*
X199523000Y-113937000D01*
X232640000Y-111953000D02*
X201507000Y-111953000D01*
X233252000Y-111341000D02*
X232640000Y-111953000D01*
%TO.N,CF*%
X124000100Y-39680000D02*
X124000000Y-39680000D01*
X105000100Y-39640000D02*
X105349700Y-39989600D01*
X105000000Y-39640000D02*
X105349700Y-39989600D01*
X122955000Y-40724800D02*
X124000000Y-39680000D01*
X106085000Y-40724800D02*
X122955000Y-40724800D01*
X105349700Y-39989600D02*
X106085000Y-40724800D01*
%TO.N,Net-(D11-A)*%
X269208000Y-64577200D02*
X268949000Y-64317800D01*
X280800000Y-64577200D02*
X269208000Y-64577200D01*
X284467000Y-60910000D02*
X280800000Y-64577200D01*
X284560000Y-60910000D02*
X284467000Y-60910000D01*
%TO.N,ZF*%
X124000100Y-42220000D02*
X124000000Y-42220000D01*
X105000100Y-42180000D02*
X105000100Y-42179900D01*
X105000000Y-42180000D02*
X105000100Y-42179900D01*
X122961000Y-41180600D02*
X124000000Y-42220000D01*
X106000000Y-41180600D02*
X122961000Y-41180600D01*
X105000100Y-42179900D02*
X106000000Y-41180600D01*
%TO.N,/ALU/A_0*%
X246567000Y-66412300D02*
X246567100Y-66412300D01*
X280360000Y-62180000D02*
X282976000Y-59564100D01*
X263197000Y-62180000D02*
X280360000Y-62180000D01*
X261487000Y-63890300D02*
X263197000Y-62180000D01*
X257302000Y-63890300D02*
X261487000Y-63890300D01*
X254780000Y-66412300D02*
X257302000Y-63890300D01*
X246567100Y-66412300D02*
X254780000Y-66412300D01*
%TO.N,/ALU/A_1*%
X246567100Y-68952300D02*
X246567000Y-68952300D01*
X223478000Y-70001400D02*
X221197100Y-72282300D01*
X245518000Y-70001400D02*
X223478000Y-70001400D01*
X246567000Y-68952300D02*
X245518000Y-70001400D01*
X221197100Y-72282300D02*
X221197000Y-72282300D01*
%TO.N,/ALU/A_2*%
X246567100Y-71492200D02*
X246567100Y-71492300D01*
X246066000Y-70991100D02*
X246567100Y-71492200D01*
X246066000Y-70991100D02*
X246567000Y-71492300D01*
X223737000Y-72282300D02*
X224538000Y-71481600D01*
X224537800Y-71481600D02*
X223737100Y-72282300D01*
X224538000Y-71481600D02*
X224537800Y-71481600D01*
X245565000Y-70489900D02*
X246066000Y-70991100D01*
X225530000Y-70489900D02*
X245565000Y-70489900D01*
X224538000Y-71481600D02*
X225530000Y-70489900D01*
%TO.N,/ALU/A_3*%
X219047000Y-79512300D02*
X225476000Y-73083100D01*
X219047000Y-81162300D02*
X219047000Y-79512300D01*
X227443000Y-73448000D02*
X226277000Y-72282300D01*
X230684000Y-73448000D02*
X227443000Y-73448000D01*
X231055000Y-73077000D02*
X230684000Y-73448000D01*
X245612000Y-73077000D02*
X231055000Y-73077000D01*
X246567000Y-74032300D02*
X245612000Y-73077000D01*
X225876700Y-72682700D02*
X226277100Y-72282300D01*
X225876500Y-72682700D02*
X225876700Y-72682700D01*
X225476000Y-73083100D02*
X225876500Y-72682700D01*
X225876500Y-72682700D02*
X226277000Y-72282300D01*
X225476000Y-73083100D02*
X225876500Y-72682700D01*
X225876500Y-72682700D02*
X226277000Y-72282300D01*
X219047100Y-81162300D02*
X219047000Y-81162300D01*
X246567100Y-74032300D02*
X246567000Y-74032300D01*
%TO.N,/ALU/A_4*%
X214027100Y-81162300D02*
X214027000Y-81162300D01*
X208971000Y-72756200D02*
X208971000Y-72756300D01*
X208497100Y-72282300D02*
X208971000Y-72756200D01*
X214027000Y-77812300D02*
X208971000Y-72756300D01*
X214027000Y-81162300D02*
X214027000Y-77812300D01*
X208971000Y-72756300D02*
X208497000Y-72282300D01*
X211609600Y-56867600D02*
X211004400Y-57472800D01*
X216591300Y-56867600D02*
X211609600Y-56867600D01*
X216682900Y-56959200D02*
X216591300Y-56867600D01*
X269126300Y-56959200D02*
X216682900Y-56959200D01*
X271015000Y-55070500D02*
X269126300Y-56959200D01*
%TO.N,/ALU/A_5*%
X214014000Y-56092800D02*
X213547000Y-55626000D01*
X237629000Y-56092800D02*
X214014000Y-56092800D01*
X241860000Y-51862000D02*
X237629000Y-56092800D01*
X275828000Y-51862000D02*
X241860000Y-51862000D01*
X276940000Y-50750000D02*
X275828000Y-51862000D01*
%TO.N,/ALU/A_7*%
X216117100Y-72282200D02*
X216117100Y-72282300D01*
X216918000Y-71481300D02*
X216117100Y-72282200D01*
X220717000Y-67682300D02*
X216918000Y-71481300D01*
X239649000Y-67682300D02*
X220717000Y-67682300D01*
X242189000Y-65142300D02*
X239649000Y-67682300D01*
X247269000Y-65142300D02*
X242189000Y-65142300D01*
X249087000Y-63324800D02*
X247269000Y-65142300D01*
X259665000Y-63324800D02*
X249087000Y-63324800D01*
X263518000Y-59471700D02*
X259665000Y-63324800D01*
X280918000Y-59471700D02*
X263518000Y-59471700D01*
X284560000Y-55830000D02*
X280918000Y-59471700D01*
X216918000Y-71481300D02*
X216117000Y-72282300D01*
%TO.N,CLK*%
X296713000Y-92847300D02*
X295630000Y-93930000D01*
X316387000Y-92847300D02*
X296713000Y-92847300D01*
X317340000Y-93800000D02*
X316387000Y-92847300D01*
%TO.N,Net-(U1-THR)*%
X319565000Y-109000000D02*
X317605000Y-107040000D01*
X320775000Y-109000000D02*
X319565000Y-109000000D01*
%TO.N,VCC*%
X305019000Y-44579000D02*
X306120000Y-45680000D01*
X296431000Y-44579000D02*
X305019000Y-44579000D01*
X295340000Y-45670000D02*
X296431000Y-44579000D01*
X27500000Y-111000000D02*
X26500000Y-112000000D01*
X27500000Y-108000000D02*
X27500000Y-111000000D01*
X67920000Y-108000000D02*
X27500000Y-108000000D01*
X74120000Y-101800000D02*
X67920000Y-108000000D01*
X80791300Y-90048700D02*
X81740000Y-89100000D01*
X80791300Y-95128700D02*
X80791300Y-90048700D01*
X74120000Y-101800000D02*
X80791300Y-95128700D01*
X330420000Y-83680000D02*
X333040000Y-86300000D01*
X324650000Y-83680000D02*
X330420000Y-83680000D01*
X324650000Y-91300000D02*
X324650000Y-83680000D01*
X325909000Y-94748700D02*
X332580000Y-101420000D01*
X325909000Y-92558700D02*
X325909000Y-94748700D01*
X324650000Y-91300000D02*
X325909000Y-92558700D01*
X322110000Y-91300000D02*
X324650000Y-91300000D01*
X320910000Y-92500000D02*
X322110000Y-91300000D01*
X319838000Y-92500000D02*
X320910000Y-92500000D01*
X318931000Y-93407000D02*
X319838000Y-92500000D01*
X318931000Y-94404700D02*
X318931000Y-93407000D01*
X311786000Y-101550000D02*
X318931000Y-94404700D01*
X310870000Y-101550000D02*
X311786000Y-101550000D01*
X306134000Y-106286000D02*
X310870000Y-101550000D01*
X304214000Y-106286000D02*
X306134000Y-106286000D01*
X298439000Y-112061000D02*
X304214000Y-106286000D01*
X298439000Y-118561000D02*
X298439000Y-112061000D01*
X298000000Y-119000000D02*
X298439000Y-118561000D01*
X293359000Y-109164000D02*
X289380000Y-105185000D01*
X293359000Y-114359000D02*
X293359000Y-109164000D01*
X298000000Y-119000000D02*
X293359000Y-114359000D01*
X294000000Y-123000000D02*
X298000000Y-119000000D01*
X294000000Y-123500000D02*
X294000000Y-123000000D01*
X293007000Y-124493000D02*
X294000000Y-123500000D01*
X293007000Y-127412000D02*
X293007000Y-124493000D01*
X290252000Y-127412000D02*
X289437000Y-128227000D01*
X293007000Y-127412000D02*
X290252000Y-127412000D01*
X187760000Y-146300000D02*
X187760000Y-153920000D01*
X141724000Y-95979100D02*
X141724000Y-98519100D01*
X91459800Y-89100000D02*
X93412100Y-91052300D01*
X81740000Y-89100000D02*
X91459800Y-89100000D01*
X85250000Y-85590000D02*
X81740000Y-89100000D01*
X85250000Y-74750000D02*
X85250000Y-85590000D01*
X85250000Y-74750000D02*
X91750000Y-74750000D01*
X81620000Y-71120000D02*
X85250000Y-74750000D01*
X81620000Y-70180000D02*
X81620000Y-71120000D01*
X81620000Y-64350200D02*
X81620000Y-70180000D01*
X80612100Y-63342300D02*
X81620000Y-64350200D01*
X80612100Y-56792300D02*
X80612100Y-63342300D01*
X80612100Y-55452300D02*
X80612100Y-56792300D01*
X76412100Y-51252300D02*
X80612100Y-55452300D01*
X78000000Y-49664400D02*
X76412100Y-51252300D01*
X78000000Y-37600200D02*
X78000000Y-49664400D01*
X76412100Y-36012300D02*
X78000000Y-37600200D01*
X76412100Y-36012300D02*
X76412100Y-33472300D01*
X84032100Y-36012300D02*
X76412100Y-36012300D01*
X167701000Y-61821000D02*
X166500000Y-61821000D01*
X170161000Y-59360800D02*
X167701000Y-61821000D01*
X154391000Y-61821000D02*
X153490000Y-60920000D01*
X166500000Y-61821000D02*
X154391000Y-61821000D01*
X168570000Y-52730000D02*
X168570000Y-45110000D01*
X175791000Y-64991300D02*
X173840000Y-63040000D01*
X175791000Y-72971300D02*
X175791000Y-64991300D01*
X176740000Y-73920000D02*
X175791000Y-72971300D01*
X220749000Y-29868700D02*
X219800000Y-28920000D01*
X237369000Y-29868700D02*
X220749000Y-29868700D01*
X243250000Y-35750000D02*
X237369000Y-29868700D01*
X249000000Y-41500000D02*
X249000000Y-42420000D01*
X243250000Y-35750000D02*
X249000000Y-41500000D01*
X251250000Y-35750000D02*
X243250000Y-35750000D01*
X257791000Y-29208700D02*
X251250000Y-35750000D01*
X270591000Y-29208700D02*
X257791000Y-29208700D01*
X276620000Y-23180000D02*
X270591000Y-29208700D01*
X273780000Y-26020000D02*
X276620000Y-23180000D01*
X273780000Y-45670000D02*
X273780000Y-26020000D01*
X274950000Y-44500000D02*
X273780000Y-45670000D01*
X283390000Y-44500000D02*
X274950000Y-44500000D01*
X284560000Y-45670000D02*
X283390000Y-44500000D01*
X294239000Y-44569000D02*
X295340000Y-45670000D01*
X285661000Y-44569000D02*
X294239000Y-44569000D01*
X284560000Y-45670000D02*
X285661000Y-44569000D01*
X237977000Y-105547000D02*
X237977000Y-112097000D01*
X277922000Y-141578000D02*
X278000000Y-141656000D01*
X278000000Y-141655000D02*
X278000000Y-141656000D01*
X277922000Y-141578000D02*
X278000000Y-141655000D01*
X278000000Y-141656000D02*
X278000000Y-142500000D01*
X173840000Y-63040000D02*
X170161000Y-59360800D01*
X170161000Y-54320800D02*
X168570000Y-52730000D01*
X170161000Y-59360800D02*
X170161000Y-54320800D01*
X151050000Y-66740000D02*
X151050000Y-63950000D01*
X153490000Y-61510000D02*
X151050000Y-63950000D01*
X153490000Y-60920000D02*
X153490000Y-61510000D01*
X151050000Y-63950000D02*
X151050000Y-66740000D01*
X172621000Y-61821000D02*
X167701000Y-61821000D01*
X173840000Y-63040000D02*
X172621000Y-61821000D01*
X167701000Y-61821000D02*
X166500000Y-61821000D01*
X141724000Y-98519100D02*
X148666000Y-105462000D01*
X147683000Y-132968000D02*
X147682000Y-132968000D01*
X148784000Y-134069000D02*
X147683000Y-132968000D01*
X147682000Y-132968000D02*
X148784000Y-134069000D01*
X275507000Y-134884000D02*
X275507000Y-139162000D01*
X266413000Y-125790000D02*
X275507000Y-134884000D01*
X260750000Y-125790000D02*
X266413000Y-125790000D01*
X275507000Y-139162000D02*
X277922000Y-141578000D01*
X185723000Y-146300000D02*
X187760000Y-146300000D01*
X179194000Y-139771000D02*
X185723000Y-146300000D01*
X167749000Y-139771000D02*
X179194000Y-139771000D01*
X162666000Y-134689000D02*
X167749000Y-139771000D01*
X252737000Y-86005900D02*
X255994000Y-82749100D01*
X252737000Y-90792300D02*
X252737000Y-86005900D01*
X213597000Y-124819000D02*
X213597000Y-125657000D01*
X205855000Y-117076000D02*
X213597000Y-124819000D01*
X205076000Y-117076000D02*
X205855000Y-117076000D01*
X204000000Y-116000000D02*
X205076000Y-117076000D01*
X139105000Y-132968000D02*
X138004000Y-134069000D01*
X147682000Y-132968000D02*
X139105000Y-132968000D01*
X259132000Y-124172000D02*
X260750000Y-125790000D01*
X249317000Y-124172000D02*
X259132000Y-124172000D01*
X255994000Y-78029500D02*
X255994000Y-76199100D01*
X255994000Y-82749100D02*
X255994000Y-78029500D01*
X153490000Y-100638000D02*
X148666000Y-105462000D01*
X159166000Y-100638000D02*
X153490000Y-100638000D01*
X163297000Y-96506900D02*
X159166000Y-100638000D01*
X132924000Y-134069000D02*
X130384000Y-136609000D01*
X138004000Y-134069000D02*
X132924000Y-134069000D01*
X148666000Y-125379000D02*
X147666000Y-126379000D01*
X148666000Y-105462000D02*
X148666000Y-125379000D01*
X147666000Y-132952000D02*
X147682000Y-132968000D01*
X147666000Y-126379000D02*
X147666000Y-132952000D01*
X182492000Y-79672300D02*
X176740000Y-73920000D01*
X189007000Y-79672300D02*
X182492000Y-79672300D01*
X115266000Y-158879000D02*
X115266000Y-158616000D01*
X115266000Y-157429000D02*
X115266000Y-158616000D01*
X121696000Y-151000000D02*
X115266000Y-157429000D01*
X127500000Y-151000000D02*
X121696000Y-151000000D01*
X115266000Y-158616000D02*
X115266000Y-158879000D01*
X157954000Y-133269000D02*
X159317000Y-134632000D01*
X149584000Y-133269000D02*
X157954000Y-133269000D01*
X148784000Y-134069000D02*
X149584000Y-133269000D01*
X162610000Y-134632000D02*
X162666000Y-134689000D01*
X159317000Y-134632000D02*
X162610000Y-134632000D01*
X130384000Y-136609000D02*
X130384000Y-144229000D01*
X245112000Y-98412300D02*
X252737000Y-98412300D01*
X237977000Y-105547000D02*
X245112000Y-98412300D01*
X252737000Y-98412300D02*
X252737000Y-90792300D01*
X108443000Y-37140000D02*
X108443000Y-37139800D01*
X285044000Y-70180000D02*
X285044000Y-70179900D01*
X285692000Y-46801900D02*
X284560000Y-45670000D01*
X285692000Y-69532300D02*
X285692000Y-46801900D01*
X285044000Y-70179900D02*
X285692000Y-69532300D01*
X191000000Y-124620000D02*
X191000000Y-114000000D01*
X192037000Y-125657000D02*
X191000000Y-124620000D01*
X124000000Y-33330000D02*
X124000000Y-34600000D01*
X108443000Y-37140000D02*
X108443000Y-37139800D01*
X110983000Y-34600000D02*
X108443000Y-37140000D01*
X124000000Y-34600000D02*
X110983000Y-34600000D01*
X124000000Y-33330000D02*
X124000000Y-34600000D01*
X129191000Y-149309000D02*
X127500000Y-151000000D01*
X130384000Y-149309000D02*
X129191000Y-149309000D01*
X235147000Y-125667000D02*
X235164000Y-125650000D01*
X235147000Y-125667000D02*
X235164000Y-125650000D01*
X233480000Y-124000000D02*
X235147000Y-125667000D01*
X215254000Y-124000000D02*
X233480000Y-124000000D01*
X213597000Y-125657000D02*
X215254000Y-124000000D01*
X247878000Y-125611000D02*
X249317000Y-124172000D01*
X235203000Y-125611000D02*
X247878000Y-125611000D01*
X235164000Y-125650000D02*
X235203000Y-125611000D01*
X202887000Y-61592300D02*
X205957000Y-64662300D01*
X199817000Y-58522300D02*
X202887000Y-61592300D01*
X199817000Y-54712300D02*
X199817000Y-58522300D01*
X205957000Y-64662300D02*
X205957000Y-72282300D01*
X202887000Y-61592300D02*
X205957000Y-64662300D01*
X211226000Y-47883600D02*
X205197000Y-53912300D01*
X212616000Y-47883600D02*
X211226000Y-47883600D01*
X213766000Y-46734200D02*
X212616000Y-47883600D01*
X213766000Y-34954200D02*
X213766000Y-46734200D01*
X219800000Y-28920000D02*
X213766000Y-34954200D01*
X201029000Y-53500000D02*
X199817000Y-54712300D01*
X204785000Y-53500000D02*
X201029000Y-53500000D01*
X205197000Y-53912300D02*
X204785000Y-53500000D01*
X273808000Y-70840000D02*
X274468000Y-70180000D01*
X273148000Y-71500000D02*
X273808000Y-70840000D01*
X260693000Y-71500000D02*
X273148000Y-71500000D01*
X255994000Y-76199100D02*
X260693000Y-71500000D01*
X255994000Y-78029500D02*
X255994000Y-76199100D01*
X285044000Y-70180000D02*
X285044000Y-70179900D01*
X284096000Y-71128700D02*
X285044000Y-70180000D01*
X275417000Y-71128700D02*
X284096000Y-71128700D01*
X274468000Y-70180000D02*
X275417000Y-71128700D01*
X273808000Y-70840000D02*
X274468000Y-70180000D01*
X99912100Y-91052300D02*
X99912100Y-90932300D01*
X94067700Y-90932300D02*
X99912100Y-90932300D01*
X93947700Y-91052300D02*
X94067700Y-90932300D01*
X93412100Y-91052300D02*
X93947700Y-91052300D01*
X99912100Y-90932300D02*
X105412000Y-90932300D01*
X105412000Y-91242300D02*
X105412000Y-90932300D01*
X105412000Y-90932300D02*
X117412100Y-90932300D01*
X136677000Y-90932300D02*
X141724000Y-95979100D01*
X117412100Y-90932300D02*
X136677000Y-90932300D01*
X252737100Y-90792300D02*
X252737000Y-90792300D01*
X298567100Y-135634600D02*
X298567100Y-135962300D01*
X298567000Y-135634500D02*
X298567100Y-135634600D01*
X298567000Y-135307000D02*
X298567000Y-135634500D01*
X298567000Y-135634500D02*
X298567000Y-135962000D01*
X213597000Y-125657200D02*
X213597000Y-125657000D01*
X213597100Y-125657300D02*
X213597000Y-125657200D01*
X298567100Y-133773100D02*
X298567100Y-131912300D01*
X298567000Y-133773200D02*
X298567100Y-133773100D01*
X298567000Y-135634500D02*
X298567000Y-133773200D01*
X213081600Y-105325000D02*
X213082000Y-105325000D01*
X255993900Y-76199100D02*
X255994000Y-76199100D01*
X199817100Y-54712300D02*
X199817000Y-54712300D01*
X192037000Y-125657200D02*
X192037000Y-125657000D01*
X192037100Y-125657300D02*
X192037000Y-125657200D01*
X235147000Y-125667200D02*
X235147000Y-125667000D01*
X235147100Y-125667300D02*
X235147000Y-125667200D01*
X285044200Y-70180000D02*
X285044000Y-70180000D01*
X130383900Y-136609100D02*
X130384000Y-136609000D01*
X252737100Y-98412300D02*
X252737000Y-98412300D01*
X148783900Y-134069100D02*
X148784000Y-134069000D01*
X130383900Y-144229100D02*
X130384000Y-144229000D01*
X162666100Y-134689100D02*
X162666000Y-134689000D01*
X162666400Y-134689100D02*
X162666100Y-134689100D01*
X237977000Y-105547200D02*
X237977000Y-105547000D01*
X237977100Y-105547300D02*
X237977000Y-105547200D01*
X105412100Y-91242300D02*
X105412000Y-91242300D01*
X189007100Y-79672300D02*
X189007000Y-79672300D01*
X163296900Y-96506800D02*
X163297000Y-96506900D01*
X163296800Y-96506800D02*
X163296900Y-96506800D01*
X289437000Y-128227200D02*
X289437000Y-128227000D01*
X289437100Y-128227300D02*
X289437000Y-128227200D01*
X194817000Y-142152300D02*
X194817000Y-142152200D01*
X194817100Y-142152300D02*
X194817000Y-142152300D01*
X194817000Y-142683000D02*
X194817000Y-142152200D01*
X192500000Y-145000000D02*
X194817000Y-142683000D01*
X189060000Y-145000000D02*
X192500000Y-145000000D01*
X187760000Y-146300000D02*
X189060000Y-145000000D01*
X193716000Y-127336000D02*
X192037000Y-125657000D01*
X193716000Y-141051000D02*
X193716000Y-127336000D01*
X194817000Y-142152000D02*
X193716000Y-141051000D01*
X194817000Y-142152200D02*
X194817000Y-142152000D01*
X293007400Y-127412000D02*
X293007100Y-127412300D01*
X293457100Y-127412000D02*
X293007400Y-127412000D01*
X294067000Y-127412000D02*
X293457100Y-127412000D01*
X298567000Y-131912000D02*
X294067000Y-127412000D01*
X298567000Y-133773200D02*
X298567000Y-131912000D01*
X293457100Y-127412000D02*
X293007000Y-127412000D01*
X205957100Y-64662300D02*
X205957000Y-64662300D01*
X292537500Y-157501900D02*
X292537100Y-157501900D01*
X292567100Y-157472300D02*
X292537500Y-157501900D01*
X292537100Y-157501900D02*
X292567000Y-157472000D01*
X249317000Y-124172200D02*
X249317000Y-124172000D01*
X249317100Y-124172300D02*
X249317000Y-124172200D01*
X130383900Y-149309000D02*
X130384000Y-149309000D01*
X130383900Y-149309100D02*
X130383900Y-149309000D01*
X159317100Y-134632000D02*
X159317000Y-134632000D01*
X159317100Y-134632300D02*
X159317100Y-134632000D01*
X138003900Y-134069000D02*
X138004000Y-134069000D01*
X138003900Y-134069100D02*
X138003900Y-134069000D01*
X115266100Y-158879100D02*
X115266000Y-158879000D01*
X115266400Y-158879100D02*
X115266100Y-158879100D01*
X147666000Y-126379100D02*
X147666000Y-126379000D01*
X147666400Y-126379100D02*
X147666000Y-126379100D01*
X275507100Y-139162100D02*
X275507000Y-139162000D01*
X275507100Y-139162300D02*
X275507100Y-139162100D01*
X205197100Y-53912300D02*
X205197000Y-53912300D01*
X274468400Y-70180000D02*
X274468000Y-70180000D01*
X138003900Y-151849000D02*
X138004000Y-151848900D01*
X138003900Y-151849100D02*
X138003900Y-151849000D01*
X130384000Y-151849000D02*
X130384000Y-149309000D01*
X138004000Y-151849000D02*
X130384000Y-151849000D01*
X138004000Y-151848900D02*
X138004000Y-151849000D01*
X124000100Y-34600000D02*
X124000000Y-34600000D01*
X108442600Y-37140000D02*
X108443000Y-37140000D01*
X205957100Y-72282300D02*
X205957000Y-72282300D01*
X223657400Y-105325000D02*
X223657200Y-105325200D01*
X138004000Y-144229000D02*
X138003900Y-144229100D01*
X130384000Y-144229000D02*
X138004000Y-144229000D01*
X136903000Y-150748000D02*
X138004000Y-151848900D01*
X136903000Y-145330000D02*
X136903000Y-150748000D01*
X138003900Y-144229100D02*
X136903000Y-145330000D01*
X298567000Y-135962000D02*
X298567000Y-135634500D01*
X105863000Y-34560000D02*
X105000100Y-34560000D01*
X108443000Y-37139800D02*
X105863000Y-34560000D01*
X101008000Y-36012300D02*
X84032100Y-36012300D01*
X105000000Y-32020000D02*
X101008000Y-36012300D01*
X105000000Y-34560000D02*
X105000000Y-32020000D01*
X105000100Y-34560000D02*
X105000000Y-34560000D01*
X255993900Y-82749100D02*
X255994000Y-82749100D01*
X223657000Y-105325000D02*
X223657200Y-105325200D01*
X222709000Y-104376000D02*
X223657000Y-105325000D01*
X214030000Y-104376000D02*
X222709000Y-104376000D01*
X213082000Y-105325000D02*
X214030000Y-104376000D01*
X234233000Y-105325000D02*
X234233200Y-105325000D01*
X233284000Y-106274000D02*
X234233000Y-105325000D01*
X224606000Y-106274000D02*
X233284000Y-106274000D01*
X223657200Y-105325200D02*
X224606000Y-106274000D01*
X237755000Y-105325000D02*
X237977000Y-105547000D01*
X234233200Y-105325000D02*
X237755000Y-105325000D01*
X282067000Y-157532200D02*
X282067000Y-157532000D01*
X282067100Y-157532300D02*
X282067000Y-157532200D01*
X284500000Y-155099000D02*
X282067000Y-157532000D01*
X284500000Y-149000000D02*
X284500000Y-155099000D01*
X292507000Y-157532000D02*
X292537100Y-157501900D01*
X282067000Y-157532000D02*
X292507000Y-157532000D01*
X140532000Y-51812300D02*
X140532100Y-51812300D01*
X151050000Y-62330200D02*
X140532000Y-51812300D01*
X151050000Y-63950000D02*
X151050000Y-62330200D01*
X141361000Y-32341000D02*
X140412100Y-31392300D01*
X141361000Y-50983600D02*
X141361000Y-32341000D01*
X140532100Y-51812300D02*
X141361000Y-50983600D01*
X124000000Y-32060000D02*
X124000000Y-33330000D01*
X125616000Y-30443600D02*
X124000000Y-32060000D01*
X139463000Y-30443600D02*
X125616000Y-30443600D01*
X140412100Y-31392300D02*
X139463000Y-30443600D01*
X202067100Y-74282300D02*
X202067100Y-74282200D01*
X204067000Y-72282300D02*
X202067100Y-74282200D01*
X205957000Y-72282300D02*
X204067000Y-72282300D01*
X190179000Y-78500000D02*
X189007000Y-79672300D01*
X197849000Y-78500000D02*
X190179000Y-78500000D01*
X202067000Y-74282300D02*
X197849000Y-78500000D01*
X202067100Y-74282200D02*
X202067000Y-74282300D01*
X238947000Y-79112300D02*
X238947100Y-79112300D01*
X242584000Y-82749100D02*
X255993900Y-82749100D01*
X238947100Y-79112300D02*
X242584000Y-82749100D01*
X281345000Y-145000000D02*
X284500000Y-145000000D01*
X278000000Y-141656000D02*
X281345000Y-145000000D01*
X288278000Y-147222000D02*
X296317000Y-147222000D01*
X288000000Y-147500000D02*
X288278000Y-147222000D01*
X298567000Y-144972000D02*
X298567000Y-135962000D01*
X296317100Y-147221900D02*
X296317100Y-147222000D01*
X298567000Y-144972000D02*
X296317100Y-147221900D01*
X300858000Y-142681000D02*
X298567000Y-144972000D01*
X319139000Y-142681000D02*
X300858000Y-142681000D01*
X320240000Y-141580000D02*
X319139000Y-142681000D01*
X296317100Y-147222300D02*
X296317100Y-147222000D01*
X296317100Y-147222000D02*
X296317000Y-147222000D01*
%TO.N,GND*%
X92317100Y-109792000D02*
X87317100Y-109792000D01*
X205310000Y-173730000D02*
X205120000Y-173920000D01*
X210120000Y-173730000D02*
X205310000Y-173730000D01*
X334400000Y-65110000D02*
X334460000Y-65050000D01*
X329460000Y-65110000D02*
X334400000Y-65110000D01*
X309520000Y-65050000D02*
X309460000Y-65110000D01*
X314460000Y-65050000D02*
X309520000Y-65050000D01*
X324150000Y-65050000D02*
X324210000Y-65110000D01*
X319460000Y-65050000D02*
X324150000Y-65050000D01*
X324210000Y-65110000D02*
X329460000Y-65110000D01*
X185120000Y-173920000D02*
X180120000Y-173920000D01*
X214930000Y-173730000D02*
X215120000Y-173920000D01*
X210120000Y-173730000D02*
X214930000Y-173730000D01*
X195120000Y-173730000D02*
X190120000Y-173730000D01*
X185310000Y-173730000D02*
X185120000Y-173920000D01*
X190120000Y-173730000D02*
X185310000Y-173730000D01*
X309400000Y-65050000D02*
X309460000Y-65110000D01*
X304460000Y-65050000D02*
X309400000Y-65050000D01*
X52317400Y-109792000D02*
X52317100Y-109792300D01*
X53972000Y-109792000D02*
X52317400Y-109792000D01*
X52317100Y-109792000D02*
X53972000Y-109792000D01*
X57316800Y-109792000D02*
X57317100Y-109792300D01*
X56872000Y-109792000D02*
X57316800Y-109792000D01*
X53972000Y-109792000D02*
X56872000Y-109792000D01*
X56872000Y-109792000D02*
X62317100Y-109792000D01*
X87317100Y-109792300D02*
X87317100Y-109792000D01*
X92317100Y-109792300D02*
X92317100Y-109792000D01*
X102912100Y-73932300D02*
X108912100Y-73932300D01*
X177500000Y-27300000D02*
X172500000Y-27300000D01*
X62317100Y-109792300D02*
X62317100Y-109792000D01*
X97816800Y-109792000D02*
X97817100Y-109792300D01*
X97367100Y-109792000D02*
X97816800Y-109792000D01*
X97817100Y-109792000D02*
X97367100Y-109792000D01*
X97367100Y-109792000D02*
X92317100Y-109792000D01*
%TD*%
M02*
