M48
; DRILL file {KiCad 9.0.4-1.fc42app3} date 2025-11-07T21:17:21-0600
; FORMAT={-:-/ absolute / metric / decimal}
; #@! TF.CreationDate,2025-11-07T21:17:21-06:00
; #@! TF.GenerationSoftware,Kicad,Pcbnew,9.0.4-1.fc42app3
; #@! TF.FileFunction,Plated,1,6,PTH
FMAT,2
METRIC
; #@! TA.AperFunction,Plated,PTH,ViaDrill
T1C0.300
; #@! TA.AperFunction,Plated,PTH,ComponentDrill
T2C0.500
; #@! TA.AperFunction,Plated,PTH,ComponentDrill
T3C0.600
; #@! TA.AperFunction,Plated,PTH,ComponentDrill
T4C0.787
; #@! TA.AperFunction,Plated,PTH,ComponentDrill
T5C0.800
; #@! TA.AperFunction,Plated,PTH,ComponentDrill
T6C0.870
; #@! TA.AperFunction,Plated,PTH,ComponentDrill
T7C0.900
; #@! TA.AperFunction,Plated,PTH,ComponentDrill
T8C1.000
; #@! TA.AperFunction,Plated,PTH,ComponentDrill
T9C1.100
; #@! TA.AperFunction,Plated,PTH,ComponentDrill
T10C1.118
; #@! TA.AperFunction,Plated,PTH,ComponentDrill
T11C1.500
%
G90
G05
T1
X20.5Y-104.0
X20.5Y-116.5
X24.5Y-104.5
X24.5Y-116.5
X26.5Y-106.5
X26.5Y-108.0
X26.5Y-113.5
X26.5Y-115.0
X27.5Y-109.0
X27.5Y-112.5
X31.0Y-103.5
X31.0Y-104.5
X31.0Y-106.0
X31.0Y-114.0
X31.0Y-116.5
X31.5Y-107.0
X31.5Y-115.5
X31.5Y-118.0
X32.5Y-107.5
X32.5Y-114.5
X46.373Y-58.988
X54.532Y-61.135
X55.365Y-61.963
X67.354Y-64.939
X70.351Y-67.914
X73.348Y-127.424
X76.012Y-119.81
X85.022Y-59.928
X88.625Y-106.484
X89.639Y-120.992
X94.329Y-58.988
X97.326Y-144.2
X97.832Y-112.959
X109.972Y-42.057
X111.553Y-97.032
X112.535Y-41.796
X114.263Y-133.375
X118.451Y-129.551
X122.26Y-150.308
X123.793Y-150.909
X123.855Y-153.649
X126.732Y-144.678
X127.765Y-150.909
X128.076Y-55.906
X128.553Y-60.986
X129.224Y-153.564
X130.295Y-153.164
X131.183Y-129.929
X136.131Y-56.699
X137.202Y-42.709
X142.279Y-94.248
X142.873Y-144.546
X145.338Y-106.209
X145.507Y-120.587
X148.063Y-68.129
X148.278Y-115.94
X150.363Y-85.79
X152.472Y-107.268
X154.273Y-154.204
X154.729Y-110.657
X156.311Y-105.563
X157.553Y-104.745
X160.23Y-68.816
X162.195Y-76.879
X162.413Y-79.816
X162.767Y-69.651
X166.244Y-82.76
X171.085Y-49.76
X171.488Y-46.544
X171.843Y-88.33
X173.928Y-122.302
X174.25Y-47.146
X174.885Y-127.422
X178.25Y-151.142
X179.049Y-141.374
X180.196Y-71.93
X181.247Y-122.681
X185.08Y-47.117
X186.813Y-142.637
X187.757Y-64.215
X188.265Y-139.126
X190.407Y-123.998
X190.558Y-66.182
X191.918Y-105.668
X193.364Y-128.164
X193.409Y-108.763
X193.44Y-138.216
X196.121Y-44.509
X198.194Y-63.84
X198.397Y-44.173
X199.267Y-76.841
X199.913Y-133.42
X207.037Y-122.38
X207.825Y-76.841
X209.378Y-127.171
X209.546Y-50.197
X210.617Y-67.587
X210.964Y-58.603
X214.087Y-74.567
X214.217Y-56.03
X215.691Y-83.171
X217.587Y-79.295
X220.249Y-92.098
X222.479Y-117.998
X224.048Y-106.595
X226.011Y-129.145
X226.205Y-49.057
X229.203Y-123.43
X229.309Y-112.436
X230.154Y-69.896
X234.067Y-101.647
X238.194Y-100.645
X240.751Y-97.24
X244.377Y-58.603
X244.379Y-65.834
X250.183Y-56.539
X250.293Y-121.473
X250.916Y-114.218
X251.007Y-55.181
X262.172Y-112.547
X263.869Y-95.58
X268.58Y-70.359
X270.618Y-73.231
X272.969Y-51.867
X275.068Y-60.008
X277.158Y-145.277
X278.895Y-67.12
X279.095Y-68.433
X279.509Y-141.408
X279.509Y-142.302
X279.509Y-147.943
X279.835Y-72.499
X280.155Y-139.326
X280.438Y-74.186
X282.187Y-61.043
X282.497Y-71.416
X285.407Y-147.451
X285.695Y-142.302
X286.21Y-148.304
X286.701Y-62.555
X289.606Y-144.015
X289.786Y-68.667
X290.197Y-142.639
X292.131Y-118.498
X292.131Y-122.054
X292.142Y-80.237
X292.142Y-88.981
X292.144Y-67.914
X292.55Y-147.885
X295.652Y-76.05
X295.652Y-82.792
X297.155Y-76.349
X297.77Y-77.638
X301.271Y-70.812
X301.469Y-120.774
X301.576Y-118.287
X301.974Y-74.296
X303.126Y-120.6
X309.577Y-99.966
X310.127Y-127.424
T3
X80.612Y-56.792
X80.612Y-63.342
X82.612Y-56.792
X82.612Y-63.342
X122.166Y-159.879
X124.166Y-159.879
X145.666Y-126.379
X146.666Y-120.379
X147.666Y-126.379
X148.666Y-120.379
X153.49Y-60.92
X155.49Y-60.92
X155.666Y-117.379
X155.666Y-119.379
X199.817Y-54.712
X200.067Y-74.282
X201.817Y-54.712
X202.067Y-74.282
X237.977Y-105.547
X237.977Y-112.097
X239.977Y-105.547
X239.977Y-112.097
X249.0Y-42.42
X251.0Y-42.42
X255.994Y-76.199
X255.994Y-82.749
X257.994Y-76.199
X257.994Y-82.749
X265.0Y-128.58
X265.0Y-130.58
X315.605Y-107.04
X317.605Y-107.04
X333.04Y-86.3
X333.04Y-88.3
T4
X74.0Y-70.18
X74.0Y-72.72
X74.0Y-75.26
X74.0Y-77.8
X74.0Y-80.34
X74.0Y-82.88
X74.0Y-85.42
X74.12Y-89.1
X74.12Y-91.64
X74.12Y-94.18
X74.12Y-96.72
X74.12Y-99.26
X74.12Y-101.8
X74.12Y-104.34
X74.12Y-106.88
X76.412Y-33.472
X76.412Y-36.012
X76.412Y-38.552
X76.412Y-41.092
X76.412Y-43.632
X76.412Y-46.172
X76.412Y-48.712
X76.412Y-51.252
X81.62Y-70.18
X81.62Y-72.72
X81.62Y-75.26
X81.62Y-77.8
X81.62Y-80.34
X81.62Y-82.88
X81.62Y-85.42
X81.74Y-89.1
X81.74Y-91.64
X81.74Y-94.18
X81.74Y-96.72
X81.74Y-99.26
X81.74Y-101.8
X81.74Y-104.34
X81.74Y-106.88
X84.032Y-33.472
X84.032Y-36.012
X84.032Y-38.552
X84.032Y-41.092
X84.032Y-43.632
X84.032Y-46.172
X84.032Y-48.712
X84.032Y-51.252
X132.792Y-31.392
X132.792Y-33.932
X132.792Y-36.472
X132.792Y-39.012
X132.792Y-41.552
X132.792Y-44.092
X132.792Y-46.632
X132.912Y-51.812
X132.912Y-54.352
X132.912Y-56.892
X132.912Y-59.432
X132.912Y-61.972
X132.912Y-64.512
X132.912Y-67.052
X140.412Y-31.392
X140.412Y-33.932
X140.412Y-36.472
X140.412Y-39.012
X140.412Y-41.552
X140.412Y-44.092
X140.412Y-46.632
X140.532Y-51.812
X140.532Y-54.352
X140.532Y-56.892
X140.532Y-59.432
X140.532Y-61.972
X140.532Y-64.512
X140.532Y-67.052
X155.677Y-96.507
X155.677Y-99.047
X155.677Y-101.587
X155.677Y-104.127
X155.677Y-106.667
X155.677Y-109.207
X155.677Y-111.747
X158.96Y-66.3
X158.96Y-73.92
X161.5Y-66.3
X161.5Y-73.92
X163.297Y-96.507
X163.297Y-99.047
X163.297Y-101.587
X163.297Y-104.127
X163.297Y-106.667
X163.297Y-109.207
X163.297Y-111.747
X164.04Y-66.3
X164.04Y-73.92
X166.58Y-66.3
X166.58Y-73.92
X169.12Y-66.3
X169.12Y-73.92
X171.66Y-66.3
X171.66Y-73.92
X174.2Y-66.3
X174.2Y-73.92
X176.74Y-66.3
X176.74Y-73.92
X189.007Y-61.892
X189.007Y-64.432
X189.007Y-66.972
X189.007Y-69.512
X189.007Y-72.052
X189.007Y-74.592
X189.007Y-77.132
X189.007Y-79.672
X196.627Y-61.892
X196.627Y-64.432
X196.627Y-66.972
X196.627Y-69.512
X196.627Y-72.052
X196.627Y-74.592
X196.627Y-77.132
X196.627Y-79.672
X205.197Y-36.132
X205.197Y-38.672
X205.197Y-41.212
X205.197Y-43.752
X205.197Y-46.292
X205.197Y-48.832
X205.197Y-51.372
X205.197Y-53.912
X205.462Y-105.325
X205.462Y-107.865
X205.462Y-110.405
X205.462Y-112.945
X205.462Y-115.485
X205.462Y-118.025
X205.462Y-120.565
X212.817Y-36.132
X212.817Y-38.672
X212.817Y-41.212
X212.817Y-43.752
X212.817Y-46.292
X212.817Y-48.832
X212.817Y-51.372
X212.817Y-53.912
X213.082Y-105.325
X213.082Y-107.865
X213.082Y-110.405
X213.082Y-112.945
X213.082Y-115.485
X213.082Y-118.025
X213.082Y-120.565
X216.037Y-105.325
X216.037Y-107.865
X216.037Y-110.405
X216.037Y-112.945
X216.037Y-115.485
X216.037Y-118.025
X216.037Y-120.565
X219.8Y-28.92
X219.8Y-36.54
X222.34Y-28.92
X222.34Y-36.54
X223.657Y-105.325
X223.657Y-107.865
X223.657Y-110.405
X223.657Y-112.945
X223.657Y-115.485
X223.657Y-118.025
X223.657Y-120.565
X224.88Y-28.92
X224.88Y-36.54
X226.613Y-105.325
X226.613Y-107.865
X226.613Y-110.405
X226.613Y-112.945
X226.613Y-115.485
X226.613Y-118.025
X226.613Y-120.565
X227.42Y-28.92
X227.42Y-36.54
X229.96Y-28.92
X229.96Y-36.54
X232.5Y-28.92
X232.5Y-36.54
X234.233Y-105.325
X234.233Y-107.865
X234.233Y-110.405
X234.233Y-112.945
X234.233Y-115.485
X234.233Y-118.025
X234.233Y-120.565
X235.04Y-28.92
X235.04Y-36.54
X237.58Y-28.92
X237.58Y-36.54
X238.947Y-61.332
X238.947Y-63.872
X238.947Y-66.412
X238.947Y-68.952
X238.947Y-71.492
X238.947Y-74.032
X238.947Y-76.572
X238.947Y-79.112
X246.567Y-61.332
X246.567Y-63.872
X246.567Y-66.412
X246.567Y-68.952
X246.567Y-71.492
X246.567Y-74.032
X246.567Y-76.572
X246.567Y-79.112
X266.848Y-70.18
X266.848Y-72.72
X266.848Y-75.26
X266.848Y-77.8
X266.848Y-80.34
X266.848Y-82.88
X266.848Y-85.42
X269.0Y-23.18
X269.0Y-25.72
X269.0Y-28.26
X269.0Y-30.8
X269.0Y-33.34
X269.0Y-35.88
X269.0Y-38.42
X269.0Y-40.96
X274.468Y-70.18
X274.468Y-72.72
X274.468Y-75.26
X274.468Y-77.8
X274.468Y-80.34
X274.468Y-82.88
X274.468Y-85.42
X276.62Y-23.18
X276.62Y-25.72
X276.62Y-28.26
X276.62Y-30.8
X276.62Y-33.34
X276.62Y-35.88
X276.62Y-38.42
X276.62Y-40.96
X277.424Y-70.18
X277.424Y-72.72
X277.424Y-75.26
X277.424Y-77.8
X277.424Y-80.34
X277.424Y-82.88
X277.424Y-85.42
X285.044Y-70.18
X285.044Y-72.72
X285.044Y-75.26
X285.044Y-77.8
X285.044Y-80.34
X285.044Y-82.88
X285.044Y-85.42
X293.09Y-93.93
X293.09Y-101.55
X295.63Y-93.93
X295.63Y-101.55
X298.17Y-93.93
X298.17Y-101.55
X300.71Y-93.93
X300.71Y-101.55
X303.25Y-93.93
X303.25Y-101.55
X305.79Y-93.93
X305.79Y-101.55
X308.33Y-93.93
X308.33Y-101.55
X310.87Y-93.93
X310.87Y-101.55
X314.8Y-93.8
X314.8Y-101.42
X317.34Y-93.8
X317.34Y-101.42
X319.88Y-93.8
X319.88Y-101.42
X322.42Y-93.8
X322.42Y-101.42
X324.96Y-93.8
X324.96Y-101.42
X327.5Y-93.8
X327.5Y-101.42
X330.04Y-93.8
X330.04Y-101.42
X332.58Y-93.8
X332.58Y-101.42
T5
X30.374Y-109.375
X30.38Y-112.42
X35.88Y-104.0
X36.0Y-89.0
X36.0Y-94.157
X36.0Y-99.5
X37.994Y-109.375
X38.0Y-112.42
X42.317Y-109.792
X42.317Y-117.412
X43.5Y-104.0
X43.62Y-89.0
X43.62Y-94.157
X43.62Y-99.5
X45.928Y-91.657
X46.048Y-71.657
X46.048Y-77.157
X46.048Y-81.657
X46.048Y-86.157
X46.048Y-96.657
X46.048Y-102.157
X46.048Y-106.657
X47.317Y-109.792
X47.317Y-117.412
X52.317Y-109.792
X52.317Y-117.412
X53.548Y-91.657
X53.668Y-71.657
X53.668Y-77.157
X53.668Y-81.657
X53.668Y-86.157
X53.668Y-96.657
X53.668Y-102.157
X53.668Y-106.657
X57.317Y-109.792
X57.317Y-117.412
X62.317Y-109.792
X62.317Y-117.412
X63.088Y-88.288
X63.325Y-92.64
X63.325Y-96.69
X63.398Y-100.788
X67.317Y-109.792
X67.317Y-117.412
X67.586Y-130.639
X67.586Y-145.879
X70.126Y-130.639
X70.126Y-145.879
X70.708Y-88.288
X70.945Y-92.64
X70.945Y-96.69
X71.018Y-100.788
X72.317Y-109.792
X72.317Y-117.412
X72.666Y-130.639
X72.666Y-145.879
X75.206Y-130.639
X75.206Y-145.879
X77.317Y-109.792
X77.317Y-117.412
X77.746Y-130.639
X77.746Y-145.879
X81.636Y-130.639
X81.636Y-145.879
X82.317Y-109.792
X82.317Y-117.412
X84.176Y-130.639
X84.176Y-145.879
X85.912Y-58.932
X85.912Y-66.552
X86.716Y-130.639
X86.716Y-145.879
X87.317Y-109.792
X87.317Y-117.412
X89.256Y-130.639
X89.256Y-145.879
X91.796Y-130.639
X91.796Y-145.879
X92.317Y-109.792
X92.317Y-117.412
X93.412Y-91.052
X93.412Y-98.672
X95.686Y-130.639
X95.686Y-145.879
X97.817Y-109.792
X97.817Y-117.412
X98.226Y-130.639
X98.226Y-145.879
X99.912Y-91.052
X99.912Y-98.672
X100.766Y-130.639
X100.766Y-145.879
X102.317Y-109.792
X102.317Y-117.412
X102.912Y-73.932
X102.912Y-81.552
X103.306Y-130.639
X103.306Y-145.879
X105.412Y-91.242
X105.412Y-98.862
X105.846Y-130.639
X105.846Y-145.879
X107.817Y-109.912
X107.817Y-117.532
X108.912Y-73.932
X108.912Y-81.552
X109.356Y-150.879
X109.736Y-130.639
X109.736Y-145.879
X111.266Y-158.879
X111.412Y-90.932
X111.412Y-98.552
X112.276Y-130.639
X112.276Y-145.879
X112.817Y-109.912
X112.817Y-117.532
X113.266Y-158.879
X114.816Y-130.639
X114.816Y-145.879
X114.912Y-73.932
X114.912Y-81.552
X115.266Y-158.879
X116.976Y-150.879
X117.356Y-130.639
X117.356Y-145.879
X117.412Y-90.932
X117.412Y-98.552
X117.817Y-109.792
X117.817Y-117.412
X119.896Y-130.639
X119.896Y-145.879
X130.384Y-134.069
X130.384Y-136.609
X130.384Y-139.149
X130.384Y-141.689
X130.384Y-144.229
X130.384Y-146.769
X130.384Y-149.309
X130.384Y-151.849
X138.004Y-134.069
X138.004Y-136.609
X138.004Y-139.149
X138.004Y-141.689
X138.004Y-144.229
X138.004Y-146.769
X138.004Y-149.309
X138.004Y-151.849
X141.164Y-134.069
X141.164Y-136.609
X141.164Y-139.149
X141.164Y-141.689
X141.164Y-144.229
X141.164Y-146.769
X141.164Y-149.309
X141.164Y-151.849
X148.784Y-134.069
X148.784Y-136.609
X148.784Y-139.149
X148.784Y-141.689
X148.784Y-144.229
X148.784Y-146.769
X148.784Y-149.309
X148.784Y-151.849
X155.666Y-124.379
X157.5Y-27.3
X157.5Y-34.92
X157.99Y-84.17
X157.99Y-91.79
X162.5Y-27.3
X162.5Y-34.92
X162.666Y-127.069
X162.666Y-134.689
X163.286Y-124.379
X163.99Y-84.17
X163.99Y-91.79
X167.5Y-27.3
X167.5Y-34.92
X169.197Y-125.632
X169.197Y-128.172
X169.197Y-130.712
X169.197Y-133.252
X169.197Y-135.792
X169.197Y-138.332
X169.197Y-140.872
X169.197Y-143.412
X170.24Y-84.17
X170.24Y-91.79
X170.695Y-100.61
X170.695Y-103.15
X170.695Y-105.69
X170.695Y-108.23
X170.695Y-110.77
X170.695Y-113.31
X170.695Y-115.85
X170.695Y-118.39
X172.5Y-27.3
X172.5Y-34.92
X175.99Y-84.17
X175.99Y-91.79
X176.817Y-125.632
X176.817Y-128.172
X176.817Y-130.712
X176.817Y-133.252
X176.817Y-135.792
X176.817Y-138.332
X176.817Y-140.872
X176.817Y-143.412
X177.5Y-27.3
X177.5Y-34.92
X178.315Y-100.61
X178.315Y-103.15
X178.315Y-105.69
X178.315Y-108.23
X178.315Y-110.77
X178.315Y-113.31
X178.315Y-115.85
X178.315Y-118.39
X180.12Y-166.3
X180.12Y-173.92
X182.5Y-27.3
X182.5Y-34.92
X182.695Y-101.11
X182.695Y-103.65
X182.695Y-106.19
X182.695Y-108.73
X182.695Y-111.27
X182.695Y-113.81
X182.695Y-116.35
X182.695Y-118.89
X184.417Y-125.657
X184.417Y-128.197
X184.417Y-130.737
X184.417Y-133.277
X184.417Y-135.817
X184.417Y-138.357
X184.417Y-140.897
X184.417Y-143.437
X185.12Y-166.3
X185.12Y-173.92
X187.5Y-27.17
X187.5Y-34.79
X190.12Y-166.11
X190.12Y-173.73
X190.315Y-101.11
X190.315Y-103.65
X190.315Y-106.19
X190.315Y-108.73
X190.315Y-111.27
X190.315Y-113.81
X190.315Y-116.35
X190.315Y-118.89
X192.037Y-125.657
X192.037Y-128.197
X192.037Y-130.737
X192.037Y-133.277
X192.037Y-135.817
X192.037Y-138.357
X192.037Y-140.897
X192.037Y-143.437
X192.5Y-27.3
X192.5Y-34.92
X194.817Y-126.912
X194.817Y-129.452
X194.817Y-131.992
X194.817Y-134.532
X194.817Y-137.072
X194.817Y-139.612
X194.817Y-142.152
X195.12Y-166.11
X195.12Y-173.73
X195.197Y-99.912
X200.62Y-166.3
X200.62Y-173.92
X201.567Y-85.662
X201.567Y-93.282
X202.437Y-126.912
X202.437Y-129.452
X202.437Y-131.992
X202.437Y-134.532
X202.437Y-137.072
X202.437Y-139.612
X202.437Y-142.152
X202.817Y-99.912
X205.12Y-166.3
X205.12Y-173.92
X205.977Y-125.657
X205.977Y-128.197
X205.977Y-130.737
X205.977Y-133.277
X205.977Y-135.817
X205.977Y-138.357
X205.977Y-140.897
X205.977Y-143.437
X206.567Y-85.662
X206.567Y-93.282
X210.12Y-166.11
X210.12Y-173.73
X211.567Y-85.662
X211.567Y-93.282
X213.597Y-125.657
X213.597Y-128.197
X213.597Y-130.737
X213.597Y-133.277
X213.597Y-135.817
X213.597Y-138.357
X213.597Y-140.897
X213.597Y-143.437
X215.12Y-166.3
X215.12Y-173.92
X216.567Y-85.662
X216.567Y-93.282
X221.567Y-85.662
X221.567Y-93.282
X222.197Y-47.272
X222.197Y-54.892
X226.567Y-85.662
X226.567Y-93.282
X227.527Y-125.667
X227.527Y-128.207
X227.527Y-130.747
X227.527Y-133.287
X227.527Y-135.827
X227.527Y-138.367
X227.527Y-140.907
X228.647Y-47.332
X228.647Y-54.952
X231.567Y-85.662
X231.567Y-93.282
X234.397Y-47.272
X234.397Y-54.892
X235.147Y-125.667
X235.147Y-128.207
X235.147Y-130.747
X235.147Y-133.287
X235.147Y-135.827
X235.147Y-138.367
X235.147Y-140.907
X236.817Y-85.912
X236.817Y-93.532
X240.647Y-47.272
X240.647Y-54.892
X241.697Y-124.172
X241.697Y-126.712
X241.697Y-129.252
X241.697Y-131.792
X241.697Y-134.332
X241.697Y-136.872
X241.697Y-139.412
X241.697Y-141.952
X243.25Y-28.13
X243.25Y-35.75
X247.417Y-109.602
X247.417Y-117.222
X249.317Y-124.172
X249.317Y-126.712
X249.317Y-129.252
X249.317Y-131.792
X249.317Y-134.332
X249.317Y-136.872
X249.317Y-139.412
X249.317Y-141.952
X251.25Y-28.13
X251.25Y-35.75
X252.167Y-109.542
X252.167Y-117.162
X253.13Y-125.79
X253.13Y-128.33
X253.13Y-130.87
X253.13Y-133.41
X253.13Y-135.95
X253.13Y-138.49
X253.13Y-141.03
X256.75Y-46.36
X256.75Y-53.98
X256.75Y-58.55
X256.75Y-66.17
X256.88Y-32.63
X256.88Y-35.17
X256.88Y-37.71
X256.88Y-40.25
X257.0Y-23.5
X257.167Y-109.542
X257.167Y-117.162
X259.0Y-23.5
X260.75Y-125.79
X260.75Y-128.33
X260.75Y-130.87
X260.75Y-133.41
X260.75Y-135.95
X260.75Y-138.49
X260.75Y-141.03
X261.0Y-23.5
X262.167Y-109.542
X262.167Y-117.162
X264.5Y-32.63
X264.5Y-35.17
X264.5Y-37.71
X264.5Y-40.25
X266.16Y-45.67
X266.16Y-48.21
X266.16Y-50.75
X266.16Y-53.29
X266.16Y-55.83
X266.16Y-58.37
X266.16Y-60.91
X266.16Y-63.45
X266.917Y-109.792
X266.917Y-117.412
X271.317Y-139.602
X271.317Y-147.222
X271.717Y-109.602
X271.717Y-117.222
X273.78Y-45.67
X273.78Y-48.21
X273.78Y-50.75
X273.78Y-53.29
X273.78Y-55.83
X273.78Y-58.37
X273.78Y-60.91
X273.78Y-63.45
X274.197Y-120.607
X274.197Y-128.227
X275.507Y-139.162
X275.567Y-149.662
X275.567Y-154.412
X276.737Y-120.607
X276.737Y-128.227
X276.917Y-109.732
X276.917Y-117.352
X276.94Y-45.67
X276.94Y-48.21
X276.94Y-50.75
X276.94Y-53.29
X276.94Y-55.83
X276.94Y-58.37
X276.94Y-60.91
X276.94Y-63.45
X278.067Y-149.662
X278.067Y-154.412
X279.277Y-120.607
X279.277Y-128.227
X281.817Y-120.607
X281.817Y-128.227
X281.917Y-109.602
X281.917Y-117.222
X282.067Y-149.912
X282.067Y-157.532
X283.127Y-139.162
X284.357Y-120.607
X284.357Y-128.227
X284.56Y-45.67
X284.56Y-48.21
X284.56Y-50.75
X284.56Y-53.29
X284.56Y-55.83
X284.56Y-58.37
X284.56Y-60.91
X284.56Y-63.45
X286.897Y-120.607
X286.897Y-128.227
X287.72Y-45.67
X287.72Y-48.21
X287.72Y-50.75
X287.72Y-53.29
X287.72Y-55.83
X287.72Y-58.37
X287.72Y-60.91
X287.72Y-63.45
X289.38Y-105.185
X289.38Y-112.805
X289.437Y-120.607
X289.437Y-128.227
X291.92Y-105.185
X291.92Y-112.805
X292.567Y-149.852
X292.567Y-157.472
X293.007Y-127.412
X293.317Y-134.162
X293.317Y-136.662
X294.46Y-105.185
X294.46Y-112.805
X295.34Y-45.67
X295.34Y-48.21
X295.34Y-50.75
X295.34Y-53.29
X295.34Y-55.83
X295.34Y-58.37
X295.34Y-60.91
X295.34Y-63.45
X296.317Y-139.602
X296.317Y-147.222
X297.0Y-105.185
X297.0Y-112.805
X298.5Y-45.68
X298.5Y-48.22
X298.5Y-50.76
X298.5Y-53.3
X298.5Y-55.84
X298.5Y-58.38
X298.5Y-60.92
X298.567Y-131.912
X298.567Y-135.962
X299.46Y-65.05
X299.46Y-72.67
X299.54Y-105.185
X299.54Y-112.805
X300.627Y-127.412
X301.067Y-131.912
X301.067Y-135.962
X302.08Y-105.185
X302.08Y-112.805
X302.798Y-149.0
X302.798Y-151.0
X302.798Y-153.0
X304.067Y-119.162
X304.067Y-121.662
X304.46Y-65.05
X304.46Y-72.67
X304.62Y-105.185
X304.62Y-112.805
X306.12Y-45.68
X306.12Y-48.22
X306.12Y-50.76
X306.12Y-53.3
X306.12Y-55.84
X306.12Y-58.38
X306.12Y-60.92
X309.46Y-65.11
X309.46Y-72.73
X309.545Y-111.54
X312.62Y-141.58
X312.62Y-144.12
X312.62Y-146.66
X312.62Y-149.2
X312.62Y-151.74
X312.62Y-154.28
X312.62Y-156.82
X314.46Y-65.05
X314.46Y-72.67
X317.165Y-111.54
X319.46Y-65.05
X319.46Y-72.67
X320.24Y-141.58
X320.24Y-144.12
X320.24Y-146.66
X320.24Y-149.2
X320.24Y-151.74
X320.24Y-154.28
X320.24Y-156.82
X324.21Y-65.11
X324.21Y-72.73
X329.46Y-65.11
X329.46Y-72.73
X334.46Y-65.05
X334.46Y-72.67
T6
X89.443Y-32.02
X89.443Y-34.56
X89.443Y-37.1
X89.443Y-39.64
X89.443Y-42.18
X89.443Y-44.72
X89.443Y-47.26
X89.443Y-49.8
X89.443Y-52.34
X89.443Y-54.88
X89.443Y-57.42
X89.443Y-59.96
X89.443Y-62.5
X89.443Y-65.04
X105.0Y-32.02
X105.0Y-34.56
X105.0Y-37.1
X105.0Y-39.64
X105.0Y-42.18
X105.0Y-44.72
X105.0Y-47.26
X105.0Y-49.8
X105.0Y-52.34
X105.0Y-54.88
X105.0Y-57.42
X105.0Y-59.96
X105.0Y-62.5
X105.0Y-65.04
X108.443Y-32.06
X108.443Y-34.6
X108.443Y-37.14
X108.443Y-39.68
X108.443Y-42.22
X108.443Y-44.76
X108.443Y-47.3
X108.443Y-49.84
X108.443Y-52.38
X108.443Y-54.92
X108.443Y-57.46
X108.443Y-60.0
X108.443Y-62.54
X108.443Y-65.08
X124.0Y-32.06
X124.0Y-34.6
X124.0Y-37.14
X124.0Y-39.68
X124.0Y-42.22
X124.0Y-44.76
X124.0Y-47.3
X124.0Y-49.84
X124.0Y-52.38
X124.0Y-54.92
X124.0Y-57.46
X124.0Y-60.0
X124.0Y-62.54
X124.0Y-65.08
X126.166Y-95.979
X126.166Y-98.519
X126.166Y-101.059
X126.166Y-103.599
X126.166Y-106.139
X126.166Y-108.679
X126.166Y-111.219
X126.166Y-113.759
X126.166Y-116.299
X126.166Y-118.839
X126.166Y-121.379
X126.166Y-123.919
X126.166Y-126.459
X126.166Y-128.999
X141.724Y-95.979
X141.724Y-98.519
X141.724Y-101.059
X141.724Y-103.599
X141.724Y-106.139
X141.724Y-108.679
X141.724Y-111.219
X141.724Y-113.759
X141.724Y-116.299
X141.724Y-118.839
X141.724Y-121.379
X141.724Y-123.919
X141.724Y-126.459
X141.724Y-128.999
T7
X42.227Y-122.412
X44.767Y-122.412
X47.237Y-122.412
X49.777Y-122.412
X52.227Y-122.412
X54.767Y-122.412
X57.227Y-122.412
X58.5Y-69.11
X58.5Y-71.65
X58.5Y-74.11
X58.5Y-76.65
X58.5Y-79.15
X58.5Y-81.69
X58.5Y-84.11
X58.5Y-86.65
X58.5Y-89.15
X58.5Y-91.69
X58.5Y-94.15
X58.5Y-96.69
X58.5Y-99.15
X58.5Y-101.69
X58.5Y-104.15
X58.5Y-106.69
X59.767Y-122.412
X62.227Y-122.412
X64.767Y-122.412
X67.227Y-122.412
X69.767Y-122.412
X72.277Y-122.412
X74.817Y-122.412
X77.277Y-122.412
X79.817Y-122.412
X82.277Y-122.412
X84.817Y-122.412
X87.277Y-122.412
X89.817Y-122.412
X90.872Y-103.552
X92.277Y-122.412
X93.412Y-103.552
X94.817Y-122.412
X96.882Y-103.552
X97.277Y-122.412
X99.422Y-103.552
X99.817Y-122.412
X102.277Y-122.412
X102.892Y-103.552
X102.902Y-86.552
X104.817Y-122.412
X105.432Y-103.552
X105.442Y-86.552
X107.607Y-122.412
X108.902Y-103.552
X108.912Y-86.552
X110.147Y-122.412
X111.442Y-103.552
X111.452Y-86.552
X112.777Y-122.412
X114.912Y-103.552
X114.922Y-86.552
X115.317Y-122.412
X117.452Y-103.552
X117.462Y-86.552
X117.787Y-122.412
X120.327Y-122.412
X157.5Y-39.92
X157.95Y-79.42
X160.04Y-39.92
X160.49Y-79.42
X162.48Y-39.92
X163.96Y-79.42
X165.02Y-39.92
X166.5Y-79.42
X167.48Y-39.92
X169.97Y-79.42
X170.02Y-39.92
X172.46Y-39.92
X172.51Y-79.42
X175.0Y-39.92
X175.98Y-79.42
X177.46Y-39.92
X178.52Y-79.42
X180.0Y-39.92
X180.08Y-161.42
X182.46Y-39.92
X182.62Y-161.42
X185.0Y-39.92
X185.13Y-161.42
X187.46Y-39.92
X187.67Y-161.42
X190.0Y-39.92
X190.12Y-161.42
X192.46Y-39.92
X192.66Y-161.42
X195.0Y-39.92
X195.12Y-161.42
X197.66Y-161.42
X198.967Y-81.162
X200.12Y-161.42
X201.507Y-81.162
X202.66Y-161.42
X204.007Y-81.162
X205.08Y-161.42
X206.547Y-81.162
X207.62Y-161.42
X209.027Y-81.162
X210.12Y-161.42
X211.567Y-81.162
X212.66Y-161.42
X214.027Y-81.162
X215.12Y-161.42
X216.567Y-81.162
X217.66Y-161.42
X219.047Y-81.162
X221.587Y-81.162
X222.397Y-42.332
X224.047Y-81.162
X224.937Y-42.332
X226.587Y-81.162
X228.407Y-42.332
X229.047Y-81.162
X230.947Y-42.332
X231.587Y-81.162
X234.047Y-81.162
X234.417Y-42.332
X236.587Y-81.162
X236.957Y-42.332
X240.427Y-42.332
X241.23Y-23.5
X242.967Y-42.332
X243.77Y-23.5
X247.477Y-103.852
X248.71Y-23.5
X250.017Y-103.852
X251.25Y-23.5
X252.367Y-103.852
X254.907Y-103.852
X257.242Y-103.852
X259.46Y-53.92
X259.46Y-58.42
X259.782Y-103.852
X262.0Y-53.92
X262.0Y-58.42
X262.087Y-103.852
X264.627Y-103.852
X266.967Y-103.852
X269.507Y-103.852
X271.297Y-134.912
X271.842Y-103.852
X273.837Y-134.912
X274.382Y-103.852
X276.717Y-103.852
X279.257Y-103.852
X281.877Y-103.852
X284.417Y-103.852
X299.44Y-78.92
X301.98Y-78.92
X304.44Y-78.92
X306.98Y-78.92
X309.44Y-78.92
X311.98Y-78.92
X314.46Y-78.92
X317.0Y-78.92
X319.42Y-78.92
X321.96Y-78.92
X324.42Y-78.92
X326.96Y-78.92
X329.5Y-78.88
X332.04Y-78.88
X334.46Y-78.92
X337.0Y-78.92
T8
X320.775Y-109.0
X320.775Y-111.5
X320.775Y-114.0
T9
X85.25Y-70.25
X85.25Y-74.75
X91.75Y-70.25
X91.75Y-74.75
X242.317Y-145.427
X242.317Y-149.927
X248.817Y-145.427
X248.817Y-149.927
X283.067Y-131.162
X283.067Y-135.662
X289.567Y-131.162
X289.567Y-135.662
T10
X143.43Y-66.74
X143.43Y-69.28
X143.43Y-71.82
X143.43Y-74.36
X143.43Y-76.9
X143.43Y-79.44
X143.43Y-81.98
X143.43Y-84.52
X143.43Y-87.06
X143.43Y-89.6
X151.05Y-66.74
X151.05Y-69.28
X151.05Y-71.82
X151.05Y-74.36
X151.05Y-76.9
X151.05Y-79.44
X151.05Y-81.98
X151.05Y-84.52
X151.05Y-87.06
X151.05Y-89.6
X151.697Y-134.632
X151.697Y-137.172
X151.697Y-139.712
X151.697Y-142.252
X151.697Y-144.792
X151.697Y-147.332
X151.697Y-149.872
X151.697Y-152.412
X151.697Y-154.952
X151.697Y-157.492
X159.317Y-134.632
X159.317Y-137.172
X159.317Y-139.712
X159.317Y-142.252
X159.317Y-144.792
X159.317Y-147.332
X159.317Y-149.872
X159.317Y-152.412
X159.317Y-154.952
X159.317Y-157.492
X161.14Y-55.42
X161.14Y-63.04
X163.68Y-55.42
X163.68Y-63.04
X166.22Y-55.42
X166.22Y-63.04
X168.57Y-45.11
X168.57Y-52.73
X168.76Y-55.42
X168.76Y-63.04
X171.11Y-45.11
X171.11Y-52.73
X171.3Y-55.42
X171.3Y-63.04
X173.65Y-45.11
X173.65Y-52.73
X173.84Y-55.42
X173.84Y-63.04
X176.19Y-45.11
X176.19Y-52.73
X176.38Y-55.42
X176.38Y-63.04
X178.73Y-45.11
X178.73Y-52.73
X178.92Y-55.42
X178.92Y-63.04
X181.27Y-45.11
X181.27Y-52.73
X181.46Y-55.42
X181.46Y-63.04
X183.81Y-45.11
X183.81Y-52.73
X184.0Y-55.42
X184.0Y-63.04
X186.35Y-45.11
X186.35Y-52.73
X187.76Y-146.3
X187.76Y-153.92
X188.89Y-45.11
X188.89Y-52.73
X190.3Y-146.3
X190.3Y-153.92
X191.43Y-45.11
X191.43Y-52.73
X192.84Y-146.3
X192.84Y-153.92
X195.38Y-146.3
X195.38Y-153.92
X197.92Y-146.3
X197.92Y-153.92
X200.46Y-146.3
X200.46Y-153.92
X203.0Y-146.3
X203.0Y-153.92
X205.54Y-146.3
X205.54Y-153.92
X205.957Y-64.662
X205.957Y-72.282
X208.08Y-146.3
X208.08Y-153.92
X208.497Y-64.662
X208.497Y-72.282
X210.62Y-146.3
X210.62Y-153.92
X211.037Y-64.662
X211.037Y-72.282
X213.577Y-64.662
X213.577Y-72.282
X216.117Y-64.662
X216.117Y-72.282
X218.657Y-64.662
X218.657Y-72.282
X221.197Y-64.662
X221.197Y-72.282
X223.737Y-64.662
X223.737Y-72.282
X226.277Y-64.662
X226.277Y-72.282
X228.817Y-64.662
X228.817Y-72.282
X252.737Y-90.792
X252.737Y-98.412
X255.277Y-90.792
X255.277Y-98.412
X257.817Y-90.792
X257.817Y-98.412
X260.357Y-90.792
X260.357Y-98.412
X262.897Y-90.792
X262.897Y-98.412
X265.437Y-90.792
X265.437Y-98.412
X267.977Y-90.792
X267.977Y-98.412
X270.517Y-90.792
X270.517Y-98.412
X273.057Y-90.792
X273.057Y-98.412
X275.597Y-90.792
X275.597Y-98.412
X301.79Y-83.68
X301.79Y-91.3
X304.33Y-83.68
X304.33Y-91.3
X306.87Y-83.68
X306.87Y-91.3
X309.41Y-83.68
X309.41Y-91.3
X311.95Y-83.68
X311.95Y-91.3
X314.49Y-83.68
X314.49Y-91.3
X317.03Y-83.68
X317.03Y-91.3
X319.57Y-83.68
X319.57Y-91.3
X322.11Y-83.68
X322.11Y-91.3
X324.65Y-83.68
X324.65Y-91.3
T11
X109.166Y-158.879
X117.366Y-158.879
X254.9Y-23.5
X263.1Y-23.5
X302.798Y-146.9
X302.798Y-155.1
T2
G00X20.87Y-106.35
M15
G01X20.17Y-106.35
M16
G05
G00X20.87Y-114.99
M15
G01X20.17Y-114.99
M16
G05
G00X24.67Y-106.35
M15
G01X23.97Y-106.35
M16
G05
G00X24.67Y-114.99
M15
G01X23.97Y-114.99
M16
G05
T9
G00X327.925Y-106.7
M15
G01X328.625Y-106.7
M16
G05
G00X327.925Y-116.3
M15
G01X328.625Y-116.3
M16
G05
M30
