%TF.GenerationSoftware,KiCad,Pcbnew,9.0.4-1.fc42app3*%
%TF.CreationDate,2025-11-06T21:39:45-06:00*%
%TF.ProjectId,8-Bit-PC,382d4269-742d-4504-932e-6b696361645f,1*%
%TF.SameCoordinates,Original*%
%TF.FileFunction,Copper,L3,Inr*%
%TF.FilePolarity,Positive*%
%FSLAX46Y46*%
G04 Gerber Fmt 4.6, Leading zero omitted, Abs format (unit mm)*
G04 Created by KiCad (PCBNEW 9.0.4-1.fc42app3) date 2025-11-06 21:39:45*
%MOMM*%
%LPD*%
G01*
G04 APERTURE LIST*
G04 Aperture macros list*
%AMRoundRect*
0 Rectangle with rounded corners*
0 $1 Rounding radius*
0 $2 $3 $4 $5 $6 $7 $8 $9 X,Y pos of 4 corners*
0 Add a 4 corners polygon primitive as box body*
4,1,4,$2,$3,$4,$5,$6,$7,$8,$9,$2,$3,0*
0 Add four circle primitives for the rounded corners*
1,1,$1+$1,$2,$3*
1,1,$1+$1,$4,$5*
1,1,$1+$1,$6,$7*
1,1,$1+$1,$8,$9*
0 Add four rect primitives between the rounded corners*
20,1,$1+$1,$2,$3,$4,$5,0*
20,1,$1+$1,$4,$5,$6,$7,0*
20,1,$1+$1,$6,$7,$8,$9,0*
20,1,$1+$1,$8,$9,$2,$3,0*%
G04 Aperture macros list end*
%TA.AperFunction,ComponentPad*%
%ADD10C,1.600000*%
%TD*%
%TA.AperFunction,ComponentPad*%
%ADD11RoundRect,0.250000X-0.550000X-0.550000X0.550000X-0.550000X0.550000X0.550000X-0.550000X0.550000X0*%
%TD*%
%TA.AperFunction,ComponentPad*%
%ADD12C,1.200000*%
%TD*%
%TA.AperFunction,ComponentPad*%
%ADD13R,1.295400X1.295400*%
%TD*%
%TA.AperFunction,ComponentPad*%
%ADD14C,1.295400*%
%TD*%
%TA.AperFunction,ComponentPad*%
%ADD15R,1.800000X1.800000*%
%TD*%
%TA.AperFunction,ComponentPad*%
%ADD16C,1.800000*%
%TD*%
%TA.AperFunction,ComponentPad*%
%ADD17R,1.378000X1.378000*%
%TD*%
%TA.AperFunction,ComponentPad*%
%ADD18C,1.378000*%
%TD*%
%TA.AperFunction,ComponentPad*%
%ADD19C,2.000000*%
%TD*%
%TA.AperFunction,ComponentPad*%
%ADD20R,1.600000X1.600000*%
%TD*%
%TA.AperFunction,ComponentPad*%
%ADD21RoundRect,0.250000X0.550000X0.550000X-0.550000X0.550000X-0.550000X-0.550000X0.550000X-0.550000X0*%
%TD*%
%TA.AperFunction,ComponentPad*%
%ADD22R,1.676400X1.676400*%
%TD*%
%TA.AperFunction,ComponentPad*%
%ADD23C,1.676400*%
%TD*%
%TA.AperFunction,ComponentPad*%
%ADD24O,2.200000X3.500000*%
%TD*%
%TA.AperFunction,ComponentPad*%
%ADD25R,1.500000X2.500000*%
%TD*%
%TA.AperFunction,ComponentPad*%
%ADD26O,1.500000X2.500000*%
%TD*%
%TA.AperFunction,HeatsinkPad*%
%ADD27O,1.700000X1.000000*%
%TD*%
%TA.AperFunction,ComponentPad*%
%ADD28O,3.240000X2.720000*%
%TD*%
%TA.AperFunction,ComponentPad*%
%ADD29RoundRect,0.250000X0.550000X-0.550000X0.550000X0.550000X-0.550000X0.550000X-0.550000X-0.550000X0*%
%TD*%
%TA.AperFunction,ComponentPad*%
%ADD30RoundRect,0.250000X-0.550000X0.550000X-0.550000X-0.550000X0.550000X-0.550000X0.550000X0.550000X0*%
%TD*%
%TA.AperFunction,ComponentPad*%
%ADD31O,3.500000X2.200000*%
%TD*%
%TA.AperFunction,ComponentPad*%
%ADD32R,2.500000X1.500000*%
%TD*%
%TA.AperFunction,ComponentPad*%
%ADD33O,2.500000X1.500000*%
%TD*%
%TA.AperFunction,ViaPad*%
%ADD34C,0.600000*%
%TD*%
%TA.AperFunction,Conductor*%
%ADD35C,0.200000*%
%TD*%
G04 APERTURE END LIST*
D10*
%TO.N,Net-(D16-K)*%
%TO.C,R14*%
X266917100Y-109792300D03*
%TO.N,GND*%
X266917100Y-117412300D03*
%TD*%
D11*
%TO.N,Net-(U3-Q)*%
%TO.C,U5*%
X253130000Y-125790000D03*
D10*
%TO.N,Net-(U4-Pad4)*%
X253130000Y-128330000D03*
%TO.N,Net-(U52-Zb)*%
X253130000Y-130870000D03*
%TO.N,Net-(U21-D1)*%
X253130000Y-133410000D03*
%TO.N,Net-(U52-Zc)*%
X253130000Y-135950000D03*
%TO.N,Net-(U21-D2)*%
X253130000Y-138490000D03*
%TO.N,GND*%
X253130000Y-141030000D03*
%TO.N,Net-(U4-Pad10)*%
X260750000Y-141030000D03*
%TO.N,HLT*%
X260750000Y-138490000D03*
%TO.N,Net-(U23-D1)*%
X260750000Y-135950000D03*
%TO.N,Net-(U24-Zc)*%
X260750000Y-133410000D03*
%TO.N,~{CLK}*%
X260750000Y-130870000D03*
%TO.N,CLK*%
X260750000Y-128330000D03*
%TO.N,VCC*%
X260750000Y-125790000D03*
%TD*%
D12*
%TO.N,VCC*%
%TO.C,C8*%
X333040000Y-86300000D03*
%TO.N,GND*%
X333040000Y-88300000D03*
%TD*%
D10*
%TO.N,GND*%
%TO.C,C3*%
X275567100Y-149662300D03*
%TO.N,Net-(U2-DIS)*%
X278067100Y-149662300D03*
%TD*%
%TO.N,Net-(D025-K)*%
%TO.C,R94*%
X319460000Y-72670000D03*
%TO.N,GND*%
X319460000Y-65050000D03*
%TD*%
D11*
%TO.N,/MAR/PROG*%
%TO.C,U52*%
X205977100Y-125657300D03*
D10*
%TO.N,Net-(U52-I0a)*%
X205977100Y-128197300D03*
%TO.N,BUS_7*%
X205977100Y-130737300D03*
%TO.N,Net-(U52-Za)*%
X205977100Y-133277300D03*
%TO.N,Net-(U52-I0b)*%
X205977100Y-135817300D03*
%TO.N,BUS_6*%
X205977100Y-138357300D03*
%TO.N,Net-(U52-Zb)*%
X205977100Y-140897300D03*
%TO.N,GND*%
X205977100Y-143437300D03*
%TO.N,Net-(U52-Zd)*%
X213597100Y-143437300D03*
%TO.N,BUS_4*%
X213597100Y-140897300D03*
%TO.N,Net-(U52-I0d)*%
X213597100Y-138357300D03*
%TO.N,Net-(U52-Zc)*%
X213597100Y-135817300D03*
%TO.N,BUS_5*%
X213597100Y-133277300D03*
%TO.N,Net-(U52-I0c)*%
X213597100Y-130737300D03*
%TO.N,GND*%
X213597100Y-128197300D03*
%TO.N,VCC*%
X213597100Y-125657300D03*
%TD*%
%TO.N,Net-(D112-K)*%
%TO.C,R83*%
X157500000Y-34920000D03*
%TO.N,GND*%
X157500000Y-27300000D03*
%TD*%
%TO.N,Net-(D116-K)*%
%TO.C,R87*%
X177500000Y-34920000D03*
%TO.N,GND*%
X177500000Y-27300000D03*
%TD*%
D13*
%TO.N,GND*%
%TO.C,U8*%
X310870000Y-93930000D03*
D14*
X308330000Y-93930000D03*
%TO.N,/ALU/B_7*%
X305790000Y-93930000D03*
%TO.N,/ALU/B_6*%
X303250000Y-93930000D03*
%TO.N,/ALU/B_5*%
X300710000Y-93930000D03*
%TO.N,/ALU/B_4*%
X298170000Y-93930000D03*
%TO.N,CLK*%
X295630000Y-93930000D03*
%TO.N,GND*%
X293090000Y-93930000D03*
%TO.N,~{BI}*%
X293090000Y-101550000D03*
X295630000Y-101550000D03*
%TO.N,BUS_4*%
X298170000Y-101550000D03*
%TO.N,BUS_5*%
X300710000Y-101550000D03*
%TO.N,BUS_6*%
X303250000Y-101550000D03*
%TO.N,BUS_7*%
X305790000Y-101550000D03*
%TO.N,CLR*%
X308330000Y-101550000D03*
%TO.N,VCC*%
X310870000Y-101550000D03*
%TD*%
D11*
%TO.N,Net-(U51-Zc)*%
%TO.C,U20*%
X227527100Y-125667300D03*
D10*
%TO.N,Net-(U21-\u002AWE)*%
X227527100Y-128207300D03*
%TO.N,Net-(U24-Zb)*%
X227527100Y-130747300D03*
%TO.N,Net-(U23-D3)*%
X227527100Y-133287300D03*
%TO.N,Net-(U24-Za)*%
X227527100Y-135827300D03*
%TO.N,Net-(U23-D2)*%
X227527100Y-138367300D03*
%TO.N,GND*%
X227527100Y-140907300D03*
%TO.N,Net-(U21-D3)*%
X235147100Y-140907300D03*
%TO.N,Net-(U52-Zd)*%
X235147100Y-138367300D03*
%TO.N,N/C*%
X235147100Y-135827300D03*
X235147100Y-133287300D03*
%TO.N,Net-(U23-D0)*%
X235147100Y-130747300D03*
%TO.N,Net-(U24-Zd)*%
X235147100Y-128207300D03*
%TO.N,VCC*%
X235147100Y-125667300D03*
%TD*%
D13*
%TO.N,Net-(U41-~{MR})*%
%TO.C,U41*%
X84032100Y-51252300D03*
D14*
%TO.N,~{CLK}*%
X84032100Y-48712300D03*
%TO.N,unconnected-(U41-D0-Pad3)*%
X84032100Y-46172300D03*
%TO.N,unconnected-(U41-D1-Pad4)*%
X84032100Y-43632300D03*
%TO.N,unconnected-(U41-D2-Pad5)*%
X84032100Y-41092300D03*
%TO.N,unconnected-(U41-D3-Pad6)*%
X84032100Y-38552300D03*
%TO.N,VCC*%
X84032100Y-36012300D03*
%TO.N,GND*%
X84032100Y-33472300D03*
%TO.N,VCC*%
X76412100Y-33472300D03*
X76412100Y-36012300D03*
%TO.N,unconnected-(U41-Q3-Pad11)*%
X76412100Y-38552300D03*
%TO.N,Net-(D61-A)*%
X76412100Y-41092300D03*
%TO.N,Net-(D60-A)*%
X76412100Y-43632300D03*
%TO.N,Net-(D59-A)*%
X76412100Y-46172300D03*
%TO.N,unconnected-(U41-TC-Pad15)*%
X76412100Y-48712300D03*
%TO.N,VCC*%
X76412100Y-51252300D03*
%TD*%
D12*
%TO.N,VCC*%
%TO.C,C11*%
X249000000Y-42420000D03*
%TO.N,GND*%
X251000000Y-42420000D03*
%TD*%
D15*
%TO.N,Net-(D31-K)*%
%TO.C,D31*%
X205080000Y-161420000D03*
D16*
%TO.N,Net-(D31-A)*%
X207620000Y-161420000D03*
%TD*%
D15*
%TO.N,Net-(D116-K)*%
%TO.C,D116*%
X177460000Y-39920000D03*
D16*
%TO.N,Net-(D116-A)*%
X180000000Y-39920000D03*
%TD*%
D10*
%TO.N,Net-(C14-Pad2)*%
%TO.C,R32*%
X202817100Y-99912300D03*
%TO.N,GND*%
X195197100Y-99912300D03*
%TD*%
D11*
%TO.N,Net-(U4-Pad3)*%
%TO.C,U6*%
X312620000Y-141580000D03*
D10*
%TO.N,Net-(U4-Pad6)*%
X312620000Y-144120000D03*
%TO.N,Net-(U4-Pad9)*%
X312620000Y-146660000D03*
%TO.N,unconnected-(U6-Pad4)*%
X312620000Y-149200000D03*
%TO.N,unconnected-(U6-Pad5)*%
X312620000Y-151740000D03*
%TO.N,unconnected-(U6-Pad6)*%
X312620000Y-154280000D03*
%TO.N,GND*%
X312620000Y-156820000D03*
%TO.N,unconnected-(U6-Pad8)*%
X320240000Y-156820000D03*
%TO.N,unconnected-(U6-Pad9)*%
X320240000Y-154280000D03*
%TO.N,unconnected-(U6-Pad10)*%
X320240000Y-151740000D03*
%TO.N,unconnected-(U6-Pad11)*%
X320240000Y-149200000D03*
%TO.N,unconnected-(U6-Pad12)*%
X320240000Y-146660000D03*
%TO.N,unconnected-(U6-Pad13)*%
X320240000Y-144120000D03*
%TO.N,VCC*%
X320240000Y-141580000D03*
%TD*%
D15*
%TO.N,Net-(D57-K)*%
%TO.C,D57*%
X108902100Y-103552300D03*
D16*
%TO.N,Net-(D57-A)*%
X111442100Y-103552300D03*
%TD*%
D15*
%TO.N,Net-(D53-K)*%
%TO.C,D53*%
X117787100Y-122412300D03*
D16*
%TO.N,Net-(D53-A)*%
X120327100Y-122412300D03*
%TD*%
D10*
%TO.N,Net-(D17-K)*%
%TO.C,R15*%
X271717100Y-109602300D03*
%TO.N,GND*%
X271717100Y-117222300D03*
%TD*%
%TO.N,Net-(D15-K)*%
%TO.C,R13*%
X262167100Y-109542300D03*
%TO.N,GND*%
X262167100Y-117162300D03*
%TD*%
D15*
%TO.N,Net-(D112-K)*%
%TO.C,D112*%
X157500000Y-39920000D03*
D16*
%TO.N,IR_7*%
X160040000Y-39920000D03*
%TD*%
D10*
%TO.N,GND*%
%TO.C,R16*%
X276917100Y-117352300D03*
%TO.N,Net-(D18-K)*%
X276917100Y-109732300D03*
%TD*%
D15*
%TO.N,Net-(D14-K)*%
%TO.C,D14*%
X259460000Y-53920000D03*
D16*
%TO.N,CF*%
X262000000Y-53920000D03*
%TD*%
D10*
%TO.N,VCC*%
%TO.C,R3*%
X275507100Y-139162300D03*
%TO.N,Net-(U2-TR)*%
X283127100Y-139162300D03*
%TD*%
%TO.N,Net-(D62-K)*%
%TO.C,R65*%
X53667700Y-106657100D03*
%TO.N,GND*%
X46047700Y-106657100D03*
%TD*%
%TO.N,Net-(D20-K)*%
%TO.C,R20*%
X222197100Y-47272300D03*
%TO.N,GND*%
X222197100Y-54892300D03*
%TD*%
D15*
%TO.N,Net-(D69-K)*%
%TO.C,D69*%
X58500000Y-71650000D03*
D16*
%TO.N,BUS_7*%
X58500000Y-69110000D03*
%TD*%
D15*
%TO.N,Net-(D13-K)*%
%TO.C,D13*%
X257242100Y-103852300D03*
D16*
%TO.N,Net-(D13-A)*%
X259782100Y-103852300D03*
%TD*%
D10*
%TO.N,Net-(D028-K)*%
%TO.C,R97*%
X304460000Y-72670000D03*
%TO.N,GND*%
X304460000Y-65050000D03*
%TD*%
D17*
%TO.N,N/C*%
%TO.C,U43*%
X89442550Y-32020000D03*
D18*
%TO.N,GND*%
X89442550Y-34560000D03*
X89442550Y-37100000D03*
%TO.N,IR_7*%
X89442550Y-39640000D03*
%TO.N,IR_6*%
X89442550Y-42180000D03*
%TO.N,IR_5*%
X89442550Y-44720000D03*
%TO.N,IR_4*%
X89442550Y-47260000D03*
%TO.N,Net-(D61-A)*%
X89442550Y-49800000D03*
%TO.N,Net-(D60-A)*%
X89442550Y-52340000D03*
%TO.N,Net-(D59-A)*%
X89442550Y-54880000D03*
%TO.N,Net-(D45-A)*%
X89442550Y-57420000D03*
%TO.N,Net-(D44-A)*%
X89442550Y-59960000D03*
%TO.N,Net-(D43-A)*%
X89442550Y-62500000D03*
%TO.N,GND*%
X89442550Y-65040000D03*
%TO.N,Net-(D42-A)*%
X105000050Y-65040000D03*
%TO.N,Net-(D41-A)*%
X105000050Y-62500000D03*
%TO.N,RI*%
X105000050Y-59960000D03*
%TO.N,Net-(D39-A)*%
X105000050Y-57420000D03*
%TO.N,HLT*%
X105000050Y-54880000D03*
%TO.N,GND*%
X105000050Y-52340000D03*
X105000050Y-49800000D03*
X105000050Y-47260000D03*
X105000050Y-44720000D03*
%TO.N,ZF*%
X105000050Y-42180000D03*
%TO.N,CF*%
X105000050Y-39640000D03*
%TO.N,N/C*%
X105000050Y-37100000D03*
%TO.N,VCC*%
X105000050Y-34560000D03*
X105000050Y-32020000D03*
%TD*%
D15*
%TO.N,Net-(D17-K)*%
%TO.C,D17*%
X271842100Y-103852300D03*
D16*
%TO.N,Net-(D17-A)*%
X274382100Y-103852300D03*
%TD*%
D15*
%TO.N,Net-(D59-K)*%
%TO.C,D59*%
X102902100Y-86552300D03*
D16*
%TO.N,Net-(D59-A)*%
X105442100Y-86552300D03*
%TD*%
D15*
%TO.N,Net-(D115-K)*%
%TO.C,D115*%
X172460000Y-39920000D03*
D16*
%TO.N,IR_4*%
X175000000Y-39920000D03*
%TD*%
D19*
%TO.N,GND*%
%TO.C,SW6*%
X248817100Y-149927300D03*
X242317100Y-149927300D03*
%TO.N,Net-(U51-I0c)*%
X248817100Y-145427300D03*
X242317100Y-145427300D03*
%TD*%
D15*
%TO.N,Net-(D30-K)*%
%TO.C,D30*%
X200120000Y-161420000D03*
D16*
%TO.N,Net-(D30-A)*%
X202660000Y-161420000D03*
%TD*%
D11*
%TO.N,Net-(U31-Q)*%
%TO.C,U32*%
X130383900Y-134069100D03*
D10*
%TO.N,VCC*%
X130383900Y-136609100D03*
X130383900Y-139149100D03*
X130383900Y-141689100D03*
X130383900Y-144229100D03*
%TO.N,Net-(U32A-~{Q})*%
X130383900Y-146769100D03*
%TO.N,VCC*%
X130383900Y-149309100D03*
X130383900Y-151849100D03*
X138003900Y-151849100D03*
%TO.N,Net-(U32B-~{Q})*%
X138003900Y-149309100D03*
%TO.N,unconnected-(U32B-Q-Pad11)*%
X138003900Y-146769100D03*
%TO.N,VCC*%
X138003900Y-144229100D03*
%TO.N,GND*%
X138003900Y-141689100D03*
%TO.N,Net-(U32A-~{Q})*%
X138003900Y-139149100D03*
%TO.N,unconnected-(U32A-Q-Pad15)*%
X138003900Y-136609100D03*
%TO.N,VCC*%
X138003900Y-134069100D03*
%TD*%
D15*
%TO.N,Net-(D50-K)*%
%TO.C,D50*%
X102277100Y-122412300D03*
D16*
%TO.N,CE*%
X104817100Y-122412300D03*
%TD*%
D20*
%TO.N,Net-(U34-E)*%
%TO.C,U35*%
X81636400Y-145879100D03*
D10*
%TO.N,Net-(U34-D)*%
X84176400Y-145879100D03*
%TO.N,Net-(U33A-O0)*%
X86716400Y-145879100D03*
%TO.N,Net-(U34-C)*%
X89256400Y-145879100D03*
%TO.N,Net-(U34-DP)*%
X91796400Y-145879100D03*
%TO.N,Net-(U34-B)*%
X91796400Y-130639100D03*
%TO.N,Net-(U34-A)*%
X89256400Y-130639100D03*
%TO.N,Net-(U33A-O0)*%
X86716400Y-130639100D03*
%TO.N,Net-(U34-F)*%
X84176400Y-130639100D03*
%TO.N,Net-(U34-G)*%
X81636400Y-130639100D03*
%TD*%
D15*
%TO.N,Net-(D11-K)*%
%TO.C,D11*%
X247477100Y-103852300D03*
D16*
%TO.N,Net-(D11-A)*%
X250017100Y-103852300D03*
%TD*%
D15*
%TO.N,Net-(D25-K)*%
%TO.C,D25*%
X248710000Y-23500000D03*
D16*
%TO.N,Net-(D25-A)*%
X251250000Y-23500000D03*
%TD*%
D10*
%TO.N,Net-(D57-A)*%
%TO.C,R57*%
X111412100Y-98552300D03*
%TO.N,VCC*%
X111412100Y-90932300D03*
%TD*%
D11*
%TO.N,GND*%
%TO.C,U33*%
X141163900Y-134069100D03*
D10*
%TO.N,Net-(U32A-~{Q})*%
X141163900Y-136609100D03*
%TO.N,Net-(U32B-~{Q})*%
X141163900Y-139149100D03*
%TO.N,Net-(U33A-O0)*%
X141163900Y-141689100D03*
%TO.N,Net-(U33A-O1)*%
X141163900Y-144229100D03*
%TO.N,Net-(U33A-O2)*%
X141163900Y-146769100D03*
%TO.N,Net-(U33A-O3)*%
X141163900Y-149309100D03*
%TO.N,GND*%
X141163900Y-151849100D03*
%TO.N,N/C*%
X148783900Y-151849100D03*
X148783900Y-149309100D03*
X148783900Y-146769100D03*
X148783900Y-144229100D03*
X148783900Y-141689100D03*
X148783900Y-139149100D03*
X148783900Y-136609100D03*
%TO.N,VCC*%
X148783900Y-134069100D03*
%TD*%
D15*
%TO.N,Net-(D38-K)*%
%TO.C,D38*%
X42227100Y-122412300D03*
D16*
%TO.N,HLT*%
X44767100Y-122412300D03*
%TD*%
D10*
%TO.N,Net-(D69-K)*%
%TO.C,R72*%
X53667700Y-71657100D03*
%TO.N,GND*%
X46047700Y-71657100D03*
%TD*%
D12*
%TO.N,VCC*%
%TO.C,C18*%
X148666400Y-120379100D03*
%TO.N,GND*%
X146666400Y-120379100D03*
%TD*%
D15*
%TO.N,Net-(D42-K)*%
%TO.C,D42*%
X62227100Y-122412300D03*
D16*
%TO.N,Net-(D42-A)*%
X64767100Y-122412300D03*
%TD*%
D15*
%TO.N,Net-(D8-K)*%
%TO.C,D8*%
X231587100Y-81162300D03*
D16*
%TO.N,/ALU/A_1*%
X229047100Y-81162300D03*
%TD*%
D10*
%TO.N,Net-(D50-K)*%
%TO.C,R52*%
X102317100Y-117412300D03*
%TO.N,GND*%
X102317100Y-109792300D03*
%TD*%
%TO.N,Net-(D118-K)*%
%TO.C,R89*%
X187500000Y-34790000D03*
%TO.N,GND*%
X187500000Y-27170000D03*
%TD*%
%TO.N,Net-(D33-K)*%
%TO.C,R31*%
X215120000Y-166300000D03*
%TO.N,GND*%
X215120000Y-173920000D03*
%TD*%
%TO.N,VCC*%
%TO.C,R5*%
X292567100Y-157472300D03*
%TO.N,Net-(SW2-A)*%
X292567100Y-149852300D03*
%TD*%
D15*
%TO.N,Net-(D022-K)*%
%TO.C,D022*%
X334460000Y-78920000D03*
D16*
%TO.N,/ALU/B_7*%
X337000000Y-78920000D03*
%TD*%
D10*
%TO.N,Net-(D119-K)*%
%TO.C,R90*%
X192500000Y-34920000D03*
%TO.N,GND*%
X192500000Y-27300000D03*
%TD*%
D12*
%TO.N,VCC*%
%TO.C,C10*%
X255993900Y-82749100D03*
%TO.N,GND*%
X257993900Y-82749100D03*
%TD*%
%TO.N,Net-(U1-THR)*%
%TO.C,C7*%
X317605000Y-107040000D03*
%TO.N,GND*%
X315605000Y-107040000D03*
%TD*%
D15*
%TO.N,Net-(D54-K)*%
%TO.C,D54*%
X90872100Y-103552300D03*
D16*
%TO.N,Net-(D54-A)*%
X93412100Y-103552300D03*
%TD*%
D10*
%TO.N,BUS_6*%
%TO.C,R74*%
X63325000Y-92640000D03*
%TO.N,GND*%
X70945000Y-92640000D03*
%TD*%
D15*
%TO.N,Net-(D44-K)*%
%TO.C,D44*%
X72277100Y-122412300D03*
D16*
%TO.N,Net-(D44-A)*%
X74817100Y-122412300D03*
%TD*%
D15*
%TO.N,Net-(D48-K)*%
%TO.C,D48*%
X92277100Y-122412300D03*
D16*
%TO.N,Net-(D48-A)*%
X94817100Y-122412300D03*
%TD*%
D21*
%TO.N,Net-(U24-I0d)*%
%TO.C,SW5*%
X176817100Y-143412300D03*
D10*
%TO.N,Net-(U24-I0c)*%
X176817100Y-140872300D03*
%TO.N,GND*%
X176817100Y-138332300D03*
X176817100Y-135792300D03*
%TO.N,Net-(U52-I0d)*%
X176817100Y-133252300D03*
%TO.N,Net-(U52-I0c)*%
X176817100Y-130712300D03*
%TO.N,GND*%
X176817100Y-128172300D03*
X176817100Y-125632300D03*
%TO.N,Net-(U52-I0a)*%
X169197100Y-125632300D03*
%TO.N,Net-(U52-I0b)*%
X169197100Y-128172300D03*
%TO.N,GND*%
X169197100Y-130712300D03*
X169197100Y-133252300D03*
%TO.N,Net-(U24-I0a)*%
X169197100Y-135792300D03*
%TO.N,Net-(U24-I0b)*%
X169197100Y-138332300D03*
%TO.N,GND*%
X169197100Y-140872300D03*
X169197100Y-143412300D03*
%TD*%
D22*
%TO.N,GND*%
%TO.C,U29*%
X143430000Y-66740000D03*
D23*
%TO.N,unconnected-(U29-A0-Pad2)*%
X143430000Y-69280000D03*
%TO.N,unconnected-(U29-A1-Pad3)*%
X143430000Y-71820000D03*
%TO.N,unconnected-(U29-A2-Pad4)*%
X143430000Y-74360000D03*
%TO.N,unconnected-(U29-A3-Pad5)*%
X143430000Y-76900000D03*
%TO.N,BUS_3*%
X143430000Y-79440000D03*
%TO.N,BUS_2*%
X143430000Y-81980000D03*
%TO.N,BUS_1*%
X143430000Y-84520000D03*
%TO.N,BUS_0*%
X143430000Y-87060000D03*
%TO.N,GND*%
X143430000Y-89600000D03*
%TO.N,Net-(D37-A)*%
X151050000Y-89600000D03*
%TO.N,Net-(D36-A)*%
X151050000Y-87060000D03*
%TO.N,Net-(D35-A)*%
X151050000Y-84520000D03*
%TO.N,Net-(D34-A)*%
X151050000Y-81980000D03*
%TO.N,unconnected-(U29-B3-Pad15)*%
X151050000Y-79440000D03*
%TO.N,unconnected-(U29-B2-Pad16)*%
X151050000Y-76900000D03*
%TO.N,unconnected-(U29-B1-Pad17)*%
X151050000Y-74360000D03*
%TO.N,unconnected-(U29-B0-Pad18)*%
X151050000Y-71820000D03*
%TO.N,~{CO}*%
X151050000Y-69280000D03*
%TO.N,VCC*%
X151050000Y-66740000D03*
%TD*%
D10*
%TO.N,Net-(SW7-A)*%
%TO.C,R39*%
X109356400Y-150879100D03*
%TO.N,GND*%
X116976400Y-150879100D03*
%TD*%
D15*
%TO.N,Net-(D10-K)*%
%TO.C,D10*%
X259460000Y-58420000D03*
D16*
%TO.N,ZF*%
X262000000Y-58420000D03*
%TD*%
D15*
%TO.N,Net-(D028-K)*%
%TO.C,D028*%
X304440000Y-78920000D03*
D16*
%TO.N,/ALU/B_1*%
X306980000Y-78920000D03*
%TD*%
D10*
%TO.N,Net-(D42-K)*%
%TO.C,R44*%
X62317100Y-117412300D03*
%TO.N,GND*%
X62317100Y-109792300D03*
%TD*%
D15*
%TO.N,Net-(D20-K)*%
%TO.C,D20*%
X222397100Y-42332300D03*
D16*
%TO.N,/MAR/A3*%
X224937100Y-42332300D03*
%TD*%
D21*
%TO.N,Net-(U52-Za)*%
%TO.C,U22*%
X202437100Y-142152300D03*
D10*
%TO.N,Net-(U21-D0)*%
X202437100Y-139612300D03*
%TO.N,unconnected-(U22-Pad3)*%
X202437100Y-137072300D03*
%TO.N,unconnected-(U22-Pad4)*%
X202437100Y-134532300D03*
%TO.N,unconnected-(U22-Pad5)*%
X202437100Y-131992300D03*
%TO.N,unconnected-(U22-Pad6)*%
X202437100Y-129452300D03*
%TO.N,GND*%
X202437100Y-126912300D03*
%TO.N,unconnected-(U22-Pad8)*%
X194817100Y-126912300D03*
%TO.N,unconnected-(U22-Pad9)*%
X194817100Y-129452300D03*
%TO.N,unconnected-(U22-Pad10)*%
X194817100Y-131992300D03*
%TO.N,unconnected-(U22-Pad11)*%
X194817100Y-134532300D03*
%TO.N,unconnected-(U22-Pad12)*%
X194817100Y-137072300D03*
%TO.N,unconnected-(U22-Pad13)*%
X194817100Y-139612300D03*
%TO.N,VCC*%
X194817100Y-142152300D03*
%TD*%
%TO.N,Net-(D66-K)*%
%TO.C,R69*%
X53667700Y-86157100D03*
%TO.N,GND*%
X46047700Y-86157100D03*
%TD*%
%TO.N,Net-(D26-K)*%
%TO.C,R24*%
X180120000Y-166300000D03*
%TO.N,GND*%
X180120000Y-173920000D03*
%TD*%
%TO.N,VCC*%
%TO.C,R6*%
X296317100Y-147222300D03*
%TO.N,Net-(SW2-C)*%
X296317100Y-139602300D03*
%TD*%
D15*
%TO.N,Net-(D025-K)*%
%TO.C,D025*%
X319420000Y-78920000D03*
D16*
%TO.N,/ALU/B_4*%
X321960000Y-78920000D03*
%TD*%
D20*
%TO.N,Net-(U34-E)*%
%TO.C,U37*%
X109736400Y-145879100D03*
D10*
%TO.N,Net-(U34-D)*%
X112276400Y-145879100D03*
%TO.N,Net-(U33A-O1)*%
X114816400Y-145879100D03*
%TO.N,Net-(U34-C)*%
X117356400Y-145879100D03*
%TO.N,Net-(U34-DP)*%
X119896400Y-145879100D03*
%TO.N,Net-(U34-B)*%
X119896400Y-130639100D03*
%TO.N,Net-(U34-A)*%
X117356400Y-130639100D03*
%TO.N,Net-(U33A-O1)*%
X114816400Y-130639100D03*
%TO.N,Net-(U34-F)*%
X112276400Y-130639100D03*
%TO.N,Net-(U34-G)*%
X109736400Y-130639100D03*
%TD*%
D15*
%TO.N,Net-(D68-K)*%
%TO.C,D68*%
X58500000Y-76650000D03*
D16*
%TO.N,BUS_6*%
X58500000Y-74110000D03*
%TD*%
D10*
%TO.N,Net-(D19-K)*%
%TO.C,R17*%
X281917100Y-109602300D03*
%TO.N,GND*%
X281917100Y-117222300D03*
%TD*%
%TO.N,Net-(D68-K)*%
%TO.C,R71*%
X53667700Y-77157100D03*
%TO.N,GND*%
X46047700Y-77157100D03*
%TD*%
%TO.N,VCC*%
%TO.C,R19*%
X251250000Y-35750000D03*
%TO.N,Net-(D25-A)*%
X251250000Y-28130000D03*
%TD*%
D12*
%TO.N,Net-(U31-CV)*%
%TO.C,C17*%
X124166400Y-159879100D03*
%TO.N,GND*%
X122166400Y-159879100D03*
%TD*%
D15*
%TO.N,Net-(D114-K)*%
%TO.C,D114*%
X167480000Y-39920000D03*
D16*
%TO.N,IR_5*%
X170020000Y-39920000D03*
%TD*%
D12*
%TO.N,VCC*%
%TO.C,C13*%
X237977100Y-112097300D03*
%TO.N,GND*%
X239977100Y-112097300D03*
%TD*%
D10*
%TO.N,VCC*%
%TO.C,R37*%
X162666400Y-134689100D03*
%TO.N,Net-(U31-DIS)*%
X162666400Y-127069100D03*
%TD*%
%TO.N,GND*%
%TO.C,R33*%
X157990000Y-91790000D03*
%TO.N,Net-(D34-K)*%
X157990000Y-84170000D03*
%TD*%
%TO.N,Net-(D60-K)*%
%TO.C,R62*%
X108912100Y-81552300D03*
%TO.N,GND*%
X108912100Y-73932300D03*
%TD*%
D15*
%TO.N,Net-(D61-K)*%
%TO.C,D61*%
X114922100Y-86552300D03*
D16*
%TO.N,Net-(D61-A)*%
X117462100Y-86552300D03*
%TD*%
D15*
%TO.N,Net-(D21-K)*%
%TO.C,D21*%
X228407100Y-42332300D03*
D16*
%TO.N,/MAR/A2*%
X230947100Y-42332300D03*
%TD*%
D11*
%TO.N,Net-(D13-A)*%
%TO.C,U13*%
X276940000Y-45670000D03*
D10*
%TO.N,Net-(U13-B2)*%
X276940000Y-48210000D03*
%TO.N,/ALU/A_5*%
X276940000Y-50750000D03*
%TO.N,Net-(D15-A)*%
X276940000Y-53290000D03*
%TO.N,/ALU/A_4*%
X276940000Y-55830000D03*
%TO.N,Net-(U13-B1)*%
X276940000Y-58370000D03*
%TO.N,Net-(U13-C0)*%
X276940000Y-60910000D03*
%TO.N,GND*%
X276940000Y-63450000D03*
%TO.N,Net-(U12-D0)*%
X284560000Y-63450000D03*
%TO.N,Net-(D11-A)*%
X284560000Y-60910000D03*
%TO.N,Net-(U13-B4)*%
X284560000Y-58370000D03*
%TO.N,/ALU/A_7*%
X284560000Y-55830000D03*
%TO.N,Net-(D12-A)*%
X284560000Y-53290000D03*
%TO.N,/ALU/A_6*%
X284560000Y-50750000D03*
%TO.N,Net-(U13-B3)*%
X284560000Y-48210000D03*
%TO.N,VCC*%
X284560000Y-45670000D03*
%TD*%
%TO.N,Net-(D022-K)*%
%TO.C,R91*%
X334460000Y-72670000D03*
%TO.N,GND*%
X334460000Y-65050000D03*
%TD*%
%TO.N,Net-(D45-K)*%
%TO.C,R47*%
X77317100Y-117412300D03*
%TO.N,GND*%
X77317100Y-109792300D03*
%TD*%
%TO.N,Net-(J1-CC2)*%
%TO.C,R81*%
X30380000Y-112420000D03*
%TO.N,GND*%
X38000000Y-112420000D03*
%TD*%
D15*
%TO.N,Net-(D027-K)*%
%TO.C,D027*%
X309440000Y-78920000D03*
D16*
%TO.N,/ALU/B_2*%
X311980000Y-78920000D03*
%TD*%
D10*
%TO.N,Net-(D54-A)*%
%TO.C,R60*%
X93412100Y-98672300D03*
%TO.N,VCC*%
X93412100Y-91052300D03*
%TD*%
D11*
%TO.N,/MAR/PROG*%
%TO.C,U24*%
X184417100Y-125657300D03*
D10*
%TO.N,Net-(U24-I0a)*%
X184417100Y-128197300D03*
%TO.N,BUS_3*%
X184417100Y-130737300D03*
%TO.N,Net-(U24-Za)*%
X184417100Y-133277300D03*
%TO.N,Net-(U24-I0b)*%
X184417100Y-135817300D03*
%TO.N,BUS_2*%
X184417100Y-138357300D03*
%TO.N,Net-(U24-Zb)*%
X184417100Y-140897300D03*
%TO.N,GND*%
X184417100Y-143437300D03*
%TO.N,Net-(U24-Zd)*%
X192037100Y-143437300D03*
%TO.N,BUS_0*%
X192037100Y-140897300D03*
%TO.N,Net-(U24-I0d)*%
X192037100Y-138357300D03*
%TO.N,Net-(U24-Zc)*%
X192037100Y-135817300D03*
%TO.N,BUS_1*%
X192037100Y-133277300D03*
%TO.N,Net-(U24-I0c)*%
X192037100Y-130737300D03*
%TO.N,GND*%
X192037100Y-128197300D03*
%TO.N,VCC*%
X192037100Y-125657300D03*
%TD*%
D15*
%TO.N,Net-(D27-K)*%
%TO.C,D27*%
X185130000Y-161420000D03*
D16*
%TO.N,Net-(D27-A)*%
X187670000Y-161420000D03*
%TD*%
D10*
%TO.N,VCC*%
%TO.C,R1*%
X293007100Y-127412300D03*
%TO.N,Net-(U1-DIS)*%
X300627100Y-127412300D03*
%TD*%
%TO.N,VCC*%
%TO.C,R4*%
X282067100Y-157532300D03*
%TO.N,Net-(U2-DIS)*%
X282067100Y-149912300D03*
%TD*%
D15*
%TO.N,Net-(D29-K)*%
%TO.C,D29*%
X195120000Y-161420000D03*
D16*
%TO.N,Net-(D29-A)*%
X197660000Y-161420000D03*
%TD*%
D10*
%TO.N,Net-(D67-K)*%
%TO.C,R70*%
X53667700Y-81657100D03*
%TO.N,GND*%
X46047700Y-81657100D03*
%TD*%
D15*
%TO.N,Net-(D22-K)*%
%TO.C,D22*%
X234417100Y-42332300D03*
D16*
%TO.N,/MAR/A1*%
X236957100Y-42332300D03*
%TD*%
D10*
%TO.N,GND*%
%TO.C,R35*%
X170240000Y-91790000D03*
%TO.N,Net-(D36-K)*%
X170240000Y-84170000D03*
%TD*%
D15*
%TO.N,Net-(D56-K)*%
%TO.C,D56*%
X102892100Y-103552300D03*
D16*
%TO.N,Net-(D56-A)*%
X105432100Y-103552300D03*
%TD*%
D13*
%TO.N,~{CLR}*%
%TO.C,U30*%
X176740000Y-66300000D03*
D14*
%TO.N,CLK*%
X174200000Y-66300000D03*
%TO.N,BUS_0*%
X171660000Y-66300000D03*
%TO.N,BUS_1*%
X169120000Y-66300000D03*
%TO.N,BUS_2*%
X166580000Y-66300000D03*
%TO.N,BUS_3*%
X164040000Y-66300000D03*
%TO.N,CE*%
X161500000Y-66300000D03*
%TO.N,GND*%
X158960000Y-66300000D03*
%TO.N,~{J}*%
X158960000Y-73920000D03*
%TO.N,CE*%
X161500000Y-73920000D03*
%TO.N,Net-(D34-A)*%
X164040000Y-73920000D03*
%TO.N,Net-(D35-A)*%
X166580000Y-73920000D03*
%TO.N,Net-(D36-A)*%
X169120000Y-73920000D03*
%TO.N,Net-(D37-A)*%
X171660000Y-73920000D03*
%TO.N,unconnected-(U30-TC-Pad15)*%
X174200000Y-73920000D03*
%TO.N,VCC*%
X176740000Y-73920000D03*
%TD*%
D15*
%TO.N,Net-(D41-K)*%
%TO.C,D41*%
X57227100Y-122412300D03*
D16*
%TO.N,Net-(D41-A)*%
X59767100Y-122412300D03*
%TD*%
D15*
%TO.N,Net-(D46-K)*%
%TO.C,D46*%
X82277100Y-122412300D03*
D16*
%TO.N,Net-(D46-A)*%
X84817100Y-122412300D03*
%TD*%
D10*
%TO.N,GND*%
%TO.C,R36*%
X175990000Y-91790000D03*
%TO.N,Net-(D37-K)*%
X175990000Y-84170000D03*
%TD*%
%TO.N,Net-(D53-K)*%
%TO.C,R55*%
X117817100Y-117412300D03*
%TO.N,GND*%
X117817100Y-109792300D03*
%TD*%
D13*
%TO.N,GND*%
%TO.C,U19*%
X269000000Y-23180000D03*
D14*
X269000000Y-25720000D03*
%TO.N,/MAR/PROG*%
X269000000Y-28260000D03*
X269000000Y-30800000D03*
X269000000Y-33340000D03*
X269000000Y-35880000D03*
%TO.N,CLK*%
X269000000Y-38420000D03*
%TO.N,GND*%
X269000000Y-40960000D03*
%TO.N,~{MI}*%
X276620000Y-40960000D03*
X276620000Y-38420000D03*
%TO.N,BUS_0*%
X276620000Y-35880000D03*
%TO.N,BUS_1*%
X276620000Y-33340000D03*
%TO.N,BUS_2*%
X276620000Y-30800000D03*
%TO.N,BUS_3*%
X276620000Y-28260000D03*
%TO.N,CLR*%
X276620000Y-25720000D03*
%TO.N,VCC*%
X276620000Y-23180000D03*
%TD*%
D12*
%TO.N,VCC*%
%TO.C,C118*%
X199817100Y-54712300D03*
%TO.N,GND*%
X201817100Y-54712300D03*
%TD*%
D11*
%TO.N,Net-(U10-Pad1)*%
%TO.C,U10*%
X298500000Y-45680000D03*
D10*
%TO.N,Net-(U10-Pad2)*%
X298500000Y-48220000D03*
%TO.N,Net-(U10-Pad3)*%
X298500000Y-50760000D03*
%TO.N,Net-(U10-Pad4)*%
X298500000Y-53300000D03*
%TO.N,Net-(U10-Pad3)*%
X298500000Y-55840000D03*
%TO.N,Net-(U12-D1)*%
X298500000Y-58380000D03*
%TO.N,GND*%
X298500000Y-60920000D03*
%TO.N,Net-(U10-Pad4)*%
X306120000Y-60920000D03*
%TO.N,Net-(U10-Pad9)*%
X306120000Y-58380000D03*
%TO.N,Net-(U10-Pad10)*%
X306120000Y-55840000D03*
%TO.N,unconnected-(U10-Pad11)*%
X306120000Y-53300000D03*
%TO.N,unconnected-(U10-Pad12)*%
X306120000Y-50760000D03*
%TO.N,unconnected-(U10-Pad13)*%
X306120000Y-48220000D03*
%TO.N,VCC*%
X306120000Y-45680000D03*
%TD*%
D24*
%TO.N,*%
%TO.C,SW7*%
X109166400Y-158879100D03*
X117366400Y-158879100D03*
D25*
%TO.N,Net-(SW7-A)*%
X111266400Y-158879100D03*
D26*
%TO.N,Net-(SW7-B)*%
X113266400Y-158879100D03*
%TO.N,VCC*%
X115266400Y-158879100D03*
%TD*%
D10*
%TO.N,Net-(D117-K)*%
%TO.C,R88*%
X182500000Y-34920000D03*
%TO.N,GND*%
X182500000Y-27300000D03*
%TD*%
D13*
%TO.N,Net-(U10-Pad2)*%
%TO.C,U11*%
X266848400Y-70180000D03*
D14*
%TO.N,Net-(D11-A)*%
X266848400Y-72720000D03*
%TO.N,Net-(D12-A)*%
X266848400Y-75260000D03*
%TO.N,Net-(U10-Pad1)*%
X266848400Y-77800000D03*
%TO.N,Net-(D13-A)*%
X266848400Y-80340000D03*
%TO.N,Net-(D15-A)*%
X266848400Y-82880000D03*
%TO.N,GND*%
X266848400Y-85420000D03*
%TO.N,Net-(D16-A)*%
X274468400Y-85420000D03*
%TO.N,Net-(D17-A)*%
X274468400Y-82880000D03*
%TO.N,Net-(U10-Pad10)*%
X274468400Y-80340000D03*
%TO.N,Net-(D18-A)*%
X274468400Y-77800000D03*
%TO.N,Net-(D19-A)*%
X274468400Y-75260000D03*
%TO.N,Net-(U10-Pad9)*%
X274468400Y-72720000D03*
%TO.N,VCC*%
X274468400Y-70180000D03*
%TD*%
D19*
%TO.N,GND*%
%TO.C,SW1*%
X283067100Y-131162300D03*
X289567100Y-131162300D03*
%TO.N,Net-(U2-TR)*%
X283067100Y-135662300D03*
X289567100Y-135662300D03*
%TD*%
D15*
%TO.N,Net-(D28-K)*%
%TO.C,D28*%
X190120000Y-161420000D03*
D16*
%TO.N,Net-(D28-A)*%
X192660000Y-161420000D03*
%TD*%
D10*
%TO.N,Net-(D56-A)*%
%TO.C,R58*%
X105412100Y-98862300D03*
%TO.N,VCC*%
X105412100Y-91242300D03*
%TD*%
%TO.N,Net-(D55-A)*%
%TO.C,R59*%
X99912100Y-98672300D03*
%TO.N,VCC*%
X99912100Y-91052300D03*
%TD*%
%TO.N,Net-(U1-DIS)*%
%TO.C,R2*%
X309545000Y-111540000D03*
%TO.N,Net-(R2-Pad2)*%
X317165000Y-111540000D03*
%TD*%
D15*
%TO.N,Net-(D40-K)*%
%TO.C,D40*%
X52227100Y-122412300D03*
D16*
%TO.N,RI*%
X54767100Y-122412300D03*
%TD*%
D10*
%TO.N,GND*%
%TO.C,C4*%
X293317100Y-134162300D03*
%TO.N,Net-(U3-CV)*%
X293317100Y-136662300D03*
%TD*%
%TO.N,Net-(D024-K)*%
%TO.C,R93*%
X324210000Y-72730000D03*
%TO.N,GND*%
X324210000Y-65110000D03*
%TD*%
D15*
%TO.N,Net-(D2-K)*%
%TO.C,D2*%
X201507100Y-81162300D03*
D16*
%TO.N,/ALU/A_7*%
X198967100Y-81162300D03*
%TD*%
D10*
%TO.N,Net-(D115-K)*%
%TO.C,R86*%
X172500000Y-34920000D03*
%TO.N,GND*%
X172500000Y-27300000D03*
%TD*%
D15*
%TO.N,Net-(D47-K)*%
%TO.C,D47*%
X87277100Y-122412300D03*
D16*
%TO.N,SU*%
X89817100Y-122412300D03*
%TD*%
D20*
%TO.N,Net-(U34-E)*%
%TO.C,U34*%
X67586400Y-145879100D03*
D10*
%TO.N,Net-(U34-D)*%
X70126400Y-145879100D03*
%TO.N,Net-(U33A-O3)*%
X72666400Y-145879100D03*
%TO.N,Net-(U34-C)*%
X75206400Y-145879100D03*
%TO.N,Net-(U34-DP)*%
X77746400Y-145879100D03*
%TO.N,Net-(U34-B)*%
X77746400Y-130639100D03*
%TO.N,Net-(U34-A)*%
X75206400Y-130639100D03*
%TO.N,Net-(U33A-O3)*%
X72666400Y-130639100D03*
%TO.N,Net-(U34-F)*%
X70126400Y-130639100D03*
%TO.N,Net-(U34-G)*%
X67586400Y-130639100D03*
%TD*%
D22*
%TO.N,VCC*%
%TO.C,U25*%
X187760000Y-153920000D03*
D23*
%TO.N,Net-(D26-A)*%
X190300000Y-153920000D03*
%TO.N,Net-(D27-A)*%
X192840000Y-153920000D03*
%TO.N,Net-(D28-A)*%
X195380000Y-153920000D03*
%TO.N,Net-(D29-A)*%
X197920000Y-153920000D03*
%TO.N,Net-(D30-A)*%
X200460000Y-153920000D03*
%TO.N,Net-(D31-A)*%
X203000000Y-153920000D03*
%TO.N,Net-(D32-A)*%
X205540000Y-153920000D03*
%TO.N,Net-(D33-A)*%
X208080000Y-153920000D03*
%TO.N,GND*%
X210620000Y-153920000D03*
%TO.N,BUS_0*%
X210620000Y-146300000D03*
%TO.N,BUS_1*%
X208080000Y-146300000D03*
%TO.N,BUS_2*%
X205540000Y-146300000D03*
%TO.N,BUS_3*%
X203000000Y-146300000D03*
%TO.N,BUS_4*%
X200460000Y-146300000D03*
%TO.N,BUS_5*%
X197920000Y-146300000D03*
%TO.N,BUS_6*%
X195380000Y-146300000D03*
%TO.N,BUS_7*%
X192840000Y-146300000D03*
%TO.N,~{RO}*%
X190300000Y-146300000D03*
%TO.N,VCC*%
X187760000Y-146300000D03*
%TD*%
D15*
%TO.N,Net-(D026-K)*%
%TO.C,D026*%
X314460000Y-78920000D03*
D16*
%TO.N,/ALU/B_3*%
X317000000Y-78920000D03*
%TD*%
D10*
%TO.N,Net-(D029-K)*%
%TO.C,R98*%
X299460000Y-72670000D03*
%TO.N,GND*%
X299460000Y-65050000D03*
%TD*%
%TO.N,GND*%
%TO.C,R34*%
X163990000Y-91790000D03*
%TO.N,Net-(D35-K)*%
X163990000Y-84170000D03*
%TD*%
%TO.N,Net-(D5-K)*%
%TO.C,R102*%
X216567100Y-85662300D03*
%TO.N,GND*%
X216567100Y-93282300D03*
%TD*%
D22*
%TO.N,VCC*%
%TO.C,U48*%
X205957100Y-72282300D03*
D23*
%TO.N,/ALU/A_4*%
X208497100Y-72282300D03*
%TO.N,/ALU/A_5*%
X211037100Y-72282300D03*
%TO.N,/ALU/A_6*%
X213577100Y-72282300D03*
%TO.N,/ALU/A_7*%
X216117100Y-72282300D03*
%TO.N,/ALU/A_0*%
X218657100Y-72282300D03*
%TO.N,/ALU/A_1*%
X221197100Y-72282300D03*
%TO.N,/ALU/A_2*%
X223737100Y-72282300D03*
%TO.N,/ALU/A_3*%
X226277100Y-72282300D03*
%TO.N,GND*%
X228817100Y-72282300D03*
%TO.N,BUS_0*%
X228817100Y-64662300D03*
%TO.N,BUS_1*%
X226277100Y-64662300D03*
%TO.N,BUS_2*%
X223737100Y-64662300D03*
%TO.N,BUS_3*%
X221197100Y-64662300D03*
%TO.N,BUS_4*%
X218657100Y-64662300D03*
%TO.N,BUS_5*%
X216117100Y-64662300D03*
%TO.N,BUS_6*%
X213577100Y-64662300D03*
%TO.N,BUS_7*%
X211037100Y-64662300D03*
%TO.N,~{AO}*%
X208497100Y-64662300D03*
%TO.N,VCC*%
X205957100Y-64662300D03*
%TD*%
D15*
%TO.N,Net-(D029-K)*%
%TO.C,D029*%
X299440000Y-78920000D03*
D16*
%TO.N,/ALU/B_0*%
X301980000Y-78920000D03*
%TD*%
D10*
%TO.N,Net-(D30-K)*%
%TO.C,R28*%
X200620000Y-166300000D03*
%TO.N,GND*%
X200620000Y-173920000D03*
%TD*%
D13*
%TO.N,Net-(C14-Pad2)*%
%TO.C,U26*%
X205461600Y-105325000D03*
D14*
%TO.N,RI*%
X205461600Y-107865000D03*
%TO.N,Net-(U51-I1c)*%
X205461600Y-110405000D03*
%TO.N,~{CLR}*%
X205461600Y-112945000D03*
%TO.N,Net-(U42-O5)*%
X205461600Y-115485000D03*
%TO.N,Net-(U26-Pad6)*%
X205461600Y-118025000D03*
%TO.N,GND*%
X205461600Y-120565000D03*
%TO.N,~{CLR}*%
X213081600Y-120565000D03*
%TO.N,Net-(R64-Pad1)*%
X213081600Y-118025000D03*
X213081600Y-115485000D03*
%TO.N,CLR*%
X213081600Y-112945000D03*
%TO.N,~{CLR}*%
X213081600Y-110405000D03*
X213081600Y-107865000D03*
%TO.N,VCC*%
X213081600Y-105325000D03*
%TD*%
D15*
%TO.N,Net-(D1-K)*%
%TO.C,D1*%
X271297100Y-134912300D03*
D16*
%TO.N,CLK*%
X273837100Y-134912300D03*
%TD*%
D15*
%TO.N,Net-(D9-K)*%
%TO.C,D9*%
X236587100Y-81162300D03*
D16*
%TO.N,/ALU/A_0*%
X234047100Y-81162300D03*
%TD*%
D15*
%TO.N,Net-(D113-K)*%
%TO.C,D113*%
X162480000Y-39920000D03*
D16*
%TO.N,IR_6*%
X165020000Y-39920000D03*
%TD*%
D22*
%TO.N,VCC*%
%TO.C,U17*%
X252737100Y-98412300D03*
D23*
%TO.N,Net-(D11-A)*%
X255277100Y-98412300D03*
%TO.N,Net-(D12-A)*%
X257817100Y-98412300D03*
%TO.N,Net-(D13-A)*%
X260357100Y-98412300D03*
%TO.N,Net-(D15-A)*%
X262897100Y-98412300D03*
%TO.N,Net-(D16-A)*%
X265437100Y-98412300D03*
%TO.N,Net-(D17-A)*%
X267977100Y-98412300D03*
%TO.N,Net-(D18-A)*%
X270517100Y-98412300D03*
%TO.N,Net-(D19-A)*%
X273057100Y-98412300D03*
%TO.N,GND*%
X275597100Y-98412300D03*
%TO.N,BUS_0*%
X275597100Y-90792300D03*
%TO.N,BUS_1*%
X273057100Y-90792300D03*
%TO.N,BUS_2*%
X270517100Y-90792300D03*
%TO.N,BUS_3*%
X267977100Y-90792300D03*
%TO.N,BUS_4*%
X265437100Y-90792300D03*
%TO.N,BUS_5*%
X262897100Y-90792300D03*
%TO.N,BUS_6*%
X260357100Y-90792300D03*
%TO.N,BUS_7*%
X257817100Y-90792300D03*
%TO.N,~{EO}*%
X255277100Y-90792300D03*
%TO.N,VCC*%
X252737100Y-90792300D03*
%TD*%
D12*
%TO.N,VCC*%
%TO.C,C22*%
X202067100Y-74282300D03*
%TO.N,GND*%
X200067100Y-74282300D03*
%TD*%
D13*
%TO.N,/MAR/PROG*%
%TO.C,U18*%
X219800000Y-36540000D03*
D14*
X222340000Y-36540000D03*
X224880000Y-36540000D03*
%TO.N,/MAR/A3*%
X227420000Y-36540000D03*
%TO.N,/MAR/PROG*%
X229960000Y-36540000D03*
X232500000Y-36540000D03*
%TO.N,/MAR/A2*%
X235040000Y-36540000D03*
%TO.N,GND*%
X237580000Y-36540000D03*
%TO.N,/MAR/A1*%
X237580000Y-28920000D03*
%TO.N,/MAR/PROG*%
X235040000Y-28920000D03*
X232500000Y-28920000D03*
%TO.N,/MAR/A0*%
X229960000Y-28920000D03*
%TO.N,/MAR/PROG*%
X227420000Y-28920000D03*
X224880000Y-28920000D03*
%TO.N,GND*%
X222340000Y-28920000D03*
%TO.N,VCC*%
X219800000Y-28920000D03*
%TD*%
D10*
%TO.N,VCC*%
%TO.C,R18*%
X243250000Y-35750000D03*
%TO.N,Net-(D24-A)*%
X243250000Y-28130000D03*
%TD*%
%TO.N,Net-(D4-K)*%
%TO.C,R101*%
X211567100Y-85662300D03*
%TO.N,GND*%
X211567100Y-93282300D03*
%TD*%
D12*
%TO.N,VCC*%
%TO.C,C12*%
X237977100Y-105547300D03*
%TO.N,GND*%
X239977100Y-105547300D03*
%TD*%
D15*
%TO.N,Net-(D5-K)*%
%TO.C,D5*%
X216567100Y-81162300D03*
D16*
%TO.N,/ALU/A_4*%
X214027100Y-81162300D03*
%TD*%
D10*
%TO.N,Net-(D49-K)*%
%TO.C,R51*%
X97817100Y-117412300D03*
%TO.N,GND*%
X97817100Y-109792300D03*
%TD*%
%TO.N,Net-(D52-K)*%
%TO.C,R54*%
X112817100Y-117532300D03*
%TO.N,GND*%
X112817100Y-109912300D03*
%TD*%
%TO.N,GND*%
%TO.C,C1*%
X304067100Y-119162300D03*
%TO.N,Net-(U1-CV)*%
X304067100Y-121662300D03*
%TD*%
D19*
%TO.N,Net-(R64-Pad1)*%
%TO.C,SW8*%
X85250000Y-70250000D03*
X91750000Y-70250000D03*
%TO.N,VCC*%
X85250000Y-74750000D03*
X91750000Y-74750000D03*
%TD*%
D10*
%TO.N,Net-(D27-K)*%
%TO.C,R25*%
X185120000Y-166300000D03*
%TO.N,GND*%
X185120000Y-173920000D03*
%TD*%
D11*
%TO.N,/MAR/PROG*%
%TO.C,SW3*%
X256880000Y-32630000D03*
D10*
X256880000Y-35170000D03*
%TO.N,GND*%
X256880000Y-37710000D03*
X256880000Y-40250000D03*
%TO.N,/MAR/PROG*%
X264500000Y-40250000D03*
X264500000Y-37710000D03*
%TO.N,GND*%
X264500000Y-35170000D03*
X264500000Y-32630000D03*
%TD*%
D15*
%TO.N,Net-(D39-K)*%
%TO.C,D39*%
X47237100Y-122412300D03*
D16*
%TO.N,Net-(D39-A)*%
X49777100Y-122412300D03*
%TD*%
D10*
%TO.N,Net-(D44-K)*%
%TO.C,R46*%
X72317100Y-117412300D03*
%TO.N,GND*%
X72317100Y-109792300D03*
%TD*%
%TO.N,Net-(D6-K)*%
%TO.C,R103*%
X221567100Y-85662300D03*
%TO.N,GND*%
X221567100Y-93282300D03*
%TD*%
%TO.N,Net-(D32-K)*%
%TO.C,R30*%
X210120000Y-166110000D03*
%TO.N,GND*%
X210120000Y-173730000D03*
%TD*%
%TO.N,Net-(D48-K)*%
%TO.C,R50*%
X92317100Y-117412300D03*
%TO.N,GND*%
X92317100Y-109792300D03*
%TD*%
D24*
%TO.N,*%
%TO.C,SW4*%
X263100000Y-23500000D03*
X254900000Y-23500000D03*
D25*
%TO.N,/MAR/PROG*%
X261000000Y-23500000D03*
D26*
%TO.N,GND*%
X259000000Y-23500000D03*
%TO.N,Net-(D25-K)*%
X257000000Y-23500000D03*
%TD*%
D13*
%TO.N,Net-(U23-\u002AO1)*%
%TO.C,U28*%
X226613200Y-105325000D03*
D14*
%TO.N,Net-(D32-A)*%
X226613200Y-107865000D03*
%TO.N,Net-(U23-\u002AO0)*%
X226613200Y-110405000D03*
%TO.N,Net-(D33-A)*%
X226613200Y-112945000D03*
%TO.N,Net-(D42-A)*%
X226613200Y-115485000D03*
%TO.N,~{IO}*%
X226613200Y-118025000D03*
%TO.N,GND*%
X226613200Y-120565000D03*
%TO.N,~{AO}*%
X234233200Y-120565000D03*
%TO.N,Net-(D45-A)*%
X234233200Y-118025000D03*
%TO.N,~{AI}*%
X234233200Y-115485000D03*
%TO.N,Net-(D44-A)*%
X234233200Y-112945000D03*
%TO.N,~{II}*%
X234233200Y-110405000D03*
%TO.N,Net-(D43-A)*%
X234233200Y-107865000D03*
%TO.N,VCC*%
X234233200Y-105325000D03*
%TD*%
D22*
%TO.N,VCC*%
%TO.C,U117*%
X168570000Y-52730000D03*
D23*
%TO.N,IR_4*%
X171110000Y-52730000D03*
%TO.N,IR_5*%
X173650000Y-52730000D03*
%TO.N,IR_6*%
X176190000Y-52730000D03*
%TO.N,IR_7*%
X178730000Y-52730000D03*
%TO.N,Net-(D119-A)*%
X181270000Y-52730000D03*
%TO.N,Net-(D118-A)*%
X183810000Y-52730000D03*
%TO.N,Net-(D117-A)*%
X186350000Y-52730000D03*
%TO.N,Net-(D116-A)*%
X188890000Y-52730000D03*
%TO.N,GND*%
X191430000Y-52730000D03*
%TO.N,BUS_0*%
X191430000Y-45110000D03*
%TO.N,BUS_1*%
X188890000Y-45110000D03*
%TO.N,BUS_2*%
X186350000Y-45110000D03*
%TO.N,BUS_3*%
X183810000Y-45110000D03*
%TO.N,BUS_4*%
X181270000Y-45110000D03*
%TO.N,BUS_5*%
X178730000Y-45110000D03*
%TO.N,BUS_6*%
X176190000Y-45110000D03*
%TO.N,BUS_7*%
X173650000Y-45110000D03*
%TO.N,~{IO}*%
X171110000Y-45110000D03*
%TO.N,VCC*%
X168570000Y-45110000D03*
%TD*%
D10*
%TO.N,Net-(D9-K)*%
%TO.C,R106*%
X236817100Y-85912300D03*
%TO.N,GND*%
X236817100Y-93532300D03*
%TD*%
%TO.N,Net-(D023-K)*%
%TO.C,R92*%
X329460000Y-72730000D03*
%TO.N,GND*%
X329460000Y-65110000D03*
%TD*%
D15*
%TO.N,Net-(D60-K)*%
%TO.C,D60*%
X108912100Y-86552300D03*
D16*
%TO.N,Net-(D60-A)*%
X111452100Y-86552300D03*
%TD*%
D13*
%TO.N,/ALU/B_5*%
%TO.C,U15*%
X277424200Y-70180000D03*
D14*
%TO.N,SU*%
X277424200Y-72720000D03*
%TO.N,Net-(U13-B2)*%
X277424200Y-75260000D03*
%TO.N,/ALU/B_4*%
X277424200Y-77800000D03*
%TO.N,SU*%
X277424200Y-80340000D03*
%TO.N,Net-(U13-B1)*%
X277424200Y-82880000D03*
%TO.N,GND*%
X277424200Y-85420000D03*
%TO.N,Net-(U13-B4)*%
X285044200Y-85420000D03*
%TO.N,/ALU/B_7*%
X285044200Y-82880000D03*
%TO.N,SU*%
X285044200Y-80340000D03*
%TO.N,Net-(U13-B3)*%
X285044200Y-77800000D03*
%TO.N,/ALU/B_6*%
X285044200Y-75260000D03*
%TO.N,SU*%
X285044200Y-72720000D03*
%TO.N,VCC*%
X285044200Y-70180000D03*
%TD*%
D15*
%TO.N,Net-(D16-K)*%
%TO.C,D16*%
X266967100Y-103852300D03*
D16*
%TO.N,Net-(D16-A)*%
X269507100Y-103852300D03*
%TD*%
D10*
%TO.N,Net-(D2-K)*%
%TO.C,R99*%
X201567100Y-85662300D03*
%TO.N,GND*%
X201567100Y-93282300D03*
%TD*%
D15*
%TO.N,Net-(D18-K)*%
%TO.C,D18*%
X276717100Y-103852300D03*
D16*
%TO.N,Net-(D18-A)*%
X279257100Y-103852300D03*
%TD*%
D10*
%TO.N,Net-(D28-K)*%
%TO.C,R26*%
X190120000Y-166110000D03*
%TO.N,GND*%
X190120000Y-173730000D03*
%TD*%
D13*
%TO.N,Net-(D39-A)*%
%TO.C,U46*%
X132792100Y-31392300D03*
D14*
%TO.N,~{MI}*%
X132792100Y-33932300D03*
%TO.N,Net-(D41-A)*%
X132792100Y-36472300D03*
%TO.N,~{RO}*%
X132792100Y-39012300D03*
%TO.N,Net-(D53-A)*%
X132792100Y-41552300D03*
%TO.N,~{FI}*%
X132792100Y-44092300D03*
%TO.N,GND*%
X132792100Y-46632300D03*
%TO.N,unconnected-(U46-Pad8)*%
X140412100Y-46632300D03*
%TO.N,unconnected-(U46-Pad9)*%
X140412100Y-44092300D03*
%TO.N,~{J}*%
X140412100Y-41552300D03*
%TO.N,Net-(D52-A)*%
X140412100Y-39012300D03*
%TO.N,~{CO}*%
X140412100Y-36472300D03*
%TO.N,Net-(D51-A)*%
X140412100Y-33932300D03*
%TO.N,VCC*%
X140412100Y-31392300D03*
%TD*%
D10*
%TO.N,Net-(D43-K)*%
%TO.C,R45*%
X67317100Y-117412300D03*
%TO.N,GND*%
X67317100Y-109792300D03*
%TD*%
D15*
%TO.N,Net-(D64-K)*%
%TO.C,D64*%
X58500000Y-96690000D03*
D16*
%TO.N,BUS_2*%
X58500000Y-94150000D03*
%TD*%
D15*
%TO.N,Net-(D3-K)*%
%TO.C,D3*%
X206547100Y-81162300D03*
D16*
%TO.N,/ALU/A_6*%
X204007100Y-81162300D03*
%TD*%
D10*
%TO.N,Net-(D65-K)*%
%TO.C,R68*%
X53547700Y-91657100D03*
%TO.N,GND*%
X45927700Y-91657100D03*
%TD*%
D15*
%TO.N,Net-(D65-K)*%
%TO.C,D65*%
X58500000Y-91690000D03*
D16*
%TO.N,BUS_3*%
X58500000Y-89150000D03*
%TD*%
D22*
%TO.N,VCC*%
%TO.C,U7*%
X324650000Y-83680000D03*
D23*
%TO.N,/ALU/B_4*%
X322110000Y-83680000D03*
%TO.N,/ALU/B_5*%
X319570000Y-83680000D03*
%TO.N,/ALU/B_6*%
X317030000Y-83680000D03*
%TO.N,/ALU/B_7*%
X314490000Y-83680000D03*
%TO.N,/ALU/B_0*%
X311950000Y-83680000D03*
%TO.N,/ALU/B_1*%
X309410000Y-83680000D03*
%TO.N,/ALU/B_2*%
X306870000Y-83680000D03*
%TO.N,/ALU/B_3*%
X304330000Y-83680000D03*
%TO.N,GND*%
X301790000Y-83680000D03*
%TO.N,BUS_0*%
X301790000Y-91300000D03*
%TO.N,BUS_1*%
X304330000Y-91300000D03*
%TO.N,BUS_2*%
X306870000Y-91300000D03*
%TO.N,BUS_3*%
X309410000Y-91300000D03*
%TO.N,BUS_4*%
X311950000Y-91300000D03*
%TO.N,BUS_5*%
X314490000Y-91300000D03*
%TO.N,BUS_6*%
X317030000Y-91300000D03*
%TO.N,BUS_7*%
X319570000Y-91300000D03*
%TO.N,VCC*%
X322110000Y-91300000D03*
X324650000Y-91300000D03*
%TD*%
D15*
%TO.N,Net-(D35-K)*%
%TO.C,D35*%
X163960000Y-79420000D03*
D16*
%TO.N,Net-(D35-A)*%
X166500000Y-79420000D03*
%TD*%
D13*
%TO.N,GND*%
%TO.C,U9*%
X332580000Y-93800000D03*
D14*
X330040000Y-93800000D03*
%TO.N,/ALU/B_3*%
X327500000Y-93800000D03*
%TO.N,/ALU/B_2*%
X324960000Y-93800000D03*
%TO.N,/ALU/B_1*%
X322420000Y-93800000D03*
%TO.N,/ALU/B_0*%
X319880000Y-93800000D03*
%TO.N,CLK*%
X317340000Y-93800000D03*
%TO.N,GND*%
X314800000Y-93800000D03*
%TO.N,~{BI}*%
X314800000Y-101420000D03*
X317340000Y-101420000D03*
%TO.N,BUS_0*%
X319880000Y-101420000D03*
%TO.N,BUS_1*%
X322420000Y-101420000D03*
%TO.N,BUS_2*%
X324960000Y-101420000D03*
%TO.N,BUS_3*%
X327500000Y-101420000D03*
%TO.N,CLR*%
X330040000Y-101420000D03*
%TO.N,VCC*%
X332580000Y-101420000D03*
%TD*%
D15*
%TO.N,Net-(D49-K)*%
%TO.C,D49*%
X97277100Y-122412300D03*
D16*
%TO.N,OI*%
X99817100Y-122412300D03*
%TD*%
D15*
%TO.N,Net-(D119-K)*%
%TO.C,D119*%
X192460000Y-39920000D03*
D16*
%TO.N,Net-(D119-A)*%
X195000000Y-39920000D03*
%TD*%
D10*
%TO.N,BUS_7*%
%TO.C,R73*%
X63087900Y-88287700D03*
%TO.N,GND*%
X70707900Y-88287700D03*
%TD*%
%TO.N,Net-(U31-THR)*%
%TO.C,R38*%
X155666400Y-124379100D03*
%TO.N,Net-(U31-DIS)*%
X163286400Y-124379100D03*
%TD*%
D15*
%TO.N,Net-(D023-K)*%
%TO.C,D023*%
X329500000Y-78880000D03*
D16*
%TO.N,/ALU/B_6*%
X332040000Y-78880000D03*
%TD*%
D15*
%TO.N,Net-(D34-K)*%
%TO.C,D34*%
X157950000Y-79420000D03*
D16*
%TO.N,Net-(D34-A)*%
X160490000Y-79420000D03*
%TD*%
D12*
%TO.N,Net-(U31-THR)*%
%TO.C,C16*%
X155666400Y-119379100D03*
%TO.N,GND*%
X155666400Y-117379100D03*
%TD*%
D10*
%TO.N,Net-(D11-K)*%
%TO.C,R9*%
X247417100Y-109602300D03*
%TO.N,GND*%
X247417100Y-117222300D03*
%TD*%
D15*
%TO.N,Net-(D117-K)*%
%TO.C,D117*%
X182460000Y-39920000D03*
D16*
%TO.N,Net-(D117-A)*%
X185000000Y-39920000D03*
%TD*%
D13*
%TO.N,GND*%
%TO.C,U50*%
X246567100Y-79112300D03*
D14*
X246567100Y-76572300D03*
%TO.N,/ALU/A_3*%
X246567100Y-74032300D03*
%TO.N,/ALU/A_2*%
X246567100Y-71492300D03*
%TO.N,/ALU/A_1*%
X246567100Y-68952300D03*
%TO.N,/ALU/A_0*%
X246567100Y-66412300D03*
%TO.N,CLK*%
X246567100Y-63872300D03*
%TO.N,GND*%
X246567100Y-61332300D03*
%TO.N,~{AI}*%
X238947100Y-61332300D03*
X238947100Y-63872300D03*
%TO.N,BUS_0*%
X238947100Y-66412300D03*
%TO.N,BUS_1*%
X238947100Y-68952300D03*
%TO.N,BUS_2*%
X238947100Y-71492300D03*
%TO.N,BUS_3*%
X238947100Y-74032300D03*
%TO.N,CLR*%
X238947100Y-76572300D03*
%TO.N,VCC*%
X238947100Y-79112300D03*
%TD*%
D15*
%TO.N,/MAR/PROG*%
%TO.C,D24*%
X241230000Y-23500000D03*
D16*
%TO.N,Net-(D24-A)*%
X243770000Y-23500000D03*
%TD*%
D10*
%TO.N,Net-(D31-K)*%
%TO.C,R29*%
X205120000Y-166300000D03*
%TO.N,GND*%
X205120000Y-173920000D03*
%TD*%
%TO.N,Net-(D59-K)*%
%TO.C,R61*%
X102912100Y-81552300D03*
%TO.N,GND*%
X102912100Y-73932300D03*
%TD*%
%TO.N,Net-(D026-K)*%
%TO.C,R95*%
X314460000Y-72670000D03*
%TO.N,GND*%
X314460000Y-65050000D03*
%TD*%
D12*
%TO.N,VCC*%
%TO.C,C19*%
X147666400Y-126379100D03*
%TO.N,GND*%
X145666400Y-126379100D03*
%TD*%
D10*
%TO.N,Net-(D1-K)*%
%TO.C,R7*%
X271317100Y-139602300D03*
%TO.N,GND*%
X271317100Y-147222300D03*
%TD*%
D15*
%TO.N,Net-(D67-K)*%
%TO.C,D67*%
X58500000Y-81690000D03*
D16*
%TO.N,BUS_5*%
X58500000Y-79150000D03*
%TD*%
D15*
%TO.N,Net-(D26-K)*%
%TO.C,D26*%
X180080000Y-161420000D03*
D16*
%TO.N,Net-(D26-A)*%
X182620000Y-161420000D03*
%TD*%
D12*
%TO.N,VCC*%
%TO.C,C21*%
X80612100Y-63342300D03*
%TO.N,GND*%
X82612100Y-63342300D03*
%TD*%
D10*
%TO.N,Net-(D29-K)*%
%TO.C,R27*%
X195120000Y-166110000D03*
%TO.N,GND*%
X195120000Y-173730000D03*
%TD*%
%TO.N,Net-(D3-K)*%
%TO.C,R100*%
X206567100Y-85662300D03*
%TO.N,GND*%
X206567100Y-93282300D03*
%TD*%
D15*
%TO.N,Net-(D58-K)*%
%TO.C,D58*%
X114912100Y-103552300D03*
D16*
%TO.N,Net-(D58-A)*%
X117452100Y-103552300D03*
%TD*%
D10*
%TO.N,Net-(D41-K)*%
%TO.C,R43*%
X57317100Y-117412300D03*
%TO.N,GND*%
X57317100Y-109792300D03*
%TD*%
D15*
%TO.N,Net-(D66-K)*%
%TO.C,D66*%
X58500000Y-86650000D03*
D16*
%TO.N,BUS_4*%
X58500000Y-84110000D03*
%TD*%
D15*
%TO.N,Net-(D23-K)*%
%TO.C,D23*%
X240427100Y-42332300D03*
D16*
%TO.N,/MAR/A0*%
X242967100Y-42332300D03*
%TD*%
D12*
%TO.N,VCC*%
%TO.C,C20*%
X80612100Y-56792300D03*
%TO.N,GND*%
X82612100Y-56792300D03*
%TD*%
D10*
%TO.N,Net-(D39-K)*%
%TO.C,R41*%
X47317100Y-117412300D03*
%TO.N,GND*%
X47317100Y-109792300D03*
%TD*%
%TO.N,Net-(D46-K)*%
%TO.C,R48*%
X82317100Y-117412300D03*
%TO.N,GND*%
X82317100Y-109792300D03*
%TD*%
%TO.N,GND*%
%TO.C,C2*%
X275567100Y-154412300D03*
%TO.N,Net-(U2-CV)*%
X278067100Y-154412300D03*
%TD*%
D20*
%TO.N,Net-(U34-E)*%
%TO.C,U36*%
X95686400Y-145879100D03*
D10*
%TO.N,Net-(U34-D)*%
X98226400Y-145879100D03*
%TO.N,Net-(U33A-O2)*%
X100766400Y-145879100D03*
%TO.N,Net-(U34-C)*%
X103306400Y-145879100D03*
%TO.N,Net-(U34-DP)*%
X105846400Y-145879100D03*
%TO.N,Net-(U34-B)*%
X105846400Y-130639100D03*
%TO.N,Net-(U34-A)*%
X103306400Y-130639100D03*
%TO.N,Net-(U33A-O2)*%
X100766400Y-130639100D03*
%TO.N,Net-(U34-F)*%
X98226400Y-130639100D03*
%TO.N,Net-(U34-G)*%
X95686400Y-130639100D03*
%TD*%
D15*
%TO.N,Net-(D37-K)*%
%TO.C,D37*%
X175980000Y-79420000D03*
D16*
%TO.N,Net-(D37-A)*%
X178520000Y-79420000D03*
%TD*%
D11*
%TO.N,GND*%
%TO.C,U12*%
X266160000Y-45670000D03*
D10*
X266160000Y-48210000D03*
%TO.N,CF*%
X266160000Y-50750000D03*
%TO.N,ZF*%
X266160000Y-53290000D03*
%TO.N,unconnected-(U12-Q2-Pad5)*%
X266160000Y-55830000D03*
%TO.N,unconnected-(U12-Q3-Pad6)*%
X266160000Y-58370000D03*
%TO.N,CLK*%
X266160000Y-60910000D03*
%TO.N,GND*%
X266160000Y-63450000D03*
%TO.N,~{FI}*%
X273780000Y-63450000D03*
X273780000Y-60910000D03*
%TO.N,unconnected-(U12-D3-Pad11)*%
X273780000Y-58370000D03*
%TO.N,unconnected-(U12-D2-Pad12)*%
X273780000Y-55830000D03*
%TO.N,Net-(U12-D1)*%
X273780000Y-53290000D03*
%TO.N,Net-(U12-D0)*%
X273780000Y-50750000D03*
%TO.N,CLR*%
X273780000Y-48210000D03*
%TO.N,VCC*%
X273780000Y-45670000D03*
%TD*%
D27*
%TO.N,GND*%
%TO.C,J1*%
X24320000Y-106350000D03*
X20520000Y-106350000D03*
X24320000Y-114990000D03*
X20520000Y-114990000D03*
%TD*%
D13*
%TO.N,OI*%
%TO.C,U39*%
X155676800Y-96506800D03*
D14*
%TO.N,CLK*%
X155676800Y-99046800D03*
%TO.N,Net-(U38-Cp)*%
X155676800Y-101586800D03*
%TO.N,N/C*%
X155676800Y-104126800D03*
X155676800Y-106666800D03*
X155676800Y-109206800D03*
%TO.N,GND*%
X155676800Y-111746800D03*
%TO.N,N/C*%
X163296800Y-111746800D03*
X163296800Y-109206800D03*
X163296800Y-106666800D03*
X163296800Y-104126800D03*
X163296800Y-101586800D03*
X163296800Y-99046800D03*
%TO.N,VCC*%
X163296800Y-96506800D03*
%TD*%
D10*
%TO.N,Net-(D63-K)*%
%TO.C,R66*%
X53667700Y-102157100D03*
%TO.N,GND*%
X46047700Y-102157100D03*
%TD*%
D15*
%TO.N,Net-(D32-K)*%
%TO.C,D32*%
X210120000Y-161420000D03*
D16*
%TO.N,Net-(D32-A)*%
X212660000Y-161420000D03*
%TD*%
D10*
%TO.N,Net-(D13-K)*%
%TO.C,R12*%
X257167100Y-109542300D03*
%TO.N,GND*%
X257167100Y-117162300D03*
%TD*%
D13*
%TO.N,Net-(D59-A)*%
%TO.C,U42*%
X74120000Y-89100000D03*
D14*
%TO.N,Net-(D60-A)*%
X74120000Y-91640000D03*
%TO.N,Net-(D61-A)*%
X74120000Y-94180000D03*
%TO.N,GND*%
X74120000Y-96720000D03*
X74120000Y-99260000D03*
%TO.N,VCC*%
X74120000Y-101800000D03*
%TO.N,unconnected-(U42-O7-Pad7)*%
X74120000Y-104340000D03*
%TO.N,GND*%
X74120000Y-106880000D03*
%TO.N,unconnected-(U42-O6-Pad9)*%
X81740000Y-106880000D03*
%TO.N,Net-(U42-O5)*%
X81740000Y-104340000D03*
%TO.N,Net-(D54-K)*%
X81740000Y-101800000D03*
%TO.N,Net-(D55-K)*%
X81740000Y-99260000D03*
%TO.N,Net-(D56-K)*%
X81740000Y-96720000D03*
%TO.N,Net-(D57-K)*%
X81740000Y-94180000D03*
%TO.N,Net-(D58-K)*%
X81740000Y-91640000D03*
%TO.N,VCC*%
X81740000Y-89100000D03*
%TD*%
D10*
%TO.N,Net-(D23-K)*%
%TO.C,R23*%
X240647100Y-47272300D03*
%TO.N,GND*%
X240647100Y-54892300D03*
%TD*%
D22*
%TO.N,GND*%
%TO.C,U118*%
X184000000Y-55420000D03*
D23*
X181460000Y-55420000D03*
%TO.N,IR_7*%
X178920000Y-55420000D03*
%TO.N,IR_6*%
X176380000Y-55420000D03*
%TO.N,IR_5*%
X173840000Y-55420000D03*
%TO.N,IR_4*%
X171300000Y-55420000D03*
%TO.N,CLK*%
X168760000Y-55420000D03*
%TO.N,GND*%
X166220000Y-55420000D03*
%TO.N,~{II}*%
X163680000Y-55420000D03*
X161140000Y-55420000D03*
%TO.N,BUS_4*%
X161140000Y-63040000D03*
%TO.N,BUS_5*%
X163680000Y-63040000D03*
%TO.N,BUS_6*%
X166220000Y-63040000D03*
%TO.N,BUS_7*%
X168760000Y-63040000D03*
%TO.N,CLR*%
X171300000Y-63040000D03*
%TO.N,VCC*%
X173840000Y-63040000D03*
%TO.N,N/C*%
X176380000Y-63040000D03*
X178920000Y-63040000D03*
X181460000Y-63040000D03*
X184000000Y-63040000D03*
%TD*%
D15*
%TO.N,Net-(D62-K)*%
%TO.C,D62*%
X58500000Y-106690000D03*
D16*
%TO.N,BUS_0*%
X58500000Y-104150000D03*
%TD*%
D15*
%TO.N,Net-(D15-K)*%
%TO.C,D15*%
X262087100Y-103852300D03*
D16*
%TO.N,Net-(D15-A)*%
X264627100Y-103852300D03*
%TD*%
D10*
%TO.N,Net-(D14-K)*%
%TO.C,R8*%
X256750000Y-53980000D03*
%TO.N,GND*%
X256750000Y-46360000D03*
%TD*%
D15*
%TO.N,Net-(D63-K)*%
%TO.C,D63*%
X58500000Y-101690000D03*
D16*
%TO.N,BUS_1*%
X58500000Y-99150000D03*
%TD*%
D13*
%TO.N,Net-(U21-\u002AO0)*%
%TO.C,U27*%
X216037400Y-105325000D03*
D14*
%TO.N,Net-(D26-A)*%
X216037400Y-107865000D03*
%TO.N,Net-(U21-\u002AO1)*%
X216037400Y-110405000D03*
%TO.N,Net-(D27-A)*%
X216037400Y-112945000D03*
%TO.N,Net-(U21-\u002AO2)*%
X216037400Y-115485000D03*
%TO.N,Net-(D28-A)*%
X216037400Y-118025000D03*
%TO.N,GND*%
X216037400Y-120565000D03*
%TO.N,Net-(D29-A)*%
X223657400Y-120565000D03*
%TO.N,Net-(U21-\u002AO3)*%
X223657400Y-118025000D03*
%TO.N,Net-(D30-A)*%
X223657400Y-115485000D03*
%TO.N,Net-(U23-\u002AO3)*%
X223657400Y-112945000D03*
%TO.N,Net-(D31-A)*%
X223657400Y-110405000D03*
%TO.N,Net-(U23-\u002AO2)*%
X223657400Y-107865000D03*
%TO.N,VCC*%
X223657400Y-105325000D03*
%TD*%
D11*
%TO.N,Net-(D18-A)*%
%TO.C,U14*%
X287720000Y-45670000D03*
D10*
%TO.N,Net-(U14-B2)*%
X287720000Y-48210000D03*
%TO.N,/ALU/A_1*%
X287720000Y-50750000D03*
%TO.N,Net-(D19-A)*%
X287720000Y-53290000D03*
%TO.N,/ALU/A_0*%
X287720000Y-55830000D03*
%TO.N,Net-(U14-B1)*%
X287720000Y-58370000D03*
%TO.N,SU*%
X287720000Y-60910000D03*
%TO.N,GND*%
X287720000Y-63450000D03*
%TO.N,Net-(U13-C0)*%
X295340000Y-63450000D03*
%TO.N,Net-(D16-A)*%
X295340000Y-60910000D03*
%TO.N,Net-(U14-B4)*%
X295340000Y-58370000D03*
%TO.N,/ALU/A_3*%
X295340000Y-55830000D03*
%TO.N,Net-(D17-A)*%
X295340000Y-53290000D03*
%TO.N,/ALU/A_2*%
X295340000Y-50750000D03*
%TO.N,Net-(U14-B3)*%
X295340000Y-48210000D03*
%TO.N,VCC*%
X295340000Y-45670000D03*
%TD*%
%TO.N,Net-(D113-K)*%
%TO.C,R84*%
X162500000Y-34920000D03*
%TO.N,GND*%
X162500000Y-27300000D03*
%TD*%
%TO.N,Net-(D51-K)*%
%TO.C,R53*%
X107817100Y-117532300D03*
%TO.N,GND*%
X107817100Y-109912300D03*
%TD*%
D15*
%TO.N,Net-(D7-K)*%
%TO.C,D7*%
X226587100Y-81162300D03*
D16*
%TO.N,/ALU/A_2*%
X224047100Y-81162300D03*
%TD*%
D15*
%TO.N,Net-(D55-K)*%
%TO.C,D55*%
X96882100Y-103552300D03*
D16*
%TO.N,Net-(D55-A)*%
X99422100Y-103552300D03*
%TD*%
D15*
%TO.N,Net-(D19-K)*%
%TO.C,D19*%
X281877100Y-103852300D03*
D16*
%TO.N,Net-(D19-A)*%
X284417100Y-103852300D03*
%TD*%
D10*
%TO.N,Net-(D8-K)*%
%TO.C,R105*%
X231567100Y-85662300D03*
%TO.N,GND*%
X231567100Y-93282300D03*
%TD*%
D28*
%TO.N,*%
%TO.C,RV1*%
X328275000Y-106700000D03*
X328275000Y-116300000D03*
D15*
%TO.N,Net-(U1-THR)*%
X320775000Y-109000000D03*
D16*
%TO.N,Net-(R2-Pad2)*%
X320775000Y-111500000D03*
%TO.N,unconnected-(RV1-Pad3)*%
X320775000Y-114000000D03*
%TD*%
D13*
%TO.N,Net-(D46-A)*%
%TO.C,U47*%
X132912100Y-51812300D03*
D14*
%TO.N,~{EO}*%
X132912100Y-54352300D03*
%TO.N,Net-(D48-A)*%
X132912100Y-56892300D03*
%TO.N,~{BI}*%
X132912100Y-59432300D03*
%TO.N,unconnected-(U47-Pad5)*%
X132912100Y-61972300D03*
%TO.N,unconnected-(U47-Pad6)*%
X132912100Y-64512300D03*
%TO.N,GND*%
X132912100Y-67052300D03*
%TO.N,unconnected-(U47-Pad8)*%
X140532100Y-67052300D03*
%TO.N,unconnected-(U47-Pad9)*%
X140532100Y-64512300D03*
%TO.N,unconnected-(U47-Pad10)*%
X140532100Y-61972300D03*
%TO.N,unconnected-(U47-Pad11)*%
X140532100Y-59432300D03*
%TO.N,unconnected-(U47-Pad12)*%
X140532100Y-56892300D03*
%TO.N,unconnected-(U47-Pad13)*%
X140532100Y-54352300D03*
%TO.N,VCC*%
X140532100Y-51812300D03*
%TD*%
D10*
%TO.N,Net-(D7-K)*%
%TO.C,R104*%
X226567100Y-85662300D03*
%TO.N,GND*%
X226567100Y-93282300D03*
%TD*%
%TO.N,Net-(R64-Pad1)*%
%TO.C,R64*%
X85912100Y-66552300D03*
%TO.N,GND*%
X85912100Y-58932300D03*
%TD*%
%TO.N,Net-(D38-K)*%
%TO.C,R40*%
X42317100Y-117412300D03*
%TO.N,GND*%
X42317100Y-109792300D03*
%TD*%
%TO.N,Net-(D114-K)*%
%TO.C,R85*%
X167500000Y-34920000D03*
%TO.N,GND*%
X167500000Y-27300000D03*
%TD*%
D12*
%TO.N,VCC*%
%TO.C,C15*%
X153490000Y-60920000D03*
%TO.N,GND*%
X155490000Y-60920000D03*
%TD*%
D15*
%TO.N,Net-(D12-K)*%
%TO.C,D12*%
X252367100Y-103852300D03*
D16*
%TO.N,Net-(D12-A)*%
X254907100Y-103852300D03*
%TD*%
D29*
%TO.N,/ALU/B_1*%
%TO.C,U16*%
X289380000Y-112805000D03*
D10*
%TO.N,SU*%
X291920000Y-112805000D03*
%TO.N,Net-(U14-B3)*%
X294460000Y-112805000D03*
%TO.N,/ALU/B_0*%
X297000000Y-112805000D03*
%TO.N,SU*%
X299540000Y-112805000D03*
%TO.N,Net-(U14-B1)*%
X302080000Y-112805000D03*
%TO.N,GND*%
X304620000Y-112805000D03*
%TO.N,Net-(U14-B4)*%
X304620000Y-105185000D03*
%TO.N,/ALU/B_3*%
X302080000Y-105185000D03*
%TO.N,SU*%
X299540000Y-105185000D03*
%TO.N,Net-(U14-B2)*%
X297000000Y-105185000D03*
%TO.N,/ALU/B_2*%
X294460000Y-105185000D03*
%TO.N,SU*%
X291920000Y-105185000D03*
%TO.N,VCC*%
X289380000Y-105185000D03*
%TD*%
D17*
%TO.N,N/C*%
%TO.C,U44*%
X108442550Y-32060000D03*
D18*
%TO.N,GND*%
X108442550Y-34600000D03*
%TO.N,VCC*%
X108442550Y-37140000D03*
%TO.N,IR_7*%
X108442550Y-39680000D03*
%TO.N,IR_6*%
X108442550Y-42220000D03*
%TO.N,IR_5*%
X108442550Y-44760000D03*
%TO.N,IR_4*%
X108442550Y-47300000D03*
%TO.N,Net-(D61-A)*%
X108442550Y-49840000D03*
%TO.N,Net-(D60-A)*%
X108442550Y-52380000D03*
%TO.N,Net-(D59-A)*%
X108442550Y-54920000D03*
%TO.N,Net-(D53-A)*%
X108442550Y-57460000D03*
%TO.N,Net-(D52-A)*%
X108442550Y-60000000D03*
%TO.N,Net-(D51-A)*%
X108442550Y-62540000D03*
%TO.N,GND*%
X108442550Y-65080000D03*
%TO.N,CE*%
X124000050Y-65080000D03*
%TO.N,OI*%
X124000050Y-62540000D03*
%TO.N,Net-(D48-A)*%
X124000050Y-60000000D03*
%TO.N,SU*%
X124000050Y-57460000D03*
%TO.N,Net-(D46-A)*%
X124000050Y-54920000D03*
%TO.N,GND*%
X124000050Y-52380000D03*
X124000050Y-49840000D03*
X124000050Y-47300000D03*
X124000050Y-44760000D03*
%TO.N,ZF*%
X124000050Y-42220000D03*
%TO.N,CF*%
X124000050Y-39680000D03*
%TO.N,N/C*%
X124000050Y-37140000D03*
%TO.N,VCC*%
X124000050Y-34600000D03*
X124000050Y-32060000D03*
%TD*%
D15*
%TO.N,Net-(D45-K)*%
%TO.C,D45*%
X77277100Y-122412300D03*
D16*
%TO.N,Net-(D45-A)*%
X79817100Y-122412300D03*
%TD*%
D15*
%TO.N,Net-(D118-K)*%
%TO.C,D118*%
X187460000Y-39920000D03*
D16*
%TO.N,Net-(D118-A)*%
X190000000Y-39920000D03*
%TD*%
D15*
%TO.N,Net-(D36-K)*%
%TO.C,D36*%
X169970000Y-79420000D03*
D16*
%TO.N,Net-(D36-A)*%
X172510000Y-79420000D03*
%TD*%
D13*
%TO.N,GND*%
%TO.C,U119*%
X212817100Y-53912300D03*
D14*
X212817100Y-51372300D03*
%TO.N,Net-(D116-A)*%
X212817100Y-48832300D03*
%TO.N,Net-(D117-A)*%
X212817100Y-46292300D03*
%TO.N,Net-(D118-A)*%
X212817100Y-43752300D03*
%TO.N,Net-(D119-A)*%
X212817100Y-41212300D03*
%TO.N,CLK*%
X212817100Y-38672300D03*
%TO.N,GND*%
X212817100Y-36132300D03*
%TO.N,~{II}*%
X205197100Y-36132300D03*
X205197100Y-38672300D03*
%TO.N,BUS_0*%
X205197100Y-41212300D03*
%TO.N,BUS_1*%
X205197100Y-43752300D03*
%TO.N,BUS_2*%
X205197100Y-46292300D03*
%TO.N,BUS_3*%
X205197100Y-48832300D03*
%TO.N,CLR*%
X205197100Y-51372300D03*
%TO.N,VCC*%
X205197100Y-53912300D03*
%TD*%
D10*
%TO.N,Net-(D027-K)*%
%TO.C,R96*%
X309460000Y-72730000D03*
%TO.N,GND*%
X309460000Y-65110000D03*
%TD*%
%TO.N,Net-(D64-K)*%
%TO.C,R67*%
X53667700Y-96657100D03*
%TO.N,GND*%
X46047700Y-96657100D03*
%TD*%
%TO.N,BUS_5*%
%TO.C,R75*%
X63325000Y-96690000D03*
%TO.N,GND*%
X70945000Y-96690000D03*
%TD*%
D15*
%TO.N,Net-(D6-K)*%
%TO.C,D6*%
X221587100Y-81162300D03*
D16*
%TO.N,/ALU/A_3*%
X219047100Y-81162300D03*
%TD*%
D10*
%TO.N,GND*%
%TO.C,R10*%
X256750000Y-66170000D03*
%TO.N,Net-(D10-K)*%
X256750000Y-58550000D03*
%TD*%
%TO.N,Net-(D22-K)*%
%TO.C,R22*%
X234397100Y-47272300D03*
%TO.N,GND*%
X234397100Y-54892300D03*
%TD*%
%TO.N,Net-(J1-CC1)*%
%TO.C,R82*%
X30374400Y-109375000D03*
%TO.N,GND*%
X37994400Y-109375000D03*
%TD*%
%TO.N,GND*%
%TO.C,C5*%
X301067100Y-135962300D03*
%TO.N,VCC*%
X298567100Y-135962300D03*
%TD*%
D15*
%TO.N,Net-(D52-K)*%
%TO.C,D52*%
X112777100Y-122412300D03*
D16*
%TO.N,Net-(D52-A)*%
X115317100Y-122412300D03*
%TD*%
D15*
%TO.N,Net-(D43-K)*%
%TO.C,D43*%
X67227100Y-122412300D03*
D16*
%TO.N,Net-(D43-A)*%
X69767100Y-122412300D03*
%TD*%
D13*
%TO.N,Net-(U26-Pad6)*%
%TO.C,U45*%
X74000000Y-70180000D03*
D14*
X74000000Y-72720000D03*
%TO.N,Net-(U41-~{MR})*%
X74000000Y-75260000D03*
%TO.N,N/C*%
X74000000Y-77800000D03*
X74000000Y-80340000D03*
X74000000Y-82880000D03*
%TO.N,GND*%
X74000000Y-85420000D03*
%TO.N,N/C*%
X81620000Y-85420000D03*
X81620000Y-82880000D03*
X81620000Y-80340000D03*
X81620000Y-77800000D03*
X81620000Y-75260000D03*
X81620000Y-72720000D03*
%TO.N,VCC*%
X81620000Y-70180000D03*
%TD*%
D12*
%TO.N,CLK*%
%TO.C,C14*%
X265000000Y-128580000D03*
%TO.N,Net-(C14-Pad2)*%
X265000000Y-130580000D03*
%TD*%
D10*
%TO.N,Net-(D47-K)*%
%TO.C,R49*%
X87317100Y-117412300D03*
%TO.N,GND*%
X87317100Y-109792300D03*
%TD*%
D15*
%TO.N,Net-(D33-K)*%
%TO.C,D33*%
X215120000Y-161420000D03*
D16*
%TO.N,Net-(D33-A)*%
X217660000Y-161420000D03*
%TD*%
D10*
%TO.N,GND*%
%TO.C,C6*%
X301067100Y-131912300D03*
%TO.N,VCC*%
X298567100Y-131912300D03*
%TD*%
D17*
%TO.N,N/C*%
%TO.C,U40*%
X126166450Y-95979100D03*
D18*
%TO.N,GND*%
X126166450Y-98519100D03*
%TO.N,Net-(U38-Q7)*%
X126166450Y-101059100D03*
%TO.N,Net-(U38-Q6)*%
X126166450Y-103599100D03*
%TO.N,Net-(U38-Q5)*%
X126166450Y-106139100D03*
%TO.N,Net-(U38-Q4)*%
X126166450Y-108679100D03*
%TO.N,Net-(U38-Q3)*%
X126166450Y-111219100D03*
%TO.N,Net-(U38-Q2)*%
X126166450Y-113759100D03*
%TO.N,Net-(U38-Q1)*%
X126166450Y-116299100D03*
%TO.N,Net-(U38-Q0)*%
X126166450Y-118839100D03*
%TO.N,Net-(U34-G)*%
X126166450Y-121379100D03*
%TO.N,Net-(U34-F)*%
X126166450Y-123919100D03*
%TO.N,Net-(U34-E)*%
X126166450Y-126459100D03*
%TO.N,GND*%
X126166450Y-128999100D03*
%TO.N,Net-(U34-D)*%
X141723950Y-128999100D03*
%TO.N,Net-(U34-C)*%
X141723950Y-126459100D03*
%TO.N,Net-(U34-B)*%
X141723950Y-123919100D03*
%TO.N,Net-(U34-A)*%
X141723950Y-121379100D03*
%TO.N,Net-(U34-DP)*%
X141723950Y-118839100D03*
%TO.N,GND*%
X141723950Y-116299100D03*
%TO.N,Net-(SW7-B)*%
X141723950Y-113759100D03*
%TO.N,GND*%
X141723950Y-111219100D03*
X141723950Y-108679100D03*
%TO.N,Net-(U32B-~{Q})*%
X141723950Y-106139100D03*
%TO.N,Net-(U32A-~{Q})*%
X141723950Y-103599100D03*
%TO.N,N/C*%
X141723950Y-101059100D03*
%TO.N,VCC*%
X141723950Y-98519100D03*
X141723950Y-95979100D03*
%TD*%
D11*
%TO.N,/MAR/PROG*%
%TO.C,U51*%
X241697100Y-124172300D03*
D10*
%TO.N,unconnected-(U51-I0a-Pad2)*%
X241697100Y-126712300D03*
%TO.N,unconnected-(U51-I1a-Pad3)*%
X241697100Y-129252300D03*
%TO.N,unconnected-(U51-Za-Pad4)*%
X241697100Y-131792300D03*
%TO.N,unconnected-(U51-I0b-Pad5)*%
X241697100Y-134332300D03*
%TO.N,unconnected-(U51-I1b-Pad6)*%
X241697100Y-136872300D03*
%TO.N,unconnected-(U51-Zb-Pad7)*%
X241697100Y-139412300D03*
%TO.N,GND*%
X241697100Y-141952300D03*
%TO.N,unconnected-(U51-Zd-Pad9)*%
X249317100Y-141952300D03*
%TO.N,unconnected-(U51-I1d-Pad10)*%
X249317100Y-139412300D03*
%TO.N,unconnected-(U51-I0d-Pad11)*%
X249317100Y-136872300D03*
%TO.N,Net-(U51-Zc)*%
X249317100Y-134332300D03*
%TO.N,Net-(U51-I1c)*%
X249317100Y-131792300D03*
%TO.N,Net-(U51-I0c)*%
X249317100Y-129252300D03*
%TO.N,GND*%
X249317100Y-126712300D03*
%TO.N,VCC*%
X249317100Y-124172300D03*
%TD*%
D30*
%TO.N,Net-(U1-Q)*%
%TO.C,U4*%
X289437100Y-120607300D03*
D10*
%TO.N,Net-(U3-Q)*%
X286897100Y-120607300D03*
%TO.N,Net-(U4-Pad3)*%
X284357100Y-120607300D03*
%TO.N,Net-(U4-Pad4)*%
X281817100Y-120607300D03*
%TO.N,Net-(U2-Q)*%
X279277100Y-120607300D03*
%TO.N,Net-(U4-Pad6)*%
X276737100Y-120607300D03*
%TO.N,GND*%
X274197100Y-120607300D03*
%TO.N,CLK*%
X274197100Y-128227300D03*
%TO.N,Net-(U4-Pad9)*%
X276737100Y-128227300D03*
%TO.N,Net-(U4-Pad10)*%
X279277100Y-128227300D03*
%TO.N,unconnected-(U4-Pad11)*%
X281817100Y-128227300D03*
%TO.N,unconnected-(U4-Pad12)*%
X284357100Y-128227300D03*
%TO.N,unconnected-(U4-Pad13)*%
X286897100Y-128227300D03*
%TO.N,VCC*%
X289437100Y-128227300D03*
%TD*%
D22*
%TO.N,~{CLR}*%
%TO.C,U38*%
X151697100Y-134632300D03*
D23*
%TO.N,Net-(U38-Q0)*%
X151697100Y-137172300D03*
%TO.N,BUS_0*%
X151697100Y-139712300D03*
%TO.N,BUS_1*%
X151697100Y-142252300D03*
%TO.N,Net-(U38-Q1)*%
X151697100Y-144792300D03*
%TO.N,Net-(U38-Q2)*%
X151697100Y-147332300D03*
%TO.N,BUS_2*%
X151697100Y-149872300D03*
%TO.N,BUS_3*%
X151697100Y-152412300D03*
%TO.N,Net-(U38-Q3)*%
X151697100Y-154952300D03*
%TO.N,GND*%
X151697100Y-157492300D03*
%TO.N,Net-(U38-Cp)*%
X159317100Y-157492300D03*
%TO.N,Net-(U38-Q4)*%
X159317100Y-154952300D03*
%TO.N,BUS_4*%
X159317100Y-152412300D03*
%TO.N,BUS_5*%
X159317100Y-149872300D03*
%TO.N,Net-(U38-Q5)*%
X159317100Y-147332300D03*
%TO.N,Net-(U38-Q6)*%
X159317100Y-144792300D03*
%TO.N,BUS_6*%
X159317100Y-142252300D03*
%TO.N,BUS_7*%
X159317100Y-139712300D03*
%TO.N,Net-(U38-Q7)*%
X159317100Y-137172300D03*
%TO.N,VCC*%
X159317100Y-134632300D03*
%TD*%
D13*
%TO.N,GND*%
%TO.C,U49*%
X196627100Y-79672300D03*
D14*
X196627100Y-77132300D03*
%TO.N,/ALU/A_7*%
X196627100Y-74592300D03*
%TO.N,/ALU/A_6*%
X196627100Y-72052300D03*
%TO.N,/ALU/A_5*%
X196627100Y-69512300D03*
%TO.N,/ALU/A_4*%
X196627100Y-66972300D03*
%TO.N,CLK*%
X196627100Y-64432300D03*
%TO.N,GND*%
X196627100Y-61892300D03*
%TO.N,~{AI}*%
X189007100Y-61892300D03*
X189007100Y-64432300D03*
%TO.N,BUS_4*%
X189007100Y-66972300D03*
%TO.N,BUS_5*%
X189007100Y-69512300D03*
%TO.N,BUS_6*%
X189007100Y-72052300D03*
%TO.N,BUS_7*%
X189007100Y-74592300D03*
%TO.N,CLR*%
X189007100Y-77132300D03*
%TO.N,VCC*%
X189007100Y-79672300D03*
%TD*%
D10*
%TO.N,Net-(D40-K)*%
%TO.C,R42*%
X52317100Y-117412300D03*
%TO.N,GND*%
X52317100Y-109792300D03*
%TD*%
D12*
%TO.N,VCC*%
%TO.C,C9*%
X255993900Y-76199100D03*
%TO.N,GND*%
X257993900Y-76199100D03*
%TD*%
D10*
%TO.N,Net-(D21-K)*%
%TO.C,R21*%
X228647100Y-47332300D03*
%TO.N,GND*%
X228647100Y-54952300D03*
%TD*%
D15*
%TO.N,Net-(D51-K)*%
%TO.C,D51*%
X107607100Y-122412300D03*
D16*
%TO.N,Net-(D51-A)*%
X110147100Y-122412300D03*
%TD*%
D10*
%TO.N,Net-(D61-K)*%
%TO.C,R63*%
X114912100Y-81552300D03*
%TO.N,GND*%
X114912100Y-73932300D03*
%TD*%
%TO.N,BUS_4*%
%TO.C,R76*%
X63397900Y-100787700D03*
%TO.N,GND*%
X71017900Y-100787700D03*
%TD*%
%TO.N,Net-(D12-K)*%
%TO.C,R11*%
X252167100Y-109542300D03*
%TO.N,GND*%
X252167100Y-117162300D03*
%TD*%
D15*
%TO.N,Net-(D024-K)*%
%TO.C,D024*%
X324420000Y-78920000D03*
D16*
%TO.N,/ALU/B_5*%
X326960000Y-78920000D03*
%TD*%
D10*
%TO.N,Net-(D58-A)*%
%TO.C,R56*%
X117412100Y-98552300D03*
%TO.N,VCC*%
X117412100Y-90932300D03*
%TD*%
D15*
%TO.N,Net-(D4-K)*%
%TO.C,D4*%
X211567100Y-81162300D03*
D16*
%TO.N,/ALU/A_5*%
X209027100Y-81162300D03*
%TD*%
D31*
%TO.N,*%
%TO.C,SW2*%
X302797500Y-155100000D03*
X302797500Y-146900000D03*
D32*
%TO.N,Net-(SW2-A)*%
X302797500Y-153000000D03*
D33*
%TO.N,GND*%
X302797500Y-151000000D03*
%TO.N,Net-(SW2-C)*%
X302797500Y-149000000D03*
%TD*%
D10*
%TO.N,BUS_1*%
%TO.C,R79*%
X53547700Y-99157100D03*
%TO.N,GND*%
X45927700Y-99157100D03*
%TD*%
%TO.N,BUS_0*%
%TO.C,R80*%
X53667700Y-104657100D03*
%TO.N,GND*%
X46047700Y-104657100D03*
%TD*%
%TO.N,BUS_3*%
%TO.C,R77*%
X53667700Y-89157100D03*
%TO.N,GND*%
X46047700Y-89157100D03*
%TD*%
%TO.N,BUS_2*%
%TO.C,R78*%
X53667700Y-94157100D03*
%TO.N,GND*%
X46047700Y-94157100D03*
%TD*%
D34*
%TO.N,Net-(U21-\u002AWE)*%
X194483516Y-115968542D03*
%TO.N,Net-(U23-D0)*%
X197400000Y-117001000D03*
%TO.N,Net-(U23-\u002AO0)*%
X195556000Y-110535000D03*
X194849000Y-120128000D03*
%TO.N,Net-(U23-\u002AO1)*%
X198734000Y-105380000D03*
X194854100Y-120939000D03*
%TO.N,Net-(U23-\u002AO3)*%
X202595000Y-118357000D03*
X207238000Y-116880000D03*
%TO.N,Net-(U23-\u002AO2)*%
X221826000Y-120907000D03*
X202903000Y-121194000D03*
%TO.N,Net-(U21-\u002AO3)*%
X190077000Y-119160000D03*
%TO.N,Net-(U21-\u002AO0)*%
X186162000Y-118057000D03*
%TO.N,Net-(U21-\u002AO1)*%
X185962000Y-120913000D03*
%TO.N,Net-(U21-\u002AO2)*%
X194498400Y-115023417D03*
X194058000Y-122162000D03*
%TO.N,Net-(U21-\u002AWE)*%
X192636000Y-123800000D03*
X190317000Y-115494000D03*
%TO.N,Net-(U23-D3)*%
X199398000Y-118233000D03*
X207130000Y-132359000D03*
%TO.N,Net-(U14-B3)*%
X292886000Y-63416500D03*
%TO.N,Net-(U23-D1)*%
X194622000Y-118387000D03*
%TO.N,Net-(U38-Q4)*%
X128661000Y-152958000D03*
%TO.N,Net-(U38-Q5)*%
X133250700Y-141032000D03*
%TO.N,Net-(U38-Q6)*%
X155157000Y-105397000D03*
%TO.N,Net-(U38-Q1)*%
X149878000Y-120401000D03*
%TO.N,Net-(U38-Q3)*%
X127428000Y-153682000D03*
%TO.N,Net-(U38-Q7)*%
X155858000Y-102857000D03*
%TO.N,Net-(U38-Q0)*%
X147798000Y-121278000D03*
%TO.N,Net-(U34-C)*%
X118546000Y-129126000D03*
%TO.N,Net-(U34-D)*%
X115309000Y-132558000D03*
%TO.N,Net-(U52-I0b)*%
X200385000Y-131788000D03*
%TO.N,Net-(U31-Q)*%
X128594000Y-154563000D03*
%TO.N,~{AO}*%
X236986000Y-67047300D03*
%TO.N,~{AI}*%
X231852000Y-62719000D03*
%TO.N,~{II}*%
X166071000Y-38288700D03*
X233308000Y-90983900D03*
X203828000Y-57383900D03*
X227005000Y-57822800D03*
%TO.N,~{IO}*%
X191805000Y-50124400D03*
X230394000Y-51412300D03*
%TO.N,Net-(U51-I1c)*%
X242216000Y-110489000D03*
%TO.N,Net-(U26-Pad6)*%
X202792000Y-70525700D03*
%TO.N,Net-(U42-O5)*%
X203176000Y-113399000D03*
X139287000Y-109890000D03*
%TO.N,~{CLR}*%
X188062000Y-111166000D03*
X151712000Y-116600000D03*
X178250200Y-114084500D03*
%TO.N,~{RO}*%
X145281000Y-144032000D03*
%TO.N,Net-(U23-D0)*%
X197889000Y-130082000D03*
X211500300Y-131562600D03*
%TO.N,Net-(U24-Zd)*%
X204569000Y-129467000D03*
%TO.N,Net-(U21-D2)*%
X189820000Y-123708000D03*
X248101000Y-122782000D03*
%TO.N,Net-(U24-Zc)*%
X217194000Y-137089000D03*
X198062000Y-136389000D03*
%TO.N,Net-(U21-D1)*%
X186194000Y-119660000D03*
X246328000Y-118276000D03*
%TO.N,Net-(U24-Zb)*%
X196124000Y-137505000D03*
%TO.N,BUS_7*%
X208835000Y-73630400D03*
X184245000Y-64748600D03*
X211537000Y-90741800D03*
%TO.N,BUS_6*%
X204792000Y-66933600D03*
X210259000Y-94476900D03*
X213142000Y-90562700D03*
%TO.N,BUS_4*%
X294001000Y-92442700D03*
X221010000Y-88563100D03*
X185193000Y-61968500D03*
X64659700Y-63402900D03*
%TO.N,~{EO}*%
X252691000Y-57609100D03*
%TO.N,~{FI}*%
X136289000Y-61180500D03*
%TO.N,Net-(D19-A)*%
X288425000Y-73016500D03*
%TO.N,Net-(U10-Pad2)*%
X268339000Y-50227500D03*
%TO.N,Net-(U10-Pad10)*%
X300158000Y-75975500D03*
%TO.N,Net-(U10-Pad1)*%
X274949000Y-47352100D03*
%TO.N,~{BI}*%
X133268000Y-94190200D03*
%TO.N,CLR*%
X238193000Y-50356500D03*
%TO.N,Net-(U21-D3)*%
X189963000Y-118007800D03*
X207914000Y-143562700D03*
%TO.N,Net-(U23-D2)*%
X226064100Y-125253700D03*
%TO.N,Net-(U21-D0)*%
X185956000Y-117207000D03*
%TO.N,~{CLK}*%
X242089000Y-55046900D03*
X245833300Y-57898600D03*
%TO.N,Net-(U4-Pad6)*%
X285629000Y-141685000D03*
%TO.N,Net-(U4-Pad9)*%
X279267000Y-144133000D03*
%TO.N,Net-(U4-Pad3)*%
X286474000Y-141025000D03*
%TO.N,Net-(U3-Q)*%
X289606000Y-143293000D03*
%TO.N,Net-(U2-Q)*%
X281272000Y-140428000D03*
%TO.N,Net-(SW7-B)*%
X125148000Y-115060000D03*
%TO.N,Net-(U24-I0d)*%
X182047000Y-140798000D03*
%TO.N,Net-(R64-Pad1)*%
X100297000Y-94132100D03*
X209586000Y-97378300D03*
%TO.N,Net-(U31-DIS)*%
X127268000Y-152411000D03*
X160050000Y-153785000D03*
%TO.N,Net-(U1-DIS)*%
X301029000Y-119814000D03*
%TO.N,Net-(D119-A)*%
X193326000Y-52528200D03*
%TO.N,IR_5*%
X173131000Y-48324000D03*
%TO.N,IR_7*%
X176656000Y-41383500D03*
%TO.N,BUS_3*%
X161732000Y-77729000D03*
X244189000Y-87624000D03*
X167597000Y-48883000D03*
X181247000Y-151092000D03*
X280534000Y-87640000D03*
%TO.N,BUS_2*%
X280155000Y-89116300D03*
X187271000Y-63767900D03*
X160702000Y-80839200D03*
X280030000Y-68788800D03*
%TO.N,BUS_1*%
X147453000Y-67904500D03*
X275816000Y-69712700D03*
X178929000Y-142117000D03*
X187242000Y-143496000D03*
X178979000Y-67963700D03*
X190051000Y-65767900D03*
%TO.N,BUS_0*%
X226205000Y-46385500D03*
X279404000Y-67053900D03*
X243489000Y-67098500D03*
X168871000Y-85475200D03*
%TO.N,Net-(D61-A)*%
X75447900Y-49840000D03*
%TO.N,Net-(D59-A)*%
X91331400Y-86974400D03*
%TO.N,Net-(D53-A)*%
X109972000Y-42104200D03*
%TO.N,Net-(D52-A)*%
X135102000Y-58289600D03*
%TO.N,Net-(D51-A)*%
X133039000Y-60702300D03*
%TO.N,CE*%
X106085000Y-69476400D03*
%TO.N,OI*%
X142803000Y-96698100D03*
X143727000Y-114351000D03*
%TO.N,Net-(D48-A)*%
X100323000Y-64884100D03*
%TO.N,SU*%
X97325800Y-58221500D03*
%TO.N,Net-(D46-A)*%
X91480800Y-58208300D03*
%TO.N,Net-(D44-A)*%
X76076900Y-115678000D03*
%TO.N,Net-(D43-A)*%
X74665000Y-103212000D03*
%TO.N,Net-(D42-A)*%
X101999000Y-119963000D03*
%TO.N,Net-(D41-A)*%
X95372200Y-120041000D03*
X121303000Y-60635000D03*
%TO.N,RI*%
X58362200Y-66914500D03*
X56026900Y-108896000D03*
%TO.N,Net-(D39-A)*%
X107408000Y-38154300D03*
X103709000Y-120553000D03*
%TO.N,HLT*%
X55365000Y-55262500D03*
X250154000Y-57609100D03*
%TO.N,Net-(D30-A)*%
X223208000Y-149950000D03*
%TO.N,/ALU/B_0*%
X299426000Y-97344600D03*
%TO.N,Net-(D29-A)*%
X220699000Y-152910000D03*
%TO.N,/ALU/B_1*%
X289142000Y-83758700D03*
%TO.N,Net-(D27-A)*%
X214066000Y-152793000D03*
%TO.N,/ALU/B_2*%
X295115000Y-87536800D03*
%TO.N,Net-(D26-A)*%
X212969000Y-151198000D03*
%TO.N,/ALU/B_4*%
X300294000Y-90997500D03*
%TO.N,/ALU/B_5*%
X304288000Y-87671700D03*
X283152000Y-87637700D03*
%TO.N,/ALU/B_6*%
X301869000Y-76088000D03*
X305687000Y-85524300D03*
%TO.N,/MAR/A0*%
X190777000Y-110535000D03*
X242202000Y-108176000D03*
%TO.N,/ALU/B_7*%
X306541000Y-81776300D03*
%TO.N,/MAR/A1*%
X218505000Y-113600000D03*
X200156000Y-114210000D03*
X194133000Y-113432000D03*
%TO.N,/MAR/A2*%
X194468000Y-116794000D03*
X199776000Y-116104000D03*
X233252000Y-111341000D03*
%TO.N,/MAR/A3*%
X210862000Y-43827100D03*
X204452000Y-84852500D03*
X202772000Y-116895000D03*
X194234000Y-117601000D03*
%TO.N,Net-(D17-A)*%
X298281000Y-81405700D03*
%TO.N,Net-(D16-A)*%
X271057000Y-84820800D03*
X275120000Y-60275500D03*
%TO.N,Net-(D15-A)*%
X274893000Y-57331700D03*
%TO.N,CF*%
X126499000Y-50590700D03*
%TO.N,Net-(D13-A)*%
X274713000Y-54557600D03*
%TO.N,Net-(D12-A)*%
X282678000Y-73355000D03*
%TO.N,Net-(D11-A)*%
X268949000Y-64317800D03*
%TO.N,/ALU/A_0*%
X282976000Y-59564100D03*
%TO.N,/ALU/A_1*%
X286874000Y-64934500D03*
%TO.N,/ALU/A_2*%
X291414600Y-60806000D03*
X291323100Y-67098500D03*
X248034700Y-69444400D03*
%TO.N,/ALU/A_3*%
X293268000Y-64185100D03*
X292704000Y-69839500D03*
%TO.N,/ALU/A_4*%
X271015000Y-55070500D03*
X211004400Y-57472800D03*
%TO.N,/ALU/A_5*%
X213547000Y-55626000D03*
%TO.N,/ALU/A_6*%
X216182000Y-57559400D03*
%TO.N,Net-(U31-THR)*%
X126033000Y-130202000D03*
X122293000Y-152389000D03*
%TO.N,CLK*%
X281241000Y-95777600D03*
X282076000Y-64151600D03*
%TO.N,Net-(C14-Pad2)*%
X263111000Y-106742000D03*
%TO.N,BUS_5*%
X207837000Y-132970000D03*
X162218000Y-76778700D03*
X162243000Y-70057500D03*
X304115000Y-96706200D03*
X217807000Y-87876600D03*
X211547000Y-87876600D03*
X165746000Y-43433300D03*
%TO.N,Net-(U1-THR)*%
X296276000Y-119777000D03*
%TO.N,VCC*%
X284500000Y-149000000D03*
X26500000Y-112000000D03*
X27500000Y-108000000D03*
X298000000Y-119000000D03*
X294000000Y-123500000D03*
X288000000Y-147500000D03*
X284500000Y-145000000D03*
X278000000Y-142500000D03*
X204000000Y-116000000D03*
X191000000Y-114000000D03*
X127500000Y-151000000D03*
%TO.N,Net-(U2-CV)*%
X279659000Y-147142000D03*
%TO.N,GND*%
X294000000Y-148000000D03*
X26000000Y-114000000D03*
X292500000Y-118500000D03*
X119000000Y-151000000D03*
X285000000Y-140500000D03*
%TD*%
D35*
%TO.N,Net-(U21-\u002AO2)*%
X195106583Y-115023417D02*
X195130000Y-115000000D01*
X200217000Y-115000000D02*
X200731000Y-114486000D01*
X195130000Y-115000000D02*
X200217000Y-115000000D01*
X194498400Y-115023417D02*
X195106583Y-115023417D01*
X200731000Y-114486000D02*
X215039000Y-114486000D01*
X215039000Y-114486000D02*
X215538000Y-114985500D01*
%TO.N,/MAR/A2*%
X194468000Y-116794000D02*
X194762000Y-116500000D01*
X194762000Y-116500000D02*
X197051057Y-116500000D01*
X197051057Y-116500000D02*
X197151057Y-116400000D01*
X197151057Y-116400000D02*
X197648943Y-116400000D01*
X197648943Y-116400000D02*
X197748943Y-116500000D01*
X199380000Y-116500000D02*
X199776000Y-116104000D01*
X197748943Y-116500000D02*
X199380000Y-116500000D01*
%TO.N,Net-(U23-\u002AO1)*%
X199789000Y-104325000D02*
X198734000Y-105380000D01*
X224664000Y-104325000D02*
X199789000Y-104325000D01*
X225664000Y-105325000D02*
X224664000Y-104325000D01*
X226613000Y-105325000D02*
X225664000Y-105325000D01*
X226613200Y-105325000D02*
X226613000Y-105325000D01*
%TO.N,Net-(U23-\u002AO3)*%
X204071000Y-116880000D02*
X202595000Y-118357000D01*
X207238000Y-116880000D02*
X204071000Y-116880000D01*
%TO.N,Net-(U23-\u002AO2)*%
X203223000Y-121514000D02*
X202903000Y-121194000D01*
X221218000Y-121514000D02*
X203223000Y-121514000D01*
X221826000Y-120907000D02*
X221218000Y-121514000D01*
%TO.N,Net-(U21-\u002AO3)*%
X190236000Y-119002000D02*
X190077000Y-119160000D01*
X222680000Y-119002000D02*
X190236000Y-119002000D01*
X223657000Y-118025000D02*
X222680000Y-119002000D01*
X223657400Y-118025000D02*
X223657000Y-118025000D01*
%TO.N,Net-(U21-\u002AO2)*%
X216037400Y-115484900D02*
X216037400Y-115485000D01*
X215538000Y-114985500D02*
X216037400Y-115484900D01*
X216037000Y-115485000D02*
X215538000Y-114985500D01*
%TO.N,Net-(U52-Zd)*%
X235146700Y-138367300D02*
X235147100Y-138367300D01*
X234326900Y-139187100D02*
X235146700Y-138367300D01*
X235147000Y-138367000D02*
X234326900Y-139187100D01*
X213597100Y-143437300D02*
X213597100Y-143437000D01*
X230077000Y-143437000D02*
X213597100Y-143437000D01*
X234326900Y-139187100D02*
X230077000Y-143437000D01*
X213597100Y-143437000D02*
X213597000Y-143437000D01*
%TO.N,Net-(U23-D3)*%
X226406000Y-132166000D02*
X227527000Y-133287000D01*
X207323000Y-132166000D02*
X226406000Y-132166000D01*
X207130000Y-132359000D02*
X207323000Y-132166000D01*
X227527000Y-133287200D02*
X227527000Y-133287000D01*
X227527100Y-133287300D02*
X227527000Y-133287200D01*
%TO.N,Net-(U52-I0a)*%
X169197300Y-125632300D02*
X169197100Y-125632300D01*
X169586000Y-126021000D02*
X169197300Y-125632300D01*
X170467000Y-126902000D02*
X169586000Y-126021000D01*
X192970000Y-126902000D02*
X170467000Y-126902000D01*
X194265000Y-128197000D02*
X192970000Y-126902000D01*
X205977000Y-128197000D02*
X194265000Y-128197000D01*
X169586000Y-126021000D02*
X169197000Y-125632000D01*
X205977100Y-128197000D02*
X205977000Y-128197000D01*
X205977100Y-128197300D02*
X205977100Y-128197000D01*
%TO.N,Net-(U38-Q6)*%
X126166500Y-103599500D02*
X126166500Y-103599100D01*
X126833500Y-104266500D02*
X126166500Y-103599500D01*
X127501000Y-104934000D02*
X126833500Y-104266500D01*
X154694000Y-104934000D02*
X127501000Y-104934000D01*
X155157000Y-105397000D02*
X154694000Y-104934000D01*
X126833500Y-104266500D02*
X126166000Y-103599000D01*
%TO.N,Net-(U38-Q1)*%
X126166500Y-116299500D02*
X126166500Y-116299100D01*
X126515800Y-116648800D02*
X126166500Y-116299500D01*
X126166000Y-116299000D02*
X126515800Y-116648800D01*
X149878000Y-120296000D02*
X149878000Y-120401000D01*
X147152000Y-117569000D02*
X149878000Y-120296000D01*
X127436000Y-117569000D02*
X147152000Y-117569000D01*
X126515800Y-116648800D02*
X127436000Y-117569000D01*
%TO.N,Net-(U38-Q3)*%
X151696800Y-154952000D02*
X151697100Y-154952300D01*
X140417500Y-154952000D02*
X151696800Y-154952000D01*
X151697000Y-154952000D02*
X140417500Y-154952000D01*
X127428000Y-153683000D02*
X127428000Y-153682000D01*
X127706000Y-153961000D02*
X128345000Y-153961000D01*
X127428000Y-153683000D02*
X127706000Y-153961000D01*
X128843000Y-153961000D02*
X128345000Y-153961000D01*
X129195000Y-154314000D02*
X128843000Y-153961000D01*
X129195000Y-154812000D02*
X129195000Y-154314000D01*
X129096000Y-154911000D02*
X129195000Y-154812000D01*
X129138000Y-154952000D02*
X129096000Y-154911000D01*
X140417500Y-154952000D02*
X129138000Y-154952000D01*
X128345000Y-153961000D02*
X128025000Y-154280000D01*
%TO.N,Net-(U38-Q7)*%
X126166500Y-101059100D02*
X126166300Y-101059300D01*
X127426000Y-102319000D02*
X126166300Y-101059300D01*
X154438000Y-102319000D02*
X127426000Y-102319000D01*
X154976000Y-102857000D02*
X154438000Y-102319000D01*
X155858000Y-102857000D02*
X154976000Y-102857000D01*
X126166300Y-101059300D02*
X126166000Y-101059000D01*
%TO.N,Net-(U34-A)*%
X140848600Y-122254500D02*
X141724000Y-121379100D01*
X140848500Y-122254500D02*
X140848600Y-122254500D01*
X141724000Y-121379000D02*
X140848500Y-122254500D01*
X117356500Y-130639000D02*
X117356400Y-130639100D01*
X117686500Y-130639000D02*
X117356500Y-130639000D01*
X118017000Y-130639000D02*
X117686500Y-130639000D01*
X120976000Y-127680000D02*
X118017000Y-130639000D01*
X135423000Y-127680000D02*
X120976000Y-127680000D01*
X140848500Y-122254500D02*
X135423000Y-127680000D01*
X117686500Y-130639000D02*
X117356000Y-130639000D01*
X103306100Y-130639100D02*
X103306000Y-130639000D01*
X103306400Y-130639100D02*
X103306100Y-130639100D01*
X89256400Y-130639000D02*
X89256400Y-130639100D01*
X102183000Y-129516000D02*
X103306000Y-130639000D01*
X97791600Y-129516000D02*
X102183000Y-129516000D01*
X97124700Y-130183000D02*
X97791600Y-129516000D01*
X97124700Y-130766000D02*
X97124700Y-130183000D01*
X96120900Y-131770000D02*
X97124700Y-130766000D01*
X90387000Y-131770000D02*
X96120900Y-131770000D01*
X89256400Y-130639100D02*
X90387000Y-131770000D01*
%TO.N,Net-(U34-C)*%
X108410000Y-144611000D02*
X108256000Y-144765000D01*
X108410000Y-144611000D02*
X108256000Y-144765000D01*
X116088000Y-144611000D02*
X117356000Y-145879000D01*
X108410000Y-144611000D02*
X116088000Y-144611000D01*
X117356100Y-145879100D02*
X117356000Y-145879000D01*
X117356400Y-145879100D02*
X117356100Y-145879100D01*
X103306400Y-145878600D02*
X103306400Y-145879100D01*
X103695000Y-145490000D02*
X103306400Y-145878600D01*
X104420000Y-144765000D02*
X103695000Y-145490000D01*
X108256000Y-144765000D02*
X104420000Y-144765000D01*
X103695000Y-145490000D02*
X103306000Y-145879000D01*
%TO.N,Net-(U34-G)*%
X81636400Y-130639000D02*
X81636400Y-129537000D01*
X68688100Y-129537000D02*
X81636400Y-129537000D01*
X67586400Y-130639000D02*
X68688100Y-129537000D01*
X94584700Y-129537000D02*
X95686400Y-130639000D01*
X81636400Y-129537000D02*
X94584700Y-129537000D01*
X109736000Y-129516000D02*
X109736000Y-130639000D01*
X112697000Y-126555000D02*
X109736000Y-129516000D01*
X120990000Y-126555000D02*
X112697000Y-126555000D01*
X126166000Y-121379000D02*
X120990000Y-126555000D01*
X97211300Y-129114000D02*
X95686400Y-130639000D01*
X109335000Y-129114000D02*
X97211300Y-129114000D01*
X109736000Y-129516000D02*
X109335000Y-129114000D01*
X126166100Y-121379100D02*
X126166000Y-121379000D01*
X126166500Y-121379100D02*
X126166100Y-121379100D01*
X67586400Y-130639100D02*
X67586400Y-130639000D01*
X95686400Y-130639100D02*
X95686400Y-130639000D01*
X109736300Y-130639000D02*
X109736000Y-130639000D01*
X109736400Y-130639100D02*
X109736300Y-130639000D01*
X81636400Y-130639100D02*
X81636400Y-130639000D01*
%TO.N,Net-(U34-D)*%
X83074700Y-146981000D02*
X84176400Y-145879100D01*
X80435700Y-146981000D02*
X83074700Y-146981000D01*
X78232300Y-144777000D02*
X80435700Y-146981000D01*
X71228100Y-144777000D02*
X78232300Y-144777000D01*
X70126400Y-145879000D02*
X71228100Y-144777000D01*
X97124700Y-146981000D02*
X98226400Y-145879100D01*
X85278100Y-146981000D02*
X97124700Y-146981000D01*
X84176400Y-145879000D02*
X85278100Y-146981000D01*
X84176400Y-145879100D02*
X84176400Y-145879000D01*
X98226400Y-145879100D02*
X98226400Y-145879000D01*
X70126400Y-145879000D02*
X70126400Y-145879100D01*
%TO.N,Net-(U34-E)*%
X95686500Y-145879000D02*
X95686400Y-145879100D01*
X96237300Y-145879000D02*
X95686500Y-145879000D01*
X95686400Y-145879000D02*
X96237300Y-145879000D01*
X108635000Y-145879000D02*
X109736000Y-145879000D01*
X107533000Y-146981000D02*
X108635000Y-145879000D01*
X102828000Y-146981000D02*
X107533000Y-146981000D01*
X102205000Y-146357000D02*
X102828000Y-146981000D01*
X102205000Y-145716000D02*
X102205000Y-146357000D01*
X101254000Y-144765000D02*
X102205000Y-145716000D01*
X97764300Y-144765000D02*
X101254000Y-144765000D01*
X96788100Y-145741000D02*
X97764300Y-144765000D01*
X96788100Y-145879000D02*
X96788100Y-145741000D01*
X96237300Y-145879000D02*
X96788100Y-145879000D01*
X109736100Y-145879100D02*
X109736000Y-145879000D01*
X109736400Y-145879100D02*
X109736100Y-145879100D01*
X81636400Y-145879100D02*
X81636400Y-145879000D01*
X67586500Y-145879000D02*
X67586400Y-145879100D01*
X68036400Y-145879000D02*
X67586500Y-145879000D01*
X67586400Y-145879000D02*
X68036400Y-145879000D01*
X80534700Y-145879000D02*
X81636400Y-145879000D01*
X79031300Y-144376000D02*
X80534700Y-145879000D01*
X70053800Y-144376000D02*
X79031300Y-144376000D01*
X68688100Y-145741000D02*
X70053800Y-144376000D01*
X68688100Y-145879000D02*
X68688100Y-145741000D01*
X68036400Y-145879000D02*
X68688100Y-145879000D01*
%TO.N,Net-(U34-F)*%
X122987000Y-127098000D02*
X126166000Y-123919000D01*
X115817000Y-127098000D02*
X122987000Y-127098000D01*
X112276000Y-130639000D02*
X115817000Y-127098000D01*
X112276100Y-130639100D02*
X112276000Y-130639000D01*
X112276400Y-130639100D02*
X112276100Y-130639100D01*
X126166400Y-123919000D02*
X126166000Y-123919000D01*
X126166500Y-123919100D02*
X126166400Y-123919000D01*
X111172000Y-131743000D02*
X112276000Y-130639000D01*
X99330600Y-131743000D02*
X111172000Y-131743000D01*
X98226400Y-130639000D02*
X99330600Y-131743000D01*
X98226400Y-130639100D02*
X98226400Y-130639000D01*
%TO.N,Net-(U33A-O0)*%
X86716400Y-145879100D02*
X86716400Y-145879000D01*
X141164000Y-141689000D02*
X141163900Y-141689100D01*
X89795300Y-142800000D02*
X86716400Y-145879000D01*
X140053000Y-142800000D02*
X89795300Y-142800000D01*
X141163900Y-141689100D02*
X140053000Y-142800000D01*
%TO.N,Net-(U52-I0b)*%
X169197100Y-128172300D02*
X169197200Y-128172200D01*
X170353000Y-129329000D02*
X169197200Y-128172200D01*
X192857000Y-129329000D02*
X170353000Y-129329000D01*
X194215000Y-130687000D02*
X192857000Y-129329000D01*
X199284000Y-130687000D02*
X194215000Y-130687000D01*
X200385000Y-131788000D02*
X199284000Y-130687000D01*
X169197200Y-128172200D02*
X169197000Y-128172000D01*
%TO.N,Net-(U33A-O3)*%
X72666400Y-145879100D02*
X72666500Y-145879100D01*
X72666500Y-145879100D02*
X72666400Y-145879000D01*
X141164000Y-149309000D02*
X141163900Y-149309100D01*
X75950400Y-149163000D02*
X72666500Y-145879100D01*
X125897000Y-149163000D02*
X75950400Y-149163000D01*
X126513000Y-149779000D02*
X125897000Y-149163000D01*
X127462000Y-149779000D02*
X126513000Y-149779000D01*
X128149000Y-150465000D02*
X127462000Y-149779000D01*
X140008000Y-150465000D02*
X128149000Y-150465000D01*
X141163900Y-149309100D02*
X140008000Y-150465000D01*
%TO.N,Net-(U33A-O2)*%
X141163900Y-146769100D02*
X141164000Y-146769000D01*
X100766400Y-145879100D02*
X100766300Y-145879200D01*
X100766000Y-145879000D02*
X100766300Y-145879200D01*
X140053000Y-147880000D02*
X141163900Y-146769100D01*
X102768000Y-147880000D02*
X140053000Y-147880000D01*
X100766300Y-145879200D02*
X102768000Y-147880000D01*
%TO.N,Net-(U33A-O1)*%
X114816400Y-145879100D02*
X114816300Y-145879200D01*
X114816000Y-145879000D02*
X114816300Y-145879200D01*
X139952000Y-145441000D02*
X141163900Y-144229100D01*
X129200000Y-145441000D02*
X139952000Y-145441000D01*
X127622000Y-147019000D02*
X129200000Y-145441000D01*
X115956000Y-147019000D02*
X127622000Y-147019000D01*
X114816300Y-145879200D02*
X115956000Y-147019000D01*
X141163900Y-144229100D02*
X141164000Y-144229000D01*
%TO.N,Net-(U52-I0d)*%
X176817300Y-133252300D02*
X176817100Y-133252300D01*
X177517000Y-133952000D02*
X176817300Y-133252300D01*
X176817000Y-133252000D02*
X177517000Y-133952000D01*
X212472000Y-137233000D02*
X213597000Y-138357000D01*
X204494000Y-137233000D02*
X212472000Y-137233000D01*
X203540000Y-138187000D02*
X204494000Y-137233000D01*
X193703000Y-138187000D02*
X203540000Y-138187000D01*
X192462000Y-136946000D02*
X193703000Y-138187000D01*
X188935000Y-136946000D02*
X192462000Y-136946000D01*
X186641000Y-134652000D02*
X188935000Y-136946000D01*
X178217000Y-134652000D02*
X186641000Y-134652000D01*
X177517000Y-133952000D02*
X178217000Y-134652000D01*
X213597100Y-138357100D02*
X213597000Y-138357000D01*
X213597100Y-138357300D02*
X213597100Y-138357100D01*
%TO.N,~{AI}*%
X237794000Y-62719000D02*
X231852000Y-62719000D01*
X238947000Y-63872300D02*
X237794000Y-62719000D01*
X189962000Y-62847700D02*
X189007000Y-61892300D01*
X203963000Y-62847700D02*
X189962000Y-62847700D01*
X204092000Y-62719000D02*
X203963000Y-62847700D01*
X213947000Y-62719000D02*
X204092000Y-62719000D01*
X214113000Y-62552700D02*
X213947000Y-62719000D01*
X214113000Y-62552700D02*
X213947000Y-62719000D01*
X214348000Y-62317300D02*
X214113000Y-62552700D01*
X231450000Y-62317300D02*
X214348000Y-62317300D01*
X231852000Y-62719000D02*
X231450000Y-62317300D01*
X189007100Y-61892300D02*
X189007000Y-61892300D01*
X238947100Y-63872300D02*
X238947000Y-63872300D01*
%TO.N,~{II}*%
X161140000Y-55420000D02*
X163680000Y-55420000D01*
X226666000Y-58161100D02*
X227005000Y-57822800D01*
X204605000Y-58161100D02*
X226666000Y-58161100D01*
X203828000Y-57383900D02*
X204605000Y-58161100D01*
%TO.N,~{IO}*%
X229479000Y-52327000D02*
X230394000Y-51412300D01*
X194008000Y-52327000D02*
X229479000Y-52327000D01*
X191805000Y-50124400D02*
X194008000Y-52327000D01*
%TO.N,Net-(U51-I1c)*%
X205960600Y-109906000D02*
X205461600Y-110405000D01*
X205961000Y-109906000D02*
X205960600Y-109906000D01*
X205462000Y-110405000D02*
X205961000Y-109906000D01*
X241134000Y-109407000D02*
X242216000Y-110489000D01*
X206460000Y-109407000D02*
X241134000Y-109407000D01*
X205961000Y-109906000D02*
X206460000Y-109407000D01*
%TO.N,Net-(U26-Pad6)*%
X202638000Y-70680000D02*
X202792000Y-70525700D01*
X105459000Y-70680000D02*
X202638000Y-70680000D01*
X103702000Y-68923600D02*
X105459000Y-70680000D01*
X76205800Y-68923600D02*
X103702000Y-68923600D01*
X74949400Y-70180000D02*
X76205800Y-68923600D01*
X74000000Y-70180000D02*
X74949400Y-70180000D01*
%TO.N,Net-(U42-O5)*%
X152883000Y-109890000D02*
X139287000Y-109890000D01*
X153790000Y-110797000D02*
X152883000Y-109890000D01*
X163690000Y-110797000D02*
X153790000Y-110797000D01*
X165187000Y-112294000D02*
X163690000Y-110797000D01*
X202072000Y-112294000D02*
X165187000Y-112294000D01*
X203176000Y-113399000D02*
X202072000Y-112294000D01*
%TO.N,~{CLR}*%
X203682000Y-111166000D02*
X205462000Y-112945000D01*
X188062000Y-111166000D02*
X203682000Y-111166000D01*
X205461600Y-112945000D02*
X205462000Y-112945000D01*
X213081600Y-110405400D02*
X213081600Y-110405000D01*
X212746900Y-110740100D02*
X213081600Y-110405400D01*
X210542000Y-112945000D02*
X212746900Y-110740100D01*
X205462000Y-112945000D02*
X210542000Y-112945000D01*
X212746900Y-110740100D02*
X213082000Y-110405000D01*
%TO.N,~{RO}*%
X188539000Y-144539000D02*
X190300000Y-146300000D01*
X166546000Y-144539000D02*
X188539000Y-144539000D01*
X163080000Y-141073000D02*
X166546000Y-144539000D01*
X151045000Y-141073000D02*
X163080000Y-141073000D01*
X149160000Y-142959000D02*
X151045000Y-141073000D01*
X146354000Y-142959000D02*
X149160000Y-142959000D01*
X145281000Y-144032000D02*
X146354000Y-142959000D01*
%TO.N,Net-(U24-Zd)*%
X235146700Y-128207300D02*
X235147100Y-128207300D01*
X234758100Y-128595900D02*
X235146700Y-128207300D01*
X233887000Y-129467000D02*
X234758100Y-128595900D01*
X204569000Y-129467000D02*
X233887000Y-129467000D01*
X234758100Y-128595900D02*
X235147000Y-128207000D01*
%TO.N,Net-(U21-D2)*%
X232156000Y-122782000D02*
X248101000Y-122782000D01*
X231209000Y-123729000D02*
X232156000Y-122782000D01*
X231042000Y-123895000D02*
X231209000Y-123729000D01*
X231042000Y-123895000D02*
X231209000Y-123729000D01*
X194372000Y-123895000D02*
X231042000Y-123895000D01*
X193663000Y-123186000D02*
X194372000Y-123895000D01*
X190342000Y-123186000D02*
X193663000Y-123186000D01*
X189820000Y-123708000D02*
X190342000Y-123186000D01*
%TO.N,Net-(U24-Zc)*%
X237536000Y-137089000D02*
X217194000Y-137089000D01*
X239191000Y-135434000D02*
X237536000Y-137089000D01*
X249774000Y-135434000D02*
X239191000Y-135434000D01*
X250669000Y-134538000D02*
X249774000Y-135434000D01*
X259622000Y-134538000D02*
X250669000Y-134538000D01*
X260750000Y-133410000D02*
X259622000Y-134538000D01*
%TO.N,Net-(U52-I0c)*%
X213597000Y-130737200D02*
X213597000Y-130737000D01*
X213597100Y-130737300D02*
X213597000Y-130737200D01*
X176817100Y-130712300D02*
X176817200Y-130712200D01*
X177970000Y-131866000D02*
X176817200Y-130712200D01*
X192462000Y-131866000D02*
X177970000Y-131866000D01*
X193700000Y-133103000D02*
X192462000Y-131866000D01*
X203533000Y-133103000D02*
X193700000Y-133103000D01*
X204744000Y-131892000D02*
X203533000Y-133103000D01*
X206430000Y-131892000D02*
X204744000Y-131892000D01*
X207585000Y-130737000D02*
X206430000Y-131892000D01*
X213597000Y-130737000D02*
X207585000Y-130737000D01*
X176817200Y-130712200D02*
X176817000Y-130712000D01*
%TO.N,Net-(U21-D1)*%
X246328000Y-118276000D02*
X245897000Y-117845000D01*
X245897000Y-117845000D02*
X246328000Y-118276000D01*
X245097000Y-117045000D02*
X245897000Y-117845000D01*
X232393000Y-117045000D02*
X245097000Y-117045000D01*
X227488000Y-121950000D02*
X232393000Y-117045000D01*
X202808000Y-121950000D02*
X227488000Y-121950000D01*
X202408000Y-121550000D02*
X202808000Y-121950000D01*
X188084000Y-121550000D02*
X202408000Y-121550000D01*
X186194000Y-119660000D02*
X188084000Y-121550000D01*
X245897000Y-117845000D02*
X246328000Y-118276000D01*
%TO.N,Net-(U51-Zc)*%
X228161800Y-126302000D02*
X227527100Y-125667300D01*
X228162000Y-126302000D02*
X228161800Y-126302000D01*
X228797000Y-126937000D02*
X228162000Y-126302000D01*
X238016000Y-126937000D02*
X228797000Y-126937000D01*
X238922000Y-127843000D02*
X238016000Y-126937000D01*
X242828000Y-127843000D02*
X238922000Y-127843000D01*
X249317000Y-134332000D02*
X242828000Y-127843000D01*
X228162000Y-126302000D02*
X227527000Y-125667000D01*
X249317000Y-134332200D02*
X249317000Y-134332000D01*
X249317100Y-134332300D02*
X249317000Y-134332200D01*
%TO.N,BUS_7*%
X256643000Y-89617800D02*
X257817000Y-90792300D01*
X212661000Y-89617800D02*
X256643000Y-89617800D01*
X211537000Y-90741800D02*
X212661000Y-89617800D01*
X170067000Y-64346900D02*
X168760000Y-63040000D01*
X183843000Y-64346900D02*
X170067000Y-64346900D01*
X184245000Y-64748600D02*
X183843000Y-64346900D01*
X83478600Y-64647500D02*
X83714000Y-64412100D01*
X62962500Y-64647500D02*
X83478600Y-64647500D01*
X58500000Y-69110000D02*
X62962500Y-64647500D01*
X83714000Y-64412100D02*
X83878800Y-64247300D01*
X83714000Y-64412100D02*
X83878800Y-64247300D01*
X167620000Y-64179900D02*
X168760000Y-63040000D01*
X160668000Y-64179900D02*
X167620000Y-64179900D01*
X160050000Y-63561500D02*
X160668000Y-64179900D01*
X132188000Y-63561500D02*
X160050000Y-63561500D01*
X131783000Y-63966100D02*
X132188000Y-63561500D01*
X84160000Y-63966100D02*
X131783000Y-63966100D01*
X83878800Y-64247300D02*
X84160000Y-63966100D01*
X257817100Y-90792300D02*
X257817000Y-90792300D01*
X189007100Y-74592200D02*
X189007100Y-74592300D01*
X189342100Y-74257200D02*
X189007100Y-74592200D01*
X189007000Y-74592300D02*
X189342100Y-74257200D01*
X203177000Y-73630400D02*
X208835000Y-73630400D01*
X202869000Y-73322300D02*
X203177000Y-73630400D01*
X190277000Y-73322300D02*
X202869000Y-73322300D01*
X189342100Y-74257200D02*
X190277000Y-73322300D01*
X159317400Y-139712000D02*
X159317100Y-139712300D01*
X159786200Y-139712000D02*
X159317400Y-139712000D01*
X186252000Y-139712000D02*
X159786200Y-139712000D01*
X192840000Y-146300000D02*
X186252000Y-139712000D01*
X159786200Y-139712000D02*
X159317000Y-139712000D01*
%TO.N,~{MI}*%
X136349000Y-37489400D02*
X132792000Y-33932300D01*
X251069000Y-37489400D02*
X136349000Y-37489400D01*
X251950000Y-36608300D02*
X251069000Y-37489400D01*
X264956000Y-36608300D02*
X251950000Y-36608300D01*
X265640000Y-37291600D02*
X264956000Y-36608300D01*
X275492000Y-37291600D02*
X265640000Y-37291600D01*
X276620000Y-38420000D02*
X275492000Y-37291600D01*
X132792100Y-33932300D02*
X132792000Y-33932300D01*
%TO.N,BUS_6*%
X188089000Y-72970600D02*
X189007000Y-72052300D01*
X141166000Y-72970600D02*
X188089000Y-72970600D01*
X137911000Y-76225300D02*
X141166000Y-72970600D01*
X60615300Y-76225300D02*
X137911000Y-76225300D01*
X58500000Y-74110000D02*
X60615300Y-76225300D01*
X164567000Y-147502000D02*
X160118000Y-143053000D01*
X194178000Y-147502000D02*
X164567000Y-147502000D01*
X195380000Y-146300000D02*
X194178000Y-147502000D01*
X160118000Y-143053000D02*
X159317000Y-142252000D01*
X159317300Y-142252300D02*
X159317100Y-142252300D01*
X160118000Y-143053000D02*
X159317300Y-142252300D01*
X189007100Y-72052300D02*
X189007000Y-72052300D01*
X260357100Y-90792300D02*
X259954700Y-91194700D01*
X260357000Y-90792300D02*
X259954700Y-91194700D01*
X263167000Y-93602400D02*
X260357000Y-90792300D01*
X275883000Y-93602400D02*
X263167000Y-93602400D01*
X279555000Y-97273900D02*
X275883000Y-93602400D01*
X298505000Y-97273900D02*
X279555000Y-97273900D01*
X302781000Y-101550000D02*
X298505000Y-97273900D01*
X303250000Y-101550000D02*
X302781000Y-101550000D01*
X210418000Y-94636700D02*
X210259000Y-94476900D01*
X256513000Y-94636700D02*
X210418000Y-94636700D01*
X259954700Y-91194700D02*
X256513000Y-94636700D01*
X211306000Y-66933600D02*
X204792000Y-66933600D01*
X213577000Y-64662300D02*
X211306000Y-66933600D01*
X213577100Y-64662300D02*
X213577000Y-64662300D01*
%TO.N,BUS_4*%
X263208000Y-88563100D02*
X221010000Y-88563100D01*
X265437000Y-90792300D02*
X263208000Y-88563100D01*
X161239000Y-150491000D02*
X159317000Y-152412000D01*
X196269000Y-150491000D02*
X161239000Y-150491000D01*
X200460000Y-146300000D02*
X196269000Y-150491000D01*
X162303000Y-61877300D02*
X161140000Y-63040000D01*
X185102000Y-61877300D02*
X162303000Y-61877300D01*
X185193000Y-61968500D02*
X185102000Y-61877300D01*
X131859000Y-63040000D02*
X161140000Y-63040000D01*
X131334000Y-63564400D02*
X131859000Y-63040000D01*
X83793500Y-63564400D02*
X131334000Y-63564400D01*
X83112100Y-64245800D02*
X83793500Y-63564400D01*
X65502600Y-64245800D02*
X83112100Y-64245800D01*
X64659700Y-63402900D02*
X65502600Y-64245800D01*
X159317000Y-152412200D02*
X159317000Y-152412000D01*
X159317100Y-152412300D02*
X159317000Y-152412200D01*
X218657100Y-64662300D02*
X218657000Y-64662300D01*
X265437100Y-90792300D02*
X265437000Y-90792300D01*
X189007000Y-66972300D02*
X189007100Y-66972300D01*
X217995000Y-64662300D02*
X218657000Y-64662300D01*
X216855000Y-63522400D02*
X217995000Y-64662300D01*
X215632000Y-63522400D02*
X216855000Y-63522400D01*
X214847000Y-64307700D02*
X215632000Y-63522400D01*
X214847000Y-65093200D02*
X214847000Y-64307700D01*
X212018000Y-67922900D02*
X214847000Y-65093200D01*
X189958000Y-67922900D02*
X212018000Y-67922900D01*
X189007100Y-66972300D02*
X189958000Y-67922900D01*
%TO.N,/MAR/PROG*%
X232500000Y-36540000D02*
X229960000Y-36540000D01*
X219800000Y-36540000D02*
X222340000Y-36540000D01*
X224880000Y-28920000D02*
X227420000Y-28920000D01*
X232500000Y-28920000D02*
X235040000Y-28920000D01*
X224880000Y-36540000D02*
X222340000Y-36540000D01*
X238750000Y-32630000D02*
X235040000Y-28920000D01*
X256880000Y-32630000D02*
X238750000Y-32630000D01*
X241337000Y-124532000D02*
X241697000Y-124172000D01*
X205977000Y-124532000D02*
X241337000Y-124532000D01*
X205977000Y-125657000D02*
X205977000Y-124532000D01*
X241697100Y-124172000D02*
X241697000Y-124172000D01*
X241697100Y-124172300D02*
X241697100Y-124172000D01*
X184417100Y-125656900D02*
X184417100Y-125657300D01*
X184979500Y-125094500D02*
X184417100Y-125656900D01*
X184417000Y-125657000D02*
X184979500Y-125094500D01*
X185542000Y-124532000D02*
X205977000Y-124532000D01*
X184979500Y-125094500D02*
X185542000Y-124532000D01*
X205977000Y-125657200D02*
X205977000Y-125657000D01*
X205977100Y-125657300D02*
X205977000Y-125657200D01*
%TO.N,~{EO}*%
X132912100Y-54352300D02*
X133247100Y-54687300D01*
X132912000Y-54352300D02*
X133247100Y-54687300D01*
X251724000Y-58576200D02*
X252691000Y-57609100D01*
X247759000Y-58576200D02*
X251724000Y-58576200D01*
X247358000Y-58977900D02*
X247759000Y-58576200D01*
X155414000Y-58977900D02*
X247358000Y-58977900D01*
X152181000Y-55745000D02*
X155414000Y-58977900D01*
X134305000Y-55745000D02*
X152181000Y-55745000D01*
X133247100Y-54687300D02*
X134305000Y-55745000D01*
%TO.N,Net-(U13-C0)*%
X294070000Y-62180000D02*
X295340000Y-63450000D01*
X278210000Y-62180000D02*
X294070000Y-62180000D01*
X276940000Y-60910000D02*
X278210000Y-62180000D01*
%TO.N,~{FI}*%
X272662000Y-59791500D02*
X273780000Y-60910000D01*
X153343000Y-59791500D02*
X272662000Y-59791500D01*
X152349000Y-60786000D02*
X153343000Y-59791500D01*
X136684000Y-60786000D02*
X152349000Y-60786000D01*
X136289000Y-61180500D02*
X136684000Y-60786000D01*
%TO.N,Net-(U10-Pad2)*%
X268986000Y-49580000D02*
X268339000Y-50227500D01*
X297140000Y-49580000D02*
X268986000Y-49580000D01*
X298500000Y-48220000D02*
X297140000Y-49580000D01*
%TO.N,Net-(U10-Pad10)*%
X274468400Y-80339600D02*
X274468400Y-80340000D01*
X274803200Y-80004800D02*
X274468400Y-80339600D01*
X274468000Y-80340000D02*
X274803200Y-80004800D01*
X294735000Y-75975500D02*
X300158000Y-75975500D01*
X291641000Y-79070000D02*
X294735000Y-75975500D01*
X275738000Y-79070000D02*
X291641000Y-79070000D01*
X274803200Y-80004800D02*
X275738000Y-79070000D01*
%TO.N,Net-(U12-D1)*%
X274296000Y-53290000D02*
X273780000Y-53290000D01*
X275535000Y-54528300D02*
X274296000Y-53290000D01*
X280352000Y-54528300D02*
X275535000Y-54528300D01*
X282934000Y-57110000D02*
X280352000Y-54528300D01*
X297230000Y-57110000D02*
X282934000Y-57110000D01*
X298500000Y-58380000D02*
X297230000Y-57110000D01*
%TO.N,Net-(U10-Pad1)*%
X275361000Y-46940000D02*
X274949000Y-47352100D01*
X297240000Y-46940000D02*
X275361000Y-46940000D01*
X298500000Y-45680000D02*
X297240000Y-46940000D01*
%TO.N,Net-(U10-Pad9)*%
X274468400Y-72720000D02*
X274468200Y-72719800D01*
X275880000Y-71308400D02*
X274468200Y-72719800D01*
X289697000Y-71308400D02*
X275880000Y-71308400D01*
X302625000Y-58380000D02*
X289697000Y-71308400D01*
X306120000Y-58380000D02*
X302625000Y-58380000D01*
X274468200Y-72719800D02*
X274468000Y-72720000D01*
%TO.N,~{BI}*%
X317340000Y-101420000D02*
X314800000Y-101420000D01*
X293090000Y-101550000D02*
X295630000Y-101550000D01*
X313968000Y-100588000D02*
X314800000Y-101420000D01*
X305314000Y-100588000D02*
X313968000Y-100588000D01*
X304520000Y-101382000D02*
X305314000Y-100588000D01*
X304520000Y-101642000D02*
X304520000Y-101382000D01*
X303659000Y-102503000D02*
X304520000Y-101642000D01*
X296583000Y-102503000D02*
X303659000Y-102503000D01*
X295630000Y-101550000D02*
X296583000Y-102503000D01*
X133292000Y-94214800D02*
X133268000Y-94190200D01*
X133292000Y-94216400D02*
X133292000Y-94214800D01*
X133408000Y-94332600D02*
X133292000Y-94216400D01*
X163988000Y-94332600D02*
X133408000Y-94332600D01*
X166337000Y-96681500D02*
X163988000Y-94332600D01*
X270419000Y-96681500D02*
X166337000Y-96681500D01*
X271917000Y-98179800D02*
X270419000Y-96681500D01*
X271917000Y-98953700D02*
X271917000Y-98179800D01*
X274514000Y-101550000D02*
X271917000Y-98953700D01*
X293090000Y-101550000D02*
X274514000Y-101550000D01*
%TO.N,CLR*%
X328958000Y-102502000D02*
X330040000Y-101420000D01*
X309282000Y-102502000D02*
X328958000Y-102502000D01*
X309074000Y-102294000D02*
X309282000Y-102502000D01*
X308330000Y-101550000D02*
X309074000Y-102294000D01*
X213556100Y-112470500D02*
X213081600Y-112945000D01*
X213556500Y-112470500D02*
X213556100Y-112470500D01*
X213082000Y-112945000D02*
X213556500Y-112470500D01*
X300292000Y-111075000D02*
X309074000Y-102294000D01*
X242482000Y-111075000D02*
X300292000Y-111075000D01*
X242465000Y-111091000D02*
X242482000Y-111075000D01*
X235480000Y-111091000D02*
X242465000Y-111091000D01*
X234576000Y-111996000D02*
X235480000Y-111091000D01*
X214031000Y-111996000D02*
X234576000Y-111996000D01*
X213556500Y-112470500D02*
X214031000Y-111996000D01*
X206213000Y-50356500D02*
X205197100Y-51372300D01*
X238193000Y-50356500D02*
X206213000Y-50356500D01*
X205197100Y-51372300D02*
X205197000Y-51372300D01*
%TO.N,~{CLK}*%
X84407500Y-48336900D02*
X84032100Y-48712300D01*
X108338000Y-48336900D02*
X84407500Y-48336900D01*
X108851000Y-48849300D02*
X108338000Y-48336900D01*
X158960000Y-48849300D02*
X108851000Y-48849300D01*
X160502000Y-50390700D02*
X158960000Y-48849300D01*
X162269000Y-50390700D02*
X160502000Y-50390700D01*
X166087000Y-54208200D02*
X162269000Y-50390700D01*
X197696000Y-54208200D02*
X166087000Y-54208200D01*
X199716000Y-56227700D02*
X197696000Y-54208200D01*
X240908000Y-56227700D02*
X199716000Y-56227700D01*
X242089000Y-55046900D02*
X240908000Y-56227700D01*
%TO.N,Net-(U24-Za)*%
X227527000Y-135827200D02*
X227527000Y-135827000D01*
X227527100Y-135827300D02*
X227527000Y-135827200D01*
X184417400Y-133277000D02*
X184417100Y-133277300D01*
X186093500Y-133277000D02*
X184417400Y-133277000D01*
X187770000Y-133277000D02*
X186093500Y-133277000D01*
X189204000Y-134711000D02*
X187770000Y-133277000D01*
X193162000Y-134711000D02*
X189204000Y-134711000D01*
X194104000Y-135653000D02*
X193162000Y-134711000D01*
X204100000Y-135653000D02*
X194104000Y-135653000D01*
X205064000Y-134689000D02*
X204100000Y-135653000D01*
X226389000Y-134689000D02*
X205064000Y-134689000D01*
X227527000Y-135827000D02*
X226389000Y-134689000D01*
X186093500Y-133277000D02*
X184417000Y-133277000D01*
%TO.N,Net-(U4-Pad10)*%
X278457500Y-129046900D02*
X279277100Y-128227300D01*
X278457100Y-129046900D02*
X278457500Y-129046900D01*
X274031000Y-133473000D02*
X278457100Y-129046900D01*
X268307000Y-133473000D02*
X274031000Y-133473000D01*
X260750000Y-141030000D02*
X268307000Y-133473000D01*
X278457100Y-129046900D02*
X279277000Y-128227000D01*
%TO.N,Net-(U4-Pad4)*%
X281817100Y-120607300D02*
X281816900Y-120607100D01*
X280076000Y-122349000D02*
X281816900Y-120607100D01*
X254690000Y-122349000D02*
X280076000Y-122349000D01*
X251990000Y-125049000D02*
X254690000Y-122349000D01*
X251990000Y-127190000D02*
X251990000Y-125049000D01*
X253130000Y-128330000D02*
X251990000Y-127190000D01*
X281816900Y-120607100D02*
X281817000Y-120607000D01*
%TO.N,Net-(U4-Pad6)*%
X311181000Y-142681000D02*
X312620000Y-144120000D01*
X286625000Y-142681000D02*
X311181000Y-142681000D01*
X285629000Y-141685000D02*
X286625000Y-142681000D01*
%TO.N,Net-(U4-Pad9)*%
X310093000Y-144133000D02*
X279267000Y-144133000D01*
X312620000Y-146660000D02*
X310093000Y-144133000D01*
%TO.N,Net-(U4-Pad3)*%
X286590000Y-141142000D02*
X286474000Y-141025000D01*
X287029000Y-141580000D02*
X286590000Y-141142000D01*
X312620000Y-141580000D02*
X287029000Y-141580000D01*
%TO.N,Net-(U3-Q)*%
X286077500Y-121426900D02*
X286897100Y-120607300D01*
X286077100Y-121426900D02*
X286077500Y-121426900D01*
X283587000Y-123917000D02*
X286077100Y-121426900D01*
X255003000Y-123917000D02*
X283587000Y-123917000D01*
X253130000Y-125790000D02*
X255003000Y-123917000D01*
X286077100Y-121426900D02*
X286897000Y-120607000D01*
%TO.N,Net-(U51-I0c)*%
X242317400Y-145427000D02*
X242317100Y-145427300D01*
X245567000Y-145427000D02*
X242317400Y-145427000D01*
X242317000Y-145427000D02*
X245567000Y-145427000D01*
X248816800Y-145427000D02*
X248817100Y-145427300D01*
X248267100Y-145427000D02*
X248816800Y-145427000D01*
X245567000Y-145427000D02*
X248267100Y-145427000D01*
X248267100Y-145427000D02*
X248817000Y-145427000D01*
%TO.N,Net-(U24-I0d)*%
X176817000Y-143378000D02*
X176817000Y-143412000D01*
X179397000Y-140798000D02*
X176817000Y-143378000D01*
X182047000Y-140798000D02*
X179397000Y-140798000D01*
X176817000Y-143412200D02*
X176817000Y-143412000D01*
X176817100Y-143412300D02*
X176817000Y-143412200D01*
%TO.N,Net-(R64-Pad1)*%
X85250000Y-70250000D02*
X91750000Y-70250000D01*
X166265000Y-97378300D02*
X209586000Y-97378300D01*
X163704000Y-94816600D02*
X166265000Y-97378300D01*
X100981000Y-94816600D02*
X163704000Y-94816600D01*
X100297000Y-94132100D02*
X100981000Y-94816600D01*
%TO.N,Net-(U31-DIS)*%
X127268000Y-152514000D02*
X127268000Y-152411000D01*
X128314000Y-153559000D02*
X127268000Y-152514000D01*
X159824000Y-153559000D02*
X128314000Y-153559000D01*
X160050000Y-153785000D02*
X159824000Y-153559000D01*
%TO.N,Net-(U2-TR)*%
X283067400Y-135662000D02*
X283067100Y-135662300D01*
X286317000Y-135662000D02*
X283067400Y-135662000D01*
X286317000Y-135662000D02*
X283067000Y-135662000D01*
X289566800Y-135662000D02*
X289567100Y-135662300D01*
X287942000Y-135662000D02*
X289566800Y-135662000D01*
X289567000Y-135662000D02*
X287942000Y-135662000D01*
X287942000Y-135662000D02*
X286317000Y-135662000D01*
%TO.N,Net-(R2-Pad2)*%
X320735000Y-111540000D02*
X320775000Y-111500000D01*
X317165000Y-111540000D02*
X320735000Y-111540000D01*
%TO.N,Net-(D119-A)*%
X211525000Y-39920000D02*
X212817000Y-41212300D01*
X195000000Y-39920000D02*
X211525000Y-39920000D01*
X212817100Y-41212300D02*
X212817000Y-41212300D01*
%TO.N,Net-(D116-A)*%
X188890000Y-52188600D02*
X188890000Y-52730000D01*
X191556000Y-49522700D02*
X188890000Y-52188600D01*
X192054000Y-49522700D02*
X191556000Y-49522700D01*
X192320000Y-49789000D02*
X192054000Y-49522700D01*
X211860000Y-49789000D02*
X192320000Y-49789000D01*
X212817000Y-48832300D02*
X211860000Y-49789000D01*
X212817100Y-48832300D02*
X212817000Y-48832300D01*
%TO.N,IR_4*%
X109544000Y-48401000D02*
X108443000Y-47300000D01*
X159080000Y-48401000D02*
X109544000Y-48401000D01*
X160164000Y-49484700D02*
X159080000Y-48401000D01*
X167865000Y-49484700D02*
X160164000Y-49484700D01*
X171110000Y-52730000D02*
X167865000Y-49484700D01*
X108442600Y-47300000D02*
X108443000Y-47300000D01*
%TO.N,IR_5*%
X108958400Y-44244200D02*
X108442600Y-44760000D01*
X108958500Y-44244200D02*
X108958400Y-44244200D01*
X108443000Y-44760000D02*
X108958500Y-44244200D01*
X169162000Y-48324000D02*
X173131000Y-48324000D01*
X166200000Y-45362300D02*
X169162000Y-48324000D01*
X132567000Y-45362300D02*
X166200000Y-45362300D01*
X130933000Y-43728400D02*
X132567000Y-45362300D01*
X109474000Y-43728400D02*
X130933000Y-43728400D01*
X108958500Y-44244200D02*
X109474000Y-43728400D01*
%TO.N,IR_6*%
X90487400Y-41135200D02*
X108443000Y-41135200D01*
X89442600Y-42180000D02*
X90487400Y-41135200D01*
X108443000Y-41135200D02*
X108443000Y-42220000D01*
X163818000Y-41121700D02*
X165020000Y-39920000D01*
X152685000Y-41121700D02*
X163818000Y-41121700D01*
X152150000Y-40586800D02*
X152685000Y-41121700D01*
X124494000Y-40586800D02*
X152150000Y-40586800D01*
X124410000Y-40670700D02*
X124494000Y-40586800D01*
X108907000Y-40670700D02*
X124410000Y-40670700D01*
X108443000Y-41135200D02*
X108907000Y-40670700D01*
X108442600Y-42220000D02*
X108443000Y-42220000D01*
%TO.N,IR_7*%
X108442600Y-39680000D02*
X108443000Y-39680000D01*
X107445000Y-40677900D02*
X108443000Y-39680000D01*
X90480500Y-40677900D02*
X107445000Y-40677900D01*
X89442600Y-39640000D02*
X90480500Y-40677900D01*
X158097000Y-37977000D02*
X160040000Y-39920000D01*
X130662000Y-37977000D02*
X158097000Y-37977000D01*
X129966000Y-38673900D02*
X130662000Y-37977000D01*
X109449000Y-38673900D02*
X129966000Y-38673900D01*
X108443000Y-39680000D02*
X109449000Y-38673900D01*
%TO.N,Net-(D69-K)*%
X57291200Y-71657100D02*
X53667700Y-71657100D01*
X57298300Y-71650000D02*
X57291200Y-71657100D01*
X58500000Y-71650000D02*
X57298300Y-71650000D01*
%TO.N,Net-(D68-K)*%
X54174800Y-76650000D02*
X53667700Y-77157100D01*
X58500000Y-76650000D02*
X54174800Y-76650000D01*
%TO.N,Net-(D67-K)*%
X57265400Y-81657100D02*
X53667700Y-81657100D01*
X57298300Y-81690000D02*
X57265400Y-81657100D01*
X58500000Y-81690000D02*
X57298300Y-81690000D01*
%TO.N,Net-(D66-K)*%
X56805400Y-86157100D02*
X53667700Y-86157100D01*
X57298300Y-86650000D02*
X56805400Y-86157100D01*
X58500000Y-86650000D02*
X57298300Y-86650000D01*
%TO.N,BUS_3*%
X58492900Y-89157100D02*
X58500000Y-89150000D01*
X53667700Y-89157100D02*
X58492900Y-89157100D01*
X320841000Y-94760600D02*
X327500000Y-101420000D01*
X314188000Y-94760600D02*
X320841000Y-94760600D01*
X311867000Y-92439900D02*
X314188000Y-94760600D01*
X310550000Y-92439900D02*
X311867000Y-92439900D01*
X309410000Y-91300000D02*
X310550000Y-92439900D01*
X187532000Y-48832300D02*
X183810000Y-45110000D01*
X205197000Y-48832300D02*
X187532000Y-48832300D01*
X266685000Y-87624000D02*
X244189000Y-87624000D01*
X267977000Y-88916500D02*
X266685000Y-87624000D01*
X179994000Y-48925700D02*
X183810000Y-45110000D01*
X167640000Y-48925700D02*
X179994000Y-48925700D01*
X167597000Y-48883000D02*
X167640000Y-48925700D01*
X63361200Y-84288800D02*
X58500000Y-89150000D01*
X138581000Y-84288800D02*
X63361200Y-84288800D01*
X143430000Y-79440000D02*
X138581000Y-84288800D01*
X268379000Y-88514600D02*
X280473000Y-88514600D01*
X267977000Y-88916500D02*
X268379000Y-88514600D01*
X280473000Y-87700900D02*
X280534000Y-87640000D01*
X280473000Y-88514600D02*
X280473000Y-87700900D01*
X280574000Y-88615400D02*
X280473000Y-88514600D01*
X306725000Y-88615400D02*
X280574000Y-88615400D01*
X309410000Y-91300000D02*
X306725000Y-88615400D01*
X205197100Y-48832300D02*
X205197000Y-48832300D01*
X238947100Y-74032300D02*
X238947000Y-74032300D01*
X267977100Y-90323300D02*
X267977100Y-90792300D01*
X267977000Y-90323200D02*
X267977100Y-90323300D01*
X267977000Y-90792300D02*
X267977000Y-90323200D01*
X267977000Y-90323200D02*
X267977000Y-88916500D01*
X221197000Y-64662300D02*
X221197100Y-64662300D01*
X233036000Y-74032300D02*
X238947000Y-74032300D01*
X228231000Y-69227200D02*
X233036000Y-74032300D01*
X225762000Y-69227200D02*
X228231000Y-69227200D01*
X221197100Y-64662300D02*
X225762000Y-69227200D01*
%TO.N,Net-(D65-K)*%
X53580600Y-91690000D02*
X53547700Y-91657100D01*
X58500000Y-91690000D02*
X53580600Y-91690000D01*
%TO.N,BUS_2*%
X321316000Y-97776300D02*
X324960000Y-101420000D01*
X321316000Y-97776200D02*
X321316000Y-97776300D01*
X316636000Y-97776200D02*
X321316000Y-97776200D01*
X311701000Y-92841600D02*
X316636000Y-97776200D01*
X308412000Y-92841600D02*
X311701000Y-92841600D01*
X306870000Y-91300000D02*
X308412000Y-92841600D01*
X280155000Y-89243400D02*
X280155000Y-89116300D01*
X304813000Y-89243400D02*
X306870000Y-91300000D01*
X280155000Y-89243400D02*
X304813000Y-89243400D01*
X168014000Y-64865900D02*
X166580000Y-66300000D01*
X182524000Y-64865900D02*
X168014000Y-64865900D01*
X183073000Y-65415300D02*
X182524000Y-64865900D01*
X185624000Y-65415300D02*
X183073000Y-65415300D01*
X187271000Y-63767900D02*
X185624000Y-65415300D01*
X53674800Y-94150000D02*
X58500000Y-94150000D01*
X53667700Y-94157100D02*
X53674800Y-94150000D01*
X204393000Y-145153000D02*
X205540000Y-146300000D01*
X196569000Y-145153000D02*
X204393000Y-145153000D01*
X140059000Y-85350600D02*
X143430000Y-81980000D01*
X99990100Y-85350600D02*
X140059000Y-85350600D01*
X97623900Y-87716800D02*
X99990100Y-85350600D01*
X77225300Y-87716800D02*
X97623900Y-87716800D01*
X74892700Y-90049400D02*
X77225300Y-87716800D01*
X62600600Y-90049400D02*
X74892700Y-90049400D01*
X58500000Y-94150000D02*
X62600600Y-90049400D01*
X249858000Y-68788800D02*
X280030000Y-68788800D01*
X248425000Y-70222300D02*
X249858000Y-68788800D01*
X240217000Y-70222300D02*
X248425000Y-70222300D01*
X238947000Y-71492300D02*
X240217000Y-70222300D01*
X184417400Y-138357000D02*
X184417100Y-138357300D01*
X185459500Y-138357000D02*
X184417400Y-138357000D01*
X184417000Y-138357000D02*
X185459500Y-138357000D01*
X195356000Y-145153000D02*
X196569000Y-145153000D01*
X192370000Y-142167000D02*
X195356000Y-145153000D01*
X190312000Y-142167000D02*
X192370000Y-142167000D01*
X186502000Y-138357000D02*
X190312000Y-142167000D01*
X185459500Y-138357000D02*
X186502000Y-138357000D01*
X224258000Y-64662300D02*
X223737100Y-64662300D01*
X231088000Y-71492300D02*
X224258000Y-64662300D01*
X238947000Y-71492300D02*
X231088000Y-71492300D01*
X223737100Y-64662300D02*
X223737000Y-64662300D01*
X151697100Y-149871900D02*
X151697100Y-149872300D01*
X152099400Y-149469600D02*
X151697100Y-149871900D01*
X152967000Y-148602000D02*
X152099400Y-149469600D01*
X194729000Y-148602000D02*
X152967000Y-148602000D01*
X196569000Y-146762000D02*
X194729000Y-148602000D01*
X196569000Y-145153000D02*
X196569000Y-146762000D01*
X152099400Y-149469600D02*
X151697000Y-149872000D01*
X238947100Y-71492300D02*
X238947000Y-71492300D01*
X270517000Y-90792300D02*
X270517100Y-90792300D01*
X272066000Y-89243400D02*
X280155000Y-89243400D01*
X270517100Y-90792300D02*
X272066000Y-89243400D01*
%TO.N,Net-(D64-K)*%
X53700600Y-96690000D02*
X53667700Y-96657100D01*
X58500000Y-96690000D02*
X53700600Y-96690000D01*
%TO.N,BUS_1*%
X304515000Y-91300000D02*
X304330000Y-91300000D01*
X307343000Y-94128400D02*
X304515000Y-91300000D01*
X307343000Y-94386700D02*
X307343000Y-94128400D01*
X312158000Y-99202100D02*
X307343000Y-94386700D01*
X320202000Y-99202100D02*
X312158000Y-99202100D01*
X322420000Y-101420000D02*
X320202000Y-99202100D01*
X303077000Y-90046800D02*
X304330000Y-91300000D01*
X280233000Y-90046800D02*
X303077000Y-90046800D01*
X279831000Y-89645100D02*
X280233000Y-90046800D01*
X274204000Y-89645100D02*
X279831000Y-89645100D01*
X273057000Y-90792300D02*
X274204000Y-89645100D01*
X53554800Y-99150000D02*
X58500000Y-99150000D01*
X53547700Y-99157100D02*
X53554800Y-99150000D01*
X139112000Y-88838100D02*
X143430000Y-84520000D01*
X88487400Y-88838100D02*
X139112000Y-88838100D01*
X81875500Y-95450000D02*
X88487400Y-88838100D01*
X62200000Y-95450000D02*
X81875500Y-95450000D01*
X58500000Y-99150000D02*
X62200000Y-95450000D01*
X185863000Y-142117000D02*
X187242000Y-143496000D01*
X178929000Y-142117000D02*
X185863000Y-142117000D01*
X167516000Y-67904500D02*
X147453000Y-67904500D01*
X169120000Y-66300000D02*
X167516000Y-67904500D01*
X170784000Y-67963700D02*
X178979000Y-67963700D01*
X169120000Y-66300000D02*
X170784000Y-67963700D01*
X273057100Y-90792300D02*
X273057000Y-90792300D01*
X230567000Y-68952300D02*
X226277100Y-64662400D01*
X238947000Y-68952300D02*
X230567000Y-68952300D01*
X226277100Y-64662400D02*
X226277000Y-64662300D01*
X226277100Y-64662400D02*
X226277100Y-64662300D01*
X238947100Y-68952300D02*
X238947000Y-68952300D01*
%TO.N,Net-(D63-K)*%
X54134800Y-101690000D02*
X53667700Y-102157000D01*
X58500000Y-101690000D02*
X54134800Y-101690000D01*
X53667700Y-102157100D02*
X53667700Y-102157000D01*
%TO.N,BUS_0*%
X137366000Y-93123800D02*
X143430000Y-87060000D01*
X89847000Y-93123800D02*
X137366000Y-93123800D01*
X84980800Y-97990000D02*
X89847000Y-93123800D01*
X71200900Y-97990000D02*
X84980800Y-97990000D01*
X65040900Y-104150000D02*
X71200900Y-97990000D01*
X58500000Y-104150000D02*
X65040900Y-104150000D01*
X201299000Y-45110000D02*
X191430000Y-45110000D01*
X205197000Y-41212300D02*
X201299000Y-45110000D01*
X227677000Y-63522400D02*
X228817000Y-64662300D01*
X217624000Y-63522400D02*
X227677000Y-63522400D01*
X217222000Y-63120700D02*
X217624000Y-63522400D01*
X214681000Y-63120700D02*
X217222000Y-63120700D01*
X214279000Y-63522400D02*
X214681000Y-63120700D01*
X204626000Y-63522400D02*
X214279000Y-63522400D01*
X202132000Y-66016900D02*
X204626000Y-63522400D01*
X190652000Y-66016900D02*
X202132000Y-66016900D01*
X190652000Y-66017000D02*
X190652000Y-66016900D01*
X190300000Y-66369600D02*
X190652000Y-66017000D01*
X189802000Y-66369600D02*
X190300000Y-66369600D01*
X189449000Y-66017000D02*
X189802000Y-66369600D01*
X187883000Y-66017000D02*
X189449000Y-66017000D01*
X186650000Y-67249400D02*
X187883000Y-66017000D01*
X172609000Y-67249400D02*
X186650000Y-67249400D01*
X171660000Y-66300000D02*
X172609000Y-67249400D01*
X144766000Y-85724100D02*
X143430000Y-87060000D01*
X168622000Y-85724100D02*
X144766000Y-85724100D01*
X168871000Y-85475200D02*
X168622000Y-85724100D01*
X301972000Y-91300000D02*
X301790000Y-91300000D01*
X304402000Y-93730800D02*
X301972000Y-91300000D01*
X304402000Y-93980300D02*
X304402000Y-93730800D01*
X310488000Y-100066000D02*
X304402000Y-93980300D01*
X318526000Y-100066000D02*
X310488000Y-100066000D01*
X319880000Y-101420000D02*
X318526000Y-100066000D01*
X224936000Y-45115900D02*
X226205000Y-46385500D01*
X209101000Y-45115900D02*
X224936000Y-45115900D01*
X205197000Y-41212300D02*
X209101000Y-45115900D01*
X205197100Y-41212300D02*
X205197000Y-41212300D01*
X192037400Y-140897000D02*
X192037100Y-140897300D01*
X192977100Y-140897000D02*
X192037400Y-140897000D01*
X196773000Y-140897000D02*
X192977100Y-140897000D01*
X200517000Y-144641000D02*
X196773000Y-140897000D01*
X208961000Y-144641000D02*
X200517000Y-144641000D01*
X210620000Y-146300000D02*
X208961000Y-144641000D01*
X228817100Y-64662300D02*
X228817000Y-64662300D01*
X238947100Y-66412300D02*
X238947100Y-66412400D01*
X239633000Y-67098500D02*
X238947100Y-66412400D01*
X243489000Y-67098500D02*
X239633000Y-67098500D01*
X238947100Y-66412400D02*
X238947000Y-66412300D01*
X151697100Y-139711900D02*
X151697100Y-139712300D01*
X152099400Y-139309600D02*
X151697100Y-139711900D01*
X152967000Y-138442000D02*
X152099400Y-139309600D01*
X161412000Y-138442000D02*
X152967000Y-138442000D01*
X162662000Y-137193000D02*
X161412000Y-138442000D01*
X188333000Y-137193000D02*
X162662000Y-137193000D01*
X192037000Y-140897000D02*
X188333000Y-137193000D01*
X192977100Y-140897000D02*
X192037000Y-140897000D01*
X152099400Y-139309600D02*
X151697000Y-139712000D01*
%TO.N,Net-(D62-K)*%
X53700600Y-106690000D02*
X53667700Y-106657100D01*
X58500000Y-106690000D02*
X53700600Y-106690000D01*
X53667700Y-106657100D02*
X53667700Y-106657000D01*
%TO.N,Net-(D61-A)*%
X89402600Y-49840000D02*
X89442600Y-49800000D01*
X75447900Y-49840000D02*
X89402600Y-49840000D01*
X108118400Y-49515800D02*
X108118400Y-49515400D01*
X108442600Y-49840000D02*
X108118400Y-49515800D01*
X107358000Y-48755200D02*
X108118400Y-49515400D01*
X90487400Y-48755200D02*
X107358000Y-48755200D01*
X89442600Y-49800000D02*
X90487400Y-48755200D01*
X108118400Y-49515400D02*
X108443000Y-49840000D01*
%TO.N,Net-(D60-A)*%
X109867000Y-88137200D02*
X111452000Y-86552300D01*
X77622800Y-88137200D02*
X109867000Y-88137200D01*
X74120000Y-91640000D02*
X77622800Y-88137200D01*
X108033500Y-52789100D02*
X108033500Y-52789200D01*
X108442600Y-52380000D02*
X108033500Y-52789100D01*
X108443000Y-52380000D02*
X108033500Y-52789200D01*
X90482000Y-53379400D02*
X89442600Y-52340000D01*
X107443000Y-53379400D02*
X90482000Y-53379400D01*
X108033500Y-52789200D02*
X107443000Y-53379400D01*
X111452100Y-86552300D02*
X111452000Y-86552300D01*
%TO.N,Net-(D59-A)*%
X77195000Y-86974400D02*
X91331400Y-86974400D01*
X75069400Y-89100000D02*
X77195000Y-86974400D01*
X74120000Y-89100000D02*
X75069400Y-89100000D01*
%TO.N,Net-(D55-K)*%
X91388100Y-99260000D02*
X81740000Y-99260000D01*
X95680400Y-103552000D02*
X91388100Y-99260000D01*
X96882100Y-103552000D02*
X95680400Y-103552000D01*
X96882100Y-103552300D02*
X96882100Y-103552000D01*
%TO.N,Net-(D53-A)*%
X132416000Y-41175900D02*
X132792000Y-41552300D01*
X110901000Y-41175900D02*
X132416000Y-41175900D01*
X109972000Y-42104200D02*
X110901000Y-41175900D01*
X132792100Y-41552300D02*
X132792000Y-41552300D01*
%TO.N,Net-(D52-A)*%
X119559000Y-60000000D02*
X108443000Y-60000000D01*
X120703000Y-58855900D02*
X119559000Y-60000000D01*
X128252000Y-58855900D02*
X120703000Y-58855900D01*
X128819000Y-58289600D02*
X128252000Y-58855900D01*
X135102000Y-58289600D02*
X128819000Y-58289600D01*
X108442600Y-60000000D02*
X108443000Y-60000000D01*
%TO.N,CE*%
X160536000Y-65336200D02*
X161500000Y-66300000D01*
X151690000Y-65336200D02*
X160536000Y-65336200D01*
X151559000Y-65468100D02*
X151690000Y-65336200D01*
X124388000Y-65468100D02*
X151559000Y-65468100D01*
X124000000Y-65080000D02*
X124388000Y-65468100D01*
X119604000Y-69476400D02*
X106085000Y-69476400D01*
X124000000Y-65080000D02*
X119604000Y-69476400D01*
X124000100Y-65080000D02*
X124000000Y-65080000D01*
%TO.N,SU*%
X277424000Y-72720000D02*
X285044000Y-72720000D01*
X277424000Y-80340000D02*
X285044000Y-80340000D01*
X124000000Y-57460000D02*
X124000000Y-57877900D01*
X123589000Y-58289400D02*
X120502000Y-58289400D01*
X124000000Y-57877900D02*
X123589000Y-58289400D01*
X97560000Y-58455700D02*
X97325800Y-58221500D01*
X120335000Y-58455700D02*
X97560000Y-58455700D01*
X120502000Y-58289400D02*
X120335000Y-58455700D01*
X120502000Y-58289400D02*
X120335000Y-58455700D01*
X286586000Y-59776400D02*
X287720000Y-60910000D01*
X284098000Y-59776400D02*
X286586000Y-59776400D01*
X281253000Y-56931700D02*
X284098000Y-59776400D01*
X276484000Y-56931700D02*
X281253000Y-56931700D01*
X276274000Y-56721700D02*
X276484000Y-56931700D01*
X274549000Y-56721700D02*
X276274000Y-56721700D01*
X274063000Y-57207700D02*
X274549000Y-56721700D01*
X255168000Y-57207700D02*
X274063000Y-57207700D01*
X253398000Y-58977900D02*
X255168000Y-57207700D01*
X247926000Y-58977900D02*
X253398000Y-58977900D01*
X247759000Y-59144200D02*
X247926000Y-58977900D01*
X247759000Y-59144200D02*
X247926000Y-58977900D01*
X247524000Y-59379600D02*
X247759000Y-59144200D01*
X144293000Y-59379600D02*
X247524000Y-59379600D01*
X142791000Y-57877900D02*
X144293000Y-59379600D01*
X135542000Y-57877900D02*
X142791000Y-57877900D01*
X135352000Y-57687900D02*
X135542000Y-57877900D01*
X134853000Y-57687900D02*
X135352000Y-57687900D01*
X134663000Y-57877900D02*
X134853000Y-57687900D01*
X124000000Y-57877900D02*
X134663000Y-57877900D01*
X124000100Y-57460000D02*
X124000000Y-57460000D01*
X285044200Y-72720000D02*
X285044000Y-72720000D01*
X285044200Y-80340000D02*
X285044000Y-80340000D01*
%TO.N,Net-(D46-A)*%
X123365100Y-55555000D02*
X124000100Y-54920000D01*
X123365000Y-55555000D02*
X123365100Y-55555000D01*
X122730000Y-56190000D02*
X123365000Y-55555000D01*
X93499100Y-56190000D02*
X122730000Y-56190000D01*
X91480800Y-58208300D02*
X93499100Y-56190000D01*
X123365000Y-55555000D02*
X124000000Y-54920000D01*
%TO.N,Net-(D45-A)*%
X227508000Y-123229000D02*
X227663000Y-123074000D01*
X227508000Y-123229000D02*
X227663000Y-123074000D01*
X229184000Y-123074000D02*
X234233000Y-118025000D01*
X227663000Y-123074000D02*
X229184000Y-123074000D01*
X227118000Y-122839000D02*
X227508000Y-123229000D01*
X193884000Y-122839000D02*
X227118000Y-122839000D01*
X193779000Y-122734000D02*
X193884000Y-122839000D01*
X147500000Y-122734000D02*
X193779000Y-122734000D01*
X145118000Y-120352000D02*
X147500000Y-122734000D01*
X122552000Y-120352000D02*
X145118000Y-120352000D01*
X121749000Y-121155000D02*
X122552000Y-120352000D01*
X81074300Y-121155000D02*
X121749000Y-121155000D01*
X79817100Y-122412000D02*
X81074300Y-121155000D01*
X234233200Y-118025000D02*
X234233000Y-118025000D01*
X79817100Y-122412300D02*
X79817100Y-122412000D01*
%TO.N,Net-(D44-A)*%
X233604700Y-113573500D02*
X234233200Y-112945000D01*
X233604500Y-113573500D02*
X233604700Y-113573500D01*
X232976000Y-114202000D02*
X233604500Y-113573500D01*
X218256000Y-114202000D02*
X232976000Y-114202000D01*
X217989000Y-113935000D02*
X218256000Y-114202000D01*
X203491000Y-113935000D02*
X217989000Y-113935000D01*
X203425000Y-114000000D02*
X203491000Y-113935000D01*
X201173000Y-114000000D02*
X203425000Y-114000000D01*
X199924000Y-112751000D02*
X201173000Y-114000000D01*
X79003200Y-112751000D02*
X199924000Y-112751000D01*
X76076900Y-115678000D02*
X79003200Y-112751000D01*
X233604500Y-113573500D02*
X234233000Y-112945000D01*
%TO.N,Net-(D43-A)*%
X88305400Y-103212000D02*
X74665000Y-103212000D01*
X92379800Y-107287000D02*
X88305400Y-103212000D01*
X142301000Y-107287000D02*
X92379800Y-107287000D01*
X142687000Y-107673000D02*
X142301000Y-107287000D01*
X197146000Y-107673000D02*
X142687000Y-107673000D01*
X197936000Y-106884000D02*
X197146000Y-107673000D01*
X232684000Y-106884000D02*
X197936000Y-106884000D01*
X233665000Y-107865000D02*
X232684000Y-106884000D01*
X234233000Y-107865000D02*
X233665000Y-107865000D01*
X234233200Y-107865000D02*
X234233000Y-107865000D01*
%TO.N,Net-(D42-A)*%
X66536800Y-120643000D02*
X64767100Y-122412000D01*
X101319000Y-120643000D02*
X66536800Y-120643000D01*
X101999000Y-119963000D02*
X101319000Y-120643000D01*
X226613000Y-116426000D02*
X226613000Y-115485000D01*
X223636000Y-119404000D02*
X226613000Y-116426000D01*
X194228000Y-119404000D02*
X223636000Y-119404000D01*
X193870000Y-119762000D02*
X194228000Y-119404000D01*
X189705000Y-119762000D02*
X193870000Y-119762000D01*
X185250000Y-115306000D02*
X189705000Y-119762000D01*
X125752000Y-115306000D02*
X185250000Y-115306000D01*
X121107000Y-119952000D02*
X125752000Y-115306000D01*
X102010000Y-119952000D02*
X121107000Y-119952000D01*
X101999000Y-119963000D02*
X102010000Y-119952000D01*
X64767100Y-122412300D02*
X64767100Y-122412000D01*
X226613200Y-115485000D02*
X226613000Y-115485000D01*
%TO.N,Net-(D41-A)*%
X62138600Y-120041000D02*
X95372200Y-120041000D01*
X59767100Y-122412000D02*
X62138600Y-120041000D01*
X105000100Y-62499900D02*
X105000100Y-62500000D01*
X105615000Y-61885000D02*
X105000100Y-62499900D01*
X106230000Y-61270000D02*
X105615000Y-61885000D01*
X120668000Y-61270000D02*
X106230000Y-61270000D01*
X121303000Y-60635000D02*
X120668000Y-61270000D01*
X105615000Y-61885000D02*
X105000000Y-62500000D01*
X59767100Y-122412300D02*
X59767100Y-122412000D01*
%TO.N,RI*%
X103730000Y-61230000D02*
X105000000Y-59960000D01*
X64046700Y-61230000D02*
X103730000Y-61230000D01*
X58362200Y-66914500D02*
X64046700Y-61230000D01*
X56247700Y-108675000D02*
X56026900Y-108896000D01*
X121285000Y-108675000D02*
X56247700Y-108675000D01*
X122286000Y-109676000D02*
X121285000Y-108675000D01*
X138650000Y-109676000D02*
X122286000Y-109676000D01*
X139236000Y-109090000D02*
X138650000Y-109676000D01*
X139913000Y-109090000D02*
X139236000Y-109090000D01*
X141314000Y-107688000D02*
X139913000Y-109090000D01*
X142134000Y-107688000D02*
X141314000Y-107688000D01*
X142543000Y-108097000D02*
X142134000Y-107688000D01*
X205229000Y-108097000D02*
X142543000Y-108097000D01*
X205345500Y-107981000D02*
X205229000Y-108097000D01*
X205345600Y-107981000D02*
X205461600Y-107865000D01*
X205345500Y-107981000D02*
X205345600Y-107981000D01*
X205462000Y-107865000D02*
X205345500Y-107981000D01*
X105000100Y-59960000D02*
X105000000Y-59960000D01*
%TO.N,Net-(D39-A)*%
X107408000Y-38154200D02*
X107408000Y-38154300D01*
X125081000Y-38154200D02*
X107408000Y-38154200D01*
X131843000Y-31392300D02*
X125081000Y-38154200D01*
X132792000Y-31392300D02*
X131843000Y-31392300D01*
X132792100Y-31392300D02*
X132792000Y-31392300D01*
%TO.N,HLT*%
X106622000Y-54880000D02*
X105000100Y-54880000D01*
X108104000Y-53398500D02*
X106622000Y-54880000D01*
X156033000Y-53398500D02*
X108104000Y-53398500D01*
X161211000Y-58576200D02*
X156033000Y-53398500D01*
X246976000Y-58576200D02*
X161211000Y-58576200D01*
X247943000Y-57609100D02*
X246976000Y-58576200D01*
X250154000Y-57609100D02*
X247943000Y-57609100D01*
X56757200Y-53870300D02*
X55365000Y-55262500D01*
X103990000Y-53870300D02*
X56757200Y-53870300D01*
X105000000Y-54880000D02*
X103990000Y-53870300D01*
X105000100Y-54880000D02*
X105000000Y-54880000D01*
%TO.N,Net-(D34-A)*%
X157930000Y-81980000D02*
X151050000Y-81980000D01*
X160490000Y-79420000D02*
X157930000Y-81980000D01*
%TO.N,Net-(D29-A)*%
X199670000Y-152170000D02*
X197920000Y-153920000D01*
X219960000Y-152170000D02*
X199670000Y-152170000D01*
X220699000Y-152910000D02*
X219960000Y-152170000D01*
%TO.N,Net-(D27-A)*%
X214008000Y-152735000D02*
X214066000Y-152793000D01*
X199961000Y-152735000D02*
X214008000Y-152735000D01*
X199320000Y-153376000D02*
X199961000Y-152735000D01*
X199320000Y-154132000D02*
X199320000Y-153376000D01*
X198370000Y-155083000D02*
X199320000Y-154132000D01*
X194003000Y-155083000D02*
X198370000Y-155083000D01*
X192840000Y-153920000D02*
X194003000Y-155083000D01*
%TO.N,/ALU/B_2*%
X302824000Y-87536800D02*
X295115000Y-87536800D01*
X306681000Y-83680000D02*
X302824000Y-87536800D01*
X306870000Y-83680000D02*
X306681000Y-83680000D01*
%TO.N,/ALU/B_3*%
X313542000Y-82378000D02*
X317000000Y-78920000D01*
X305632000Y-82378000D02*
X313542000Y-82378000D01*
X304330000Y-83680000D02*
X305632000Y-82378000D01*
%TO.N,Net-(D26-A)*%
X193022000Y-151198000D02*
X190300000Y-153920000D01*
X212969000Y-151198000D02*
X193022000Y-151198000D01*
%TO.N,Net-(D25-K)*%
X257000000Y-21948300D02*
X257000000Y-23500000D01*
X256483000Y-21431700D02*
X257000000Y-21948300D01*
X251604000Y-21431700D02*
X256483000Y-21431700D01*
X249912000Y-23124500D02*
X251604000Y-21431700D01*
X249912000Y-23500000D02*
X249912000Y-23124500D01*
X248710000Y-23500000D02*
X249912000Y-23500000D01*
%TO.N,/ALU/B_5*%
X315578000Y-87671700D02*
X304288000Y-87671700D01*
X319570000Y-83680000D02*
X315578000Y-87671700D01*
X303813000Y-88146600D02*
X304288000Y-87671700D01*
X283661000Y-88146600D02*
X303813000Y-88146600D01*
X283152000Y-87637700D02*
X283661000Y-88146600D01*
%TO.N,/ALU/B_6*%
X319104000Y-81605700D02*
X317030000Y-83680000D01*
X329314000Y-81605700D02*
X319104000Y-81605700D01*
X332040000Y-78880000D02*
X329314000Y-81605700D01*
X315186000Y-85524300D02*
X317030000Y-83680000D01*
X305687000Y-85524300D02*
X315186000Y-85524300D01*
X285044000Y-75260000D02*
X285044200Y-75260000D01*
X301041000Y-75260000D02*
X301869000Y-76088000D01*
X285044200Y-75260000D02*
X301041000Y-75260000D01*
%TO.N,/MAR/A0*%
X241468000Y-108910000D02*
X242202000Y-108176000D01*
X192402000Y-108910000D02*
X241468000Y-108910000D01*
X190777000Y-110535000D02*
X192402000Y-108910000D01*
%TO.N,/MAR/A1*%
X194911000Y-114210000D02*
X200156000Y-114210000D01*
X194133000Y-113432000D02*
X194911000Y-114210000D01*
%TO.N,/MAR/A3*%
X202065000Y-117601000D02*
X194234000Y-117601000D01*
X202772000Y-116895000D02*
X202065000Y-117601000D01*
X224937100Y-42332300D02*
X224937000Y-42332300D01*
X211886000Y-42802900D02*
X210862000Y-43827100D01*
X218047000Y-42802900D02*
X211886000Y-42802900D01*
X218778000Y-43534000D02*
X218047000Y-42802900D01*
X223735000Y-43534000D02*
X218778000Y-43534000D01*
X224937000Y-42332300D02*
X223735000Y-43534000D01*
%TO.N,Net-(D18-A)*%
X279257000Y-103852200D02*
X279257000Y-103852000D01*
X279257100Y-103852300D02*
X279257000Y-103852200D01*
X270517000Y-98412300D02*
X270517100Y-98412300D01*
X277451000Y-102046000D02*
X279257000Y-103852000D01*
X274151000Y-102046000D02*
X277451000Y-102046000D01*
X270517100Y-98412300D02*
X274151000Y-102046000D01*
%TO.N,Net-(D17-A)*%
X274468400Y-82880000D02*
X274468200Y-82879800D01*
X275943000Y-81405700D02*
X274468200Y-82879800D01*
X298281000Y-81405700D02*
X275943000Y-81405700D01*
X274468200Y-82879800D02*
X274468000Y-82880000D01*
%TO.N,Net-(D16-A)*%
X271657000Y-85420000D02*
X271057000Y-84820800D01*
X274468000Y-85420000D02*
X271657000Y-85420000D01*
X274468400Y-85420000D02*
X274468000Y-85420000D01*
%TO.N,CF*%
X246888000Y-55502700D02*
X245991000Y-56400500D01*
X260417000Y-55502700D02*
X246888000Y-55502700D01*
X262000000Y-53920000D02*
X260417000Y-55502700D01*
X245991000Y-56400500D02*
X245826000Y-56565300D01*
X245991000Y-56400500D02*
X245826000Y-56565300D01*
X159934000Y-50590700D02*
X126499000Y-50590700D01*
X160335000Y-50992400D02*
X159934000Y-50590700D01*
X160903000Y-50992400D02*
X160335000Y-50992400D01*
X164950000Y-55039100D02*
X160903000Y-50992400D01*
X164950000Y-55796600D02*
X164950000Y-55039100D01*
X165783000Y-56629400D02*
X164950000Y-55796600D01*
X245762000Y-56629400D02*
X165783000Y-56629400D01*
X245826000Y-56565300D02*
X245762000Y-56629400D01*
%TO.N,Net-(D14-K)*%
X256810000Y-53920000D02*
X256750000Y-53980000D01*
X259460000Y-53920000D02*
X256810000Y-53920000D01*
%TO.N,Net-(D12-A)*%
X266848400Y-75259600D02*
X266848400Y-75260000D01*
X267483000Y-74625000D02*
X266848400Y-75259600D01*
X268118000Y-73990000D02*
X267483000Y-74625000D01*
X281868000Y-73990000D02*
X268118000Y-73990000D01*
X282503000Y-73355000D02*
X281868000Y-73990000D01*
X282678000Y-73355000D02*
X282503000Y-73355000D01*
X267483000Y-74625000D02*
X266848000Y-75260000D01*
%TO.N,Net-(D10-K)*%
X256880000Y-58420000D02*
X256750000Y-58550000D01*
X259460000Y-58420000D02*
X256880000Y-58420000D01*
%TO.N,ZF*%
X124602000Y-42822300D02*
X124000000Y-42220000D01*
X188262000Y-42822300D02*
X124602000Y-42822300D01*
X190160000Y-44720700D02*
X188262000Y-42822300D01*
X190160000Y-45469800D02*
X190160000Y-44720700D01*
X192252000Y-47562300D02*
X190160000Y-45469800D01*
X220775000Y-47562300D02*
X192252000Y-47562300D01*
X222236000Y-49023700D02*
X220775000Y-47562300D01*
X261894000Y-49023700D02*
X222236000Y-49023700D01*
X266160000Y-53290000D02*
X261894000Y-49023700D01*
X124000100Y-42220000D02*
X124000000Y-42220000D01*
%TO.N,/ALU/A_1*%
X221197000Y-73312300D02*
X221197000Y-72282300D01*
X229047000Y-81162300D02*
X221197000Y-73312300D01*
X221197100Y-72282300D02*
X221197000Y-72282300D01*
X229047100Y-81162300D02*
X229047000Y-81162300D01*
X246567000Y-68952300D02*
X246567100Y-68952300D01*
X250585000Y-64934500D02*
X286874000Y-64934500D01*
X246567100Y-68952300D02*
X250585000Y-64934500D01*
%TO.N,/ALU/A_2*%
X249791300Y-67689500D02*
X248036400Y-69444400D01*
X290732100Y-67689500D02*
X249791300Y-67689500D01*
X291323100Y-67098500D02*
X290732100Y-67689500D01*
X248036400Y-69444400D02*
X248034700Y-69444400D01*
%TO.N,/ALU/A_3*%
X246567000Y-74032300D02*
X246567100Y-74032300D01*
X288695000Y-73848400D02*
X292704000Y-69839500D01*
X284973000Y-73848400D02*
X288695000Y-73848400D01*
X282553000Y-76268400D02*
X284973000Y-73848400D01*
X264538000Y-76268400D02*
X282553000Y-76268400D01*
X262302000Y-74032300D02*
X264538000Y-76268400D01*
X246567100Y-74032300D02*
X262302000Y-74032300D01*
%TO.N,/ALU/A_5*%
X211037100Y-72282300D02*
X211037000Y-72282300D01*
X196627000Y-69512300D02*
X196627100Y-69512300D01*
X208267000Y-69512300D02*
X211037000Y-72282300D01*
X196627100Y-69512300D02*
X208267000Y-69512300D01*
%TO.N,/ALU/A_6*%
X212887000Y-72282300D02*
X213577000Y-72282300D01*
X209767000Y-75402200D02*
X212887000Y-72282300D01*
X216520000Y-57221100D02*
X216182000Y-57559400D01*
X245938000Y-57221100D02*
X216520000Y-57221100D01*
X246724000Y-56435100D02*
X245938000Y-57221100D01*
X261960000Y-56435100D02*
X246724000Y-56435100D01*
X263735000Y-54660000D02*
X261960000Y-56435100D01*
X267446000Y-54660000D02*
X263735000Y-54660000D01*
X270254000Y-51851700D02*
X267446000Y-54660000D01*
X283458000Y-51851700D02*
X270254000Y-51851700D01*
X284560000Y-50750000D02*
X283458000Y-51851700D01*
X204007100Y-81162300D02*
X204007000Y-81162300D01*
X209767000Y-75402200D02*
X204777000Y-80392200D01*
X204007000Y-81162200D02*
X204007000Y-81162300D01*
X204777000Y-80392200D02*
X204007000Y-81162200D01*
X204007000Y-81162300D02*
X204777000Y-80392200D01*
X213577100Y-72282300D02*
X213577000Y-72282300D01*
X196627000Y-72052300D02*
X196627100Y-72052300D01*
X209767000Y-71874100D02*
X209767000Y-75402200D01*
X209035000Y-71142400D02*
X209767000Y-71874100D01*
X197537000Y-71142400D02*
X209035000Y-71142400D01*
X196627100Y-72052300D02*
X197537000Y-71142400D01*
%TO.N,Net-(U31-THR)*%
X145172000Y-130202000D02*
X126033000Y-130202000D01*
X150995000Y-124379000D02*
X145172000Y-130202000D01*
X155666000Y-124379000D02*
X150995000Y-124379000D01*
X155666100Y-124379100D02*
X155666000Y-124379000D01*
X155666400Y-124379100D02*
X155666100Y-124379100D01*
%TO.N,CLK*%
X265000000Y-128404000D02*
X265000000Y-128580000D01*
X260824000Y-128404000D02*
X260750000Y-128330000D01*
X265000000Y-128404000D02*
X260824000Y-128404000D01*
X293782000Y-95777600D02*
X295630000Y-93930000D01*
X281241000Y-95777600D02*
X293782000Y-95777600D01*
X249529000Y-60910000D02*
X266160000Y-60910000D01*
X246567000Y-63872300D02*
X249529000Y-60910000D01*
X279612000Y-64151600D02*
X282076000Y-64151600D01*
X277498000Y-62038400D02*
X279612000Y-64151600D01*
X267288000Y-62038400D02*
X277498000Y-62038400D01*
X266160000Y-60910000D02*
X267288000Y-62038400D01*
X274196800Y-128227000D02*
X274197100Y-128227300D01*
X269948500Y-128227000D02*
X274196800Y-128227000D01*
X274197000Y-128227000D02*
X269948500Y-128227000D01*
X265176000Y-128227000D02*
X265000000Y-128404000D01*
X269948500Y-128227000D02*
X265176000Y-128227000D01*
X246567100Y-63872300D02*
X246567000Y-63872300D01*
X202947000Y-64432300D02*
X196627100Y-64432300D01*
X204258000Y-63120700D02*
X202947000Y-64432300D01*
X214113000Y-63120700D02*
X204258000Y-63120700D01*
X214515000Y-62719000D02*
X214113000Y-63120700D01*
X217517000Y-62719000D02*
X214515000Y-62719000D01*
X217919000Y-63120700D02*
X217517000Y-62719000D01*
X231403000Y-63120700D02*
X217919000Y-63120700D01*
X233107000Y-64824800D02*
X231403000Y-63120700D01*
X245615000Y-64824800D02*
X233107000Y-64824800D01*
X246567000Y-63872300D02*
X245615000Y-64824800D01*
X175180000Y-65319700D02*
X174200000Y-66300000D01*
X182252000Y-65319700D02*
X175180000Y-65319700D01*
X182750000Y-65817000D02*
X182252000Y-65319700D01*
X187315000Y-65817000D02*
X182750000Y-65817000D01*
X187717000Y-65415300D02*
X187315000Y-65817000D01*
X189552000Y-65415300D02*
X187717000Y-65415300D01*
X190535000Y-64432300D02*
X189552000Y-65415300D01*
X196627100Y-64432300D02*
X190535000Y-64432300D01*
X212817000Y-38672300D02*
X212817100Y-38672300D01*
X268594000Y-38826100D02*
X269000000Y-38420000D01*
X212971000Y-38826100D02*
X268594000Y-38826100D01*
X212817100Y-38672300D02*
X212971000Y-38826100D01*
%TO.N,Net-(C14-Pad2)*%
X206411000Y-105325000D02*
X205462000Y-105325000D01*
X207360000Y-106274000D02*
X206411000Y-105325000D01*
X232784000Y-106274000D02*
X207360000Y-106274000D01*
X233252000Y-106742000D02*
X232784000Y-106274000D01*
X263111000Y-106742000D02*
X233252000Y-106742000D01*
X205461600Y-105325000D02*
X205462000Y-105325000D01*
%TO.N,BUS_5*%
X139302000Y-79150000D02*
X58500000Y-79150000D01*
X142729000Y-75722100D02*
X139302000Y-79150000D01*
X161162000Y-75722100D02*
X142729000Y-75722100D01*
X162218000Y-76778700D02*
X161162000Y-75722100D01*
X188462000Y-70057500D02*
X189007000Y-69512300D01*
X162243000Y-70057500D02*
X188462000Y-70057500D01*
X281319000Y-96706200D02*
X304115000Y-96706200D01*
X277261000Y-92648500D02*
X281319000Y-96706200D01*
X264753000Y-92648500D02*
X277261000Y-92648500D01*
X264753000Y-92648400D02*
X264753000Y-92648500D01*
X262897000Y-90792300D02*
X264753000Y-92648400D01*
X217807000Y-87876600D02*
X211547000Y-87876600D01*
X177053000Y-43433300D02*
X178730000Y-45110000D01*
X165746000Y-43433300D02*
X177053000Y-43433300D01*
X213290000Y-132970000D02*
X213597000Y-133277000D01*
X207837000Y-132970000D02*
X213290000Y-132970000D01*
X262897100Y-90792300D02*
X262897000Y-90792300D01*
X219121000Y-89190400D02*
X217807000Y-87876600D01*
X261295000Y-89190400D02*
X219121000Y-89190400D01*
X262897000Y-90792300D02*
X261295000Y-89190400D01*
X189007100Y-69512300D02*
X189007000Y-69512300D01*
X213597100Y-133277100D02*
X213597000Y-133277000D01*
X213597100Y-133277300D02*
X213597100Y-133277100D01*
X159317400Y-149872000D02*
X159317100Y-149872300D01*
X159786200Y-149872000D02*
X159317400Y-149872000D01*
X159317000Y-149872000D02*
X159786200Y-149872000D01*
X194348000Y-149872000D02*
X197920000Y-146300000D01*
X159786200Y-149872000D02*
X194348000Y-149872000D01*
X212255000Y-68524700D02*
X216117000Y-64662300D01*
X189995000Y-68524700D02*
X212255000Y-68524700D01*
X189007000Y-69512300D02*
X189995000Y-68524700D01*
X216117100Y-64662300D02*
X216117000Y-64662300D01*
%TO.N,Net-(U1-THR)*%
X298687000Y-117366000D02*
X296276000Y-119777000D01*
X306726000Y-117366000D02*
X298687000Y-117366000D01*
X315092000Y-109000000D02*
X306726000Y-117366000D01*
X320775000Y-109000000D02*
X315092000Y-109000000D01*
%TO.N,Net-(U2-DIS)*%
X278191800Y-149787000D02*
X278067100Y-149662300D01*
X278192000Y-149787000D02*
X278191800Y-149787000D01*
X278192000Y-149787000D02*
X278067000Y-149662000D01*
X282066800Y-149912000D02*
X282067100Y-149912300D01*
X280192000Y-149912000D02*
X282066800Y-149912000D01*
X282067000Y-149912000D02*
X280192000Y-149912000D01*
X278317000Y-149912000D02*
X278192000Y-149787000D01*
X280192000Y-149912000D02*
X278317000Y-149912000D01*
%TO.N,GND*%
X163990000Y-91790000D02*
X157990000Y-91790000D01*
X205120000Y-173920000D02*
X200620000Y-173920000D01*
X319460000Y-65050000D02*
X314460000Y-65050000D01*
X247477000Y-117162000D02*
X247417000Y-117222000D01*
X252167000Y-117162000D02*
X247477000Y-117162000D01*
X162500000Y-27300000D02*
X157500000Y-27300000D01*
X24320000Y-106350000D02*
X20520000Y-106350000D01*
X177500000Y-27300000D02*
X182500000Y-27300000D01*
X167500000Y-27300000D02*
X162500000Y-27300000D01*
X182630000Y-27170000D02*
X182500000Y-27300000D01*
X187500000Y-27170000D02*
X182630000Y-27170000D01*
X206567000Y-93282300D02*
X201567000Y-93282300D01*
X20520000Y-114990000D02*
X24320000Y-114990000D01*
X216567000Y-93282300D02*
X211567000Y-93282300D01*
X172500000Y-27300000D02*
X167500000Y-27300000D01*
X114912000Y-73932300D02*
X108912000Y-73932300D01*
X170240000Y-91790000D02*
X175990000Y-91790000D01*
X67317100Y-109792000D02*
X62317100Y-109792000D01*
X201966000Y-54861700D02*
X201817000Y-54712300D01*
X210918000Y-54861700D02*
X201966000Y-54861700D01*
X211868000Y-53912300D02*
X210918000Y-54861700D01*
X212817000Y-53912300D02*
X211868000Y-53912300D01*
X252167000Y-117162200D02*
X252167000Y-117162000D01*
X252167100Y-117162300D02*
X252167000Y-117162200D01*
X236817100Y-93532300D02*
X236817000Y-93532300D01*
X82317100Y-109792300D02*
X87317100Y-109792300D01*
X247417000Y-117222200D02*
X247417000Y-117222000D01*
X247417100Y-117222300D02*
X247417000Y-117222200D01*
X102317300Y-109792300D02*
X102317100Y-109792300D01*
X102377000Y-109852000D02*
X102317300Y-109792300D01*
X234397100Y-54892300D02*
X234397000Y-54892300D01*
X114912100Y-73932300D02*
X114912000Y-73932300D01*
X52316800Y-109792000D02*
X52317100Y-109792300D01*
X49817100Y-109792000D02*
X52316800Y-109792000D01*
X52317100Y-109792000D02*
X49817100Y-109792000D01*
X276917000Y-117352200D02*
X276917000Y-117352000D01*
X276917100Y-117352300D02*
X276917000Y-117352200D01*
X67317100Y-109792300D02*
X67317100Y-109792000D01*
X281916800Y-117222000D02*
X281917100Y-117222300D01*
X281467100Y-117222000D02*
X281916800Y-117222000D01*
X281917000Y-117222000D02*
X281467100Y-117222000D01*
X277047000Y-117222000D02*
X276917000Y-117352000D01*
X281467100Y-117222000D02*
X277047000Y-117222000D01*
X257166800Y-117162000D02*
X257167100Y-117162300D01*
X256717100Y-117162000D02*
X257166800Y-117162000D01*
X257167000Y-117162000D02*
X256717100Y-117162000D01*
X256717100Y-117162000D02*
X252167000Y-117162000D01*
X62317100Y-109792300D02*
X62317100Y-109792000D01*
X47317400Y-109792000D02*
X47317100Y-109792300D01*
X47767100Y-109792000D02*
X47317400Y-109792000D01*
X49817100Y-109792000D02*
X47767100Y-109792000D01*
X47767100Y-109792000D02*
X47317100Y-109792000D01*
X201817100Y-54712300D02*
X201817000Y-54712300D01*
X221567000Y-93282300D02*
X226567100Y-93282300D01*
X228647100Y-54952200D02*
X228647100Y-54952300D01*
X228677000Y-54922300D02*
X228647100Y-54952200D01*
X228707000Y-54892300D02*
X228677000Y-54922300D01*
X234397000Y-54892300D02*
X228707000Y-54892300D01*
X228677000Y-54922300D02*
X228647000Y-54952300D01*
X117757400Y-109852000D02*
X117817100Y-109792300D01*
X117757000Y-109852000D02*
X117757400Y-109852000D01*
X117817000Y-109792000D02*
X117757000Y-109852000D01*
X97817400Y-109792000D02*
X97817100Y-109792300D01*
X98267100Y-109792000D02*
X97817400Y-109792000D01*
X102317000Y-109792000D02*
X98267100Y-109792000D01*
X102377000Y-109852000D02*
X102317000Y-109792000D01*
X98267100Y-109792000D02*
X97817100Y-109792000D01*
X107817100Y-109912300D02*
X107817100Y-109912000D01*
X262167100Y-117162300D02*
X257167100Y-117162300D01*
X112817100Y-109912300D02*
X112817100Y-109912000D01*
X117697000Y-109912000D02*
X112817100Y-109912000D01*
X117757000Y-109852000D02*
X117697000Y-109912000D01*
X112817100Y-109912000D02*
X107817100Y-109912000D01*
X102437000Y-109912000D02*
X102377000Y-109852000D01*
X107817100Y-109912000D02*
X102437000Y-109912000D01*
X231567000Y-93282300D02*
X231567100Y-93282300D01*
X226567100Y-93282300D02*
X231567000Y-93282300D01*
X231817000Y-93532300D02*
X236817000Y-93532300D01*
X231567100Y-93282300D02*
X231817000Y-93532300D01*
%TD*%
M02*
