%TF.GenerationSoftware,KiCad,Pcbnew,9.0.4-1.fc42app3*%
%TF.CreationDate,2025-11-07T21:17:37-06:00*%
%TF.ProjectId,8-Bit-PC,382d4269-742d-4504-932e-6b696361645f,1*%
%TF.SameCoordinates,Original*%
%TF.FileFunction,Copper,L1,Top*%
%TF.FilePolarity,Positive*%
%FSLAX46Y46*%
G04 Gerber Fmt 4.6, Leading zero omitted, Abs format (unit mm)*
G04 Created by KiCad (PCBNEW 9.0.4-1.fc42app3) date 2025-11-07 21:17:37*
%MOMM*%
%LPD*%
G01*
G04 APERTURE LIST*
G04 Aperture macros list*
%AMRoundRect*
0 Rectangle with rounded corners*
0 $1 Rounding radius*
0 $2 $3 $4 $5 $6 $7 $8 $9 X,Y pos of 4 corners*
0 Add a 4 corners polygon primitive as box body*
4,1,4,$2,$3,$4,$5,$6,$7,$8,$9,$2,$3,0*
0 Add four circle primitives for the rounded corners*
1,1,$1+$1,$2,$3*
1,1,$1+$1,$4,$5*
1,1,$1+$1,$6,$7*
1,1,$1+$1,$8,$9*
0 Add four rect primitives between the rounded corners*
20,1,$1+$1,$2,$3,$4,$5,0*
20,1,$1+$1,$4,$5,$6,$7,0*
20,1,$1+$1,$6,$7,$8,$9,0*
20,1,$1+$1,$8,$9,$2,$3,0*%
G04 Aperture macros list end*
%TA.AperFunction,ComponentPad*%
%ADD10RoundRect,0.250000X-0.550000X-0.550000X0.550000X-0.550000X0.550000X0.550000X-0.550000X0.550000X0*%
%TD*%
%TA.AperFunction,ComponentPad*%
%ADD11C,1.600000*%
%TD*%
%TA.AperFunction,ComponentPad*%
%ADD12C,1.200000*%
%TD*%
%TA.AperFunction,ComponentPad*%
%ADD13C,1.295400*%
%TD*%
%TA.AperFunction,ComponentPad*%
%ADD14R,1.295400X1.295400*%
%TD*%
%TA.AperFunction,ComponentPad*%
%ADD15C,1.800000*%
%TD*%
%TA.AperFunction,ComponentPad*%
%ADD16R,1.800000X1.800000*%
%TD*%
%TA.AperFunction,ComponentPad*%
%ADD17C,1.378000*%
%TD*%
%TA.AperFunction,ComponentPad*%
%ADD18R,1.378000X1.378000*%
%TD*%
%TA.AperFunction,ComponentPad*%
%ADD19C,2.000000*%
%TD*%
%TA.AperFunction,ComponentPad*%
%ADD20R,1.600000X1.600000*%
%TD*%
%TA.AperFunction,ComponentPad*%
%ADD21RoundRect,0.250000X0.550000X0.550000X-0.550000X0.550000X-0.550000X-0.550000X0.550000X-0.550000X0*%
%TD*%
%TA.AperFunction,ComponentPad*%
%ADD22C,1.676400*%
%TD*%
%TA.AperFunction,ComponentPad*%
%ADD23R,1.676400X1.676400*%
%TD*%
%TA.AperFunction,ComponentPad*%
%ADD24O,1.500000X2.500000*%
%TD*%
%TA.AperFunction,ComponentPad*%
%ADD25R,1.500000X2.500000*%
%TD*%
%TA.AperFunction,ComponentPad*%
%ADD26O,2.200000X3.500000*%
%TD*%
%TA.AperFunction,HeatsinkPad*%
%ADD27O,1.700000X1.000000*%
%TD*%
%TA.AperFunction,SMDPad,CuDef*%
%ADD28RoundRect,0.225000X-0.575000X0.225000X-0.575000X-0.225000X0.575000X-0.225000X0.575000X0.225000X0*%
%TD*%
%TA.AperFunction,SMDPad,CuDef*%
%ADD29RoundRect,0.200000X-0.600000X0.200000X-0.600000X-0.200000X0.600000X-0.200000X0.600000X0.200000X0*%
%TD*%
%TA.AperFunction,SMDPad,CuDef*%
%ADD30RoundRect,0.175000X-0.625000X0.175000X-0.625000X-0.175000X0.625000X-0.175000X0.625000X0.175000X0*%
%TD*%
%TA.AperFunction,ComponentPad*%
%ADD31O,3.240000X2.720000*%
%TD*%
%TA.AperFunction,ComponentPad*%
%ADD32RoundRect,0.250000X0.550000X-0.550000X0.550000X0.550000X-0.550000X0.550000X-0.550000X-0.550000X0*%
%TD*%
%TA.AperFunction,ComponentPad*%
%ADD33RoundRect,0.250000X-0.550000X0.550000X-0.550000X-0.550000X0.550000X-0.550000X0.550000X0.550000X0*%
%TD*%
%TA.AperFunction,ComponentPad*%
%ADD34O,2.500000X1.500000*%
%TD*%
%TA.AperFunction,ComponentPad*%
%ADD35R,2.500000X1.500000*%
%TD*%
%TA.AperFunction,ComponentPad*%
%ADD36O,3.500000X2.200000*%
%TD*%
%TA.AperFunction,SMDPad,CuDef*%
%ADD37RoundRect,0.150000X-0.825000X-0.150000X0.825000X-0.150000X0.825000X0.150000X-0.825000X0.150000X0*%
%TD*%
%TA.AperFunction,SMDPad,CuDef*%
%ADD38RoundRect,0.150000X-0.150000X0.825000X-0.150000X-0.825000X0.150000X-0.825000X0.150000X0.825000X0*%
%TD*%
%TA.AperFunction,SMDPad,CuDef*%
%ADD39RoundRect,0.150000X0.825000X0.150000X-0.825000X0.150000X-0.825000X-0.150000X0.825000X-0.150000X0*%
%TD*%
%TA.AperFunction,ViaPad*%
%ADD40C,0.600000*%
%TD*%
%TA.AperFunction,Conductor*%
%ADD41C,0.200000*%
%TD*%
G04 APERTURE END LIST*
D10*
%TO.P,U21,1,A0*%
%TO.N,/MAR/A0*%
X170695000Y-100610000D03*
D11*
%TO.P,U21,2,\u002ACS*%
%TO.N,GND*%
X170695000Y-103150000D03*
%TO.P,U21,3,\u002AWE*%
%TO.N,Net-(U21-\u002AWE)*%
X170695000Y-105690000D03*
%TO.P,U21,4,D0*%
%TO.N,Net-(U21-D0)*%
X170695000Y-108230000D03*
%TO.P,U21,5,\u002AO0*%
%TO.N,Net-(U21-\u002AO0)*%
X170695000Y-110770000D03*
%TO.P,U21,6,D1*%
%TO.N,Net-(U21-D1)*%
X170695000Y-113310000D03*
%TO.P,U21,7,\u002AO1*%
%TO.N,Net-(U21-\u002AO1)*%
X170695000Y-115850000D03*
%TO.P,U21,8,GND*%
%TO.N,GND*%
X170695000Y-118390000D03*
%TO.P,U21,9,\u002AO2*%
%TO.N,Net-(U21-\u002AO2)*%
X178315000Y-118390000D03*
%TO.P,U21,10,D2*%
%TO.N,Net-(U21-D2)*%
X178315000Y-115850000D03*
%TO.P,U21,11,\u002AO3*%
%TO.N,Net-(U21-\u002AO3)*%
X178315000Y-113310000D03*
%TO.P,U21,12,D3*%
%TO.N,Net-(U21-D3)*%
X178315000Y-110770000D03*
%TO.P,U21,13,A3*%
%TO.N,/MAR/A3*%
X178315000Y-108230000D03*
%TO.P,U21,14,A2*%
%TO.N,/MAR/A2*%
X178315000Y-105690000D03*
%TO.P,U21,15,A1*%
%TO.N,/MAR/A1*%
X178315000Y-103150000D03*
%TO.P,U21,16,VCC*%
%TO.N,VCC*%
X178315000Y-100610000D03*
%TD*%
D10*
%TO.P,U23,1,A0*%
%TO.N,/MAR/A0*%
X182695000Y-101110000D03*
D11*
%TO.P,U23,2,\u002ACS*%
%TO.N,GND*%
X182695000Y-103650000D03*
%TO.P,U23,3,\u002AWE*%
%TO.N,Net-(U21-\u002AWE)*%
X182695000Y-106190000D03*
%TO.P,U23,4,D0*%
%TO.N,Net-(U23-D0)*%
X182695000Y-108730000D03*
%TO.P,U23,5,\u002AO0*%
%TO.N,Net-(U23-\u002AO0)*%
X182695000Y-111270000D03*
%TO.P,U23,6,D1*%
%TO.N,Net-(U23-D1)*%
X182695000Y-113810000D03*
%TO.P,U23,7,\u002AO1*%
%TO.N,Net-(U23-\u002AO1)*%
X182695000Y-116350000D03*
%TO.P,U23,8,GND*%
%TO.N,GND*%
X182695000Y-118890000D03*
%TO.P,U23,9,\u002AO2*%
%TO.N,Net-(U23-\u002AO2)*%
X190315000Y-118890000D03*
%TO.P,U23,10,D2*%
%TO.N,Net-(U23-D2)*%
X190315000Y-116350000D03*
%TO.P,U23,11,\u002AO3*%
%TO.N,Net-(U23-\u002AO3)*%
X190315000Y-113810000D03*
%TO.P,U23,12,D3*%
%TO.N,Net-(U23-D3)*%
X190315000Y-111270000D03*
%TO.P,U23,13,A3*%
%TO.N,/MAR/A3*%
X190315000Y-108730000D03*
%TO.P,U23,14,A2*%
%TO.N,/MAR/A2*%
X190315000Y-106190000D03*
%TO.P,U23,15,A1*%
%TO.N,/MAR/A1*%
X190315000Y-103650000D03*
%TO.P,U23,16,VCC*%
%TO.N,VCC*%
X190315000Y-101110000D03*
%TD*%
%TO.P,R14,2*%
%TO.N,GND*%
X266917100Y-117412300D03*
%TO.P,R14,1*%
%TO.N,Net-(D16-K)*%
X266917100Y-109792300D03*
%TD*%
%TO.P,U5,14,VCC*%
%TO.N,VCC*%
X260750000Y-125790000D03*
%TO.P,U5,13*%
%TO.N,CLK*%
X260750000Y-128330000D03*
%TO.P,U5,12*%
%TO.N,~{CLK}*%
X260750000Y-130870000D03*
%TO.P,U5,11*%
%TO.N,Net-(U24-Zc)*%
X260750000Y-133410000D03*
%TO.P,U5,10*%
%TO.N,Net-(U23-D1)*%
X260750000Y-135950000D03*
%TO.P,U5,9*%
%TO.N,HLT*%
X260750000Y-138490000D03*
%TO.P,U5,8*%
%TO.N,Net-(U4-Pad10)*%
X260750000Y-141030000D03*
%TO.P,U5,7,GND*%
%TO.N,GND*%
X253130000Y-141030000D03*
%TO.P,U5,6*%
%TO.N,Net-(U21-D2)*%
X253130000Y-138490000D03*
%TO.P,U5,5*%
%TO.N,Net-(U52-Zc)*%
X253130000Y-135950000D03*
%TO.P,U5,4*%
%TO.N,Net-(U21-D1)*%
X253130000Y-133410000D03*
%TO.P,U5,3*%
%TO.N,Net-(U52-Zb)*%
X253130000Y-130870000D03*
%TO.P,U5,2*%
%TO.N,Net-(U4-Pad4)*%
X253130000Y-128330000D03*
D10*
%TO.P,U5,1*%
%TO.N,Net-(U3-Q)*%
X253130000Y-125790000D03*
%TD*%
D12*
%TO.P,C8,2*%
%TO.N,GND*%
X333040000Y-88300000D03*
%TO.P,C8,1*%
%TO.N,VCC*%
X333040000Y-86300000D03*
%TD*%
D11*
%TO.P,C3,2*%
%TO.N,Net-(U2-DIS)*%
X278067100Y-149662300D03*
%TO.P,C3,1*%
%TO.N,GND*%
X275567100Y-149662300D03*
%TD*%
%TO.P,R94,2*%
%TO.N,GND*%
X319460000Y-65050000D03*
%TO.P,R94,1*%
%TO.N,Net-(D025-K)*%
X319460000Y-72670000D03*
%TD*%
%TO.P,U52,16,VCC*%
%TO.N,VCC*%
X213597100Y-125657300D03*
%TO.P,U52,15,E*%
%TO.N,GND*%
X213597100Y-128197300D03*
%TO.P,U52,14,I0c*%
%TO.N,Net-(U52-I0c)*%
X213597100Y-130737300D03*
%TO.P,U52,13,I1c*%
%TO.N,BUS_5*%
X213597100Y-133277300D03*
%TO.P,U52,12,Zc*%
%TO.N,Net-(U52-Zc)*%
X213597100Y-135817300D03*
%TO.P,U52,11,I0d*%
%TO.N,Net-(U52-I0d)*%
X213597100Y-138357300D03*
%TO.P,U52,10,I1d*%
%TO.N,BUS_4*%
X213597100Y-140897300D03*
%TO.P,U52,9,Zd*%
%TO.N,Net-(U52-Zd)*%
X213597100Y-143437300D03*
%TO.P,U52,8,GND*%
%TO.N,GND*%
X205977100Y-143437300D03*
%TO.P,U52,7,Zb*%
%TO.N,Net-(U52-Zb)*%
X205977100Y-140897300D03*
%TO.P,U52,6,I1b*%
%TO.N,BUS_6*%
X205977100Y-138357300D03*
%TO.P,U52,5,I0b*%
%TO.N,Net-(U52-I0b)*%
X205977100Y-135817300D03*
%TO.P,U52,4,Za*%
%TO.N,Net-(U52-Za)*%
X205977100Y-133277300D03*
%TO.P,U52,3,I1a*%
%TO.N,BUS_7*%
X205977100Y-130737300D03*
%TO.P,U52,2,I0a*%
%TO.N,Net-(U52-I0a)*%
X205977100Y-128197300D03*
D10*
%TO.P,U52,1,S*%
%TO.N,/MAR/PROG*%
X205977100Y-125657300D03*
%TD*%
D11*
%TO.P,R83,2*%
%TO.N,GND*%
X157500000Y-27300000D03*
%TO.P,R83,1*%
%TO.N,Net-(D112-K)*%
X157500000Y-34920000D03*
%TD*%
%TO.P,R87,2*%
%TO.N,GND*%
X177500000Y-27300000D03*
%TO.P,R87,1*%
%TO.N,Net-(D116-K)*%
X177500000Y-34920000D03*
%TD*%
D13*
%TO.P,U8,16,VCC*%
%TO.N,VCC*%
X310870000Y-101550000D03*
%TO.P,U8,15,Mr*%
%TO.N,CLR*%
X308330000Y-101550000D03*
%TO.P,U8,14,D0*%
%TO.N,BUS_7*%
X305790000Y-101550000D03*
%TO.P,U8,13,D1*%
%TO.N,BUS_6*%
X303250000Y-101550000D03*
%TO.P,U8,12,D2*%
%TO.N,BUS_5*%
X300710000Y-101550000D03*
%TO.P,U8,11,D3*%
%TO.N,BUS_4*%
X298170000Y-101550000D03*
%TO.P,U8,10,E2*%
%TO.N,~{BI}*%
X295630000Y-101550000D03*
%TO.P,U8,9,E1*%
X293090000Y-101550000D03*
%TO.P,U8,8,GND*%
%TO.N,GND*%
X293090000Y-93930000D03*
%TO.P,U8,7,Cp*%
%TO.N,CLK*%
X295630000Y-93930000D03*
%TO.P,U8,6,Q3*%
%TO.N,/ALU/B_4*%
X298170000Y-93930000D03*
%TO.P,U8,5,Q2*%
%TO.N,/ALU/B_5*%
X300710000Y-93930000D03*
%TO.P,U8,4,Q1*%
%TO.N,/ALU/B_6*%
X303250000Y-93930000D03*
%TO.P,U8,3,Q0*%
%TO.N,/ALU/B_7*%
X305790000Y-93930000D03*
%TO.P,U8,2,Oe2*%
%TO.N,GND*%
X308330000Y-93930000D03*
D14*
%TO.P,U8,1,Oe1*%
X310870000Y-93930000D03*
%TD*%
D11*
%TO.P,U20,14,VCC*%
%TO.N,VCC*%
X235147100Y-125667300D03*
%TO.P,U20,13*%
%TO.N,Net-(U24-Zd)*%
X235147100Y-128207300D03*
%TO.P,U20,12*%
%TO.N,Net-(U23-D0)*%
X235147100Y-130747300D03*
%TO.P,U20,11*%
%TO.N,N/C*%
X235147100Y-133287300D03*
%TO.P,U20,10*%
X235147100Y-135827300D03*
%TO.P,U20,9*%
%TO.N,Net-(U52-Zd)*%
X235147100Y-138367300D03*
%TO.P,U20,8*%
%TO.N,Net-(U21-D3)*%
X235147100Y-140907300D03*
%TO.P,U20,7,GND*%
%TO.N,GND*%
X227527100Y-140907300D03*
%TO.P,U20,6*%
%TO.N,Net-(U23-D2)*%
X227527100Y-138367300D03*
%TO.P,U20,5*%
%TO.N,Net-(U24-Za)*%
X227527100Y-135827300D03*
%TO.P,U20,4*%
%TO.N,Net-(U23-D3)*%
X227527100Y-133287300D03*
%TO.P,U20,3*%
%TO.N,Net-(U24-Zb)*%
X227527100Y-130747300D03*
%TO.P,U20,2*%
%TO.N,Net-(U21-\u002AWE)*%
X227527100Y-128207300D03*
D10*
%TO.P,U20,1*%
%TO.N,Net-(U51-Zc)*%
X227527100Y-125667300D03*
%TD*%
D13*
%TO.P,U41,16,VCC*%
%TO.N,VCC*%
X76412100Y-51252300D03*
%TO.P,U41,15,TC*%
%TO.N,unconnected-(U41-TC-Pad15)*%
X76412100Y-48712300D03*
%TO.P,U41,14,Q0*%
%TO.N,Net-(D59-A)*%
X76412100Y-46172300D03*
%TO.P,U41,13,Q1*%
%TO.N,Net-(D60-A)*%
X76412100Y-43632300D03*
%TO.P,U41,12,Q2*%
%TO.N,Net-(D61-A)*%
X76412100Y-41092300D03*
%TO.P,U41,11,Q3*%
%TO.N,unconnected-(U41-Q3-Pad11)*%
X76412100Y-38552300D03*
%TO.P,U41,10,CET*%
%TO.N,VCC*%
X76412100Y-36012300D03*
%TO.P,U41,9,~{PE}*%
X76412100Y-33472300D03*
%TO.P,U41,8,GND*%
%TO.N,GND*%
X84032100Y-33472300D03*
%TO.P,U41,7,CEP*%
%TO.N,VCC*%
X84032100Y-36012300D03*
%TO.P,U41,6,D3*%
%TO.N,unconnected-(U41-D3-Pad6)*%
X84032100Y-38552300D03*
%TO.P,U41,5,D2*%
%TO.N,unconnected-(U41-D2-Pad5)*%
X84032100Y-41092300D03*
%TO.P,U41,4,D1*%
%TO.N,unconnected-(U41-D1-Pad4)*%
X84032100Y-43632300D03*
%TO.P,U41,3,D0*%
%TO.N,unconnected-(U41-D0-Pad3)*%
X84032100Y-46172300D03*
%TO.P,U41,2,CP*%
%TO.N,~{CLK}*%
X84032100Y-48712300D03*
D14*
%TO.P,U41,1,~{MR}*%
%TO.N,Net-(U41-~{MR})*%
X84032100Y-51252300D03*
%TD*%
D12*
%TO.P,C11,2*%
%TO.N,GND*%
X251000000Y-42420000D03*
%TO.P,C11,1*%
%TO.N,VCC*%
X249000000Y-42420000D03*
%TD*%
D15*
%TO.P,D31,2,A*%
%TO.N,Net-(D31-A)*%
X207620000Y-161420000D03*
D16*
%TO.P,D31,1,K*%
%TO.N,Net-(D31-K)*%
X205080000Y-161420000D03*
%TD*%
D15*
%TO.P,D116,2,A*%
%TO.N,Net-(D116-A)*%
X180000000Y-39920000D03*
D16*
%TO.P,D116,1,K*%
%TO.N,Net-(D116-K)*%
X177460000Y-39920000D03*
%TD*%
D11*
%TO.P,R32,2*%
%TO.N,GND*%
X195197100Y-99912300D03*
%TO.P,R32,1*%
%TO.N,Net-(C14-Pad2)*%
X202817100Y-99912300D03*
%TD*%
%TO.P,U6,14,VCC*%
%TO.N,VCC*%
X320240000Y-141580000D03*
%TO.P,U6,13*%
%TO.N,unconnected-(U6-Pad13)*%
X320240000Y-144120000D03*
%TO.P,U6,12*%
%TO.N,unconnected-(U6-Pad12)*%
X320240000Y-146660000D03*
%TO.P,U6,11*%
%TO.N,unconnected-(U6-Pad11)*%
X320240000Y-149200000D03*
%TO.P,U6,10*%
%TO.N,unconnected-(U6-Pad10)*%
X320240000Y-151740000D03*
%TO.P,U6,9*%
%TO.N,unconnected-(U6-Pad9)*%
X320240000Y-154280000D03*
%TO.P,U6,8*%
%TO.N,unconnected-(U6-Pad8)*%
X320240000Y-156820000D03*
%TO.P,U6,7,GND*%
%TO.N,GND*%
X312620000Y-156820000D03*
%TO.P,U6,6*%
%TO.N,unconnected-(U6-Pad6)*%
X312620000Y-154280000D03*
%TO.P,U6,5*%
%TO.N,unconnected-(U6-Pad5)*%
X312620000Y-151740000D03*
%TO.P,U6,4*%
%TO.N,unconnected-(U6-Pad4)*%
X312620000Y-149200000D03*
%TO.P,U6,3*%
%TO.N,Net-(U4-Pad9)*%
X312620000Y-146660000D03*
%TO.P,U6,2*%
%TO.N,Net-(U4-Pad6)*%
X312620000Y-144120000D03*
D10*
%TO.P,U6,1*%
%TO.N,Net-(U4-Pad3)*%
X312620000Y-141580000D03*
%TD*%
D15*
%TO.P,D57,2,A*%
%TO.N,Net-(D57-A)*%
X111442100Y-103552300D03*
D16*
%TO.P,D57,1,K*%
%TO.N,Net-(D57-K)*%
X108902100Y-103552300D03*
%TD*%
D15*
%TO.P,D53,2,A*%
%TO.N,Net-(D53-A)*%
X120327100Y-122412300D03*
D16*
%TO.P,D53,1,K*%
%TO.N,Net-(D53-K)*%
X117787100Y-122412300D03*
%TD*%
D11*
%TO.P,R15,2*%
%TO.N,GND*%
X271717100Y-117222300D03*
%TO.P,R15,1*%
%TO.N,Net-(D17-K)*%
X271717100Y-109602300D03*
%TD*%
%TO.P,R13,2*%
%TO.N,GND*%
X262167100Y-117162300D03*
%TO.P,R13,1*%
%TO.N,Net-(D15-K)*%
X262167100Y-109542300D03*
%TD*%
D15*
%TO.P,D112,2,A*%
%TO.N,IR_7*%
X160040000Y-39920000D03*
D16*
%TO.P,D112,1,K*%
%TO.N,Net-(D112-K)*%
X157500000Y-39920000D03*
%TD*%
D11*
%TO.P,R16,2*%
%TO.N,Net-(D18-K)*%
X276917100Y-109732300D03*
%TO.P,R16,1*%
%TO.N,GND*%
X276917100Y-117352300D03*
%TD*%
D15*
%TO.P,D14,2,A*%
%TO.N,CF*%
X262000000Y-53920000D03*
D16*
%TO.P,D14,1,K*%
%TO.N,Net-(D14-K)*%
X259460000Y-53920000D03*
%TD*%
D11*
%TO.P,R3,2*%
%TO.N,Net-(U2-TR)*%
X283127100Y-139162300D03*
%TO.P,R3,1*%
%TO.N,VCC*%
X275507100Y-139162300D03*
%TD*%
%TO.P,R65,2*%
%TO.N,GND*%
X46047700Y-106657100D03*
%TO.P,R65,1*%
%TO.N,Net-(D62-K)*%
X53667700Y-106657100D03*
%TD*%
%TO.P,R20,2*%
%TO.N,GND*%
X222197100Y-54892300D03*
%TO.P,R20,1*%
%TO.N,Net-(D20-K)*%
X222197100Y-47272300D03*
%TD*%
D15*
%TO.P,D69,2,A*%
%TO.N,BUS_7*%
X58500000Y-69110000D03*
D16*
%TO.P,D69,1,K*%
%TO.N,Net-(D69-K)*%
X58500000Y-71650000D03*
%TD*%
D15*
%TO.P,D13,2,A*%
%TO.N,Net-(D13-A)*%
X259782100Y-103852300D03*
D16*
%TO.P,D13,1,K*%
%TO.N,Net-(D13-K)*%
X257242100Y-103852300D03*
%TD*%
D11*
%TO.P,R97,2*%
%TO.N,GND*%
X304460000Y-65050000D03*
%TO.P,R97,1*%
%TO.N,Net-(D028-K)*%
X304460000Y-72670000D03*
%TD*%
D17*
%TO.P,U43,28,VCC*%
%TO.N,VCC*%
X105000050Y-32020000D03*
%TO.P,U43,27,~{WE}*%
X105000050Y-34560000D03*
%TO.P,U43,26*%
%TO.N,N/C*%
X105000050Y-37100000D03*
%TO.P,U43,25,A8*%
%TO.N,CF*%
X105000050Y-39640000D03*
%TO.P,U43,24,A9*%
%TO.N,ZF*%
X105000050Y-42180000D03*
%TO.P,U43,23,A11*%
%TO.N,GND*%
X105000050Y-44720000D03*
%TO.P,U43,22,~{OE}*%
X105000050Y-47260000D03*
%TO.P,U43,21,A10*%
X105000050Y-49800000D03*
%TO.P,U43,20,~{CE}*%
X105000050Y-52340000D03*
%TO.P,U43,19,I/O7*%
%TO.N,HLT*%
X105000050Y-54880000D03*
%TO.P,U43,18,I/O6*%
%TO.N,Net-(D39-A)*%
X105000050Y-57420000D03*
%TO.P,U43,17,I/O5*%
%TO.N,RI*%
X105000050Y-59960000D03*
%TO.P,U43,16,I/O4*%
%TO.N,Net-(D41-A)*%
X105000050Y-62500000D03*
%TO.P,U43,15,I/O3*%
%TO.N,Net-(D42-A)*%
X105000050Y-65040000D03*
%TO.P,U43,14,GND*%
%TO.N,GND*%
X89442550Y-65040000D03*
%TO.P,U43,13,I/O2*%
%TO.N,Net-(D43-A)*%
X89442550Y-62500000D03*
%TO.P,U43,12,I/O1*%
%TO.N,Net-(D44-A)*%
X89442550Y-59960000D03*
%TO.P,U43,11,I/O0*%
%TO.N,Net-(D45-A)*%
X89442550Y-57420000D03*
%TO.P,U43,10,A0*%
%TO.N,Net-(D59-A)*%
X89442550Y-54880000D03*
%TO.P,U43,9,A1*%
%TO.N,Net-(D60-A)*%
X89442550Y-52340000D03*
%TO.P,U43,8,A2*%
%TO.N,Net-(D61-A)*%
X89442550Y-49800000D03*
%TO.P,U43,7,A3*%
%TO.N,IR_4*%
X89442550Y-47260000D03*
%TO.P,U43,6,A4*%
%TO.N,IR_5*%
X89442550Y-44720000D03*
%TO.P,U43,5,A5*%
%TO.N,IR_6*%
X89442550Y-42180000D03*
%TO.P,U43,4,A6*%
%TO.N,IR_7*%
X89442550Y-39640000D03*
%TO.P,U43,3,A7*%
%TO.N,GND*%
X89442550Y-37100000D03*
%TO.P,U43,2,A12*%
X89442550Y-34560000D03*
D18*
%TO.P,U43,1*%
%TO.N,N/C*%
X89442550Y-32020000D03*
%TD*%
D15*
%TO.P,D17,2,A*%
%TO.N,Net-(D17-A)*%
X274382100Y-103852300D03*
D16*
%TO.P,D17,1,K*%
%TO.N,Net-(D17-K)*%
X271842100Y-103852300D03*
%TD*%
D15*
%TO.P,D59,2,A*%
%TO.N,Net-(D59-A)*%
X105442100Y-86552300D03*
D16*
%TO.P,D59,1,K*%
%TO.N,Net-(D59-K)*%
X102902100Y-86552300D03*
%TD*%
D15*
%TO.P,D115,2,A*%
%TO.N,IR_4*%
X175000000Y-39920000D03*
D16*
%TO.P,D115,1,K*%
%TO.N,Net-(D115-K)*%
X172460000Y-39920000D03*
%TD*%
D19*
%TO.P,SW6,2,2*%
%TO.N,Net-(U51-I0c)*%
X242317100Y-145427300D03*
X248817100Y-145427300D03*
%TO.P,SW6,1,1*%
%TO.N,GND*%
X242317100Y-149927300D03*
X248817100Y-149927300D03*
%TD*%
D15*
%TO.P,D30,2,A*%
%TO.N,Net-(D30-A)*%
X202660000Y-161420000D03*
D16*
%TO.P,D30,1,K*%
%TO.N,Net-(D30-K)*%
X200120000Y-161420000D03*
%TD*%
D11*
%TO.P,U32,16,K*%
%TO.N,VCC*%
X138003900Y-134069100D03*
%TO.P,U32,15,Q*%
%TO.N,unconnected-(U32A-Q-Pad15)*%
X138003900Y-136609100D03*
%TO.P,U32,14,~{Q}*%
%TO.N,Net-(U32A-~{Q})*%
X138003900Y-139149100D03*
%TO.P,U32,13,GND*%
%TO.N,GND*%
X138003900Y-141689100D03*
%TO.P,U32,12,K*%
%TO.N,VCC*%
X138003900Y-144229100D03*
%TO.P,U32,11,Q*%
%TO.N,unconnected-(U32B-Q-Pad11)*%
X138003900Y-146769100D03*
%TO.P,U32,10,~{Q}*%
%TO.N,Net-(U32B-~{Q})*%
X138003900Y-149309100D03*
%TO.P,U32,9,J*%
%TO.N,VCC*%
X138003900Y-151849100D03*
%TO.P,U32,8,~{R}*%
X130383900Y-151849100D03*
%TO.P,U32,7,~{S}*%
X130383900Y-149309100D03*
%TO.P,U32,6,C*%
%TO.N,Net-(U32A-~{Q})*%
X130383900Y-146769100D03*
%TO.P,U32,5,VCC*%
%TO.N,VCC*%
X130383900Y-144229100D03*
%TO.P,U32,4,J*%
X130383900Y-141689100D03*
%TO.P,U32,3,~{R}*%
X130383900Y-139149100D03*
%TO.P,U32,2,~{S}*%
X130383900Y-136609100D03*
D10*
%TO.P,U32,1,C*%
%TO.N,Net-(U31-Q)*%
X130383900Y-134069100D03*
%TD*%
D15*
%TO.P,D50,2,A*%
%TO.N,CE*%
X104817100Y-122412300D03*
D16*
%TO.P,D50,1,K*%
%TO.N,Net-(D50-K)*%
X102277100Y-122412300D03*
%TD*%
D11*
%TO.P,U35,10,G*%
%TO.N,Net-(U34-G)*%
X81636400Y-130639100D03*
%TO.P,U35,9,F*%
%TO.N,Net-(U34-F)*%
X84176400Y-130639100D03*
%TO.P,U35,8,CC*%
%TO.N,Net-(U33A-O0)*%
X86716400Y-130639100D03*
%TO.P,U35,7,A*%
%TO.N,Net-(U34-A)*%
X89256400Y-130639100D03*
%TO.P,U35,6,B*%
%TO.N,Net-(U34-B)*%
X91796400Y-130639100D03*
%TO.P,U35,5,DP*%
%TO.N,Net-(U34-DP)*%
X91796400Y-145879100D03*
%TO.P,U35,4,C*%
%TO.N,Net-(U34-C)*%
X89256400Y-145879100D03*
%TO.P,U35,3,CC*%
%TO.N,Net-(U33A-O0)*%
X86716400Y-145879100D03*
%TO.P,U35,2,D*%
%TO.N,Net-(U34-D)*%
X84176400Y-145879100D03*
D20*
%TO.P,U35,1,E*%
%TO.N,Net-(U34-E)*%
X81636400Y-145879100D03*
%TD*%
D15*
%TO.P,D11,2,A*%
%TO.N,Net-(D11-A)*%
X250017100Y-103852300D03*
D16*
%TO.P,D11,1,K*%
%TO.N,Net-(D11-K)*%
X247477100Y-103852300D03*
%TD*%
D15*
%TO.P,D25,2,A*%
%TO.N,Net-(D25-A)*%
X251250000Y-23500000D03*
D16*
%TO.P,D25,1,K*%
%TO.N,Net-(D25-K)*%
X248710000Y-23500000D03*
%TD*%
D11*
%TO.P,R57,2*%
%TO.N,VCC*%
X111412100Y-90932300D03*
%TO.P,R57,1*%
%TO.N,Net-(D57-A)*%
X111412100Y-98552300D03*
%TD*%
%TO.P,U33,16,VCC*%
%TO.N,VCC*%
X148783900Y-134069100D03*
%TO.P,U33,15*%
%TO.N,N/C*%
X148783900Y-136609100D03*
%TO.P,U33,14*%
X148783900Y-139149100D03*
%TO.P,U33,13*%
X148783900Y-141689100D03*
%TO.P,U33,12*%
X148783900Y-144229100D03*
%TO.P,U33,11*%
X148783900Y-146769100D03*
%TO.P,U33,10*%
X148783900Y-149309100D03*
%TO.P,U33,9*%
X148783900Y-151849100D03*
%TO.P,U33,8,GND*%
%TO.N,GND*%
X141163900Y-151849100D03*
%TO.P,U33,7,O3*%
%TO.N,Net-(U33A-O3)*%
X141163900Y-149309100D03*
%TO.P,U33,6,O2*%
%TO.N,Net-(U33A-O2)*%
X141163900Y-146769100D03*
%TO.P,U33,5,O1*%
%TO.N,Net-(U33A-O1)*%
X141163900Y-144229100D03*
%TO.P,U33,4,O0*%
%TO.N,Net-(U33A-O0)*%
X141163900Y-141689100D03*
%TO.P,U33,3,A1*%
%TO.N,Net-(U32B-~{Q})*%
X141163900Y-139149100D03*
%TO.P,U33,2,A0*%
%TO.N,Net-(U32A-~{Q})*%
X141163900Y-136609100D03*
D10*
%TO.P,U33,1,E*%
%TO.N,GND*%
X141163900Y-134069100D03*
%TD*%
D15*
%TO.P,D38,2,A*%
%TO.N,HLT*%
X44767100Y-122412300D03*
D16*
%TO.P,D38,1,K*%
%TO.N,Net-(D38-K)*%
X42227100Y-122412300D03*
%TD*%
D11*
%TO.P,R72,2*%
%TO.N,GND*%
X46047700Y-71657100D03*
%TO.P,R72,1*%
%TO.N,Net-(D69-K)*%
X53667700Y-71657100D03*
%TD*%
D12*
%TO.P,C18,2*%
%TO.N,GND*%
X146666400Y-120379100D03*
%TO.P,C18,1*%
%TO.N,VCC*%
X148666400Y-120379100D03*
%TD*%
D15*
%TO.P,D42,2,A*%
%TO.N,Net-(D42-A)*%
X64767100Y-122412300D03*
D16*
%TO.P,D42,1,K*%
%TO.N,Net-(D42-K)*%
X62227100Y-122412300D03*
%TD*%
D15*
%TO.P,D8,2,A*%
%TO.N,/ALU/A_1*%
X229047100Y-81162300D03*
D16*
%TO.P,D8,1,K*%
%TO.N,Net-(D8-K)*%
X231587100Y-81162300D03*
%TD*%
D11*
%TO.P,R52,2*%
%TO.N,GND*%
X102317100Y-109792300D03*
%TO.P,R52,1*%
%TO.N,Net-(D50-K)*%
X102317100Y-117412300D03*
%TD*%
%TO.P,R89,2*%
%TO.N,GND*%
X187500000Y-27170000D03*
%TO.P,R89,1*%
%TO.N,Net-(D118-K)*%
X187500000Y-34790000D03*
%TD*%
%TO.P,R31,2*%
%TO.N,GND*%
X215120000Y-173920000D03*
%TO.P,R31,1*%
%TO.N,Net-(D33-K)*%
X215120000Y-166300000D03*
%TD*%
%TO.P,R5,2*%
%TO.N,Net-(SW2-A)*%
X292567100Y-149852300D03*
%TO.P,R5,1*%
%TO.N,VCC*%
X292567100Y-157472300D03*
%TD*%
D15*
%TO.P,D022,2,A*%
%TO.N,/ALU/B_7*%
X337000000Y-78920000D03*
D16*
%TO.P,D022,1,K*%
%TO.N,Net-(D022-K)*%
X334460000Y-78920000D03*
%TD*%
D11*
%TO.P,R90,2*%
%TO.N,GND*%
X192500000Y-27300000D03*
%TO.P,R90,1*%
%TO.N,Net-(D119-K)*%
X192500000Y-34920000D03*
%TD*%
D12*
%TO.P,C10,2*%
%TO.N,GND*%
X257993900Y-82749100D03*
%TO.P,C10,1*%
%TO.N,VCC*%
X255993900Y-82749100D03*
%TD*%
%TO.P,C7,2*%
%TO.N,GND*%
X315605000Y-107040000D03*
%TO.P,C7,1*%
%TO.N,Net-(U1-THR)*%
X317605000Y-107040000D03*
%TD*%
D15*
%TO.P,D54,2,A*%
%TO.N,Net-(D54-A)*%
X93412100Y-103552300D03*
D16*
%TO.P,D54,1,K*%
%TO.N,Net-(D54-K)*%
X90872100Y-103552300D03*
%TD*%
D11*
%TO.P,R74,2*%
%TO.N,GND*%
X70945000Y-92640000D03*
%TO.P,R74,1*%
%TO.N,BUS_6*%
X63325000Y-92640000D03*
%TD*%
D15*
%TO.P,D44,2,A*%
%TO.N,Net-(D44-A)*%
X74817100Y-122412300D03*
D16*
%TO.P,D44,1,K*%
%TO.N,Net-(D44-K)*%
X72277100Y-122412300D03*
%TD*%
D15*
%TO.P,D48,2,A*%
%TO.N,Net-(D48-A)*%
X94817100Y-122412300D03*
D16*
%TO.P,D48,1,K*%
%TO.N,Net-(D48-K)*%
X92277100Y-122412300D03*
%TD*%
D11*
%TO.P,SW5,16*%
%TO.N,GND*%
X169197100Y-143412300D03*
%TO.P,SW5,15*%
X169197100Y-140872300D03*
%TO.P,SW5,14*%
%TO.N,Net-(U24-I0b)*%
X169197100Y-138332300D03*
%TO.P,SW5,13*%
%TO.N,Net-(U24-I0a)*%
X169197100Y-135792300D03*
%TO.P,SW5,12*%
%TO.N,GND*%
X169197100Y-133252300D03*
%TO.P,SW5,11*%
X169197100Y-130712300D03*
%TO.P,SW5,10*%
%TO.N,Net-(U52-I0b)*%
X169197100Y-128172300D03*
%TO.P,SW5,9*%
%TO.N,Net-(U52-I0a)*%
X169197100Y-125632300D03*
%TO.P,SW5,8*%
%TO.N,GND*%
X176817100Y-125632300D03*
%TO.P,SW5,7*%
X176817100Y-128172300D03*
%TO.P,SW5,6*%
%TO.N,Net-(U52-I0c)*%
X176817100Y-130712300D03*
%TO.P,SW5,5*%
%TO.N,Net-(U52-I0d)*%
X176817100Y-133252300D03*
%TO.P,SW5,4*%
%TO.N,GND*%
X176817100Y-135792300D03*
%TO.P,SW5,3*%
X176817100Y-138332300D03*
%TO.P,SW5,2*%
%TO.N,Net-(U24-I0c)*%
X176817100Y-140872300D03*
D21*
%TO.P,SW5,1*%
%TO.N,Net-(U24-I0d)*%
X176817100Y-143412300D03*
%TD*%
D22*
%TO.P,U29,20,VCC*%
%TO.N,VCC*%
X151050000Y-66740000D03*
%TO.P,U29,19,CE*%
%TO.N,~{CO}*%
X151050000Y-69280000D03*
%TO.P,U29,18,B0*%
%TO.N,unconnected-(U29-B0-Pad18)*%
X151050000Y-71820000D03*
%TO.P,U29,17,B1*%
%TO.N,unconnected-(U29-B1-Pad17)*%
X151050000Y-74360000D03*
%TO.P,U29,16,B2*%
%TO.N,unconnected-(U29-B2-Pad16)*%
X151050000Y-76900000D03*
%TO.P,U29,15,B3*%
%TO.N,unconnected-(U29-B3-Pad15)*%
X151050000Y-79440000D03*
%TO.P,U29,14,B4*%
%TO.N,Net-(D34-A)*%
X151050000Y-81980000D03*
%TO.P,U29,13,B5*%
%TO.N,Net-(D35-A)*%
X151050000Y-84520000D03*
%TO.P,U29,12,B6*%
%TO.N,Net-(D36-A)*%
X151050000Y-87060000D03*
%TO.P,U29,11,B7*%
%TO.N,Net-(D37-A)*%
X151050000Y-89600000D03*
%TO.P,U29,10,GND*%
%TO.N,GND*%
X143430000Y-89600000D03*
%TO.P,U29,9,A7*%
%TO.N,BUS_0*%
X143430000Y-87060000D03*
%TO.P,U29,8,A6*%
%TO.N,BUS_1*%
X143430000Y-84520000D03*
%TO.P,U29,7,A5*%
%TO.N,BUS_2*%
X143430000Y-81980000D03*
%TO.P,U29,6,A4*%
%TO.N,BUS_3*%
X143430000Y-79440000D03*
%TO.P,U29,5,A3*%
%TO.N,unconnected-(U29-A3-Pad5)*%
X143430000Y-76900000D03*
%TO.P,U29,4,A2*%
%TO.N,unconnected-(U29-A2-Pad4)*%
X143430000Y-74360000D03*
%TO.P,U29,3,A1*%
%TO.N,unconnected-(U29-A1-Pad3)*%
X143430000Y-71820000D03*
%TO.P,U29,2,A0*%
%TO.N,unconnected-(U29-A0-Pad2)*%
X143430000Y-69280000D03*
D23*
%TO.P,U29,1,A->B*%
%TO.N,GND*%
X143430000Y-66740000D03*
%TD*%
D11*
%TO.P,R39,2*%
%TO.N,GND*%
X116976400Y-150879100D03*
%TO.P,R39,1*%
%TO.N,Net-(SW7-A)*%
X109356400Y-150879100D03*
%TD*%
D15*
%TO.P,D10,2,A*%
%TO.N,ZF*%
X262000000Y-58420000D03*
D16*
%TO.P,D10,1,K*%
%TO.N,Net-(D10-K)*%
X259460000Y-58420000D03*
%TD*%
D15*
%TO.P,D028,2,A*%
%TO.N,/ALU/B_1*%
X306980000Y-78920000D03*
D16*
%TO.P,D028,1,K*%
%TO.N,Net-(D028-K)*%
X304440000Y-78920000D03*
%TD*%
D11*
%TO.P,R44,2*%
%TO.N,GND*%
X62317100Y-109792300D03*
%TO.P,R44,1*%
%TO.N,Net-(D42-K)*%
X62317100Y-117412300D03*
%TD*%
D15*
%TO.P,D20,2,A*%
%TO.N,/MAR/A3*%
X224937100Y-42332300D03*
D16*
%TO.P,D20,1,K*%
%TO.N,Net-(D20-K)*%
X222397100Y-42332300D03*
%TD*%
D11*
%TO.P,U22,14,VCC*%
%TO.N,VCC*%
X194817100Y-142152300D03*
%TO.P,U22,13*%
%TO.N,unconnected-(U22-Pad13)*%
X194817100Y-139612300D03*
%TO.P,U22,12*%
%TO.N,unconnected-(U22-Pad12)*%
X194817100Y-137072300D03*
%TO.P,U22,11*%
%TO.N,unconnected-(U22-Pad11)*%
X194817100Y-134532300D03*
%TO.P,U22,10*%
%TO.N,unconnected-(U22-Pad10)*%
X194817100Y-131992300D03*
%TO.P,U22,9*%
%TO.N,unconnected-(U22-Pad9)*%
X194817100Y-129452300D03*
%TO.P,U22,8*%
%TO.N,unconnected-(U22-Pad8)*%
X194817100Y-126912300D03*
%TO.P,U22,7,GND*%
%TO.N,GND*%
X202437100Y-126912300D03*
%TO.P,U22,6*%
%TO.N,unconnected-(U22-Pad6)*%
X202437100Y-129452300D03*
%TO.P,U22,5*%
%TO.N,unconnected-(U22-Pad5)*%
X202437100Y-131992300D03*
%TO.P,U22,4*%
%TO.N,unconnected-(U22-Pad4)*%
X202437100Y-134532300D03*
%TO.P,U22,3*%
%TO.N,unconnected-(U22-Pad3)*%
X202437100Y-137072300D03*
%TO.P,U22,2*%
%TO.N,Net-(U21-D0)*%
X202437100Y-139612300D03*
D21*
%TO.P,U22,1*%
%TO.N,Net-(U52-Za)*%
X202437100Y-142152300D03*
%TD*%
D11*
%TO.P,R69,2*%
%TO.N,GND*%
X46047700Y-86157100D03*
%TO.P,R69,1*%
%TO.N,Net-(D66-K)*%
X53667700Y-86157100D03*
%TD*%
%TO.P,R24,2*%
%TO.N,GND*%
X180120000Y-173920000D03*
%TO.P,R24,1*%
%TO.N,Net-(D26-K)*%
X180120000Y-166300000D03*
%TD*%
%TO.P,R6,2*%
%TO.N,Net-(SW2-C)*%
X296317100Y-139602300D03*
%TO.P,R6,1*%
%TO.N,VCC*%
X296317100Y-147222300D03*
%TD*%
D15*
%TO.P,D025,2,A*%
%TO.N,/ALU/B_4*%
X321960000Y-78920000D03*
D16*
%TO.P,D025,1,K*%
%TO.N,Net-(D025-K)*%
X319420000Y-78920000D03*
%TD*%
D11*
%TO.P,U37,10,G*%
%TO.N,Net-(U34-G)*%
X109736400Y-130639100D03*
%TO.P,U37,9,F*%
%TO.N,Net-(U34-F)*%
X112276400Y-130639100D03*
%TO.P,U37,8,CC*%
%TO.N,Net-(U33A-O1)*%
X114816400Y-130639100D03*
%TO.P,U37,7,A*%
%TO.N,Net-(U34-A)*%
X117356400Y-130639100D03*
%TO.P,U37,6,B*%
%TO.N,Net-(U34-B)*%
X119896400Y-130639100D03*
%TO.P,U37,5,DP*%
%TO.N,Net-(U34-DP)*%
X119896400Y-145879100D03*
%TO.P,U37,4,C*%
%TO.N,Net-(U34-C)*%
X117356400Y-145879100D03*
%TO.P,U37,3,CC*%
%TO.N,Net-(U33A-O1)*%
X114816400Y-145879100D03*
%TO.P,U37,2,D*%
%TO.N,Net-(U34-D)*%
X112276400Y-145879100D03*
D20*
%TO.P,U37,1,E*%
%TO.N,Net-(U34-E)*%
X109736400Y-145879100D03*
%TD*%
D15*
%TO.P,D68,2,A*%
%TO.N,BUS_6*%
X58500000Y-74110000D03*
D16*
%TO.P,D68,1,K*%
%TO.N,Net-(D68-K)*%
X58500000Y-76650000D03*
%TD*%
D11*
%TO.P,R17,2*%
%TO.N,GND*%
X281917100Y-117222300D03*
%TO.P,R17,1*%
%TO.N,Net-(D19-K)*%
X281917100Y-109602300D03*
%TD*%
%TO.P,R71,2*%
%TO.N,GND*%
X46047700Y-77157100D03*
%TO.P,R71,1*%
%TO.N,Net-(D68-K)*%
X53667700Y-77157100D03*
%TD*%
%TO.P,R19,2*%
%TO.N,Net-(D25-A)*%
X251250000Y-28130000D03*
%TO.P,R19,1*%
%TO.N,VCC*%
X251250000Y-35750000D03*
%TD*%
D12*
%TO.P,C17,2*%
%TO.N,GND*%
X122166400Y-159879100D03*
%TO.P,C17,1*%
%TO.N,Net-(U31-CV)*%
X124166400Y-159879100D03*
%TD*%
D15*
%TO.P,D114,2,A*%
%TO.N,IR_5*%
X170020000Y-39920000D03*
D16*
%TO.P,D114,1,K*%
%TO.N,Net-(D114-K)*%
X167480000Y-39920000D03*
%TD*%
D12*
%TO.P,C13,2*%
%TO.N,GND*%
X239977100Y-112097300D03*
%TO.P,C13,1*%
%TO.N,VCC*%
X237977100Y-112097300D03*
%TD*%
D11*
%TO.P,R37,2*%
%TO.N,Net-(U31-DIS)*%
X162666400Y-127069100D03*
%TO.P,R37,1*%
%TO.N,VCC*%
X162666400Y-134689100D03*
%TD*%
%TO.P,R33,2*%
%TO.N,Net-(D34-K)*%
X157990000Y-84170000D03*
%TO.P,R33,1*%
%TO.N,GND*%
X157990000Y-91790000D03*
%TD*%
%TO.P,R62,2*%
%TO.N,GND*%
X108912100Y-73932300D03*
%TO.P,R62,1*%
%TO.N,Net-(D60-K)*%
X108912100Y-81552300D03*
%TD*%
D15*
%TO.P,D61,2,A*%
%TO.N,Net-(D61-A)*%
X117462100Y-86552300D03*
D16*
%TO.P,D61,1,K*%
%TO.N,Net-(D61-K)*%
X114922100Y-86552300D03*
%TD*%
D15*
%TO.P,D21,2,A*%
%TO.N,/MAR/A2*%
X230947100Y-42332300D03*
D16*
%TO.P,D21,1,K*%
%TO.N,Net-(D21-K)*%
X228407100Y-42332300D03*
%TD*%
D11*
%TO.P,U13,16,VCC*%
%TO.N,VCC*%
X284560000Y-45670000D03*
%TO.P,U13,15,B3*%
%TO.N,Net-(U13-B3)*%
X284560000Y-48210000D03*
%TO.P,U13,14,A3*%
%TO.N,/ALU/A_6*%
X284560000Y-50750000D03*
%TO.P,U13,13,S3*%
%TO.N,Net-(D12-A)*%
X284560000Y-53290000D03*
%TO.P,U13,12,A4*%
%TO.N,/ALU/A_7*%
X284560000Y-55830000D03*
%TO.P,U13,11,B4*%
%TO.N,Net-(U13-B4)*%
X284560000Y-58370000D03*
%TO.P,U13,10,S4*%
%TO.N,Net-(D11-A)*%
X284560000Y-60910000D03*
%TO.P,U13,9,C4*%
%TO.N,Net-(U12-D0)*%
X284560000Y-63450000D03*
%TO.P,U13,8,GND*%
%TO.N,GND*%
X276940000Y-63450000D03*
%TO.P,U13,7,C0*%
%TO.N,Net-(U13-C0)*%
X276940000Y-60910000D03*
%TO.P,U13,6,B1*%
%TO.N,Net-(U13-B1)*%
X276940000Y-58370000D03*
%TO.P,U13,5,A1*%
%TO.N,/ALU/A_4*%
X276940000Y-55830000D03*
%TO.P,U13,4,S1*%
%TO.N,Net-(D15-A)*%
X276940000Y-53290000D03*
%TO.P,U13,3,A2*%
%TO.N,/ALU/A_5*%
X276940000Y-50750000D03*
%TO.P,U13,2,B2*%
%TO.N,Net-(U13-B2)*%
X276940000Y-48210000D03*
D10*
%TO.P,U13,1,S2*%
%TO.N,Net-(D13-A)*%
X276940000Y-45670000D03*
%TD*%
D11*
%TO.P,R91,2*%
%TO.N,GND*%
X334460000Y-65050000D03*
%TO.P,R91,1*%
%TO.N,Net-(D022-K)*%
X334460000Y-72670000D03*
%TD*%
%TO.P,R47,2*%
%TO.N,GND*%
X77317100Y-109792300D03*
%TO.P,R47,1*%
%TO.N,Net-(D45-K)*%
X77317100Y-117412300D03*
%TD*%
%TO.P,R81,2*%
%TO.N,GND*%
X38000000Y-112420000D03*
%TO.P,R81,1*%
%TO.N,Net-(J1-CC2)*%
X30380000Y-112420000D03*
%TD*%
D15*
%TO.P,D027,2,A*%
%TO.N,/ALU/B_2*%
X311980000Y-78920000D03*
D16*
%TO.P,D027,1,K*%
%TO.N,Net-(D027-K)*%
X309440000Y-78920000D03*
%TD*%
D11*
%TO.P,R60,2*%
%TO.N,VCC*%
X93412100Y-91052300D03*
%TO.P,R60,1*%
%TO.N,Net-(D54-A)*%
X93412100Y-98672300D03*
%TD*%
%TO.P,U24,16,VCC*%
%TO.N,VCC*%
X192037100Y-125657300D03*
%TO.P,U24,15,E*%
%TO.N,GND*%
X192037100Y-128197300D03*
%TO.P,U24,14,I0c*%
%TO.N,Net-(U24-I0c)*%
X192037100Y-130737300D03*
%TO.P,U24,13,I1c*%
%TO.N,BUS_1*%
X192037100Y-133277300D03*
%TO.P,U24,12,Zc*%
%TO.N,Net-(U24-Zc)*%
X192037100Y-135817300D03*
%TO.P,U24,11,I0d*%
%TO.N,Net-(U24-I0d)*%
X192037100Y-138357300D03*
%TO.P,U24,10,I1d*%
%TO.N,BUS_0*%
X192037100Y-140897300D03*
%TO.P,U24,9,Zd*%
%TO.N,Net-(U24-Zd)*%
X192037100Y-143437300D03*
%TO.P,U24,8,GND*%
%TO.N,GND*%
X184417100Y-143437300D03*
%TO.P,U24,7,Zb*%
%TO.N,Net-(U24-Zb)*%
X184417100Y-140897300D03*
%TO.P,U24,6,I1b*%
%TO.N,BUS_2*%
X184417100Y-138357300D03*
%TO.P,U24,5,I0b*%
%TO.N,Net-(U24-I0b)*%
X184417100Y-135817300D03*
%TO.P,U24,4,Za*%
%TO.N,Net-(U24-Za)*%
X184417100Y-133277300D03*
%TO.P,U24,3,I1a*%
%TO.N,BUS_3*%
X184417100Y-130737300D03*
%TO.P,U24,2,I0a*%
%TO.N,Net-(U24-I0a)*%
X184417100Y-128197300D03*
D10*
%TO.P,U24,1,S*%
%TO.N,/MAR/PROG*%
X184417100Y-125657300D03*
%TD*%
D15*
%TO.P,D27,2,A*%
%TO.N,Net-(D27-A)*%
X187670000Y-161420000D03*
D16*
%TO.P,D27,1,K*%
%TO.N,Net-(D27-K)*%
X185130000Y-161420000D03*
%TD*%
D11*
%TO.P,R1,2*%
%TO.N,Net-(U1-DIS)*%
X300627100Y-127412300D03*
%TO.P,R1,1*%
%TO.N,VCC*%
X293007100Y-127412300D03*
%TD*%
%TO.P,R4,2*%
%TO.N,Net-(U2-DIS)*%
X282067100Y-149912300D03*
%TO.P,R4,1*%
%TO.N,VCC*%
X282067100Y-157532300D03*
%TD*%
D15*
%TO.P,D29,2,A*%
%TO.N,Net-(D29-A)*%
X197660000Y-161420000D03*
D16*
%TO.P,D29,1,K*%
%TO.N,Net-(D29-K)*%
X195120000Y-161420000D03*
%TD*%
D11*
%TO.P,R70,2*%
%TO.N,GND*%
X46047700Y-81657100D03*
%TO.P,R70,1*%
%TO.N,Net-(D67-K)*%
X53667700Y-81657100D03*
%TD*%
D15*
%TO.P,D22,2,A*%
%TO.N,/MAR/A1*%
X236957100Y-42332300D03*
D16*
%TO.P,D22,1,K*%
%TO.N,Net-(D22-K)*%
X234417100Y-42332300D03*
%TD*%
D11*
%TO.P,R35,2*%
%TO.N,Net-(D36-K)*%
X170240000Y-84170000D03*
%TO.P,R35,1*%
%TO.N,GND*%
X170240000Y-91790000D03*
%TD*%
D15*
%TO.P,D56,2,A*%
%TO.N,Net-(D56-A)*%
X105432100Y-103552300D03*
D16*
%TO.P,D56,1,K*%
%TO.N,Net-(D56-K)*%
X102892100Y-103552300D03*
%TD*%
D13*
%TO.P,U30,16,VCC*%
%TO.N,VCC*%
X176740000Y-73920000D03*
%TO.P,U30,15,TC*%
%TO.N,unconnected-(U30-TC-Pad15)*%
X174200000Y-73920000D03*
%TO.P,U30,14,Q0*%
%TO.N,Net-(D37-A)*%
X171660000Y-73920000D03*
%TO.P,U30,13,Q1*%
%TO.N,Net-(D36-A)*%
X169120000Y-73920000D03*
%TO.P,U30,12,Q2*%
%TO.N,Net-(D35-A)*%
X166580000Y-73920000D03*
%TO.P,U30,11,Q3*%
%TO.N,Net-(D34-A)*%
X164040000Y-73920000D03*
%TO.P,U30,10,CET*%
%TO.N,CE*%
X161500000Y-73920000D03*
%TO.P,U30,9,~{PE}*%
%TO.N,~{J}*%
X158960000Y-73920000D03*
%TO.P,U30,8,GND*%
%TO.N,GND*%
X158960000Y-66300000D03*
%TO.P,U30,7,CEP*%
%TO.N,CE*%
X161500000Y-66300000D03*
%TO.P,U30,6,D3*%
%TO.N,BUS_3*%
X164040000Y-66300000D03*
%TO.P,U30,5,D2*%
%TO.N,BUS_2*%
X166580000Y-66300000D03*
%TO.P,U30,4,D1*%
%TO.N,BUS_1*%
X169120000Y-66300000D03*
%TO.P,U30,3,D0*%
%TO.N,BUS_0*%
X171660000Y-66300000D03*
%TO.P,U30,2,CP*%
%TO.N,CLK*%
X174200000Y-66300000D03*
D14*
%TO.P,U30,1,~{MR}*%
%TO.N,~{CLR}*%
X176740000Y-66300000D03*
%TD*%
D15*
%TO.P,D41,2,A*%
%TO.N,Net-(D41-A)*%
X59767100Y-122412300D03*
D16*
%TO.P,D41,1,K*%
%TO.N,Net-(D41-K)*%
X57227100Y-122412300D03*
%TD*%
D15*
%TO.P,D46,2,A*%
%TO.N,Net-(D46-A)*%
X84817100Y-122412300D03*
D16*
%TO.P,D46,1,K*%
%TO.N,Net-(D46-K)*%
X82277100Y-122412300D03*
%TD*%
D11*
%TO.P,R36,2*%
%TO.N,Net-(D37-K)*%
X175990000Y-84170000D03*
%TO.P,R36,1*%
%TO.N,GND*%
X175990000Y-91790000D03*
%TD*%
%TO.P,R55,2*%
%TO.N,GND*%
X117817100Y-109792300D03*
%TO.P,R55,1*%
%TO.N,Net-(D53-K)*%
X117817100Y-117412300D03*
%TD*%
D13*
%TO.P,U19,16,VCC*%
%TO.N,VCC*%
X276620000Y-23180000D03*
%TO.P,U19,15,Mr*%
%TO.N,CLR*%
X276620000Y-25720000D03*
%TO.P,U19,14,D0*%
%TO.N,BUS_3*%
X276620000Y-28260000D03*
%TO.P,U19,13,D1*%
%TO.N,BUS_2*%
X276620000Y-30800000D03*
%TO.P,U19,12,D2*%
%TO.N,BUS_1*%
X276620000Y-33340000D03*
%TO.P,U19,11,D3*%
%TO.N,BUS_0*%
X276620000Y-35880000D03*
%TO.P,U19,10,E2*%
%TO.N,~{MI}*%
X276620000Y-38420000D03*
%TO.P,U19,9,E1*%
X276620000Y-40960000D03*
%TO.P,U19,8,GND*%
%TO.N,GND*%
X269000000Y-40960000D03*
%TO.P,U19,7,Cp*%
%TO.N,CLK*%
X269000000Y-38420000D03*
%TO.P,U19,6,Q3*%
%TO.N,/MAR/PROG*%
X269000000Y-35880000D03*
%TO.P,U19,5,Q2*%
X269000000Y-33340000D03*
%TO.P,U19,4,Q1*%
X269000000Y-30800000D03*
%TO.P,U19,3,Q0*%
X269000000Y-28260000D03*
%TO.P,U19,2,Oe2*%
%TO.N,GND*%
X269000000Y-25720000D03*
D14*
%TO.P,U19,1,Oe1*%
X269000000Y-23180000D03*
%TD*%
D12*
%TO.P,C118,2*%
%TO.N,GND*%
X201817100Y-54712300D03*
%TO.P,C118,1*%
%TO.N,VCC*%
X199817100Y-54712300D03*
%TD*%
D11*
%TO.P,U10,14,VCC*%
%TO.N,VCC*%
X306120000Y-45680000D03*
%TO.P,U10,13*%
%TO.N,unconnected-(U10-Pad13)*%
X306120000Y-48220000D03*
%TO.P,U10,12*%
%TO.N,unconnected-(U10-Pad12)*%
X306120000Y-50760000D03*
%TO.P,U10,11*%
%TO.N,unconnected-(U10-Pad11)*%
X306120000Y-53300000D03*
%TO.P,U10,10*%
%TO.N,Net-(U10-Pad10)*%
X306120000Y-55840000D03*
%TO.P,U10,9*%
%TO.N,Net-(U10-Pad9)*%
X306120000Y-58380000D03*
%TO.P,U10,8*%
%TO.N,Net-(U10-Pad4)*%
X306120000Y-60920000D03*
%TO.P,U10,7,GND*%
%TO.N,GND*%
X298500000Y-60920000D03*
%TO.P,U10,6*%
%TO.N,Net-(U12-D1)*%
X298500000Y-58380000D03*
%TO.P,U10,5*%
%TO.N,Net-(U10-Pad3)*%
X298500000Y-55840000D03*
%TO.P,U10,4*%
%TO.N,Net-(U10-Pad4)*%
X298500000Y-53300000D03*
%TO.P,U10,3*%
%TO.N,Net-(U10-Pad3)*%
X298500000Y-50760000D03*
%TO.P,U10,2*%
%TO.N,Net-(U10-Pad2)*%
X298500000Y-48220000D03*
D10*
%TO.P,U10,1*%
%TO.N,Net-(U10-Pad1)*%
X298500000Y-45680000D03*
%TD*%
D24*
%TO.P,SW7,3,C*%
%TO.N,VCC*%
X115266400Y-158879100D03*
%TO.P,SW7,2,B*%
%TO.N,Net-(SW7-B)*%
X113266400Y-158879100D03*
D25*
%TO.P,SW7,1,A*%
%TO.N,Net-(SW7-A)*%
X111266400Y-158879100D03*
D26*
%TO.P,SW7,*%
%TO.N,*%
X117366400Y-158879100D03*
X109166400Y-158879100D03*
%TD*%
D11*
%TO.P,R88,2*%
%TO.N,GND*%
X182500000Y-27300000D03*
%TO.P,R88,1*%
%TO.N,Net-(D117-K)*%
X182500000Y-34920000D03*
%TD*%
D13*
%TO.P,U11,14,VCC*%
%TO.N,VCC*%
X274468400Y-70180000D03*
%TO.P,U11,13*%
%TO.N,Net-(U10-Pad9)*%
X274468400Y-72720000D03*
%TO.P,U11,12*%
%TO.N,Net-(D19-A)*%
X274468400Y-75260000D03*
%TO.P,U11,11*%
%TO.N,Net-(D18-A)*%
X274468400Y-77800000D03*
%TO.P,U11,10*%
%TO.N,Net-(U10-Pad10)*%
X274468400Y-80340000D03*
%TO.P,U11,9*%
%TO.N,Net-(D17-A)*%
X274468400Y-82880000D03*
%TO.P,U11,8*%
%TO.N,Net-(D16-A)*%
X274468400Y-85420000D03*
%TO.P,U11,7,GND*%
%TO.N,GND*%
X266848400Y-85420000D03*
%TO.P,U11,6*%
%TO.N,Net-(D15-A)*%
X266848400Y-82880000D03*
%TO.P,U11,5*%
%TO.N,Net-(D13-A)*%
X266848400Y-80340000D03*
%TO.P,U11,4*%
%TO.N,Net-(U10-Pad1)*%
X266848400Y-77800000D03*
%TO.P,U11,3*%
%TO.N,Net-(D12-A)*%
X266848400Y-75260000D03*
%TO.P,U11,2*%
%TO.N,Net-(D11-A)*%
X266848400Y-72720000D03*
D14*
%TO.P,U11,1*%
%TO.N,Net-(U10-Pad2)*%
X266848400Y-70180000D03*
%TD*%
D19*
%TO.P,SW1,2,2*%
%TO.N,Net-(U2-TR)*%
X289567100Y-135662300D03*
X283067100Y-135662300D03*
%TO.P,SW1,1,1*%
%TO.N,GND*%
X289567100Y-131162300D03*
X283067100Y-131162300D03*
%TD*%
D15*
%TO.P,D28,2,A*%
%TO.N,Net-(D28-A)*%
X192660000Y-161420000D03*
D16*
%TO.P,D28,1,K*%
%TO.N,Net-(D28-K)*%
X190120000Y-161420000D03*
%TD*%
D11*
%TO.P,R58,2*%
%TO.N,VCC*%
X105412100Y-91242300D03*
%TO.P,R58,1*%
%TO.N,Net-(D56-A)*%
X105412100Y-98862300D03*
%TD*%
%TO.P,R59,2*%
%TO.N,VCC*%
X99912100Y-91052300D03*
%TO.P,R59,1*%
%TO.N,Net-(D55-A)*%
X99912100Y-98672300D03*
%TD*%
%TO.P,R2,2*%
%TO.N,Net-(R2-Pad2)*%
X317165000Y-111540000D03*
%TO.P,R2,1*%
%TO.N,Net-(U1-DIS)*%
X309545000Y-111540000D03*
%TD*%
D15*
%TO.P,D40,2,A*%
%TO.N,RI*%
X54767100Y-122412300D03*
D16*
%TO.P,D40,1,K*%
%TO.N,Net-(D40-K)*%
X52227100Y-122412300D03*
%TD*%
D11*
%TO.P,C4,2*%
%TO.N,Net-(U3-CV)*%
X293317100Y-136662300D03*
%TO.P,C4,1*%
%TO.N,GND*%
X293317100Y-134162300D03*
%TD*%
%TO.P,R93,2*%
%TO.N,GND*%
X324210000Y-65110000D03*
%TO.P,R93,1*%
%TO.N,Net-(D024-K)*%
X324210000Y-72730000D03*
%TD*%
D15*
%TO.P,D2,2,A*%
%TO.N,/ALU/A_7*%
X198967100Y-81162300D03*
D16*
%TO.P,D2,1,K*%
%TO.N,Net-(D2-K)*%
X201507100Y-81162300D03*
%TD*%
D11*
%TO.P,R86,2*%
%TO.N,GND*%
X172500000Y-27300000D03*
%TO.P,R86,1*%
%TO.N,Net-(D115-K)*%
X172500000Y-34920000D03*
%TD*%
D15*
%TO.P,D47,2,A*%
%TO.N,SU*%
X89817100Y-122412300D03*
D16*
%TO.P,D47,1,K*%
%TO.N,Net-(D47-K)*%
X87277100Y-122412300D03*
%TD*%
D11*
%TO.P,U34,10,G*%
%TO.N,Net-(U34-G)*%
X67586400Y-130639100D03*
%TO.P,U34,9,F*%
%TO.N,Net-(U34-F)*%
X70126400Y-130639100D03*
%TO.P,U34,8,CC*%
%TO.N,Net-(U33A-O3)*%
X72666400Y-130639100D03*
%TO.P,U34,7,A*%
%TO.N,Net-(U34-A)*%
X75206400Y-130639100D03*
%TO.P,U34,6,B*%
%TO.N,Net-(U34-B)*%
X77746400Y-130639100D03*
%TO.P,U34,5,DP*%
%TO.N,Net-(U34-DP)*%
X77746400Y-145879100D03*
%TO.P,U34,4,C*%
%TO.N,Net-(U34-C)*%
X75206400Y-145879100D03*
%TO.P,U34,3,CC*%
%TO.N,Net-(U33A-O3)*%
X72666400Y-145879100D03*
%TO.P,U34,2,D*%
%TO.N,Net-(U34-D)*%
X70126400Y-145879100D03*
D20*
%TO.P,U34,1,E*%
%TO.N,Net-(U34-E)*%
X67586400Y-145879100D03*
%TD*%
D22*
%TO.P,U25,20,VCC*%
%TO.N,VCC*%
X187760000Y-146300000D03*
%TO.P,U25,19,CE*%
%TO.N,~{RO}*%
X190300000Y-146300000D03*
%TO.P,U25,18,B0*%
%TO.N,BUS_7*%
X192840000Y-146300000D03*
%TO.P,U25,17,B1*%
%TO.N,BUS_6*%
X195380000Y-146300000D03*
%TO.P,U25,16,B2*%
%TO.N,BUS_5*%
X197920000Y-146300000D03*
%TO.P,U25,15,B3*%
%TO.N,BUS_4*%
X200460000Y-146300000D03*
%TO.P,U25,14,B4*%
%TO.N,BUS_3*%
X203000000Y-146300000D03*
%TO.P,U25,13,B5*%
%TO.N,BUS_2*%
X205540000Y-146300000D03*
%TO.P,U25,12,B6*%
%TO.N,BUS_1*%
X208080000Y-146300000D03*
%TO.P,U25,11,B7*%
%TO.N,BUS_0*%
X210620000Y-146300000D03*
%TO.P,U25,10,GND*%
%TO.N,GND*%
X210620000Y-153920000D03*
%TO.P,U25,9,A7*%
%TO.N,Net-(D33-A)*%
X208080000Y-153920000D03*
%TO.P,U25,8,A6*%
%TO.N,Net-(D32-A)*%
X205540000Y-153920000D03*
%TO.P,U25,7,A5*%
%TO.N,Net-(D31-A)*%
X203000000Y-153920000D03*
%TO.P,U25,6,A4*%
%TO.N,Net-(D30-A)*%
X200460000Y-153920000D03*
%TO.P,U25,5,A3*%
%TO.N,Net-(D29-A)*%
X197920000Y-153920000D03*
%TO.P,U25,4,A2*%
%TO.N,Net-(D28-A)*%
X195380000Y-153920000D03*
%TO.P,U25,3,A1*%
%TO.N,Net-(D27-A)*%
X192840000Y-153920000D03*
%TO.P,U25,2,A0*%
%TO.N,Net-(D26-A)*%
X190300000Y-153920000D03*
D23*
%TO.P,U25,1,A->B*%
%TO.N,VCC*%
X187760000Y-153920000D03*
%TD*%
D15*
%TO.P,D026,2,A*%
%TO.N,/ALU/B_3*%
X317000000Y-78920000D03*
D16*
%TO.P,D026,1,K*%
%TO.N,Net-(D026-K)*%
X314460000Y-78920000D03*
%TD*%
D11*
%TO.P,R98,2*%
%TO.N,GND*%
X299460000Y-65050000D03*
%TO.P,R98,1*%
%TO.N,Net-(D029-K)*%
X299460000Y-72670000D03*
%TD*%
%TO.P,R34,2*%
%TO.N,Net-(D35-K)*%
X163990000Y-84170000D03*
%TO.P,R34,1*%
%TO.N,GND*%
X163990000Y-91790000D03*
%TD*%
%TO.P,R102,2*%
%TO.N,GND*%
X216567100Y-93282300D03*
%TO.P,R102,1*%
%TO.N,Net-(D5-K)*%
X216567100Y-85662300D03*
%TD*%
D22*
%TO.P,U48,20,VCC*%
%TO.N,VCC*%
X205957100Y-64662300D03*
%TO.P,U48,19,CE*%
%TO.N,~{AO}*%
X208497100Y-64662300D03*
%TO.P,U48,18,B0*%
%TO.N,BUS_7*%
X211037100Y-64662300D03*
%TO.P,U48,17,B1*%
%TO.N,BUS_6*%
X213577100Y-64662300D03*
%TO.P,U48,16,B2*%
%TO.N,BUS_5*%
X216117100Y-64662300D03*
%TO.P,U48,15,B3*%
%TO.N,BUS_4*%
X218657100Y-64662300D03*
%TO.P,U48,14,B4*%
%TO.N,BUS_3*%
X221197100Y-64662300D03*
%TO.P,U48,13,B5*%
%TO.N,BUS_2*%
X223737100Y-64662300D03*
%TO.P,U48,12,B6*%
%TO.N,BUS_1*%
X226277100Y-64662300D03*
%TO.P,U48,11,B7*%
%TO.N,BUS_0*%
X228817100Y-64662300D03*
%TO.P,U48,10,GND*%
%TO.N,GND*%
X228817100Y-72282300D03*
%TO.P,U48,9,A7*%
%TO.N,/ALU/A_3*%
X226277100Y-72282300D03*
%TO.P,U48,8,A6*%
%TO.N,/ALU/A_2*%
X223737100Y-72282300D03*
%TO.P,U48,7,A5*%
%TO.N,/ALU/A_1*%
X221197100Y-72282300D03*
%TO.P,U48,6,A4*%
%TO.N,/ALU/A_0*%
X218657100Y-72282300D03*
%TO.P,U48,5,A3*%
%TO.N,/ALU/A_7*%
X216117100Y-72282300D03*
%TO.P,U48,4,A2*%
%TO.N,/ALU/A_6*%
X213577100Y-72282300D03*
%TO.P,U48,3,A1*%
%TO.N,/ALU/A_5*%
X211037100Y-72282300D03*
%TO.P,U48,2,A0*%
%TO.N,/ALU/A_4*%
X208497100Y-72282300D03*
D23*
%TO.P,U48,1,A->B*%
%TO.N,VCC*%
X205957100Y-72282300D03*
%TD*%
D15*
%TO.P,D029,2,A*%
%TO.N,/ALU/B_0*%
X301980000Y-78920000D03*
D16*
%TO.P,D029,1,K*%
%TO.N,Net-(D029-K)*%
X299440000Y-78920000D03*
%TD*%
D11*
%TO.P,R28,2*%
%TO.N,GND*%
X200620000Y-173920000D03*
%TO.P,R28,1*%
%TO.N,Net-(D30-K)*%
X200620000Y-166300000D03*
%TD*%
D13*
%TO.P,U26,14,VCC*%
%TO.N,VCC*%
X213081600Y-105325000D03*
%TO.P,U26,13*%
%TO.N,~{CLR}*%
X213081600Y-107865000D03*
%TO.P,U26,12*%
X213081600Y-110405000D03*
%TO.P,U26,11*%
%TO.N,CLR*%
X213081600Y-112945000D03*
%TO.P,U26,10*%
%TO.N,Net-(R64-Pad1)*%
X213081600Y-115485000D03*
%TO.P,U26,9*%
X213081600Y-118025000D03*
%TO.P,U26,8*%
%TO.N,~{CLR}*%
X213081600Y-120565000D03*
%TO.P,U26,7,GND*%
%TO.N,GND*%
X205461600Y-120565000D03*
%TO.P,U26,6*%
%TO.N,Net-(U26-Pad6)*%
X205461600Y-118025000D03*
%TO.P,U26,5*%
%TO.N,Net-(U42-O5)*%
X205461600Y-115485000D03*
%TO.P,U26,4*%
%TO.N,~{CLR}*%
X205461600Y-112945000D03*
%TO.P,U26,3*%
%TO.N,Net-(U51-I1c)*%
X205461600Y-110405000D03*
%TO.P,U26,2*%
%TO.N,RI*%
X205461600Y-107865000D03*
D14*
%TO.P,U26,1*%
%TO.N,Net-(C14-Pad2)*%
X205461600Y-105325000D03*
%TD*%
D15*
%TO.P,D1,2,A*%
%TO.N,CLK*%
X273837100Y-134912300D03*
D16*
%TO.P,D1,1,K*%
%TO.N,Net-(D1-K)*%
X271297100Y-134912300D03*
%TD*%
D15*
%TO.P,D9,2,A*%
%TO.N,/ALU/A_0*%
X234047100Y-81162300D03*
D16*
%TO.P,D9,1,K*%
%TO.N,Net-(D9-K)*%
X236587100Y-81162300D03*
%TD*%
D15*
%TO.P,D113,2,A*%
%TO.N,IR_6*%
X165020000Y-39920000D03*
D16*
%TO.P,D113,1,K*%
%TO.N,Net-(D113-K)*%
X162480000Y-39920000D03*
%TD*%
D22*
%TO.P,U17,20,VCC*%
%TO.N,VCC*%
X252737100Y-90792300D03*
%TO.P,U17,19,CE*%
%TO.N,~{EO}*%
X255277100Y-90792300D03*
%TO.P,U17,18,B0*%
%TO.N,BUS_7*%
X257817100Y-90792300D03*
%TO.P,U17,17,B1*%
%TO.N,BUS_6*%
X260357100Y-90792300D03*
%TO.P,U17,16,B2*%
%TO.N,BUS_5*%
X262897100Y-90792300D03*
%TO.P,U17,15,B3*%
%TO.N,BUS_4*%
X265437100Y-90792300D03*
%TO.P,U17,14,B4*%
%TO.N,BUS_3*%
X267977100Y-90792300D03*
%TO.P,U17,13,B5*%
%TO.N,BUS_2*%
X270517100Y-90792300D03*
%TO.P,U17,12,B6*%
%TO.N,BUS_1*%
X273057100Y-90792300D03*
%TO.P,U17,11,B7*%
%TO.N,BUS_0*%
X275597100Y-90792300D03*
%TO.P,U17,10,GND*%
%TO.N,GND*%
X275597100Y-98412300D03*
%TO.P,U17,9,A7*%
%TO.N,Net-(D19-A)*%
X273057100Y-98412300D03*
%TO.P,U17,8,A6*%
%TO.N,Net-(D18-A)*%
X270517100Y-98412300D03*
%TO.P,U17,7,A5*%
%TO.N,Net-(D17-A)*%
X267977100Y-98412300D03*
%TO.P,U17,6,A4*%
%TO.N,Net-(D16-A)*%
X265437100Y-98412300D03*
%TO.P,U17,5,A3*%
%TO.N,Net-(D15-A)*%
X262897100Y-98412300D03*
%TO.P,U17,4,A2*%
%TO.N,Net-(D13-A)*%
X260357100Y-98412300D03*
%TO.P,U17,3,A1*%
%TO.N,Net-(D12-A)*%
X257817100Y-98412300D03*
%TO.P,U17,2,A0*%
%TO.N,Net-(D11-A)*%
X255277100Y-98412300D03*
D23*
%TO.P,U17,1,A->B*%
%TO.N,VCC*%
X252737100Y-98412300D03*
%TD*%
D12*
%TO.P,C22,2*%
%TO.N,GND*%
X200067100Y-74282300D03*
%TO.P,C22,1*%
%TO.N,VCC*%
X202067100Y-74282300D03*
%TD*%
D13*
%TO.P,U18,16,VCC*%
%TO.N,VCC*%
X219800000Y-28920000D03*
%TO.P,U18,15,E*%
%TO.N,GND*%
X222340000Y-28920000D03*
%TO.P,U18,14,I0d*%
%TO.N,/MAR/PROG*%
X224880000Y-28920000D03*
%TO.P,U18,13,I1d*%
X227420000Y-28920000D03*
%TO.P,U18,12,Zd*%
%TO.N,/MAR/A0*%
X229960000Y-28920000D03*
%TO.P,U18,11,I0c*%
%TO.N,/MAR/PROG*%
X232500000Y-28920000D03*
%TO.P,U18,10,I1c*%
X235040000Y-28920000D03*
%TO.P,U18,9,Zc*%
%TO.N,/MAR/A1*%
X237580000Y-28920000D03*
%TO.P,U18,8,GND*%
%TO.N,GND*%
X237580000Y-36540000D03*
%TO.P,U18,7,Zb*%
%TO.N,/MAR/A2*%
X235040000Y-36540000D03*
%TO.P,U18,6,I1b*%
%TO.N,/MAR/PROG*%
X232500000Y-36540000D03*
%TO.P,U18,5,I0b*%
X229960000Y-36540000D03*
%TO.P,U18,4,Za*%
%TO.N,/MAR/A3*%
X227420000Y-36540000D03*
%TO.P,U18,3,I1a*%
%TO.N,/MAR/PROG*%
X224880000Y-36540000D03*
%TO.P,U18,2,I0a*%
X222340000Y-36540000D03*
D14*
%TO.P,U18,1,S*%
X219800000Y-36540000D03*
%TD*%
D11*
%TO.P,R18,2*%
%TO.N,Net-(D24-A)*%
X243250000Y-28130000D03*
%TO.P,R18,1*%
%TO.N,VCC*%
X243250000Y-35750000D03*
%TD*%
%TO.P,R101,2*%
%TO.N,GND*%
X211567100Y-93282300D03*
%TO.P,R101,1*%
%TO.N,Net-(D4-K)*%
X211567100Y-85662300D03*
%TD*%
D12*
%TO.P,C12,2*%
%TO.N,GND*%
X239977100Y-105547300D03*
%TO.P,C12,1*%
%TO.N,VCC*%
X237977100Y-105547300D03*
%TD*%
D15*
%TO.P,D5,2,A*%
%TO.N,/ALU/A_4*%
X214027100Y-81162300D03*
D16*
%TO.P,D5,1,K*%
%TO.N,Net-(D5-K)*%
X216567100Y-81162300D03*
%TD*%
D11*
%TO.P,R51,2*%
%TO.N,GND*%
X97817100Y-109792300D03*
%TO.P,R51,1*%
%TO.N,Net-(D49-K)*%
X97817100Y-117412300D03*
%TD*%
%TO.P,R54,2*%
%TO.N,GND*%
X112817100Y-109912300D03*
%TO.P,R54,1*%
%TO.N,Net-(D52-K)*%
X112817100Y-117532300D03*
%TD*%
%TO.P,C1,2*%
%TO.N,Net-(U1-CV)*%
X304067100Y-121662300D03*
%TO.P,C1,1*%
%TO.N,GND*%
X304067100Y-119162300D03*
%TD*%
D19*
%TO.P,SW8,2,2*%
%TO.N,VCC*%
X91750000Y-74750000D03*
X85250000Y-74750000D03*
%TO.P,SW8,1,1*%
%TO.N,Net-(R64-Pad1)*%
X91750000Y-70250000D03*
X85250000Y-70250000D03*
%TD*%
D11*
%TO.P,R25,2*%
%TO.N,GND*%
X185120000Y-173920000D03*
%TO.P,R25,1*%
%TO.N,Net-(D27-K)*%
X185120000Y-166300000D03*
%TD*%
%TO.P,SW3,8*%
%TO.N,GND*%
X264500000Y-32630000D03*
%TO.P,SW3,7*%
X264500000Y-35170000D03*
%TO.P,SW3,6*%
%TO.N,/MAR/PROG*%
X264500000Y-37710000D03*
%TO.P,SW3,5*%
X264500000Y-40250000D03*
%TO.P,SW3,4*%
%TO.N,GND*%
X256880000Y-40250000D03*
%TO.P,SW3,3*%
X256880000Y-37710000D03*
%TO.P,SW3,2*%
%TO.N,/MAR/PROG*%
X256880000Y-35170000D03*
D10*
%TO.P,SW3,1*%
X256880000Y-32630000D03*
%TD*%
D15*
%TO.P,D39,2,A*%
%TO.N,Net-(D39-A)*%
X49777100Y-122412300D03*
D16*
%TO.P,D39,1,K*%
%TO.N,Net-(D39-K)*%
X47237100Y-122412300D03*
%TD*%
D11*
%TO.P,R46,2*%
%TO.N,GND*%
X72317100Y-109792300D03*
%TO.P,R46,1*%
%TO.N,Net-(D44-K)*%
X72317100Y-117412300D03*
%TD*%
%TO.P,R103,2*%
%TO.N,GND*%
X221567100Y-93282300D03*
%TO.P,R103,1*%
%TO.N,Net-(D6-K)*%
X221567100Y-85662300D03*
%TD*%
%TO.P,R30,2*%
%TO.N,GND*%
X210120000Y-173730000D03*
%TO.P,R30,1*%
%TO.N,Net-(D32-K)*%
X210120000Y-166110000D03*
%TD*%
%TO.P,R50,2*%
%TO.N,GND*%
X92317100Y-109792300D03*
%TO.P,R50,1*%
%TO.N,Net-(D48-K)*%
X92317100Y-117412300D03*
%TD*%
D24*
%TO.P,SW4,3,C*%
%TO.N,Net-(D25-K)*%
X257000000Y-23500000D03*
%TO.P,SW4,2,B*%
%TO.N,GND*%
X259000000Y-23500000D03*
D25*
%TO.P,SW4,1,A*%
%TO.N,/MAR/PROG*%
X261000000Y-23500000D03*
D26*
%TO.P,SW4,*%
%TO.N,*%
X254900000Y-23500000D03*
X263100000Y-23500000D03*
%TD*%
D13*
%TO.P,U28,14,VCC*%
%TO.N,VCC*%
X234233200Y-105325000D03*
%TO.P,U28,13*%
%TO.N,Net-(D43-A)*%
X234233200Y-107865000D03*
%TO.P,U28,12*%
%TO.N,~{II}*%
X234233200Y-110405000D03*
%TO.P,U28,11*%
%TO.N,Net-(D44-A)*%
X234233200Y-112945000D03*
%TO.P,U28,10*%
%TO.N,~{AI}*%
X234233200Y-115485000D03*
%TO.P,U28,9*%
%TO.N,Net-(D45-A)*%
X234233200Y-118025000D03*
%TO.P,U28,8*%
%TO.N,~{AO}*%
X234233200Y-120565000D03*
%TO.P,U28,7,GND*%
%TO.N,GND*%
X226613200Y-120565000D03*
%TO.P,U28,6*%
%TO.N,~{IO}*%
X226613200Y-118025000D03*
%TO.P,U28,5*%
%TO.N,Net-(D42-A)*%
X226613200Y-115485000D03*
%TO.P,U28,4*%
%TO.N,Net-(D33-A)*%
X226613200Y-112945000D03*
%TO.P,U28,3*%
%TO.N,Net-(U23-\u002AO0)*%
X226613200Y-110405000D03*
%TO.P,U28,2*%
%TO.N,Net-(D32-A)*%
X226613200Y-107865000D03*
D14*
%TO.P,U28,1*%
%TO.N,Net-(U23-\u002AO1)*%
X226613200Y-105325000D03*
%TD*%
D22*
%TO.P,U117,20,VCC*%
%TO.N,VCC*%
X168570000Y-45110000D03*
%TO.P,U117,19,CE*%
%TO.N,~{IO}*%
X171110000Y-45110000D03*
%TO.P,U117,18,B0*%
%TO.N,BUS_7*%
X173650000Y-45110000D03*
%TO.P,U117,17,B1*%
%TO.N,BUS_6*%
X176190000Y-45110000D03*
%TO.P,U117,16,B2*%
%TO.N,BUS_5*%
X178730000Y-45110000D03*
%TO.P,U117,15,B3*%
%TO.N,BUS_4*%
X181270000Y-45110000D03*
%TO.P,U117,14,B4*%
%TO.N,BUS_3*%
X183810000Y-45110000D03*
%TO.P,U117,13,B5*%
%TO.N,BUS_2*%
X186350000Y-45110000D03*
%TO.P,U117,12,B6*%
%TO.N,BUS_1*%
X188890000Y-45110000D03*
%TO.P,U117,11,B7*%
%TO.N,BUS_0*%
X191430000Y-45110000D03*
%TO.P,U117,10,GND*%
%TO.N,GND*%
X191430000Y-52730000D03*
%TO.P,U117,9,A7*%
%TO.N,Net-(D116-A)*%
X188890000Y-52730000D03*
%TO.P,U117,8,A6*%
%TO.N,Net-(D117-A)*%
X186350000Y-52730000D03*
%TO.P,U117,7,A5*%
%TO.N,Net-(D118-A)*%
X183810000Y-52730000D03*
%TO.P,U117,6,A4*%
%TO.N,Net-(D119-A)*%
X181270000Y-52730000D03*
%TO.P,U117,5,A3*%
%TO.N,IR_7*%
X178730000Y-52730000D03*
%TO.P,U117,4,A2*%
%TO.N,IR_6*%
X176190000Y-52730000D03*
%TO.P,U117,3,A1*%
%TO.N,IR_5*%
X173650000Y-52730000D03*
%TO.P,U117,2,A0*%
%TO.N,IR_4*%
X171110000Y-52730000D03*
D23*
%TO.P,U117,1,A->B*%
%TO.N,VCC*%
X168570000Y-52730000D03*
%TD*%
D11*
%TO.P,R106,2*%
%TO.N,GND*%
X236817100Y-93532300D03*
%TO.P,R106,1*%
%TO.N,Net-(D9-K)*%
X236817100Y-85912300D03*
%TD*%
%TO.P,R92,2*%
%TO.N,GND*%
X329460000Y-65110000D03*
%TO.P,R92,1*%
%TO.N,Net-(D023-K)*%
X329460000Y-72730000D03*
%TD*%
D15*
%TO.P,D60,2,A*%
%TO.N,Net-(D60-A)*%
X111452100Y-86552300D03*
D16*
%TO.P,D60,1,K*%
%TO.N,Net-(D60-K)*%
X108912100Y-86552300D03*
%TD*%
D13*
%TO.P,U15,14,VCC*%
%TO.N,VCC*%
X285044200Y-70180000D03*
%TO.P,U15,13*%
%TO.N,SU*%
X285044200Y-72720000D03*
%TO.P,U15,12*%
%TO.N,/ALU/B_6*%
X285044200Y-75260000D03*
%TO.P,U15,11*%
%TO.N,Net-(U13-B3)*%
X285044200Y-77800000D03*
%TO.P,U15,10*%
%TO.N,SU*%
X285044200Y-80340000D03*
%TO.P,U15,9*%
%TO.N,/ALU/B_7*%
X285044200Y-82880000D03*
%TO.P,U15,8*%
%TO.N,Net-(U13-B4)*%
X285044200Y-85420000D03*
%TO.P,U15,7,GND*%
%TO.N,GND*%
X277424200Y-85420000D03*
%TO.P,U15,6*%
%TO.N,Net-(U13-B1)*%
X277424200Y-82880000D03*
%TO.P,U15,5*%
%TO.N,SU*%
X277424200Y-80340000D03*
%TO.P,U15,4*%
%TO.N,/ALU/B_4*%
X277424200Y-77800000D03*
%TO.P,U15,3*%
%TO.N,Net-(U13-B2)*%
X277424200Y-75260000D03*
%TO.P,U15,2*%
%TO.N,SU*%
X277424200Y-72720000D03*
D14*
%TO.P,U15,1*%
%TO.N,/ALU/B_5*%
X277424200Y-70180000D03*
%TD*%
D15*
%TO.P,D16,2,A*%
%TO.N,Net-(D16-A)*%
X269507100Y-103852300D03*
D16*
%TO.P,D16,1,K*%
%TO.N,Net-(D16-K)*%
X266967100Y-103852300D03*
%TD*%
D11*
%TO.P,R99,2*%
%TO.N,GND*%
X201567100Y-93282300D03*
%TO.P,R99,1*%
%TO.N,Net-(D2-K)*%
X201567100Y-85662300D03*
%TD*%
D15*
%TO.P,D18,2,A*%
%TO.N,Net-(D18-A)*%
X279257100Y-103852300D03*
D16*
%TO.P,D18,1,K*%
%TO.N,Net-(D18-K)*%
X276717100Y-103852300D03*
%TD*%
D11*
%TO.P,R26,2*%
%TO.N,GND*%
X190120000Y-173730000D03*
%TO.P,R26,1*%
%TO.N,Net-(D28-K)*%
X190120000Y-166110000D03*
%TD*%
D13*
%TO.P,U46,14,VCC*%
%TO.N,VCC*%
X140412100Y-31392300D03*
%TO.P,U46,13*%
%TO.N,Net-(D51-A)*%
X140412100Y-33932300D03*
%TO.P,U46,12*%
%TO.N,~{CO}*%
X140412100Y-36472300D03*
%TO.P,U46,11*%
%TO.N,Net-(D52-A)*%
X140412100Y-39012300D03*
%TO.P,U46,10*%
%TO.N,~{J}*%
X140412100Y-41552300D03*
%TO.P,U46,9*%
%TO.N,unconnected-(U46-Pad9)*%
X140412100Y-44092300D03*
%TO.P,U46,8*%
%TO.N,unconnected-(U46-Pad8)*%
X140412100Y-46632300D03*
%TO.P,U46,7,GND*%
%TO.N,GND*%
X132792100Y-46632300D03*
%TO.P,U46,6*%
%TO.N,~{FI}*%
X132792100Y-44092300D03*
%TO.P,U46,5*%
%TO.N,Net-(D53-A)*%
X132792100Y-41552300D03*
%TO.P,U46,4*%
%TO.N,~{RO}*%
X132792100Y-39012300D03*
%TO.P,U46,3*%
%TO.N,Net-(D41-A)*%
X132792100Y-36472300D03*
%TO.P,U46,2*%
%TO.N,~{MI}*%
X132792100Y-33932300D03*
D14*
%TO.P,U46,1*%
%TO.N,Net-(D39-A)*%
X132792100Y-31392300D03*
%TD*%
D11*
%TO.P,R45,2*%
%TO.N,GND*%
X67317100Y-109792300D03*
%TO.P,R45,1*%
%TO.N,Net-(D43-K)*%
X67317100Y-117412300D03*
%TD*%
D15*
%TO.P,D64,2,A*%
%TO.N,BUS_2*%
X58500000Y-94150000D03*
D16*
%TO.P,D64,1,K*%
%TO.N,Net-(D64-K)*%
X58500000Y-96690000D03*
%TD*%
D15*
%TO.P,D3,2,A*%
%TO.N,/ALU/A_6*%
X204007100Y-81162300D03*
D16*
%TO.P,D3,1,K*%
%TO.N,Net-(D3-K)*%
X206547100Y-81162300D03*
%TD*%
D11*
%TO.P,R68,2*%
%TO.N,GND*%
X45927700Y-91657100D03*
%TO.P,R68,1*%
%TO.N,Net-(D65-K)*%
X53547700Y-91657100D03*
%TD*%
D15*
%TO.P,D65,2,A*%
%TO.N,BUS_3*%
X58500000Y-89150000D03*
D16*
%TO.P,D65,1,K*%
%TO.N,Net-(D65-K)*%
X58500000Y-91690000D03*
%TD*%
D22*
%TO.P,U7,20,VCC*%
%TO.N,VCC*%
X324650000Y-91300000D03*
%TO.P,U7,19,CE*%
X322110000Y-91300000D03*
%TO.P,U7,18,B0*%
%TO.N,BUS_7*%
X319570000Y-91300000D03*
%TO.P,U7,17,B1*%
%TO.N,BUS_6*%
X317030000Y-91300000D03*
%TO.P,U7,16,B2*%
%TO.N,BUS_5*%
X314490000Y-91300000D03*
%TO.P,U7,15,B3*%
%TO.N,BUS_4*%
X311950000Y-91300000D03*
%TO.P,U7,14,B4*%
%TO.N,BUS_3*%
X309410000Y-91300000D03*
%TO.P,U7,13,B5*%
%TO.N,BUS_2*%
X306870000Y-91300000D03*
%TO.P,U7,12,B6*%
%TO.N,BUS_1*%
X304330000Y-91300000D03*
%TO.P,U7,11,B7*%
%TO.N,BUS_0*%
X301790000Y-91300000D03*
%TO.P,U7,10,GND*%
%TO.N,GND*%
X301790000Y-83680000D03*
%TO.P,U7,9,A7*%
%TO.N,/ALU/B_3*%
X304330000Y-83680000D03*
%TO.P,U7,8,A6*%
%TO.N,/ALU/B_2*%
X306870000Y-83680000D03*
%TO.P,U7,7,A5*%
%TO.N,/ALU/B_1*%
X309410000Y-83680000D03*
%TO.P,U7,6,A4*%
%TO.N,/ALU/B_0*%
X311950000Y-83680000D03*
%TO.P,U7,5,A3*%
%TO.N,/ALU/B_7*%
X314490000Y-83680000D03*
%TO.P,U7,4,A2*%
%TO.N,/ALU/B_6*%
X317030000Y-83680000D03*
%TO.P,U7,3,A1*%
%TO.N,/ALU/B_5*%
X319570000Y-83680000D03*
%TO.P,U7,2,A0*%
%TO.N,/ALU/B_4*%
X322110000Y-83680000D03*
D23*
%TO.P,U7,1,A->B*%
%TO.N,VCC*%
X324650000Y-83680000D03*
%TD*%
D15*
%TO.P,D35,2,A*%
%TO.N,Net-(D35-A)*%
X166500000Y-79420000D03*
D16*
%TO.P,D35,1,K*%
%TO.N,Net-(D35-K)*%
X163960000Y-79420000D03*
%TD*%
D13*
%TO.P,U9,16,VCC*%
%TO.N,VCC*%
X332580000Y-101420000D03*
%TO.P,U9,15,Mr*%
%TO.N,CLR*%
X330040000Y-101420000D03*
%TO.P,U9,14,D0*%
%TO.N,BUS_3*%
X327500000Y-101420000D03*
%TO.P,U9,13,D1*%
%TO.N,BUS_2*%
X324960000Y-101420000D03*
%TO.P,U9,12,D2*%
%TO.N,BUS_1*%
X322420000Y-101420000D03*
%TO.P,U9,11,D3*%
%TO.N,BUS_0*%
X319880000Y-101420000D03*
%TO.P,U9,10,E2*%
%TO.N,~{BI}*%
X317340000Y-101420000D03*
%TO.P,U9,9,E1*%
X314800000Y-101420000D03*
%TO.P,U9,8,GND*%
%TO.N,GND*%
X314800000Y-93800000D03*
%TO.P,U9,7,Cp*%
%TO.N,CLK*%
X317340000Y-93800000D03*
%TO.P,U9,6,Q3*%
%TO.N,/ALU/B_0*%
X319880000Y-93800000D03*
%TO.P,U9,5,Q2*%
%TO.N,/ALU/B_1*%
X322420000Y-93800000D03*
%TO.P,U9,4,Q1*%
%TO.N,/ALU/B_2*%
X324960000Y-93800000D03*
%TO.P,U9,3,Q0*%
%TO.N,/ALU/B_3*%
X327500000Y-93800000D03*
%TO.P,U9,2,Oe2*%
%TO.N,GND*%
X330040000Y-93800000D03*
D14*
%TO.P,U9,1,Oe1*%
X332580000Y-93800000D03*
%TD*%
D15*
%TO.P,D49,2,A*%
%TO.N,OI*%
X99817100Y-122412300D03*
D16*
%TO.P,D49,1,K*%
%TO.N,Net-(D49-K)*%
X97277100Y-122412300D03*
%TD*%
D15*
%TO.P,D119,2,A*%
%TO.N,Net-(D119-A)*%
X195000000Y-39920000D03*
D16*
%TO.P,D119,1,K*%
%TO.N,Net-(D119-K)*%
X192460000Y-39920000D03*
%TD*%
D11*
%TO.P,R73,2*%
%TO.N,GND*%
X70707900Y-88287700D03*
%TO.P,R73,1*%
%TO.N,BUS_7*%
X63087900Y-88287700D03*
%TD*%
%TO.P,R38,2*%
%TO.N,Net-(U31-DIS)*%
X163286400Y-124379100D03*
%TO.P,R38,1*%
%TO.N,Net-(U31-THR)*%
X155666400Y-124379100D03*
%TD*%
D15*
%TO.P,D023,2,A*%
%TO.N,/ALU/B_6*%
X332040000Y-78880000D03*
D16*
%TO.P,D023,1,K*%
%TO.N,Net-(D023-K)*%
X329500000Y-78880000D03*
%TD*%
D15*
%TO.P,D34,2,A*%
%TO.N,Net-(D34-A)*%
X160490000Y-79420000D03*
D16*
%TO.P,D34,1,K*%
%TO.N,Net-(D34-K)*%
X157950000Y-79420000D03*
%TD*%
D12*
%TO.P,C16,2*%
%TO.N,GND*%
X155666400Y-117379100D03*
%TO.P,C16,1*%
%TO.N,Net-(U31-THR)*%
X155666400Y-119379100D03*
%TD*%
D11*
%TO.P,R9,2*%
%TO.N,GND*%
X247417100Y-117222300D03*
%TO.P,R9,1*%
%TO.N,Net-(D11-K)*%
X247417100Y-109602300D03*
%TD*%
D15*
%TO.P,D117,2,A*%
%TO.N,Net-(D117-A)*%
X185000000Y-39920000D03*
D16*
%TO.P,D117,1,K*%
%TO.N,Net-(D117-K)*%
X182460000Y-39920000D03*
%TD*%
D13*
%TO.P,U50,16,VCC*%
%TO.N,VCC*%
X238947100Y-79112300D03*
%TO.P,U50,15,Mr*%
%TO.N,CLR*%
X238947100Y-76572300D03*
%TO.P,U50,14,D0*%
%TO.N,BUS_3*%
X238947100Y-74032300D03*
%TO.P,U50,13,D1*%
%TO.N,BUS_2*%
X238947100Y-71492300D03*
%TO.P,U50,12,D2*%
%TO.N,BUS_1*%
X238947100Y-68952300D03*
%TO.P,U50,11,D3*%
%TO.N,BUS_0*%
X238947100Y-66412300D03*
%TO.P,U50,10,E2*%
%TO.N,~{AI}*%
X238947100Y-63872300D03*
%TO.P,U50,9,E1*%
X238947100Y-61332300D03*
%TO.P,U50,8,GND*%
%TO.N,GND*%
X246567100Y-61332300D03*
%TO.P,U50,7,Cp*%
%TO.N,CLK*%
X246567100Y-63872300D03*
%TO.P,U50,6,Q3*%
%TO.N,/ALU/A_0*%
X246567100Y-66412300D03*
%TO.P,U50,5,Q2*%
%TO.N,/ALU/A_1*%
X246567100Y-68952300D03*
%TO.P,U50,4,Q1*%
%TO.N,/ALU/A_2*%
X246567100Y-71492300D03*
%TO.P,U50,3,Q0*%
%TO.N,/ALU/A_3*%
X246567100Y-74032300D03*
%TO.P,U50,2,Oe2*%
%TO.N,GND*%
X246567100Y-76572300D03*
D14*
%TO.P,U50,1,Oe1*%
X246567100Y-79112300D03*
%TD*%
D15*
%TO.P,D24,2,A*%
%TO.N,Net-(D24-A)*%
X243770000Y-23500000D03*
D16*
%TO.P,D24,1,K*%
%TO.N,/MAR/PROG*%
X241230000Y-23500000D03*
%TD*%
D11*
%TO.P,R29,2*%
%TO.N,GND*%
X205120000Y-173920000D03*
%TO.P,R29,1*%
%TO.N,Net-(D31-K)*%
X205120000Y-166300000D03*
%TD*%
%TO.P,R61,2*%
%TO.N,GND*%
X102912100Y-73932300D03*
%TO.P,R61,1*%
%TO.N,Net-(D59-K)*%
X102912100Y-81552300D03*
%TD*%
%TO.P,R95,2*%
%TO.N,GND*%
X314460000Y-65050000D03*
%TO.P,R95,1*%
%TO.N,Net-(D026-K)*%
X314460000Y-72670000D03*
%TD*%
D12*
%TO.P,C19,2*%
%TO.N,GND*%
X145666400Y-126379100D03*
%TO.P,C19,1*%
%TO.N,VCC*%
X147666400Y-126379100D03*
%TD*%
D11*
%TO.P,R7,2*%
%TO.N,GND*%
X271317100Y-147222300D03*
%TO.P,R7,1*%
%TO.N,Net-(D1-K)*%
X271317100Y-139602300D03*
%TD*%
D15*
%TO.P,D67,2,A*%
%TO.N,BUS_5*%
X58500000Y-79150000D03*
D16*
%TO.P,D67,1,K*%
%TO.N,Net-(D67-K)*%
X58500000Y-81690000D03*
%TD*%
D15*
%TO.P,D26,2,A*%
%TO.N,Net-(D26-A)*%
X182620000Y-161420000D03*
D16*
%TO.P,D26,1,K*%
%TO.N,Net-(D26-K)*%
X180080000Y-161420000D03*
%TD*%
D12*
%TO.P,C21,2*%
%TO.N,GND*%
X82612100Y-63342300D03*
%TO.P,C21,1*%
%TO.N,VCC*%
X80612100Y-63342300D03*
%TD*%
D11*
%TO.P,R27,2*%
%TO.N,GND*%
X195120000Y-173730000D03*
%TO.P,R27,1*%
%TO.N,Net-(D29-K)*%
X195120000Y-166110000D03*
%TD*%
%TO.P,R100,2*%
%TO.N,GND*%
X206567100Y-93282300D03*
%TO.P,R100,1*%
%TO.N,Net-(D3-K)*%
X206567100Y-85662300D03*
%TD*%
D15*
%TO.P,D58,2,A*%
%TO.N,Net-(D58-A)*%
X117452100Y-103552300D03*
D16*
%TO.P,D58,1,K*%
%TO.N,Net-(D58-K)*%
X114912100Y-103552300D03*
%TD*%
D11*
%TO.P,R43,2*%
%TO.N,GND*%
X57317100Y-109792300D03*
%TO.P,R43,1*%
%TO.N,Net-(D41-K)*%
X57317100Y-117412300D03*
%TD*%
D15*
%TO.P,D66,2,A*%
%TO.N,BUS_4*%
X58500000Y-84110000D03*
D16*
%TO.P,D66,1,K*%
%TO.N,Net-(D66-K)*%
X58500000Y-86650000D03*
%TD*%
D15*
%TO.P,D23,2,A*%
%TO.N,/MAR/A0*%
X242967100Y-42332300D03*
D16*
%TO.P,D23,1,K*%
%TO.N,Net-(D23-K)*%
X240427100Y-42332300D03*
%TD*%
D12*
%TO.P,C20,2*%
%TO.N,GND*%
X82612100Y-56792300D03*
%TO.P,C20,1*%
%TO.N,VCC*%
X80612100Y-56792300D03*
%TD*%
D11*
%TO.P,R41,2*%
%TO.N,GND*%
X47317100Y-109792300D03*
%TO.P,R41,1*%
%TO.N,Net-(D39-K)*%
X47317100Y-117412300D03*
%TD*%
%TO.P,R48,2*%
%TO.N,GND*%
X82317100Y-109792300D03*
%TO.P,R48,1*%
%TO.N,Net-(D46-K)*%
X82317100Y-117412300D03*
%TD*%
%TO.P,C2,2*%
%TO.N,Net-(U2-CV)*%
X278067100Y-154412300D03*
%TO.P,C2,1*%
%TO.N,GND*%
X275567100Y-154412300D03*
%TD*%
%TO.P,U36,10,G*%
%TO.N,Net-(U34-G)*%
X95686400Y-130639100D03*
%TO.P,U36,9,F*%
%TO.N,Net-(U34-F)*%
X98226400Y-130639100D03*
%TO.P,U36,8,CC*%
%TO.N,Net-(U33A-O2)*%
X100766400Y-130639100D03*
%TO.P,U36,7,A*%
%TO.N,Net-(U34-A)*%
X103306400Y-130639100D03*
%TO.P,U36,6,B*%
%TO.N,Net-(U34-B)*%
X105846400Y-130639100D03*
%TO.P,U36,5,DP*%
%TO.N,Net-(U34-DP)*%
X105846400Y-145879100D03*
%TO.P,U36,4,C*%
%TO.N,Net-(U34-C)*%
X103306400Y-145879100D03*
%TO.P,U36,3,CC*%
%TO.N,Net-(U33A-O2)*%
X100766400Y-145879100D03*
%TO.P,U36,2,D*%
%TO.N,Net-(U34-D)*%
X98226400Y-145879100D03*
D20*
%TO.P,U36,1,E*%
%TO.N,Net-(U34-E)*%
X95686400Y-145879100D03*
%TD*%
D15*
%TO.P,D37,2,A*%
%TO.N,Net-(D37-A)*%
X178520000Y-79420000D03*
D16*
%TO.P,D37,1,K*%
%TO.N,Net-(D37-K)*%
X175980000Y-79420000D03*
%TD*%
D11*
%TO.P,U12,16,VCC*%
%TO.N,VCC*%
X273780000Y-45670000D03*
%TO.P,U12,15,Mr*%
%TO.N,CLR*%
X273780000Y-48210000D03*
%TO.P,U12,14,D0*%
%TO.N,Net-(U12-D0)*%
X273780000Y-50750000D03*
%TO.P,U12,13,D1*%
%TO.N,Net-(U12-D1)*%
X273780000Y-53290000D03*
%TO.P,U12,12,D2*%
%TO.N,unconnected-(U12-D2-Pad12)*%
X273780000Y-55830000D03*
%TO.P,U12,11,D3*%
%TO.N,unconnected-(U12-D3-Pad11)*%
X273780000Y-58370000D03*
%TO.P,U12,10,E2*%
%TO.N,~{FI}*%
X273780000Y-60910000D03*
%TO.P,U12,9,E1*%
X273780000Y-63450000D03*
%TO.P,U12,8,GND*%
%TO.N,GND*%
X266160000Y-63450000D03*
%TO.P,U12,7,Cp*%
%TO.N,CLK*%
X266160000Y-60910000D03*
%TO.P,U12,6,Q3*%
%TO.N,unconnected-(U12-Q3-Pad6)*%
X266160000Y-58370000D03*
%TO.P,U12,5,Q2*%
%TO.N,unconnected-(U12-Q2-Pad5)*%
X266160000Y-55830000D03*
%TO.P,U12,4,Q1*%
%TO.N,ZF*%
X266160000Y-53290000D03*
%TO.P,U12,3,Q0*%
%TO.N,CF*%
X266160000Y-50750000D03*
%TO.P,U12,2,Oe2*%
%TO.N,GND*%
X266160000Y-48210000D03*
D10*
%TO.P,U12,1,Oe1*%
X266160000Y-45670000D03*
%TD*%
D27*
%TO.P,J1,S1,SHIELD*%
%TO.N,GND*%
X20520000Y-114990000D03*
X24320000Y-114990000D03*
X20520000Y-106350000D03*
X24320000Y-106350000D03*
D28*
%TO.P,J1,B12,GND*%
X24500000Y-107920000D03*
D29*
%TO.P,J1,B9,VBUS*%
%TO.N,VCC*%
X24500000Y-109150000D03*
D30*
%TO.P,J1,B5,CC2*%
%TO.N,Net-(J1-CC2)*%
X24500000Y-111170000D03*
D28*
%TO.P,J1,A12,GND*%
%TO.N,GND*%
X24500000Y-113420000D03*
D29*
%TO.P,J1,A9,VBUS*%
%TO.N,VCC*%
X24500000Y-112190000D03*
D30*
%TO.P,J1,A5,CC1*%
%TO.N,Net-(J1-CC1)*%
X24500000Y-110170000D03*
%TD*%
D13*
%TO.P,U39,14,VCC*%
%TO.N,VCC*%
X163296800Y-96506800D03*
%TO.P,U39,13*%
%TO.N,N/C*%
X163296800Y-99046800D03*
%TO.P,U39,12*%
X163296800Y-101586800D03*
%TO.P,U39,11*%
X163296800Y-104126800D03*
%TO.P,U39,10*%
X163296800Y-106666800D03*
%TO.P,U39,9*%
X163296800Y-109206800D03*
%TO.P,U39,8*%
X163296800Y-111746800D03*
%TO.P,U39,7,GND*%
%TO.N,GND*%
X155676800Y-111746800D03*
%TO.P,U39,6*%
%TO.N,N/C*%
X155676800Y-109206800D03*
%TO.P,U39,5*%
X155676800Y-106666800D03*
%TO.P,U39,4*%
X155676800Y-104126800D03*
%TO.P,U39,3*%
%TO.N,Net-(U38-Cp)*%
X155676800Y-101586800D03*
%TO.P,U39,2*%
%TO.N,CLK*%
X155676800Y-99046800D03*
D14*
%TO.P,U39,1*%
%TO.N,OI*%
X155676800Y-96506800D03*
%TD*%
D11*
%TO.P,R66,2*%
%TO.N,GND*%
X46047700Y-102157100D03*
%TO.P,R66,1*%
%TO.N,Net-(D63-K)*%
X53667700Y-102157100D03*
%TD*%
D15*
%TO.P,D32,2,A*%
%TO.N,Net-(D32-A)*%
X212660000Y-161420000D03*
D16*
%TO.P,D32,1,K*%
%TO.N,Net-(D32-K)*%
X210120000Y-161420000D03*
%TD*%
D11*
%TO.P,R12,2*%
%TO.N,GND*%
X257167100Y-117162300D03*
%TO.P,R12,1*%
%TO.N,Net-(D13-K)*%
X257167100Y-109542300D03*
%TD*%
D13*
%TO.P,U42,16,VCC*%
%TO.N,VCC*%
X81740000Y-89100000D03*
%TO.P,U42,15,O0*%
%TO.N,Net-(D58-K)*%
X81740000Y-91640000D03*
%TO.P,U42,14,O1*%
%TO.N,Net-(D57-K)*%
X81740000Y-94180000D03*
%TO.P,U42,13,O2*%
%TO.N,Net-(D56-K)*%
X81740000Y-96720000D03*
%TO.P,U42,12,O3*%
%TO.N,Net-(D55-K)*%
X81740000Y-99260000D03*
%TO.P,U42,11,O4*%
%TO.N,Net-(D54-K)*%
X81740000Y-101800000D03*
%TO.P,U42,10,O5*%
%TO.N,Net-(U42-O5)*%
X81740000Y-104340000D03*
%TO.P,U42,9,O6*%
%TO.N,unconnected-(U42-O6-Pad9)*%
X81740000Y-106880000D03*
%TO.P,U42,8,GND*%
%TO.N,GND*%
X74120000Y-106880000D03*
%TO.P,U42,7,O7*%
%TO.N,unconnected-(U42-O7-Pad7)*%
X74120000Y-104340000D03*
%TO.P,U42,6,E3*%
%TO.N,VCC*%
X74120000Y-101800000D03*
%TO.P,U42,5,E2*%
%TO.N,GND*%
X74120000Y-99260000D03*
%TO.P,U42,4,E1*%
X74120000Y-96720000D03*
%TO.P,U42,3,A2*%
%TO.N,Net-(D61-A)*%
X74120000Y-94180000D03*
%TO.P,U42,2,A1*%
%TO.N,Net-(D60-A)*%
X74120000Y-91640000D03*
D14*
%TO.P,U42,1,A0*%
%TO.N,Net-(D59-A)*%
X74120000Y-89100000D03*
%TD*%
D11*
%TO.P,R23,2*%
%TO.N,GND*%
X240647100Y-54892300D03*
%TO.P,R23,1*%
%TO.N,Net-(D23-K)*%
X240647100Y-47272300D03*
%TD*%
D22*
%TO.P,U118,20*%
%TO.N,N/C*%
X184000000Y-63040000D03*
%TO.P,U118,19*%
X181460000Y-63040000D03*
%TO.P,U118,18*%
X178920000Y-63040000D03*
%TO.P,U118,17*%
X176380000Y-63040000D03*
%TO.P,U118,16,VCC*%
%TO.N,VCC*%
X173840000Y-63040000D03*
%TO.P,U118,15,Mr*%
%TO.N,CLR*%
X171300000Y-63040000D03*
%TO.P,U118,14,D0*%
%TO.N,BUS_7*%
X168760000Y-63040000D03*
%TO.P,U118,13,D1*%
%TO.N,BUS_6*%
X166220000Y-63040000D03*
%TO.P,U118,12,D2*%
%TO.N,BUS_5*%
X163680000Y-63040000D03*
%TO.P,U118,11,D3*%
%TO.N,BUS_4*%
X161140000Y-63040000D03*
%TO.P,U118,10,E2*%
%TO.N,~{II}*%
X161140000Y-55420000D03*
%TO.P,U118,9,E1*%
X163680000Y-55420000D03*
%TO.P,U118,8,GND*%
%TO.N,GND*%
X166220000Y-55420000D03*
%TO.P,U118,7,Cp*%
%TO.N,CLK*%
X168760000Y-55420000D03*
%TO.P,U118,6,Q3*%
%TO.N,IR_4*%
X171300000Y-55420000D03*
%TO.P,U118,5,Q2*%
%TO.N,IR_5*%
X173840000Y-55420000D03*
%TO.P,U118,4,Q1*%
%TO.N,IR_6*%
X176380000Y-55420000D03*
%TO.P,U118,3,Q0*%
%TO.N,IR_7*%
X178920000Y-55420000D03*
%TO.P,U118,2,Oe2*%
%TO.N,GND*%
X181460000Y-55420000D03*
D23*
%TO.P,U118,1,Oe1*%
X184000000Y-55420000D03*
%TD*%
D15*
%TO.P,D62,2,A*%
%TO.N,BUS_0*%
X58500000Y-104150000D03*
D16*
%TO.P,D62,1,K*%
%TO.N,Net-(D62-K)*%
X58500000Y-106690000D03*
%TD*%
D15*
%TO.P,D15,2,A*%
%TO.N,Net-(D15-A)*%
X264627100Y-103852300D03*
D16*
%TO.P,D15,1,K*%
%TO.N,Net-(D15-K)*%
X262087100Y-103852300D03*
%TD*%
D11*
%TO.P,R8,2*%
%TO.N,GND*%
X256750000Y-46360000D03*
%TO.P,R8,1*%
%TO.N,Net-(D14-K)*%
X256750000Y-53980000D03*
%TD*%
D15*
%TO.P,D63,2,A*%
%TO.N,BUS_1*%
X58500000Y-99150000D03*
D16*
%TO.P,D63,1,K*%
%TO.N,Net-(D63-K)*%
X58500000Y-101690000D03*
%TD*%
D13*
%TO.P,U27,14,VCC*%
%TO.N,VCC*%
X223657400Y-105325000D03*
%TO.P,U27,13*%
%TO.N,Net-(U23-\u002AO2)*%
X223657400Y-107865000D03*
%TO.P,U27,12*%
%TO.N,Net-(D31-A)*%
X223657400Y-110405000D03*
%TO.P,U27,11*%
%TO.N,Net-(U23-\u002AO3)*%
X223657400Y-112945000D03*
%TO.P,U27,10*%
%TO.N,Net-(D30-A)*%
X223657400Y-115485000D03*
%TO.P,U27,9*%
%TO.N,Net-(U21-\u002AO3)*%
X223657400Y-118025000D03*
%TO.P,U27,8*%
%TO.N,Net-(D29-A)*%
X223657400Y-120565000D03*
%TO.P,U27,7,GND*%
%TO.N,GND*%
X216037400Y-120565000D03*
%TO.P,U27,6*%
%TO.N,Net-(D28-A)*%
X216037400Y-118025000D03*
%TO.P,U27,5*%
%TO.N,Net-(U21-\u002AO2)*%
X216037400Y-115485000D03*
%TO.P,U27,4*%
%TO.N,Net-(D27-A)*%
X216037400Y-112945000D03*
%TO.P,U27,3*%
%TO.N,Net-(U21-\u002AO1)*%
X216037400Y-110405000D03*
%TO.P,U27,2*%
%TO.N,Net-(D26-A)*%
X216037400Y-107865000D03*
D14*
%TO.P,U27,1*%
%TO.N,Net-(U21-\u002AO0)*%
X216037400Y-105325000D03*
%TD*%
D11*
%TO.P,U14,16,VCC*%
%TO.N,VCC*%
X295340000Y-45670000D03*
%TO.P,U14,15,B3*%
%TO.N,Net-(U14-B3)*%
X295340000Y-48210000D03*
%TO.P,U14,14,A3*%
%TO.N,/ALU/A_2*%
X295340000Y-50750000D03*
%TO.P,U14,13,S3*%
%TO.N,Net-(D17-A)*%
X295340000Y-53290000D03*
%TO.P,U14,12,A4*%
%TO.N,/ALU/A_3*%
X295340000Y-55830000D03*
%TO.P,U14,11,B4*%
%TO.N,Net-(U14-B4)*%
X295340000Y-58370000D03*
%TO.P,U14,10,S4*%
%TO.N,Net-(D16-A)*%
X295340000Y-60910000D03*
%TO.P,U14,9,C4*%
%TO.N,Net-(U13-C0)*%
X295340000Y-63450000D03*
%TO.P,U14,8,GND*%
%TO.N,GND*%
X287720000Y-63450000D03*
%TO.P,U14,7,C0*%
%TO.N,SU*%
X287720000Y-60910000D03*
%TO.P,U14,6,B1*%
%TO.N,Net-(U14-B1)*%
X287720000Y-58370000D03*
%TO.P,U14,5,A1*%
%TO.N,/ALU/A_0*%
X287720000Y-55830000D03*
%TO.P,U14,4,S1*%
%TO.N,Net-(D19-A)*%
X287720000Y-53290000D03*
%TO.P,U14,3,A2*%
%TO.N,/ALU/A_1*%
X287720000Y-50750000D03*
%TO.P,U14,2,B2*%
%TO.N,Net-(U14-B2)*%
X287720000Y-48210000D03*
D10*
%TO.P,U14,1,S2*%
%TO.N,Net-(D18-A)*%
X287720000Y-45670000D03*
%TD*%
D11*
%TO.P,R84,2*%
%TO.N,GND*%
X162500000Y-27300000D03*
%TO.P,R84,1*%
%TO.N,Net-(D113-K)*%
X162500000Y-34920000D03*
%TD*%
%TO.P,R53,2*%
%TO.N,GND*%
X107817100Y-109912300D03*
%TO.P,R53,1*%
%TO.N,Net-(D51-K)*%
X107817100Y-117532300D03*
%TD*%
D15*
%TO.P,D7,2,A*%
%TO.N,/ALU/A_2*%
X224047100Y-81162300D03*
D16*
%TO.P,D7,1,K*%
%TO.N,Net-(D7-K)*%
X226587100Y-81162300D03*
%TD*%
D15*
%TO.P,D55,2,A*%
%TO.N,Net-(D55-A)*%
X99422100Y-103552300D03*
D16*
%TO.P,D55,1,K*%
%TO.N,Net-(D55-K)*%
X96882100Y-103552300D03*
%TD*%
D15*
%TO.P,D19,2,A*%
%TO.N,Net-(D19-A)*%
X284417100Y-103852300D03*
D16*
%TO.P,D19,1,K*%
%TO.N,Net-(D19-K)*%
X281877100Y-103852300D03*
%TD*%
D11*
%TO.P,R105,2*%
%TO.N,GND*%
X231567100Y-93282300D03*
%TO.P,R105,1*%
%TO.N,Net-(D8-K)*%
X231567100Y-85662300D03*
%TD*%
D15*
%TO.P,RV1,3,3*%
%TO.N,unconnected-(RV1-Pad3)*%
X320775000Y-114000000D03*
%TO.P,RV1,2,2*%
%TO.N,Net-(R2-Pad2)*%
X320775000Y-111500000D03*
D16*
%TO.P,RV1,1,1*%
%TO.N,Net-(U1-THR)*%
X320775000Y-109000000D03*
D31*
%TO.P,RV1,*%
%TO.N,*%
X328275000Y-116300000D03*
X328275000Y-106700000D03*
%TD*%
D13*
%TO.P,U47,14,VCC*%
%TO.N,VCC*%
X140532100Y-51812300D03*
%TO.P,U47,13*%
%TO.N,unconnected-(U47-Pad13)*%
X140532100Y-54352300D03*
%TO.P,U47,12*%
%TO.N,unconnected-(U47-Pad12)*%
X140532100Y-56892300D03*
%TO.P,U47,11*%
%TO.N,unconnected-(U47-Pad11)*%
X140532100Y-59432300D03*
%TO.P,U47,10*%
%TO.N,unconnected-(U47-Pad10)*%
X140532100Y-61972300D03*
%TO.P,U47,9*%
%TO.N,unconnected-(U47-Pad9)*%
X140532100Y-64512300D03*
%TO.P,U47,8*%
%TO.N,unconnected-(U47-Pad8)*%
X140532100Y-67052300D03*
%TO.P,U47,7,GND*%
%TO.N,GND*%
X132912100Y-67052300D03*
%TO.P,U47,6*%
%TO.N,unconnected-(U47-Pad6)*%
X132912100Y-64512300D03*
%TO.P,U47,5*%
%TO.N,unconnected-(U47-Pad5)*%
X132912100Y-61972300D03*
%TO.P,U47,4*%
%TO.N,~{BI}*%
X132912100Y-59432300D03*
%TO.P,U47,3*%
%TO.N,Net-(D48-A)*%
X132912100Y-56892300D03*
%TO.P,U47,2*%
%TO.N,~{EO}*%
X132912100Y-54352300D03*
D14*
%TO.P,U47,1*%
%TO.N,Net-(D46-A)*%
X132912100Y-51812300D03*
%TD*%
D11*
%TO.P,R104,2*%
%TO.N,GND*%
X226567100Y-93282300D03*
%TO.P,R104,1*%
%TO.N,Net-(D7-K)*%
X226567100Y-85662300D03*
%TD*%
%TO.P,R64,2*%
%TO.N,GND*%
X85912100Y-58932300D03*
%TO.P,R64,1*%
%TO.N,Net-(R64-Pad1)*%
X85912100Y-66552300D03*
%TD*%
%TO.P,R40,2*%
%TO.N,GND*%
X42317100Y-109792300D03*
%TO.P,R40,1*%
%TO.N,Net-(D38-K)*%
X42317100Y-117412300D03*
%TD*%
%TO.P,R85,2*%
%TO.N,GND*%
X167500000Y-27300000D03*
%TO.P,R85,1*%
%TO.N,Net-(D114-K)*%
X167500000Y-34920000D03*
%TD*%
D12*
%TO.P,C15,2*%
%TO.N,GND*%
X155490000Y-60920000D03*
%TO.P,C15,1*%
%TO.N,VCC*%
X153490000Y-60920000D03*
%TD*%
D15*
%TO.P,D12,2,A*%
%TO.N,Net-(D12-A)*%
X254907100Y-103852300D03*
D16*
%TO.P,D12,1,K*%
%TO.N,Net-(D12-K)*%
X252367100Y-103852300D03*
%TD*%
D11*
%TO.P,U16,14,VCC*%
%TO.N,VCC*%
X289380000Y-105185000D03*
%TO.P,U16,13*%
%TO.N,SU*%
X291920000Y-105185000D03*
%TO.P,U16,12*%
%TO.N,/ALU/B_2*%
X294460000Y-105185000D03*
%TO.P,U16,11*%
%TO.N,Net-(U14-B2)*%
X297000000Y-105185000D03*
%TO.P,U16,10*%
%TO.N,SU*%
X299540000Y-105185000D03*
%TO.P,U16,9*%
%TO.N,/ALU/B_3*%
X302080000Y-105185000D03*
%TO.P,U16,8*%
%TO.N,Net-(U14-B4)*%
X304620000Y-105185000D03*
%TO.P,U16,7,GND*%
%TO.N,GND*%
X304620000Y-112805000D03*
%TO.P,U16,6*%
%TO.N,Net-(U14-B1)*%
X302080000Y-112805000D03*
%TO.P,U16,5*%
%TO.N,SU*%
X299540000Y-112805000D03*
%TO.P,U16,4*%
%TO.N,/ALU/B_0*%
X297000000Y-112805000D03*
%TO.P,U16,3*%
%TO.N,Net-(U14-B3)*%
X294460000Y-112805000D03*
%TO.P,U16,2*%
%TO.N,SU*%
X291920000Y-112805000D03*
D32*
%TO.P,U16,1*%
%TO.N,/ALU/B_1*%
X289380000Y-112805000D03*
%TD*%
D17*
%TO.P,U44,28,VCC*%
%TO.N,VCC*%
X124000050Y-32060000D03*
%TO.P,U44,27,~{WE}*%
X124000050Y-34600000D03*
%TO.P,U44,26*%
%TO.N,N/C*%
X124000050Y-37140000D03*
%TO.P,U44,25,A8*%
%TO.N,CF*%
X124000050Y-39680000D03*
%TO.P,U44,24,A9*%
%TO.N,ZF*%
X124000050Y-42220000D03*
%TO.P,U44,23,A11*%
%TO.N,GND*%
X124000050Y-44760000D03*
%TO.P,U44,22,~{OE}*%
X124000050Y-47300000D03*
%TO.P,U44,21,A10*%
X124000050Y-49840000D03*
%TO.P,U44,20,~{CE}*%
X124000050Y-52380000D03*
%TO.P,U44,19,I/O7*%
%TO.N,Net-(D46-A)*%
X124000050Y-54920000D03*
%TO.P,U44,18,I/O6*%
%TO.N,SU*%
X124000050Y-57460000D03*
%TO.P,U44,17,I/O5*%
%TO.N,Net-(D48-A)*%
X124000050Y-60000000D03*
%TO.P,U44,16,I/O4*%
%TO.N,OI*%
X124000050Y-62540000D03*
%TO.P,U44,15,I/O3*%
%TO.N,CE*%
X124000050Y-65080000D03*
%TO.P,U44,14,GND*%
%TO.N,GND*%
X108442550Y-65080000D03*
%TO.P,U44,13,I/O2*%
%TO.N,Net-(D51-A)*%
X108442550Y-62540000D03*
%TO.P,U44,12,I/O1*%
%TO.N,Net-(D52-A)*%
X108442550Y-60000000D03*
%TO.P,U44,11,I/O0*%
%TO.N,Net-(D53-A)*%
X108442550Y-57460000D03*
%TO.P,U44,10,A0*%
%TO.N,Net-(D59-A)*%
X108442550Y-54920000D03*
%TO.P,U44,9,A1*%
%TO.N,Net-(D60-A)*%
X108442550Y-52380000D03*
%TO.P,U44,8,A2*%
%TO.N,Net-(D61-A)*%
X108442550Y-49840000D03*
%TO.P,U44,7,A3*%
%TO.N,IR_4*%
X108442550Y-47300000D03*
%TO.P,U44,6,A4*%
%TO.N,IR_5*%
X108442550Y-44760000D03*
%TO.P,U44,5,A5*%
%TO.N,IR_6*%
X108442550Y-42220000D03*
%TO.P,U44,4,A6*%
%TO.N,IR_7*%
X108442550Y-39680000D03*
%TO.P,U44,3,A7*%
%TO.N,VCC*%
X108442550Y-37140000D03*
%TO.P,U44,2,A12*%
%TO.N,GND*%
X108442550Y-34600000D03*
D18*
%TO.P,U44,1*%
%TO.N,N/C*%
X108442550Y-32060000D03*
%TD*%
D15*
%TO.P,D45,2,A*%
%TO.N,Net-(D45-A)*%
X79817100Y-122412300D03*
D16*
%TO.P,D45,1,K*%
%TO.N,Net-(D45-K)*%
X77277100Y-122412300D03*
%TD*%
D15*
%TO.P,D118,2,A*%
%TO.N,Net-(D118-A)*%
X190000000Y-39920000D03*
D16*
%TO.P,D118,1,K*%
%TO.N,Net-(D118-K)*%
X187460000Y-39920000D03*
%TD*%
D15*
%TO.P,D36,2,A*%
%TO.N,Net-(D36-A)*%
X172510000Y-79420000D03*
D16*
%TO.P,D36,1,K*%
%TO.N,Net-(D36-K)*%
X169970000Y-79420000D03*
%TD*%
D13*
%TO.P,U119,16,VCC*%
%TO.N,VCC*%
X205197100Y-53912300D03*
%TO.P,U119,15,Mr*%
%TO.N,CLR*%
X205197100Y-51372300D03*
%TO.P,U119,14,D0*%
%TO.N,BUS_3*%
X205197100Y-48832300D03*
%TO.P,U119,13,D1*%
%TO.N,BUS_2*%
X205197100Y-46292300D03*
%TO.P,U119,12,D2*%
%TO.N,BUS_1*%
X205197100Y-43752300D03*
%TO.P,U119,11,D3*%
%TO.N,BUS_0*%
X205197100Y-41212300D03*
%TO.P,U119,10,E2*%
%TO.N,~{II}*%
X205197100Y-38672300D03*
%TO.P,U119,9,E1*%
X205197100Y-36132300D03*
%TO.P,U119,8,GND*%
%TO.N,GND*%
X212817100Y-36132300D03*
%TO.P,U119,7,Cp*%
%TO.N,CLK*%
X212817100Y-38672300D03*
%TO.P,U119,6,Q3*%
%TO.N,Net-(D119-A)*%
X212817100Y-41212300D03*
%TO.P,U119,5,Q2*%
%TO.N,Net-(D118-A)*%
X212817100Y-43752300D03*
%TO.P,U119,4,Q1*%
%TO.N,Net-(D117-A)*%
X212817100Y-46292300D03*
%TO.P,U119,3,Q0*%
%TO.N,Net-(D116-A)*%
X212817100Y-48832300D03*
%TO.P,U119,2,Oe2*%
%TO.N,GND*%
X212817100Y-51372300D03*
D14*
%TO.P,U119,1,Oe1*%
X212817100Y-53912300D03*
%TD*%
D11*
%TO.P,R96,2*%
%TO.N,GND*%
X309460000Y-65110000D03*
%TO.P,R96,1*%
%TO.N,Net-(D027-K)*%
X309460000Y-72730000D03*
%TD*%
%TO.P,R67,2*%
%TO.N,GND*%
X46047700Y-96657100D03*
%TO.P,R67,1*%
%TO.N,Net-(D64-K)*%
X53667700Y-96657100D03*
%TD*%
%TO.P,R75,2*%
%TO.N,GND*%
X70945000Y-96690000D03*
%TO.P,R75,1*%
%TO.N,BUS_5*%
X63325000Y-96690000D03*
%TD*%
D15*
%TO.P,D6,2,A*%
%TO.N,/ALU/A_3*%
X219047100Y-81162300D03*
D16*
%TO.P,D6,1,K*%
%TO.N,Net-(D6-K)*%
X221587100Y-81162300D03*
%TD*%
D11*
%TO.P,R10,2*%
%TO.N,Net-(D10-K)*%
X256750000Y-58550000D03*
%TO.P,R10,1*%
%TO.N,GND*%
X256750000Y-66170000D03*
%TD*%
%TO.P,R22,2*%
%TO.N,GND*%
X234397100Y-54892300D03*
%TO.P,R22,1*%
%TO.N,Net-(D22-K)*%
X234397100Y-47272300D03*
%TD*%
%TO.P,R82,2*%
%TO.N,GND*%
X37994400Y-109375000D03*
%TO.P,R82,1*%
%TO.N,Net-(J1-CC1)*%
X30374400Y-109375000D03*
%TD*%
%TO.P,C5,2*%
%TO.N,VCC*%
X298567100Y-135962300D03*
%TO.P,C5,1*%
%TO.N,GND*%
X301067100Y-135962300D03*
%TD*%
D15*
%TO.P,D52,2,A*%
%TO.N,Net-(D52-A)*%
X115317100Y-122412300D03*
D16*
%TO.P,D52,1,K*%
%TO.N,Net-(D52-K)*%
X112777100Y-122412300D03*
%TD*%
D15*
%TO.P,D43,2,A*%
%TO.N,Net-(D43-A)*%
X69767100Y-122412300D03*
D16*
%TO.P,D43,1,K*%
%TO.N,Net-(D43-K)*%
X67227100Y-122412300D03*
%TD*%
D13*
%TO.P,U45,14,VCC*%
%TO.N,VCC*%
X81620000Y-70180000D03*
%TO.P,U45,13*%
%TO.N,N/C*%
X81620000Y-72720000D03*
%TO.P,U45,12*%
X81620000Y-75260000D03*
%TO.P,U45,11*%
X81620000Y-77800000D03*
%TO.P,U45,10*%
X81620000Y-80340000D03*
%TO.P,U45,9*%
X81620000Y-82880000D03*
%TO.P,U45,8*%
X81620000Y-85420000D03*
%TO.P,U45,7,GND*%
%TO.N,GND*%
X74000000Y-85420000D03*
%TO.P,U45,6*%
%TO.N,N/C*%
X74000000Y-82880000D03*
%TO.P,U45,5*%
X74000000Y-80340000D03*
%TO.P,U45,4*%
X74000000Y-77800000D03*
%TO.P,U45,3*%
%TO.N,Net-(U41-~{MR})*%
X74000000Y-75260000D03*
%TO.P,U45,2*%
%TO.N,Net-(U26-Pad6)*%
X74000000Y-72720000D03*
D14*
%TO.P,U45,1*%
X74000000Y-70180000D03*
%TD*%
D12*
%TO.P,C14,2*%
%TO.N,Net-(C14-Pad2)*%
X265000000Y-130580000D03*
%TO.P,C14,1*%
%TO.N,CLK*%
X265000000Y-128580000D03*
%TD*%
D11*
%TO.P,R49,2*%
%TO.N,GND*%
X87317100Y-109792300D03*
%TO.P,R49,1*%
%TO.N,Net-(D47-K)*%
X87317100Y-117412300D03*
%TD*%
D15*
%TO.P,D33,2,A*%
%TO.N,Net-(D33-A)*%
X217660000Y-161420000D03*
D16*
%TO.P,D33,1,K*%
%TO.N,Net-(D33-K)*%
X215120000Y-161420000D03*
%TD*%
D11*
%TO.P,C6,2*%
%TO.N,VCC*%
X298567100Y-131912300D03*
%TO.P,C6,1*%
%TO.N,GND*%
X301067100Y-131912300D03*
%TD*%
D17*
%TO.P,U40,28,VCC*%
%TO.N,VCC*%
X141723950Y-95979100D03*
%TO.P,U40,27,~{WE}*%
X141723950Y-98519100D03*
%TO.P,U40,26*%
%TO.N,N/C*%
X141723950Y-101059100D03*
%TO.P,U40,25,A8*%
%TO.N,Net-(U32A-~{Q})*%
X141723950Y-103599100D03*
%TO.P,U40,24,A9*%
%TO.N,Net-(U32B-~{Q})*%
X141723950Y-106139100D03*
%TO.P,U40,23,A11*%
%TO.N,GND*%
X141723950Y-108679100D03*
%TO.P,U40,22,~{OE}*%
X141723950Y-111219100D03*
%TO.P,U40,21,A10*%
%TO.N,Net-(SW7-B)*%
X141723950Y-113759100D03*
%TO.P,U40,20,~{CE}*%
%TO.N,GND*%
X141723950Y-116299100D03*
%TO.P,U40,19,I/O7*%
%TO.N,Net-(U34-DP)*%
X141723950Y-118839100D03*
%TO.P,U40,18,I/O6*%
%TO.N,Net-(U34-A)*%
X141723950Y-121379100D03*
%TO.P,U40,17,I/O5*%
%TO.N,Net-(U34-B)*%
X141723950Y-123919100D03*
%TO.P,U40,16,I/O4*%
%TO.N,Net-(U34-C)*%
X141723950Y-126459100D03*
%TO.P,U40,15,I/O3*%
%TO.N,Net-(U34-D)*%
X141723950Y-128999100D03*
%TO.P,U40,14,GND*%
%TO.N,GND*%
X126166450Y-128999100D03*
%TO.P,U40,13,I/O2*%
%TO.N,Net-(U34-E)*%
X126166450Y-126459100D03*
%TO.P,U40,12,I/O1*%
%TO.N,Net-(U34-F)*%
X126166450Y-123919100D03*
%TO.P,U40,11,I/O0*%
%TO.N,Net-(U34-G)*%
X126166450Y-121379100D03*
%TO.P,U40,10,A0*%
%TO.N,Net-(U38-Q0)*%
X126166450Y-118839100D03*
%TO.P,U40,9,A1*%
%TO.N,Net-(U38-Q1)*%
X126166450Y-116299100D03*
%TO.P,U40,8,A2*%
%TO.N,Net-(U38-Q2)*%
X126166450Y-113759100D03*
%TO.P,U40,7,A3*%
%TO.N,Net-(U38-Q3)*%
X126166450Y-111219100D03*
%TO.P,U40,6,A4*%
%TO.N,Net-(U38-Q4)*%
X126166450Y-108679100D03*
%TO.P,U40,5,A5*%
%TO.N,Net-(U38-Q5)*%
X126166450Y-106139100D03*
%TO.P,U40,4,A6*%
%TO.N,Net-(U38-Q6)*%
X126166450Y-103599100D03*
%TO.P,U40,3,A7*%
%TO.N,Net-(U38-Q7)*%
X126166450Y-101059100D03*
%TO.P,U40,2,A12*%
%TO.N,GND*%
X126166450Y-98519100D03*
D18*
%TO.P,U40,1*%
%TO.N,N/C*%
X126166450Y-95979100D03*
%TD*%
D11*
%TO.P,U51,16,VCC*%
%TO.N,VCC*%
X249317100Y-124172300D03*
%TO.P,U51,15,E*%
%TO.N,GND*%
X249317100Y-126712300D03*
%TO.P,U51,14,I0c*%
%TO.N,Net-(U51-I0c)*%
X249317100Y-129252300D03*
%TO.P,U51,13,I1c*%
%TO.N,Net-(U51-I1c)*%
X249317100Y-131792300D03*
%TO.P,U51,12,Zc*%
%TO.N,Net-(U51-Zc)*%
X249317100Y-134332300D03*
%TO.P,U51,11,I0d*%
%TO.N,unconnected-(U51-I0d-Pad11)*%
X249317100Y-136872300D03*
%TO.P,U51,10,I1d*%
%TO.N,unconnected-(U51-I1d-Pad10)*%
X249317100Y-139412300D03*
%TO.P,U51,9,Zd*%
%TO.N,unconnected-(U51-Zd-Pad9)*%
X249317100Y-141952300D03*
%TO.P,U51,8,GND*%
%TO.N,GND*%
X241697100Y-141952300D03*
%TO.P,U51,7,Zb*%
%TO.N,unconnected-(U51-Zb-Pad7)*%
X241697100Y-139412300D03*
%TO.P,U51,6,I1b*%
%TO.N,unconnected-(U51-I1b-Pad6)*%
X241697100Y-136872300D03*
%TO.P,U51,5,I0b*%
%TO.N,unconnected-(U51-I0b-Pad5)*%
X241697100Y-134332300D03*
%TO.P,U51,4,Za*%
%TO.N,unconnected-(U51-Za-Pad4)*%
X241697100Y-131792300D03*
%TO.P,U51,3,I1a*%
%TO.N,unconnected-(U51-I1a-Pad3)*%
X241697100Y-129252300D03*
%TO.P,U51,2,I0a*%
%TO.N,unconnected-(U51-I0a-Pad2)*%
X241697100Y-126712300D03*
D10*
%TO.P,U51,1,S*%
%TO.N,/MAR/PROG*%
X241697100Y-124172300D03*
%TD*%
D11*
%TO.P,U4,14,VCC*%
%TO.N,VCC*%
X289437100Y-128227300D03*
%TO.P,U4,13*%
%TO.N,unconnected-(U4-Pad13)*%
X286897100Y-128227300D03*
%TO.P,U4,12*%
%TO.N,unconnected-(U4-Pad12)*%
X284357100Y-128227300D03*
%TO.P,U4,11*%
%TO.N,unconnected-(U4-Pad11)*%
X281817100Y-128227300D03*
%TO.P,U4,10*%
%TO.N,Net-(U4-Pad10)*%
X279277100Y-128227300D03*
%TO.P,U4,9*%
%TO.N,Net-(U4-Pad9)*%
X276737100Y-128227300D03*
%TO.P,U4,8*%
%TO.N,CLK*%
X274197100Y-128227300D03*
%TO.P,U4,7,GND*%
%TO.N,GND*%
X274197100Y-120607300D03*
%TO.P,U4,6*%
%TO.N,Net-(U4-Pad6)*%
X276737100Y-120607300D03*
%TO.P,U4,5*%
%TO.N,Net-(U2-Q)*%
X279277100Y-120607300D03*
%TO.P,U4,4*%
%TO.N,Net-(U4-Pad4)*%
X281817100Y-120607300D03*
%TO.P,U4,3*%
%TO.N,Net-(U4-Pad3)*%
X284357100Y-120607300D03*
%TO.P,U4,2*%
%TO.N,Net-(U3-Q)*%
X286897100Y-120607300D03*
D33*
%TO.P,U4,1*%
%TO.N,Net-(U1-Q)*%
X289437100Y-120607300D03*
%TD*%
D22*
%TO.P,U38,20,VCC*%
%TO.N,VCC*%
X159317100Y-134632300D03*
%TO.P,U38,19,Q7*%
%TO.N,Net-(U38-Q7)*%
X159317100Y-137172300D03*
%TO.P,U38,18,D7*%
%TO.N,BUS_7*%
X159317100Y-139712300D03*
%TO.P,U38,17,D6*%
%TO.N,BUS_6*%
X159317100Y-142252300D03*
%TO.P,U38,16,Q6*%
%TO.N,Net-(U38-Q6)*%
X159317100Y-144792300D03*
%TO.P,U38,15,Q5*%
%TO.N,Net-(U38-Q5)*%
X159317100Y-147332300D03*
%TO.P,U38,14,D5*%
%TO.N,BUS_5*%
X159317100Y-149872300D03*
%TO.P,U38,13,D4*%
%TO.N,BUS_4*%
X159317100Y-152412300D03*
%TO.P,U38,12,Q4*%
%TO.N,Net-(U38-Q4)*%
X159317100Y-154952300D03*
%TO.P,U38,11,Cp*%
%TO.N,Net-(U38-Cp)*%
X159317100Y-157492300D03*
%TO.P,U38,10,GND*%
%TO.N,GND*%
X151697100Y-157492300D03*
%TO.P,U38,9,Q3*%
%TO.N,Net-(U38-Q3)*%
X151697100Y-154952300D03*
%TO.P,U38,8,D3*%
%TO.N,BUS_3*%
X151697100Y-152412300D03*
%TO.P,U38,7,D2*%
%TO.N,BUS_2*%
X151697100Y-149872300D03*
%TO.P,U38,6,Q2*%
%TO.N,Net-(U38-Q2)*%
X151697100Y-147332300D03*
%TO.P,U38,5,Q1*%
%TO.N,Net-(U38-Q1)*%
X151697100Y-144792300D03*
%TO.P,U38,4,D1*%
%TO.N,BUS_1*%
X151697100Y-142252300D03*
%TO.P,U38,3,D0*%
%TO.N,BUS_0*%
X151697100Y-139712300D03*
%TO.P,U38,2,Q0*%
%TO.N,Net-(U38-Q0)*%
X151697100Y-137172300D03*
D23*
%TO.P,U38,1,~{Mr}*%
%TO.N,~{CLR}*%
X151697100Y-134632300D03*
%TD*%
D13*
%TO.P,U49,16,VCC*%
%TO.N,VCC*%
X189007100Y-79672300D03*
%TO.P,U49,15,Mr*%
%TO.N,CLR*%
X189007100Y-77132300D03*
%TO.P,U49,14,D0*%
%TO.N,BUS_7*%
X189007100Y-74592300D03*
%TO.P,U49,13,D1*%
%TO.N,BUS_6*%
X189007100Y-72052300D03*
%TO.P,U49,12,D2*%
%TO.N,BUS_5*%
X189007100Y-69512300D03*
%TO.P,U49,11,D3*%
%TO.N,BUS_4*%
X189007100Y-66972300D03*
%TO.P,U49,10,E2*%
%TO.N,~{AI}*%
X189007100Y-64432300D03*
%TO.P,U49,9,E1*%
X189007100Y-61892300D03*
%TO.P,U49,8,GND*%
%TO.N,GND*%
X196627100Y-61892300D03*
%TO.P,U49,7,Cp*%
%TO.N,CLK*%
X196627100Y-64432300D03*
%TO.P,U49,6,Q3*%
%TO.N,/ALU/A_4*%
X196627100Y-66972300D03*
%TO.P,U49,5,Q2*%
%TO.N,/ALU/A_5*%
X196627100Y-69512300D03*
%TO.P,U49,4,Q1*%
%TO.N,/ALU/A_6*%
X196627100Y-72052300D03*
%TO.P,U49,3,Q0*%
%TO.N,/ALU/A_7*%
X196627100Y-74592300D03*
%TO.P,U49,2,Oe2*%
%TO.N,GND*%
X196627100Y-77132300D03*
D14*
%TO.P,U49,1,Oe1*%
X196627100Y-79672300D03*
%TD*%
D11*
%TO.P,R42,2*%
%TO.N,GND*%
X52317100Y-109792300D03*
%TO.P,R42,1*%
%TO.N,Net-(D40-K)*%
X52317100Y-117412300D03*
%TD*%
D12*
%TO.P,C9,2*%
%TO.N,GND*%
X257993900Y-76199100D03*
%TO.P,C9,1*%
%TO.N,VCC*%
X255993900Y-76199100D03*
%TD*%
D11*
%TO.P,R21,2*%
%TO.N,GND*%
X228647100Y-54952300D03*
%TO.P,R21,1*%
%TO.N,Net-(D21-K)*%
X228647100Y-47332300D03*
%TD*%
D15*
%TO.P,D51,2,A*%
%TO.N,Net-(D51-A)*%
X110147100Y-122412300D03*
D16*
%TO.P,D51,1,K*%
%TO.N,Net-(D51-K)*%
X107607100Y-122412300D03*
%TD*%
D11*
%TO.P,R63,2*%
%TO.N,GND*%
X114912100Y-73932300D03*
%TO.P,R63,1*%
%TO.N,Net-(D61-K)*%
X114912100Y-81552300D03*
%TD*%
%TO.P,R76,2*%
%TO.N,GND*%
X71017900Y-100787700D03*
%TO.P,R76,1*%
%TO.N,BUS_4*%
X63397900Y-100787700D03*
%TD*%
%TO.P,R11,2*%
%TO.N,GND*%
X252167100Y-117162300D03*
%TO.P,R11,1*%
%TO.N,Net-(D12-K)*%
X252167100Y-109542300D03*
%TD*%
D15*
%TO.P,D024,2,A*%
%TO.N,/ALU/B_5*%
X326960000Y-78920000D03*
D16*
%TO.P,D024,1,K*%
%TO.N,Net-(D024-K)*%
X324420000Y-78920000D03*
%TD*%
D11*
%TO.P,R56,2*%
%TO.N,VCC*%
X117412100Y-90932300D03*
%TO.P,R56,1*%
%TO.N,Net-(D58-A)*%
X117412100Y-98552300D03*
%TD*%
D15*
%TO.P,D4,2,A*%
%TO.N,/ALU/A_5*%
X209027100Y-81162300D03*
D16*
%TO.P,D4,1,K*%
%TO.N,Net-(D4-K)*%
X211567100Y-81162300D03*
%TD*%
D34*
%TO.P,SW2,3,C*%
%TO.N,Net-(SW2-C)*%
X302797500Y-149000000D03*
%TO.P,SW2,2,B*%
%TO.N,GND*%
X302797500Y-151000000D03*
D35*
%TO.P,SW2,1,A*%
%TO.N,Net-(SW2-A)*%
X302797500Y-153000000D03*
D36*
%TO.P,SW2,*%
%TO.N,*%
X302797500Y-146900000D03*
X302797500Y-155100000D03*
%TD*%
D11*
%TO.P,R79,2*%
%TO.N,GND*%
X43620000Y-99500000D03*
%TO.P,R79,1*%
%TO.N,BUS_1*%
X36000000Y-99500000D03*
%TD*%
%TO.P,R80,2*%
%TO.N,GND*%
X43500000Y-104000000D03*
%TO.P,R80,1*%
%TO.N,BUS_0*%
X35880000Y-104000000D03*
%TD*%
%TO.P,R77,2*%
%TO.N,GND*%
X43620000Y-89000000D03*
%TO.P,R77,1*%
%TO.N,BUS_3*%
X36000000Y-89000000D03*
%TD*%
%TO.P,R78,2*%
%TO.N,GND*%
X43620000Y-94157100D03*
%TO.P,R78,1*%
%TO.N,BUS_2*%
X36000000Y-94157100D03*
%TD*%
D37*
%TO.P,U1,8,VCC*%
%TO.N,VCC*%
X299542100Y-118507300D03*
%TO.P,U1,7,DIS*%
%TO.N,Net-(U1-DIS)*%
X299542100Y-119777300D03*
%TO.P,U1,6,THR*%
%TO.N,Net-(U1-THR)*%
X299542100Y-121047300D03*
%TO.P,U1,5,CV*%
%TO.N,Net-(U1-CV)*%
X299542100Y-122317300D03*
%TO.P,U1,4,R*%
%TO.N,VCC*%
X294592100Y-122317300D03*
%TO.P,U1,3,Q*%
%TO.N,Net-(U1-Q)*%
X294592100Y-121047300D03*
%TO.P,U1,2,TR*%
%TO.N,Net-(U1-THR)*%
X294592100Y-119777300D03*
%TO.P,U1,1,GND*%
%TO.N,GND*%
X294592100Y-118507300D03*
%TD*%
D38*
%TO.P,U2,8,VCC*%
%TO.N,VCC*%
X284472100Y-147137300D03*
%TO.P,U2,7,DIS*%
%TO.N,Net-(U2-DIS)*%
X283202100Y-147137300D03*
%TO.P,U2,6,THR*%
X281932100Y-147137300D03*
%TO.P,U2,5,CV*%
%TO.N,Net-(U2-CV)*%
X280662100Y-147137300D03*
%TO.P,U2,4,R*%
%TO.N,VCC*%
X280662100Y-142187300D03*
%TO.P,U2,3,Q*%
%TO.N,Net-(U2-Q)*%
X281932100Y-142187300D03*
%TO.P,U2,2,TR*%
%TO.N,Net-(U2-TR)*%
X283202100Y-142187300D03*
%TO.P,U2,1,GND*%
%TO.N,GND*%
X284472100Y-142187300D03*
%TD*%
D37*
%TO.P,U31,8,VCC*%
%TO.N,VCC*%
X125758900Y-151109100D03*
%TO.P,U31,7,DIS*%
%TO.N,Net-(U31-DIS)*%
X125758900Y-152379100D03*
%TO.P,U31,6,THR*%
%TO.N,Net-(U31-THR)*%
X125758900Y-153649100D03*
%TO.P,U31,5,CV*%
%TO.N,Net-(U31-CV)*%
X125758900Y-154919100D03*
%TO.P,U31,4,R*%
%TO.N,unconnected-(U31-R-Pad4)*%
X120808900Y-154919100D03*
%TO.P,U31,3,Q*%
%TO.N,Net-(U31-Q)*%
X120808900Y-153649100D03*
%TO.P,U31,2,TR*%
%TO.N,Net-(U31-THR)*%
X120808900Y-152379100D03*
%TO.P,U31,1,GND*%
%TO.N,GND*%
X120808900Y-151109100D03*
%TD*%
D39*
%TO.P,U3,8,VCC*%
%TO.N,VCC*%
X287592100Y-146567300D03*
%TO.P,U3,7,DIS*%
%TO.N,unconnected-(U3-DIS-Pad7)*%
X287592100Y-145297300D03*
%TO.P,U3,6,THR*%
%TO.N,GND*%
X287592100Y-144027300D03*
%TO.P,U3,5,CV*%
%TO.N,Net-(U3-CV)*%
X287592100Y-142757300D03*
%TO.P,U3,4,R*%
%TO.N,Net-(SW2-C)*%
X292542100Y-142757300D03*
%TO.P,U3,3,Q*%
%TO.N,Net-(U3-Q)*%
X292542100Y-144027300D03*
%TO.P,U3,2,TR*%
%TO.N,Net-(SW2-A)*%
X292542100Y-145297300D03*
%TO.P,U3,1,GND*%
%TO.N,GND*%
X292542100Y-146567300D03*
%TD*%
D40*
%TO.N,Net-(U23-\u002AO1)*%
X191918500Y-105667900D03*
%TO.N,Net-(U23-\u002AO2)*%
X193409100Y-108763200D03*
%TO.N,Net-(U21-\u002AWE)*%
X224048000Y-106595000D03*
%TO.N,Net-(U23-D3)*%
X229309200Y-112435600D03*
%TO.N,Net-(U23-D1)*%
X190407300Y-123998300D03*
%TO.N,Net-(U38-Q4)*%
X154729200Y-110656800D03*
%TO.N,Net-(U38-Q5)*%
X152471700Y-107267700D03*
%TO.N,Net-(U38-Q6)*%
X157552900Y-104745000D03*
%TO.N,Net-(U38-Q1)*%
X126732400Y-144678400D03*
%TO.N,Net-(U38-Q3)*%
X129224200Y-153564400D03*
%TO.N,Net-(U38-Q7)*%
X156311200Y-105563500D03*
%TO.N,Net-(U38-Q0)*%
X145507200Y-120586700D03*
%TO.N,Net-(U38-Q2)*%
X148278200Y-115940100D03*
%TO.N,Net-(U34-C)*%
X118450700Y-129551300D03*
%TO.N,Net-(U34-D)*%
X114263400Y-133375200D03*
X97325800Y-144199700D03*
%TO.N,Net-(U34-F)*%
X73348200Y-127424200D03*
%TO.N,Net-(U52-I0b)*%
X207037400Y-122380500D03*
%TO.N,Net-(U31-Q)*%
X130295000Y-153163600D03*
%TO.N,~{II}*%
X209546100Y-50197100D03*
%TO.N,~{IO}*%
X226205300Y-49057500D03*
%TO.N,Net-(U51-I1c)*%
X209378100Y-127171300D03*
%TO.N,Net-(U26-Pad6)*%
X199266700Y-76840700D03*
%TO.N,~{CLR}*%
X174884900Y-127421700D03*
%TO.N,~{RO}*%
X142873200Y-144546300D03*
%TO.N,Net-(U23-D0)*%
X193363700Y-128164400D03*
%TO.N,Net-(U24-Zd)*%
X193440200Y-138215900D03*
%TO.N,Net-(U21-D2)*%
X250915900Y-114217800D03*
%TO.N,Net-(U21-D1)*%
X173928300Y-122301800D03*
X250293200Y-121473200D03*
%TO.N,BUS_7*%
X244378800Y-65834400D03*
%TO.N,BUS_6*%
X215691200Y-83170900D03*
X214086700Y-74567500D03*
X180196200Y-71930100D03*
%TO.N,BUS_4*%
X160230000Y-68815700D03*
X220248800Y-92097900D03*
%TO.N,~{EO}*%
X150362700Y-85790000D03*
%TO.N,Net-(U14-B1)*%
X289786000Y-68666700D03*
%TO.N,Net-(U13-B3)*%
X282187300Y-61043200D03*
%TO.N,Net-(U10-Pad2)*%
X272969100Y-51866900D03*
%TO.N,Net-(U10-Pad10)*%
X297770000Y-77638000D03*
%TO.N,Net-(U10-Pad1)*%
X295652400Y-76050200D03*
%TO.N,Net-(U10-Pad9)*%
X301271300Y-70811700D03*
%TO.N,~{BI}*%
X142279300Y-94248000D03*
%TO.N,CLR*%
X207825400Y-76840700D03*
X309577400Y-99965600D03*
X240751500Y-97240200D03*
%TO.N,Net-(U21-D3)*%
X181247400Y-122681400D03*
X229202600Y-123429600D03*
%TO.N,Net-(U23-D2)*%
X222478900Y-117997800D03*
%TO.N,Net-(U21-D0)*%
X188265400Y-139125600D03*
%TO.N,~{CLK}*%
X251006900Y-55180900D03*
%TO.N,Net-(U24-Za)*%
X226011400Y-129144600D03*
%TO.N,Net-(U4-Pad6)*%
X279509000Y-141407800D03*
%TO.N,Net-(U4-Pad9)*%
X277157800Y-145277200D03*
%TO.N,Net-(U4-Pad3)*%
X310127000Y-127424200D03*
%TO.N,Net-(U3-Q)*%
X290197400Y-142639300D03*
%TO.N,Net-(U2-Q)*%
X280155000Y-139326200D03*
%TO.N,Net-(U24-I0d)*%
X179049500Y-141374400D03*
%TO.N,Net-(R64-Pad1)*%
X97831600Y-112959500D03*
%TO.N,Net-(U31-DIS)*%
X127765500Y-150909500D03*
X131182900Y-129928900D03*
%TO.N,Net-(U1-DIS)*%
X303126300Y-120599700D03*
%TO.N,Net-(D117-A)*%
X185080000Y-47116700D03*
%TO.N,IR_5*%
X137202100Y-42709100D03*
X171085000Y-49759800D03*
%TO.N,BUS_3*%
X178250200Y-151142300D03*
X148063000Y-68129500D03*
X171488100Y-46544300D03*
X268580500Y-70358900D03*
%TO.N,BUS_2*%
X162412800Y-79816200D03*
X270618300Y-73230800D03*
X174250500Y-47146000D03*
%TO.N,BUS_1*%
X166243600Y-82760400D03*
X187757100Y-64214800D03*
X186812900Y-142636600D03*
X279094700Y-68433200D03*
%TO.N,BUS_0*%
X190557500Y-66182500D03*
X145338400Y-106209300D03*
X278894600Y-67120200D03*
X171843100Y-88330000D03*
%TO.N,Net-(D53-A)*%
X109972400Y-42056600D03*
%TO.N,Net-(D52-A)*%
X112535100Y-41795900D03*
%TO.N,Net-(D51-A)*%
X136130900Y-56698800D03*
%TO.N,OI*%
X111553200Y-97032400D03*
%TO.N,SU*%
X94328600Y-58987700D03*
X275068100Y-60007700D03*
%TO.N,Net-(D46-A)*%
X85022100Y-59928100D03*
%TO.N,Net-(D44-A)*%
X76012000Y-119809900D03*
%TO.N,Net-(D43-A)*%
X89638600Y-120992200D03*
X88624900Y-106484200D03*
%TO.N,Net-(D42-A)*%
X70351000Y-67914200D03*
%TO.N,Net-(D41-A)*%
X67353800Y-64938700D03*
X128553500Y-60985700D03*
%TO.N,RI*%
X55365000Y-61963200D03*
X198193800Y-63840500D03*
%TO.N,Net-(D39-A)*%
X128076400Y-55906100D03*
X54531600Y-61135300D03*
%TO.N,HLT*%
X46373400Y-58987700D03*
X244377200Y-58603300D03*
%TO.N,/ALU/B_1*%
X292142200Y-88981400D03*
%TO.N,/ALU/B_4*%
X297154800Y-76349000D03*
%TO.N,/ALU/B_5*%
X301974000Y-74295700D03*
%TO.N,/MAR/A0*%
X238194200Y-100644700D03*
%TO.N,/MAR/A1*%
X234067400Y-101647200D03*
%TO.N,/MAR/A2*%
X196120700Y-44508900D03*
%TO.N,/MAR/A3*%
X198397200Y-44172700D03*
%TO.N,Net-(D17-A)*%
X292142200Y-80237000D03*
%TO.N,Net-(D16-A)*%
X295652400Y-82791700D03*
%TO.N,Net-(D12-A)*%
X280437800Y-74185800D03*
%TO.N,Net-(D11-A)*%
X282497300Y-71415800D03*
%TO.N,/ALU/A_0*%
X230153700Y-69895900D03*
%TO.N,/ALU/A_1*%
X286701000Y-62555400D03*
%TO.N,/ALU/A_2*%
X292143800Y-67914200D03*
%TO.N,/ALU/A_3*%
X250183000Y-56539000D03*
%TO.N,/ALU/A_4*%
X210964000Y-58603300D03*
X210616800Y-67587200D03*
%TO.N,/ALU/A_5*%
X214216600Y-56030000D03*
%TO.N,/ALU/A_6*%
X279835400Y-72498700D03*
%TO.N,Net-(U31-THR)*%
X123854900Y-153649100D03*
X154272600Y-154203700D03*
%TO.N,CLK*%
X263868800Y-95579700D03*
%TO.N,Net-(C14-Pad2)*%
X262171800Y-112546700D03*
%TO.N,BUS_5*%
X162195000Y-76879500D03*
X199913000Y-133419800D03*
X162767400Y-69651200D03*
X217587100Y-79295400D03*
%TO.N,Net-(U1-THR)*%
X301469500Y-120773900D03*
%TO.N,Net-(U2-CV)*%
X279509000Y-147942600D03*
%TO.N,VCC*%
X32500000Y-107500000D03*
X31000000Y-114000000D03*
X27500000Y-109000000D03*
X27500000Y-112500000D03*
X301575900Y-118287400D03*
X123792700Y-150909500D03*
X279509000Y-142301700D03*
X286210400Y-148304200D03*
X285407500Y-147450500D03*
X292130900Y-122054100D03*
%TO.N,GND*%
X31000000Y-103500000D03*
X31000000Y-104500000D03*
X31000000Y-106000000D03*
X31500000Y-107000000D03*
X32500000Y-114500000D03*
X31500000Y-115500000D03*
X31000000Y-116500000D03*
X31500000Y-118000000D03*
X26500000Y-115000000D03*
X20500000Y-104000000D03*
X24500000Y-104500000D03*
X26500000Y-106500000D03*
X26500000Y-108000000D03*
X26500000Y-113500000D03*
X24500000Y-116500000D03*
X20500000Y-116500000D03*
X285694600Y-142301700D03*
X292130900Y-118497700D03*
X122260200Y-150307600D03*
X289606500Y-144014600D03*
X292550500Y-147885100D03*
%TD*%
D41*
%TO.N,Net-(U31-Q)*%
X130295000Y-153344500D02*
X130295000Y-153163600D01*
X129388100Y-154251400D02*
X130295000Y-153344500D01*
X121411200Y-154251400D02*
X129388100Y-154251400D01*
X120808900Y-153649100D02*
X121411200Y-154251400D01*
%TO.N,Net-(U3-Q)*%
X291585400Y-144027300D02*
X290197400Y-142639300D01*
X292542100Y-144027300D02*
X291585400Y-144027300D01*
%TO.N,Net-(U2-Q)*%
X281932100Y-141103300D02*
X281932100Y-142187300D01*
X280155000Y-139326200D02*
X281932100Y-141103300D01*
%TO.N,Net-(U1-Q)*%
X289877100Y-121047300D02*
X289437100Y-120607300D01*
X294592100Y-121047300D02*
X289877100Y-121047300D01*
%TO.N,Net-(SW2-C)*%
X293162100Y-142757300D02*
X296317100Y-139602300D01*
X292542100Y-142757300D02*
X293162100Y-142757300D01*
%TO.N,Net-(U31-DIS)*%
X126295900Y-152379100D02*
X127765500Y-150909500D01*
X125758900Y-152379100D02*
X126295900Y-152379100D01*
%TO.N,Net-(SW2-A)*%
X292187100Y-145297300D02*
X292542100Y-145297300D01*
X291208500Y-146275900D02*
X292187100Y-145297300D01*
X291208500Y-148493700D02*
X291208500Y-146275900D01*
X292567100Y-149852300D02*
X291208500Y-148493700D01*
%TO.N,Net-(U2-TR)*%
X283202100Y-139237300D02*
X283202100Y-142187300D01*
X283127100Y-139162300D02*
X283202100Y-139237300D01*
%TO.N,Net-(U1-DIS)*%
X302303900Y-119777300D02*
X303126300Y-120599700D01*
X299542100Y-119777300D02*
X302303900Y-119777300D01*
%TO.N,Net-(J1-CC1)*%
X29579400Y-110170000D02*
X30374400Y-109375000D01*
X24500000Y-110170000D02*
X29579400Y-110170000D01*
%TO.N,Net-(J1-CC2)*%
X29130000Y-111170000D02*
X24500000Y-111170000D01*
X30380000Y-112420000D02*
X29130000Y-111170000D01*
%TO.N,Net-(U31-CV)*%
X124166400Y-156511600D02*
X124166400Y-159879100D01*
X125758900Y-154919100D02*
X124166400Y-156511600D01*
%TO.N,Net-(U31-THR)*%
X122584900Y-152379100D02*
X123854900Y-153649100D01*
X120808900Y-152379100D02*
X122584900Y-152379100D01*
X125758900Y-153649100D02*
X123854900Y-153649100D01*
%TO.N,Net-(U1-THR)*%
X299815500Y-120773900D02*
X299542100Y-121047300D01*
X301469500Y-120773900D02*
X299815500Y-120773900D01*
X296537100Y-121047300D02*
X299542100Y-121047300D01*
X295267100Y-119777300D02*
X296537100Y-121047300D01*
X294592100Y-119777300D02*
X295267100Y-119777300D01*
%TO.N,Net-(U3-CV)*%
X293317100Y-137032300D02*
X293317100Y-136662300D01*
X287592100Y-142757300D02*
X293317100Y-137032300D01*
%TO.N,Net-(U2-DIS)*%
X283202100Y-147137300D02*
X281932100Y-147137300D01*
X281932100Y-149777300D02*
X281932100Y-147137300D01*
X282067100Y-149912300D02*
X281932100Y-149777300D01*
%TO.N,Net-(U2-CV)*%
X279856800Y-147942600D02*
X280662100Y-147137300D01*
X279509000Y-147942600D02*
X279856800Y-147942600D01*
%TO.N,Net-(U1-CV)*%
X300197100Y-121662300D02*
X299542100Y-122317300D01*
X304067100Y-121662300D02*
X300197100Y-121662300D01*
%TO.N,VCC*%
X27350000Y-109150000D02*
X27500000Y-109000000D01*
X24500000Y-109150000D02*
X27350000Y-109150000D01*
X27190000Y-112190000D02*
X27500000Y-112500000D01*
X24500000Y-112190000D02*
X27190000Y-112190000D01*
X299762000Y-118287400D02*
X299542100Y-118507300D01*
X301575900Y-118287400D02*
X299762000Y-118287400D01*
X125559300Y-150909500D02*
X125758900Y-151109100D01*
X123792700Y-150909500D02*
X125559300Y-150909500D01*
X280547700Y-142301700D02*
X280662100Y-142187300D01*
X279509000Y-142301700D02*
X280547700Y-142301700D01*
X287592100Y-146922500D02*
X287592100Y-146567300D01*
X286210400Y-148304200D02*
X287592100Y-146922500D01*
X284785300Y-147450500D02*
X284472100Y-147137300D01*
X285407500Y-147450500D02*
X284785300Y-147450500D01*
X294328900Y-122054100D02*
X294592100Y-122317300D01*
X292130900Y-122054100D02*
X294328900Y-122054100D01*
%TO.N,GND*%
X26490000Y-114990000D02*
X26500000Y-115000000D01*
X24320000Y-114990000D02*
X26490000Y-114990000D01*
X20520000Y-104020000D02*
X20500000Y-104000000D01*
X20520000Y-106350000D02*
X20520000Y-104020000D01*
X24320000Y-104680000D02*
X24500000Y-104500000D01*
X24320000Y-106350000D02*
X24320000Y-104680000D01*
X26350000Y-106350000D02*
X26500000Y-106500000D01*
X24320000Y-106350000D02*
X26350000Y-106350000D01*
X26420000Y-107920000D02*
X26500000Y-108000000D01*
X24500000Y-107920000D02*
X26420000Y-107920000D01*
X26420000Y-113420000D02*
X26500000Y-113500000D01*
X24500000Y-113420000D02*
X26420000Y-113420000D01*
X24320000Y-116320000D02*
X24500000Y-116500000D01*
X24320000Y-114990000D02*
X24320000Y-116320000D01*
X20520000Y-116480000D02*
X20500000Y-116500000D01*
X20520000Y-114990000D02*
X20520000Y-116480000D01*
X284586500Y-142301700D02*
X284472100Y-142187300D01*
X285694600Y-142301700D02*
X284586500Y-142301700D01*
X294582500Y-118497700D02*
X294592100Y-118507300D01*
X292130900Y-118497700D02*
X294582500Y-118497700D01*
X121610400Y-150307600D02*
X120808900Y-151109100D01*
X122260200Y-150307600D02*
X121610400Y-150307600D01*
X287604800Y-144014600D02*
X287592100Y-144027300D01*
X289606500Y-144014600D02*
X287604800Y-144014600D01*
X292542100Y-147876700D02*
X292542100Y-146567300D01*
X292550500Y-147885100D02*
X292542100Y-147876700D01*
%TD*%
M02*
