%TF.GenerationSoftware,KiCad,Pcbnew,9.0.6*%
%TF.CreationDate,2025-11-18T15:10:36-06:00*%
%TF.ProjectId,8-Bit-PC,382d4269-742d-4504-932e-6b696361645f,1*%
%TF.SameCoordinates,Original*%
%TF.FileFunction,Copper,L4,Inr*%
%TF.FilePolarity,Positive*%
%FSLAX46Y46*%
G04 Gerber Fmt 4.6, Leading zero omitted, Abs format (unit mm)*
G04 Created by KiCad (PCBNEW 9.0.6) date 2025-11-18 15:10:36*
%MOMM*%
%LPD*%
G01*
G04 APERTURE LIST*
G04 Aperture macros list*
%AMRoundRect*
0 Rectangle with rounded corners*
0 $1 Rounding radius*
0 $2 $3 $4 $5 $6 $7 $8 $9 X,Y pos of 4 corners*
0 Add a 4 corners polygon primitive as box body*
4,1,4,$2,$3,$4,$5,$6,$7,$8,$9,$2,$3,0*
0 Add four circle primitives for the rounded corners*
1,1,$1+$1,$2,$3*
1,1,$1+$1,$4,$5*
1,1,$1+$1,$6,$7*
1,1,$1+$1,$8,$9*
0 Add four rect primitives between the rounded corners*
20,1,$1+$1,$2,$3,$4,$5,0*
20,1,$1+$1,$4,$5,$6,$7,0*
20,1,$1+$1,$6,$7,$8,$9,0*
20,1,$1+$1,$8,$9,$2,$3,0*%
G04 Aperture macros list end*
%TA.AperFunction,ComponentPad*%
%ADD10C,1.600000*%
%TD*%
%TA.AperFunction,ComponentPad*%
%ADD11RoundRect,0.250000X-0.550000X-0.550000X0.550000X-0.550000X0.550000X0.550000X-0.550000X0.550000X0*%
%TD*%
%TA.AperFunction,ComponentPad*%
%ADD12C,1.200000*%
%TD*%
%TA.AperFunction,ComponentPad*%
%ADD13R,1.295400X1.295400*%
%TD*%
%TA.AperFunction,ComponentPad*%
%ADD14C,1.295400*%
%TD*%
%TA.AperFunction,ComponentPad*%
%ADD15R,1.800000X1.800000*%
%TD*%
%TA.AperFunction,ComponentPad*%
%ADD16C,1.800000*%
%TD*%
%TA.AperFunction,ComponentPad*%
%ADD17R,1.378000X1.378000*%
%TD*%
%TA.AperFunction,ComponentPad*%
%ADD18C,1.378000*%
%TD*%
%TA.AperFunction,ComponentPad*%
%ADD19C,2.000000*%
%TD*%
%TA.AperFunction,ComponentPad*%
%ADD20R,1.600000X1.600000*%
%TD*%
%TA.AperFunction,ComponentPad*%
%ADD21RoundRect,0.250000X0.550000X0.550000X-0.550000X0.550000X-0.550000X-0.550000X0.550000X-0.550000X0*%
%TD*%
%TA.AperFunction,ComponentPad*%
%ADD22R,1.676400X1.676400*%
%TD*%
%TA.AperFunction,ComponentPad*%
%ADD23C,1.676400*%
%TD*%
%TA.AperFunction,HeatsinkPad*%
%ADD24O,1.700000X1.000000*%
%TD*%
%TA.AperFunction,ComponentPad*%
%ADD25O,3.240000X2.720000*%
%TD*%
%TA.AperFunction,ComponentPad*%
%ADD26RoundRect,0.250000X0.550000X-0.550000X0.550000X0.550000X-0.550000X0.550000X-0.550000X-0.550000X0*%
%TD*%
%TA.AperFunction,ComponentPad*%
%ADD27RoundRect,0.250000X-0.550000X0.550000X-0.550000X-0.550000X0.550000X-0.550000X0.550000X0.550000X0*%
%TD*%
%TA.AperFunction,ViaPad*%
%ADD28C,0.600000*%
%TD*%
%TA.AperFunction,Conductor*%
%ADD29C,0.200000*%
%TD*%
G04 APERTURE END LIST*
D10*
%TO.N,Net-(D16-K)*%
%TO.C,R14*%
X266917100Y-109792300D03*
%TO.N,GND*%
X266917100Y-117412300D03*
%TD*%
D11*
%TO.N,Net-(U3-Q)*%
%TO.C,U5*%
X253130000Y-125790000D03*
D10*
%TO.N,Net-(U4-Pad4)*%
X253130000Y-128330000D03*
%TO.N,Net-(U52-Zb)*%
X253130000Y-130870000D03*
%TO.N,Net-(U21-D1)*%
X253130000Y-133410000D03*
%TO.N,Net-(U52-Zc)*%
X253130000Y-135950000D03*
%TO.N,Net-(U21-D2)*%
X253130000Y-138490000D03*
%TO.N,GND*%
X253130000Y-141030000D03*
%TO.N,Net-(U4-Pad10)*%
X260750000Y-141030000D03*
%TO.N,HLT*%
X260750000Y-138490000D03*
%TO.N,Net-(U23-D1)*%
X260750000Y-135950000D03*
%TO.N,Net-(U24-Zc)*%
X260750000Y-133410000D03*
%TO.N,~{CLK}*%
X260750000Y-130870000D03*
%TO.N,CLK*%
X260750000Y-128330000D03*
%TO.N,VCC*%
X260750000Y-125790000D03*
%TD*%
D12*
%TO.N,VCC*%
%TO.C,C47*%
X192000000Y-122000000D03*
%TO.N,GND*%
X192000000Y-120000000D03*
%TD*%
%TO.N,VCC*%
%TO.C,C8*%
X333040000Y-86300000D03*
%TO.N,GND*%
X333040000Y-88300000D03*
%TD*%
D10*
%TO.N,GND*%
%TO.C,C3*%
X275567100Y-149662300D03*
%TO.N,Net-(U2-DIS)*%
X278067100Y-149662300D03*
%TD*%
%TO.N,Net-(D025-K)*%
%TO.C,R94*%
X319460000Y-72670000D03*
%TO.N,GND*%
X319460000Y-65050000D03*
%TD*%
D11*
%TO.N,/MAR/PROG*%
%TO.C,U52*%
X205977100Y-125657300D03*
D10*
%TO.N,Net-(U52-I0a)*%
X205977100Y-128197300D03*
%TO.N,BUS_7*%
X205977100Y-130737300D03*
%TO.N,Net-(U52-Za)*%
X205977100Y-133277300D03*
%TO.N,Net-(U52-I0b)*%
X205977100Y-135817300D03*
%TO.N,BUS_6*%
X205977100Y-138357300D03*
%TO.N,Net-(U52-Zb)*%
X205977100Y-140897300D03*
%TO.N,GND*%
X205977100Y-143437300D03*
%TO.N,Net-(U52-Zd)*%
X213597100Y-143437300D03*
%TO.N,BUS_4*%
X213597100Y-140897300D03*
%TO.N,Net-(U52-I0d)*%
X213597100Y-138357300D03*
%TO.N,Net-(U52-Zc)*%
X213597100Y-135817300D03*
%TO.N,BUS_5*%
X213597100Y-133277300D03*
%TO.N,Net-(U52-I0c)*%
X213597100Y-130737300D03*
%TO.N,GND*%
X213597100Y-128197300D03*
%TO.N,VCC*%
X213597100Y-125657300D03*
%TD*%
%TO.N,Net-(D112-K)*%
%TO.C,R83*%
X157500000Y-34920000D03*
%TO.N,GND*%
X157500000Y-27300000D03*
%TD*%
%TO.N,Net-(D116-K)*%
%TO.C,R87*%
X177500000Y-34920000D03*
%TO.N,GND*%
X177500000Y-27300000D03*
%TD*%
D13*
%TO.N,GND*%
%TO.C,U8*%
X310870000Y-93930000D03*
D14*
X308330000Y-93930000D03*
%TO.N,/ALU/B_7*%
X305790000Y-93930000D03*
%TO.N,/ALU/B_6*%
X303250000Y-93930000D03*
%TO.N,/ALU/B_5*%
X300710000Y-93930000D03*
%TO.N,/ALU/B_4*%
X298170000Y-93930000D03*
%TO.N,CLK*%
X295630000Y-93930000D03*
%TO.N,GND*%
X293090000Y-93930000D03*
%TO.N,~{BI}*%
X293090000Y-101550000D03*
X295630000Y-101550000D03*
%TO.N,BUS_4*%
X298170000Y-101550000D03*
%TO.N,BUS_5*%
X300710000Y-101550000D03*
%TO.N,BUS_6*%
X303250000Y-101550000D03*
%TO.N,BUS_7*%
X305790000Y-101550000D03*
%TO.N,CLR*%
X308330000Y-101550000D03*
%TO.N,VCC*%
X310870000Y-101550000D03*
%TD*%
D11*
%TO.N,Net-(U51-Zc)*%
%TO.C,U20*%
X227527100Y-125667300D03*
D10*
%TO.N,Net-(U21-\u002AWE)*%
X227527100Y-128207300D03*
%TO.N,Net-(U24-Zb)*%
X227527100Y-130747300D03*
%TO.N,Net-(U23-D3)*%
X227527100Y-133287300D03*
%TO.N,Net-(U24-Za)*%
X227527100Y-135827300D03*
%TO.N,Net-(U23-D2)*%
X227527100Y-138367300D03*
%TO.N,GND*%
X227527100Y-140907300D03*
%TO.N,Net-(U21-D3)*%
X235147100Y-140907300D03*
%TO.N,Net-(U52-Zd)*%
X235147100Y-138367300D03*
%TO.N,N/C*%
X235147100Y-135827300D03*
X235147100Y-133287300D03*
%TO.N,Net-(U23-D0)*%
X235147100Y-130747300D03*
%TO.N,Net-(U24-Zd)*%
X235147100Y-128207300D03*
%TO.N,VCC*%
X235147100Y-125667300D03*
%TD*%
D13*
%TO.N,Net-(U41-~{MR})*%
%TO.C,U41*%
X84032100Y-51252300D03*
D14*
%TO.N,~{CLK}*%
X84032100Y-48712300D03*
%TO.N,unconnected-(U41-D0-Pad3)*%
X84032100Y-46172300D03*
%TO.N,unconnected-(U41-D1-Pad4)*%
X84032100Y-43632300D03*
%TO.N,unconnected-(U41-D2-Pad5)*%
X84032100Y-41092300D03*
%TO.N,unconnected-(U41-D3-Pad6)*%
X84032100Y-38552300D03*
%TO.N,VCC*%
X84032100Y-36012300D03*
%TO.N,GND*%
X84032100Y-33472300D03*
%TO.N,VCC*%
X76412100Y-33472300D03*
X76412100Y-36012300D03*
%TO.N,unconnected-(U41-Q3-Pad11)*%
X76412100Y-38552300D03*
%TO.N,Net-(D61-A)*%
X76412100Y-41092300D03*
%TO.N,Net-(D60-A)*%
X76412100Y-43632300D03*
%TO.N,Net-(D59-A)*%
X76412100Y-46172300D03*
%TO.N,unconnected-(U41-TC-Pad15)*%
X76412100Y-48712300D03*
%TO.N,VCC*%
X76412100Y-51252300D03*
%TD*%
D12*
%TO.N,VCC*%
%TO.C,C11*%
X249000000Y-42420000D03*
%TO.N,GND*%
X251000000Y-42420000D03*
%TD*%
%TO.N,VCC*%
%TO.C,C39*%
X234500000Y-101000000D03*
%TO.N,GND*%
X234500000Y-99000000D03*
%TD*%
D15*
%TO.N,Net-(D31-K)*%
%TO.C,D31*%
X205080000Y-161420000D03*
D16*
%TO.N,Net-(D31-A)*%
X207620000Y-161420000D03*
%TD*%
D15*
%TO.N,Net-(D116-K)*%
%TO.C,D116*%
X177460000Y-39920000D03*
D16*
%TO.N,Net-(D116-A)*%
X180000000Y-39920000D03*
%TD*%
D10*
%TO.N,Net-(C14-Pad2)*%
%TO.C,R32*%
X202817100Y-99912300D03*
%TO.N,GND*%
X195197100Y-99912300D03*
%TD*%
D11*
%TO.N,Net-(U4-Pad3)*%
%TO.C,U6*%
X312620000Y-141580000D03*
D10*
%TO.N,Net-(U4-Pad6)*%
X312620000Y-144120000D03*
%TO.N,Net-(U4-Pad9)*%
X312620000Y-146660000D03*
%TO.N,unconnected-(U6-Pad4)*%
X312620000Y-149200000D03*
%TO.N,unconnected-(U6-Pad5)*%
X312620000Y-151740000D03*
%TO.N,unconnected-(U6-Pad6)*%
X312620000Y-154280000D03*
%TO.N,GND*%
X312620000Y-156820000D03*
%TO.N,unconnected-(U6-Pad8)*%
X320240000Y-156820000D03*
%TO.N,unconnected-(U6-Pad9)*%
X320240000Y-154280000D03*
%TO.N,unconnected-(U6-Pad10)*%
X320240000Y-151740000D03*
%TO.N,unconnected-(U6-Pad11)*%
X320240000Y-149200000D03*
%TO.N,unconnected-(U6-Pad12)*%
X320240000Y-146660000D03*
%TO.N,unconnected-(U6-Pad13)*%
X320240000Y-144120000D03*
%TO.N,VCC*%
X320240000Y-141580000D03*
%TD*%
D15*
%TO.N,Net-(D57-K)*%
%TO.C,D57*%
X108902100Y-103552300D03*
D16*
%TO.N,Net-(D57-A)*%
X111442100Y-103552300D03*
%TD*%
D15*
%TO.N,Net-(D53-K)*%
%TO.C,D53*%
X117787100Y-122412300D03*
D16*
%TO.N,Net-(D53-A)*%
X120327100Y-122412300D03*
%TD*%
D10*
%TO.N,Net-(D17-K)*%
%TO.C,R15*%
X271717100Y-109602300D03*
%TO.N,GND*%
X271717100Y-117222300D03*
%TD*%
%TO.N,Net-(D15-K)*%
%TO.C,R13*%
X262167100Y-109542300D03*
%TO.N,GND*%
X262167100Y-117162300D03*
%TD*%
D15*
%TO.N,Net-(D112-K)*%
%TO.C,D112*%
X157500000Y-39920000D03*
D16*
%TO.N,IR_7*%
X160040000Y-39920000D03*
%TD*%
D10*
%TO.N,GND*%
%TO.C,R16*%
X276917100Y-117352300D03*
%TO.N,Net-(D18-K)*%
X276917100Y-109732300D03*
%TD*%
D15*
%TO.N,Net-(D14-K)*%
%TO.C,D14*%
X259460000Y-53920000D03*
D16*
%TO.N,CF*%
X262000000Y-53920000D03*
%TD*%
D12*
%TO.N,GND*%
%TO.C,C25*%
X287500000Y-151500000D03*
%TO.N,VCC*%
X287500000Y-149500000D03*
%TD*%
D10*
%TO.N,VCC*%
%TO.C,R3*%
X275507100Y-139162300D03*
%TO.N,Net-(U2-TR)*%
X283127100Y-139162300D03*
%TD*%
%TO.N,Net-(D62-K)*%
%TO.C,R65*%
X53667700Y-106657100D03*
%TO.N,GND*%
X46047700Y-106657100D03*
%TD*%
%TO.N,Net-(D20-K)*%
%TO.C,R20*%
X222197100Y-47272300D03*
%TO.N,GND*%
X222197100Y-54892300D03*
%TD*%
D15*
%TO.N,Net-(D69-K)*%
%TO.C,D69*%
X58500000Y-71650000D03*
D16*
%TO.N,BUS_7*%
X58500000Y-69110000D03*
%TD*%
D15*
%TO.N,Net-(D13-K)*%
%TO.C,D13*%
X257242100Y-103852300D03*
D16*
%TO.N,Net-(D13-A)*%
X259782100Y-103852300D03*
%TD*%
D10*
%TO.N,BUS_1*%
%TO.C,R79*%
X36000000Y-99500000D03*
%TO.N,GND*%
X43620000Y-99500000D03*
%TD*%
%TO.N,Net-(D028-K)*%
%TO.C,R97*%
X304460000Y-72670000D03*
%TO.N,GND*%
X304460000Y-65050000D03*
%TD*%
D17*
%TO.N,N/C*%
%TO.C,U43*%
X89442550Y-32020000D03*
D18*
%TO.N,GND*%
X89442550Y-34560000D03*
X89442550Y-37100000D03*
%TO.N,IR_7*%
X89442550Y-39640000D03*
%TO.N,IR_6*%
X89442550Y-42180000D03*
%TO.N,IR_5*%
X89442550Y-44720000D03*
%TO.N,IR_4*%
X89442550Y-47260000D03*
%TO.N,Net-(D61-A)*%
X89442550Y-49800000D03*
%TO.N,Net-(D60-A)*%
X89442550Y-52340000D03*
%TO.N,Net-(D59-A)*%
X89442550Y-54880000D03*
%TO.N,Net-(D45-A)*%
X89442550Y-57420000D03*
%TO.N,Net-(D44-A)*%
X89442550Y-59960000D03*
%TO.N,Net-(D43-A)*%
X89442550Y-62500000D03*
%TO.N,GND*%
X89442550Y-65040000D03*
%TO.N,Net-(D42-A)*%
X105000050Y-65040000D03*
%TO.N,Net-(D41-A)*%
X105000050Y-62500000D03*
%TO.N,RI*%
X105000050Y-59960000D03*
%TO.N,Net-(D39-A)*%
X105000050Y-57420000D03*
%TO.N,HLT*%
X105000050Y-54880000D03*
%TO.N,GND*%
X105000050Y-52340000D03*
X105000050Y-49800000D03*
X105000050Y-47260000D03*
X105000050Y-44720000D03*
%TO.N,ZF*%
X105000050Y-42180000D03*
%TO.N,CF*%
X105000050Y-39640000D03*
%TO.N,N/C*%
X105000050Y-37100000D03*
%TO.N,VCC*%
X105000050Y-34560000D03*
X105000050Y-32020000D03*
%TD*%
D12*
%TO.N,VCC*%
%TO.C,C24*%
X278000000Y-143500000D03*
%TO.N,GND*%
X276000000Y-143500000D03*
%TD*%
%TO.N,VCC*%
%TO.C,C30*%
X253000000Y-88000000D03*
%TO.N,GND*%
X253000000Y-86000000D03*
%TD*%
D15*
%TO.N,Net-(D17-K)*%
%TO.C,D17*%
X271842100Y-103852300D03*
D16*
%TO.N,Net-(D17-A)*%
X274382100Y-103852300D03*
%TD*%
D15*
%TO.N,Net-(D59-K)*%
%TO.C,D59*%
X102902100Y-86552300D03*
D16*
%TO.N,Net-(D59-A)*%
X105442100Y-86552300D03*
%TD*%
D12*
%TO.N,VCC*%
%TO.C,C68*%
X124000000Y-28000000D03*
%TO.N,GND*%
X124000000Y-26000000D03*
%TD*%
D15*
%TO.N,Net-(D115-K)*%
%TO.C,D115*%
X172460000Y-39920000D03*
D16*
%TO.N,IR_4*%
X175000000Y-39920000D03*
%TD*%
D19*
%TO.N,GND*%
%TO.C,SW6*%
X248817100Y-149927300D03*
X242317100Y-149927300D03*
%TO.N,Net-(U51-I0c)*%
X248817100Y-145427300D03*
X242317100Y-145427300D03*
%TD*%
D15*
%TO.N,Net-(D30-K)*%
%TO.C,D30*%
X200120000Y-161420000D03*
D16*
%TO.N,Net-(D30-A)*%
X202660000Y-161420000D03*
%TD*%
D11*
%TO.N,Net-(U31-Q)*%
%TO.C,U32*%
X130383900Y-134069100D03*
D10*
%TO.N,VCC*%
X130383900Y-136609100D03*
X130383900Y-139149100D03*
X130383900Y-141689100D03*
X130383900Y-144229100D03*
%TO.N,Net-(U32A-~{Q})*%
X130383900Y-146769100D03*
%TO.N,VCC*%
X130383900Y-149309100D03*
X130383900Y-151849100D03*
X138003900Y-151849100D03*
%TO.N,Net-(U32B-~{Q})*%
X138003900Y-149309100D03*
%TO.N,unconnected-(U32B-Q-Pad11)*%
X138003900Y-146769100D03*
%TO.N,VCC*%
X138003900Y-144229100D03*
%TO.N,GND*%
X138003900Y-141689100D03*
%TO.N,Net-(U32A-~{Q})*%
X138003900Y-139149100D03*
%TO.N,unconnected-(U32A-Q-Pad15)*%
X138003900Y-136609100D03*
%TO.N,VCC*%
X138003900Y-134069100D03*
%TD*%
D15*
%TO.N,Net-(D50-K)*%
%TO.C,D50*%
X102277100Y-122412300D03*
D16*
%TO.N,CE*%
X104817100Y-122412300D03*
%TD*%
D20*
%TO.N,Net-(U34-E)*%
%TO.C,U35*%
X81636400Y-145879100D03*
D10*
%TO.N,Net-(U34-D)*%
X84176400Y-145879100D03*
%TO.N,Net-(U33A-O0)*%
X86716400Y-145879100D03*
%TO.N,Net-(U34-C)*%
X89256400Y-145879100D03*
%TO.N,Net-(U34-DP)*%
X91796400Y-145879100D03*
%TO.N,Net-(U34-B)*%
X91796400Y-130639100D03*
%TO.N,Net-(U34-A)*%
X89256400Y-130639100D03*
%TO.N,Net-(U33A-O0)*%
X86716400Y-130639100D03*
%TO.N,Net-(U34-F)*%
X84176400Y-130639100D03*
%TO.N,Net-(U34-G)*%
X81636400Y-130639100D03*
%TD*%
D15*
%TO.N,Net-(D11-K)*%
%TO.C,D11*%
X247477100Y-103852300D03*
D16*
%TO.N,Net-(D11-A)*%
X250017100Y-103852300D03*
%TD*%
D15*
%TO.N,Net-(D25-K)*%
%TO.C,D25*%
X248710000Y-23500000D03*
D16*
%TO.N,Net-(D25-A)*%
X251250000Y-23500000D03*
%TD*%
D10*
%TO.N,Net-(D57-A)*%
%TO.C,R57*%
X111412100Y-98552300D03*
%TO.N,VCC*%
X111412100Y-90932300D03*
%TD*%
D11*
%TO.N,GND*%
%TO.C,U33*%
X141163900Y-134069100D03*
D10*
%TO.N,Net-(U32A-~{Q})*%
X141163900Y-136609100D03*
%TO.N,Net-(U32B-~{Q})*%
X141163900Y-139149100D03*
%TO.N,Net-(U33A-O0)*%
X141163900Y-141689100D03*
%TO.N,Net-(U33A-O1)*%
X141163900Y-144229100D03*
%TO.N,Net-(U33A-O2)*%
X141163900Y-146769100D03*
%TO.N,Net-(U33A-O3)*%
X141163900Y-149309100D03*
%TO.N,GND*%
X141163900Y-151849100D03*
%TO.N,N/C*%
X148783900Y-151849100D03*
X148783900Y-149309100D03*
X148783900Y-146769100D03*
X148783900Y-144229100D03*
X148783900Y-141689100D03*
X148783900Y-139149100D03*
X148783900Y-136609100D03*
%TO.N,VCC*%
X148783900Y-134069100D03*
%TD*%
D15*
%TO.N,Net-(D38-K)*%
%TO.C,D38*%
X42227100Y-122412300D03*
D16*
%TO.N,HLT*%
X44767100Y-122412300D03*
%TD*%
D10*
%TO.N,Net-(D69-K)*%
%TO.C,R72*%
X53667700Y-71657100D03*
%TO.N,GND*%
X46047700Y-71657100D03*
%TD*%
D12*
%TO.N,VCC*%
%TO.C,C18*%
X148666400Y-120379100D03*
%TO.N,GND*%
X146666400Y-120379100D03*
%TD*%
D15*
%TO.N,Net-(D42-K)*%
%TO.C,D42*%
X62227100Y-122412300D03*
D16*
%TO.N,Net-(D42-A)*%
X64767100Y-122412300D03*
%TD*%
D15*
%TO.N,Net-(D8-K)*%
%TO.C,D8*%
X231587100Y-81162300D03*
D16*
%TO.N,/ALU/A_1*%
X229047100Y-81162300D03*
%TD*%
D10*
%TO.N,Net-(D50-K)*%
%TO.C,R52*%
X102317100Y-117412300D03*
%TO.N,GND*%
X102317100Y-109792300D03*
%TD*%
%TO.N,Net-(D118-K)*%
%TO.C,R89*%
X187500000Y-34790000D03*
%TO.N,GND*%
X187500000Y-27170000D03*
%TD*%
%TO.N,Net-(D33-K)*%
%TO.C,R31*%
X215120000Y-166300000D03*
%TO.N,GND*%
X215120000Y-173920000D03*
%TD*%
%TO.N,VCC*%
%TO.C,R5*%
X292567100Y-157472300D03*
%TO.N,Net-(SW2-A)*%
X292567100Y-149852300D03*
%TD*%
D12*
%TO.N,GND*%
%TO.C,C38*%
X189000000Y-85000000D03*
%TO.N,VCC*%
X189000000Y-83000000D03*
%TD*%
D15*
%TO.N,Net-(D022-K)*%
%TO.C,D022*%
X334460000Y-78920000D03*
D16*
%TO.N,/ALU/B_7*%
X337000000Y-78920000D03*
%TD*%
D10*
%TO.N,Net-(D119-K)*%
%TO.C,R90*%
X192500000Y-34920000D03*
%TO.N,GND*%
X192500000Y-27300000D03*
%TD*%
D12*
%TO.N,VCC*%
%TO.C,C10*%
X255993900Y-82749100D03*
%TO.N,GND*%
X257993900Y-82749100D03*
%TD*%
%TO.N,Net-(U1-THR)*%
%TO.C,C7*%
X317605000Y-107040000D03*
%TO.N,GND*%
X315605000Y-107040000D03*
%TD*%
D15*
%TO.N,Net-(D54-K)*%
%TO.C,D54*%
X90872100Y-103552300D03*
D16*
%TO.N,Net-(D54-A)*%
X93412100Y-103552300D03*
%TD*%
D10*
%TO.N,BUS_0*%
%TO.C,R80*%
X35880000Y-104000000D03*
%TO.N,GND*%
X43500000Y-104000000D03*
%TD*%
%TO.N,BUS_6*%
%TO.C,R74*%
X63325000Y-92640000D03*
%TO.N,GND*%
X70945000Y-92640000D03*
%TD*%
D12*
%TO.N,GND*%
%TO.C,C33*%
X325500000Y-141500000D03*
%TO.N,VCC*%
X323500000Y-141500000D03*
%TD*%
D15*
%TO.N,Net-(D44-K)*%
%TO.C,D44*%
X72277100Y-122412300D03*
D16*
%TO.N,Net-(D44-A)*%
X74817100Y-122412300D03*
%TD*%
D15*
%TO.N,Net-(D48-K)*%
%TO.C,D48*%
X92277100Y-122412300D03*
D16*
%TO.N,Net-(D48-A)*%
X94817100Y-122412300D03*
%TD*%
D21*
%TO.N,Net-(U24-I0d)*%
%TO.C,SW5*%
X176817100Y-143412300D03*
D10*
%TO.N,Net-(U24-I0c)*%
X176817100Y-140872300D03*
%TO.N,GND*%
X176817100Y-138332300D03*
X176817100Y-135792300D03*
%TO.N,Net-(U52-I0d)*%
X176817100Y-133252300D03*
%TO.N,Net-(U52-I0c)*%
X176817100Y-130712300D03*
%TO.N,GND*%
X176817100Y-128172300D03*
X176817100Y-125632300D03*
%TO.N,Net-(U52-I0a)*%
X169197100Y-125632300D03*
%TO.N,Net-(U52-I0b)*%
X169197100Y-128172300D03*
%TO.N,GND*%
X169197100Y-130712300D03*
X169197100Y-133252300D03*
%TO.N,Net-(U24-I0a)*%
X169197100Y-135792300D03*
%TO.N,Net-(U24-I0b)*%
X169197100Y-138332300D03*
%TO.N,GND*%
X169197100Y-140872300D03*
X169197100Y-143412300D03*
%TD*%
D22*
%TO.N,GND*%
%TO.C,U29*%
X143430000Y-66740000D03*
D23*
%TO.N,unconnected-(U29-A0-Pad2)*%
X143430000Y-69280000D03*
%TO.N,unconnected-(U29-A1-Pad3)*%
X143430000Y-71820000D03*
%TO.N,unconnected-(U29-A2-Pad4)*%
X143430000Y-74360000D03*
%TO.N,unconnected-(U29-A3-Pad5)*%
X143430000Y-76900000D03*
%TO.N,BUS_3*%
X143430000Y-79440000D03*
%TO.N,BUS_2*%
X143430000Y-81980000D03*
%TO.N,BUS_1*%
X143430000Y-84520000D03*
%TO.N,BUS_0*%
X143430000Y-87060000D03*
%TO.N,GND*%
X143430000Y-89600000D03*
%TO.N,Net-(D37-A)*%
X151050000Y-89600000D03*
%TO.N,Net-(D36-A)*%
X151050000Y-87060000D03*
%TO.N,Net-(D35-A)*%
X151050000Y-84520000D03*
%TO.N,Net-(D34-A)*%
X151050000Y-81980000D03*
%TO.N,unconnected-(U29-B3-Pad15)*%
X151050000Y-79440000D03*
%TO.N,unconnected-(U29-B2-Pad16)*%
X151050000Y-76900000D03*
%TO.N,unconnected-(U29-B1-Pad17)*%
X151050000Y-74360000D03*
%TO.N,unconnected-(U29-B0-Pad18)*%
X151050000Y-71820000D03*
%TO.N,~{CO}*%
X151050000Y-69280000D03*
%TO.N,VCC*%
X151050000Y-66740000D03*
%TD*%
D10*
%TO.N,Net-(SW7-A)*%
%TO.C,R39*%
X109356400Y-150879100D03*
%TO.N,GND*%
X116976400Y-150879100D03*
%TD*%
D12*
%TO.N,VCC*%
%TO.C,C65*%
X144000000Y-31500000D03*
%TO.N,GND*%
X146000000Y-31500000D03*
%TD*%
D15*
%TO.N,Net-(D10-K)*%
%TO.C,D10*%
X259460000Y-58420000D03*
D16*
%TO.N,ZF*%
X262000000Y-58420000D03*
%TD*%
D15*
%TO.N,Net-(D028-K)*%
%TO.C,D028*%
X304440000Y-78920000D03*
D16*
%TO.N,/ALU/B_1*%
X306980000Y-78920000D03*
%TD*%
D10*
%TO.N,Net-(D42-K)*%
%TO.C,R44*%
X62317100Y-117412300D03*
%TO.N,GND*%
X62317100Y-109792300D03*
%TD*%
D15*
%TO.N,Net-(D20-K)*%
%TO.C,D20*%
X222397100Y-42332300D03*
D16*
%TO.N,/MAR/A3*%
X224937100Y-42332300D03*
%TD*%
D21*
%TO.N,Net-(U52-Za)*%
%TO.C,U22*%
X202437100Y-142152300D03*
D10*
%TO.N,Net-(U21-D0)*%
X202437100Y-139612300D03*
%TO.N,unconnected-(U22-Pad3)*%
X202437100Y-137072300D03*
%TO.N,unconnected-(U22-Pad4)*%
X202437100Y-134532300D03*
%TO.N,unconnected-(U22-Pad5)*%
X202437100Y-131992300D03*
%TO.N,unconnected-(U22-Pad6)*%
X202437100Y-129452300D03*
%TO.N,GND*%
X202437100Y-126912300D03*
%TO.N,unconnected-(U22-Pad8)*%
X194817100Y-126912300D03*
%TO.N,unconnected-(U22-Pad9)*%
X194817100Y-129452300D03*
%TO.N,unconnected-(U22-Pad10)*%
X194817100Y-131992300D03*
%TO.N,unconnected-(U22-Pad11)*%
X194817100Y-134532300D03*
%TO.N,unconnected-(U22-Pad12)*%
X194817100Y-137072300D03*
%TO.N,unconnected-(U22-Pad13)*%
X194817100Y-139612300D03*
%TO.N,VCC*%
X194817100Y-142152300D03*
%TD*%
%TO.N,Net-(D66-K)*%
%TO.C,R69*%
X53667700Y-86157100D03*
%TO.N,GND*%
X46047700Y-86157100D03*
%TD*%
%TO.N,Net-(D26-K)*%
%TO.C,R24*%
X180120000Y-166300000D03*
%TO.N,GND*%
X180120000Y-173920000D03*
%TD*%
%TO.N,VCC*%
%TO.C,R6*%
X296317100Y-147222300D03*
%TO.N,Net-(SW2-C)*%
X296317100Y-139602300D03*
%TD*%
D15*
%TO.N,Net-(D025-K)*%
%TO.C,D025*%
X319420000Y-78920000D03*
D16*
%TO.N,/ALU/B_4*%
X321960000Y-78920000D03*
%TD*%
D20*
%TO.N,Net-(U34-E)*%
%TO.C,U37*%
X109736400Y-145879100D03*
D10*
%TO.N,Net-(U34-D)*%
X112276400Y-145879100D03*
%TO.N,Net-(U33A-O1)*%
X114816400Y-145879100D03*
%TO.N,Net-(U34-C)*%
X117356400Y-145879100D03*
%TO.N,Net-(U34-DP)*%
X119896400Y-145879100D03*
%TO.N,Net-(U34-B)*%
X119896400Y-130639100D03*
%TO.N,Net-(U34-A)*%
X117356400Y-130639100D03*
%TO.N,Net-(U33A-O1)*%
X114816400Y-130639100D03*
%TO.N,Net-(U34-F)*%
X112276400Y-130639100D03*
%TO.N,Net-(U34-G)*%
X109736400Y-130639100D03*
%TD*%
D15*
%TO.N,Net-(D68-K)*%
%TO.C,D68*%
X58500000Y-76650000D03*
D16*
%TO.N,BUS_6*%
X58500000Y-74110000D03*
%TD*%
D10*
%TO.N,Net-(D19-K)*%
%TO.C,R17*%
X281917100Y-109602300D03*
%TO.N,GND*%
X281917100Y-117222300D03*
%TD*%
%TO.N,Net-(D68-K)*%
%TO.C,R71*%
X53667700Y-77157100D03*
%TO.N,GND*%
X46047700Y-77157100D03*
%TD*%
%TO.N,VCC*%
%TO.C,R19*%
X251250000Y-35750000D03*
%TO.N,Net-(D25-A)*%
X251250000Y-28130000D03*
%TD*%
D12*
%TO.N,Net-(U31-CV)*%
%TO.C,C17*%
X124166400Y-159879100D03*
%TO.N,GND*%
X122166400Y-159879100D03*
%TD*%
D15*
%TO.N,Net-(D114-K)*%
%TO.C,D114*%
X167480000Y-39920000D03*
D16*
%TO.N,IR_5*%
X170020000Y-39920000D03*
%TD*%
D12*
%TO.N,VCC*%
%TO.C,C13*%
X237977100Y-112097300D03*
%TO.N,GND*%
X239977100Y-112097300D03*
%TD*%
D10*
%TO.N,VCC*%
%TO.C,R37*%
X162666400Y-134689100D03*
%TO.N,Net-(U31-DIS)*%
X162666400Y-127069100D03*
%TD*%
%TO.N,GND*%
%TO.C,R33*%
X157990000Y-91790000D03*
%TO.N,Net-(D34-K)*%
X157990000Y-84170000D03*
%TD*%
%TO.N,Net-(D60-K)*%
%TO.C,R62*%
X108912100Y-81552300D03*
%TO.N,GND*%
X108912100Y-73932300D03*
%TD*%
D15*
%TO.N,Net-(D61-K)*%
%TO.C,D61*%
X114922100Y-86552300D03*
D16*
%TO.N,Net-(D61-A)*%
X117462100Y-86552300D03*
%TD*%
D15*
%TO.N,Net-(D21-K)*%
%TO.C,D21*%
X228407100Y-42332300D03*
D16*
%TO.N,/MAR/A2*%
X230947100Y-42332300D03*
%TD*%
D11*
%TO.N,Net-(D13-A)*%
%TO.C,U13*%
X276940000Y-45670000D03*
D10*
%TO.N,Net-(U13-B2)*%
X276940000Y-48210000D03*
%TO.N,/ALU/A_5*%
X276940000Y-50750000D03*
%TO.N,Net-(D15-A)*%
X276940000Y-53290000D03*
%TO.N,/ALU/A_4*%
X276940000Y-55830000D03*
%TO.N,Net-(U13-B1)*%
X276940000Y-58370000D03*
%TO.N,Net-(U13-C0)*%
X276940000Y-60910000D03*
%TO.N,GND*%
X276940000Y-63450000D03*
%TO.N,Net-(U12-D0)*%
X284560000Y-63450000D03*
%TO.N,Net-(D11-A)*%
X284560000Y-60910000D03*
%TO.N,Net-(U13-B4)*%
X284560000Y-58370000D03*
%TO.N,/ALU/A_7*%
X284560000Y-55830000D03*
%TO.N,Net-(D12-A)*%
X284560000Y-53290000D03*
%TO.N,/ALU/A_6*%
X284560000Y-50750000D03*
%TO.N,Net-(U13-B3)*%
X284560000Y-48210000D03*
%TO.N,VCC*%
X284560000Y-45670000D03*
%TD*%
%TO.N,Net-(D022-K)*%
%TO.C,R91*%
X334460000Y-72670000D03*
%TO.N,GND*%
X334460000Y-65050000D03*
%TD*%
%TO.N,Net-(D45-K)*%
%TO.C,R47*%
X77317100Y-117412300D03*
%TO.N,GND*%
X77317100Y-109792300D03*
%TD*%
%TO.N,Net-(J1-CC2)*%
%TO.C,R81*%
X30380000Y-112420000D03*
%TO.N,GND*%
X38000000Y-112420000D03*
%TD*%
D15*
%TO.N,Net-(D027-K)*%
%TO.C,D027*%
X309440000Y-78920000D03*
D16*
%TO.N,/ALU/B_2*%
X311980000Y-78920000D03*
%TD*%
D10*
%TO.N,Net-(D54-A)*%
%TO.C,R60*%
X93412100Y-98672300D03*
%TO.N,VCC*%
X93412100Y-91052300D03*
%TD*%
D11*
%TO.N,/MAR/PROG*%
%TO.C,U24*%
X184417100Y-125657300D03*
D10*
%TO.N,Net-(U24-I0a)*%
X184417100Y-128197300D03*
%TO.N,BUS_3*%
X184417100Y-130737300D03*
%TO.N,Net-(U24-Za)*%
X184417100Y-133277300D03*
%TO.N,Net-(U24-I0b)*%
X184417100Y-135817300D03*
%TO.N,BUS_2*%
X184417100Y-138357300D03*
%TO.N,Net-(U24-Zb)*%
X184417100Y-140897300D03*
%TO.N,GND*%
X184417100Y-143437300D03*
%TO.N,Net-(U24-Zd)*%
X192037100Y-143437300D03*
%TO.N,BUS_0*%
X192037100Y-140897300D03*
%TO.N,Net-(U24-I0d)*%
X192037100Y-138357300D03*
%TO.N,Net-(U24-Zc)*%
X192037100Y-135817300D03*
%TO.N,BUS_1*%
X192037100Y-133277300D03*
%TO.N,Net-(U24-I0c)*%
X192037100Y-130737300D03*
%TO.N,GND*%
X192037100Y-128197300D03*
%TO.N,VCC*%
X192037100Y-125657300D03*
%TD*%
D15*
%TO.N,Net-(D27-K)*%
%TO.C,D27*%
X185130000Y-161420000D03*
D16*
%TO.N,Net-(D27-A)*%
X187670000Y-161420000D03*
%TD*%
D10*
%TO.N,VCC*%
%TO.C,R1*%
X293007100Y-127412300D03*
%TO.N,Net-(U1-DIS)*%
X300627100Y-127412300D03*
%TD*%
%TO.N,VCC*%
%TO.C,R4*%
X282067100Y-157532300D03*
%TO.N,Net-(U2-DIS)*%
X282067100Y-149912300D03*
%TD*%
D15*
%TO.N,Net-(D29-K)*%
%TO.C,D29*%
X195120000Y-161420000D03*
D16*
%TO.N,Net-(D29-A)*%
X197660000Y-161420000D03*
%TD*%
D10*
%TO.N,Net-(D67-K)*%
%TO.C,R70*%
X53667700Y-81657100D03*
%TO.N,GND*%
X46047700Y-81657100D03*
%TD*%
D15*
%TO.N,Net-(D22-K)*%
%TO.C,D22*%
X234417100Y-42332300D03*
D16*
%TO.N,/MAR/A1*%
X236957100Y-42332300D03*
%TD*%
D10*
%TO.N,GND*%
%TO.C,R35*%
X170240000Y-91790000D03*
%TO.N,Net-(D36-K)*%
X170240000Y-84170000D03*
%TD*%
D15*
%TO.N,Net-(D56-K)*%
%TO.C,D56*%
X102892100Y-103552300D03*
D16*
%TO.N,Net-(D56-A)*%
X105432100Y-103552300D03*
%TD*%
D13*
%TO.N,~{CLR}*%
%TO.C,U30*%
X176740000Y-66300000D03*
D14*
%TO.N,CLK*%
X174200000Y-66300000D03*
%TO.N,BUS_0*%
X171660000Y-66300000D03*
%TO.N,BUS_1*%
X169120000Y-66300000D03*
%TO.N,BUS_2*%
X166580000Y-66300000D03*
%TO.N,BUS_3*%
X164040000Y-66300000D03*
%TO.N,CE*%
X161500000Y-66300000D03*
%TO.N,GND*%
X158960000Y-66300000D03*
%TO.N,~{J}*%
X158960000Y-73920000D03*
%TO.N,CE*%
X161500000Y-73920000D03*
%TO.N,Net-(D34-A)*%
X164040000Y-73920000D03*
%TO.N,Net-(D35-A)*%
X166580000Y-73920000D03*
%TO.N,Net-(D36-A)*%
X169120000Y-73920000D03*
%TO.N,Net-(D37-A)*%
X171660000Y-73920000D03*
%TO.N,unconnected-(U30-TC-Pad15)*%
X174200000Y-73920000D03*
%TO.N,VCC*%
X176740000Y-73920000D03*
%TD*%
D15*
%TO.N,Net-(D41-K)*%
%TO.C,D41*%
X57227100Y-122412300D03*
D16*
%TO.N,Net-(D41-A)*%
X59767100Y-122412300D03*
%TD*%
D12*
%TO.N,VCC*%
%TO.C,C29*%
X310000000Y-45500000D03*
%TO.N,GND*%
X312000000Y-45500000D03*
%TD*%
D15*
%TO.N,Net-(D46-K)*%
%TO.C,D46*%
X82277100Y-122412300D03*
D16*
%TO.N,Net-(D46-A)*%
X84817100Y-122412300D03*
%TD*%
D10*
%TO.N,GND*%
%TO.C,R36*%
X175990000Y-91790000D03*
%TO.N,Net-(D37-K)*%
X175990000Y-84170000D03*
%TD*%
%TO.N,Net-(D53-K)*%
%TO.C,R55*%
X117817100Y-117412300D03*
%TO.N,GND*%
X117817100Y-109792300D03*
%TD*%
D13*
%TO.N,GND*%
%TO.C,U19*%
X269000000Y-23180000D03*
D14*
X269000000Y-25720000D03*
%TO.N,Net-(U18-I1a)*%
X269000000Y-28260000D03*
%TO.N,Net-(U18-I1b)*%
X269000000Y-30800000D03*
%TO.N,Net-(U18-I1c)*%
X269000000Y-33340000D03*
%TO.N,Net-(U18-I1d)*%
X269000000Y-35880000D03*
%TO.N,CLK*%
X269000000Y-38420000D03*
%TO.N,GND*%
X269000000Y-40960000D03*
%TO.N,~{MI}*%
X276620000Y-40960000D03*
X276620000Y-38420000D03*
%TO.N,BUS_0*%
X276620000Y-35880000D03*
%TO.N,BUS_1*%
X276620000Y-33340000D03*
%TO.N,BUS_2*%
X276620000Y-30800000D03*
%TO.N,BUS_3*%
X276620000Y-28260000D03*
%TO.N,CLR*%
X276620000Y-25720000D03*
%TO.N,VCC*%
X276620000Y-23180000D03*
%TD*%
D12*
%TO.N,VCC*%
%TO.C,C118*%
X199817100Y-54712300D03*
%TO.N,GND*%
X201817100Y-54712300D03*
%TD*%
D11*
%TO.N,Net-(U10-Pad1)*%
%TO.C,U10*%
X298500000Y-45680000D03*
D10*
%TO.N,Net-(U10-Pad2)*%
X298500000Y-48220000D03*
%TO.N,Net-(U10-Pad3)*%
X298500000Y-50760000D03*
%TO.N,Net-(U10-Pad4)*%
X298500000Y-53300000D03*
%TO.N,Net-(U10-Pad3)*%
X298500000Y-55840000D03*
%TO.N,Net-(U12-D1)*%
X298500000Y-58380000D03*
%TO.N,GND*%
X298500000Y-60920000D03*
%TO.N,Net-(U10-Pad4)*%
X306120000Y-60920000D03*
%TO.N,Net-(U10-Pad9)*%
X306120000Y-58380000D03*
%TO.N,Net-(U10-Pad10)*%
X306120000Y-55840000D03*
%TO.N,unconnected-(U10-Pad11)*%
X306120000Y-53300000D03*
%TO.N,unconnected-(U10-Pad12)*%
X306120000Y-50760000D03*
%TO.N,unconnected-(U10-Pad13)*%
X306120000Y-48220000D03*
%TO.N,VCC*%
X306120000Y-45680000D03*
%TD*%
%TO.N,Net-(D117-K)*%
%TO.C,R88*%
X182500000Y-34920000D03*
%TO.N,GND*%
X182500000Y-27300000D03*
%TD*%
D13*
%TO.N,Net-(U10-Pad2)*%
%TO.C,U11*%
X266848400Y-70180000D03*
D14*
%TO.N,Net-(D11-A)*%
X266848400Y-72720000D03*
%TO.N,Net-(D12-A)*%
X266848400Y-75260000D03*
%TO.N,Net-(U10-Pad1)*%
X266848400Y-77800000D03*
%TO.N,Net-(D13-A)*%
X266848400Y-80340000D03*
%TO.N,Net-(D15-A)*%
X266848400Y-82880000D03*
%TO.N,GND*%
X266848400Y-85420000D03*
%TO.N,Net-(D16-A)*%
X274468400Y-85420000D03*
%TO.N,Net-(D17-A)*%
X274468400Y-82880000D03*
%TO.N,Net-(U10-Pad10)*%
X274468400Y-80340000D03*
%TO.N,Net-(D18-A)*%
X274468400Y-77800000D03*
%TO.N,Net-(D19-A)*%
X274468400Y-75260000D03*
%TO.N,Net-(U10-Pad9)*%
X274468400Y-72720000D03*
%TO.N,VCC*%
X274468400Y-70180000D03*
%TD*%
D19*
%TO.N,GND*%
%TO.C,SW1*%
X283067100Y-131162300D03*
X289567100Y-131162300D03*
%TO.N,Net-(U2-TR)*%
X283067100Y-135662300D03*
X289567100Y-135662300D03*
%TD*%
D15*
%TO.N,Net-(D28-K)*%
%TO.C,D28*%
X190120000Y-161420000D03*
D16*
%TO.N,Net-(D28-A)*%
X192660000Y-161420000D03*
%TD*%
D10*
%TO.N,BUS_3*%
%TO.C,R77*%
X36000000Y-89000000D03*
%TO.N,GND*%
X43620000Y-89000000D03*
%TD*%
%TO.N,Net-(D56-A)*%
%TO.C,R58*%
X105412100Y-98862300D03*
%TO.N,VCC*%
X105412100Y-91242300D03*
%TD*%
D12*
%TO.N,VCC*%
%TO.C,C26*%
X293500000Y-71000000D03*
%TO.N,GND*%
X295500000Y-71000000D03*
%TD*%
D10*
%TO.N,Net-(D55-A)*%
%TO.C,R59*%
X99912100Y-98672300D03*
%TO.N,VCC*%
X99912100Y-91052300D03*
%TD*%
%TO.N,Net-(U1-DIS)*%
%TO.C,R2*%
X309545000Y-111540000D03*
%TO.N,Net-(R2-Pad2)*%
X317165000Y-111540000D03*
%TD*%
D15*
%TO.N,Net-(D40-K)*%
%TO.C,D40*%
X52227100Y-122412300D03*
D16*
%TO.N,RI*%
X54767100Y-122412300D03*
%TD*%
D12*
%TO.N,VCC*%
%TO.C,C31*%
X220000000Y-26000000D03*
%TO.N,GND*%
X220000000Y-24000000D03*
%TD*%
%TO.N,VCC*%
%TO.C,C64*%
X223500000Y-101000000D03*
%TO.N,GND*%
X223500000Y-99000000D03*
%TD*%
D10*
%TO.N,GND*%
%TO.C,C4*%
X293317100Y-134162300D03*
%TO.N,Net-(U3-CV)*%
X293317100Y-136662300D03*
%TD*%
%TO.N,Net-(D024-K)*%
%TO.C,R93*%
X324210000Y-72730000D03*
%TO.N,GND*%
X324210000Y-65110000D03*
%TD*%
D15*
%TO.N,Net-(D2-K)*%
%TO.C,D2*%
X201507100Y-81162300D03*
D16*
%TO.N,/ALU/A_7*%
X198967100Y-81162300D03*
%TD*%
D10*
%TO.N,Net-(D115-K)*%
%TO.C,R86*%
X172500000Y-34920000D03*
%TO.N,GND*%
X172500000Y-27300000D03*
%TD*%
D15*
%TO.N,Net-(D47-K)*%
%TO.C,D47*%
X87277100Y-122412300D03*
D16*
%TO.N,SU*%
X89817100Y-122412300D03*
%TD*%
D20*
%TO.N,Net-(U34-E)*%
%TO.C,U34*%
X67586400Y-145879100D03*
D10*
%TO.N,Net-(U34-D)*%
X70126400Y-145879100D03*
%TO.N,Net-(U33A-O3)*%
X72666400Y-145879100D03*
%TO.N,Net-(U34-C)*%
X75206400Y-145879100D03*
%TO.N,Net-(U34-DP)*%
X77746400Y-145879100D03*
%TO.N,Net-(U34-B)*%
X77746400Y-130639100D03*
%TO.N,Net-(U34-A)*%
X75206400Y-130639100D03*
%TO.N,Net-(U33A-O3)*%
X72666400Y-130639100D03*
%TO.N,Net-(U34-F)*%
X70126400Y-130639100D03*
%TO.N,Net-(U34-G)*%
X67586400Y-130639100D03*
%TD*%
D12*
%TO.N,VCC*%
%TO.C,C37*%
X213000000Y-101000000D03*
%TO.N,GND*%
X213000000Y-99000000D03*
%TD*%
D22*
%TO.N,VCC*%
%TO.C,U25*%
X187760000Y-153920000D03*
D23*
%TO.N,Net-(D26-A)*%
X190300000Y-153920000D03*
%TO.N,Net-(D27-A)*%
X192840000Y-153920000D03*
%TO.N,Net-(D28-A)*%
X195380000Y-153920000D03*
%TO.N,Net-(D29-A)*%
X197920000Y-153920000D03*
%TO.N,Net-(D30-A)*%
X200460000Y-153920000D03*
%TO.N,Net-(D31-A)*%
X203000000Y-153920000D03*
%TO.N,Net-(D32-A)*%
X205540000Y-153920000D03*
%TO.N,Net-(D33-A)*%
X208080000Y-153920000D03*
%TO.N,GND*%
X210620000Y-153920000D03*
%TO.N,BUS_0*%
X210620000Y-146300000D03*
%TO.N,BUS_1*%
X208080000Y-146300000D03*
%TO.N,BUS_2*%
X205540000Y-146300000D03*
%TO.N,BUS_3*%
X203000000Y-146300000D03*
%TO.N,BUS_4*%
X200460000Y-146300000D03*
%TO.N,BUS_5*%
X197920000Y-146300000D03*
%TO.N,BUS_6*%
X195380000Y-146300000D03*
%TO.N,BUS_7*%
X192840000Y-146300000D03*
%TO.N,~{RO}*%
X190300000Y-146300000D03*
%TO.N,VCC*%
X187760000Y-146300000D03*
%TD*%
D15*
%TO.N,Net-(D026-K)*%
%TO.C,D026*%
X314460000Y-78920000D03*
D16*
%TO.N,/ALU/B_3*%
X317000000Y-78920000D03*
%TD*%
D10*
%TO.N,Net-(D029-K)*%
%TO.C,R98*%
X299460000Y-72670000D03*
%TO.N,GND*%
X299460000Y-65050000D03*
%TD*%
D12*
%TO.N,VCC*%
%TO.C,C44*%
X184000000Y-154000000D03*
%TO.N,GND*%
X182000000Y-154000000D03*
%TD*%
D10*
%TO.N,GND*%
%TO.C,R34*%
X163990000Y-91790000D03*
%TO.N,Net-(D35-K)*%
X163990000Y-84170000D03*
%TD*%
%TO.N,Net-(D5-K)*%
%TO.C,R102*%
X216567100Y-85662300D03*
%TO.N,GND*%
X216567100Y-93282300D03*
%TD*%
D22*
%TO.N,VCC*%
%TO.C,U48*%
X205957100Y-72282300D03*
D23*
%TO.N,/ALU/A_4*%
X208497100Y-72282300D03*
%TO.N,/ALU/A_5*%
X211037100Y-72282300D03*
%TO.N,/ALU/A_6*%
X213577100Y-72282300D03*
%TO.N,/ALU/A_7*%
X216117100Y-72282300D03*
%TO.N,/ALU/A_0*%
X218657100Y-72282300D03*
%TO.N,/ALU/A_1*%
X221197100Y-72282300D03*
%TO.N,/ALU/A_2*%
X223737100Y-72282300D03*
%TO.N,/ALU/A_3*%
X226277100Y-72282300D03*
%TO.N,GND*%
X228817100Y-72282300D03*
%TO.N,BUS_0*%
X228817100Y-64662300D03*
%TO.N,BUS_1*%
X226277100Y-64662300D03*
%TO.N,BUS_2*%
X223737100Y-64662300D03*
%TO.N,BUS_3*%
X221197100Y-64662300D03*
%TO.N,BUS_4*%
X218657100Y-64662300D03*
%TO.N,BUS_5*%
X216117100Y-64662300D03*
%TO.N,BUS_6*%
X213577100Y-64662300D03*
%TO.N,BUS_7*%
X211037100Y-64662300D03*
%TO.N,~{AO}*%
X208497100Y-64662300D03*
%TO.N,VCC*%
X205957100Y-64662300D03*
%TD*%
D15*
%TO.N,Net-(D029-K)*%
%TO.C,D029*%
X299440000Y-78920000D03*
D16*
%TO.N,/ALU/B_0*%
X301980000Y-78920000D03*
%TD*%
D12*
%TO.N,VCC*%
%TO.C,C66*%
X73500000Y-51500000D03*
%TO.N,GND*%
X71500000Y-51500000D03*
%TD*%
D10*
%TO.N,Net-(D30-K)*%
%TO.C,R28*%
X200620000Y-166300000D03*
%TO.N,GND*%
X200620000Y-173920000D03*
%TD*%
D12*
%TO.N,VCC*%
%TO.C,C23*%
X289000000Y-102000000D03*
%TO.N,GND*%
X289000000Y-100000000D03*
%TD*%
D13*
%TO.N,Net-(C14-Pad2)*%
%TO.C,U26*%
X205461600Y-105325000D03*
D14*
%TO.N,RI*%
X205461600Y-107865000D03*
%TO.N,Net-(U51-I1c)*%
X205461600Y-110405000D03*
%TO.N,~{CLR}*%
X205461600Y-112945000D03*
%TO.N,Net-(U42-O5)*%
X205461600Y-115485000D03*
%TO.N,Net-(U26-Pad6)*%
X205461600Y-118025000D03*
%TO.N,GND*%
X205461600Y-120565000D03*
%TO.N,~{CLR}*%
X213081600Y-120565000D03*
%TO.N,Net-(R64-Pad1)*%
X213081600Y-118025000D03*
X213081600Y-115485000D03*
%TO.N,CLR*%
X213081600Y-112945000D03*
%TO.N,~{CLR}*%
X213081600Y-110405000D03*
X213081600Y-107865000D03*
%TO.N,VCC*%
X213081600Y-105325000D03*
%TD*%
D15*
%TO.N,Net-(D1-K)*%
%TO.C,D1*%
X271297100Y-134912300D03*
D16*
%TO.N,CLK*%
X273837100Y-134912300D03*
%TD*%
D15*
%TO.N,Net-(D9-K)*%
%TO.C,D9*%
X236587100Y-81162300D03*
D16*
%TO.N,/ALU/A_0*%
X234047100Y-81162300D03*
%TD*%
D12*
%TO.N,VCC*%
%TO.C,C52*%
X295500000Y-42000000D03*
%TO.N,GND*%
X295500000Y-40000000D03*
%TD*%
D15*
%TO.N,Net-(D113-K)*%
%TO.C,D113*%
X162480000Y-39920000D03*
D16*
%TO.N,IR_6*%
X165020000Y-39920000D03*
%TD*%
D22*
%TO.N,VCC*%
%TO.C,U17*%
X252737100Y-98412300D03*
D23*
%TO.N,Net-(D11-A)*%
X255277100Y-98412300D03*
%TO.N,Net-(D12-A)*%
X257817100Y-98412300D03*
%TO.N,Net-(D13-A)*%
X260357100Y-98412300D03*
%TO.N,Net-(D15-A)*%
X262897100Y-98412300D03*
%TO.N,Net-(D16-A)*%
X265437100Y-98412300D03*
%TO.N,Net-(D17-A)*%
X267977100Y-98412300D03*
%TO.N,Net-(D18-A)*%
X270517100Y-98412300D03*
%TO.N,Net-(D19-A)*%
X273057100Y-98412300D03*
%TO.N,GND*%
X275597100Y-98412300D03*
%TO.N,BUS_0*%
X275597100Y-90792300D03*
%TO.N,BUS_1*%
X273057100Y-90792300D03*
%TO.N,BUS_2*%
X270517100Y-90792300D03*
%TO.N,BUS_3*%
X267977100Y-90792300D03*
%TO.N,BUS_4*%
X265437100Y-90792300D03*
%TO.N,BUS_5*%
X262897100Y-90792300D03*
%TO.N,BUS_6*%
X260357100Y-90792300D03*
%TO.N,BUS_7*%
X257817100Y-90792300D03*
%TO.N,~{EO}*%
X255277100Y-90792300D03*
%TO.N,VCC*%
X252737100Y-90792300D03*
%TD*%
D12*
%TO.N,VCC*%
%TO.C,C45*%
X216500000Y-126000000D03*
%TO.N,GND*%
X218500000Y-126000000D03*
%TD*%
%TO.N,VCC*%
%TO.C,C22*%
X202067100Y-74282300D03*
%TO.N,GND*%
X200067100Y-74282300D03*
%TD*%
D13*
%TO.N,/MAR/PROG*%
%TO.C,U18*%
X219800000Y-36540000D03*
D14*
%TO.N,Net-(U18-I0a)*%
X222340000Y-36540000D03*
%TO.N,Net-(U18-I1a)*%
X224880000Y-36540000D03*
%TO.N,/MAR/A3*%
X227420000Y-36540000D03*
%TO.N,Net-(U18-I0b)*%
X229960000Y-36540000D03*
%TO.N,Net-(U18-I1b)*%
X232500000Y-36540000D03*
%TO.N,/MAR/A2*%
X235040000Y-36540000D03*
%TO.N,GND*%
X237580000Y-36540000D03*
%TO.N,/MAR/A1*%
X237580000Y-28920000D03*
%TO.N,Net-(U18-I1c)*%
X235040000Y-28920000D03*
%TO.N,Net-(U18-I0c)*%
X232500000Y-28920000D03*
%TO.N,/MAR/A0*%
X229960000Y-28920000D03*
%TO.N,Net-(U18-I1d)*%
X227420000Y-28920000D03*
%TO.N,Net-(U18-I0d)*%
X224880000Y-28920000D03*
%TO.N,GND*%
X222340000Y-28920000D03*
%TO.N,VCC*%
X219800000Y-28920000D03*
%TD*%
D10*
%TO.N,VCC*%
%TO.C,R18*%
X243250000Y-35750000D03*
%TO.N,Net-(D24-A)*%
X243250000Y-28130000D03*
%TD*%
%TO.N,Net-(D4-K)*%
%TO.C,R101*%
X211567100Y-85662300D03*
%TO.N,GND*%
X211567100Y-93282300D03*
%TD*%
D12*
%TO.N,VCC*%
%TO.C,C12*%
X237977100Y-105547300D03*
%TO.N,GND*%
X239977100Y-105547300D03*
%TD*%
%TO.N,VCC*%
%TO.C,C75*%
X31000000Y-104500000D03*
%TO.N,GND*%
X31000000Y-102500000D03*
%TD*%
D15*
%TO.N,Net-(D5-K)*%
%TO.C,D5*%
X216567100Y-81162300D03*
D16*
%TO.N,/ALU/A_4*%
X214027100Y-81162300D03*
%TD*%
D10*
%TO.N,Net-(D49-K)*%
%TO.C,R51*%
X97817100Y-117412300D03*
%TO.N,GND*%
X97817100Y-109792300D03*
%TD*%
D12*
%TO.N,VCC*%
%TO.C,C58*%
X126000000Y-148500000D03*
%TO.N,GND*%
X126000000Y-146500000D03*
%TD*%
D10*
%TO.N,Net-(D52-K)*%
%TO.C,R54*%
X112817100Y-117532300D03*
%TO.N,GND*%
X112817100Y-109912300D03*
%TD*%
%TO.N,GND*%
%TO.C,C1*%
X304067100Y-119162300D03*
%TO.N,Net-(U1-CV)*%
X304067100Y-121662300D03*
%TD*%
D19*
%TO.N,Net-(R64-Pad1)*%
%TO.C,SW8*%
X91250000Y-69750000D03*
X97750000Y-69750000D03*
%TO.N,VCC*%
X91250000Y-74250000D03*
X97750000Y-74250000D03*
%TD*%
D10*
%TO.N,Net-(D27-K)*%
%TO.C,R25*%
X185120000Y-166300000D03*
%TO.N,GND*%
X185120000Y-173920000D03*
%TD*%
D11*
%TO.N,Net-(U18-I0d)*%
%TO.C,SW3*%
X256880000Y-32630000D03*
D10*
%TO.N,Net-(U18-I0c)*%
X256880000Y-35170000D03*
%TO.N,GND*%
X256880000Y-37710000D03*
X256880000Y-40250000D03*
%TO.N,Net-(U18-I0a)*%
X264500000Y-40250000D03*
%TO.N,Net-(U18-I0b)*%
X264500000Y-37710000D03*
%TO.N,GND*%
X264500000Y-35170000D03*
X264500000Y-32630000D03*
%TD*%
D15*
%TO.N,Net-(D39-K)*%
%TO.C,D39*%
X47237100Y-122412300D03*
D16*
%TO.N,Net-(D39-A)*%
X49777100Y-122412300D03*
%TD*%
D10*
%TO.N,Net-(D44-K)*%
%TO.C,R46*%
X72317100Y-117412300D03*
%TO.N,GND*%
X72317100Y-109792300D03*
%TD*%
%TO.N,Net-(D6-K)*%
%TO.C,R103*%
X221567100Y-85662300D03*
%TO.N,GND*%
X221567100Y-93282300D03*
%TD*%
%TO.N,Net-(D32-K)*%
%TO.C,R30*%
X210120000Y-166110000D03*
%TO.N,GND*%
X210120000Y-173730000D03*
%TD*%
%TO.N,Net-(D48-K)*%
%TO.C,R50*%
X92317100Y-117412300D03*
%TO.N,GND*%
X92317100Y-109792300D03*
%TD*%
D13*
%TO.N,Net-(U23-\u002AO1)*%
%TO.C,U28*%
X226613200Y-105325000D03*
D14*
%TO.N,Net-(D32-A)*%
X226613200Y-107865000D03*
%TO.N,Net-(U23-\u002AO0)*%
X226613200Y-110405000D03*
%TO.N,Net-(D33-A)*%
X226613200Y-112945000D03*
%TO.N,Net-(D42-A)*%
X226613200Y-115485000D03*
%TO.N,~{IO}*%
X226613200Y-118025000D03*
%TO.N,GND*%
X226613200Y-120565000D03*
%TO.N,~{AO}*%
X234233200Y-120565000D03*
%TO.N,Net-(D45-A)*%
X234233200Y-118025000D03*
%TO.N,~{AI}*%
X234233200Y-115485000D03*
%TO.N,Net-(D44-A)*%
X234233200Y-112945000D03*
%TO.N,~{II}*%
X234233200Y-110405000D03*
%TO.N,Net-(D43-A)*%
X234233200Y-107865000D03*
%TO.N,VCC*%
X234233200Y-105325000D03*
%TD*%
D22*
%TO.N,VCC*%
%TO.C,U117*%
X168570000Y-52730000D03*
D23*
%TO.N,IR_4*%
X171110000Y-52730000D03*
%TO.N,IR_5*%
X173650000Y-52730000D03*
%TO.N,IR_6*%
X176190000Y-52730000D03*
%TO.N,IR_7*%
X178730000Y-52730000D03*
%TO.N,Net-(D119-A)*%
X181270000Y-52730000D03*
%TO.N,Net-(D118-A)*%
X183810000Y-52730000D03*
%TO.N,Net-(D117-A)*%
X186350000Y-52730000D03*
%TO.N,Net-(D116-A)*%
X188890000Y-52730000D03*
%TO.N,GND*%
X191430000Y-52730000D03*
%TO.N,BUS_0*%
X191430000Y-45110000D03*
%TO.N,BUS_1*%
X188890000Y-45110000D03*
%TO.N,BUS_2*%
X186350000Y-45110000D03*
%TO.N,BUS_3*%
X183810000Y-45110000D03*
%TO.N,BUS_4*%
X181270000Y-45110000D03*
%TO.N,BUS_5*%
X178730000Y-45110000D03*
%TO.N,BUS_6*%
X176190000Y-45110000D03*
%TO.N,BUS_7*%
X173650000Y-45110000D03*
%TO.N,~{IO}*%
X171110000Y-45110000D03*
%TO.N,VCC*%
X168570000Y-45110000D03*
%TD*%
D10*
%TO.N,Net-(D9-K)*%
%TO.C,R106*%
X236817100Y-85912300D03*
%TO.N,GND*%
X236817100Y-93532300D03*
%TD*%
%TO.N,Net-(D023-K)*%
%TO.C,R92*%
X329460000Y-72730000D03*
%TO.N,GND*%
X329460000Y-65110000D03*
%TD*%
D15*
%TO.N,Net-(D60-K)*%
%TO.C,D60*%
X108912100Y-86552300D03*
D16*
%TO.N,Net-(D60-A)*%
X111452100Y-86552300D03*
%TD*%
D13*
%TO.N,/ALU/B_5*%
%TO.C,U15*%
X282880000Y-70960000D03*
D14*
%TO.N,SU*%
X282880000Y-73500000D03*
%TO.N,Net-(U13-B2)*%
X282880000Y-76040000D03*
%TO.N,/ALU/B_4*%
X282880000Y-78580000D03*
%TO.N,SU*%
X282880000Y-81120000D03*
%TO.N,Net-(U13-B1)*%
X282880000Y-83660000D03*
%TO.N,GND*%
X282880000Y-86200000D03*
%TO.N,Net-(U13-B4)*%
X290500000Y-86200000D03*
%TO.N,/ALU/B_7*%
X290500000Y-83660000D03*
%TO.N,SU*%
X290500000Y-81120000D03*
%TO.N,Net-(U13-B3)*%
X290500000Y-78580000D03*
%TO.N,/ALU/B_6*%
X290500000Y-76040000D03*
%TO.N,SU*%
X290500000Y-73500000D03*
%TO.N,VCC*%
X290500000Y-70960000D03*
%TD*%
D15*
%TO.N,Net-(D16-K)*%
%TO.C,D16*%
X266967100Y-103852300D03*
D16*
%TO.N,Net-(D16-A)*%
X269507100Y-103852300D03*
%TD*%
D10*
%TO.N,Net-(D2-K)*%
%TO.C,R99*%
X201567100Y-85662300D03*
%TO.N,GND*%
X201567100Y-93282300D03*
%TD*%
D15*
%TO.N,Net-(D18-K)*%
%TO.C,D18*%
X276717100Y-103852300D03*
D16*
%TO.N,Net-(D18-A)*%
X279257100Y-103852300D03*
%TD*%
D10*
%TO.N,Net-(D28-K)*%
%TO.C,R26*%
X190120000Y-166110000D03*
%TO.N,GND*%
X190120000Y-173730000D03*
%TD*%
D13*
%TO.N,Net-(D39-A)*%
%TO.C,U46*%
X132792100Y-31392300D03*
D14*
%TO.N,~{MI}*%
X132792100Y-33932300D03*
%TO.N,Net-(D41-A)*%
X132792100Y-36472300D03*
%TO.N,~{RO}*%
X132792100Y-39012300D03*
%TO.N,Net-(D53-A)*%
X132792100Y-41552300D03*
%TO.N,~{FI}*%
X132792100Y-44092300D03*
%TO.N,GND*%
X132792100Y-46632300D03*
%TO.N,unconnected-(U46-Pad8)*%
X140412100Y-46632300D03*
%TO.N,unconnected-(U46-Pad9)*%
X140412100Y-44092300D03*
%TO.N,~{J}*%
X140412100Y-41552300D03*
%TO.N,Net-(D52-A)*%
X140412100Y-39012300D03*
%TO.N,~{CO}*%
X140412100Y-36472300D03*
%TO.N,Net-(D51-A)*%
X140412100Y-33932300D03*
%TO.N,VCC*%
X140412100Y-31392300D03*
%TD*%
D10*
%TO.N,Net-(D43-K)*%
%TO.C,R45*%
X67317100Y-117412300D03*
%TO.N,GND*%
X67317100Y-109792300D03*
%TD*%
D15*
%TO.N,Net-(D64-K)*%
%TO.C,D64*%
X58500000Y-96690000D03*
D16*
%TO.N,BUS_2*%
X58500000Y-94150000D03*
%TD*%
D15*
%TO.N,Net-(D3-K)*%
%TO.C,D3*%
X206547100Y-81162300D03*
D16*
%TO.N,/ALU/A_6*%
X204007100Y-81162300D03*
%TD*%
D10*
%TO.N,Net-(D65-K)*%
%TO.C,R68*%
X53547700Y-91657100D03*
%TO.N,GND*%
X45927700Y-91657100D03*
%TD*%
D15*
%TO.N,Net-(D65-K)*%
%TO.C,D65*%
X58500000Y-91690000D03*
D16*
%TO.N,BUS_3*%
X58500000Y-89150000D03*
%TD*%
D22*
%TO.N,VCC*%
%TO.C,U7*%
X324650000Y-83680000D03*
D23*
%TO.N,/ALU/B_4*%
X322110000Y-83680000D03*
%TO.N,/ALU/B_5*%
X319570000Y-83680000D03*
%TO.N,/ALU/B_6*%
X317030000Y-83680000D03*
%TO.N,/ALU/B_7*%
X314490000Y-83680000D03*
%TO.N,/ALU/B_0*%
X311950000Y-83680000D03*
%TO.N,/ALU/B_1*%
X309410000Y-83680000D03*
%TO.N,/ALU/B_2*%
X306870000Y-83680000D03*
%TO.N,/ALU/B_3*%
X304330000Y-83680000D03*
%TO.N,GND*%
X301790000Y-83680000D03*
%TO.N,BUS_0*%
X301790000Y-91300000D03*
%TO.N,BUS_1*%
X304330000Y-91300000D03*
%TO.N,BUS_2*%
X306870000Y-91300000D03*
%TO.N,BUS_3*%
X309410000Y-91300000D03*
%TO.N,BUS_4*%
X311950000Y-91300000D03*
%TO.N,BUS_5*%
X314490000Y-91300000D03*
%TO.N,BUS_6*%
X317030000Y-91300000D03*
%TO.N,BUS_7*%
X319570000Y-91300000D03*
%TO.N,VCC*%
X322110000Y-91300000D03*
X324650000Y-91300000D03*
%TD*%
D10*
%TO.N,BUS_2*%
%TO.C,R78*%
X36000000Y-94157100D03*
%TO.N,GND*%
X43620000Y-94157100D03*
%TD*%
D15*
%TO.N,Net-(D35-K)*%
%TO.C,D35*%
X163960000Y-79420000D03*
D16*
%TO.N,Net-(D35-A)*%
X166500000Y-79420000D03*
%TD*%
D13*
%TO.N,GND*%
%TO.C,U9*%
X332580000Y-93800000D03*
D14*
X330040000Y-93800000D03*
%TO.N,/ALU/B_3*%
X327500000Y-93800000D03*
%TO.N,/ALU/B_2*%
X324960000Y-93800000D03*
%TO.N,/ALU/B_1*%
X322420000Y-93800000D03*
%TO.N,/ALU/B_0*%
X319880000Y-93800000D03*
%TO.N,CLK*%
X317340000Y-93800000D03*
%TO.N,GND*%
X314800000Y-93800000D03*
%TO.N,~{BI}*%
X314800000Y-101420000D03*
X317340000Y-101420000D03*
%TO.N,BUS_0*%
X319880000Y-101420000D03*
%TO.N,BUS_1*%
X322420000Y-101420000D03*
%TO.N,BUS_2*%
X324960000Y-101420000D03*
%TO.N,BUS_3*%
X327500000Y-101420000D03*
%TO.N,CLR*%
X330040000Y-101420000D03*
%TO.N,VCC*%
X332580000Y-101420000D03*
%TD*%
D15*
%TO.N,Net-(D49-K)*%
%TO.C,D49*%
X97277100Y-122412300D03*
D16*
%TO.N,OI*%
X99817100Y-122412300D03*
%TD*%
D15*
%TO.N,Net-(D119-K)*%
%TO.C,D119*%
X192460000Y-39920000D03*
D16*
%TO.N,Net-(D119-A)*%
X195000000Y-39920000D03*
%TD*%
D10*
%TO.N,BUS_7*%
%TO.C,R73*%
X63087900Y-88287700D03*
%TO.N,GND*%
X70707900Y-88287700D03*
%TD*%
D12*
%TO.N,VCC*%
%TO.C,C49*%
X284500000Y-42000000D03*
%TO.N,GND*%
X284500000Y-40000000D03*
%TD*%
%TO.N,VCC*%
%TO.C,C42*%
X237000000Y-121500000D03*
%TO.N,GND*%
X239000000Y-121500000D03*
%TD*%
D10*
%TO.N,Net-(U31-THR)*%
%TO.C,R38*%
X155666400Y-124379100D03*
%TO.N,Net-(U31-DIS)*%
X163286400Y-124379100D03*
%TD*%
D15*
%TO.N,Net-(D023-K)*%
%TO.C,D023*%
X329500000Y-78880000D03*
D16*
%TO.N,/ALU/B_6*%
X332040000Y-78880000D03*
%TD*%
D15*
%TO.N,Net-(D34-K)*%
%TO.C,D34*%
X157950000Y-79420000D03*
D16*
%TO.N,Net-(D34-A)*%
X160490000Y-79420000D03*
%TD*%
D12*
%TO.N,Net-(U31-THR)*%
%TO.C,C16*%
X155666400Y-119379100D03*
%TO.N,GND*%
X155666400Y-117379100D03*
%TD*%
D10*
%TO.N,Net-(D11-K)*%
%TO.C,R9*%
X247417100Y-109602300D03*
%TO.N,GND*%
X247417100Y-117222300D03*
%TD*%
D15*
%TO.N,Net-(D117-K)*%
%TO.C,D117*%
X182460000Y-39920000D03*
D16*
%TO.N,Net-(D117-A)*%
X185000000Y-39920000D03*
%TD*%
D13*
%TO.N,GND*%
%TO.C,U50*%
X246567100Y-79112300D03*
D14*
X246567100Y-76572300D03*
%TO.N,/ALU/A_3*%
X246567100Y-74032300D03*
%TO.N,/ALU/A_2*%
X246567100Y-71492300D03*
%TO.N,/ALU/A_1*%
X246567100Y-68952300D03*
%TO.N,/ALU/A_0*%
X246567100Y-66412300D03*
%TO.N,CLK*%
X246567100Y-63872300D03*
%TO.N,GND*%
X246567100Y-61332300D03*
%TO.N,~{AI}*%
X238947100Y-61332300D03*
X238947100Y-63872300D03*
%TO.N,BUS_0*%
X238947100Y-66412300D03*
%TO.N,BUS_1*%
X238947100Y-68952300D03*
%TO.N,BUS_2*%
X238947100Y-71492300D03*
%TO.N,BUS_3*%
X238947100Y-74032300D03*
%TO.N,CLR*%
X238947100Y-76572300D03*
%TO.N,VCC*%
X238947100Y-79112300D03*
%TD*%
D15*
%TO.N,/MAR/PROG*%
%TO.C,D24*%
X241230000Y-23500000D03*
D16*
%TO.N,Net-(D24-A)*%
X243770000Y-23500000D03*
%TD*%
D10*
%TO.N,Net-(D31-K)*%
%TO.C,R29*%
X205120000Y-166300000D03*
%TO.N,GND*%
X205120000Y-173920000D03*
%TD*%
%TO.N,Net-(D59-K)*%
%TO.C,R61*%
X102912100Y-81552300D03*
%TO.N,GND*%
X102912100Y-73932300D03*
%TD*%
%TO.N,Net-(D026-K)*%
%TO.C,R95*%
X314460000Y-72670000D03*
%TO.N,GND*%
X314460000Y-65050000D03*
%TD*%
D12*
%TO.N,VCC*%
%TO.C,C19*%
X147666400Y-126379100D03*
%TO.N,GND*%
X145666400Y-126379100D03*
%TD*%
D10*
%TO.N,Net-(D1-K)*%
%TO.C,R7*%
X271317100Y-139602300D03*
%TO.N,GND*%
X271317100Y-147222300D03*
%TD*%
D12*
%TO.N,VCC*%
%TO.C,C50*%
X188500000Y-96500000D03*
%TO.N,GND*%
X190500000Y-96500000D03*
%TD*%
D15*
%TO.N,Net-(D67-K)*%
%TO.C,D67*%
X58500000Y-81690000D03*
D16*
%TO.N,BUS_5*%
X58500000Y-79150000D03*
%TD*%
D15*
%TO.N,Net-(D26-K)*%
%TO.C,D26*%
X180080000Y-161420000D03*
D16*
%TO.N,Net-(D26-A)*%
X182620000Y-161420000D03*
%TD*%
D12*
%TO.N,VCC*%
%TO.C,C21*%
X80612100Y-63342300D03*
%TO.N,GND*%
X82612100Y-63342300D03*
%TD*%
D10*
%TO.N,Net-(D29-K)*%
%TO.C,R27*%
X195120000Y-166110000D03*
%TO.N,GND*%
X195120000Y-173730000D03*
%TD*%
%TO.N,Net-(D3-K)*%
%TO.C,R100*%
X206567100Y-85662300D03*
%TO.N,GND*%
X206567100Y-93282300D03*
%TD*%
D15*
%TO.N,Net-(D58-K)*%
%TO.C,D58*%
X114912100Y-103552300D03*
D16*
%TO.N,Net-(D58-A)*%
X117452100Y-103552300D03*
%TD*%
D10*
%TO.N,Net-(D41-K)*%
%TO.C,R43*%
X57317100Y-117412300D03*
%TO.N,GND*%
X57317100Y-109792300D03*
%TD*%
D15*
%TO.N,Net-(D66-K)*%
%TO.C,D66*%
X58500000Y-86650000D03*
D16*
%TO.N,BUS_4*%
X58500000Y-84110000D03*
%TD*%
D15*
%TO.N,Net-(D23-K)*%
%TO.C,D23*%
X240427100Y-42332300D03*
D16*
%TO.N,/MAR/A0*%
X242967100Y-42332300D03*
%TD*%
D12*
%TO.N,VCC*%
%TO.C,C20*%
X80612100Y-56792300D03*
%TO.N,GND*%
X82612100Y-56792300D03*
%TD*%
D10*
%TO.N,Net-(D39-K)*%
%TO.C,R41*%
X47317100Y-117412300D03*
%TO.N,GND*%
X47317100Y-109792300D03*
%TD*%
%TO.N,Net-(D46-K)*%
%TO.C,R48*%
X82317100Y-117412300D03*
%TO.N,GND*%
X82317100Y-109792300D03*
%TD*%
%TO.N,GND*%
%TO.C,C2*%
X275567100Y-154412300D03*
%TO.N,Net-(U2-CV)*%
X278067100Y-154412300D03*
%TD*%
D20*
%TO.N,Net-(U34-E)*%
%TO.C,U36*%
X95686400Y-145879100D03*
D10*
%TO.N,Net-(U34-D)*%
X98226400Y-145879100D03*
%TO.N,Net-(U33A-O2)*%
X100766400Y-145879100D03*
%TO.N,Net-(U34-C)*%
X103306400Y-145879100D03*
%TO.N,Net-(U34-DP)*%
X105846400Y-145879100D03*
%TO.N,Net-(U34-B)*%
X105846400Y-130639100D03*
%TO.N,Net-(U34-A)*%
X103306400Y-130639100D03*
%TO.N,Net-(U33A-O2)*%
X100766400Y-130639100D03*
%TO.N,Net-(U34-F)*%
X98226400Y-130639100D03*
%TO.N,Net-(U34-G)*%
X95686400Y-130639100D03*
%TD*%
D15*
%TO.N,Net-(D37-K)*%
%TO.C,D37*%
X175980000Y-79420000D03*
D16*
%TO.N,Net-(D37-A)*%
X178520000Y-79420000D03*
%TD*%
D11*
%TO.N,GND*%
%TO.C,U12*%
X266160000Y-45670000D03*
D10*
X266160000Y-48210000D03*
%TO.N,CF*%
X266160000Y-50750000D03*
%TO.N,ZF*%
X266160000Y-53290000D03*
%TO.N,unconnected-(U12-Q2-Pad5)*%
X266160000Y-55830000D03*
%TO.N,unconnected-(U12-Q3-Pad6)*%
X266160000Y-58370000D03*
%TO.N,CLK*%
X266160000Y-60910000D03*
%TO.N,GND*%
X266160000Y-63450000D03*
%TO.N,~{FI}*%
X273780000Y-63450000D03*
X273780000Y-60910000D03*
%TO.N,unconnected-(U12-D3-Pad11)*%
X273780000Y-58370000D03*
%TO.N,unconnected-(U12-D2-Pad12)*%
X273780000Y-55830000D03*
%TO.N,Net-(U12-D1)*%
X273780000Y-53290000D03*
%TO.N,Net-(U12-D0)*%
X273780000Y-50750000D03*
%TO.N,CLR*%
X273780000Y-48210000D03*
%TO.N,VCC*%
X273780000Y-45670000D03*
%TD*%
D12*
%TO.N,GND*%
%TO.C,C40*%
X242000000Y-83500000D03*
%TO.N,VCC*%
X240000000Y-83500000D03*
%TD*%
D24*
%TO.N,GND*%
%TO.C,J1*%
X24320000Y-106350000D03*
X20520000Y-106350000D03*
X24320000Y-114990000D03*
X20520000Y-114990000D03*
%TD*%
D13*
%TO.N,OI*%
%TO.C,U39*%
X155676800Y-96506800D03*
D14*
%TO.N,CLK*%
X155676800Y-99046800D03*
%TO.N,Net-(U38-Cp)*%
X155676800Y-101586800D03*
%TO.N,N/C*%
X155676800Y-104126800D03*
X155676800Y-106666800D03*
X155676800Y-109206800D03*
%TO.N,GND*%
X155676800Y-111746800D03*
%TO.N,N/C*%
X163296800Y-111746800D03*
X163296800Y-109206800D03*
X163296800Y-106666800D03*
X163296800Y-104126800D03*
X163296800Y-101586800D03*
X163296800Y-99046800D03*
%TO.N,VCC*%
X163296800Y-96506800D03*
%TD*%
D10*
%TO.N,Net-(D63-K)*%
%TO.C,R66*%
X53667700Y-102157100D03*
%TO.N,GND*%
X46047700Y-102157100D03*
%TD*%
D15*
%TO.N,Net-(D32-K)*%
%TO.C,D32*%
X210120000Y-161420000D03*
D16*
%TO.N,Net-(D32-A)*%
X212660000Y-161420000D03*
%TD*%
D10*
%TO.N,Net-(D13-K)*%
%TO.C,R12*%
X257167100Y-109542300D03*
%TO.N,GND*%
X257167100Y-117162300D03*
%TD*%
D13*
%TO.N,Net-(D59-A)*%
%TO.C,U42*%
X74120000Y-89100000D03*
D14*
%TO.N,Net-(D60-A)*%
X74120000Y-91640000D03*
%TO.N,Net-(D61-A)*%
X74120000Y-94180000D03*
%TO.N,GND*%
X74120000Y-96720000D03*
X74120000Y-99260000D03*
%TO.N,VCC*%
X74120000Y-101800000D03*
%TO.N,unconnected-(U42-O7-Pad7)*%
X74120000Y-104340000D03*
%TO.N,GND*%
X74120000Y-106880000D03*
%TO.N,unconnected-(U42-O6-Pad9)*%
X81740000Y-106880000D03*
%TO.N,Net-(U42-O5)*%
X81740000Y-104340000D03*
%TO.N,Net-(D54-K)*%
X81740000Y-101800000D03*
%TO.N,Net-(D55-K)*%
X81740000Y-99260000D03*
%TO.N,Net-(D56-K)*%
X81740000Y-96720000D03*
%TO.N,Net-(D57-K)*%
X81740000Y-94180000D03*
%TO.N,Net-(D58-K)*%
X81740000Y-91640000D03*
%TO.N,VCC*%
X81740000Y-89100000D03*
%TD*%
D10*
%TO.N,Net-(D23-K)*%
%TO.C,R23*%
X240647100Y-47272300D03*
%TO.N,GND*%
X240647100Y-54892300D03*
%TD*%
D22*
%TO.N,GND*%
%TO.C,U118*%
X184000000Y-55420000D03*
D23*
X181460000Y-55420000D03*
%TO.N,IR_7*%
X178920000Y-55420000D03*
%TO.N,IR_6*%
X176380000Y-55420000D03*
%TO.N,IR_5*%
X173840000Y-55420000D03*
%TO.N,IR_4*%
X171300000Y-55420000D03*
%TO.N,CLK*%
X168760000Y-55420000D03*
%TO.N,GND*%
X166220000Y-55420000D03*
%TO.N,~{II}*%
X163680000Y-55420000D03*
X161140000Y-55420000D03*
%TO.N,BUS_4*%
X161140000Y-63040000D03*
%TO.N,BUS_5*%
X163680000Y-63040000D03*
%TO.N,BUS_6*%
X166220000Y-63040000D03*
%TO.N,BUS_7*%
X168760000Y-63040000D03*
%TO.N,CLR*%
X171300000Y-63040000D03*
%TO.N,VCC*%
X173840000Y-63040000D03*
%TO.N,N/C*%
X176380000Y-63040000D03*
X178920000Y-63040000D03*
X181460000Y-63040000D03*
X184000000Y-63040000D03*
%TD*%
D15*
%TO.N,Net-(D62-K)*%
%TO.C,D62*%
X58500000Y-106690000D03*
D16*
%TO.N,BUS_0*%
X58500000Y-104150000D03*
%TD*%
D12*
%TO.N,VCC*%
%TO.C,C67*%
X84500000Y-89000000D03*
%TO.N,GND*%
X86500000Y-89000000D03*
%TD*%
D15*
%TO.N,Net-(D15-K)*%
%TO.C,D15*%
X262087100Y-103852300D03*
D16*
%TO.N,Net-(D15-A)*%
X264627100Y-103852300D03*
%TD*%
D10*
%TO.N,Net-(D14-K)*%
%TO.C,R8*%
X256750000Y-53980000D03*
%TO.N,GND*%
X256750000Y-46360000D03*
%TD*%
D15*
%TO.N,Net-(D63-K)*%
%TO.C,D63*%
X58500000Y-101690000D03*
D16*
%TO.N,BUS_1*%
X58500000Y-99150000D03*
%TD*%
D13*
%TO.N,Net-(U21-\u002AO0)*%
%TO.C,U27*%
X216037400Y-105325000D03*
D14*
%TO.N,Net-(D26-A)*%
X216037400Y-107865000D03*
%TO.N,Net-(U21-\u002AO1)*%
X216037400Y-110405000D03*
%TO.N,Net-(D27-A)*%
X216037400Y-112945000D03*
%TO.N,Net-(U21-\u002AO2)*%
X216037400Y-115485000D03*
%TO.N,Net-(D28-A)*%
X216037400Y-118025000D03*
%TO.N,GND*%
X216037400Y-120565000D03*
%TO.N,Net-(D29-A)*%
X223657400Y-120565000D03*
%TO.N,Net-(U21-\u002AO3)*%
X223657400Y-118025000D03*
%TO.N,Net-(D30-A)*%
X223657400Y-115485000D03*
%TO.N,Net-(U23-\u002AO3)*%
X223657400Y-112945000D03*
%TO.N,Net-(D31-A)*%
X223657400Y-110405000D03*
%TO.N,Net-(U23-\u002AO2)*%
X223657400Y-107865000D03*
%TO.N,VCC*%
X223657400Y-105325000D03*
%TD*%
D11*
%TO.N,Net-(D18-A)*%
%TO.C,U14*%
X287720000Y-45670000D03*
D10*
%TO.N,Net-(U14-B2)*%
X287720000Y-48210000D03*
%TO.N,/ALU/A_1*%
X287720000Y-50750000D03*
%TO.N,Net-(D19-A)*%
X287720000Y-53290000D03*
%TO.N,/ALU/A_0*%
X287720000Y-55830000D03*
%TO.N,Net-(U14-B1)*%
X287720000Y-58370000D03*
%TO.N,SU*%
X287720000Y-60910000D03*
%TO.N,GND*%
X287720000Y-63450000D03*
%TO.N,Net-(U13-C0)*%
X295340000Y-63450000D03*
%TO.N,Net-(D16-A)*%
X295340000Y-60910000D03*
%TO.N,Net-(U14-B4)*%
X295340000Y-58370000D03*
%TO.N,/ALU/A_3*%
X295340000Y-55830000D03*
%TO.N,Net-(D17-A)*%
X295340000Y-53290000D03*
%TO.N,/ALU/A_2*%
X295340000Y-50750000D03*
%TO.N,Net-(U14-B3)*%
X295340000Y-48210000D03*
%TO.N,VCC*%
X295340000Y-45670000D03*
%TD*%
%TO.N,Net-(D113-K)*%
%TO.C,R84*%
X162500000Y-34920000D03*
%TO.N,GND*%
X162500000Y-27300000D03*
%TD*%
%TO.N,Net-(D51-K)*%
%TO.C,R53*%
X107817100Y-117532300D03*
%TO.N,GND*%
X107817100Y-109912300D03*
%TD*%
D15*
%TO.N,Net-(D7-K)*%
%TO.C,D7*%
X226587100Y-81162300D03*
D16*
%TO.N,/ALU/A_2*%
X224047100Y-81162300D03*
%TD*%
D15*
%TO.N,Net-(D55-K)*%
%TO.C,D55*%
X96882100Y-103552300D03*
D16*
%TO.N,Net-(D55-A)*%
X99422100Y-103552300D03*
%TD*%
D12*
%TO.N,VCC*%
%TO.C,C57*%
X144500000Y-96000000D03*
%TO.N,GND*%
X146500000Y-96000000D03*
%TD*%
D15*
%TO.N,Net-(D19-K)*%
%TO.C,D19*%
X281877100Y-103852300D03*
D16*
%TO.N,Net-(D19-A)*%
X284417100Y-103852300D03*
%TD*%
D10*
%TO.N,Net-(D8-K)*%
%TO.C,R105*%
X231567100Y-85662300D03*
%TO.N,GND*%
X231567100Y-93282300D03*
%TD*%
D25*
%TO.N,*%
%TO.C,RV1*%
X328275000Y-106700000D03*
X328275000Y-116300000D03*
D15*
%TO.N,Net-(U1-THR)*%
X320775000Y-109000000D03*
D16*
%TO.N,Net-(R2-Pad2)*%
X320775000Y-111500000D03*
%TO.N,unconnected-(RV1-Pad3)*%
X320775000Y-114000000D03*
%TD*%
D12*
%TO.N,VCC*%
%TO.C,C69*%
X105000000Y-28000000D03*
%TO.N,GND*%
X105000000Y-26000000D03*
%TD*%
D13*
%TO.N,Net-(D46-A)*%
%TO.C,U47*%
X132912100Y-51812300D03*
D14*
%TO.N,~{EO}*%
X132912100Y-54352300D03*
%TO.N,Net-(D48-A)*%
X132912100Y-56892300D03*
%TO.N,~{BI}*%
X132912100Y-59432300D03*
%TO.N,unconnected-(U47-Pad5)*%
X132912100Y-61972300D03*
%TO.N,unconnected-(U47-Pad6)*%
X132912100Y-64512300D03*
%TO.N,GND*%
X132912100Y-67052300D03*
%TO.N,unconnected-(U47-Pad8)*%
X140532100Y-67052300D03*
%TO.N,unconnected-(U47-Pad9)*%
X140532100Y-64512300D03*
%TO.N,unconnected-(U47-Pad10)*%
X140532100Y-61972300D03*
%TO.N,unconnected-(U47-Pad11)*%
X140532100Y-59432300D03*
%TO.N,unconnected-(U47-Pad12)*%
X140532100Y-56892300D03*
%TO.N,unconnected-(U47-Pad13)*%
X140532100Y-54352300D03*
%TO.N,VCC*%
X140532100Y-51812300D03*
%TD*%
D12*
%TO.N,GND*%
%TO.C,C34*%
X266000000Y-124000000D03*
%TO.N,VCC*%
X264000000Y-124000000D03*
%TD*%
D10*
%TO.N,Net-(D7-K)*%
%TO.C,R104*%
X226567100Y-85662300D03*
%TO.N,GND*%
X226567100Y-93282300D03*
%TD*%
%TO.N,Net-(R64-Pad1)*%
%TO.C,R64*%
X85912100Y-66552300D03*
%TO.N,GND*%
X85912100Y-58932300D03*
%TD*%
D12*
%TO.N,VCC*%
%TO.C,C63*%
X84500000Y-70500000D03*
%TO.N,GND*%
X86500000Y-70500000D03*
%TD*%
D10*
%TO.N,Net-(D38-K)*%
%TO.C,R40*%
X42317100Y-117412300D03*
%TO.N,GND*%
X42317100Y-109792300D03*
%TD*%
D12*
%TO.N,VCC*%
%TO.C,C70*%
X143500000Y-51500000D03*
%TO.N,GND*%
X145500000Y-51500000D03*
%TD*%
%TO.N,VCC*%
%TO.C,C36*%
X279500000Y-23000000D03*
%TO.N,GND*%
X281500000Y-23000000D03*
%TD*%
D10*
%TO.N,Net-(D114-K)*%
%TO.C,R85*%
X167500000Y-34920000D03*
%TO.N,GND*%
X167500000Y-27300000D03*
%TD*%
D12*
%TO.N,VCC*%
%TO.C,C15*%
X153490000Y-60920000D03*
%TO.N,GND*%
X155490000Y-60920000D03*
%TD*%
D15*
%TO.N,Net-(D12-K)*%
%TO.C,D12*%
X252367100Y-103852300D03*
D16*
%TO.N,Net-(D12-A)*%
X254907100Y-103852300D03*
%TD*%
D26*
%TO.N,/ALU/B_1*%
%TO.C,U16*%
X289380000Y-112805000D03*
D10*
%TO.N,SU*%
X291920000Y-112805000D03*
%TO.N,Net-(U14-B3)*%
X294460000Y-112805000D03*
%TO.N,/ALU/B_0*%
X297000000Y-112805000D03*
%TO.N,SU*%
X299540000Y-112805000D03*
%TO.N,Net-(U14-B1)*%
X302080000Y-112805000D03*
%TO.N,GND*%
X304620000Y-112805000D03*
%TO.N,Net-(U14-B4)*%
X304620000Y-105185000D03*
%TO.N,/ALU/B_3*%
X302080000Y-105185000D03*
%TO.N,SU*%
X299540000Y-105185000D03*
%TO.N,Net-(U14-B2)*%
X297000000Y-105185000D03*
%TO.N,/ALU/B_2*%
X294460000Y-105185000D03*
%TO.N,SU*%
X291920000Y-105185000D03*
%TO.N,VCC*%
X289380000Y-105185000D03*
%TD*%
D17*
%TO.N,N/C*%
%TO.C,U44*%
X108442550Y-32060000D03*
D18*
%TO.N,GND*%
X108442550Y-34600000D03*
%TO.N,VCC*%
X108442550Y-37140000D03*
%TO.N,IR_7*%
X108442550Y-39680000D03*
%TO.N,IR_6*%
X108442550Y-42220000D03*
%TO.N,IR_5*%
X108442550Y-44760000D03*
%TO.N,IR_4*%
X108442550Y-47300000D03*
%TO.N,Net-(D61-A)*%
X108442550Y-49840000D03*
%TO.N,Net-(D60-A)*%
X108442550Y-52380000D03*
%TO.N,Net-(D59-A)*%
X108442550Y-54920000D03*
%TO.N,Net-(D53-A)*%
X108442550Y-57460000D03*
%TO.N,Net-(D52-A)*%
X108442550Y-60000000D03*
%TO.N,Net-(D51-A)*%
X108442550Y-62540000D03*
%TO.N,GND*%
X108442550Y-65080000D03*
%TO.N,CE*%
X124000050Y-65080000D03*
%TO.N,OI*%
X124000050Y-62540000D03*
%TO.N,Net-(D48-A)*%
X124000050Y-60000000D03*
%TO.N,SU*%
X124000050Y-57460000D03*
%TO.N,Net-(D46-A)*%
X124000050Y-54920000D03*
%TO.N,GND*%
X124000050Y-52380000D03*
X124000050Y-49840000D03*
X124000050Y-47300000D03*
X124000050Y-44760000D03*
%TO.N,ZF*%
X124000050Y-42220000D03*
%TO.N,CF*%
X124000050Y-39680000D03*
%TO.N,N/C*%
X124000050Y-37140000D03*
%TO.N,VCC*%
X124000050Y-34600000D03*
X124000050Y-32060000D03*
%TD*%
D15*
%TO.N,Net-(D45-K)*%
%TO.C,D45*%
X77277100Y-122412300D03*
D16*
%TO.N,Net-(D45-A)*%
X79817100Y-122412300D03*
%TD*%
D15*
%TO.N,Net-(D118-K)*%
%TO.C,D118*%
X187460000Y-39920000D03*
D16*
%TO.N,Net-(D118-A)*%
X190000000Y-39920000D03*
%TD*%
D15*
%TO.N,Net-(D36-K)*%
%TO.C,D36*%
X169970000Y-79420000D03*
D16*
%TO.N,Net-(D36-A)*%
X172510000Y-79420000D03*
%TD*%
D13*
%TO.N,GND*%
%TO.C,U119*%
X212817100Y-53912300D03*
D14*
X212817100Y-51372300D03*
%TO.N,Net-(D116-A)*%
X212817100Y-48832300D03*
%TO.N,Net-(D117-A)*%
X212817100Y-46292300D03*
%TO.N,Net-(D118-A)*%
X212817100Y-43752300D03*
%TO.N,Net-(D119-A)*%
X212817100Y-41212300D03*
%TO.N,CLK*%
X212817100Y-38672300D03*
%TO.N,GND*%
X212817100Y-36132300D03*
%TO.N,~{II}*%
X205197100Y-36132300D03*
X205197100Y-38672300D03*
%TO.N,BUS_0*%
X205197100Y-41212300D03*
%TO.N,BUS_1*%
X205197100Y-43752300D03*
%TO.N,BUS_2*%
X205197100Y-46292300D03*
%TO.N,BUS_3*%
X205197100Y-48832300D03*
%TO.N,CLR*%
X205197100Y-51372300D03*
%TO.N,VCC*%
X205197100Y-53912300D03*
%TD*%
D10*
%TO.N,Net-(D027-K)*%
%TO.C,R96*%
X309460000Y-72730000D03*
%TO.N,GND*%
X309460000Y-65110000D03*
%TD*%
%TO.N,Net-(D64-K)*%
%TO.C,R67*%
X53667700Y-96657100D03*
%TO.N,GND*%
X46047700Y-96657100D03*
%TD*%
%TO.N,BUS_5*%
%TO.C,R75*%
X63325000Y-96690000D03*
%TO.N,GND*%
X70945000Y-96690000D03*
%TD*%
D15*
%TO.N,Net-(D6-K)*%
%TO.C,D6*%
X221587100Y-81162300D03*
D16*
%TO.N,/ALU/A_3*%
X219047100Y-81162300D03*
%TD*%
D10*
%TO.N,GND*%
%TO.C,R10*%
X256750000Y-66170000D03*
%TO.N,Net-(D10-K)*%
X256750000Y-58550000D03*
%TD*%
%TO.N,Net-(D22-K)*%
%TO.C,R22*%
X234397100Y-47272300D03*
%TO.N,GND*%
X234397100Y-54892300D03*
%TD*%
%TO.N,Net-(J1-CC1)*%
%TO.C,R82*%
X30374400Y-109375000D03*
%TO.N,GND*%
X37994400Y-109375000D03*
%TD*%
%TO.N,GND*%
%TO.C,C5*%
X301067100Y-135962300D03*
%TO.N,VCC*%
X298567100Y-135962300D03*
%TD*%
D15*
%TO.N,Net-(D52-K)*%
%TO.C,D52*%
X112777100Y-122412300D03*
D16*
%TO.N,Net-(D52-A)*%
X115317100Y-122412300D03*
%TD*%
D15*
%TO.N,Net-(D43-K)*%
%TO.C,D43*%
X67227100Y-122412300D03*
D16*
%TO.N,Net-(D43-A)*%
X69767100Y-122412300D03*
%TD*%
D12*
%TO.N,VCC*%
%TO.C,C56*%
X180000000Y-74000000D03*
%TO.N,GND*%
X182000000Y-74000000D03*
%TD*%
D13*
%TO.N,Net-(U26-Pad6)*%
%TO.C,U45*%
X74000000Y-70180000D03*
D14*
X74000000Y-72720000D03*
%TO.N,Net-(U41-~{MR})*%
X74000000Y-75260000D03*
%TO.N,N/C*%
X74000000Y-77800000D03*
X74000000Y-80340000D03*
X74000000Y-82880000D03*
%TO.N,GND*%
X74000000Y-85420000D03*
%TO.N,N/C*%
X81620000Y-85420000D03*
X81620000Y-82880000D03*
X81620000Y-80340000D03*
X81620000Y-77800000D03*
X81620000Y-75260000D03*
X81620000Y-72720000D03*
%TO.N,VCC*%
X81620000Y-70180000D03*
%TD*%
D12*
%TO.N,CLK*%
%TO.C,C14*%
X200000000Y-105500000D03*
%TO.N,Net-(C14-Pad2)*%
X202000000Y-105500000D03*
%TD*%
D10*
%TO.N,Net-(D47-K)*%
%TO.C,R49*%
X87317100Y-117412300D03*
%TO.N,GND*%
X87317100Y-109792300D03*
%TD*%
D15*
%TO.N,Net-(D33-K)*%
%TO.C,D33*%
X215120000Y-161420000D03*
D16*
%TO.N,Net-(D33-A)*%
X217660000Y-161420000D03*
%TD*%
D10*
%TO.N,GND*%
%TO.C,C6*%
X301067100Y-131912300D03*
%TO.N,VCC*%
X298567100Y-131912300D03*
%TD*%
D17*
%TO.N,N/C*%
%TO.C,U40*%
X126166450Y-95979100D03*
D18*
%TO.N,GND*%
X126166450Y-98519100D03*
%TO.N,Net-(U38-Q7)*%
X126166450Y-101059100D03*
%TO.N,Net-(U38-Q6)*%
X126166450Y-103599100D03*
%TO.N,Net-(U38-Q5)*%
X126166450Y-106139100D03*
%TO.N,Net-(U38-Q4)*%
X126166450Y-108679100D03*
%TO.N,Net-(U38-Q3)*%
X126166450Y-111219100D03*
%TO.N,Net-(U38-Q2)*%
X126166450Y-113759100D03*
%TO.N,Net-(U38-Q1)*%
X126166450Y-116299100D03*
%TO.N,Net-(U38-Q0)*%
X126166450Y-118839100D03*
%TO.N,Net-(U34-G)*%
X126166450Y-121379100D03*
%TO.N,Net-(U34-F)*%
X126166450Y-123919100D03*
%TO.N,Net-(U34-E)*%
X126166450Y-126459100D03*
%TO.N,GND*%
X126166450Y-128999100D03*
%TO.N,Net-(U34-D)*%
X141723950Y-128999100D03*
%TO.N,Net-(U34-C)*%
X141723950Y-126459100D03*
%TO.N,Net-(U34-B)*%
X141723950Y-123919100D03*
%TO.N,Net-(U34-A)*%
X141723950Y-121379100D03*
%TO.N,Net-(U34-DP)*%
X141723950Y-118839100D03*
%TO.N,GND*%
X141723950Y-116299100D03*
%TO.N,Net-(SW7-B)*%
X141723950Y-113759100D03*
%TO.N,GND*%
X141723950Y-111219100D03*
X141723950Y-108679100D03*
%TO.N,Net-(U32B-~{Q})*%
X141723950Y-106139100D03*
%TO.N,Net-(U32A-~{Q})*%
X141723950Y-103599100D03*
%TO.N,N/C*%
X141723950Y-101059100D03*
%TO.N,VCC*%
X141723950Y-98519100D03*
X141723950Y-95979100D03*
%TD*%
D11*
%TO.N,/MAR/PROG*%
%TO.C,U51*%
X241697100Y-124172300D03*
D10*
%TO.N,unconnected-(U51-I0a-Pad2)*%
X241697100Y-126712300D03*
%TO.N,unconnected-(U51-I1a-Pad3)*%
X241697100Y-129252300D03*
%TO.N,unconnected-(U51-Za-Pad4)*%
X241697100Y-131792300D03*
%TO.N,unconnected-(U51-I0b-Pad5)*%
X241697100Y-134332300D03*
%TO.N,unconnected-(U51-I1b-Pad6)*%
X241697100Y-136872300D03*
%TO.N,unconnected-(U51-Zb-Pad7)*%
X241697100Y-139412300D03*
%TO.N,GND*%
X241697100Y-141952300D03*
%TO.N,unconnected-(U51-Zd-Pad9)*%
X249317100Y-141952300D03*
%TO.N,unconnected-(U51-I1d-Pad10)*%
X249317100Y-139412300D03*
%TO.N,unconnected-(U51-I0d-Pad11)*%
X249317100Y-136872300D03*
%TO.N,Net-(U51-Zc)*%
X249317100Y-134332300D03*
%TO.N,Net-(U51-I1c)*%
X249317100Y-131792300D03*
%TO.N,Net-(U51-I0c)*%
X249317100Y-129252300D03*
%TO.N,GND*%
X249317100Y-126712300D03*
%TO.N,VCC*%
X249317100Y-124172300D03*
%TD*%
D27*
%TO.N,Net-(U1-Q)*%
%TO.C,U4*%
X289437100Y-120607300D03*
D10*
%TO.N,Net-(U3-Q)*%
X286897100Y-120607300D03*
%TO.N,Net-(U4-Pad3)*%
X284357100Y-120607300D03*
%TO.N,Net-(U4-Pad4)*%
X281817100Y-120607300D03*
%TO.N,Net-(U2-Q)*%
X279277100Y-120607300D03*
%TO.N,Net-(U4-Pad6)*%
X276737100Y-120607300D03*
%TO.N,GND*%
X274197100Y-120607300D03*
%TO.N,CLK*%
X274197100Y-128227300D03*
%TO.N,Net-(U4-Pad9)*%
X276737100Y-128227300D03*
%TO.N,Net-(U4-Pad10)*%
X279277100Y-128227300D03*
%TO.N,unconnected-(U4-Pad11)*%
X281817100Y-128227300D03*
%TO.N,unconnected-(U4-Pad12)*%
X284357100Y-128227300D03*
%TO.N,unconnected-(U4-Pad13)*%
X286897100Y-128227300D03*
%TO.N,VCC*%
X289437100Y-128227300D03*
%TD*%
D22*
%TO.N,~{CLR}*%
%TO.C,U38*%
X151697100Y-134632300D03*
D23*
%TO.N,Net-(U38-Q0)*%
X151697100Y-137172300D03*
%TO.N,BUS_0*%
X151697100Y-139712300D03*
%TO.N,BUS_1*%
X151697100Y-142252300D03*
%TO.N,Net-(U38-Q1)*%
X151697100Y-144792300D03*
%TO.N,Net-(U38-Q2)*%
X151697100Y-147332300D03*
%TO.N,BUS_2*%
X151697100Y-149872300D03*
%TO.N,BUS_3*%
X151697100Y-152412300D03*
%TO.N,Net-(U38-Q3)*%
X151697100Y-154952300D03*
%TO.N,GND*%
X151697100Y-157492300D03*
%TO.N,Net-(U38-Cp)*%
X159317100Y-157492300D03*
%TO.N,Net-(U38-Q4)*%
X159317100Y-154952300D03*
%TO.N,BUS_4*%
X159317100Y-152412300D03*
%TO.N,BUS_5*%
X159317100Y-149872300D03*
%TO.N,Net-(U38-Q5)*%
X159317100Y-147332300D03*
%TO.N,Net-(U38-Q6)*%
X159317100Y-144792300D03*
%TO.N,BUS_6*%
X159317100Y-142252300D03*
%TO.N,BUS_7*%
X159317100Y-139712300D03*
%TO.N,Net-(U38-Q7)*%
X159317100Y-137172300D03*
%TO.N,VCC*%
X159317100Y-134632300D03*
%TD*%
D13*
%TO.N,GND*%
%TO.C,U49*%
X196627100Y-79672300D03*
D14*
X196627100Y-77132300D03*
%TO.N,/ALU/A_7*%
X196627100Y-74592300D03*
%TO.N,/ALU/A_6*%
X196627100Y-72052300D03*
%TO.N,/ALU/A_5*%
X196627100Y-69512300D03*
%TO.N,/ALU/A_4*%
X196627100Y-66972300D03*
%TO.N,CLK*%
X196627100Y-64432300D03*
%TO.N,GND*%
X196627100Y-61892300D03*
%TO.N,~{AI}*%
X189007100Y-61892300D03*
X189007100Y-64432300D03*
%TO.N,BUS_4*%
X189007100Y-66972300D03*
%TO.N,BUS_5*%
X189007100Y-69512300D03*
%TO.N,BUS_6*%
X189007100Y-72052300D03*
%TO.N,BUS_7*%
X189007100Y-74592300D03*
%TO.N,CLR*%
X189007100Y-77132300D03*
%TO.N,VCC*%
X189007100Y-79672300D03*
%TD*%
D10*
%TO.N,Net-(D40-K)*%
%TO.C,R42*%
X52317100Y-117412300D03*
%TO.N,GND*%
X52317100Y-109792300D03*
%TD*%
D12*
%TO.N,VCC*%
%TO.C,C9*%
X255993900Y-76199100D03*
%TO.N,GND*%
X257993900Y-76199100D03*
%TD*%
D10*
%TO.N,Net-(D21-K)*%
%TO.C,R21*%
X228647100Y-47332300D03*
%TO.N,GND*%
X228647100Y-54952300D03*
%TD*%
D15*
%TO.N,Net-(D51-K)*%
%TO.C,D51*%
X107607100Y-122412300D03*
D16*
%TO.N,Net-(D51-A)*%
X110147100Y-122412300D03*
%TD*%
D10*
%TO.N,Net-(D61-K)*%
%TO.C,R63*%
X114912100Y-81552300D03*
%TO.N,GND*%
X114912100Y-73932300D03*
%TD*%
D12*
%TO.N,VCC*%
%TO.C,C55*%
X154000000Y-66500000D03*
%TO.N,GND*%
X156000000Y-66500000D03*
%TD*%
%TO.N,GND*%
%TO.C,C35*%
X206000000Y-59500000D03*
%TO.N,VCC*%
X206000000Y-61500000D03*
%TD*%
D10*
%TO.N,BUS_4*%
%TO.C,R76*%
X63397900Y-100787700D03*
%TO.N,GND*%
X71017900Y-100787700D03*
%TD*%
%TO.N,Net-(D12-K)*%
%TO.C,R11*%
X252167100Y-109542300D03*
%TO.N,GND*%
X252167100Y-117162300D03*
%TD*%
D15*
%TO.N,Net-(D024-K)*%
%TO.C,D024*%
X324420000Y-78920000D03*
D16*
%TO.N,/ALU/B_5*%
X326960000Y-78920000D03*
%TD*%
D10*
%TO.N,Net-(D58-A)*%
%TO.C,R56*%
X117412100Y-98552300D03*
%TO.N,VCC*%
X117412100Y-90932300D03*
%TD*%
D15*
%TO.N,Net-(D4-K)*%
%TO.C,D4*%
X211567100Y-81162300D03*
D16*
%TO.N,/ALU/A_5*%
X209027100Y-81162300D03*
%TD*%
D12*
%TO.N,VCC*%
%TO.C,C27*%
X277500000Y-70000000D03*
%TO.N,GND*%
X279500000Y-70000000D03*
%TD*%
%TO.N,VCC*%
%TO.C,C48*%
X175500000Y-96000000D03*
%TO.N,GND*%
X177500000Y-96000000D03*
%TD*%
%TO.N,GND*%
%TO.C,C28*%
X301500000Y-116500000D03*
%TO.N,VCC*%
X299500000Y-116500000D03*
%TD*%
%TO.N,VCC*%
%TO.C,C43*%
X310000000Y-99000000D03*
%TO.N,GND*%
X310000000Y-97000000D03*
%TD*%
%TO.N,VCC*%
%TO.C,C71*%
X175000000Y-60000000D03*
%TO.N,GND*%
X175000000Y-58000000D03*
%TD*%
%TO.N,GND*%
%TO.C,C54*%
X269000000Y-47000000D03*
%TO.N,VCC*%
X271000000Y-47000000D03*
%TD*%
%TO.N,VCC*%
%TO.C,C41*%
X331500000Y-98500000D03*
%TO.N,GND*%
X331500000Y-96500000D03*
%TD*%
%TO.N,VCC*%
%TO.C,C72*%
X208000000Y-53500000D03*
%TO.N,GND*%
X210000000Y-53500000D03*
%TD*%
%TO.N,VCC*%
%TO.C,C73*%
X169000000Y-49000000D03*
%TO.N,GND*%
X171000000Y-49000000D03*
%TD*%
%TO.N,VCC*%
%TO.C,C60*%
X135000000Y-135500000D03*
%TO.N,GND*%
X133000000Y-135500000D03*
%TD*%
%TO.N,VCC*%
%TO.C,C62*%
X160500000Y-96500000D03*
%TO.N,GND*%
X158500000Y-96500000D03*
%TD*%
%TO.N,VCC*%
%TO.C,C32*%
X289000000Y-124500000D03*
%TO.N,GND*%
X287000000Y-124500000D03*
%TD*%
%TO.N,VCC*%
%TO.C,C59*%
X156500000Y-134500000D03*
%TO.N,GND*%
X154500000Y-134500000D03*
%TD*%
%TO.N,VCC*%
%TO.C,C51*%
X197500000Y-141000000D03*
%TO.N,GND*%
X199500000Y-141000000D03*
%TD*%
%TO.N,VCC*%
%TO.C,C53*%
X251500000Y-121500000D03*
%TO.N,GND*%
X253500000Y-121500000D03*
%TD*%
%TO.N,GND*%
%TO.C,C46*%
X324500000Y-88500000D03*
%TO.N,VCC*%
X324500000Y-86500000D03*
%TD*%
%TO.N,VCC*%
%TO.C,C61*%
X146000000Y-135000000D03*
%TO.N,GND*%
X144000000Y-135000000D03*
%TD*%
D28*
%TO.N,VCC*%
X115000000Y-153500000D03*
%TO.N,Net-(U18-I1b)*%
X265983800Y-37790400D03*
%TO.N,Net-(U18-I1a)*%
X224880000Y-32377500D03*
%TO.N,Net-(U23-\u002AO0)*%
X214573900Y-109255700D03*
X193056100Y-102253000D03*
%TO.N,Net-(U23-\u002AO3)*%
X221952900Y-116689200D03*
X186577700Y-103015000D03*
%TO.N,Net-(U21-\u002AO3)*%
X172183800Y-102463400D03*
%TO.N,Net-(U21-\u002AO0)*%
X214392200Y-112015400D03*
X169504500Y-99911600D03*
%TO.N,Net-(U21-\u002AO1)*%
X207217800Y-121842100D03*
X169208200Y-103785000D03*
%TO.N,Net-(U21-\u002AO2)*%
X174576300Y-105055000D03*
%TO.N,Net-(U52-Zd)*%
X215427500Y-143501800D03*
%TO.N,Net-(U21-\u002AWE)*%
X221432600Y-113478800D03*
X192784200Y-97192800D03*
X169129400Y-98108200D03*
X178173200Y-98211400D03*
%TO.N,Net-(U23-D3)*%
X228759100Y-116265800D03*
X189683500Y-95057500D03*
X188144400Y-101722600D03*
%TO.N,Net-(U14-B3)*%
X297215700Y-103258700D03*
%TO.N,Net-(U23-D1)*%
X233419900Y-103628400D03*
X253573000Y-106595700D03*
%TO.N,Net-(U52-I0a)*%
X179050000Y-125930300D03*
%TO.N,Net-(U38-Q4)*%
X127253800Y-151162500D03*
%TO.N,Net-(U38-Q5)*%
X131434100Y-132633000D03*
%TO.N,Net-(U38-Q6)*%
X133292200Y-130399700D03*
%TO.N,Net-(U38-Q1)*%
X125383800Y-141222400D03*
%TO.N,Net-(U38-Q3)*%
X134091500Y-111585500D03*
%TO.N,Net-(U38-Q7)*%
X150400500Y-102756200D03*
%TO.N,Net-(U38-Q0)*%
X151583000Y-117355100D03*
%TO.N,Net-(U38-Q2)*%
X124777200Y-143145400D03*
%TO.N,Net-(U34-B)*%
X121133300Y-125274600D03*
%TO.N,Net-(U34-A)*%
X123346000Y-124892200D03*
%TO.N,Net-(U34-DP)*%
X122842900Y-134271900D03*
X139813500Y-129219400D03*
%TO.N,Net-(U34-C)*%
X122745300Y-133467300D03*
X140413600Y-128370500D03*
%TO.N,Net-(U34-G)*%
X109736400Y-128792300D03*
X109314600Y-124621500D03*
%TO.N,Net-(U34-D)*%
X123634300Y-134617400D03*
%TO.N,Net-(U34-E)*%
X113546400Y-127111700D03*
%TO.N,Net-(U33A-O0)*%
X86716400Y-150006000D03*
X142283800Y-154802100D03*
%TO.N,Net-(U52-I0b)*%
X178988300Y-129297500D03*
%TO.N,Net-(U33A-O2)*%
X139583900Y-144243300D03*
%TO.N,Net-(U32B-~{Q})*%
X140824400Y-130880700D03*
%TO.N,Net-(U32A-~{Q})*%
X141659000Y-131682500D03*
%TO.N,Net-(U31-Q)*%
X124277900Y-153667200D03*
%TO.N,~{AI}*%
X190300500Y-55992600D03*
X228266500Y-62888500D03*
%TO.N,~{II}*%
X218384800Y-84325600D03*
%TO.N,Net-(U51-I1c)*%
X200627000Y-124664800D03*
%TO.N,Net-(U26-Pad6)*%
X133054400Y-83254800D03*
X134927800Y-81733100D03*
%TO.N,Net-(U42-O5)*%
X198904100Y-109886900D03*
X153499500Y-98313400D03*
X152685600Y-101064600D03*
%TO.N,~{CLR}*%
X208784100Y-97669200D03*
X158988500Y-128341200D03*
%TO.N,Net-(U23-D0)*%
X229169700Y-113427900D03*
X188561800Y-93921600D03*
X181855300Y-100212500D03*
%TO.N,Net-(U24-Zd)*%
X204240200Y-137993100D03*
%TO.N,Net-(U21-D2)*%
X250902000Y-145210000D03*
X175401200Y-153015800D03*
X175401200Y-103659200D03*
%TO.N,Net-(U24-Zc)*%
X211516000Y-135926300D03*
%TO.N,Net-(U21-D1)*%
X230470900Y-124953200D03*
X201324800Y-121376800D03*
X169232800Y-102515000D03*
%TO.N,Net-(U24-Zb)*%
X188317500Y-133776300D03*
X201015600Y-133304700D03*
%TO.N,Net-(U51-Zc)*%
X229514200Y-131695000D03*
%TO.N,BUS_7*%
X192238800Y-148790100D03*
X75106800Y-87254700D03*
X138850700Y-89051000D03*
X142190600Y-88145900D03*
X162759900Y-86499200D03*
X190919900Y-70889700D03*
%TO.N,BUS_6*%
X195380000Y-148872000D03*
X163680200Y-24871700D03*
X180448100Y-149315300D03*
X291304400Y-100332800D03*
X267784600Y-92256100D03*
%TO.N,BUS_4*%
X312817400Y-94724100D03*
X297822500Y-97926800D03*
X200460000Y-149152200D03*
X63427300Y-144347900D03*
X224427000Y-74953300D03*
X208851300Y-142167300D03*
%TO.N,/MAR/PROG*%
X238194200Y-33428500D03*
X232701500Y-127402100D03*
X187241800Y-123956000D03*
X262366700Y-25621800D03*
%TO.N,Net-(U13-B4)*%
X288253900Y-85767200D03*
%TO.N,~{FI}*%
X134339000Y-40078100D03*
%TO.N,Net-(U12-D0)*%
X281383900Y-51895900D03*
%TO.N,Net-(U10-Pad9)*%
X286307300Y-67146900D03*
%TO.N,~{BI}*%
X293341200Y-115538100D03*
%TO.N,CLR*%
X210991400Y-110242300D03*
X192633300Y-57770300D03*
X210820800Y-63306000D03*
X237211200Y-77913500D03*
X242169400Y-51792400D03*
X304965300Y-40323700D03*
%TO.N,Net-(U52-Zb)*%
X212438400Y-146485400D03*
%TO.N,Net-(U21-D3)*%
X222993800Y-139637300D03*
X220247800Y-116210000D03*
X175313300Y-100300400D03*
%TO.N,Net-(U23-D2)*%
X203904100Y-119869400D03*
X186563400Y-104285000D03*
%TO.N,Net-(U21-D0)*%
X207583600Y-117541600D03*
X166797300Y-99792500D03*
%TO.N,Net-(U52-Zc)*%
X216983600Y-141956700D03*
%TO.N,~{CLK}*%
X87392900Y-68027100D03*
X129915200Y-79566500D03*
X132764800Y-79566500D03*
X228312500Y-120087800D03*
X228912500Y-123758900D03*
%TO.N,Net-(U24-Za)*%
X189868800Y-136945700D03*
X207712100Y-139705300D03*
%TO.N,Net-(U3-Q)*%
X291045400Y-144027300D03*
%TO.N,Net-(U2-Q)*%
X281515600Y-140686800D03*
%TO.N,Net-(SW7-B)*%
X137441800Y-127994600D03*
X118823200Y-128705100D03*
X112516400Y-156462200D03*
%TO.N,Net-(U24-I0c)*%
X180257200Y-132746800D03*
%TO.N,Net-(U24-I0d)*%
X186114200Y-140443000D03*
%TO.N,Net-(R64-Pad1)*%
X201153800Y-111364100D03*
X149367500Y-94181400D03*
X147338800Y-95192200D03*
%TO.N,Net-(U31-DIS)*%
X158032700Y-149221400D03*
X128734200Y-151762200D03*
%TO.N,Net-(U1-DIS)*%
X301015300Y-120213300D03*
%TO.N,Net-(D119-A)*%
X180079500Y-41635300D03*
%TO.N,Net-(D117-A)*%
X186845400Y-47286700D03*
X211519400Y-47286700D03*
%TO.N,Net-(D116-A)*%
X182430100Y-45909600D03*
%TO.N,IR_4*%
X169258600Y-31602200D03*
%TO.N,IR_5*%
X176200100Y-31973800D03*
%TO.N,IR_6*%
X113057000Y-42220000D03*
X165020000Y-31973800D03*
%TO.N,IR_7*%
X175051600Y-42702200D03*
X160040000Y-28958200D03*
%TO.N,BUS_3*%
X270967800Y-71578500D03*
X240658900Y-72320500D03*
X181247400Y-151142300D03*
X82898500Y-91267100D03*
X139531900Y-89732300D03*
X208460300Y-58364300D03*
X171815000Y-57016300D03*
X291127400Y-89659000D03*
%TO.N,BUS_2*%
X62815400Y-106348700D03*
X140221400Y-91132200D03*
X210919500Y-58061200D03*
X291587800Y-90670400D03*
%TO.N,BUS_1*%
X291359000Y-92461900D03*
X165531700Y-84114200D03*
X61386700Y-107766400D03*
X143540500Y-97640100D03*
X204194300Y-57684800D03*
X187699900Y-55479300D03*
X172673800Y-58252500D03*
X273205500Y-64971700D03*
X249371800Y-69917800D03*
X152954700Y-138090400D03*
X183282100Y-137493600D03*
%TO.N,BUS_0*%
X166767200Y-85386000D03*
X208053500Y-50875600D03*
X187028400Y-64098700D03*
X241363300Y-49770600D03*
X137771800Y-87541200D03*
%TO.N,Net-(D61-A)*%
X107443100Y-88667300D03*
%TO.N,Net-(D53-A)*%
X121303400Y-53036700D03*
%TO.N,Net-(D52-A)*%
X133184500Y-47890700D03*
X119021100Y-65642800D03*
%TO.N,Net-(D51-A)*%
X115369100Y-70373600D03*
%TO.N,CE*%
X149198700Y-63508400D03*
X120896600Y-108112900D03*
%TO.N,OI*%
X153305900Y-101600600D03*
X124139800Y-112212100D03*
%TO.N,SU*%
X286614700Y-73500000D03*
X121303400Y-106976800D03*
X148646700Y-105399100D03*
X158486600Y-105399100D03*
X230565000Y-120287600D03*
X233572100Y-119383700D03*
%TO.N,Net-(D46-A)*%
X124965300Y-105770200D03*
%TO.N,Net-(D45-A)*%
X232750300Y-121324400D03*
X177904700Y-123936200D03*
X176292500Y-124040300D03*
%TO.N,Net-(D44-A)*%
X230270300Y-121103100D03*
X165185000Y-111461000D03*
X164211500Y-112643000D03*
%TO.N,Net-(D43-A)*%
X231222300Y-119764100D03*
X165819400Y-112075000D03*
X165521200Y-113276100D03*
%TO.N,Net-(D42-A)*%
X225135400Y-124555000D03*
X179037700Y-125066300D03*
X177776000Y-127069800D03*
X93596100Y-127729100D03*
%TO.N,Net-(D41-A)*%
X104231900Y-106157300D03*
%TO.N,RI*%
X198185000Y-108953000D03*
X150920200Y-94796800D03*
X144770900Y-92640800D03*
X101165200Y-106157300D03*
%TO.N,Net-(D39-A)*%
X88334200Y-105740400D03*
%TO.N,HLT*%
X99254800Y-77134000D03*
%TO.N,Net-(D37-A)*%
X169083800Y-88917500D03*
%TO.N,Net-(D36-A)*%
X157223500Y-73683500D03*
%TO.N,Net-(D30-A)*%
X222555500Y-134364900D03*
%TO.N,Net-(D29-A)*%
X223155600Y-135440500D03*
%TO.N,Net-(D28-A)*%
X207064400Y-145265900D03*
%TO.N,/ALU/B_1*%
X314807200Y-97225100D03*
%TO.N,Net-(D27-A)*%
X207606100Y-133953500D03*
X193662500Y-147529400D03*
%TO.N,/ALU/B_4*%
X298170000Y-75646500D03*
%TO.N,/ALU/B_5*%
X290290800Y-82275800D03*
X319873300Y-88178600D03*
X301077600Y-95520700D03*
%TO.N,/MAR/A0*%
X240961100Y-32460900D03*
X195358500Y-93781700D03*
X197158900Y-31759300D03*
X229960000Y-25738600D03*
%TO.N,/MAR/A1*%
X194814800Y-96592600D03*
X196325700Y-33318600D03*
%TO.N,/MAR/A2*%
X191759000Y-99205000D03*
X193808100Y-35253100D03*
%TO.N,/MAR/A3*%
X176142000Y-99828000D03*
X184149200Y-100337500D03*
X194589200Y-34518900D03*
%TO.N,Net-(D18-A)*%
X272567300Y-79701100D03*
%TO.N,Net-(D16-A)*%
X274354300Y-94131300D03*
%TO.N,Net-(D15-A)*%
X276075400Y-62004200D03*
%TO.N,Net-(D13-A)*%
X271344500Y-49076200D03*
%TO.N,ZF*%
X133802400Y-38349600D03*
%TO.N,/ALU/A_0*%
X236066700Y-69227100D03*
X248388100Y-69739200D03*
X276561700Y-64920400D03*
%TO.N,/ALU/A_1*%
X237205100Y-69066100D03*
X249190700Y-68952300D03*
X270487500Y-62632900D03*
%TO.N,/ALU/A_2*%
X274846100Y-68909700D03*
%TO.N,/ALU/A_3*%
X285932200Y-69489800D03*
X286707500Y-59703700D03*
%TO.N,/ALU/A_4*%
X214365600Y-67225900D03*
X231899900Y-72099100D03*
X238129300Y-56329800D03*
X274629100Y-56889300D03*
%TO.N,/ALU/A_5*%
X231157400Y-54067800D03*
X274678900Y-52195700D03*
%TO.N,/ALU/A_6*%
X215397000Y-71009100D03*
X224933700Y-46820100D03*
X274703800Y-49576500D03*
%TO.N,/ALU/A_7*%
X224358400Y-57712700D03*
X264138800Y-59639400D03*
%TO.N,Net-(U31-THR)*%
X132122200Y-152793800D03*
X153599700Y-147071700D03*
%TO.N,CLK*%
X283152200Y-95100400D03*
%TO.N,BUS_5*%
X173301900Y-61336000D03*
X299132900Y-87816300D03*
X197920000Y-149152200D03*
X178730000Y-31962000D03*
X251777200Y-88959000D03*
X236317800Y-129480800D03*
%TO.N,Net-(U1-THR)*%
X306373300Y-115735300D03*
%TO.N,VCC*%
X30500000Y-107500000D03*
X31500000Y-114000000D03*
%TO.N,GND*%
X295000000Y-116500000D03*
X31500000Y-107000000D03*
X30500000Y-98500000D03*
X30500000Y-106500000D03*
X31000000Y-118500000D03*
X31000000Y-116500000D03*
X297500000Y-153500000D03*
X286500000Y-141500000D03*
X289500000Y-144000000D03*
X292000000Y-148000000D03*
X166000000Y-97500000D03*
X166500000Y-105500000D03*
X181500000Y-98000000D03*
X178500000Y-105500000D03*
%TD*%
D29*
%TO.N,Net-(U18-I1d)*%
X228798900Y-27541100D02*
X227420000Y-28920000D01*
X238732700Y-27541100D02*
X228798900Y-27541100D01*
X242329300Y-31137700D02*
X238732700Y-27541100D01*
X253413600Y-31137700D02*
X242329300Y-31137700D01*
X256317900Y-34042000D02*
X253413600Y-31137700D01*
X267162000Y-34042000D02*
X256317900Y-34042000D01*
X269000000Y-35880000D02*
X267162000Y-34042000D01*
%TO.N,Net-(U18-I1c)*%
X269965200Y-32374800D02*
X269000000Y-33340000D01*
X269965200Y-30383600D02*
X269965200Y-32374800D01*
X268849100Y-29267500D02*
X269965200Y-30383600D01*
X266253600Y-29267500D02*
X268849100Y-29267500D01*
X263727000Y-26740900D02*
X266253600Y-29267500D01*
X225696500Y-26740900D02*
X263727000Y-26740900D01*
X223921900Y-28515500D02*
X225696500Y-26740900D01*
X223921900Y-29348200D02*
X223921900Y-28515500D01*
X224441600Y-29867900D02*
X223921900Y-29348200D01*
X227819600Y-29867900D02*
X224441600Y-29867900D01*
X228690000Y-28997500D02*
X227819600Y-29867900D01*
X228690000Y-28749600D02*
X228690000Y-28997500D01*
X229498400Y-27941200D02*
X228690000Y-28749600D01*
X234061200Y-27941200D02*
X229498400Y-27941200D01*
X235040000Y-28920000D02*
X234061200Y-27941200D01*
%TO.N,Net-(U18-I1b)*%
X231544400Y-35584400D02*
X232500000Y-36540000D01*
X229513400Y-35584400D02*
X231544400Y-35584400D01*
X229002600Y-36095200D02*
X229513400Y-35584400D01*
X229002600Y-36957100D02*
X229002600Y-36095200D01*
X231331800Y-39286300D02*
X229002600Y-36957100D01*
X253934000Y-39286300D02*
X231331800Y-39286300D01*
X255997900Y-41350200D02*
X253934000Y-39286300D01*
X261368000Y-41350200D02*
X255997900Y-41350200D01*
X263632000Y-39086200D02*
X261368000Y-41350200D01*
X264688000Y-39086200D02*
X263632000Y-39086200D01*
X265983800Y-37790400D02*
X264688000Y-39086200D01*
%TO.N,Net-(U18-I1a)*%
X223515200Y-31012700D02*
X224880000Y-32377500D01*
X223515200Y-28322800D02*
X223515200Y-31012700D01*
X225497300Y-26340700D02*
X223515200Y-28322800D01*
X267080700Y-26340700D02*
X225497300Y-26340700D01*
X269000000Y-28260000D02*
X267080700Y-26340700D01*
%TO.N,Net-(U18-I0a)*%
X225486400Y-39686400D02*
X222340000Y-36540000D01*
X253768300Y-39686400D02*
X225486400Y-39686400D01*
X255832200Y-41750300D02*
X253768300Y-39686400D01*
X262999700Y-41750300D02*
X255832200Y-41750300D01*
X264500000Y-40250000D02*
X262999700Y-41750300D01*
%TO.N,Net-(U18-I0c)*%
X235117800Y-31537800D02*
X232500000Y-28920000D01*
X253247800Y-31537800D02*
X235117800Y-31537800D01*
X256880000Y-35170000D02*
X253247800Y-31537800D01*
%TO.N,Net-(U18-I0b)*%
X232291700Y-38871700D02*
X229960000Y-36540000D01*
X263103900Y-38871700D02*
X232291700Y-38871700D01*
X264265600Y-37710000D02*
X263103900Y-38871700D01*
X264500000Y-37710000D02*
X264265600Y-37710000D01*
%TO.N,Net-(U18-I0d)*%
X226659000Y-27141000D02*
X224880000Y-28920000D01*
X238932700Y-27141000D02*
X226659000Y-27141000D01*
X241259200Y-29467500D02*
X238932700Y-27141000D01*
X253717500Y-29467500D02*
X241259200Y-29467500D01*
X256880000Y-32630000D02*
X253717500Y-29467500D01*
%TO.N,Net-(U23-\u002AO0)*%
X214573900Y-109255600D02*
X214573900Y-109255700D01*
X200467900Y-109255600D02*
X214573900Y-109255600D01*
X193465300Y-102253000D02*
X200467900Y-109255600D01*
X193056100Y-102253000D02*
X193465300Y-102253000D01*
%TO.N,Net-(U23-\u002AO3)*%
X202717600Y-119154900D02*
X186577700Y-103015000D01*
X204152700Y-119154900D02*
X202717600Y-119154900D01*
X204422400Y-119424600D02*
X204152700Y-119154900D01*
X219217500Y-119424600D02*
X204422400Y-119424600D01*
X221952900Y-116689200D02*
X219217500Y-119424600D01*
%TO.N,Net-(U21-\u002AO3)*%
X222699700Y-118025000D02*
X223657400Y-118025000D01*
X219159700Y-121565000D02*
X222699700Y-118025000D01*
X207789400Y-121565000D02*
X219159700Y-121565000D01*
X207466400Y-121242000D02*
X207789400Y-121565000D01*
X206969300Y-121242000D02*
X207466400Y-121242000D01*
X206683300Y-121528000D02*
X206969300Y-121242000D01*
X202324700Y-121528000D02*
X206683300Y-121528000D01*
X183334700Y-102538000D02*
X202324700Y-121528000D01*
X172258400Y-102538000D02*
X183334700Y-102538000D01*
X172183800Y-102463400D02*
X172258400Y-102538000D01*
%TO.N,Net-(U21-\u002AO0)*%
X170203800Y-99212300D02*
X169504500Y-99911600D01*
X187048600Y-99212300D02*
X170203800Y-99212300D01*
X189144600Y-101308300D02*
X187048600Y-99212300D01*
X189144600Y-101591200D02*
X189144600Y-101308300D01*
X199545400Y-111992000D02*
X189144600Y-101591200D01*
X214368800Y-111992000D02*
X199545400Y-111992000D01*
X214392200Y-112015400D02*
X214368800Y-111992000D01*
%TO.N,Net-(U21-\u002AO1)*%
X207061000Y-121998900D02*
X207217800Y-121842100D01*
X199681200Y-121998900D02*
X207061000Y-121998900D01*
X186771400Y-109089100D02*
X199681200Y-121998900D01*
X174512300Y-109089100D02*
X186771400Y-109089100D01*
X169208200Y-103785000D02*
X174512300Y-109089100D01*
%TO.N,Net-(U21-\u002AO2)*%
X214767400Y-116755000D02*
X216037400Y-115485000D01*
X209218800Y-116755000D02*
X214767400Y-116755000D01*
X206999300Y-118974500D02*
X209218800Y-116755000D01*
X204538100Y-118974500D02*
X206999300Y-118974500D01*
X204318400Y-118754800D02*
X204538100Y-118974500D01*
X203196400Y-118754800D02*
X204318400Y-118754800D01*
X186579500Y-102137900D02*
X203196400Y-118754800D01*
X181083000Y-102137900D02*
X186579500Y-102137900D01*
X180793000Y-101847900D02*
X181083000Y-102137900D01*
X171913900Y-101847900D02*
X180793000Y-101847900D01*
X171583600Y-102178200D02*
X171913900Y-101847900D01*
X171583600Y-102757700D02*
X171583600Y-102178200D01*
X173880900Y-105055000D02*
X171583600Y-102757700D01*
X174576300Y-105055000D02*
X173880900Y-105055000D01*
%TO.N,Net-(U52-Zd)*%
X230012600Y-143501800D02*
X215427500Y-143501800D01*
X235147100Y-138367300D02*
X230012600Y-143501800D01*
%TO.N,Net-(U21-\u002AWE)*%
X178070000Y-98108200D02*
X169129400Y-98108200D01*
X178173200Y-98211400D02*
X178070000Y-98108200D01*
X216867300Y-108913500D02*
X221432600Y-113478800D01*
X215717100Y-108913500D02*
X216867300Y-108913500D01*
X214810200Y-108006600D02*
X215717100Y-108913500D01*
X214810200Y-105683500D02*
X214810200Y-108006600D01*
X213503800Y-104377100D02*
X214810200Y-105683500D01*
X212059400Y-104377100D02*
X213503800Y-104377100D01*
X204875100Y-97192800D02*
X212059400Y-104377100D01*
X192784200Y-97192800D02*
X204875100Y-97192800D01*
%TO.N,Net-(U23-D3)*%
X203305600Y-95057500D02*
X189683500Y-95057500D01*
X212225100Y-103977000D02*
X203305600Y-95057500D01*
X216413200Y-103977000D02*
X212225100Y-103977000D01*
X217722400Y-105286200D02*
X216413200Y-103977000D01*
X217722400Y-105850200D02*
X217722400Y-105286200D01*
X223547200Y-111675000D02*
X217722400Y-105850200D01*
X223928000Y-111675000D02*
X223547200Y-111675000D01*
X226268000Y-114015000D02*
X223928000Y-111675000D01*
X226508300Y-114015000D02*
X226268000Y-114015000D01*
X228759100Y-116265800D02*
X226508300Y-114015000D01*
%TO.N,Net-(U14-B3)*%
X295730000Y-104744400D02*
X297215700Y-103258700D01*
X295730000Y-111535000D02*
X295730000Y-104744400D01*
X294460000Y-112805000D02*
X295730000Y-111535000D01*
%TO.N,Net-(U23-D1)*%
X233419900Y-103628500D02*
X233419900Y-103628400D01*
X239453300Y-103628500D02*
X233419900Y-103628500D01*
X242420500Y-106595700D02*
X239453300Y-103628500D01*
X253573000Y-106595700D02*
X242420500Y-106595700D01*
%TO.N,Net-(U41-~{MR})*%
X84032100Y-65227900D02*
X84032100Y-51252300D01*
X74000000Y-75260000D02*
X84032100Y-65227900D01*
%TO.N,Net-(U52-I0a)*%
X180424100Y-124556200D02*
X179050000Y-125930300D01*
X185195200Y-124556200D02*
X180424100Y-124556200D01*
X187397400Y-126758400D02*
X185195200Y-124556200D01*
X192435100Y-126758400D02*
X187397400Y-126758400D01*
X193874000Y-128197300D02*
X192435100Y-126758400D01*
X205977100Y-128197300D02*
X193874000Y-128197300D01*
%TO.N,Net-(U38-Q4)*%
X129904000Y-153812700D02*
X127253800Y-151162500D01*
X158177500Y-153812700D02*
X129904000Y-153812700D01*
X159317100Y-154952300D02*
X158177500Y-153812700D01*
%TO.N,Net-(U38-Q5)*%
X134197600Y-132633000D02*
X131434100Y-132633000D01*
X136903700Y-135339100D02*
X134197600Y-132633000D01*
X138357700Y-135339100D02*
X136903700Y-135339100D01*
X139414200Y-136395600D02*
X138357700Y-135339100D01*
X139414200Y-138984700D02*
X139414200Y-136395600D01*
X140848600Y-140419100D02*
X139414200Y-138984700D01*
X143141200Y-140419100D02*
X140848600Y-140419100D01*
X145681200Y-142959100D02*
X143141200Y-140419100D01*
X150388900Y-142959100D02*
X145681200Y-142959100D01*
X150952100Y-143522300D02*
X150388900Y-142959100D01*
X155507100Y-143522300D02*
X150952100Y-143522300D01*
X159317100Y-147332300D02*
X155507100Y-143522300D01*
%TO.N,Net-(U38-Q6)*%
X158808000Y-144792300D02*
X159317100Y-144792300D01*
X152458000Y-138442300D02*
X158808000Y-144792300D01*
X150952100Y-138442300D02*
X152458000Y-138442300D01*
X150388900Y-137879100D02*
X150952100Y-138442300D01*
X147538500Y-137879100D02*
X150388900Y-137879100D01*
X145000000Y-135340600D02*
X147538500Y-137879100D01*
X145000000Y-134174800D02*
X145000000Y-135340600D01*
X141105800Y-130280600D02*
X145000000Y-134174800D01*
X133411300Y-130280600D02*
X141105800Y-130280600D01*
X133292200Y-130399700D02*
X133411300Y-130280600D01*
%TO.N,Net-(U38-Q1)*%
X129494800Y-145333400D02*
X125383800Y-141222400D01*
X151156000Y-145333400D02*
X129494800Y-145333400D01*
X151697100Y-144792300D02*
X151156000Y-145333400D01*
%TO.N,Net-(U38-Q3)*%
X126532900Y-111585500D02*
X126166500Y-111219100D01*
X134091500Y-111585500D02*
X126532900Y-111585500D01*
%TO.N,Net-(U38-Q7)*%
X127436500Y-102329100D02*
X126166500Y-101059100D01*
X149973400Y-102329100D02*
X127436500Y-102329100D01*
X150400500Y-102756200D02*
X149973400Y-102329100D01*
%TO.N,Net-(U38-Q0)*%
X127178600Y-118839100D02*
X126166500Y-118839100D01*
X128662600Y-117355100D02*
X127178600Y-118839100D01*
X151583000Y-117355100D02*
X128662600Y-117355100D01*
%TO.N,Net-(U38-Q2)*%
X129505200Y-147873400D02*
X124777200Y-143145400D01*
X151156000Y-147873400D02*
X129505200Y-147873400D01*
X151697100Y-147332300D02*
X151156000Y-147873400D01*
%TO.N,Net-(U34-B)*%
X106961200Y-131753900D02*
X105846400Y-130639100D01*
X112725600Y-131753900D02*
X106961200Y-131753900D01*
X113546400Y-130933100D02*
X112725600Y-131753900D01*
X113546400Y-130323100D02*
X113546400Y-130933100D01*
X114736300Y-129133200D02*
X113546400Y-130323100D01*
X118390500Y-129133200D02*
X114736300Y-129133200D01*
X119896400Y-130639100D02*
X118390500Y-129133200D01*
X121351000Y-125492300D02*
X121133300Y-125274600D01*
X123594600Y-125492300D02*
X121351000Y-125492300D01*
X124062500Y-125024400D02*
X123594600Y-125492300D01*
X140618700Y-125024400D02*
X124062500Y-125024400D01*
X141724000Y-123919100D02*
X140618700Y-125024400D01*
%TO.N,Net-(U34-A)*%
X115791500Y-132204000D02*
X117356400Y-130639100D01*
X104871300Y-132204000D02*
X115791500Y-132204000D01*
X103306400Y-130639100D02*
X104871300Y-132204000D01*
X88142400Y-129525100D02*
X89256400Y-130639100D01*
X83722200Y-129525100D02*
X88142400Y-129525100D01*
X82906400Y-130340900D02*
X83722200Y-129525100D01*
X82906400Y-130973000D02*
X82906400Y-130340900D01*
X82131700Y-131747700D02*
X82906400Y-130973000D01*
X76315000Y-131747700D02*
X82131700Y-131747700D01*
X75206400Y-130639100D02*
X76315000Y-131747700D01*
X140454000Y-122649100D02*
X141724000Y-121379100D01*
X125589100Y-122649100D02*
X140454000Y-122649100D01*
X123346000Y-124892200D02*
X125589100Y-122649100D01*
%TO.N,Net-(U34-DP)*%
X107018500Y-147051200D02*
X105846400Y-145879100D01*
X118724300Y-147051200D02*
X107018500Y-147051200D01*
X119896400Y-145879100D02*
X118724300Y-147051200D01*
X78846600Y-146979300D02*
X77746400Y-145879100D01*
X84643100Y-146979300D02*
X78846600Y-146979300D01*
X85304900Y-146317500D02*
X84643100Y-146979300D01*
X85304900Y-145688800D02*
X85304900Y-146317500D01*
X86661100Y-144332600D02*
X85304900Y-145688800D01*
X90249900Y-144332600D02*
X86661100Y-144332600D01*
X91796400Y-145879100D02*
X90249900Y-144332600D01*
X129159800Y-129219400D02*
X139813500Y-129219400D01*
X124507400Y-133871800D02*
X129159800Y-129219400D01*
X123243000Y-133871800D02*
X124507400Y-133871800D01*
X122842900Y-134271900D02*
X123243000Y-133871800D01*
%TO.N,Net-(U34-C)*%
X101739600Y-147445900D02*
X103306400Y-145879100D01*
X90823200Y-147445900D02*
X101739600Y-147445900D01*
X89256400Y-145879100D02*
X90823200Y-147445900D01*
X104909600Y-147482300D02*
X103306400Y-145879100D01*
X119872800Y-147482300D02*
X104909600Y-147482300D01*
X121015000Y-146340100D02*
X119872800Y-147482300D01*
X121015000Y-145416200D02*
X121015000Y-146340100D01*
X120312000Y-144713200D02*
X121015000Y-145416200D01*
X118522300Y-144713200D02*
X120312000Y-144713200D01*
X117356400Y-145879100D02*
X118522300Y-144713200D01*
X87329600Y-147805900D02*
X89256400Y-145879100D01*
X77133200Y-147805900D02*
X87329600Y-147805900D01*
X75206400Y-145879100D02*
X77133200Y-147805900D01*
X140189400Y-128594700D02*
X140413600Y-128370500D01*
X134837700Y-128594700D02*
X140189400Y-128594700D01*
X134661800Y-128770600D02*
X134837700Y-128594700D01*
X128910000Y-128770600D02*
X134661800Y-128770600D01*
X124213300Y-133467300D02*
X128910000Y-128770600D01*
X122745300Y-133467300D02*
X124213300Y-133467300D01*
%TO.N,Net-(U34-G)*%
X80536200Y-129538900D02*
X81636400Y-130639100D01*
X68686600Y-129538900D02*
X80536200Y-129538900D01*
X67586400Y-130639100D02*
X68686600Y-129538900D01*
X83150500Y-129125000D02*
X81636400Y-130639100D01*
X94172300Y-129125000D02*
X83150500Y-129125000D01*
X95686400Y-130639100D02*
X94172300Y-129125000D01*
X97533200Y-128792300D02*
X109736400Y-128792300D01*
X95686400Y-130639100D02*
X97533200Y-128792300D01*
X122768100Y-124621500D02*
X109314600Y-124621500D01*
X126010500Y-121379100D02*
X122768100Y-124621500D01*
X126166500Y-121379100D02*
X126010500Y-121379100D01*
%TO.N,Net-(U34-D)*%
X71626700Y-144378800D02*
X70126400Y-145879100D01*
X82676100Y-144378800D02*
X71626700Y-144378800D01*
X84176400Y-145879100D02*
X82676100Y-144378800D01*
X86123000Y-143932500D02*
X84176400Y-145879100D01*
X96279800Y-143932500D02*
X86123000Y-143932500D01*
X98226400Y-145879100D02*
X96279800Y-143932500D01*
X127462400Y-134617400D02*
X123634300Y-134617400D01*
X132285400Y-129794400D02*
X127462400Y-134617400D01*
X133667200Y-129794400D02*
X132285400Y-129794400D01*
X133720600Y-129847800D02*
X133667200Y-129794400D01*
X140875300Y-129847800D02*
X133720600Y-129847800D01*
X141724000Y-128999100D02*
X140875300Y-129847800D01*
%TO.N,Net-(U34-E)*%
X107536200Y-144779000D02*
X108636300Y-145879100D01*
X102812700Y-144779000D02*
X107536200Y-144779000D01*
X102036400Y-145555300D02*
X102812700Y-144779000D01*
X102036400Y-146174200D02*
X102036400Y-145555300D01*
X101223200Y-146987400D02*
X102036400Y-146174200D01*
X97709900Y-146987400D02*
X101223200Y-146987400D01*
X96786500Y-146064000D02*
X97709900Y-146987400D01*
X96786500Y-145879100D02*
X96786500Y-146064000D01*
X109736400Y-145879100D02*
X108636300Y-145879100D01*
X67586400Y-145879100D02*
X68686500Y-145879100D01*
X81636400Y-145879100D02*
X80536300Y-145879100D01*
X96236500Y-145879100D02*
X96786500Y-145879100D01*
X96236500Y-145879100D02*
X95686400Y-145879100D01*
X95686400Y-145879100D02*
X94586300Y-145879100D01*
X76631500Y-146320000D02*
X76631500Y-144779000D01*
X77717300Y-147405800D02*
X76631500Y-146320000D01*
X86749800Y-147405800D02*
X77717300Y-147405800D01*
X87986400Y-146169200D02*
X86749800Y-147405800D01*
X87986400Y-145589600D02*
X87986400Y-146169200D01*
X88843300Y-144732700D02*
X87986400Y-145589600D01*
X89703700Y-144732700D02*
X88843300Y-144732700D01*
X90526400Y-145555400D02*
X89703700Y-144732700D01*
X90526400Y-146208500D02*
X90526400Y-145555400D01*
X91304700Y-146986800D02*
X90526400Y-146208500D01*
X93478600Y-146986800D02*
X91304700Y-146986800D01*
X94586300Y-145879100D02*
X93478600Y-146986800D01*
X72208800Y-144779000D02*
X76631500Y-144779000D01*
X71396400Y-145591400D02*
X72208800Y-144779000D01*
X71396400Y-146213800D02*
X71396400Y-145591400D01*
X70602800Y-147007400D02*
X71396400Y-146213800D01*
X69677300Y-147007400D02*
X70602800Y-147007400D01*
X68686500Y-146016600D02*
X69677300Y-147007400D01*
X68686500Y-145879100D02*
X68686500Y-146016600D01*
X79436200Y-144779000D02*
X80536300Y-145879100D01*
X76631500Y-144779000D02*
X79436200Y-144779000D01*
X125513900Y-127111700D02*
X113546400Y-127111700D01*
X126166500Y-126459100D02*
X125513900Y-127111700D01*
%TO.N,Net-(U34-F)*%
X82667700Y-132147800D02*
X84176400Y-130639100D01*
X71635100Y-132147800D02*
X82667700Y-132147800D01*
X70126400Y-130639100D02*
X71635100Y-132147800D01*
X99340400Y-129525100D02*
X98226400Y-130639100D01*
X111162400Y-129525100D02*
X99340400Y-129525100D01*
X112276400Y-130639100D02*
X111162400Y-129525100D01*
X85284800Y-131747500D02*
X84176400Y-130639100D01*
X97118000Y-131747500D02*
X85284800Y-131747500D01*
X98226400Y-130639100D02*
X97118000Y-131747500D01*
%TO.N,Net-(U33A-O0)*%
X91512500Y-154802100D02*
X86716400Y-150006000D01*
X142283800Y-154802100D02*
X91512500Y-154802100D01*
%TO.N,Net-(U52-I0b)*%
X181188600Y-127097200D02*
X178988300Y-129297500D01*
X184872800Y-127097200D02*
X181188600Y-127097200D01*
X187073200Y-129297600D02*
X184872800Y-127097200D01*
X192434300Y-129297600D02*
X187073200Y-129297600D01*
X193742700Y-130606000D02*
X192434300Y-129297600D01*
X203500300Y-130606000D02*
X193742700Y-130606000D01*
X204486400Y-129619900D02*
X203500300Y-130606000D01*
X206416200Y-129619900D02*
X204486400Y-129619900D01*
X208217300Y-131421000D02*
X206416200Y-129619900D01*
X208217300Y-134199900D02*
X208217300Y-131421000D01*
X206599900Y-135817300D02*
X208217300Y-134199900D01*
X205977100Y-135817300D02*
X206599900Y-135817300D01*
%TO.N,Net-(U33A-O3)*%
X76187500Y-149400200D02*
X72666400Y-145879100D01*
X126340300Y-149400200D02*
X76187500Y-149400200D01*
X127371800Y-150431700D02*
X126340300Y-149400200D01*
X140041300Y-150431700D02*
X127371800Y-150431700D01*
X141163900Y-149309100D02*
X140041300Y-150431700D01*
%TO.N,Net-(U33A-O2)*%
X138299700Y-142959100D02*
X139583900Y-144243300D01*
X136531000Y-142959100D02*
X138299700Y-142959100D01*
X134151100Y-140579200D02*
X136531000Y-142959100D01*
X106066300Y-140579200D02*
X134151100Y-140579200D01*
X100766400Y-145879100D02*
X106066300Y-140579200D01*
%TO.N,Net-(U33A-O1)*%
X141163900Y-143244900D02*
X141163900Y-144229100D01*
X138196500Y-140277500D02*
X141163900Y-143244900D01*
X134415300Y-140277500D02*
X138196500Y-140277500D01*
X132016900Y-137879100D02*
X134415300Y-140277500D01*
X125552100Y-137879100D02*
X132016900Y-137879100D01*
X118626400Y-130953400D02*
X125552100Y-137879100D01*
X118626400Y-130307300D02*
X118626400Y-130953400D01*
X117852400Y-129533300D02*
X118626400Y-130307300D01*
X115922200Y-129533300D02*
X117852400Y-129533300D01*
X114816400Y-130639100D02*
X115922200Y-129533300D01*
%TO.N,Net-(U32B-~{Q})*%
X140035600Y-131669500D02*
X140824400Y-130880700D01*
X140035600Y-138020800D02*
X140035600Y-131669500D01*
X141163900Y-139149100D02*
X140035600Y-138020800D01*
%TO.N,Net-(U32A-~{Q})*%
X142307800Y-135465200D02*
X141163900Y-136609100D01*
X142307800Y-132331300D02*
X142307800Y-135465200D01*
X141659000Y-131682500D02*
X142307800Y-132331300D01*
%TO.N,~{J}*%
X153050000Y-68010000D02*
X158960000Y-73920000D01*
X150669900Y-68010000D02*
X153050000Y-68010000D01*
X148598600Y-65938700D02*
X150669900Y-68010000D01*
X148598600Y-63557500D02*
X148598600Y-65938700D01*
X140663400Y-55622300D02*
X148598600Y-63557500D01*
X132834600Y-55622300D02*
X140663400Y-55622300D01*
X131964200Y-54751900D02*
X132834600Y-55622300D01*
X131964200Y-50852800D02*
X131964200Y-54751900D01*
X140412100Y-42404900D02*
X131964200Y-50852800D01*
X140412100Y-41552300D02*
X140412100Y-42404900D01*
%TO.N,~{AO}*%
X233904800Y-120565000D02*
X234233200Y-120565000D01*
X232419700Y-119079900D02*
X233904800Y-120565000D01*
X232419700Y-100757000D02*
X232419700Y-119079900D01*
X217767300Y-86104600D02*
X232419700Y-100757000D01*
X217767300Y-76340600D02*
X217767300Y-86104600D01*
X217255500Y-75828800D02*
X217767300Y-76340600D01*
X217255500Y-71732400D02*
X217255500Y-75828800D01*
X215932100Y-70409000D02*
X217255500Y-71732400D01*
X214243800Y-70409000D02*
X215932100Y-70409000D01*
X208497100Y-64662300D02*
X214243800Y-70409000D01*
%TO.N,~{AI}*%
X190300500Y-56286100D02*
X190300500Y-55992600D01*
X192384800Y-58370400D02*
X190300500Y-56286100D01*
X202317100Y-58370400D02*
X192384800Y-58370400D01*
X203626500Y-57061000D02*
X202317100Y-58370400D01*
X215212500Y-57061000D02*
X203626500Y-57061000D01*
X219681300Y-61529800D02*
X215212500Y-57061000D01*
X226907800Y-61529800D02*
X219681300Y-61529800D01*
X228266500Y-62888500D02*
X226907800Y-61529800D01*
%TO.N,~{II}*%
X161140000Y-55420000D02*
X163680000Y-55420000D01*
X200542100Y-43327300D02*
X205197100Y-38672300D01*
X173815900Y-43327300D02*
X200542100Y-43327300D01*
X172380000Y-44763200D02*
X173815900Y-43327300D01*
X172380000Y-45453600D02*
X172380000Y-44763200D01*
X170952100Y-46881500D02*
X172380000Y-45453600D01*
X169804000Y-46881500D02*
X170952100Y-46881500D01*
X163680000Y-53005500D02*
X169804000Y-46881500D01*
X163680000Y-55420000D02*
X163680000Y-53005500D01*
X232819800Y-108991600D02*
X234233200Y-110405000D01*
X232819800Y-97979200D02*
X232819800Y-108991600D01*
X222062200Y-87221600D02*
X232819800Y-97979200D01*
X221280800Y-87221600D02*
X222062200Y-87221600D01*
X218384800Y-84325600D02*
X221280800Y-87221600D01*
%TO.N,~{IO}*%
X226613200Y-117096800D02*
X226613200Y-118025000D01*
X223595300Y-114078900D02*
X226613200Y-117096800D01*
X221184100Y-114078900D02*
X223595300Y-114078900D01*
X216418800Y-109313600D02*
X221184100Y-114078900D01*
X215480700Y-109313600D02*
X216418800Y-109313600D01*
X214268500Y-108101400D02*
X215480700Y-109313600D01*
X214268500Y-107677100D02*
X214268500Y-108101400D01*
X212864300Y-106272900D02*
X214268500Y-107677100D01*
X211031200Y-106272900D02*
X212864300Y-106272900D01*
X202558400Y-97800100D02*
X211031200Y-106272900D01*
X190527200Y-97800100D02*
X202558400Y-97800100D01*
X189599900Y-96872800D02*
X190527200Y-97800100D01*
X189599900Y-95822500D02*
X189599900Y-96872800D01*
X173858600Y-80081200D02*
X189599900Y-95822500D01*
X173858600Y-79044000D02*
X173858600Y-80081200D01*
X172347100Y-77532500D02*
X173858600Y-79044000D01*
X171384300Y-77532500D02*
X172347100Y-77532500D01*
X168047100Y-74195300D02*
X171384300Y-77532500D01*
X168047100Y-73904300D02*
X168047100Y-74195300D01*
X162770100Y-68627300D02*
X168047100Y-73904300D01*
X162770100Y-66187400D02*
X162770100Y-68627300D01*
X161161300Y-64578600D02*
X162770100Y-66187400D01*
X161049000Y-64578600D02*
X161161300Y-64578600D01*
X159959200Y-63488800D02*
X161049000Y-64578600D01*
X159959200Y-54934000D02*
X159959200Y-63488800D01*
X161859200Y-53034000D02*
X159959200Y-54934000D01*
X162722600Y-53034000D02*
X161859200Y-53034000D01*
X170646600Y-45110000D02*
X162722600Y-53034000D01*
X171110000Y-45110000D02*
X170646600Y-45110000D01*
%TO.N,Net-(U51-I1c)*%
X200795800Y-124496000D02*
X200627000Y-124664800D01*
X208346300Y-124496000D02*
X200795800Y-124496000D01*
X208746500Y-124095800D02*
X208346300Y-124496000D01*
X220732600Y-124095800D02*
X208746500Y-124095800D01*
X221292300Y-123536100D02*
X220732600Y-124095800D01*
X227840900Y-123536100D02*
X221292300Y-123536100D01*
X231100500Y-126795700D02*
X227840900Y-123536100D01*
X237641000Y-126795700D02*
X231100500Y-126795700D01*
X241246100Y-130400800D02*
X237641000Y-126795700D01*
X247925600Y-130400800D02*
X241246100Y-130400800D01*
X249317100Y-131792300D02*
X247925600Y-130400800D01*
%TO.N,Net-(U26-Pad6)*%
X73047400Y-73672600D02*
X74000000Y-72720000D01*
X73047400Y-75692000D02*
X73047400Y-73672600D01*
X73610300Y-76254900D02*
X73047400Y-75692000D01*
X98563900Y-76254900D02*
X73610300Y-76254900D01*
X98688900Y-76129900D02*
X98563900Y-76254900D01*
X125630000Y-76129900D02*
X98688900Y-76129900D01*
X132754900Y-83254800D02*
X125630000Y-76129900D01*
X133054400Y-83254800D02*
X132754900Y-83254800D01*
X203032400Y-118025000D02*
X205461600Y-118025000D01*
X186745200Y-101737800D02*
X203032400Y-118025000D01*
X181248700Y-101737800D02*
X186745200Y-101737800D01*
X180823600Y-101312700D02*
X181248700Y-101737800D01*
X169337700Y-101312700D02*
X180823600Y-101312700D01*
X168538500Y-100513500D02*
X169337700Y-101312700D01*
X158173500Y-100513500D02*
X168538500Y-100513500D01*
X157773400Y-100113400D02*
X158173500Y-100513500D01*
X154450800Y-100113400D02*
X157773400Y-100113400D01*
X145402900Y-91065500D02*
X154450800Y-100113400D01*
X143266800Y-91065500D02*
X145402900Y-91065500D01*
X141971600Y-89770300D02*
X143266800Y-91065500D01*
X141971600Y-88776900D02*
X141971600Y-89770300D01*
X139972300Y-86777600D02*
X141971600Y-88776900D01*
X139972300Y-86629800D02*
X139972300Y-86777600D01*
X135075600Y-81733100D02*
X139972300Y-86629800D01*
X134927800Y-81733100D02*
X135075600Y-81733100D01*
%TO.N,Net-(U42-O5)*%
X152685600Y-101319800D02*
X152685600Y-101064600D01*
X149248500Y-104756900D02*
X152685600Y-101319800D01*
X119088500Y-104756900D02*
X149248500Y-104756900D01*
X118288300Y-105557100D02*
X119088500Y-104756900D01*
X89168800Y-105557100D02*
X118288300Y-105557100D01*
X88751900Y-105140200D02*
X89168800Y-105557100D01*
X82540200Y-105140200D02*
X88751900Y-105140200D01*
X81740000Y-104340000D02*
X82540200Y-105140200D01*
X153759100Y-98053800D02*
X153499500Y-98313400D01*
X165354700Y-98053800D02*
X153759100Y-98053800D01*
X166113100Y-98812200D02*
X165354700Y-98053800D01*
X187214300Y-98812200D02*
X166113100Y-98812200D01*
X189544700Y-101142600D02*
X187214300Y-98812200D01*
X189544700Y-101425500D02*
X189544700Y-101142600D01*
X198006100Y-109886900D02*
X189544700Y-101425500D01*
X198904100Y-109886900D02*
X198006100Y-109886900D01*
%TO.N,~{CLR}*%
X184487600Y-73099800D02*
X177687800Y-66300000D01*
X188891000Y-73099800D02*
X184487600Y-73099800D01*
X193151400Y-77360200D02*
X188891000Y-73099800D01*
X193151400Y-82036500D02*
X193151400Y-77360200D01*
X208784100Y-97669200D02*
X193151400Y-82036500D01*
X176740000Y-66300000D02*
X177687800Y-66300000D01*
X152835400Y-134494300D02*
X158988500Y-128341200D01*
X152835400Y-134632300D02*
X152835400Y-134494300D01*
X151697100Y-134632300D02*
X152835400Y-134632300D01*
%TO.N,~{RO}*%
X132792100Y-39379800D02*
X132792100Y-39012300D01*
X133787200Y-40374900D02*
X132792100Y-39379800D01*
X133787200Y-48429700D02*
X133787200Y-40374900D01*
X131564100Y-50652800D02*
X133787200Y-48429700D01*
X131564100Y-79218300D02*
X131564100Y-50652800D01*
X133224400Y-80878600D02*
X131564100Y-79218300D01*
X133224400Y-81444300D02*
X133224400Y-80878600D01*
X137861000Y-86080900D02*
X133224400Y-81444300D01*
X138291800Y-86080900D02*
X137861000Y-86080900D01*
X139172100Y-86961200D02*
X138291800Y-86080900D01*
X139172100Y-87392000D02*
X139172100Y-86961200D01*
X141171300Y-89391200D02*
X139172100Y-87392000D01*
X141171300Y-90101600D02*
X141171300Y-89391200D01*
X143110300Y-92040600D02*
X141171300Y-90101600D01*
X145036000Y-92040600D02*
X143110300Y-92040600D01*
X147938900Y-94943500D02*
X145036000Y-92040600D01*
X147938900Y-95194900D02*
X147938900Y-94943500D01*
X155600800Y-102856800D02*
X147938900Y-95194900D01*
X155845100Y-102856800D02*
X155600800Y-102856800D01*
X157886500Y-104898200D02*
X155845100Y-102856800D01*
X157886500Y-105647600D02*
X157886500Y-104898200D01*
X162715700Y-110476800D02*
X157886500Y-105647600D01*
X163368800Y-110476800D02*
X162715700Y-110476800D01*
X164584900Y-111692900D02*
X163368800Y-110476800D01*
X164584900Y-111709500D02*
X164584900Y-111692900D01*
X165551400Y-112676000D02*
X164584900Y-111709500D01*
X165776900Y-112676000D02*
X165551400Y-112676000D01*
X178386400Y-125285500D02*
X165776900Y-112676000D01*
X178386400Y-131724600D02*
X178386400Y-125285500D01*
X183893900Y-137232100D02*
X178386400Y-131724600D01*
X184853000Y-137232100D02*
X183893900Y-137232100D01*
X189899900Y-142279000D02*
X184853000Y-137232100D01*
X189899900Y-145899900D02*
X189899900Y-142279000D01*
X190300000Y-146300000D02*
X189899900Y-145899900D01*
%TO.N,Net-(U23-D0)*%
X189097600Y-94457400D02*
X188561800Y-93921600D01*
X203271300Y-94457400D02*
X189097600Y-94457400D01*
X211667000Y-102853100D02*
X203271300Y-94457400D01*
X217218200Y-102853100D02*
X211667000Y-102853100D01*
X223500100Y-109135000D02*
X217218200Y-102853100D01*
X223922900Y-109135000D02*
X223500100Y-109135000D01*
X226785000Y-111997100D02*
X223922900Y-109135000D01*
X227738900Y-111997100D02*
X226785000Y-111997100D01*
X229169700Y-113427900D02*
X227738900Y-111997100D01*
%TO.N,Net-(U24-Zd)*%
X230682400Y-128207300D02*
X235147100Y-128207300D01*
X229573500Y-127098400D02*
X230682400Y-128207300D01*
X218817500Y-127098400D02*
X229573500Y-127098400D01*
X213908600Y-132007300D02*
X218817500Y-127098400D01*
X211725100Y-132007300D02*
X213908600Y-132007300D01*
X206645100Y-137087300D02*
X211725100Y-132007300D01*
X205146000Y-137087300D02*
X206645100Y-137087300D01*
X204240200Y-137993100D02*
X205146000Y-137087300D01*
%TO.N,Net-(U21-D2)*%
X249080500Y-147031500D02*
X250902000Y-145210000D01*
X236377900Y-147031500D02*
X249080500Y-147031500D01*
X215964800Y-167444600D02*
X236377900Y-147031500D01*
X214706000Y-167444600D02*
X215964800Y-167444600D01*
X210965700Y-163704300D02*
X214706000Y-167444600D01*
X183188600Y-163704300D02*
X210965700Y-163704300D01*
X181280200Y-161795900D02*
X183188600Y-163704300D01*
X181280200Y-158894800D02*
X181280200Y-161795900D01*
X175401200Y-153015800D02*
X181280200Y-158894800D01*
%TO.N,Net-(U24-Zc)*%
X212895000Y-134547300D02*
X211516000Y-135926300D01*
X220162000Y-134547300D02*
X212895000Y-134547300D01*
X221389600Y-133319700D02*
X220162000Y-134547300D01*
X223521000Y-133319700D02*
X221389600Y-133319700D01*
X224617000Y-134415700D02*
X223521000Y-133319700D01*
X237641100Y-134415700D02*
X224617000Y-134415700D01*
X238660500Y-135435100D02*
X237641100Y-134415700D01*
X250858700Y-135435100D02*
X238660500Y-135435100D01*
X251613800Y-134680000D02*
X250858700Y-135435100D01*
X259480000Y-134680000D02*
X251613800Y-134680000D01*
X260750000Y-133410000D02*
X259480000Y-134680000D01*
%TO.N,Net-(U21-D1)*%
X230860800Y-124563300D02*
X230470900Y-124953200D01*
X237177900Y-124563300D02*
X230860800Y-124563300D01*
X240596900Y-127982300D02*
X237177900Y-124563300D01*
X246491500Y-127982300D02*
X240596900Y-127982300D01*
X248861900Y-130352700D02*
X246491500Y-127982300D01*
X250072700Y-130352700D02*
X248861900Y-130352700D01*
X253130000Y-133410000D02*
X250072700Y-130352700D01*
X186603100Y-106655100D02*
X201324800Y-121376800D01*
X173372900Y-106655100D02*
X186603100Y-106655100D01*
X169232800Y-102515000D02*
X173372900Y-106655100D01*
%TO.N,Net-(U24-Zb)*%
X188918700Y-134377500D02*
X188317500Y-133776300D01*
X192530600Y-134377500D02*
X188918700Y-134377500D01*
X193603400Y-133304700D02*
X192530600Y-134377500D01*
X201015600Y-133304700D02*
X193603400Y-133304700D01*
%TO.N,Net-(U51-Zc)*%
X230006400Y-132187200D02*
X229514200Y-131695000D01*
X238186400Y-132187200D02*
X230006400Y-132187200D01*
X239203000Y-133203800D02*
X238186400Y-132187200D01*
X248188600Y-133203800D02*
X239203000Y-133203800D01*
X249317100Y-134332300D02*
X248188600Y-133203800D01*
%TO.N,BUS_7*%
X309340000Y-98000000D02*
X305790000Y-101550000D01*
X312005900Y-98000000D02*
X309340000Y-98000000D01*
X316070100Y-93935800D02*
X312005900Y-98000000D01*
X316070100Y-93660000D02*
X316070100Y-93935800D01*
X317023100Y-92707000D02*
X316070100Y-93660000D01*
X318163000Y-92707000D02*
X317023100Y-92707000D01*
X319570000Y-91300000D02*
X318163000Y-92707000D01*
X189999600Y-75584800D02*
X189007100Y-74592300D01*
X189999600Y-77491100D02*
X189999600Y-75584800D01*
X189400100Y-78090600D02*
X189999600Y-77491100D01*
X182186400Y-78090600D02*
X189400100Y-78090600D01*
X177981100Y-73885300D02*
X182186400Y-78090600D01*
X177981100Y-73803200D02*
X177981100Y-73885300D01*
X176071200Y-71893300D02*
X177981100Y-73803200D01*
X175901800Y-71893300D02*
X176071200Y-71893300D01*
X170390000Y-66381500D02*
X175901800Y-71893300D01*
X170390000Y-64670000D02*
X170390000Y-66381500D01*
X168760000Y-63040000D02*
X170390000Y-64670000D01*
X203310600Y-133403800D02*
X205977100Y-130737300D01*
X202001600Y-133403800D02*
X203310600Y-133403800D01*
X196424200Y-138981200D02*
X202001600Y-133403800D01*
X196424200Y-142715800D02*
X196424200Y-138981200D01*
X192840000Y-146300000D02*
X196424200Y-142715800D01*
X142282600Y-88237900D02*
X142190600Y-88145900D01*
X161021200Y-88237900D02*
X142282600Y-88237900D01*
X162759900Y-86499200D02*
X161021200Y-88237900D01*
X209880900Y-63506100D02*
X211037100Y-64662300D01*
X204389000Y-63506100D02*
X209880900Y-63506100D01*
X199330600Y-68564500D02*
X204389000Y-63506100D01*
X193245100Y-68564500D02*
X199330600Y-68564500D01*
X190919900Y-70889700D02*
X193245100Y-68564500D01*
X168320000Y-148715200D02*
X159317100Y-139712300D01*
X192163900Y-148715200D02*
X168320000Y-148715200D01*
X192238800Y-148790100D02*
X192163900Y-148715200D01*
X256226000Y-92383400D02*
X257817100Y-90792300D01*
X252133300Y-92383400D02*
X256226000Y-92383400D01*
X250232400Y-90482500D02*
X252133300Y-92383400D01*
X250232400Y-90411800D02*
X250232400Y-90482500D01*
X240515000Y-80694400D02*
X250232400Y-90411800D01*
X238731500Y-80694400D02*
X240515000Y-80694400D01*
X232379400Y-74342300D02*
X238731500Y-80694400D01*
X226707300Y-74342300D02*
X232379400Y-74342300D01*
X225007100Y-72642100D02*
X226707300Y-74342300D01*
X225007100Y-71893000D02*
X225007100Y-72642100D01*
X221385100Y-68271000D02*
X225007100Y-71893000D01*
X213938600Y-68271000D02*
X221385100Y-68271000D01*
X211037100Y-65369500D02*
X213938600Y-68271000D01*
X211037100Y-64662300D02*
X211037100Y-65369500D01*
X75560000Y-86801500D02*
X75106800Y-87254700D01*
X90736700Y-86801500D02*
X75560000Y-86801500D01*
X92655000Y-84883200D02*
X90736700Y-86801500D01*
X134117100Y-84883200D02*
X92655000Y-84883200D01*
X138284900Y-89051000D02*
X134117100Y-84883200D01*
X138850700Y-89051000D02*
X138284900Y-89051000D01*
%TO.N,~{MI}*%
X133026500Y-33932300D02*
X132792100Y-33932300D01*
X134374900Y-32583900D02*
X133026500Y-33932300D01*
X196439700Y-32583900D02*
X134374900Y-32583900D01*
X196858600Y-33002800D02*
X196439700Y-32583900D01*
X237771300Y-33002800D02*
X196858600Y-33002800D01*
X237945700Y-32828400D02*
X237771300Y-33002800D01*
X238442800Y-32828400D02*
X237945700Y-32828400D01*
X242522400Y-36908000D02*
X238442800Y-32828400D01*
X252052000Y-36908000D02*
X242522400Y-36908000D01*
X252396900Y-36563100D02*
X252052000Y-36908000D01*
X265335400Y-36563100D02*
X252396900Y-36563100D01*
X265817900Y-37045600D02*
X265335400Y-36563100D01*
X275245600Y-37045600D02*
X265817900Y-37045600D01*
X276620000Y-38420000D02*
X275245600Y-37045600D01*
%TO.N,BUS_6*%
X309639000Y-95161000D02*
X303250000Y-101550000D01*
X311487200Y-95161000D02*
X309639000Y-95161000D01*
X313941200Y-92707000D02*
X311487200Y-95161000D01*
X315623000Y-92707000D02*
X313941200Y-92707000D01*
X317030000Y-91300000D02*
X315623000Y-92707000D01*
X190002200Y-71057200D02*
X189007100Y-72052300D01*
X190002200Y-69087500D02*
X190002200Y-71057200D01*
X203311100Y-141023300D02*
X205977100Y-138357300D01*
X200785500Y-141023300D02*
X203311100Y-141023300D01*
X195508800Y-146300000D02*
X200785500Y-141023300D01*
X195380000Y-146300000D02*
X195508800Y-146300000D01*
X163482200Y-24673700D02*
X163680200Y-24871700D01*
X120029800Y-24673700D02*
X163482200Y-24673700D01*
X111532900Y-33170600D02*
X120029800Y-24673700D01*
X86764500Y-33170600D02*
X111532900Y-33170600D01*
X85192800Y-34742300D02*
X86764500Y-33170600D01*
X82194300Y-34742300D02*
X85192800Y-34742300D01*
X79783000Y-37153600D02*
X82194300Y-34742300D01*
X76384700Y-37153600D02*
X79783000Y-37153600D01*
X72509000Y-41029300D02*
X76384700Y-37153600D01*
X72509000Y-60101000D02*
X72509000Y-41029300D01*
X58500000Y-74110000D02*
X72509000Y-60101000D01*
X180523200Y-149390400D02*
X180448100Y-149315300D01*
X194861600Y-149390400D02*
X180523200Y-149390400D01*
X195380000Y-148872000D02*
X194861600Y-149390400D01*
X166380100Y-149315300D02*
X159317100Y-142252300D01*
X180448100Y-149315300D02*
X166380100Y-149315300D01*
X215692000Y-66777200D02*
X213577100Y-64662300D01*
X227426600Y-66777200D02*
X215692000Y-66777200D01*
X232568600Y-71919200D02*
X227426600Y-66777200D01*
X232568600Y-72199000D02*
X232568600Y-71919200D01*
X238309700Y-77940100D02*
X232568600Y-72199000D01*
X239167900Y-77940100D02*
X238309700Y-77940100D01*
X250829200Y-89601400D02*
X239167900Y-77940100D01*
X250829200Y-90513500D02*
X250829200Y-89601400D01*
X252299000Y-91983300D02*
X250829200Y-90513500D01*
X255700400Y-91983300D02*
X252299000Y-91983300D01*
X256547100Y-91136600D02*
X255700400Y-91983300D01*
X256547100Y-90445200D02*
X256547100Y-91136600D01*
X257373200Y-89619100D02*
X256547100Y-90445200D01*
X259183900Y-89619100D02*
X257373200Y-89619100D01*
X260357100Y-90792300D02*
X259183900Y-89619100D01*
X191169500Y-67920200D02*
X190002200Y-69087500D01*
X199374900Y-67920200D02*
X191169500Y-67920200D01*
X204189100Y-63106000D02*
X199374900Y-67920200D01*
X210172300Y-63106000D02*
X204189100Y-63106000D01*
X210572400Y-62705900D02*
X210172300Y-63106000D01*
X211620700Y-62705900D02*
X210572400Y-62705900D01*
X213577100Y-64662300D02*
X211620700Y-62705900D01*
X170979800Y-58280200D02*
X171852900Y-58280200D01*
X166220000Y-63040000D02*
X170979800Y-58280200D01*
X171852900Y-58181100D02*
X171852900Y-58280200D01*
X172445700Y-57588300D02*
X171852900Y-58181100D01*
X172445700Y-48854300D02*
X172445700Y-57588300D01*
X176190000Y-45110000D02*
X172445700Y-48854300D01*
X188944300Y-68029600D02*
X190002200Y-69087500D01*
X188607400Y-68029600D02*
X188944300Y-68029600D01*
X184859800Y-64282000D02*
X188607400Y-68029600D01*
X181052900Y-64282000D02*
X184859800Y-64282000D01*
X180190000Y-63419100D02*
X181052900Y-64282000D01*
X180190000Y-62659900D02*
X180190000Y-63419100D01*
X179047400Y-61517300D02*
X180190000Y-62659900D01*
X175090000Y-61517300D02*
X179047400Y-61517300D01*
X171852900Y-58280200D02*
X175090000Y-61517300D01*
X285087100Y-94115500D02*
X291304400Y-100332800D01*
X278984600Y-94115500D02*
X285087100Y-94115500D01*
X278000100Y-93131000D02*
X278984600Y-94115500D01*
X268659500Y-93131000D02*
X278000100Y-93131000D01*
X267784600Y-92256100D02*
X268659500Y-93131000D01*
%TO.N,BUS_4*%
X180098200Y-43938200D02*
X181270000Y-45110000D01*
X175705700Y-43938200D02*
X180098200Y-43938200D01*
X174920000Y-44723900D02*
X175705700Y-43938200D01*
X174920000Y-45449900D02*
X174920000Y-44723900D01*
X172956600Y-47413300D02*
X174920000Y-45449900D01*
X171293300Y-47413300D02*
X172956600Y-47413300D01*
X170000000Y-48706600D02*
X171293300Y-47413300D01*
X170000000Y-49400000D02*
X170000000Y-48706600D01*
X167808400Y-51591600D02*
X170000000Y-49400000D01*
X167530600Y-51591600D02*
X167808400Y-51591600D01*
X164950000Y-54172200D02*
X167530600Y-51591600D01*
X164950000Y-59230000D02*
X164950000Y-54172200D01*
X161140000Y-63040000D02*
X164950000Y-59230000D01*
X199507400Y-149152200D02*
X200460000Y-149152200D01*
X196247300Y-152412300D02*
X199507400Y-149152200D01*
X159317100Y-152412300D02*
X196247300Y-152412300D01*
X311980400Y-95561100D02*
X312817400Y-94724100D01*
X310159100Y-95561100D02*
X311980400Y-95561100D01*
X304520100Y-101200100D02*
X310159100Y-95561100D01*
X304520100Y-101686900D02*
X304520100Y-101200100D01*
X303670000Y-102537000D02*
X304520100Y-101686900D01*
X299157000Y-102537000D02*
X303670000Y-102537000D01*
X298170000Y-101550000D02*
X299157000Y-102537000D01*
X74481700Y-155402300D02*
X63427300Y-144347900D01*
X112428200Y-155402300D02*
X74481700Y-155402300D01*
X113145300Y-156119400D02*
X112428200Y-155402300D01*
X159830000Y-156119400D02*
X113145300Y-156119400D01*
X160468800Y-155480600D02*
X159830000Y-156119400D01*
X160468800Y-153564000D02*
X160468800Y-155480600D01*
X159317100Y-152412300D02*
X160468800Y-153564000D01*
X263384700Y-92844700D02*
X265437100Y-90792300D01*
X242193700Y-92844700D02*
X263384700Y-92844700D01*
X235258800Y-85909800D02*
X242193700Y-92844700D01*
X235258800Y-80674600D02*
X235258800Y-85909800D01*
X229537500Y-74953300D02*
X235258800Y-80674600D01*
X224427000Y-74953300D02*
X229537500Y-74953300D01*
X192873500Y-63105900D02*
X189007100Y-66972300D01*
X203457700Y-63105900D02*
X192873500Y-63105900D01*
X203857700Y-62705900D02*
X203457700Y-63105900D01*
X210006500Y-62705900D02*
X203857700Y-62705900D01*
X210406600Y-62305800D02*
X210006500Y-62705900D01*
X212848700Y-62305800D02*
X210406600Y-62305800D01*
X214847100Y-64304200D02*
X212848700Y-62305800D01*
X214847100Y-65019300D02*
X214847100Y-64304200D01*
X215631900Y-65804100D02*
X214847100Y-65019300D01*
X217515300Y-65804100D02*
X215631900Y-65804100D01*
X218657100Y-64662300D02*
X217515300Y-65804100D01*
X294328700Y-101420600D02*
X297822500Y-97926800D01*
X294328700Y-101794000D02*
X294328700Y-101420600D01*
X293190000Y-102932700D02*
X294328700Y-101794000D01*
X293190000Y-105512400D02*
X293190000Y-102932700D01*
X292417200Y-106285200D02*
X293190000Y-105512400D01*
X291452500Y-106285200D02*
X292417200Y-106285200D01*
X290650000Y-105482700D02*
X291452500Y-106285200D01*
X290650000Y-104858400D02*
X290650000Y-105482700D01*
X289248900Y-103457300D02*
X290650000Y-104858400D01*
X287760600Y-103457300D02*
X289248900Y-103457300D01*
X277834400Y-93531100D02*
X287760600Y-103457300D01*
X268175900Y-93531100D02*
X277834400Y-93531100D01*
X265437100Y-90792300D02*
X268175900Y-93531100D01*
X204879300Y-142167300D02*
X208851300Y-142167300D01*
X200746600Y-146300000D02*
X204879300Y-142167300D01*
X200460000Y-146300000D02*
X200746600Y-146300000D01*
X212327100Y-142167300D02*
X213597100Y-140897300D01*
X208851300Y-142167300D02*
X212327100Y-142167300D01*
%TO.N,/MAR/PROG*%
X223859300Y-33428500D02*
X220747800Y-36540000D01*
X238194200Y-33428500D02*
X223859300Y-33428500D01*
X219800000Y-36540000D02*
X220747800Y-36540000D01*
X231141000Y-127402100D02*
X232701500Y-127402100D01*
X227675100Y-123936200D02*
X231141000Y-127402100D01*
X221458000Y-123936200D02*
X227675100Y-123936200D01*
X220898200Y-124496000D02*
X221458000Y-123936200D01*
X212897100Y-124496000D02*
X220898200Y-124496000D01*
X211735800Y-125657300D02*
X212897100Y-124496000D01*
X205977100Y-125657300D02*
X211735800Y-125657300D01*
X205616000Y-125296200D02*
X205977100Y-125657300D01*
X199583700Y-125296200D02*
X205616000Y-125296200D01*
X198243500Y-123956000D02*
X199583700Y-125296200D01*
X187241800Y-123956000D02*
X198243500Y-123956000D01*
X244176900Y-25621800D02*
X262366700Y-25621800D01*
X242430100Y-23875000D02*
X244176900Y-25621800D01*
X242430100Y-23500000D02*
X242430100Y-23875000D01*
X241230000Y-23500000D02*
X242430100Y-23500000D01*
%TO.N,~{EO}*%
X254467300Y-90792300D02*
X255277100Y-90792300D01*
X241146300Y-77471300D02*
X254467300Y-90792300D01*
X241146300Y-74855100D02*
X241146300Y-77471300D01*
X239195100Y-72903900D02*
X241146300Y-74855100D01*
X238881400Y-72903900D02*
X239195100Y-72903900D01*
X229266700Y-63289200D02*
X238881400Y-72903900D01*
X229266700Y-62474100D02*
X229266700Y-63289200D01*
X226781900Y-59989300D02*
X229266700Y-62474100D01*
X225083700Y-59989300D02*
X226781900Y-59989300D01*
X220098100Y-55003700D02*
X225083700Y-59989300D01*
X220098100Y-54715300D02*
X220098100Y-55003700D01*
X212701300Y-47318500D02*
X220098100Y-54715300D01*
X212423900Y-47318500D02*
X212701300Y-47318500D01*
X207035000Y-41929600D02*
X212423900Y-47318500D01*
X207035000Y-39161200D02*
X207035000Y-41929600D01*
X205587800Y-37714000D02*
X207035000Y-39161200D01*
X153290000Y-37714000D02*
X205587800Y-37714000D01*
X136651700Y-54352300D02*
X153290000Y-37714000D01*
X132912100Y-54352300D02*
X136651700Y-54352300D01*
%TO.N,Net-(U13-B3)*%
X286107300Y-49757300D02*
X284560000Y-48210000D01*
X286107300Y-61488500D02*
X286107300Y-49757300D01*
X285707200Y-61888600D02*
X286107300Y-61488500D01*
X285707200Y-67616100D02*
X285707200Y-61888600D01*
X290321100Y-72230000D02*
X285707200Y-67616100D01*
X290577600Y-72230000D02*
X290321100Y-72230000D01*
X291484000Y-73136400D02*
X290577600Y-72230000D01*
X291484000Y-73964700D02*
X291484000Y-73136400D01*
X290678700Y-74770000D02*
X291484000Y-73964700D01*
X290422500Y-74770000D02*
X290678700Y-74770000D01*
X289548800Y-75643700D02*
X290422500Y-74770000D01*
X289548800Y-77628800D02*
X289548800Y-75643700D01*
X290500000Y-78580000D02*
X289548800Y-77628800D01*
%TO.N,~{FI}*%
X272510000Y-59640000D02*
X273780000Y-60910000D01*
X264988100Y-59640000D02*
X272510000Y-59640000D01*
X262285600Y-56937500D02*
X264988100Y-59640000D01*
X233178500Y-56937500D02*
X262285600Y-56937500D01*
X230557300Y-54316300D02*
X233178500Y-56937500D01*
X230557300Y-54071300D02*
X230557300Y-54316300D01*
X213756100Y-37270100D02*
X230557300Y-54071300D01*
X146861200Y-37270100D02*
X213756100Y-37270100D01*
X144053200Y-40078100D02*
X146861200Y-37270100D01*
X134339000Y-40078100D02*
X144053200Y-40078100D01*
%TO.N,Net-(U12-D0)*%
X284560000Y-62470000D02*
X284560000Y-63450000D01*
X285707200Y-61322800D02*
X284560000Y-62470000D01*
X285707200Y-52807300D02*
X285707200Y-61322800D01*
X284795800Y-51895900D02*
X285707200Y-52807300D01*
X281383900Y-51895900D02*
X284795800Y-51895900D01*
%TO.N,Net-(D19-A)*%
X275480900Y-100836100D02*
X273057100Y-98412300D01*
X281400900Y-100836100D02*
X275480900Y-100836100D01*
X284417100Y-103852300D02*
X281400900Y-100836100D01*
%TO.N,Net-(U10-Pad2)*%
X299626500Y-47093500D02*
X298500000Y-48220000D01*
X299626500Y-44851000D02*
X299626500Y-47093500D01*
X298143600Y-43368100D02*
X299626500Y-44851000D01*
X283595000Y-43368100D02*
X298143600Y-43368100D01*
X278040200Y-48922900D02*
X283595000Y-43368100D01*
X278040200Y-53774300D02*
X278040200Y-48922900D01*
X277254500Y-54560000D02*
X278040200Y-53774300D01*
X276586300Y-54560000D02*
X277254500Y-54560000D01*
X275629300Y-55517000D02*
X276586300Y-54560000D01*
X275629300Y-61601700D02*
X275629300Y-55517000D01*
X275475300Y-61755700D02*
X275629300Y-61601700D01*
X275475300Y-63550600D02*
X275475300Y-61755700D01*
X268845900Y-70180000D02*
X275475300Y-63550600D01*
X266848400Y-70180000D02*
X268845900Y-70180000D01*
%TO.N,Net-(U10-Pad10)*%
X305554200Y-55840000D02*
X306120000Y-55840000D01*
X304284200Y-54570000D02*
X305554200Y-55840000D01*
X295022600Y-54570000D02*
X304284200Y-54570000D01*
X288820200Y-48367600D02*
X295022600Y-54570000D01*
X288820200Y-47754000D02*
X288820200Y-48367600D01*
X288152900Y-47086700D02*
X288820200Y-47754000D01*
X284118100Y-47086700D02*
X288152900Y-47086700D01*
X280783800Y-50421000D02*
X284118100Y-47086700D01*
X280783800Y-74024600D02*
X280783800Y-50421000D01*
X274468400Y-80340000D02*
X280783800Y-74024600D01*
%TO.N,Net-(U10-Pad1)*%
X272818100Y-71830300D02*
X266848400Y-77800000D01*
X272818100Y-70089100D02*
X272818100Y-71830300D01*
X278923000Y-63984200D02*
X272818100Y-70089100D01*
X278923000Y-48605900D02*
X278923000Y-63984200D01*
X283760700Y-43768200D02*
X278923000Y-48605900D01*
X296588200Y-43768200D02*
X283760700Y-43768200D01*
X298500000Y-45680000D02*
X296588200Y-43768200D01*
%TO.N,Net-(U10-Pad9)*%
X302703100Y-58380000D02*
X306120000Y-58380000D01*
X293936200Y-67146900D02*
X302703100Y-58380000D01*
X286307300Y-67146900D02*
X293936200Y-67146900D01*
%TO.N,Net-(U10-Pad4)*%
X303862800Y-53300000D02*
X298500000Y-53300000D01*
X305015400Y-54452600D02*
X303862800Y-53300000D01*
X306296800Y-54452600D02*
X305015400Y-54452600D01*
X307258200Y-55414000D02*
X306296800Y-54452600D01*
X307258200Y-59781800D02*
X307258200Y-55414000D01*
X306120000Y-60920000D02*
X307258200Y-59781800D01*
%TO.N,~{BI}*%
X317340000Y-101420000D02*
X314800000Y-101420000D01*
X314374800Y-101420000D02*
X314800000Y-101420000D01*
X303350000Y-112444800D02*
X314374800Y-101420000D01*
X303350000Y-113144000D02*
X303350000Y-112444800D01*
X300955900Y-115538100D02*
X303350000Y-113144000D01*
X293341200Y-115538100D02*
X300955900Y-115538100D01*
X136722100Y-63242300D02*
X132912100Y-59432300D01*
X142065700Y-63242300D02*
X136722100Y-63242300D01*
X149373400Y-70550000D02*
X142065700Y-63242300D01*
X153241400Y-70550000D02*
X149373400Y-70550000D01*
X156975000Y-74283600D02*
X153241400Y-70550000D01*
X157050900Y-74283600D02*
X156975000Y-74283600D01*
X161996100Y-79228800D02*
X157050900Y-74283600D01*
X161996100Y-79730000D02*
X161996100Y-79228800D01*
X175156300Y-92890200D02*
X161996100Y-79730000D01*
X182989700Y-92890200D02*
X175156300Y-92890200D01*
X190745000Y-100645500D02*
X182989700Y-92890200D01*
X190745000Y-100862500D02*
X190745000Y-100645500D01*
X192735700Y-102853200D02*
X190745000Y-100862500D01*
X193499700Y-102853200D02*
X192735700Y-102853200D01*
X202038500Y-111392000D02*
X193499700Y-102853200D01*
X217504400Y-111392000D02*
X202038500Y-111392000D01*
X222867400Y-116755000D02*
X217504400Y-111392000D01*
X223781400Y-116755000D02*
X222867400Y-116755000D01*
X226105700Y-119079300D02*
X223781400Y-116755000D01*
X231386200Y-119079300D02*
X226105700Y-119079300D01*
X233876700Y-121569800D02*
X231386200Y-119079300D01*
X235134600Y-121569800D02*
X233876700Y-121569800D01*
X241166300Y-115538100D02*
X235134600Y-121569800D01*
X293341200Y-115538100D02*
X241166300Y-115538100D01*
%TO.N,CLR*%
X172930000Y-64670000D02*
X171300000Y-63040000D01*
X172930000Y-68140000D02*
X172930000Y-64670000D01*
X178522700Y-73732700D02*
X172930000Y-68140000D01*
X178522700Y-73849800D02*
X178522700Y-73732700D01*
X181805200Y-77132300D02*
X178522700Y-73849800D01*
X189007100Y-77132300D02*
X181805200Y-77132300D01*
X199031300Y-51372300D02*
X205197100Y-51372300D01*
X192633300Y-57770300D02*
X199031300Y-51372300D01*
X236516500Y-77913500D02*
X237211200Y-77913500D01*
X226465100Y-67862100D02*
X236516500Y-77913500D01*
X214095500Y-67862100D02*
X226465100Y-67862100D01*
X212307100Y-66073700D02*
X214095500Y-67862100D01*
X212307100Y-64271000D02*
X212307100Y-66073700D01*
X211342100Y-63306000D02*
X212307100Y-64271000D01*
X210820800Y-63306000D02*
X211342100Y-63306000D01*
X271063100Y-48210000D02*
X273780000Y-48210000D01*
X269651600Y-49621500D02*
X271063100Y-48210000D01*
X244340300Y-49621500D02*
X269651600Y-49621500D01*
X242169400Y-51792400D02*
X244340300Y-49621500D01*
X290361600Y-25720000D02*
X304965300Y-40323700D01*
X276620000Y-25720000D02*
X290361600Y-25720000D01*
%TO.N,Net-(U52-Zb)*%
X254400000Y-132140000D02*
X253130000Y-130870000D01*
X261036800Y-132140000D02*
X254400000Y-132140000D01*
X261869500Y-132972700D02*
X261036800Y-132140000D01*
X261869500Y-136443700D02*
X261869500Y-132972700D01*
X261093200Y-137220000D02*
X261869500Y-136443700D01*
X258490400Y-137220000D02*
X261093200Y-137220000D01*
X255950400Y-139760000D02*
X258490400Y-137220000D01*
X252600000Y-139760000D02*
X255950400Y-139760000D01*
X251536200Y-140823800D02*
X252600000Y-139760000D01*
X239526900Y-140823800D02*
X251536200Y-140823800D01*
X233865300Y-146485400D02*
X239526900Y-140823800D01*
X212438400Y-146485400D02*
X233865300Y-146485400D01*
%TO.N,Net-(U21-D3)*%
X175525400Y-100512500D02*
X175313300Y-100300400D01*
X181255200Y-100512500D02*
X175525400Y-100512500D01*
X181680300Y-100937600D02*
X181255200Y-100512500D01*
X188208100Y-100937600D02*
X181680300Y-100937600D01*
X188744500Y-101474000D02*
X188208100Y-100937600D01*
X188744500Y-101756900D02*
X188744500Y-101474000D01*
X201202600Y-114215000D02*
X188744500Y-101756900D01*
X218252800Y-114215000D02*
X201202600Y-114215000D01*
X220247800Y-116210000D02*
X218252800Y-114215000D01*
%TO.N,Net-(U23-D2)*%
X202147700Y-119869300D02*
X186563400Y-104285000D01*
X203904100Y-119869300D02*
X202147700Y-119869300D01*
X203904100Y-119869400D02*
X203904100Y-119869300D01*
%TO.N,Net-(U21-D0)*%
X206797000Y-116755000D02*
X207583600Y-117541600D01*
X202328200Y-116755000D02*
X206797000Y-116755000D01*
X186910900Y-101337700D02*
X202328200Y-116755000D01*
X181414400Y-101337700D02*
X186910900Y-101337700D01*
X180989300Y-100912600D02*
X181414400Y-101337700D01*
X169603600Y-100912600D02*
X180989300Y-100912600D01*
X168483500Y-99792500D02*
X169603600Y-100912600D01*
X166797300Y-99792500D02*
X168483500Y-99792500D01*
%TO.N,Net-(U52-Zc)*%
X221703400Y-137236900D02*
X216983600Y-141956700D01*
X237922300Y-137236900D02*
X221703400Y-137236900D01*
X238660500Y-137975100D02*
X237922300Y-137236900D01*
X251104900Y-137975100D02*
X238660500Y-137975100D01*
X253130000Y-135950000D02*
X251104900Y-137975100D01*
%TO.N,~{CLK}*%
X95095600Y-75729800D02*
X87392900Y-68027100D01*
X126078500Y-75729800D02*
X95095600Y-75729800D01*
X129915200Y-79566500D02*
X126078500Y-75729800D01*
X237754200Y-123758900D02*
X228912500Y-123758900D01*
X239501500Y-125506200D02*
X237754200Y-123758900D01*
X245385200Y-125506200D02*
X239501500Y-125506200D01*
X247861300Y-127982300D02*
X245385200Y-125506200D01*
X250039300Y-127982300D02*
X247861300Y-127982300D01*
X251657000Y-129600000D02*
X250039300Y-127982300D01*
X259480000Y-129600000D02*
X251657000Y-129600000D01*
X260750000Y-130870000D02*
X259480000Y-129600000D01*
X227789000Y-119564300D02*
X228312500Y-120087800D01*
X221726200Y-119564300D02*
X227789000Y-119564300D01*
X219195200Y-122095300D02*
X221726200Y-119564300D01*
X207918000Y-122095300D02*
X219195200Y-122095300D01*
X207567800Y-122445500D02*
X207918000Y-122095300D01*
X199562000Y-122445500D02*
X207567800Y-122445500D01*
X191700100Y-114583600D02*
X199562000Y-122445500D01*
X179406900Y-114583600D02*
X191700100Y-114583600D01*
X172742500Y-107919200D02*
X179406900Y-114583600D01*
X172459300Y-107919200D02*
X172742500Y-107919200D01*
X167107100Y-102567000D02*
X172459300Y-107919200D01*
X159461000Y-102567000D02*
X167107100Y-102567000D01*
X157407500Y-100513500D02*
X159461000Y-102567000D01*
X154285000Y-100513500D02*
X157407500Y-100513500D01*
X145237100Y-91465600D02*
X154285000Y-100513500D01*
X143101100Y-91465600D02*
X145237100Y-91465600D01*
X141571400Y-89935900D02*
X143101100Y-91465600D01*
X141571400Y-89225600D02*
X141571400Y-89935900D01*
X139572200Y-87226400D02*
X141571400Y-89225600D01*
X139572200Y-86795500D02*
X139572200Y-87226400D01*
X138457500Y-85680800D02*
X139572200Y-86795500D01*
X138026600Y-85680800D02*
X138457500Y-85680800D01*
X133765700Y-81419900D02*
X138026600Y-85680800D01*
X133765700Y-80567400D02*
X133765700Y-81419900D01*
X132764800Y-79566500D02*
X133765700Y-80567400D01*
%TO.N,Net-(U24-Za)*%
X224963000Y-135827300D02*
X227527100Y-135827300D01*
X222855500Y-133719800D02*
X224963000Y-135827300D01*
X221755100Y-133719800D02*
X222855500Y-133719800D01*
X215769600Y-139705300D02*
X221755100Y-133719800D01*
X207712100Y-139705300D02*
X215769600Y-139705300D01*
X186200400Y-133277300D02*
X189868800Y-136945700D01*
X184417100Y-133277300D02*
X186200400Y-133277300D01*
%TO.N,Net-(U4-Pad10)*%
X270177800Y-131602200D02*
X260750000Y-141030000D01*
X275902200Y-131602200D02*
X270177800Y-131602200D01*
X279277100Y-128227300D02*
X275902200Y-131602200D01*
%TO.N,Net-(U4-Pad4)*%
X254400000Y-127060000D02*
X253130000Y-128330000D01*
X269343700Y-127060000D02*
X254400000Y-127060000D01*
X275467100Y-120936600D02*
X269343700Y-127060000D01*
X275467100Y-120298800D02*
X275467100Y-120936600D01*
X276308900Y-119457000D02*
X275467100Y-120298800D01*
X280666800Y-119457000D02*
X276308900Y-119457000D01*
X281817100Y-120607300D02*
X280666800Y-119457000D01*
%TO.N,Net-(U4-Pad6)*%
X304833400Y-144120000D02*
X312620000Y-144120000D01*
X290201700Y-129488300D02*
X304833400Y-144120000D01*
X286579500Y-129488300D02*
X290201700Y-129488300D01*
X285485600Y-128394400D02*
X286579500Y-129488300D01*
X285485600Y-127788900D02*
X285485600Y-128394400D01*
X283096900Y-125400200D02*
X285485600Y-127788900D01*
X281530000Y-125400200D02*
X283096900Y-125400200D01*
X276737100Y-120607300D02*
X281530000Y-125400200D01*
%TO.N,Net-(U4-Pad9)*%
X304963600Y-146660000D02*
X312620000Y-146660000D01*
X293715900Y-135412300D02*
X304963600Y-146660000D01*
X291371700Y-135412300D02*
X293715900Y-135412300D01*
X285286900Y-129327500D02*
X291371700Y-135412300D01*
X281295300Y-129327500D02*
X285286900Y-129327500D01*
X280547100Y-128579300D02*
X281295300Y-129327500D01*
X280547100Y-127920600D02*
X280547100Y-128579300D01*
X279748200Y-127121700D02*
X280547100Y-127920600D01*
X277842700Y-127121700D02*
X279748200Y-127121700D01*
X276737100Y-128227300D02*
X277842700Y-127121700D01*
%TO.N,Net-(U4-Pad3)*%
X304977300Y-133937300D02*
X312620000Y-141580000D01*
X297128200Y-133937300D02*
X304977300Y-133937300D01*
X288000000Y-124809100D02*
X297128200Y-133937300D01*
X288000000Y-124155900D02*
X288000000Y-124809100D01*
X284451400Y-120607300D02*
X288000000Y-124155900D01*
X284357100Y-120607300D02*
X284451400Y-120607300D01*
%TO.N,Net-(U3-Q)*%
X285326000Y-119036200D02*
X286897100Y-120607300D01*
X260306300Y-119036200D02*
X285326000Y-119036200D01*
X253552500Y-125790000D02*
X260306300Y-119036200D01*
X253130000Y-125790000D02*
X253552500Y-125790000D01*
%TO.N,Net-(SW7-B)*%
X119708000Y-128705100D02*
X118823200Y-128705100D01*
X120991200Y-129988300D02*
X119708000Y-128705100D01*
X126642100Y-129988300D02*
X120991200Y-129988300D01*
X128259900Y-128370500D02*
X126642100Y-129988300D01*
X134154900Y-128370500D02*
X128259900Y-128370500D01*
X134530800Y-127994600D02*
X134154900Y-128370500D01*
X137441800Y-127994600D02*
X134530800Y-127994600D01*
%TO.N,Net-(U51-I0c)*%
X242317100Y-145427300D02*
X248817100Y-145427300D01*
%TO.N,Net-(U24-I0c)*%
X186556800Y-130737300D02*
X192037100Y-130737300D01*
X185417100Y-129597600D02*
X186556800Y-130737300D01*
X183406400Y-129597600D02*
X185417100Y-129597600D01*
X180257200Y-132746800D02*
X183406400Y-129597600D01*
%TO.N,Net-(U24-I0d)*%
X186114200Y-140815100D02*
X186114200Y-140443000D01*
X184762000Y-142167300D02*
X186114200Y-140815100D01*
X178062100Y-142167300D02*
X184762000Y-142167300D01*
X176817100Y-143412300D02*
X178062100Y-142167300D01*
%TO.N,Net-(R64-Pad1)*%
X97750000Y-69750000D02*
X91250000Y-69750000D01*
X88052300Y-66552300D02*
X85912100Y-66552300D01*
X91250000Y-69750000D02*
X88052300Y-66552300D01*
X120964300Y-69750000D02*
X97750000Y-69750000D01*
X132424200Y-81209900D02*
X120964300Y-69750000D01*
X132424200Y-81775700D02*
X132424200Y-81209900D01*
X137589600Y-86941100D02*
X132424200Y-81775700D01*
X138020400Y-86941100D02*
X137589600Y-86941100D01*
X138371900Y-87292600D02*
X138020400Y-86941100D01*
X138371900Y-87723400D02*
X138371900Y-87292600D01*
X140371100Y-89722600D02*
X138371900Y-87723400D01*
X140371100Y-90433000D02*
X140371100Y-89722600D01*
X143179000Y-93240900D02*
X140371100Y-90433000D01*
X145387500Y-93240900D02*
X143179000Y-93240900D01*
X147338800Y-95192200D02*
X145387500Y-93240900D01*
X183715100Y-94181400D02*
X149367500Y-94181400D01*
X190344900Y-100811200D02*
X183715100Y-94181400D01*
X190344900Y-101028300D02*
X190344900Y-100811200D01*
X192569900Y-103253300D02*
X190344900Y-101028300D01*
X193334000Y-103253300D02*
X192569900Y-103253300D01*
X201153800Y-111073100D02*
X193334000Y-103253300D01*
X201153800Y-111364100D02*
X201153800Y-111073100D01*
%TO.N,Net-(U31-DIS)*%
X154322100Y-149221400D02*
X158032700Y-149221400D01*
X152388900Y-151154600D02*
X154322100Y-149221400D01*
X151314100Y-151154600D02*
X152388900Y-151154600D01*
X149060500Y-153408200D02*
X151314100Y-151154600D01*
X130380200Y-153408200D02*
X149060500Y-153408200D01*
X128734200Y-151762200D02*
X130380200Y-153408200D01*
%TO.N,Net-(U2-TR)*%
X289567100Y-135662300D02*
X283067100Y-135662300D01*
%TO.N,Net-(R2-Pad2)*%
X317205000Y-111500000D02*
X317165000Y-111540000D01*
X320775000Y-111500000D02*
X317205000Y-111500000D01*
%TO.N,Net-(U1-DIS)*%
X301015300Y-127024100D02*
X300627100Y-127412300D01*
X301015300Y-120213300D02*
X301015300Y-127024100D01*
X309545000Y-111683600D02*
X301015300Y-120213300D01*
X309545000Y-111540000D02*
X309545000Y-111683600D01*
%TO.N,Net-(D119-A)*%
X193284700Y-41635300D02*
X180079500Y-41635300D01*
X195000000Y-39920000D02*
X193284700Y-41635300D01*
%TO.N,Net-(D117-A)*%
X211519400Y-47286700D02*
X186845400Y-47286700D01*
%TO.N,Net-(D116-A)*%
X188890000Y-52730000D02*
X188890000Y-50102300D01*
X186622800Y-50102300D02*
X188890000Y-50102300D01*
X182430100Y-45909600D02*
X186622800Y-50102300D01*
X211547100Y-50102300D02*
X212817100Y-48832300D01*
X188890000Y-50102300D02*
X211547100Y-50102300D01*
%TO.N,IR_4*%
X107443200Y-48299400D02*
X108442600Y-47300000D01*
X90482000Y-48299400D02*
X107443200Y-48299400D01*
X89442600Y-47260000D02*
X90482000Y-48299400D01*
X167689200Y-30032800D02*
X169258600Y-31602200D01*
X123820000Y-30032800D02*
X167689200Y-30032800D01*
X109597500Y-44255300D02*
X123820000Y-30032800D01*
X109597500Y-46145100D02*
X109597500Y-44255300D01*
X108442600Y-47300000D02*
X109597500Y-46145100D01*
%TO.N,IR_5*%
X107443200Y-45759400D02*
X108442600Y-44760000D01*
X90482000Y-45759400D02*
X107443200Y-45759400D01*
X89442600Y-44720000D02*
X90482000Y-45759400D01*
X173809000Y-29582700D02*
X176200100Y-31973800D01*
X123619900Y-29582700D02*
X173809000Y-29582700D01*
X108442600Y-44760000D02*
X123619900Y-29582700D01*
%TO.N,IR_6*%
X90482000Y-43219400D02*
X89442600Y-42180000D01*
X107443200Y-43219400D02*
X90482000Y-43219400D01*
X108442600Y-42220000D02*
X107443200Y-43219400D01*
X122176300Y-33100700D02*
X113057000Y-42220000D01*
X128120600Y-33100700D02*
X122176300Y-33100700D01*
X128837400Y-32383900D02*
X128120600Y-33100700D01*
X133876400Y-32383900D02*
X128837400Y-32383900D01*
X135827400Y-30432900D02*
X133876400Y-32383900D01*
X163479100Y-30432900D02*
X135827400Y-30432900D01*
X165020000Y-31973800D02*
X163479100Y-30432900D01*
%TO.N,IR_7*%
X162822200Y-42702200D02*
X175051600Y-42702200D01*
X160040000Y-39920000D02*
X162822200Y-42702200D01*
X107443200Y-40679400D02*
X108442600Y-39680000D01*
X90482000Y-40679400D02*
X107443200Y-40679400D01*
X89442600Y-39640000D02*
X90482000Y-40679400D01*
X119164400Y-28958200D02*
X160040000Y-28958200D01*
X108442600Y-39680000D02*
X119164400Y-28958200D01*
%TO.N,Net-(D69-K)*%
X53674800Y-71650000D02*
X53667700Y-71657100D01*
X58500000Y-71650000D02*
X53674800Y-71650000D01*
%TO.N,Net-(D68-K)*%
X54174800Y-76650000D02*
X53667700Y-77157100D01*
X58500000Y-76650000D02*
X54174800Y-76650000D01*
%TO.N,Net-(D67-K)*%
X53700600Y-81690000D02*
X53667700Y-81657100D01*
X58500000Y-81690000D02*
X53700600Y-81690000D01*
%TO.N,Net-(D66-K)*%
X54160600Y-86650000D02*
X53667700Y-86157100D01*
X58500000Y-86650000D02*
X54160600Y-86650000D01*
%TO.N,BUS_3*%
X323690000Y-97610000D02*
X327500000Y-101420000D01*
X323690000Y-93729700D02*
X323690000Y-97610000D01*
X322812100Y-92851800D02*
X323690000Y-93729700D01*
X322013300Y-92851800D02*
X322812100Y-92851800D01*
X320931300Y-91769800D02*
X322013300Y-92851800D01*
X320931300Y-91009700D02*
X320931300Y-91769800D01*
X319628800Y-89707200D02*
X320931300Y-91009700D01*
X311002800Y-89707200D02*
X319628800Y-89707200D01*
X309410000Y-91300000D02*
X311002800Y-89707200D01*
X230715500Y-65800700D02*
X238947100Y-74032300D01*
X222335500Y-65800700D02*
X230715500Y-65800700D01*
X221197100Y-64662300D02*
X222335500Y-65800700D01*
X257371800Y-71578500D02*
X270967800Y-71578500D01*
X256498300Y-72452000D02*
X257371800Y-71578500D01*
X240790400Y-72452000D02*
X256498300Y-72452000D01*
X240658900Y-72320500D02*
X240790400Y-72452000D01*
X152967100Y-151142300D02*
X181247400Y-151142300D01*
X151697100Y-152412300D02*
X152967100Y-151142300D01*
X37120400Y-87879600D02*
X36000000Y-89000000D01*
X57229600Y-87879600D02*
X37120400Y-87879600D01*
X58500000Y-89150000D02*
X57229600Y-87879600D01*
X187532300Y-48832300D02*
X183810000Y-45110000D01*
X205197100Y-48832300D02*
X187532300Y-48832300D01*
X219648900Y-63114100D02*
X221197100Y-64662300D01*
X216088000Y-63114100D02*
X219648900Y-63114100D01*
X211635200Y-58661300D02*
X216088000Y-63114100D01*
X208757300Y-58661300D02*
X211635200Y-58661300D01*
X208460300Y-58364300D02*
X208757300Y-58661300D01*
X168076700Y-57016300D02*
X171815000Y-57016300D01*
X162500000Y-62593000D02*
X168076700Y-57016300D01*
X162500000Y-64760000D02*
X162500000Y-62593000D01*
X164040000Y-66300000D02*
X162500000Y-64760000D01*
X269915700Y-92730900D02*
X267977100Y-90792300D01*
X280651700Y-92730900D02*
X269915700Y-92730900D01*
X281004000Y-93083200D02*
X280651700Y-92730900D01*
X291614000Y-93083200D02*
X281004000Y-93083200D01*
X292187900Y-92509300D02*
X291614000Y-93083200D01*
X292187900Y-90421900D02*
X292187900Y-92509300D01*
X291425000Y-89659000D02*
X292187900Y-90421900D01*
X291127400Y-89659000D02*
X291425000Y-89659000D01*
X90524800Y-91267100D02*
X82898500Y-91267100D01*
X92059600Y-89732300D02*
X90524800Y-91267100D01*
X139531900Y-89732300D02*
X92059600Y-89732300D01*
X188997900Y-135318100D02*
X184417100Y-130737300D01*
X189089900Y-135318100D02*
X188997900Y-135318100D01*
X190500000Y-136728200D02*
X189089900Y-135318100D01*
X190500000Y-143979100D02*
X190500000Y-136728200D01*
X191570000Y-145049100D02*
X190500000Y-143979100D01*
X191570000Y-146662000D02*
X191570000Y-145049100D01*
X193037500Y-148129500D02*
X191570000Y-146662000D01*
X194708100Y-148129500D02*
X193037500Y-148129500D01*
X194965800Y-147871800D02*
X194708100Y-148129500D01*
X201428200Y-147871800D02*
X194965800Y-147871800D01*
X203000000Y-146300000D02*
X201428200Y-147871800D01*
%TO.N,Net-(D65-K)*%
X53580600Y-91690000D02*
X53547700Y-91657100D01*
X58500000Y-91690000D02*
X53580600Y-91690000D01*
%TO.N,BUS_2*%
X187532300Y-46292300D02*
X205197100Y-46292300D01*
X186350000Y-45110000D02*
X187532300Y-46292300D01*
X239787500Y-72332700D02*
X238947100Y-71492300D01*
X183303700Y-139470700D02*
X184417100Y-138357300D01*
X164566600Y-139470700D02*
X183303700Y-139470700D01*
X163645400Y-138549500D02*
X164566600Y-139470700D01*
X158860500Y-138549500D02*
X163645400Y-138549500D01*
X158144200Y-139265800D02*
X158860500Y-138549500D01*
X158144200Y-142694600D02*
X158144200Y-139265800D01*
X158971900Y-143522300D02*
X158144200Y-142694600D01*
X159657100Y-143522300D02*
X158971900Y-143522300D01*
X160510200Y-144375400D02*
X159657100Y-143522300D01*
X160510200Y-147837600D02*
X160510200Y-144375400D01*
X159745500Y-148602300D02*
X160510200Y-147837600D01*
X152967100Y-148602300D02*
X159745500Y-148602300D01*
X151697100Y-149872300D02*
X152967100Y-148602300D01*
X184877200Y-138357300D02*
X184417100Y-138357300D01*
X189030000Y-142510100D02*
X184877200Y-138357300D01*
X189030000Y-146662000D02*
X189030000Y-142510100D01*
X190558000Y-148190000D02*
X189030000Y-146662000D01*
X192487400Y-148190000D02*
X190558000Y-148190000D01*
X192827000Y-148529600D02*
X192487400Y-148190000D01*
X194873800Y-148529600D02*
X192827000Y-148529600D01*
X195131500Y-148271900D02*
X194873800Y-148529600D01*
X203568100Y-148271900D02*
X195131500Y-148271900D01*
X205540000Y-146300000D02*
X203568100Y-148271900D01*
X37149900Y-93007200D02*
X36000000Y-94157100D01*
X57357200Y-93007200D02*
X37149900Y-93007200D01*
X58500000Y-94150000D02*
X57357200Y-93007200D01*
X309264200Y-88905800D02*
X306870000Y-91300000D01*
X322311200Y-88905800D02*
X309264200Y-88905800D01*
X323384100Y-89978700D02*
X322311200Y-88905800D01*
X324938600Y-89978700D02*
X323384100Y-89978700D01*
X326230000Y-91270100D02*
X324938600Y-89978700D01*
X326230000Y-98654600D02*
X326230000Y-91270100D01*
X328458300Y-100882900D02*
X326230000Y-98654600D01*
X328458300Y-101846400D02*
X328458300Y-100882900D01*
X327872300Y-102432400D02*
X328458300Y-101846400D01*
X325972400Y-102432400D02*
X327872300Y-102432400D01*
X324960000Y-101420000D02*
X325972400Y-102432400D01*
X221546100Y-62471300D02*
X223737100Y-64662300D01*
X219289000Y-62471300D02*
X221546100Y-62471300D01*
X214878900Y-58061200D02*
X219289000Y-62471300D01*
X210919500Y-58061200D02*
X214878900Y-58061200D01*
X245606000Y-78151200D02*
X239787500Y-72332700D01*
X249374800Y-78151200D02*
X245606000Y-78151200D01*
X261627100Y-90403500D02*
X249374800Y-78151200D01*
X261627100Y-91195800D02*
X261627100Y-90403500D01*
X262380300Y-91949000D02*
X261627100Y-91195800D01*
X263396400Y-91949000D02*
X262380300Y-91949000D01*
X264167100Y-91178300D02*
X263396400Y-91949000D01*
X264167100Y-90435300D02*
X264167100Y-91178300D01*
X264956000Y-89646400D02*
X264167100Y-90435300D01*
X269371200Y-89646400D02*
X264956000Y-89646400D01*
X270517100Y-90792300D02*
X269371200Y-89646400D01*
X131790100Y-99563500D02*
X140221400Y-91132200D01*
X123150300Y-99563500D02*
X131790100Y-99563500D01*
X117956900Y-104756900D02*
X123150300Y-99563500D01*
X89642200Y-104756900D02*
X117956900Y-104756900D01*
X88625200Y-103739900D02*
X89642200Y-104756900D01*
X83079400Y-103739900D02*
X88625200Y-103739900D01*
X82324100Y-102984600D02*
X83079400Y-103739900D01*
X66179500Y-102984600D02*
X82324100Y-102984600D01*
X62815400Y-106348700D02*
X66179500Y-102984600D01*
X271708600Y-89600800D02*
X270517100Y-90792300D01*
X273545900Y-89600800D02*
X271708600Y-89600800D01*
X274327100Y-90382000D02*
X273545900Y-89600800D01*
X274327100Y-91197900D02*
X274327100Y-90382000D01*
X275059900Y-91930700D02*
X274327100Y-91197900D01*
X290327500Y-91930700D02*
X275059900Y-91930700D01*
X291587800Y-90670400D02*
X290327500Y-91930700D01*
X278021800Y-32201800D02*
X276620000Y-30800000D01*
X278021800Y-41640400D02*
X278021800Y-32201800D01*
X275303900Y-44358300D02*
X278021800Y-41640400D01*
X275303900Y-52419400D02*
X275303900Y-44358300D01*
X275229200Y-52494100D02*
X275303900Y-52419400D01*
X275229200Y-61088700D02*
X275229200Y-52494100D01*
X274307700Y-62010200D02*
X275229200Y-61088700D01*
X255268600Y-62010200D02*
X274307700Y-62010200D01*
X247378600Y-69900200D02*
X255268600Y-62010200D01*
X244763300Y-69900200D02*
X247378600Y-69900200D01*
X243519000Y-71144500D02*
X244763300Y-69900200D01*
X240975700Y-71144500D02*
X243519000Y-71144500D01*
X239787500Y-72332700D02*
X240975700Y-71144500D01*
%TO.N,Net-(D64-K)*%
X53700600Y-96690000D02*
X53667700Y-96657100D01*
X58500000Y-96690000D02*
X53700600Y-96690000D01*
%TO.N,BUS_1*%
X323883200Y-102883200D02*
X322420000Y-101420000D01*
X328006200Y-102883200D02*
X323883200Y-102883200D01*
X328886800Y-102002600D02*
X328006200Y-102883200D01*
X328886800Y-91574900D02*
X328886800Y-102002600D01*
X324880100Y-87568200D02*
X328886800Y-91574900D01*
X308061800Y-87568200D02*
X324880100Y-87568200D01*
X304330000Y-91300000D02*
X308061800Y-87568200D01*
X190247700Y-43752300D02*
X205197100Y-43752300D01*
X188890000Y-45110000D02*
X190247700Y-43752300D01*
X164440200Y-83022700D02*
X165531700Y-84114200D01*
X157453200Y-83022700D02*
X164440200Y-83022700D01*
X157097000Y-83378900D02*
X157453200Y-83022700D01*
X144571100Y-83378900D02*
X157097000Y-83378900D01*
X143430000Y-84520000D02*
X144571100Y-83378900D01*
X37120300Y-100620300D02*
X36000000Y-99500000D01*
X57029700Y-100620300D02*
X37120300Y-100620300D01*
X58500000Y-99150000D02*
X57029700Y-100620300D01*
X143430300Y-97529900D02*
X143540500Y-97640100D01*
X141135200Y-97529900D02*
X143430300Y-97529900D01*
X138595100Y-100070000D02*
X141135200Y-97529900D01*
X123209600Y-100070000D02*
X138595100Y-100070000D01*
X118122600Y-105157000D02*
X123209600Y-100070000D01*
X89334500Y-105157000D02*
X118122600Y-105157000D01*
X88917600Y-104740100D02*
X89334500Y-105157000D01*
X83513800Y-104740100D02*
X88917600Y-104740100D01*
X82158400Y-103384700D02*
X83513800Y-104740100D01*
X80605100Y-103384700D02*
X82158400Y-103384700D01*
X76136600Y-107853200D02*
X80605100Y-103384700D01*
X61473500Y-107853200D02*
X76136600Y-107853200D01*
X61386700Y-107766400D02*
X61473500Y-107853200D01*
X204418000Y-57461100D02*
X204194300Y-57684800D01*
X215046800Y-57461100D02*
X204418000Y-57461100D01*
X219515600Y-61929900D02*
X215046800Y-57461100D01*
X223544700Y-61929900D02*
X219515600Y-61929900D01*
X226277100Y-64662300D02*
X223544700Y-61929900D01*
X184272600Y-58906600D02*
X187699900Y-55479300D01*
X173327900Y-58906600D02*
X184272600Y-58906600D01*
X172673800Y-58252500D02*
X173327900Y-58906600D01*
X291227900Y-92330800D02*
X291359000Y-92461900D01*
X274595600Y-92330800D02*
X291227900Y-92330800D01*
X273057100Y-90792300D02*
X274595600Y-92330800D01*
X265335200Y-69917800D02*
X249371800Y-69917800D01*
X270281300Y-64971700D02*
X265335200Y-69917800D01*
X273205500Y-64971700D02*
X270281300Y-64971700D01*
X182850800Y-137062300D02*
X183282100Y-137493600D01*
X164698200Y-137062300D02*
X182850800Y-137062300D01*
X163659500Y-136023600D02*
X164698200Y-137062300D01*
X155021500Y-136023600D02*
X163659500Y-136023600D01*
X152954700Y-138090400D02*
X155021500Y-136023600D01*
%TO.N,Net-(D63-K)*%
X56832800Y-102157100D02*
X53667700Y-102157100D01*
X57299900Y-101690000D02*
X56832800Y-102157100D01*
X58500000Y-101690000D02*
X57299900Y-101690000D01*
%TO.N,BUS_0*%
X206192200Y-42207400D02*
X205197100Y-41212300D01*
X206192200Y-44108500D02*
X206192200Y-42207400D01*
X205190700Y-45110000D02*
X206192200Y-44108500D01*
X191430000Y-45110000D02*
X205190700Y-45110000D01*
X301697200Y-91300000D02*
X301790000Y-91300000D01*
X298468700Y-88071500D02*
X301697200Y-91300000D01*
X298468700Y-87743000D02*
X298468700Y-88071500D01*
X290858100Y-80132400D02*
X298468700Y-87743000D01*
X290131300Y-80132400D02*
X290858100Y-80132400D01*
X285159600Y-85104100D02*
X290131300Y-80132400D01*
X285159600Y-85290100D02*
X285159600Y-85104100D01*
X279657400Y-90792300D02*
X285159600Y-85290100D01*
X275597100Y-90792300D02*
X279657400Y-90792300D01*
X166254800Y-85898400D02*
X166767200Y-85386000D01*
X144591600Y-85898400D02*
X166254800Y-85898400D01*
X143430000Y-87060000D02*
X144591600Y-85898400D01*
X36980800Y-105100800D02*
X35880000Y-104000000D01*
X57549200Y-105100800D02*
X36980800Y-105100800D01*
X58500000Y-104150000D02*
X57549200Y-105100800D01*
X228866600Y-64612800D02*
X228817100Y-64662300D01*
X228866600Y-62639900D02*
X228866600Y-64612800D01*
X226639900Y-60413200D02*
X228866600Y-62639900D01*
X223754500Y-60413200D02*
X226639900Y-60413200D01*
X216125100Y-52783800D02*
X223754500Y-60413200D01*
X212746100Y-52783800D02*
X216125100Y-52783800D01*
X210837900Y-50875600D02*
X212746100Y-52783800D01*
X208053500Y-50875600D02*
X210837900Y-50875600D01*
X242555600Y-48578300D02*
X241363300Y-49770600D01*
X258914300Y-48578300D02*
X242555600Y-48578300D01*
X267582500Y-39910100D02*
X258914300Y-48578300D01*
X276504400Y-39910100D02*
X267582500Y-39910100D01*
X277571700Y-38842800D02*
X276504400Y-39910100D01*
X277571700Y-36831700D02*
X277571700Y-38842800D01*
X276620000Y-35880000D02*
X277571700Y-36831700D01*
X59700200Y-102949800D02*
X58500000Y-104150000D01*
X59700200Y-98645800D02*
X59700200Y-102949800D01*
X64506900Y-93839100D02*
X59700200Y-98645800D01*
X64506900Y-92921200D02*
X64506900Y-93839100D01*
X73017000Y-84411100D02*
X64506900Y-92921200D01*
X91073700Y-84411100D02*
X73017000Y-84411100D01*
X98954800Y-76530000D02*
X91073700Y-84411100D01*
X102172700Y-76530000D02*
X98954800Y-76530000D01*
X110125700Y-84483000D02*
X102172700Y-76530000D01*
X134282700Y-84483000D02*
X110125700Y-84483000D01*
X137340900Y-87541200D02*
X134282700Y-84483000D01*
X137771800Y-87541200D02*
X137340900Y-87541200D01*
%TO.N,Net-(D62-K)*%
X53700600Y-106690000D02*
X53667700Y-106657100D01*
X58500000Y-106690000D02*
X53700600Y-106690000D01*
%TO.N,Net-(D61-A)*%
X90482000Y-50839400D02*
X89442600Y-49800000D01*
X107443200Y-50839400D02*
X90482000Y-50839400D01*
X108442600Y-49840000D02*
X107443200Y-50839400D01*
X80222100Y-44902300D02*
X76412100Y-41092300D01*
X84544900Y-44902300D02*
X80222100Y-44902300D01*
X89442600Y-49800000D02*
X84544900Y-44902300D01*
X88564900Y-88667300D02*
X107443100Y-88667300D01*
X86862200Y-90370000D02*
X88564900Y-88667300D01*
X77930000Y-90370000D02*
X86862200Y-90370000D01*
X74120000Y-94180000D02*
X77930000Y-90370000D01*
X115347100Y-88667300D02*
X117462100Y-86552300D01*
X107443100Y-88667300D02*
X115347100Y-88667300D01*
%TO.N,Net-(D60-A)*%
X90482000Y-53379400D02*
X89442600Y-52340000D01*
X107443200Y-53379400D02*
X90482000Y-53379400D01*
X108442600Y-52380000D02*
X107443200Y-53379400D01*
X80222100Y-47442300D02*
X76412100Y-43632300D01*
X84544900Y-47442300D02*
X80222100Y-47442300D01*
X89442600Y-52340000D02*
X84544900Y-47442300D01*
X110202700Y-87801700D02*
X111452100Y-86552300D01*
X77958300Y-87801700D02*
X110202700Y-87801700D01*
X74120000Y-91640000D02*
X77958300Y-87801700D01*
%TO.N,Net-(D59-A)*%
X74120000Y-89100000D02*
X75067800Y-89100000D01*
X92990200Y-58427600D02*
X89442600Y-54880000D01*
X105462200Y-58427600D02*
X92990200Y-58427600D01*
X106150700Y-57739100D02*
X105462200Y-58427600D01*
X106150700Y-57211900D02*
X106150700Y-57739100D01*
X108442600Y-54920000D02*
X106150700Y-57211900D01*
X80363600Y-50123800D02*
X76412100Y-46172300D01*
X84686400Y-50123800D02*
X80363600Y-50123800D01*
X89442600Y-54880000D02*
X84686400Y-50123800D01*
X104188800Y-85299000D02*
X105442100Y-86552300D01*
X93005200Y-85299000D02*
X104188800Y-85299000D01*
X90902600Y-87401600D02*
X93005200Y-85299000D01*
X76766200Y-87401600D02*
X90902600Y-87401600D01*
X75067800Y-89100000D02*
X76766200Y-87401600D01*
%TO.N,Net-(D58-K)*%
X114912100Y-103552300D02*
X113712000Y-103552300D01*
X90598000Y-100498000D02*
X81740000Y-91640000D01*
X110657700Y-100498000D02*
X90598000Y-100498000D01*
X113712000Y-103552300D02*
X110657700Y-100498000D01*
%TO.N,Net-(D57-K)*%
X108902100Y-103552300D02*
X107702000Y-103552300D01*
X89112000Y-101552000D02*
X81740000Y-94180000D01*
X105701700Y-101552000D02*
X89112000Y-101552000D01*
X107702000Y-103552300D02*
X105701700Y-101552000D01*
%TO.N,Net-(D56-K)*%
X102892100Y-103552300D02*
X101692000Y-103552300D01*
X86972100Y-101952100D02*
X81740000Y-96720000D01*
X100091800Y-101952100D02*
X86972100Y-101952100D01*
X101692000Y-103552300D02*
X100091800Y-101952100D01*
%TO.N,Net-(D55-K)*%
X96882100Y-103552300D02*
X95682000Y-103552300D01*
X84832200Y-102352200D02*
X81740000Y-99260000D01*
X94481900Y-102352200D02*
X84832200Y-102352200D01*
X95682000Y-103552300D02*
X94481900Y-102352200D01*
%TO.N,Net-(D54-K)*%
X83279800Y-103339800D02*
X81740000Y-101800000D01*
X89459500Y-103339800D02*
X83279800Y-103339800D01*
X89672000Y-103552300D02*
X89459500Y-103339800D01*
X90872100Y-103552300D02*
X89672000Y-103552300D01*
%TO.N,Net-(D53-K)*%
X117787100Y-117442300D02*
X117817100Y-117412300D01*
X117787100Y-122412300D02*
X117787100Y-117442300D01*
%TO.N,Net-(D53-A)*%
X126055200Y-48289200D02*
X132792100Y-41552300D01*
X124129100Y-48289200D02*
X126055200Y-48289200D01*
X121235500Y-51182800D02*
X124129100Y-48289200D01*
X121235500Y-52968800D02*
X121235500Y-51182800D01*
X110664900Y-63539400D02*
X121235500Y-52968800D01*
X108008200Y-63539400D02*
X110664900Y-63539400D01*
X107444600Y-62975800D02*
X108008200Y-63539400D01*
X107444600Y-62113800D02*
X107444600Y-62975800D01*
X108569300Y-60989100D02*
X107444600Y-62113800D01*
X108852300Y-60989100D02*
X108569300Y-60989100D01*
X109433100Y-60408300D02*
X108852300Y-60989100D01*
X109433100Y-58450500D02*
X109433100Y-60408300D01*
X108442600Y-57460000D02*
X109433100Y-58450500D01*
X121235500Y-52968800D02*
X121303400Y-53036700D01*
%TO.N,Net-(D52-A)*%
X127425200Y-53650000D02*
X133184500Y-47890700D01*
X123851600Y-53650000D02*
X127425200Y-53650000D01*
X117317800Y-60183800D02*
X123851600Y-53650000D01*
X117317800Y-63939500D02*
X117317800Y-60183800D01*
X107842500Y-63939500D02*
X117317800Y-63939500D01*
X106994500Y-63091500D02*
X107842500Y-63939500D01*
X106994500Y-61448100D02*
X106994500Y-63091500D01*
X108442600Y-60000000D02*
X106994500Y-61448100D01*
X117317800Y-63939500D02*
X119021100Y-65642800D01*
%TO.N,Net-(D51-A)*%
X136602100Y-37742300D02*
X140412100Y-33932300D01*
X132630800Y-37742300D02*
X136602100Y-37742300D01*
X124343100Y-46030000D02*
X132630800Y-37742300D01*
X123811500Y-46030000D02*
X124343100Y-46030000D01*
X111425800Y-58415700D02*
X123811500Y-46030000D01*
X111425800Y-59556800D02*
X111425800Y-58415700D01*
X108442600Y-62540000D02*
X111425800Y-59556800D01*
%TO.N,CE*%
X120896600Y-108290300D02*
X120896600Y-108112900D01*
X117693200Y-111493700D02*
X120896600Y-108290300D01*
X109792500Y-111493700D02*
X117693200Y-111493700D01*
X100194600Y-121091600D02*
X109792500Y-111493700D01*
X99395700Y-121091600D02*
X100194600Y-121091600D01*
X98597800Y-121889500D02*
X99395700Y-121091600D01*
X98597800Y-122904500D02*
X98597800Y-121889500D01*
X99314600Y-123621300D02*
X98597800Y-122904500D01*
X103608100Y-123621300D02*
X99314600Y-123621300D01*
X104817100Y-122412300D02*
X103608100Y-123621300D01*
X158708400Y-63508400D02*
X149198700Y-63508400D01*
X161500000Y-66300000D02*
X158708400Y-63508400D01*
X161500000Y-73920000D02*
X161500000Y-66300000D01*
%TO.N,OI*%
X142694400Y-112212100D02*
X124139800Y-112212100D01*
X153305900Y-101600600D02*
X142694400Y-112212100D01*
X110017300Y-112212100D02*
X124139800Y-112212100D01*
X99817100Y-122412300D02*
X110017300Y-112212100D01*
%TO.N,Net-(D49-K)*%
X97277100Y-117952300D02*
X97817100Y-117412300D01*
X97277100Y-122412300D02*
X97277100Y-117952300D01*
%TO.N,SU*%
X298004300Y-114340700D02*
X299540000Y-112805000D01*
X293455700Y-114340700D02*
X298004300Y-114340700D01*
X291920000Y-112805000D02*
X293455700Y-114340700D01*
X290500000Y-73500000D02*
X286614700Y-73500000D01*
X286614700Y-73500000D02*
X282880000Y-73500000D01*
X290061500Y-114663500D02*
X291920000Y-112805000D01*
X239815500Y-114663500D02*
X290061500Y-114663500D01*
X235095300Y-119383700D02*
X239815500Y-114663500D01*
X233572100Y-119383700D02*
X235095300Y-119383700D01*
X99952900Y-112276500D02*
X89817100Y-122412300D01*
X108443800Y-112276500D02*
X99952900Y-112276500D01*
X113743500Y-106976800D02*
X108443800Y-112276500D01*
X121303400Y-106976800D02*
X113743500Y-106976800D01*
X146906900Y-107138900D02*
X148646700Y-105399100D01*
X121465500Y-107138900D02*
X146906900Y-107138900D01*
X121303400Y-106976800D02*
X121465500Y-107138900D01*
X289504900Y-82115100D02*
X290500000Y-81120000D01*
X289504900Y-87173100D02*
X289504900Y-82115100D01*
X292588000Y-90256200D02*
X289504900Y-87173100D01*
X292588000Y-92759900D02*
X292588000Y-90256200D01*
X291920000Y-93427900D02*
X292588000Y-92759900D01*
X291920000Y-105185000D02*
X291920000Y-93427900D01*
X228961300Y-120287600D02*
X230565000Y-120287600D01*
X227313200Y-121935700D02*
X228961300Y-120287600D01*
X220629500Y-121935700D02*
X227313200Y-121935700D01*
X220069800Y-122495400D02*
X220629500Y-121935700D01*
X208083700Y-122495400D02*
X220069800Y-122495400D01*
X207733500Y-122845600D02*
X208083700Y-122495400D01*
X199396300Y-122845600D02*
X207733500Y-122845600D01*
X191534400Y-114983700D02*
X199396300Y-122845600D01*
X179241000Y-114983700D02*
X191534400Y-114983700D01*
X172776600Y-108519300D02*
X179241000Y-114983700D01*
X172210800Y-108519300D02*
X172776600Y-108519300D01*
X171810700Y-108119200D02*
X172210800Y-108519300D01*
X161206700Y-108119200D02*
X171810700Y-108119200D01*
X158486600Y-105399100D02*
X161206700Y-108119200D01*
%TO.N,Net-(D46-A)*%
X124778300Y-105957200D02*
X124965300Y-105770200D01*
X113910000Y-105957200D02*
X124778300Y-105957200D01*
X107990900Y-111876300D02*
X113910000Y-105957200D01*
X95353100Y-111876300D02*
X107990900Y-111876300D01*
X84817100Y-122412300D02*
X95353100Y-111876300D01*
%TO.N,Net-(D45-A)*%
X165249000Y-124040300D02*
X176292500Y-124040300D01*
X163795900Y-125493400D02*
X165249000Y-124040300D01*
X154589700Y-125493400D02*
X163795900Y-125493400D01*
X154520900Y-125424600D02*
X154589700Y-125493400D01*
X124644700Y-125424600D02*
X154520900Y-125424600D01*
X124176900Y-125892400D02*
X124644700Y-125424600D01*
X71536100Y-125892400D02*
X124176900Y-125892400D01*
X68530000Y-122886300D02*
X71536100Y-125892400D01*
X68530000Y-121886800D02*
X68530000Y-122886300D01*
X69248400Y-121168400D02*
X68530000Y-121886800D01*
X78573200Y-121168400D02*
X69248400Y-121168400D01*
X79817100Y-122412300D02*
X78573200Y-121168400D01*
X178485000Y-123355900D02*
X177904700Y-123936200D01*
X198209200Y-123355900D02*
X178485000Y-123355900D01*
X198899200Y-124045900D02*
X198209200Y-123355900D01*
X208230600Y-124045900D02*
X198899200Y-124045900D01*
X208580800Y-123695700D02*
X208230600Y-124045900D01*
X220566900Y-123695700D02*
X208580800Y-123695700D01*
X221126600Y-123136000D02*
X220566900Y-123695700D01*
X230938700Y-123136000D02*
X221126600Y-123136000D01*
X232750300Y-121324400D02*
X230938700Y-123136000D01*
%TO.N,Net-(D44-A)*%
X164159900Y-112694600D02*
X164211500Y-112643000D01*
X132557100Y-112694600D02*
X164159900Y-112694600D01*
X127682600Y-117569100D02*
X132557100Y-112694600D01*
X123467200Y-117569100D02*
X127682600Y-117569100D01*
X119078100Y-121958200D02*
X123467200Y-117569100D01*
X119078100Y-123382000D02*
X119078100Y-121958200D01*
X118838800Y-123621300D02*
X119078100Y-123382000D01*
X104775400Y-123621300D02*
X118838800Y-123621300D01*
X104375300Y-124021400D02*
X104775400Y-123621300D01*
X76426200Y-124021400D02*
X104375300Y-124021400D01*
X74817100Y-122412300D02*
X76426200Y-124021400D01*
X229037600Y-122335800D02*
X230270300Y-121103100D01*
X220795200Y-122335800D02*
X229037600Y-122335800D01*
X220235500Y-122895500D02*
X220795200Y-122335800D01*
X208249400Y-122895500D02*
X220235500Y-122895500D01*
X207899200Y-123245700D02*
X208249400Y-122895500D01*
X199230600Y-123245700D02*
X207899200Y-123245700D01*
X191368700Y-115383800D02*
X199230600Y-123245700D01*
X178875400Y-115383800D02*
X191368700Y-115383800D01*
X174952600Y-111461000D02*
X178875400Y-115383800D01*
X165185000Y-111461000D02*
X174952600Y-111461000D01*
%TO.N,Net-(D43-A)*%
X157332700Y-113276100D02*
X165521200Y-113276100D01*
X152653600Y-117955200D02*
X157332700Y-113276100D01*
X151334500Y-117955200D02*
X152653600Y-117955200D01*
X151179500Y-117800200D02*
X151334500Y-117955200D01*
X128783400Y-117800200D02*
X151179500Y-117800200D01*
X126474500Y-120109100D02*
X128783400Y-117800200D01*
X125988100Y-120109100D02*
X126474500Y-120109100D01*
X122075800Y-124021400D02*
X125988100Y-120109100D01*
X104941200Y-124021400D02*
X122075800Y-124021400D01*
X104541100Y-124421500D02*
X104941200Y-124021400D01*
X71776300Y-124421500D02*
X104541100Y-124421500D01*
X69767100Y-122412300D02*
X71776300Y-124421500D01*
X231222300Y-120999900D02*
X231222300Y-119764100D01*
X229486300Y-122735900D02*
X231222300Y-120999900D01*
X220960900Y-122735900D02*
X229486300Y-122735900D01*
X220401200Y-123295600D02*
X220960900Y-122735900D01*
X208415100Y-123295600D02*
X220401200Y-123295600D01*
X208064900Y-123645800D02*
X208415100Y-123295600D01*
X199064900Y-123645800D02*
X208064900Y-123645800D01*
X198374800Y-122955700D02*
X199064900Y-123645800D01*
X176700100Y-122955700D02*
X198374800Y-122955700D01*
X165819400Y-112075000D02*
X176700100Y-122955700D01*
%TO.N,Net-(D42-A)*%
X134230400Y-127729100D02*
X93596100Y-127729100D01*
X134565000Y-127394500D02*
X134230400Y-127729100D01*
X137690400Y-127394500D02*
X134565000Y-127394500D01*
X138025000Y-127729100D02*
X137690400Y-127394500D01*
X161285400Y-127729100D02*
X138025000Y-127729100D01*
X161770100Y-128213800D02*
X161285400Y-127729100D01*
X164623700Y-128213800D02*
X161770100Y-128213800D01*
X165767700Y-127069800D02*
X164623700Y-128213800D01*
X177776000Y-127069800D02*
X165767700Y-127069800D01*
X70083900Y-127729100D02*
X64767100Y-122412300D01*
X93596100Y-127729100D02*
X70083900Y-127729100D01*
X224735300Y-124955100D02*
X225135400Y-124555000D01*
X215855000Y-124955100D02*
X224735300Y-124955100D01*
X214051700Y-126758400D02*
X215855000Y-124955100D01*
X205199000Y-126758400D02*
X214051700Y-126758400D01*
X204136900Y-125696300D02*
X205199000Y-126758400D01*
X199418000Y-125696300D02*
X204136900Y-125696300D01*
X198277800Y-124556100D02*
X199418000Y-125696300D01*
X186993300Y-124556100D02*
X198277800Y-124556100D01*
X186593300Y-124156100D02*
X186993300Y-124556100D01*
X179947900Y-124156100D02*
X186593300Y-124156100D01*
X179037700Y-125066300D02*
X179947900Y-124156100D01*
%TO.N,Net-(D41-A)*%
X106550900Y-60949200D02*
X105000100Y-62500000D01*
X106550900Y-57873200D02*
X106550900Y-60949200D01*
X108234100Y-56190000D02*
X106550900Y-57873200D01*
X109152100Y-56190000D02*
X108234100Y-56190000D01*
X121852100Y-43490000D02*
X109152100Y-56190000D01*
X125774400Y-43490000D02*
X121852100Y-43490000D01*
X132792100Y-36472300D02*
X125774400Y-43490000D01*
X103631800Y-106757400D02*
X104231900Y-106157300D01*
X91998200Y-106757400D02*
X103631800Y-106757400D01*
X82649000Y-116106600D02*
X91998200Y-106757400D01*
X66072800Y-116106600D02*
X82649000Y-116106600D01*
X59767100Y-122412300D02*
X66072800Y-116106600D01*
%TO.N,RI*%
X88802800Y-106157300D02*
X101165200Y-106157300D01*
X79302000Y-115658100D02*
X88802800Y-106157300D01*
X61521200Y-115658100D02*
X79302000Y-115658100D01*
X61521200Y-115658200D02*
X61521200Y-115658100D01*
X54767100Y-122412300D02*
X61521200Y-115658200D01*
X104000500Y-60959600D02*
X105000100Y-59960000D01*
X104000500Y-65508100D02*
X104000500Y-60959600D01*
X105019700Y-66527300D02*
X104000500Y-65508100D01*
X118307500Y-66527300D02*
X105019700Y-66527300D01*
X118307500Y-66527400D02*
X118307500Y-66527300D01*
X132824300Y-81044200D02*
X118307500Y-66527400D01*
X132824300Y-81610000D02*
X132824300Y-81044200D01*
X137695300Y-86481000D02*
X132824300Y-81610000D01*
X138126100Y-86481000D02*
X137695300Y-86481000D01*
X138772000Y-87126900D02*
X138126100Y-86481000D01*
X138772000Y-87557700D02*
X138772000Y-87126900D01*
X140771200Y-89556900D02*
X138772000Y-87557700D01*
X140771200Y-90267300D02*
X140771200Y-89556900D01*
X143144700Y-92640800D02*
X140771200Y-90267300D01*
X144770900Y-92640800D02*
X143144700Y-92640800D01*
X183764700Y-94796800D02*
X150920200Y-94796800D01*
X189944800Y-100976900D02*
X183764700Y-94796800D01*
X189944800Y-101259800D02*
X189944800Y-100976900D01*
X197638000Y-108953000D02*
X189944800Y-101259800D01*
X198185000Y-108953000D02*
X197638000Y-108953000D01*
%TO.N,Net-(D39-A)*%
X132792100Y-31392300D02*
X131844300Y-31392300D01*
X105000100Y-56927100D02*
X105000100Y-57420000D01*
X108101600Y-53825600D02*
X105000100Y-56927100D01*
X108400600Y-53825600D02*
X108101600Y-53825600D01*
X110810400Y-51415800D02*
X108400600Y-53825600D01*
X110810400Y-43608200D02*
X110810400Y-51415800D01*
X123347800Y-31070800D02*
X110810400Y-43608200D01*
X131522800Y-31070800D02*
X123347800Y-31070800D01*
X131844300Y-31392300D02*
X131522800Y-31070800D01*
X79168500Y-114906100D02*
X88334200Y-105740400D01*
X57283300Y-114906100D02*
X79168500Y-114906100D01*
X49777100Y-122412300D02*
X57283300Y-114906100D01*
%TO.N,HLT*%
X45502100Y-122412300D02*
X44767100Y-122412300D01*
X90020900Y-86367900D02*
X99254800Y-77134000D01*
X75076600Y-86367900D02*
X90020900Y-86367900D01*
X64706900Y-96737600D02*
X75076600Y-86367900D01*
X64706900Y-103597600D02*
X64706900Y-96737600D01*
X60786600Y-107517900D02*
X64706900Y-103597600D01*
X60786600Y-107878700D02*
X60786600Y-107517900D01*
X54742700Y-113922600D02*
X60786600Y-107878700D01*
X53440500Y-113922600D02*
X54742700Y-113922600D01*
X45502100Y-121861000D02*
X53440500Y-113922600D01*
X45502100Y-122412300D02*
X45502100Y-121861000D01*
X251666800Y-147573200D02*
X260750000Y-138490000D01*
X236491700Y-147573200D02*
X251666800Y-147573200D01*
X216220200Y-167844700D02*
X236491700Y-147573200D01*
X86066200Y-167844700D02*
X216220200Y-167844700D01*
X45502100Y-127280600D02*
X86066200Y-167844700D01*
X45502100Y-122412300D02*
X45502100Y-127280600D01*
%TO.N,Net-(D37-A)*%
X168401300Y-89600000D02*
X169083800Y-88917500D01*
X151050000Y-89600000D02*
X168401300Y-89600000D01*
X173280200Y-75540200D02*
X171660000Y-73920000D01*
X174640200Y-75540200D02*
X173280200Y-75540200D01*
X178520000Y-79420000D02*
X174640200Y-75540200D01*
%TO.N,Net-(D36-A)*%
X171124900Y-78034900D02*
X172510000Y-79420000D01*
X161574900Y-78034900D02*
X171124900Y-78034900D01*
X157223500Y-73683500D02*
X161574900Y-78034900D01*
%TO.N,Net-(D34-A)*%
X157930000Y-81980000D02*
X160490000Y-79420000D01*
X151050000Y-81980000D02*
X157930000Y-81980000D01*
%TO.N,Net-(D33-K)*%
X215120000Y-161420000D02*
X215120000Y-166300000D01*
%TO.N,Net-(D33-A)*%
X214197500Y-157957500D02*
X217660000Y-161420000D01*
X212117500Y-157957500D02*
X214197500Y-157957500D01*
X208080000Y-153920000D02*
X212117500Y-157957500D01*
%TO.N,Net-(D32-A)*%
X212660000Y-161040000D02*
X212660000Y-161420000D01*
X205540000Y-153920000D02*
X212660000Y-161040000D01*
%TO.N,Net-(D31-A)*%
X207620000Y-158540000D02*
X207620000Y-161420000D01*
X203000000Y-153920000D02*
X207620000Y-158540000D01*
%TO.N,Net-(D30-A)*%
X214665300Y-142255100D02*
X222555500Y-134364900D01*
X213019100Y-142255100D02*
X214665300Y-142255100D01*
X209350000Y-145924200D02*
X213019100Y-142255100D01*
X209350000Y-146699400D02*
X209350000Y-145924200D01*
X204399100Y-151650300D02*
X209350000Y-146699400D01*
X202729700Y-151650300D02*
X204399100Y-151650300D01*
X200460000Y-153920000D02*
X202729700Y-151650300D01*
%TO.N,/ALU/B_0*%
X302428500Y-107376500D02*
X297000000Y-112805000D01*
X304016700Y-107376500D02*
X302428500Y-107376500D01*
X309671000Y-101722200D02*
X304016700Y-107376500D01*
X309671000Y-101360500D02*
X309671000Y-101722200D01*
X315179300Y-95852200D02*
X309671000Y-101360500D01*
X317827800Y-95852200D02*
X315179300Y-95852200D01*
X319880000Y-93800000D02*
X317827800Y-95852200D01*
%TO.N,Net-(D29-A)*%
X198870200Y-162630200D02*
X197660000Y-161420000D01*
X203221800Y-162630200D02*
X198870200Y-162630200D01*
X203879800Y-161972200D02*
X203221800Y-162630200D01*
X203879800Y-158000700D02*
X203879800Y-161972200D01*
X201834100Y-155955000D02*
X203879800Y-158000700D01*
X201834100Y-153458400D02*
X201834100Y-155955000D01*
X202735000Y-152557500D02*
X201834100Y-153458400D01*
X206038600Y-152557500D02*
X202735000Y-152557500D01*
X211838300Y-146757800D02*
X206038600Y-152557500D01*
X211838300Y-146236900D02*
X211838300Y-146757800D01*
X212189900Y-145885300D02*
X211838300Y-146236900D01*
X212710800Y-145885300D02*
X212189900Y-145885300D01*
X214827400Y-143768700D02*
X212710800Y-145885300D01*
X214827400Y-143253300D02*
X214827400Y-143768700D01*
X222640200Y-135440500D02*
X214827400Y-143253300D01*
X223155600Y-135440500D02*
X222640200Y-135440500D01*
%TO.N,Net-(D28-A)*%
X206810000Y-145520300D02*
X207064400Y-145265900D01*
X206810000Y-146651900D02*
X206810000Y-145520300D01*
X201667000Y-151794900D02*
X206810000Y-146651900D01*
X197505100Y-151794900D02*
X201667000Y-151794900D01*
X195380000Y-153920000D02*
X197505100Y-151794900D01*
%TO.N,/ALU/B_1*%
X318994900Y-97225100D02*
X322420000Y-93800000D01*
X314807200Y-97225100D02*
X318994900Y-97225100D01*
X314807200Y-99023600D02*
X314807200Y-97225100D01*
X303391000Y-110439800D02*
X314807200Y-99023600D01*
X300333600Y-110439800D02*
X303391000Y-110439800D01*
X298270000Y-112503400D02*
X300333600Y-110439800D01*
X298270000Y-113159100D02*
X298270000Y-112503400D01*
X297488500Y-113940600D02*
X298270000Y-113159100D01*
X294014000Y-113940600D02*
X297488500Y-113940600D01*
X293190000Y-113116600D02*
X294014000Y-113940600D01*
X293190000Y-112459700D02*
X293190000Y-113116600D01*
X292404200Y-111673900D02*
X293190000Y-112459700D01*
X290511100Y-111673900D02*
X292404200Y-111673900D01*
X289380000Y-112805000D02*
X290511100Y-111673900D01*
%TO.N,Net-(D27-A)*%
X187670000Y-159090000D02*
X187670000Y-161420000D01*
X192840000Y-153920000D02*
X187670000Y-159090000D01*
X206906400Y-134653200D02*
X207606100Y-133953500D01*
X205571900Y-134653200D02*
X206906400Y-134653200D01*
X203775300Y-136449800D02*
X205571900Y-134653200D01*
X203775300Y-137330900D02*
X203775300Y-136449800D01*
X202763900Y-138342300D02*
X203775300Y-137330900D01*
X200840300Y-138342300D02*
X202763900Y-138342300D01*
X198500000Y-140682600D02*
X200840300Y-138342300D01*
X198500000Y-141296900D02*
X198500000Y-140682600D01*
X194032500Y-145764400D02*
X198500000Y-141296900D01*
X194032500Y-147159400D02*
X194032500Y-145764400D01*
X193662500Y-147529400D02*
X194032500Y-147159400D01*
%TO.N,/ALU/B_2*%
X310745600Y-80154400D02*
X311980000Y-78920000D01*
X306244300Y-80154400D02*
X310745600Y-80154400D01*
X303142900Y-83255800D02*
X306244300Y-80154400D01*
X303142900Y-84127600D02*
X303142900Y-83255800D01*
X304782700Y-85767300D02*
X303142900Y-84127600D01*
X306870000Y-83680000D02*
X304782700Y-85767300D01*
X323248400Y-92088400D02*
X324960000Y-93800000D01*
X323248400Y-90763000D02*
X323248400Y-92088400D01*
X321791300Y-89305900D02*
X323248400Y-90763000D01*
X309786700Y-89305900D02*
X321791300Y-89305900D01*
X308140000Y-90952600D02*
X309786700Y-89305900D01*
X308140000Y-92330400D02*
X308140000Y-90952600D01*
X306918400Y-93552000D02*
X308140000Y-92330400D01*
X306918400Y-94178000D02*
X306918400Y-93552000D01*
X304946100Y-96150300D02*
X306918400Y-94178000D01*
X300477500Y-96150300D02*
X304946100Y-96150300D01*
X300477500Y-95272200D02*
X300477500Y-96150300D01*
X300829100Y-94920600D02*
X300477500Y-95272200D01*
X301095800Y-94920600D02*
X300829100Y-94920600D01*
X301838400Y-94178000D02*
X301095800Y-94920600D01*
X301838400Y-93552000D02*
X301838400Y-94178000D01*
X303060000Y-92330400D02*
X301838400Y-93552000D01*
X303060000Y-87490000D02*
X303060000Y-92330400D01*
X304782700Y-85767300D02*
X303060000Y-87490000D01*
X296615600Y-103029400D02*
X294460000Y-105185000D01*
X296615600Y-100012200D02*
X296615600Y-103029400D01*
X300477500Y-96150300D02*
X296615600Y-100012200D01*
%TO.N,/ALU/B_3*%
X315317200Y-80602800D02*
X317000000Y-78920000D01*
X315317200Y-80602900D02*
X315317200Y-80602800D01*
X307407100Y-80602900D02*
X315317200Y-80602900D01*
X304330000Y-83680000D02*
X307407100Y-80602900D01*
%TO.N,Net-(D26-A)*%
X182800000Y-161420000D02*
X182620000Y-161420000D01*
X190300000Y-153920000D02*
X182800000Y-161420000D01*
%TO.N,Net-(D26-K)*%
X180080000Y-166260000D02*
X180120000Y-166300000D01*
X180080000Y-161420000D02*
X180080000Y-166260000D01*
%TO.N,/ALU/B_4*%
X318686500Y-75646500D02*
X298170000Y-75646500D01*
X321960000Y-78920000D02*
X318686500Y-75646500D01*
%TO.N,/ALU/B_5*%
X290501800Y-82275800D02*
X290290800Y-82275800D01*
X300710000Y-92484000D02*
X290501800Y-82275800D01*
X300710000Y-93930000D02*
X300710000Y-92484000D01*
X308377300Y-88178600D02*
X319873300Y-88178600D01*
X305731600Y-90824300D02*
X308377300Y-88178600D01*
X305731600Y-92288600D02*
X305731600Y-90824300D01*
X304520000Y-93500200D02*
X305731600Y-92288600D01*
X304520000Y-94062200D02*
X304520000Y-93500200D01*
X303061500Y-95520700D02*
X304520000Y-94062200D01*
X301077600Y-95520700D02*
X303061500Y-95520700D01*
%TO.N,/ALU/B_6*%
X330799800Y-80120200D02*
X332040000Y-78880000D01*
X318219800Y-80120200D02*
X330799800Y-80120200D01*
X315867800Y-84842200D02*
X317030000Y-83680000D01*
X313968800Y-84842200D02*
X315867800Y-84842200D01*
X313347100Y-84220500D02*
X313968800Y-84842200D01*
X313347100Y-83213100D02*
X313347100Y-84220500D01*
X316440000Y-80120200D02*
X313347100Y-83213100D01*
X318219800Y-80120200D02*
X316440000Y-80120200D01*
X318219800Y-78439500D02*
X318219800Y-80120200D01*
X316026900Y-76246600D02*
X318219800Y-78439500D01*
X290706600Y-76246600D02*
X316026900Y-76246600D01*
X290500000Y-76040000D02*
X290706600Y-76246600D01*
%TO.N,/MAR/A0*%
X233468300Y-32428300D02*
X229960000Y-28920000D01*
X240928500Y-32428300D02*
X233468300Y-32428300D01*
X240961100Y-32460900D02*
X240928500Y-32428300D01*
X224935600Y-25738600D02*
X229960000Y-25738600D01*
X223515400Y-27158800D02*
X224935600Y-25738600D01*
X201759400Y-27158800D02*
X223515400Y-27158800D01*
X197158900Y-31759300D02*
X201759400Y-27158800D01*
%TO.N,/ALU/B_7*%
X334426100Y-81493900D02*
X337000000Y-78920000D01*
X316676100Y-81493900D02*
X334426100Y-81493900D01*
X314490000Y-83680000D02*
X316676100Y-81493900D01*
%TO.N,/MAR/A1*%
X196475800Y-33468700D02*
X196325700Y-33318600D01*
X214062200Y-33468700D02*
X196475800Y-33468700D01*
X220711400Y-40117900D02*
X214062200Y-33468700D01*
X234742700Y-40117900D02*
X220711400Y-40117900D01*
X236957100Y-42332300D02*
X234742700Y-40117900D01*
%TO.N,/MAR/A2*%
X229746900Y-43532500D02*
X230947100Y-42332300D01*
X221327800Y-43532500D02*
X229746900Y-43532500D01*
X219986000Y-42190700D02*
X221327800Y-43532500D01*
X219986000Y-41366600D02*
X219986000Y-42190700D01*
X213388300Y-34768900D02*
X219986000Y-41366600D01*
X195187900Y-34768900D02*
X213388300Y-34768900D01*
X194703700Y-35253100D02*
X195187900Y-34768900D01*
X193808100Y-35253100D02*
X194703700Y-35253100D01*
%TO.N,/MAR/A3*%
X176357600Y-99612400D02*
X176142000Y-99828000D01*
X183424100Y-99612400D02*
X176357600Y-99612400D01*
X184149200Y-100337500D02*
X183424100Y-99612400D01*
X223722900Y-41118100D02*
X224937100Y-42332300D01*
X220580000Y-41118100D02*
X223722900Y-41118100D01*
X213793300Y-34331400D02*
X220580000Y-41118100D01*
X194776700Y-34331400D02*
X213793300Y-34331400D01*
X194589200Y-34518900D02*
X194776700Y-34331400D01*
%TO.N,Net-(D18-A)*%
X277933300Y-102528500D02*
X279257100Y-103852300D01*
X274633300Y-102528500D02*
X277933300Y-102528500D01*
X270517100Y-98412300D02*
X274633300Y-102528500D01*
X272567300Y-79701100D02*
X274468400Y-77800000D01*
X286618400Y-44568400D02*
X287720000Y-45670000D01*
X284092100Y-44568400D02*
X286618400Y-44568400D01*
X279951300Y-48709200D02*
X284092100Y-44568400D01*
X279951300Y-66274000D02*
X279951300Y-48709200D01*
X278400200Y-67825100D02*
X279951300Y-66274000D01*
X278400200Y-73868200D02*
X278400200Y-67825100D01*
X274468400Y-77800000D02*
X278400200Y-73868200D01*
%TO.N,Net-(D17-A)*%
X270080500Y-99550700D02*
X274382100Y-103852300D01*
X269115500Y-99550700D02*
X270080500Y-99550700D01*
X267977100Y-98412300D02*
X269115500Y-99550700D01*
%TO.N,Net-(D16-A)*%
X269507100Y-102482300D02*
X269507100Y-103852300D01*
X265437100Y-98412300D02*
X269507100Y-102482300D01*
X269718100Y-94131300D02*
X274354300Y-94131300D01*
X265437100Y-98412300D02*
X269718100Y-94131300D01*
%TO.N,Net-(D15-A)*%
X265417300Y-81448900D02*
X266848400Y-82880000D01*
X265417300Y-75349200D02*
X265417300Y-81448900D01*
X266776500Y-73990000D02*
X265417300Y-75349200D01*
X269459500Y-73990000D02*
X266776500Y-73990000D01*
X272218100Y-71231400D02*
X269459500Y-73990000D01*
X272218100Y-70123300D02*
X272218100Y-71231400D01*
X278040200Y-64301200D02*
X272218100Y-70123300D01*
X278040200Y-62978700D02*
X278040200Y-64301200D01*
X277411300Y-62349800D02*
X278040200Y-62978700D01*
X276421000Y-62349800D02*
X277411300Y-62349800D01*
X276075400Y-62004200D02*
X276421000Y-62349800D01*
%TO.N,CF*%
X265170000Y-50750000D02*
X262000000Y-53920000D01*
X266160000Y-50750000D02*
X265170000Y-50750000D01*
X128477800Y-35202300D02*
X124000100Y-39680000D01*
X136601600Y-35202300D02*
X128477800Y-35202300D01*
X138819900Y-32984000D02*
X136601600Y-35202300D01*
X193200000Y-32984000D02*
X138819900Y-32984000D01*
X194134800Y-33918800D02*
X193200000Y-32984000D01*
X213946500Y-33918800D02*
X194134800Y-33918800D01*
X220545700Y-40518000D02*
X213946500Y-33918800D01*
X230893900Y-40518000D02*
X220545700Y-40518000D01*
X232823700Y-42447800D02*
X230893900Y-40518000D01*
X232823700Y-43295300D02*
X232823700Y-42447800D01*
X241920900Y-52392500D02*
X232823700Y-43295300D01*
X260472500Y-52392500D02*
X241920900Y-52392500D01*
X262000000Y-53920000D02*
X260472500Y-52392500D01*
%TO.N,Net-(D14-K)*%
X256810000Y-53920000D02*
X256750000Y-53980000D01*
X259460000Y-53920000D02*
X256810000Y-53920000D01*
%TO.N,Net-(D12-A)*%
X254907100Y-101322300D02*
X254907100Y-103852300D01*
X257817100Y-98412300D02*
X254907100Y-101322300D01*
X265863900Y-76244500D02*
X266848400Y-75260000D01*
X265863900Y-78156000D02*
X265863900Y-76244500D01*
X266777900Y-79070000D02*
X265863900Y-78156000D01*
X270090600Y-79070000D02*
X266777900Y-79070000D01*
X272318900Y-81298300D02*
X270090600Y-79070000D01*
X274881400Y-81298300D02*
X272318900Y-81298300D01*
X281414400Y-74765300D02*
X274881400Y-81298300D01*
X281414400Y-56435600D02*
X281414400Y-74765300D01*
X284560000Y-53290000D02*
X281414400Y-56435600D01*
%TO.N,Net-(D11-A)*%
X250017100Y-103672300D02*
X250017100Y-103852300D01*
X255277100Y-98412300D02*
X250017100Y-103672300D01*
%TO.N,Net-(D10-K)*%
X256880000Y-58420000D02*
X256750000Y-58550000D01*
X259460000Y-58420000D02*
X256880000Y-58420000D01*
%TO.N,ZF*%
X263929500Y-55520500D02*
X266160000Y-53290000D01*
X255327600Y-55520500D02*
X263929500Y-55520500D01*
X253199200Y-53392100D02*
X255327600Y-55520500D01*
X230621600Y-53392100D02*
X253199200Y-53392100D01*
X219561700Y-42332200D02*
X230621600Y-53392100D01*
X219561700Y-41509900D02*
X219561700Y-42332200D01*
X213226100Y-35174300D02*
X219561700Y-41509900D01*
X199142300Y-35174300D02*
X213226100Y-35174300D01*
X197825100Y-36491500D02*
X199142300Y-35174300D01*
X145896800Y-36491500D02*
X197825100Y-36491500D01*
X144323900Y-38064400D02*
X145896800Y-36491500D01*
X139983800Y-38064400D02*
X144323900Y-38064400D01*
X139698600Y-38349600D02*
X139983800Y-38064400D01*
X133802400Y-38349600D02*
X139698600Y-38349600D01*
%TO.N,Net-(D9-K)*%
X236587100Y-85682300D02*
X236817100Y-85912300D01*
X236587100Y-81162300D02*
X236587100Y-85682300D01*
%TO.N,/ALU/A_0*%
X232360600Y-82848800D02*
X234047100Y-81162300D01*
X220987600Y-82848800D02*
X232360600Y-82848800D01*
X220386900Y-82248100D02*
X220987600Y-82848800D01*
X220386900Y-74012100D02*
X220386900Y-82248100D01*
X218657100Y-72282300D02*
X220386900Y-74012100D01*
X245297100Y-67682300D02*
X246567100Y-66412300D01*
X237611500Y-67682300D02*
X245297100Y-67682300D01*
X236066700Y-69227100D02*
X237611500Y-67682300D01*
X270354200Y-71127900D02*
X276561700Y-64920400D01*
X249733300Y-71127900D02*
X270354200Y-71127900D01*
X248388100Y-69782700D02*
X249733300Y-71127900D01*
X248388100Y-69739200D02*
X248388100Y-69782700D01*
%TO.N,/ALU/A_1*%
X227795100Y-82414300D02*
X229047100Y-81162300D01*
X223529800Y-82414300D02*
X227795100Y-82414300D01*
X222787300Y-81671800D02*
X223529800Y-82414300D01*
X222787300Y-73872500D02*
X222787300Y-81671800D01*
X221197100Y-72282300D02*
X222787300Y-73872500D01*
X244945200Y-68952300D02*
X246567100Y-68952300D01*
X243997300Y-69900200D02*
X244945200Y-68952300D01*
X238039200Y-69900200D02*
X243997300Y-69900200D01*
X237205100Y-69066100D02*
X238039200Y-69900200D01*
X264168100Y-68952300D02*
X270487500Y-62632900D01*
X249190700Y-68952300D02*
X264168100Y-68952300D01*
%TO.N,/ALU/A_2*%
X223737100Y-80852300D02*
X224047100Y-81162300D01*
X223737100Y-72282300D02*
X223737100Y-80852300D01*
X288758300Y-44168300D02*
X295340000Y-50750000D01*
X283926400Y-44168300D02*
X288758300Y-44168300D01*
X279461100Y-48633600D02*
X283926400Y-44168300D01*
X279461100Y-64294700D02*
X279461100Y-48633600D01*
X274846100Y-68909700D02*
X279461100Y-64294700D01*
%TO.N,/ALU/A_3*%
X282615900Y-69489800D02*
X285932200Y-69489800D01*
X281885100Y-70220600D02*
X282615900Y-69489800D01*
X281885100Y-74927400D02*
X281885100Y-70220600D01*
X274880400Y-81932100D02*
X281885100Y-74927400D01*
X269854400Y-81932100D02*
X274880400Y-81932100D01*
X267910300Y-83876200D02*
X269854400Y-81932100D01*
X265694100Y-83876200D02*
X267910300Y-83876200D01*
X260793400Y-78975500D02*
X265694100Y-83876200D01*
X251510300Y-78975500D02*
X260793400Y-78975500D01*
X246567100Y-74032300D02*
X251510300Y-78975500D01*
X291466300Y-59703700D02*
X286707500Y-59703700D01*
X295340000Y-55830000D02*
X291466300Y-59703700D01*
%TO.N,/ALU/A_4*%
X262696700Y-56329800D02*
X238129300Y-56329800D01*
X263308900Y-56942000D02*
X262696700Y-56329800D01*
X274576400Y-56942000D02*
X263308900Y-56942000D01*
X274629100Y-56889300D02*
X274576400Y-56942000D01*
X227026700Y-67225900D02*
X231899900Y-72099100D01*
X214365600Y-67225900D02*
X227026700Y-67225900D01*
%TO.N,/ALU/A_5*%
X195660000Y-70479400D02*
X196627100Y-69512300D01*
X195660000Y-74977900D02*
X195660000Y-70479400D01*
X196544400Y-75862300D02*
X195660000Y-74977900D01*
X203727100Y-75862300D02*
X196544400Y-75862300D01*
X209027100Y-81162300D02*
X203727100Y-75862300D01*
X274598900Y-52115700D02*
X274678900Y-52195700D01*
X273154300Y-52115700D02*
X274598900Y-52115700D01*
X270710000Y-54560000D02*
X273154300Y-52115700D01*
X265464900Y-54560000D02*
X270710000Y-54560000D01*
X264104300Y-55920600D02*
X265464900Y-54560000D01*
X255119600Y-55920600D02*
X264104300Y-55920600D01*
X252991200Y-53792200D02*
X255119600Y-55920600D01*
X231433000Y-53792200D02*
X252991200Y-53792200D01*
X231157400Y-54067800D02*
X231433000Y-53792200D01*
%TO.N,/ALU/A_6*%
X212412800Y-73446600D02*
X213577100Y-72282300D01*
X203797800Y-73446600D02*
X212412800Y-73446600D01*
X202403500Y-72052300D02*
X203797800Y-73446600D01*
X196627100Y-72052300D02*
X202403500Y-72052300D01*
X214850300Y-71009100D02*
X215397000Y-71009100D01*
X213577100Y-72282300D02*
X214850300Y-71009100D01*
X231033600Y-52920000D02*
X224933700Y-46820100D01*
X253350500Y-52920000D02*
X231033600Y-52920000D01*
X255550900Y-55120400D02*
X253350500Y-52920000D01*
X262529600Y-55120400D02*
X255550900Y-55120400D01*
X265630000Y-52020000D02*
X262529600Y-55120400D01*
X270710000Y-52020000D02*
X265630000Y-52020000D01*
X273153500Y-49576500D02*
X270710000Y-52020000D01*
X274703800Y-49576500D02*
X273153500Y-49576500D01*
%TO.N,/ALU/A_7*%
X197218400Y-75183600D02*
X196627100Y-74592300D01*
X213215800Y-75183600D02*
X197218400Y-75183600D01*
X216117100Y-72282300D02*
X213215800Y-75183600D01*
X264128000Y-59650200D02*
X264138800Y-59639400D01*
X247515000Y-59650200D02*
X264128000Y-59650200D01*
X245577500Y-57712700D02*
X247515000Y-59650200D01*
X224358400Y-57712700D02*
X245577500Y-57712700D01*
%TO.N,Net-(D1-K)*%
X271297100Y-139582300D02*
X271317100Y-139602300D01*
X271297100Y-134912300D02*
X271297100Y-139582300D01*
%TO.N,Net-(U31-THR)*%
X132286500Y-152958100D02*
X132122200Y-152793800D01*
X141620700Y-152958100D02*
X132286500Y-152958100D01*
X143999700Y-150579100D02*
X141620700Y-152958100D01*
X149113900Y-150579100D02*
X143999700Y-150579100D01*
X151090500Y-148602500D02*
X149113900Y-150579100D01*
X152068900Y-148602500D02*
X151090500Y-148602500D01*
X153599700Y-147071700D02*
X152068900Y-148602500D01*
%TO.N,CLK*%
X260852700Y-128227300D02*
X260750000Y-128330000D01*
X274197100Y-128227300D02*
X260852700Y-128227300D01*
X249529400Y-60910000D02*
X266160000Y-60910000D01*
X246567100Y-63872300D02*
X249529400Y-60910000D01*
X220639800Y-46495000D02*
X212817100Y-38672300D01*
X220639800Y-54908900D02*
X220639800Y-46495000D01*
X224043700Y-58312800D02*
X220639800Y-54908900D01*
X241007600Y-58312800D02*
X224043700Y-58312800D01*
X246567100Y-63872300D02*
X241007600Y-58312800D01*
%TO.N,Net-(C14-Pad2)*%
X202175000Y-105325000D02*
X202000000Y-105500000D01*
X205461600Y-105325000D02*
X202175000Y-105325000D01*
%TO.N,BUS_5*%
X302869900Y-99390100D02*
X300710000Y-101550000D01*
X304234000Y-99390100D02*
X302869900Y-99390100D01*
X309741600Y-93882500D02*
X304234000Y-99390100D01*
X309741600Y-92850200D02*
X309741600Y-93882500D01*
X310811600Y-91780200D02*
X309741600Y-92850200D01*
X310811600Y-90828100D02*
X310811600Y-91780200D01*
X311488800Y-90150900D02*
X310811600Y-90828100D01*
X313340900Y-90150900D02*
X311488800Y-90150900D01*
X314490000Y-91300000D02*
X313340900Y-90150900D01*
X291023400Y-79706800D02*
X299132900Y-87816300D01*
X288368600Y-79706800D02*
X291023400Y-79706800D01*
X285685400Y-82390000D02*
X288368600Y-79706800D01*
X280953800Y-82390000D02*
X285685400Y-82390000D01*
X279193800Y-84150000D02*
X280953800Y-82390000D01*
X269539400Y-84150000D02*
X279193800Y-84150000D01*
X262897100Y-90792300D02*
X269539400Y-84150000D01*
X172239800Y-25471800D02*
X178730000Y-31962000D01*
X163015700Y-25471800D02*
X172239800Y-25471800D01*
X162617800Y-25073900D02*
X163015700Y-25471800D01*
X122079100Y-25073900D02*
X162617800Y-25073900D01*
X113582200Y-33570800D02*
X122079100Y-25073900D01*
X88831900Y-33570800D02*
X113582200Y-33570800D01*
X85262000Y-37140700D02*
X88831900Y-33570800D01*
X83961100Y-37140700D02*
X85262000Y-37140700D01*
X81279500Y-39822300D02*
X83961100Y-37140700D01*
X76341500Y-39822300D02*
X81279500Y-39822300D01*
X74419500Y-41744300D02*
X76341500Y-39822300D01*
X74419500Y-63230500D02*
X74419500Y-41744300D01*
X58500000Y-79150000D02*
X74419500Y-63230500D01*
X197156800Y-149915400D02*
X197920000Y-149152200D01*
X159360200Y-149915400D02*
X197156800Y-149915400D01*
X159317100Y-149872300D02*
X159360200Y-149915400D01*
X217257700Y-63521700D02*
X216117100Y-64662300D01*
X219199900Y-63521700D02*
X217257700Y-63521700D01*
X219927100Y-64248900D02*
X219199900Y-63521700D01*
X219927100Y-65026100D02*
X219927100Y-64248900D01*
X221101900Y-66200900D02*
X219927100Y-65026100D01*
X227416100Y-66200900D02*
X221101900Y-66200900D01*
X232968700Y-71753500D02*
X227416100Y-66200900D01*
X232968700Y-72017900D02*
X232968700Y-71753500D01*
X238490800Y-77540000D02*
X232968700Y-72017900D01*
X240358200Y-77540000D02*
X238490800Y-77540000D01*
X251777200Y-88959000D02*
X240358200Y-77540000D01*
X210516200Y-59061400D02*
X216117100Y-64662300D01*
X207735800Y-59061400D02*
X210516200Y-59061400D01*
X207244900Y-58570500D02*
X207735800Y-59061400D01*
X202883000Y-58570500D02*
X207244900Y-58570500D01*
X202683000Y-58770500D02*
X202883000Y-58570500D01*
X192219100Y-58770500D02*
X202683000Y-58770500D01*
X187620000Y-54171400D02*
X192219100Y-58770500D01*
X187620000Y-52330700D02*
X187620000Y-54171400D01*
X182807700Y-47518400D02*
X187620000Y-52330700D01*
X181138400Y-47518400D02*
X182807700Y-47518400D01*
X178730000Y-45110000D02*
X181138400Y-47518400D01*
X172256900Y-62381000D02*
X173301900Y-61336000D01*
X171764400Y-61888600D02*
X172256900Y-62381000D01*
X168207900Y-61888600D02*
X171764400Y-61888600D01*
X167490000Y-62606500D02*
X168207900Y-61888600D01*
X167490000Y-63418400D02*
X167490000Y-62606500D01*
X166730000Y-64178400D02*
X167490000Y-63418400D01*
X164818400Y-64178400D02*
X166730000Y-64178400D01*
X163680000Y-63040000D02*
X164818400Y-64178400D01*
X184563800Y-65069000D02*
X189007100Y-69512300D01*
X174181800Y-65069000D02*
X184563800Y-65069000D01*
X172570000Y-63457200D02*
X174181800Y-65069000D01*
X172570000Y-62694200D02*
X172570000Y-63457200D01*
X172256900Y-62381000D02*
X172570000Y-62694200D01*
X217393600Y-129480800D02*
X236317800Y-129480800D01*
X213597100Y-133277300D02*
X217393600Y-129480800D01*
X200318400Y-143901600D02*
X197920000Y-146300000D01*
X202579200Y-143901600D02*
X200318400Y-143901600D01*
X203741300Y-142739500D02*
X202579200Y-143901600D01*
X203741300Y-141533800D02*
X203741300Y-142739500D01*
X205647800Y-139627300D02*
X203741300Y-141533800D01*
X206941600Y-139627300D02*
X205647800Y-139627300D01*
X213291600Y-133277300D02*
X206941600Y-139627300D01*
X213597100Y-133277300D02*
X213291600Y-133277300D01*
%TO.N,Net-(U1-THR)*%
X319565000Y-109000000D02*
X317605000Y-107040000D01*
X320775000Y-109000000D02*
X319565000Y-109000000D01*
X308909700Y-115735300D02*
X306373300Y-115735300D01*
X317605000Y-107040000D02*
X308909700Y-115735300D01*
%TO.N,Net-(U2-DIS)*%
X278317100Y-149912300D02*
X278067100Y-149662300D01*
X282067100Y-149912300D02*
X278317100Y-149912300D01*
%TD*%
M02*
